<?xml version="1.0" encoding="UTF-8" standalone="no"?>
<!DOCTYPE svg PUBLIC "-//W3C//DTD SVG 1.1//EN"
 "http://www.w3.org/Graphics/SVG/1.1/DTD/svg11.dtd">
<!-- Generated by graphviz version 2.26.3 (20100126.1600)
 -->
<!-- Title: inheritancef4cea304dd Pages: 1 -->
<svg width="1124pt" height="256pt"
 viewBox="0.00 0.00 1124.00 256.00" xmlns="http://www.w3.org/2000/svg" xmlns:xlink="http://www.w3.org/1999/xlink">
<g id="graph1" class="graph" transform="scale(1 1) rotate(0) translate(4 252)">
<title>inheritancef4cea304dd</title>
<polygon fill="white" stroke="white" points="-4,5 -4,-252 1121,-252 1121,5 -4,5"/>
<!-- topo.base.cf.ResizableCFProjection -->
<g id="node1" class="node"><title>topo.base.cf.ResizableCFProjection</title>
<polygon fill="none" stroke="black" stroke-width="0.5" points="1116,-172.5 934,-172.5 934,-151.5 1116,-151.5 1116,-172.5"/>
<text text-anchor="middle" x="1025" y="-159.5" font-family="Vera" font-size="10.00">topo.base.cf.ResizableCFProjection</text>
</g>
<!-- topo.base.cf.CFProjection -->
<g id="node2" class="node"><title>topo.base.cf.CFProjection</title>
<polygon fill="none" stroke="black" stroke-width="0.5" points="869,-172.5 733,-172.5 733,-151.5 869,-151.5 869,-172.5"/>
<text text-anchor="middle" x="801" y="-159.5" font-family="Vera" font-size="10.00">topo.base.cf.CFProjection</text>
</g>
<!-- topo.base.cf.CFProjection&#45;&gt;topo.base.cf.ResizableCFProjection -->
<g id="edge2" class="edge"><title>topo.base.cf.CFProjection&#45;&gt;topo.base.cf.ResizableCFProjection</title>
<path fill="none" stroke="black" stroke-width="0.5" d="M869.73,-162C888.343,-162 908.841,-162 928.67,-162"/>
<polygon fill="black" stroke="black" points="928.696,-163.75 933.696,-162 928.696,-160.25 928.696,-163.75"/>
</g>
<!-- topo.base.cf.NullCFError -->
<g id="node4" class="node"><title>topo.base.cf.NullCFError</title>
<polygon fill="none" stroke="black" stroke-width="0.5" points="162,-172.5 32,-172.5 32,-151.5 162,-151.5 162,-172.5"/>
<text text-anchor="middle" x="97" y="-159.5" font-family="Vera" font-size="10.00">topo.base.cf.NullCFError</text>
</g>
<!-- topo.base.cf.CFPLearningFn -->
<g id="node5" class="node"><title>topo.base.cf.CFPLearningFn</title>
<polygon fill="none" stroke="black" stroke-width="0.5" points="422,-210.5 274,-210.5 274,-189.5 422,-189.5 422,-210.5"/>
<text text-anchor="middle" x="348" y="-197.5" font-family="Vera" font-size="10.00">topo.base.cf.CFPLearningFn</text>
</g>
<!-- topo.base.cf.CFPLF_Plugin -->
<g id="node14" class="node"><title>topo.base.cf.CFPLF_Plugin</title>
<polygon fill="none" stroke="black" stroke-width="0.5" points="655,-248.5 515,-248.5 515,-227.5 655,-227.5 655,-248.5"/>
<text text-anchor="middle" x="585" y="-235.5" font-family="Vera" font-size="10.00">topo.base.cf.CFPLF_Plugin</text>
</g>
<!-- topo.base.cf.CFPLearningFn&#45;&gt;topo.base.cf.CFPLF_Plugin -->
<g id="edge10" class="edge"><title>topo.base.cf.CFPLearningFn&#45;&gt;topo.base.cf.CFPLF_Plugin</title>
<path fill="none" stroke="black" stroke-width="0.5" d="M410.579,-210.034C443.384,-215.294 483.607,-221.743 517.157,-227.122"/>
<polygon fill="black" stroke="black" points="517.268,-228.912 522.482,-227.976 517.822,-225.456 517.268,-228.912"/>
</g>
<!-- topo.base.cf.CFPLF_Identity -->
<g id="node22" class="node"><title>topo.base.cf.CFPLF_Identity</title>
<polygon fill="none" stroke="black" stroke-width="0.5" points="658,-210.5 512,-210.5 512,-189.5 658,-189.5 658,-210.5"/>
<text text-anchor="middle" x="585" y="-197.5" font-family="Vera" font-size="10.00">topo.base.cf.CFPLF_Identity</text>
</g>
<!-- topo.base.cf.CFPLearningFn&#45;&gt;topo.base.cf.CFPLF_Identity -->
<g id="edge18" class="edge"><title>topo.base.cf.CFPLearningFn&#45;&gt;topo.base.cf.CFPLF_Identity</title>
<path fill="none" stroke="black" stroke-width="0.5" d="M422.663,-200C449.121,-200 478.973,-200 505.796,-200"/>
<polygon fill="black" stroke="black" points="506.118,-201.75 511.118,-200 506.118,-198.25 506.118,-201.75"/>
</g>
<!-- param.parameterized.Parameterized -->
<g id="node6" class="node"><title>param.parameterized.Parameterized</title>
<polygon fill="none" stroke="black" stroke-width="0.5" points="194,-134.5 5.68434e-14,-134.5 0,-113.5 194,-113.5 194,-134.5"/>
<text text-anchor="middle" x="97" y="-121.5" font-family="Vera" font-size="10.00">param.parameterized.Parameterized</text>
</g>
<!-- param.parameterized.Parameterized&#45;&gt;topo.base.cf.CFPLearningFn -->
<g id="edge4" class="edge"><title>param.parameterized.Parameterized&#45;&gt;topo.base.cf.CFPLearningFn</title>
<path fill="none" stroke="black" stroke-width="0.5" d="M172.778,-134.022C180.177,-136.411 187.384,-139.361 194,-143 214.384,-154.213 209.43,-170.133 230,-181 241.765,-187.215 255.04,-191.509 268.33,-194.454"/>
<polygon fill="black" stroke="black" points="267.972,-196.167 273.224,-195.479 268.689,-192.741 267.972,-196.167"/>
</g>
<!-- topo.base.simulation.EPConnection -->
<g id="node8" class="node"><title>topo.base.simulation.EPConnection</title>
<polygon fill="none" stroke="black" stroke-width="0.5" points="441,-172.5 255,-172.5 255,-151.5 441,-151.5 441,-172.5"/>
<text text-anchor="middle" x="348" y="-159.5" font-family="Vera" font-size="10.00">topo.base.simulation.EPConnection</text>
</g>
<!-- param.parameterized.Parameterized&#45;&gt;topo.base.simulation.EPConnection -->
<g id="edge6" class="edge"><title>param.parameterized.Parameterized&#45;&gt;topo.base.simulation.EPConnection</title>
<path fill="none" stroke="black" stroke-width="0.5" d="M163.276,-134.034C198.161,-139.315 240.968,-145.796 276.587,-151.189"/>
<polygon fill="black" stroke="black" points="276.583,-152.958 281.789,-151.976 277.107,-149.497 276.583,-152.958"/>
</g>
<!-- topo.base.cf.CFPOutputFn -->
<g id="node11" class="node"><title>topo.base.cf.CFPOutputFn</title>
<polygon fill="none" stroke="black" stroke-width="0.5" points="418,-134.5 278,-134.5 278,-113.5 418,-113.5 418,-134.5"/>
<text text-anchor="middle" x="348" y="-121.5" font-family="Vera" font-size="10.00">topo.base.cf.CFPOutputFn</text>
</g>
<!-- param.parameterized.Parameterized&#45;&gt;topo.base.cf.CFPOutputFn -->
<g id="edge22" class="edge"><title>param.parameterized.Parameterized&#45;&gt;topo.base.cf.CFPOutputFn</title>
<path fill="none" stroke="black" stroke-width="0.5" d="M194.043,-124C220.059,-124 247.797,-124 272.459,-124"/>
<polygon fill="black" stroke="black" points="272.673,-125.75 277.673,-124 272.673,-122.25 272.673,-125.75"/>
</g>
<!-- topo.base.simulation.EventProcessor -->
<g id="node29" class="node"><title>topo.base.simulation.EventProcessor</title>
<polygon fill="none" stroke="black" stroke-width="0.5" points="445,-96.5 251,-96.5 251,-75.5 445,-75.5 445,-96.5"/>
<text text-anchor="middle" x="348" y="-83.5" font-family="Vera" font-size="10.00">topo.base.simulation.EventProcessor</text>
</g>
<!-- param.parameterized.Parameterized&#45;&gt;topo.base.simulation.EventProcessor -->
<g id="edge28" class="edge"><title>param.parameterized.Parameterized&#45;&gt;topo.base.simulation.EventProcessor</title>
<path fill="none" stroke="black" stroke-width="0.5" d="M163.276,-113.966C198.161,-108.685 240.968,-102.204 276.587,-96.8115"/>
<polygon fill="black" stroke="black" points="277.107,-98.5029 281.789,-96.024 276.583,-95.0423 277.107,-98.5029"/>
</g>
<!-- topo.base.cf.CFPResponseFn -->
<g id="node33" class="node"><title>topo.base.cf.CFPResponseFn</title>
<polygon fill="none" stroke="black" stroke-width="0.5" points="424,-20.5 272,-20.5 272,0.5 424,0.5 424,-20.5"/>
<text text-anchor="middle" x="348" y="-7.5" font-family="Vera" font-size="10.00">topo.base.cf.CFPResponseFn</text>
</g>
<!-- param.parameterized.Parameterized&#45;&gt;topo.base.cf.CFPResponseFn -->
<g id="edge30" class="edge"><title>param.parameterized.Parameterized&#45;&gt;topo.base.cf.CFPResponseFn</title>
<path fill="none" stroke="black" stroke-width="0.5" d="M107.338,-113.972C128.441,-94.1446 178.821,-50.0342 230,-29 241.437,-24.2996 253.943,-20.758 266.4,-18.0904"/>
<polygon fill="black" stroke="black" points="266.81,-19.7928 271.356,-17.0736 266.107,-16.3642 266.81,-19.7928"/>
</g>
<!-- topo.base.projection.Projection -->
<g id="node16" class="node"><title>topo.base.projection.Projection</title>
<polygon fill="none" stroke="black" stroke-width="0.5" points="667,-172.5 503,-172.5 503,-151.5 667,-151.5 667,-172.5"/>
<text text-anchor="middle" x="585" y="-159.5" font-family="Vera" font-size="10.00">topo.base.projection.Projection</text>
</g>
<!-- topo.base.simulation.EPConnection&#45;&gt;topo.base.projection.Projection -->
<g id="edge14" class="edge"><title>topo.base.simulation.EPConnection&#45;&gt;topo.base.projection.Projection</title>
<path fill="none" stroke="black" stroke-width="0.5" d="M441.328,-162C459.681,-162 478.878,-162 497.046,-162"/>
<polygon fill="black" stroke="black" points="497.142,-163.75 502.142,-162 497.142,-160.25 497.142,-163.75"/>
</g>
<!-- topo.base.cf.CFPOF_Identity -->
<g id="node10" class="node"><title>topo.base.cf.CFPOF_Identity</title>
<polygon fill="none" stroke="black" stroke-width="0.5" points="659,-134.5 511,-134.5 511,-113.5 659,-113.5 659,-134.5"/>
<text text-anchor="middle" x="585" y="-121.5" font-family="Vera" font-size="10.00">topo.base.cf.CFPOF_Identity</text>
</g>
<!-- topo.base.cf.CFPOutputFn&#45;&gt;topo.base.cf.CFPOF_Identity -->
<g id="edge8" class="edge"><title>topo.base.cf.CFPOutputFn&#45;&gt;topo.base.cf.CFPOF_Identity</title>
<path fill="none" stroke="black" stroke-width="0.5" d="M418.146,-124C445.516,-124 477.04,-124 505.266,-124"/>
<polygon fill="black" stroke="black" points="505.496,-125.75 510.496,-124 505.496,-122.25 505.496,-125.75"/>
</g>
<!-- topo.base.cf.CFPOF_Plugin -->
<g id="node20" class="node"><title>topo.base.cf.CFPOF_Plugin</title>
<polygon fill="none" stroke="black" stroke-width="0.5" points="656,-96.5 514,-96.5 514,-75.5 656,-75.5 656,-96.5"/>
<text text-anchor="middle" x="585" y="-83.5" font-family="Vera" font-size="10.00">topo.base.cf.CFPOF_Plugin</text>
</g>
<!-- topo.base.cf.CFPOutputFn&#45;&gt;topo.base.cf.CFPOF_Plugin -->
<g id="edge16" class="edge"><title>topo.base.cf.CFPOutputFn&#45;&gt;topo.base.cf.CFPOF_Plugin</title>
<path fill="none" stroke="black" stroke-width="0.5" d="M410.579,-113.966C443.384,-108.706 483.607,-102.257 517.157,-96.8779"/>
<polygon fill="black" stroke="black" points="517.822,-98.5436 522.482,-96.024 517.268,-95.0878 517.822,-98.5436"/>
</g>
<!-- topo.base.cf.ConnectionField -->
<g id="node13" class="node"><title>topo.base.cf.ConnectionField</title>
<polygon fill="none" stroke="black" stroke-width="0.5" points="173,-210.5 21,-210.5 21,-189.5 173,-189.5 173,-210.5"/>
<text text-anchor="middle" x="97" y="-197.5" font-family="Vera" font-size="10.00">topo.base.cf.ConnectionField</text>
</g>
<!-- topo.base.projection.Projection&#45;&gt;topo.base.cf.CFProjection -->
<g id="edge12" class="edge"><title>topo.base.projection.Projection&#45;&gt;topo.base.cf.CFProjection</title>
<path fill="none" stroke="black" stroke-width="0.5" d="M667.585,-162C687.071,-162 707.728,-162 726.817,-162"/>
<polygon fill="black" stroke="black" points="727.157,-163.75 732.157,-162 727.157,-160.25 727.157,-163.75"/>
</g>
<!-- imagen.sheetcoords.SheetCoordinateSystem -->
<g id="node18" class="node"><title>imagen.sheetcoords.SheetCoordinateSystem</title>
<polygon fill="none" stroke="black" stroke-width="0.5" points="466,-58.5 230,-58.5 230,-37.5 466,-37.5 466,-58.5"/>
<text text-anchor="middle" x="348" y="-45.5" font-family="Vera" font-size="10.00">imagen.sheetcoords.SheetCoordinateSystem</text>
</g>
<!-- topo.base.sheet.Sheet -->
<g id="node28" class="node"><title>topo.base.sheet.Sheet</title>
<polygon fill="none" stroke="black" stroke-width="0.5" points="648,-58.5 522,-58.5 522,-37.5 648,-37.5 648,-58.5"/>
<text text-anchor="middle" x="585" y="-45.5" font-family="Vera" font-size="10.00">topo.base.sheet.Sheet</text>
</g>
<!-- imagen.sheetcoords.SheetCoordinateSystem&#45;&gt;topo.base.sheet.Sheet -->
<g id="edge26" class="edge"><title>imagen.sheetcoords.SheetCoordinateSystem&#45;&gt;topo.base.sheet.Sheet</title>
<path fill="none" stroke="black" stroke-width="0.5" d="M466.153,-48C483.445,-48 500.748,-48 516.587,-48"/>
<polygon fill="black" stroke="black" points="516.901,-49.7501 521.901,-48 516.9,-46.2501 516.901,-49.7501"/>
</g>
<!-- topo.base.cf.CFSheet -->
<g id="node24" class="node"><title>topo.base.cf.CFSheet</title>
<polygon fill="none" stroke="black" stroke-width="0.5" points="1084,-58.5 966,-58.5 966,-37.5 1084,-37.5 1084,-58.5"/>
<text text-anchor="middle" x="1025" y="-45.5" font-family="Vera" font-size="10.00">topo.base.cf.CFSheet</text>
</g>
<!-- topo.base.projection.ProjectionSheet -->
<g id="node25" class="node"><title>topo.base.projection.ProjectionSheet</title>
<polygon fill="none" stroke="black" stroke-width="0.5" points="898,-58.5 704,-58.5 704,-37.5 898,-37.5 898,-58.5"/>
<text text-anchor="middle" x="801" y="-45.5" font-family="Vera" font-size="10.00">topo.base.projection.ProjectionSheet</text>
</g>
<!-- topo.base.projection.ProjectionSheet&#45;&gt;topo.base.cf.CFSheet -->
<g id="edge20" class="edge"><title>topo.base.projection.ProjectionSheet&#45;&gt;topo.base.cf.CFSheet</title>
<path fill="none" stroke="black" stroke-width="0.5" d="M898.272,-48C919.101,-48 940.622,-48 959.885,-48"/>
<polygon fill="black" stroke="black" points="960.255,-49.7501 965.255,-48 960.255,-46.2501 960.255,-49.7501"/>
</g>
<!-- topo.base.sheet.Sheet&#45;&gt;topo.base.projection.ProjectionSheet -->
<g id="edge34" class="edge"><title>topo.base.sheet.Sheet&#45;&gt;topo.base.projection.ProjectionSheet</title>
<path fill="none" stroke="black" stroke-width="0.5" d="M648.057,-48C663.856,-48 681.216,-48 698.394,-48"/>
<polygon fill="black" stroke="black" points="698.717,-49.7501 703.717,-48 698.717,-46.2501 698.717,-49.7501"/>
</g>
<!-- topo.base.simulation.EventProcessor&#45;&gt;topo.base.sheet.Sheet -->
<g id="edge24" class="edge"><title>topo.base.simulation.EventProcessor&#45;&gt;topo.base.sheet.Sheet</title>
<path fill="none" stroke="black" stroke-width="0.5" d="M410.579,-75.9662C443.384,-70.7064 483.607,-64.2571 517.157,-58.8779"/>
<polygon fill="black" stroke="black" points="517.822,-60.5436 522.482,-58.024 517.268,-57.0878 517.822,-60.5436"/>
</g>
<!-- topo.base.cf.CFPRF_Plugin -->
<g id="node35" class="node"><title>topo.base.cf.CFPRF_Plugin</title>
<polygon fill="none" stroke="black" stroke-width="0.5" points="655,-20.5 515,-20.5 515,0.5 655,0.5 655,-20.5"/>
<text text-anchor="middle" x="585" y="-7.5" font-family="Vera" font-size="10.00">topo.base.cf.CFPRF_Plugin</text>
</g>
<!-- topo.base.cf.CFPResponseFn&#45;&gt;topo.base.cf.CFPRF_Plugin -->
<g id="edge32" class="edge"><title>topo.base.cf.CFPResponseFn&#45;&gt;topo.base.cf.CFPRF_Plugin</title>
<path fill="none" stroke="black" stroke-width="0.5" d="M424.62,-10C451.738,-10 482.215,-10 509.259,-10"/>
<polygon fill="black" stroke="black" points="509.268,-11.7501 514.268,-10 509.268,-8.2501 509.268,-11.7501"/>
</g>
<!-- topo.base.cf.CFIter -->
<g id="node37" class="node"><title>topo.base.cf.CFIter</title>
<polygon fill="none" stroke="black" stroke-width="0.5" points="150,-248.5 44,-248.5 44,-227.5 150,-227.5 150,-248.5"/>
<text text-anchor="middle" x="97" y="-235.5" font-family="Vera" font-size="10.00">topo.base.cf.CFIter</text>
</g>
</g>
</svg>
