<?xml version="1.0" encoding="UTF-8" standalone="no"?>
<!DOCTYPE svg PUBLIC "-//W3C//DTD SVG 1.1//EN"
 "http://www.w3.org/Graphics/SVG/1.1/DTD/svg11.dtd">
<!-- Generated by graphviz version 2.26.3 (20100126.1600)
 -->
<!-- Title: inheritancebe3ab90ace Pages: 1 -->
<svg width="984pt" height="370pt"
 viewBox="0.00 0.00 984.00 370.00" xmlns="http://www.w3.org/2000/svg" xmlns:xlink="http://www.w3.org/1999/xlink">
<g id="graph1" class="graph" transform="scale(1 1) rotate(0) translate(4 366)">
<title>inheritancebe3ab90ace</title>
<polygon fill="white" stroke="white" points="-4,5 -4,-366 981,-366 981,5 -4,5"/>
<!-- topo.coordmapper.Cartesian2Polar -->
<g id="node1" class="node"><title>topo.coordmapper.Cartesian2Polar</title>
<polygon fill="none" stroke="black" stroke-width="0.5" points="706,-362.5 522,-362.5 522,-341.5 706,-341.5 706,-362.5"/>
<text text-anchor="middle" x="614" y="-349.5" font-family="Vera" font-size="10.00">topo.coordmapper.Cartesian2Polar</text>
</g>
<!-- topo.base.functionfamily.CoordinateMapperFn -->
<g id="node2" class="node"><title>topo.base.functionfamily.CoordinateMapperFn</title>
<polygon fill="none" stroke="black" stroke-width="0.5" points="466,-191.5 230,-191.5 230,-170.5 466,-170.5 466,-191.5"/>
<text text-anchor="middle" x="348" y="-178.5" font-family="Vera" font-size="10.00">topo.base.functionfamily.CoordinateMapperFn</text>
</g>
<!-- topo.base.functionfamily.CoordinateMapperFn&#45;&gt;topo.coordmapper.Cartesian2Polar -->
<g id="edge2" class="edge"><title>topo.base.functionfamily.CoordinateMapperFn&#45;&gt;topo.coordmapper.Cartesian2Polar</title>
<path fill="none" stroke="black" stroke-width="0.5" d="M354.877,-191.27C374.258,-219.296 432.458,-297.373 502,-333 507.485,-335.81 513.3,-338.217 519.283,-340.278"/>
<polygon fill="black" stroke="black" points="519.048,-342.042 524.344,-341.929 520.133,-338.715 519.048,-342.042"/>
</g>
<!-- topo.coordmapper.Pipeline -->
<g id="node4" class="node"><title>topo.coordmapper.Pipeline</title>
<polygon fill="none" stroke="black" stroke-width="0.5" points="686,-324.5 542,-324.5 542,-303.5 686,-303.5 686,-324.5"/>
<text text-anchor="middle" x="614" y="-311.5" font-family="Vera" font-size="10.00">topo.coordmapper.Pipeline</text>
</g>
<!-- topo.base.functionfamily.CoordinateMapperFn&#45;&gt;topo.coordmapper.Pipeline -->
<g id="edge4" class="edge"><title>topo.base.functionfamily.CoordinateMapperFn&#45;&gt;topo.coordmapper.Pipeline</title>
<path fill="none" stroke="black" stroke-width="0.5" d="M358.097,-191.236C381.227,-214.015 440.791,-268.931 502,-295 512.796,-299.598 524.624,-303.085 536.421,-305.73"/>
<polygon fill="black" stroke="black" points="536.216,-307.475 541.472,-306.812 536.95,-304.053 536.216,-307.475"/>
</g>
<!-- topo.coordmapper.OttesSCMapper -->
<g id="node7" class="node"><title>topo.coordmapper.OttesSCMapper</title>
<polygon fill="none" stroke="black" stroke-width="0.5" points="706,-286.5 522,-286.5 522,-265.5 706,-265.5 706,-286.5"/>
<text text-anchor="middle" x="614" y="-273.5" font-family="Vera" font-size="10.00">topo.coordmapper.OttesSCMapper</text>
</g>
<!-- topo.base.functionfamily.CoordinateMapperFn&#45;&gt;topo.coordmapper.OttesSCMapper -->
<g id="edge6" class="edge"><title>topo.base.functionfamily.CoordinateMapperFn&#45;&gt;topo.coordmapper.OttesSCMapper</title>
<path fill="none" stroke="black" stroke-width="0.5" d="M364.412,-191.107C391.853,-207.535 449.243,-239.912 502,-257 511.594,-260.107 521.823,-262.732 532.052,-264.942"/>
<polygon fill="black" stroke="black" points="531.818,-266.68 537.07,-265.993 532.536,-263.255 531.818,-266.68"/>
</g>
<!-- topo.coordmapper.NormalJitter -->
<g id="node9" class="node"><title>topo.coordmapper.NormalJitter</title>
<polygon fill="none" stroke="black" stroke-width="0.5" points="696,-248.5 532,-248.5 532,-227.5 696,-227.5 696,-248.5"/>
<text text-anchor="middle" x="614" y="-235.5" font-family="Vera" font-size="10.00">topo.coordmapper.NormalJitter</text>
</g>
<!-- topo.base.functionfamily.CoordinateMapperFn&#45;&gt;topo.coordmapper.NormalJitter -->
<g id="edge8" class="edge"><title>topo.base.functionfamily.CoordinateMapperFn&#45;&gt;topo.coordmapper.NormalJitter</title>
<path fill="none" stroke="black" stroke-width="0.5" d="M385.48,-191.071C416.555,-199.223 461.962,-210.676 502,-219 515.758,-221.86 530.533,-224.6 544.694,-227.065"/>
<polygon fill="black" stroke="black" points="544.656,-228.834 549.881,-227.961 545.251,-225.385 544.656,-228.834"/>
</g>
<!-- topo.coordmapper.SingleDimensionMapper -->
<g id="node13" class="node"><title>topo.coordmapper.SingleDimensionMapper</title>
<polygon fill="none" stroke="black" stroke-width="0.5" points="726,-210.5 502,-210.5 502,-189.5 726,-189.5 726,-210.5"/>
<text text-anchor="middle" x="614" y="-197.5" font-family="Vera" font-size="10.00">topo.coordmapper.SingleDimensionMapper</text>
</g>
<!-- topo.base.functionfamily.CoordinateMapperFn&#45;&gt;topo.coordmapper.SingleDimensionMapper -->
<g id="edge36" class="edge"><title>topo.base.functionfamily.CoordinateMapperFn&#45;&gt;topo.coordmapper.SingleDimensionMapper</title>
<path fill="none" stroke="black" stroke-width="0.5" d="M466.221,-189.444C476.264,-190.162 486.421,-190.887 496.459,-191.604"/>
<polygon fill="black" stroke="black" points="496.585,-193.368 501.697,-191.978 496.834,-189.876 496.585,-193.368"/>
</g>
<!-- topo.coordmapper.Polar2Cartesian -->
<g id="node17" class="node"><title>topo.coordmapper.Polar2Cartesian</title>
<polygon fill="none" stroke="black" stroke-width="0.5" points="706,-172.5 522,-172.5 522,-151.5 706,-151.5 706,-172.5"/>
<text text-anchor="middle" x="614" y="-159.5" font-family="Vera" font-size="10.00">topo.coordmapper.Polar2Cartesian</text>
</g>
<!-- topo.base.functionfamily.CoordinateMapperFn&#45;&gt;topo.coordmapper.Polar2Cartesian -->
<g id="edge16" class="edge"><title>topo.base.functionfamily.CoordinateMapperFn&#45;&gt;topo.coordmapper.Polar2Cartesian</title>
<path fill="none" stroke="black" stroke-width="0.5" d="M466.221,-172.556C483.07,-171.352 500.241,-170.126 516.632,-168.955"/>
<polygon fill="black" stroke="black" points="516.83,-170.695 521.692,-168.593 516.58,-167.204 516.83,-170.695"/>
</g>
<!-- topo.coordmapper.AffineTransform -->
<g id="node20" class="node"><title>topo.coordmapper.AffineTransform</title>
<polygon fill="none" stroke="black" stroke-width="0.5" points="705,-134.5 523,-134.5 523,-113.5 705,-113.5 705,-134.5"/>
<text text-anchor="middle" x="614" y="-121.5" font-family="Vera" font-size="10.00">topo.coordmapper.AffineTransform</text>
</g>
<!-- topo.base.functionfamily.CoordinateMapperFn&#45;&gt;topo.coordmapper.AffineTransform -->
<g id="edge34" class="edge"><title>topo.base.functionfamily.CoordinateMapperFn&#45;&gt;topo.coordmapper.AffineTransform</title>
<path fill="none" stroke="black" stroke-width="0.5" d="M385.48,-170.929C416.555,-162.777 461.962,-151.324 502,-143 515.758,-140.14 530.533,-137.4 544.694,-134.935"/>
<polygon fill="black" stroke="black" points="545.251,-136.615 549.881,-134.039 544.656,-133.166 545.251,-136.615"/>
</g>
<!-- topo.coordmapper.ConstantMapper -->
<g id="node22" class="node"><title>topo.coordmapper.ConstantMapper</title>
<polygon fill="none" stroke="black" stroke-width="0.5" points="708,-96.5 520,-96.5 520,-75.5 708,-75.5 708,-96.5"/>
<text text-anchor="middle" x="614" y="-83.5" font-family="Vera" font-size="10.00">topo.coordmapper.ConstantMapper</text>
</g>
<!-- topo.base.functionfamily.CoordinateMapperFn&#45;&gt;topo.coordmapper.ConstantMapper -->
<g id="edge20" class="edge"><title>topo.base.functionfamily.CoordinateMapperFn&#45;&gt;topo.coordmapper.ConstantMapper</title>
<path fill="none" stroke="black" stroke-width="0.5" d="M364.412,-170.893C391.853,-154.465 449.243,-122.088 502,-105 511.594,-101.893 521.823,-99.2684 532.052,-97.0585"/>
<polygon fill="black" stroke="black" points="532.536,-98.7452 537.07,-96.0066 531.818,-95.3196 532.536,-98.7452"/>
</g>
<!-- topo.coordmapper.Grid -->
<g id="node28" class="node"><title>topo.coordmapper.Grid</title>
<polygon fill="none" stroke="black" stroke-width="0.5" points="678,-58.5 550,-58.5 550,-37.5 678,-37.5 678,-58.5"/>
<text text-anchor="middle" x="614" y="-45.5" font-family="Vera" font-size="10.00">topo.coordmapper.Grid</text>
</g>
<!-- topo.base.functionfamily.CoordinateMapperFn&#45;&gt;topo.coordmapper.Grid -->
<g id="edge26" class="edge"><title>topo.base.functionfamily.CoordinateMapperFn&#45;&gt;topo.coordmapper.Grid</title>
<path fill="none" stroke="black" stroke-width="0.5" d="M358.097,-170.764C381.227,-147.985 440.791,-93.0694 502,-67 515.252,-61.356 530.057,-57.386 544.452,-54.5941"/>
<polygon fill="black" stroke="black" points="545.135,-56.2477 549.733,-53.6179 544.498,-52.806 545.135,-56.2477"/>
</g>
<!-- topo.coordmapper.Jitter -->
<g id="node30" class="node"><title>topo.coordmapper.Jitter</title>
<polygon fill="none" stroke="black" stroke-width="0.5" points="679,-20.5 549,-20.5 549,0.5 679,0.5 679,-20.5"/>
<text text-anchor="middle" x="614" y="-7.5" font-family="Vera" font-size="10.00">topo.coordmapper.Jitter</text>
</g>
<!-- topo.base.functionfamily.CoordinateMapperFn&#45;&gt;topo.coordmapper.Jitter -->
<g id="edge28" class="edge"><title>topo.base.functionfamily.CoordinateMapperFn&#45;&gt;topo.coordmapper.Jitter</title>
<path fill="none" stroke="black" stroke-width="0.5" d="M354.877,-170.73C374.258,-142.704 432.458,-64.6275 502,-29 514.741,-22.4726 529.261,-18.1193 543.527,-15.2319"/>
<polygon fill="black" stroke="black" points="544.183,-16.8884 548.767,-14.2332 543.528,-13.4502 544.183,-16.8884"/>
</g>
<!-- param.parameterized.Parameterized -->
<g id="node6" class="node"><title>param.parameterized.Parameterized</title>
<polygon fill="none" stroke="black" stroke-width="0.5" points="194,-191.5 5.68434e-14,-191.5 0,-170.5 194,-170.5 194,-191.5"/>
<text text-anchor="middle" x="97" y="-178.5" font-family="Vera" font-size="10.00">param.parameterized.Parameterized</text>
</g>
<!-- param.parameterized.Parameterized&#45;&gt;topo.base.functionfamily.CoordinateMapperFn -->
<g id="edge10" class="edge"><title>param.parameterized.Parameterized&#45;&gt;topo.base.functionfamily.CoordinateMapperFn</title>
<path fill="none" stroke="black" stroke-width="0.5" d="M194.043,-181C204.12,-181 214.455,-181 224.77,-181"/>
<polygon fill="black" stroke="black" points="224.831,-182.75 229.831,-181 224.831,-179.25 224.831,-182.75"/>
</g>
<!-- topo.coordmapper.OttesSCSenseMapper -->
<g id="node24" class="node"><title>topo.coordmapper.OttesSCSenseMapper</title>
<polygon fill="none" stroke="black" stroke-width="0.5" points="976,-324.5 762,-324.5 762,-303.5 976,-303.5 976,-324.5"/>
<text text-anchor="middle" x="869" y="-311.5" font-family="Vera" font-size="10.00">topo.coordmapper.OttesSCSenseMapper</text>
</g>
<!-- topo.coordmapper.OttesSCMapper&#45;&gt;topo.coordmapper.OttesSCSenseMapper -->
<g id="edge22" class="edge"><title>topo.coordmapper.OttesSCMapper&#45;&gt;topo.coordmapper.OttesSCSenseMapper</title>
<path fill="none" stroke="black" stroke-width="0.5" d="M681.332,-286.034C716.773,-291.315 760.262,-297.796 796.449,-303.189"/>
<polygon fill="black" stroke="black" points="796.53,-304.97 801.733,-303.976 797.046,-301.508 796.53,-304.97"/>
</g>
<!-- topo.coordmapper.OttesSCMotorMapper -->
<g id="node32" class="node"><title>topo.coordmapper.OttesSCMotorMapper</title>
<polygon fill="none" stroke="black" stroke-width="0.5" points="975,-286.5 763,-286.5 763,-265.5 975,-265.5 975,-286.5"/>
<text text-anchor="middle" x="869" y="-273.5" font-family="Vera" font-size="10.00">topo.coordmapper.OttesSCMotorMapper</text>
</g>
<!-- topo.coordmapper.OttesSCMapper&#45;&gt;topo.coordmapper.OttesSCMotorMapper -->
<g id="edge30" class="edge"><title>topo.coordmapper.OttesSCMapper&#45;&gt;topo.coordmapper.OttesSCMotorMapper</title>
<path fill="none" stroke="black" stroke-width="0.5" d="M706.061,-276C722.739,-276 740.295,-276 757.46,-276"/>
<polygon fill="black" stroke="black" points="757.773,-277.75 762.773,-276 757.773,-274.25 757.773,-277.75"/>
</g>
<!-- topo.coordmapper.ReducingMapper -->
<g id="node12" class="node"><title>topo.coordmapper.ReducingMapper</title>
<polygon fill="none" stroke="black" stroke-width="0.5" points="962,-248.5 776,-248.5 776,-227.5 962,-227.5 962,-248.5"/>
<text text-anchor="middle" x="869" y="-235.5" font-family="Vera" font-size="10.00">topo.coordmapper.ReducingMapper</text>
</g>
<!-- topo.coordmapper.SingleDimensionMapper&#45;&gt;topo.coordmapper.ReducingMapper -->
<g id="edge12" class="edge"><title>topo.coordmapper.SingleDimensionMapper&#45;&gt;topo.coordmapper.ReducingMapper</title>
<path fill="none" stroke="black" stroke-width="0.5" d="M681.332,-210.034C716.773,-215.315 760.262,-221.796 796.449,-227.189"/>
<polygon fill="black" stroke="black" points="796.53,-228.97 801.733,-227.976 797.046,-225.508 796.53,-228.97"/>
</g>
<!-- topo.coordmapper.MagnifyingMapper -->
<g id="node15" class="node"><title>topo.coordmapper.MagnifyingMapper</title>
<polygon fill="none" stroke="black" stroke-width="0.5" points="966,-210.5 772,-210.5 772,-189.5 966,-189.5 966,-210.5"/>
<text text-anchor="middle" x="869" y="-197.5" font-family="Vera" font-size="10.00">topo.coordmapper.MagnifyingMapper</text>
</g>
<!-- topo.coordmapper.SingleDimensionMapper&#45;&gt;topo.coordmapper.MagnifyingMapper -->
<g id="edge14" class="edge"><title>topo.coordmapper.SingleDimensionMapper&#45;&gt;topo.coordmapper.MagnifyingMapper</title>
<path fill="none" stroke="black" stroke-width="0.5" d="M726.218,-200C739.429,-200 752.863,-200 765.941,-200"/>
<polygon fill="black" stroke="black" points="766.128,-201.75 771.128,-200 766.128,-198.25 766.128,-201.75"/>
</g>
<!-- topo.coordmapper.Scale2d -->
<g id="node19" class="node"><title>topo.coordmapper.Scale2d</title>
<polygon fill="none" stroke="black" stroke-width="0.5" points="942,-172.5 796,-172.5 796,-151.5 942,-151.5 942,-172.5"/>
<text text-anchor="middle" x="869" y="-159.5" font-family="Vera" font-size="10.00">topo.coordmapper.Scale2d</text>
</g>
<!-- topo.coordmapper.AffineTransform&#45;&gt;topo.coordmapper.Scale2d -->
<g id="edge18" class="edge"><title>topo.coordmapper.AffineTransform&#45;&gt;topo.coordmapper.Scale2d</title>
<path fill="none" stroke="black" stroke-width="0.5" d="M681.332,-134.034C716.773,-139.315 760.262,-145.796 796.449,-151.189"/>
<polygon fill="black" stroke="black" points="796.53,-152.97 801.733,-151.976 797.046,-149.508 796.53,-152.97"/>
</g>
<!-- topo.coordmapper.Rotate2d -->
<g id="node26" class="node"><title>topo.coordmapper.Rotate2d</title>
<polygon fill="none" stroke="black" stroke-width="0.5" points="944,-134.5 794,-134.5 794,-113.5 944,-113.5 944,-134.5"/>
<text text-anchor="middle" x="869" y="-121.5" font-family="Vera" font-size="10.00">topo.coordmapper.Rotate2d</text>
</g>
<!-- topo.coordmapper.AffineTransform&#45;&gt;topo.coordmapper.Rotate2d -->
<g id="edge24" class="edge"><title>topo.coordmapper.AffineTransform&#45;&gt;topo.coordmapper.Rotate2d</title>
<path fill="none" stroke="black" stroke-width="0.5" d="M705.341,-124C732.404,-124 761.837,-124 788.184,-124"/>
<polygon fill="black" stroke="black" points="788.411,-125.75 793.411,-124 788.411,-122.25 788.411,-125.75"/>
</g>
<!-- topo.coordmapper.Translate2d -->
<g id="node34" class="node"><title>topo.coordmapper.Translate2d</title>
<polygon fill="none" stroke="black" stroke-width="0.5" points="950,-96.5 788,-96.5 788,-75.5 950,-75.5 950,-96.5"/>
<text text-anchor="middle" x="869" y="-83.5" font-family="Vera" font-size="10.00">topo.coordmapper.Translate2d</text>
</g>
<!-- topo.coordmapper.AffineTransform&#45;&gt;topo.coordmapper.Translate2d -->
<g id="edge32" class="edge"><title>topo.coordmapper.AffineTransform&#45;&gt;topo.coordmapper.Translate2d</title>
<path fill="none" stroke="black" stroke-width="0.5" d="M681.332,-113.966C716.773,-108.685 760.262,-102.204 796.449,-96.8115"/>
<polygon fill="black" stroke="black" points="797.046,-98.492 801.733,-96.024 796.53,-95.0302 797.046,-98.492"/>
</g>
</g>
</svg>
