<?xml version="1.0" encoding="UTF-8" standalone="no"?>
<!DOCTYPE svg PUBLIC "-//W3C//DTD SVG 1.1//EN"
 "http://www.w3.org/Graphics/SVG/1.1/DTD/svg11.dtd">
<!-- Generated by graphviz version 2.26.3 (20100126.1600)
 -->
<!-- Title: inheritancef8cd252234 Pages: 1 -->
<svg width="670pt" height="104pt"
 viewBox="0.00 0.00 670.00 104.00" xmlns="http://www.w3.org/2000/svg" xmlns:xlink="http://www.w3.org/1999/xlink">
<g id="graph1" class="graph" transform="scale(1 1) rotate(0) translate(4 100)">
<title>inheritancef8cd252234</title>
<polygon fill="white" stroke="white" points="-4,5 -4,-100 667,-100 667,5 -4,5"/>
<!-- topo.tests.unit.testsheet.TestBox2Coordinates -->
<g id="node1" class="node"><title>topo.tests.unit.testsheet.TestBox2Coordinates</title>
<polygon fill="none" stroke="black" stroke-width="0.5" points="662,-96 438,-96 438,-76 662,-76 662,-96"/>
<text text-anchor="middle" x="550" y="-83" font-family="Vera" font-size="10.00">topo.tests.unit.testsheet.TestBox2Coordinates</text>
</g>
<!-- topo.tests.unit.testsheet.TestCoordinateTransforms -->
<g id="node2" class="node"><title>topo.tests.unit.testsheet.TestCoordinateTransforms</title>
<polygon fill="none" stroke="black" stroke-width="0.5" points="401,-58 153,-58 153,-38 401,-38 401,-58"/>
<text text-anchor="middle" x="277" y="-45" font-family="Vera" font-size="10.00">topo.tests.unit.testsheet.TestCoordinateTransforms</text>
</g>
<!-- topo.tests.unit.testsheet.TestCoordinateTransforms&#45;&gt;topo.tests.unit.testsheet.TestBox2Coordinates -->
<g id="edge2" class="edge"><title>topo.tests.unit.testsheet.TestCoordinateTransforms&#45;&gt;topo.tests.unit.testsheet.TestBox2Coordinates</title>
<path fill="none" stroke="black" stroke-width="0.5" d="M349.085,-58.0338C387.183,-63.3369 433.969,-69.8491 472.804,-75.2547"/>
<polygon fill="black" stroke="black" points="472.792,-77.0198 477.985,-75.976 473.274,-73.5533 472.792,-77.0198"/>
</g>
<!-- topo.tests.unit.testsheet.TestBox3Coordinates -->
<g id="node8" class="node"><title>topo.tests.unit.testsheet.TestBox3Coordinates</title>
<polygon fill="none" stroke="black" stroke-width="0.5" points="662,-58 438,-58 438,-38 662,-38 662,-58"/>
<text text-anchor="middle" x="550" y="-45" font-family="Vera" font-size="10.00">topo.tests.unit.testsheet.TestBox3Coordinates</text>
</g>
<!-- topo.tests.unit.testsheet.TestCoordinateTransforms&#45;&gt;topo.tests.unit.testsheet.TestBox3Coordinates -->
<g id="edge8" class="edge"><title>topo.tests.unit.testsheet.TestCoordinateTransforms&#45;&gt;topo.tests.unit.testsheet.TestBox3Coordinates</title>
<path fill="none" stroke="black" stroke-width="0.5" d="M401.517,-48C411.91,-48 422.396,-48 432.733,-48"/>
<polygon fill="black" stroke="black" points="432.794,-49.7501 437.794,-48 432.794,-46.2501 432.794,-49.7501"/>
</g>
<!-- topo.tests.unit.testsheet.TestBox1Coordinates -->
<g id="node10" class="node"><title>topo.tests.unit.testsheet.TestBox1Coordinates</title>
<polygon fill="none" stroke="black" stroke-width="0.5" points="662,-20 438,-20 438,-1.06581e-14 662,-3.55271e-15 662,-20"/>
<text text-anchor="middle" x="550" y="-7" font-family="Vera" font-size="10.00">topo.tests.unit.testsheet.TestBox1Coordinates</text>
</g>
<!-- topo.tests.unit.testsheet.TestCoordinateTransforms&#45;&gt;topo.tests.unit.testsheet.TestBox1Coordinates -->
<g id="edge10" class="edge"><title>topo.tests.unit.testsheet.TestCoordinateTransforms&#45;&gt;topo.tests.unit.testsheet.TestBox1Coordinates</title>
<path fill="none" stroke="black" stroke-width="0.5" d="M349.085,-37.9662C387.183,-32.6631 433.969,-26.1509 472.804,-20.7453"/>
<polygon fill="black" stroke="black" points="473.274,-22.4467 477.985,-20.024 472.792,-18.9802 473.274,-22.4467"/>
</g>
<!-- unittest.case.TestCase -->
<g id="node4" class="node"><title>unittest.case.TestCase</title>
<polygon fill="none" stroke="black" stroke-width="0.5" points="116,-39 4.9738e-14,-39 0,-19 116,-19 116,-39"/>
<text text-anchor="middle" x="58" y="-26" font-family="Vera" font-size="10.00">unittest.case.TestCase</text>
</g>
<!-- unittest.case.TestCase&#45;&gt;topo.tests.unit.testsheet.TestCoordinateTransforms -->
<g id="edge4" class="edge"><title>unittest.case.TestCase&#45;&gt;topo.tests.unit.testsheet.TestCoordinateTransforms</title>
<path fill="none" stroke="black" stroke-width="0.5" d="M116.113,-34.0418C128.64,-35.1286 142.328,-36.3161 156.261,-37.5249"/>
<polygon fill="black" stroke="black" points="156.271,-39.2823 161.404,-37.9711 156.574,-35.7954 156.271,-39.2823"/>
</g>
<!-- topo.tests.unit.testsheet.ExtraSheetTests -->
<g id="node6" class="node"><title>topo.tests.unit.testsheet.ExtraSheetTests</title>
<polygon fill="none" stroke="black" stroke-width="0.5" points="377,-20 177,-20 177,-1.06581e-14 377,-3.55271e-15 377,-20"/>
<text text-anchor="middle" x="277" y="-7" font-family="Vera" font-size="10.00">topo.tests.unit.testsheet.ExtraSheetTests</text>
</g>
<!-- unittest.case.TestCase&#45;&gt;topo.tests.unit.testsheet.ExtraSheetTests -->
<g id="edge6" class="edge"><title>unittest.case.TestCase&#45;&gt;topo.tests.unit.testsheet.ExtraSheetTests</title>
<path fill="none" stroke="black" stroke-width="0.5" d="M116.113,-23.9582C133.14,-22.481 152.31,-20.8178 171.327,-19.168"/>
<polygon fill="black" stroke="black" points="171.855,-20.8789 176.685,-18.7032 171.552,-17.392 171.855,-20.8789"/>
</g>
</g>
</svg>
