<?xml version="1.0" encoding="UTF-8" standalone="no"?>
<!DOCTYPE svg PUBLIC "-//W3C//DTD SVG 1.1//EN"
 "http://www.w3.org/Graphics/SVG/1.1/DTD/svg11.dtd">
<!-- Generated by graphviz version 2.26.3 (20100126.1600)
 -->
<!-- Title: inheritance8ed98380c7 Pages: 1 -->
<svg width="704pt" height="170pt"
 viewBox="0.00 0.00 704.00 170.00" xmlns="http://www.w3.org/2000/svg" xmlns:xlink="http://www.w3.org/1999/xlink">
<g id="graph1" class="graph" transform="scale(1 1) rotate(0) translate(4 166)">
<title>inheritance8ed98380c7</title>
<polygon fill="white" stroke="white" points="-4,5 -4,-166 701,-166 701,5 -4,5"/>
<!-- topo.base.functionfamily.DotProduct -->
<g id="node1" class="node"><title>topo.base.functionfamily.DotProduct</title>
<polygon fill="none" stroke="black" stroke-width="0.5" points="696,-162.5 506,-162.5 506,-141.5 696,-141.5 696,-162.5"/>
<text text-anchor="middle" x="601" y="-149.5" font-family="Vera" font-size="10.00">topo.base.functionfamily.DotProduct</text>
</g>
<!-- topo.base.functionfamily.ResponseFn -->
<g id="node2" class="node"><title>topo.base.functionfamily.ResponseFn</title>
<polygon fill="none" stroke="black" stroke-width="0.5" points="446,-143.5 254,-143.5 254,-122.5 446,-122.5 446,-143.5"/>
<text text-anchor="middle" x="350" y="-130.5" font-family="Vera" font-size="10.00">topo.base.functionfamily.ResponseFn</text>
</g>
<!-- topo.base.functionfamily.ResponseFn&#45;&gt;topo.base.functionfamily.DotProduct -->
<g id="edge2" class="edge"><title>topo.base.functionfamily.ResponseFn&#45;&gt;topo.base.functionfamily.DotProduct</title>
<path fill="none" stroke="black" stroke-width="0.5" d="M446.684,-140.319C464.357,-141.656 482.835,-143.055 500.613,-144.401"/>
<polygon fill="black" stroke="black" points="500.489,-146.147 505.607,-144.779 500.753,-142.657 500.489,-146.147"/>
</g>
<!-- topo.base.functionfamily.IdentityLF -->
<g id="node4" class="node"><title>topo.base.functionfamily.IdentityLF</title>
<polygon fill="none" stroke="black" stroke-width="0.5" points="692,-124.5 510,-124.5 510,-103.5 692,-103.5 692,-124.5"/>
<text text-anchor="middle" x="601" y="-111.5" font-family="Vera" font-size="10.00">topo.base.functionfamily.IdentityLF</text>
</g>
<!-- topo.base.functionfamily.LearningFn -->
<g id="node5" class="node"><title>topo.base.functionfamily.LearningFn</title>
<polygon fill="none" stroke="black" stroke-width="0.5" points="444,-96.5 256,-96.5 256,-75.5 444,-75.5 444,-96.5"/>
<text text-anchor="middle" x="350" y="-83.5" font-family="Vera" font-size="10.00">topo.base.functionfamily.LearningFn</text>
</g>
<!-- topo.base.functionfamily.LearningFn&#45;&gt;topo.base.functionfamily.IdentityLF -->
<g id="edge4" class="edge"><title>topo.base.functionfamily.LearningFn&#45;&gt;topo.base.functionfamily.IdentityLF</title>
<path fill="none" stroke="black" stroke-width="0.5" d="M439.908,-96.0296C461.395,-98.4266 484.4,-100.993 506.105,-103.414"/>
<polygon fill="black" stroke="black" points="506.135,-105.178 511.298,-103.993 506.523,-101.7 506.135,-105.178"/>
</g>
<!-- topo.base.functionfamily.Hebbian -->
<g id="node12" class="node"><title>topo.base.functionfamily.Hebbian</title>
<polygon fill="none" stroke="black" stroke-width="0.5" points="689,-86.5 513,-86.5 513,-65.5 689,-65.5 689,-86.5"/>
<text text-anchor="middle" x="601" y="-73.5" font-family="Vera" font-size="10.00">topo.base.functionfamily.Hebbian</text>
</g>
<!-- topo.base.functionfamily.LearningFn&#45;&gt;topo.base.functionfamily.Hebbian -->
<g id="edge10" class="edge"><title>topo.base.functionfamily.LearningFn&#45;&gt;topo.base.functionfamily.Hebbian</title>
<path fill="none" stroke="black" stroke-width="0.5" d="M444.177,-82.2479C464.952,-81.4202 486.95,-80.5438 507.69,-79.7175"/>
<polygon fill="black" stroke="black" points="508.008,-81.4563 512.934,-79.5086 507.868,-77.9591 508.008,-81.4563"/>
</g>
<!-- param.parameterized.Parameterized -->
<g id="node7" class="node"><title>param.parameterized.Parameterized</title>
<polygon fill="none" stroke="black" stroke-width="0.5" points="194,-77.5 5.68434e-14,-77.5 0,-56.5 194,-56.5 194,-77.5"/>
<text text-anchor="middle" x="97" y="-64.5" font-family="Vera" font-size="10.00">param.parameterized.Parameterized</text>
</g>
<!-- param.parameterized.Parameterized&#45;&gt;topo.base.functionfamily.ResponseFn -->
<g id="edge8" class="edge"><title>param.parameterized.Parameterized&#45;&gt;topo.base.functionfamily.ResponseFn</title>
<path fill="none" stroke="black" stroke-width="0.5" d="M130.492,-77.0618C157.312,-84.9998 195.946,-96.1678 230,-105 252.718,-110.892 278.002,-116.876 299.481,-121.791"/>
<polygon fill="black" stroke="black" points="299.306,-123.546 304.57,-122.952 300.084,-120.134 299.306,-123.546"/>
</g>
<!-- param.parameterized.Parameterized&#45;&gt;topo.base.functionfamily.LearningFn -->
<g id="edge14" class="edge"><title>param.parameterized.Parameterized&#45;&gt;topo.base.functionfamily.LearningFn</title>
<path fill="none" stroke="black" stroke-width="0.5" d="M194.093,-74.2916C212.562,-75.6786 231.917,-77.1321 250.461,-78.5247"/>
<polygon fill="black" stroke="black" points="250.551,-80.2864 255.668,-78.9158 250.814,-76.7962 250.551,-80.2864"/>
</g>
<!-- topo.base.functionfamily.CoordinateMapperFn -->
<g id="node9" class="node"><title>topo.base.functionfamily.CoordinateMapperFn</title>
<polygon fill="none" stroke="black" stroke-width="0.5" points="468,-58.5 232,-58.5 232,-37.5 468,-37.5 468,-58.5"/>
<text text-anchor="middle" x="350" y="-45.5" font-family="Vera" font-size="10.00">topo.base.functionfamily.CoordinateMapperFn</text>
</g>
<!-- param.parameterized.Parameterized&#45;&gt;topo.base.functionfamily.CoordinateMapperFn -->
<g id="edge16" class="edge"><title>param.parameterized.Parameterized&#45;&gt;topo.base.functionfamily.CoordinateMapperFn</title>
<path fill="none" stroke="black" stroke-width="0.5" d="M194.093,-59.7084C204.848,-58.9008 215.903,-58.0705 226.924,-57.2429"/>
<polygon fill="black" stroke="black" points="227.129,-58.9825 231.984,-56.8629 226.866,-55.4923 227.129,-58.9825"/>
</g>
<!-- topo.base.functionfamily.PatternDrivenAnalysis -->
<g id="node14" class="node"><title>topo.base.functionfamily.PatternDrivenAnalysis</title>
<polygon fill="none" stroke="black" stroke-width="0.5" points="470,-20.5 230,-20.5 230,0.5 470,0.5 470,-20.5"/>
<text text-anchor="middle" x="350" y="-7.5" font-family="Vera" font-size="10.00">topo.base.functionfamily.PatternDrivenAnalysis</text>
</g>
<!-- param.parameterized.Parameterized&#45;&gt;topo.base.functionfamily.PatternDrivenAnalysis -->
<g id="edge12" class="edge"><title>param.parameterized.Parameterized&#45;&gt;topo.base.functionfamily.PatternDrivenAnalysis</title>
<path fill="none" stroke="black" stroke-width="0.5" d="M128.167,-56.9347C154.948,-48.5662 194.711,-36.8047 230,-29 243.573,-25.998 258.112,-23.2824 272.218,-20.9047"/>
<polygon fill="black" stroke="black" points="272.748,-22.5907 277.393,-20.0441 272.173,-19.1381 272.748,-22.5907"/>
</g>
<!-- topo.base.functionfamily.IdentityMF -->
<g id="node8" class="node"><title>topo.base.functionfamily.IdentityMF</title>
<polygon fill="none" stroke="black" stroke-width="0.5" points="693,-48.5 509,-48.5 509,-27.5 693,-27.5 693,-48.5"/>
<text text-anchor="middle" x="601" y="-35.5" font-family="Vera" font-size="10.00">topo.base.functionfamily.IdentityMF</text>
</g>
<!-- topo.base.functionfamily.CoordinateMapperFn&#45;&gt;topo.base.functionfamily.IdentityMF -->
<g id="edge6" class="edge"><title>topo.base.functionfamily.CoordinateMapperFn&#45;&gt;topo.base.functionfamily.IdentityMF</title>
<path fill="none" stroke="black" stroke-width="0.5" d="M468.15,-43.2928C479.838,-42.8272 491.612,-42.3581 503.063,-41.9019"/>
<polygon fill="black" stroke="black" points="503.374,-43.641 508.3,-41.6932 503.234,-40.1437 503.374,-43.641"/>
</g>
</g>
</svg>
