<?xml version="1.0" encoding="UTF-8" standalone="no"?>
<!DOCTYPE svg PUBLIC "-//W3C//DTD SVG 1.1//EN"
 "http://www.w3.org/Graphics/SVG/1.1/DTD/svg11.dtd">
<!-- Generated by graphviz version 2.26.3 (20100126.1600)
 -->
<!-- Title: inheritanceeb4be40e76 Pages: 1 -->
<svg width="480pt" height="218pt"
 viewBox="0.00 0.00 480.00 218.00" xmlns="http://www.w3.org/2000/svg" xmlns:xlink="http://www.w3.org/1999/xlink">
<g id="graph1" class="graph" transform="scale(1 1) rotate(0) translate(4 214)">
<title>inheritanceeb4be40e76</title>
<polygon fill="white" stroke="white" points="-4,5 -4,-214 477,-214 477,5 -4,5"/>
<!-- topo.tests.unit.testoutputfnsbasic.TestDivisiveNormalizeL1 -->
<g id="node1" class="node"><title>topo.tests.unit.testoutputfnsbasic.TestDivisiveNormalizeL1</title>
<polygon fill="none" stroke="black" stroke-width="0.5" points="452,-210 172,-210 172,-190 452,-190 452,-210"/>
<text text-anchor="middle" x="312" y="-197" font-family="Vera" font-size="10.00">topo.tests.unit.testoutputfnsbasic.TestDivisiveNormalizeL1</text>
</g>
<!-- unittest.case.TestCase -->
<g id="node2" class="node"><title>unittest.case.TestCase</title>
<polygon fill="none" stroke="black" stroke-width="0.5" points="116,-115 4.9738e-14,-115 0,-95 116,-95 116,-115"/>
<text text-anchor="middle" x="58" y="-102" font-family="Vera" font-size="10.00">unittest.case.TestCase</text>
</g>
<!-- unittest.case.TestCase&#45;&gt;topo.tests.unit.testoutputfnsbasic.TestDivisiveNormalizeL1 -->
<g id="edge2" class="edge"><title>unittest.case.TestCase&#45;&gt;topo.tests.unit.testoutputfnsbasic.TestDivisiveNormalizeL1</title>
<path fill="none" stroke="black" stroke-width="0.5" d="M66.9244,-115.264C82.3502,-132.228 115.839,-165.752 152,-181 158.806,-183.87 165.911,-186.35 173.18,-188.49"/>
<polygon fill="black" stroke="black" points="172.949,-190.243 178.236,-189.918 173.9,-186.875 172.949,-190.243"/>
</g>
<!-- topo.tests.unit.testoutputfnsbasic.TestDivisiveLengthNormalize -->
<g id="node4" class="node"><title>topo.tests.unit.testoutputfnsbasic.TestDivisiveLengthNormalize</title>
<polygon fill="none" stroke="black" stroke-width="0.5" points="463,-172 161,-172 161,-152 463,-152 463,-172"/>
<text text-anchor="middle" x="312" y="-159" font-family="Vera" font-size="10.00">topo.tests.unit.testoutputfnsbasic.TestDivisiveLengthNormalize</text>
</g>
<!-- unittest.case.TestCase&#45;&gt;topo.tests.unit.testoutputfnsbasic.TestDivisiveLengthNormalize -->
<g id="edge4" class="edge"><title>unittest.case.TestCase&#45;&gt;topo.tests.unit.testoutputfnsbasic.TestDivisiveLengthNormalize</title>
<path fill="none" stroke="black" stroke-width="0.5" d="M78.3715,-115.082C97.0598,-123.88 125.743,-136.262 152,-143 164.669,-146.251 178.048,-148.948 191.454,-151.185"/>
<polygon fill="black" stroke="black" points="191.177,-152.913 196.394,-151.989 191.74,-149.459 191.177,-152.913"/>
</g>
<!-- topo.tests.unit.testoutputfnsbasic.TestDivisiveMaxNormalize -->
<g id="node6" class="node"><title>topo.tests.unit.testoutputfnsbasic.TestDivisiveMaxNormalize</title>
<polygon fill="none" stroke="black" stroke-width="0.5" points="457,-134 167,-134 167,-114 457,-114 457,-134"/>
<text text-anchor="middle" x="312" y="-121" font-family="Vera" font-size="10.00">topo.tests.unit.testoutputfnsbasic.TestDivisiveMaxNormalize</text>
</g>
<!-- unittest.case.TestCase&#45;&gt;topo.tests.unit.testoutputfnsbasic.TestDivisiveMaxNormalize -->
<g id="edge6" class="edge"><title>unittest.case.TestCase&#45;&gt;topo.tests.unit.testoutputfnsbasic.TestDivisiveMaxNormalize</title>
<path fill="none" stroke="black" stroke-width="0.5" d="M116.273,-109.359C133.488,-110.647 153.114,-112.115 173.137,-113.613"/>
<polygon fill="black" stroke="black" points="173.118,-115.366 178.235,-113.994 173.38,-111.876 173.118,-115.366"/>
</g>
<!-- topo.tests.unit.testoutputfnsbasic.TestDivisiveLpNormalize -->
<g id="node8" class="node"><title>topo.tests.unit.testoutputfnsbasic.TestDivisiveLpNormalize</title>
<polygon fill="none" stroke="black" stroke-width="0.5" points="453,-96 171,-96 171,-76 453,-76 453,-96"/>
<text text-anchor="middle" x="312" y="-83" font-family="Vera" font-size="10.00">topo.tests.unit.testoutputfnsbasic.TestDivisiveLpNormalize</text>
</g>
<!-- unittest.case.TestCase&#45;&gt;topo.tests.unit.testoutputfnsbasic.TestDivisiveLpNormalize -->
<g id="edge8" class="edge"><title>unittest.case.TestCase&#45;&gt;topo.tests.unit.testoutputfnsbasic.TestDivisiveLpNormalize</title>
<path fill="none" stroke="black" stroke-width="0.5" d="M116.273,-100.641C133.488,-99.3533 153.114,-97.8852 173.137,-96.3874"/>
<polygon fill="black" stroke="black" points="173.38,-98.1242 178.235,-96.006 173.118,-94.634 173.38,-98.1242"/>
</g>
<!-- topo.tests.unit.testoutputfnsbasic.TestPiecewiseLinear -->
<g id="node10" class="node"><title>topo.tests.unit.testoutputfnsbasic.TestPiecewiseLinear</title>
<polygon fill="none" stroke="black" stroke-width="0.5" points="442,-58 182,-58 182,-38 442,-38 442,-58"/>
<text text-anchor="middle" x="312" y="-45" font-family="Vera" font-size="10.00">topo.tests.unit.testoutputfnsbasic.TestPiecewiseLinear</text>
</g>
<!-- unittest.case.TestCase&#45;&gt;topo.tests.unit.testoutputfnsbasic.TestPiecewiseLinear -->
<g id="edge10" class="edge"><title>unittest.case.TestCase&#45;&gt;topo.tests.unit.testoutputfnsbasic.TestPiecewiseLinear</title>
<path fill="none" stroke="black" stroke-width="0.5" d="M78.3715,-94.9183C97.0598,-86.1204 125.743,-73.7377 152,-67 164.669,-63.7491 178.048,-61.0519 191.454,-58.8145"/>
<polygon fill="black" stroke="black" points="191.74,-60.5412 196.394,-58.0109 191.177,-57.0867 191.74,-60.5412"/>
</g>
<!-- topo.tests.unit.testoutputfnsbasic.TestTransferFnWithRandomState -->
<g id="node12" class="node"><title>topo.tests.unit.testoutputfnsbasic.TestTransferFnWithRandomState</title>
<polygon fill="none" stroke="black" stroke-width="0.5" points="472,-20 152,-20 152,-1.06581e-14 472,-3.55271e-15 472,-20"/>
<text text-anchor="middle" x="312" y="-7" font-family="Vera" font-size="10.00">topo.tests.unit.testoutputfnsbasic.TestTransferFnWithRandomState</text>
</g>
<!-- unittest.case.TestCase&#45;&gt;topo.tests.unit.testoutputfnsbasic.TestTransferFnWithRandomState -->
<g id="edge12" class="edge"><title>unittest.case.TestCase&#45;&gt;topo.tests.unit.testoutputfnsbasic.TestTransferFnWithRandomState</title>
<path fill="none" stroke="black" stroke-width="0.5" d="M66.9244,-94.7359C82.3502,-77.7721 115.839,-44.2481 152,-29 158.806,-26.13 165.911,-23.6499 173.18,-21.5098"/>
<polygon fill="black" stroke="black" points="173.9,-23.1248 178.236,-20.0819 172.949,-19.7565 173.9,-23.1248"/>
</g>
</g>
</svg>
