<?xml version="1.0" encoding="UTF-8" standalone="no"?>
<!DOCTYPE svg PUBLIC "-//W3C//DTD SVG 1.1//EN"
 "http://www.w3.org/Graphics/SVG/1.1/DTD/svg11.dtd">
<!-- Generated by graphviz version 2.26.3 (20100126.1600)
 -->
<!-- Title: inheritance95afd34832 Pages: 1 -->
<svg width="1474pt" height="655pt"
 viewBox="0.00 0.00 1474.00 655.00" xmlns="http://www.w3.org/2000/svg" xmlns:xlink="http://www.w3.org/1999/xlink">
<g id="graph1" class="graph" transform="scale(1 1) rotate(0) translate(4 651)">
<title>inheritance95afd34832</title>
<polygon fill="white" stroke="white" points="-4,5 -4,-651 1471,-651 1471,5 -4,5"/>
<!-- paramtk.Translator -->
<g id="node1" class="node"><title>paramtk.Translator</title>
<polygon fill="none" stroke="black" stroke-width="0.5" points="141,-77.5 35,-77.5 35,-56.5 141,-56.5 141,-77.5"/>
<text text-anchor="middle" x="88" y="-64.5" font-family="Vera" font-size="10.00">paramtk.Translator</text>
</g>
<!-- paramtk.String_ObjectTranslator -->
<g id="node20" class="node"><title>paramtk.String_ObjectTranslator</title>
<polygon fill="none" stroke="black" stroke-width="0.5" points="394,-134.5 224,-134.5 224,-113.5 394,-113.5 394,-134.5"/>
<text text-anchor="middle" x="309" y="-121.5" font-family="Vera" font-size="10.00">paramtk.String_ObjectTranslator</text>
</g>
<!-- paramtk.Translator&#45;&gt;paramtk.String_ObjectTranslator -->
<g id="edge16" class="edge"><title>paramtk.Translator&#45;&gt;paramtk.String_ObjectTranslator</title>
<path fill="none" stroke="black" stroke-width="0.5" d="M117.572,-77.012C142.543,-85.2365 179.347,-96.8223 212,-105 223.434,-107.864 235.715,-110.558 247.566,-112.969"/>
<polygon fill="black" stroke="black" points="247.368,-114.714 252.615,-113.984 248.058,-111.282 247.368,-114.714"/>
</g>
<!-- paramtk.DoNothingTranslator -->
<g id="node50" class="node"><title>paramtk.DoNothingTranslator</title>
<polygon fill="none" stroke="black" stroke-width="0.5" points="388,-96.5 230,-96.5 230,-75.5 388,-75.5 388,-96.5"/>
<text text-anchor="middle" x="309" y="-83.5" font-family="Vera" font-size="10.00">paramtk.DoNothingTranslator</text>
</g>
<!-- paramtk.Translator&#45;&gt;paramtk.DoNothingTranslator -->
<g id="edge60" class="edge"><title>paramtk.Translator&#45;&gt;paramtk.DoNothingTranslator</title>
<path fill="none" stroke="black" stroke-width="0.5" d="M141.78,-71.6236C166.678,-73.7642 196.847,-76.3579 224.668,-78.7498"/>
<polygon fill="black" stroke="black" points="224.702,-80.5091 229.834,-79.1939 225.002,-77.0219 224.702,-80.5091"/>
</g>
<!-- paramtk.Eval_ReprTranslator -->
<g id="node80" class="node"><title>paramtk.Eval_ReprTranslator</title>
<polygon fill="none" stroke="black" stroke-width="0.5" points="385,-58.5 233,-58.5 233,-37.5 385,-37.5 385,-58.5"/>
<text text-anchor="middle" x="309" y="-45.5" font-family="Vera" font-size="10.00">paramtk.Eval_ReprTranslator</text>
</g>
<!-- paramtk.Translator&#45;&gt;paramtk.Eval_ReprTranslator -->
<g id="edge76" class="edge"><title>paramtk.Translator&#45;&gt;paramtk.Eval_ReprTranslator</title>
<path fill="none" stroke="black" stroke-width="0.5" d="M141.78,-62.3764C167.52,-60.1634 198.894,-57.4662 227.482,-55.0083"/>
<polygon fill="black" stroke="black" points="227.954,-56.7243 232.786,-54.5523 227.654,-53.2371 227.954,-56.7243"/>
</g>
<!-- paramtk.ListTranslator -->
<g id="node84" class="node"><title>paramtk.ListTranslator</title>
<polygon fill="none" stroke="black" stroke-width="0.5" points="370,-20.5 248,-20.5 248,0.5 370,0.5 370,-20.5"/>
<text text-anchor="middle" x="309" y="-7.5" font-family="Vera" font-size="10.00">paramtk.ListTranslator</text>
</g>
<!-- paramtk.Translator&#45;&gt;paramtk.ListTranslator -->
<g id="edge82" class="edge"><title>paramtk.Translator&#45;&gt;paramtk.ListTranslator</title>
<path fill="none" stroke="black" stroke-width="0.5" d="M117.572,-56.988C142.543,-48.7635 179.347,-37.1777 212,-29 223.434,-26.1365 235.715,-23.4417 247.566,-21.0314"/>
<polygon fill="black" stroke="black" points="248.058,-22.7176 252.615,-20.0161 247.368,-19.2863 248.058,-22.7176"/>
</g>
<!-- paramtk.ListWidget -->
<g id="node2" class="node"><title>paramtk.ListWidget</title>
<polygon fill="none" stroke="black" stroke-width="0.5" points="957,-571.5 849,-571.5 849,-550.5 957,-550.5 957,-571.5"/>
<text text-anchor="middle" x="903" y="-558.5" font-family="Vera" font-size="10.00">paramtk.ListWidget</text>
</g>
<!-- Tkinter.Frame -->
<g id="node3" class="node"><title>Tkinter.Frame</title>
<polygon fill="none" stroke="black" stroke-width="0.5" points="757,-457.5 677,-457.5 677,-436.5 757,-436.5 757,-457.5"/>
<text text-anchor="middle" x="717" y="-444.5" font-family="Vera" font-size="10.00">Tkinter.Frame</text>
</g>
<!-- Tkinter.Frame&#45;&gt;paramtk.ListWidget -->
<g id="edge2" class="edge"><title>Tkinter.Frame&#45;&gt;paramtk.ListWidget</title>
<path fill="none" stroke="black" stroke-width="0.5" d="M725.69,-457.034C743.091,-476.479 784.307,-519.364 828,-542 833.404,-544.8 839.245,-547.204 845.199,-549.264"/>
<polygon fill="black" stroke="black" points="844.923,-551.016 850.219,-550.915 846.016,-547.691 844.923,-551.016"/>
</g>
<!-- paramtk.ParametersFrame -->
<g id="node6" class="node"><title>paramtk.ParametersFrame</title>
<polygon fill="none" stroke="black" stroke-width="0.5" points="976,-609.5 830,-609.5 830,-588.5 976,-588.5 976,-609.5"/>
<text text-anchor="middle" x="903" y="-596.5" font-family="Vera" font-size="10.00">paramtk.ParametersFrame</text>
</g>
<!-- Tkinter.Frame&#45;&gt;paramtk.ParametersFrame -->
<g id="edge80" class="edge"><title>Tkinter.Frame&#45;&gt;paramtk.ParametersFrame</title>
<path fill="none" stroke="black" stroke-width="0.5" d="M724.839,-457.101C747.873,-486.677 814.573,-571.55 828,-580 832.348,-582.737 837.072,-585.08 841.961,-587.085"/>
<polygon fill="black" stroke="black" points="841.602,-588.822 846.897,-588.981 842.857,-585.555 841.602,-588.822"/>
</g>
<!-- paramtk.ListItemCtrlWidget -->
<g id="node11" class="node"><title>paramtk.ListItemCtrlWidget</title>
<polygon fill="none" stroke="black" stroke-width="0.5" points="976,-533.5 830,-533.5 830,-512.5 976,-512.5 976,-533.5"/>
<text text-anchor="middle" x="903" y="-520.5" font-family="Vera" font-size="10.00">paramtk.ListItemCtrlWidget</text>
</g>
<!-- Tkinter.Frame&#45;&gt;paramtk.ListItemCtrlWidget -->
<g id="edge8" class="edge"><title>Tkinter.Frame&#45;&gt;paramtk.ListItemCtrlWidget</title>
<path fill="none" stroke="black" stroke-width="0.5" d="M733.752,-457.13C755.019,-469.627 793.144,-490.83 828,-504 835.492,-506.831 843.563,-509.374 851.536,-511.609"/>
<polygon fill="black" stroke="black" points="851.197,-513.331 856.482,-512.961 852.12,-509.954 851.197,-513.331"/>
</g>
<!-- paramtk.HackFileEntry -->
<g id="node13" class="node"><title>paramtk.HackFileEntry</title>
<polygon fill="none" stroke="black" stroke-width="0.5" points="965,-495.5 841,-495.5 841,-474.5 965,-474.5 965,-495.5"/>
<text text-anchor="middle" x="903" y="-482.5" font-family="Vera" font-size="10.00">paramtk.HackFileEntry</text>
</g>
<!-- Tkinter.Frame&#45;&gt;paramtk.HackFileEntry -->
<g id="edge10" class="edge"><title>Tkinter.Frame&#45;&gt;paramtk.HackFileEntry</title>
<path fill="none" stroke="black" stroke-width="0.5" d="M757.818,-455.339C784.607,-460.812 819.937,-468.03 849.036,-473.975"/>
<polygon fill="black" stroke="black" points="848.772,-475.707 854.021,-474.994 849.473,-472.278 848.772,-475.707"/>
</g>
<!-- paramtk.TaggedSlider -->
<g id="node62" class="node"><title>paramtk.TaggedSlider</title>
<polygon fill="none" stroke="black" stroke-width="0.5" points="963,-457.5 843,-457.5 843,-436.5 963,-436.5 963,-457.5"/>
<text text-anchor="middle" x="903" y="-444.5" font-family="Vera" font-size="10.00">paramtk.TaggedSlider</text>
</g>
<!-- Tkinter.Frame&#45;&gt;paramtk.TaggedSlider -->
<g id="edge54" class="edge"><title>Tkinter.Frame&#45;&gt;paramtk.TaggedSlider</title>
<path fill="none" stroke="black" stroke-width="0.5" d="M757.818,-447C781.077,-447 810.775,-447 837.243,-447"/>
<polygon fill="black" stroke="black" points="837.491,-448.75 842.491,-447 837.491,-445.25 837.491,-448.75"/>
</g>
<!-- paramtk.ScrolledFrame -->
<g id="node65" class="node"><title>paramtk.ScrolledFrame</title>
<polygon fill="none" stroke="black" stroke-width="0.5" points="967,-419.5 839,-419.5 839,-398.5 967,-398.5 967,-419.5"/>
<text text-anchor="middle" x="903" y="-406.5" font-family="Vera" font-size="10.00">paramtk.ScrolledFrame</text>
</g>
<!-- Tkinter.Frame&#45;&gt;paramtk.ScrolledFrame -->
<g id="edge56" class="edge"><title>Tkinter.Frame&#45;&gt;paramtk.ScrolledFrame</title>
<path fill="none" stroke="black" stroke-width="0.5" d="M757.818,-438.661C784.607,-433.188 819.937,-425.97 849.036,-420.025"/>
<polygon fill="black" stroke="black" points="849.473,-421.722 854.021,-419.006 848.772,-418.293 849.473,-421.722"/>
</g>
<!-- paramtk.StatusBar -->
<g id="node73" class="node"><title>paramtk.StatusBar</title>
<polygon fill="none" stroke="black" stroke-width="0.5" points="957,-381.5 849,-381.5 849,-360.5 957,-360.5 957,-381.5"/>
<text text-anchor="middle" x="903" y="-368.5" font-family="Vera" font-size="10.00">paramtk.StatusBar</text>
</g>
<!-- Tkinter.Frame&#45;&gt;paramtk.StatusBar -->
<g id="edge68" class="edge"><title>Tkinter.Frame&#45;&gt;paramtk.StatusBar</title>
<path fill="none" stroke="black" stroke-width="0.5" d="M733.752,-436.87C755.019,-424.373 793.144,-403.17 828,-390 835.492,-387.169 843.563,-384.626 851.536,-382.391"/>
<polygon fill="black" stroke="black" points="852.12,-384.046 856.482,-381.039 851.197,-380.669 852.12,-384.046"/>
</g>
<!-- paramtk.ProgressWindow -->
<g id="node77" class="node"><title>paramtk.ProgressWindow</title>
<polygon fill="none" stroke="black" stroke-width="0.5" points="971,-343.5 835,-343.5 835,-322.5 971,-322.5 971,-343.5"/>
<text text-anchor="middle" x="903" y="-330.5" font-family="Vera" font-size="10.00">paramtk.ProgressWindow</text>
</g>
<!-- Tkinter.Frame&#45;&gt;paramtk.ProgressWindow -->
<g id="edge74" class="edge"><title>Tkinter.Frame&#45;&gt;paramtk.ProgressWindow</title>
<path fill="none" stroke="black" stroke-width="0.5" d="M725.69,-436.966C743.091,-417.521 784.307,-374.636 828,-352 833.404,-349.2 839.245,-346.796 845.199,-344.736"/>
<polygon fill="black" stroke="black" points="846.016,-346.309 850.219,-343.085 844.923,-342.984 846.016,-346.309"/>
</g>
<!-- paramtk.ParametersFrameWithApply -->
<g id="node5" class="node"><title>paramtk.ParametersFrameWithApply</title>
<polygon fill="none" stroke="black" stroke-width="0.5" points="1206,-609.5 1014,-609.5 1014,-588.5 1206,-588.5 1206,-609.5"/>
<text text-anchor="middle" x="1110" y="-596.5" font-family="Vera" font-size="10.00">paramtk.ParametersFrameWithApply</text>
</g>
<!-- paramtk.EditingParametersFrameWithApply -->
<g id="node60" class="node"><title>paramtk.EditingParametersFrameWithApply</title>
<polygon fill="none" stroke="black" stroke-width="0.5" points="1466,-609.5 1242,-609.5 1242,-588.5 1466,-588.5 1466,-609.5"/>
<text text-anchor="middle" x="1354" y="-596.5" font-family="Vera" font-size="10.00">paramtk.EditingParametersFrameWithApply</text>
</g>
<!-- paramtk.ParametersFrameWithApply&#45;&gt;paramtk.EditingParametersFrameWithApply -->
<g id="edge52" class="edge"><title>paramtk.ParametersFrameWithApply&#45;&gt;paramtk.EditingParametersFrameWithApply</title>
<path fill="none" stroke="black" stroke-width="0.5" d="M1206.09,-599C1216.17,-599 1226.5,-599 1236.79,-599"/>
<polygon fill="black" stroke="black" points="1236.84,-600.75 1241.84,-599 1236.84,-597.25 1236.84,-600.75"/>
</g>
<!-- paramtk.ParametersFrame&#45;&gt;paramtk.ParametersFrameWithApply -->
<g id="edge4" class="edge"><title>paramtk.ParametersFrame&#45;&gt;paramtk.ParametersFrameWithApply</title>
<path fill="none" stroke="black" stroke-width="0.5" d="M976.272,-599C986.862,-599 997.915,-599 1008.93,-599"/>
<polygon fill="black" stroke="black" points="1008.99,-600.75 1013.99,-599 1008.99,-597.25 1008.99,-600.75"/>
</g>
<!-- paramtk.Balloon -->
<g id="node8" class="node"><title>paramtk.Balloon</title>
<polygon fill="none" stroke="black" stroke-width="0.5" points="764,-324.5 670,-324.5 670,-303.5 764,-303.5 764,-324.5"/>
<text text-anchor="middle" x="717" y="-311.5" font-family="Vera" font-size="10.00">paramtk.Balloon</text>
</g>
<!-- Tkinter.Widget -->
<g id="node9" class="node"><title>Tkinter.Widget</title>
<polygon fill="none" stroke="black" stroke-width="0.5" points="565,-286.5 483,-286.5 483,-265.5 565,-265.5 565,-286.5"/>
<text text-anchor="middle" x="524" y="-273.5" font-family="Vera" font-size="10.00">Tkinter.Widget</text>
</g>
<!-- Tkinter.Widget&#45;&gt;Tkinter.Frame -->
<g id="edge62" class="edge"><title>Tkinter.Widget&#45;&gt;Tkinter.Frame</title>
<path fill="none" stroke="black" stroke-width="0.5" d="M535.495,-286.185C568.537,-315.46 663.812,-399.875 701.443,-433.216"/>
<polygon fill="black" stroke="black" points="700.418,-434.646 705.321,-436.652 702.739,-432.027 700.418,-434.646"/>
</g>
<!-- Tkinter.Widget&#45;&gt;paramtk.Balloon -->
<g id="edge6" class="edge"><title>Tkinter.Widget&#45;&gt;paramtk.Balloon</title>
<path fill="none" stroke="black" stroke-width="0.5" d="M565.878,-284.245C594.818,-289.943 633.53,-297.565 664.527,-303.669"/>
<polygon fill="black" stroke="black" points="664.189,-305.386 669.433,-304.635 664.866,-301.952 664.189,-305.386"/>
</g>
<!-- Tkinter.Menu -->
<g id="node23" class="node"><title>Tkinter.Menu</title>
<polygon fill="none" stroke="black" stroke-width="0.5" points="755,-286.5 679,-286.5 679,-265.5 755,-265.5 755,-286.5"/>
<text text-anchor="middle" x="717" y="-273.5" font-family="Vera" font-size="10.00">Tkinter.Menu</text>
</g>
<!-- Tkinter.Widget&#45;&gt;Tkinter.Menu -->
<g id="edge18" class="edge"><title>Tkinter.Widget&#45;&gt;Tkinter.Menu</title>
<path fill="none" stroke="black" stroke-width="0.5" d="M565.878,-276C597.659,-276 641.226,-276 673.418,-276"/>
<polygon fill="black" stroke="black" points="673.483,-277.75 678.483,-276 673.483,-274.25 673.483,-277.75"/>
</g>
<!-- Tkinter.Button -->
<g id="node52" class="node"><title>Tkinter.Button</title>
<polygon fill="none" stroke="black" stroke-width="0.5" points="758,-248.5 676,-248.5 676,-227.5 758,-227.5 758,-248.5"/>
<text text-anchor="middle" x="717" y="-235.5" font-family="Vera" font-size="10.00">Tkinter.Button</text>
</g>
<!-- Tkinter.Widget&#45;&gt;Tkinter.Button -->
<g id="edge44" class="edge"><title>Tkinter.Widget&#45;&gt;Tkinter.Button</title>
<path fill="none" stroke="black" stroke-width="0.5" d="M565.878,-267.755C596.607,-261.704 638.353,-253.485 670.183,-247.218"/>
<polygon fill="black" stroke="black" points="670.636,-248.912 675.204,-246.229 669.96,-245.478 670.636,-248.912"/>
</g>
<!-- paramtk.Scrodget -->
<g id="node70" class="node"><title>paramtk.Scrodget</title>
<polygon fill="none" stroke="black" stroke-width="0.5" points="769,-210.5 665,-210.5 665,-189.5 769,-189.5 769,-210.5"/>
<text text-anchor="middle" x="717" y="-197.5" font-family="Vera" font-size="10.00">paramtk.Scrodget</text>
</g>
<!-- Tkinter.Widget&#45;&gt;paramtk.Scrodget -->
<g id="edge66" class="edge"><title>Tkinter.Widget&#45;&gt;paramtk.Scrodget</title>
<path fill="none" stroke="black" stroke-width="0.5" d="M541.899,-265.939C564.601,-253.514 605.228,-232.383 642,-219 649.735,-216.185 658.065,-213.629 666.261,-211.369"/>
<polygon fill="black" stroke="black" points="666.968,-212.991 671.34,-210 666.057,-209.611 666.968,-212.991"/>
</g>
<!-- paramtk.Button -->
<g id="node15" class="node"><title>paramtk.Button</title>
<polygon fill="none" stroke="black" stroke-width="0.5" points="570,-647.5 478,-647.5 478,-626.5 570,-626.5 570,-647.5"/>
<text text-anchor="middle" x="524" y="-634.5" font-family="Vera" font-size="10.00">paramtk.Button</text>
</g>
<!-- param.Callable -->
<g id="node16" class="node"><title>param.Callable</title>
<polygon fill="none" stroke="black" stroke-width="0.5" points="353,-647.5 265,-647.5 265,-626.5 353,-626.5 353,-647.5"/>
<text text-anchor="middle" x="309" y="-634.5" font-family="Vera" font-size="10.00">param.Callable</text>
</g>
<!-- param.Callable&#45;&gt;paramtk.Button -->
<g id="edge12" class="edge"><title>param.Callable&#45;&gt;paramtk.Button</title>
<path fill="none" stroke="black" stroke-width="0.5" d="M353.548,-637C388.132,-637 436.136,-637 472.391,-637"/>
<polygon fill="black" stroke="black" points="472.652,-638.75 477.652,-637 472.652,-635.25 472.652,-638.75"/>
</g>
<!-- Tkinter.Wm -->
<g id="node18" class="node"><title>Tkinter.Wm</title>
<polygon fill="none" stroke="black" stroke-width="0.5" points="343,-172.5 275,-172.5 275,-151.5 343,-151.5 343,-172.5"/>
<text text-anchor="middle" x="309" y="-159.5" font-family="Vera" font-size="10.00">Tkinter.Wm</text>
</g>
<!-- Tkinter.Toplevel -->
<g id="node46" class="node"><title>Tkinter.Toplevel</title>
<polygon fill="none" stroke="black" stroke-width="0.5" points="568,-172.5 480,-172.5 480,-151.5 568,-151.5 568,-172.5"/>
<text text-anchor="middle" x="524" y="-159.5" font-family="Vera" font-size="10.00">Tkinter.Toplevel</text>
</g>
<!-- Tkinter.Wm&#45;&gt;Tkinter.Toplevel -->
<g id="edge40" class="edge"><title>Tkinter.Wm&#45;&gt;Tkinter.Toplevel</title>
<path fill="none" stroke="black" stroke-width="0.5" d="M343.543,-162C378.874,-162 434.11,-162 474.169,-162"/>
<polygon fill="black" stroke="black" points="474.47,-163.75 479.47,-162 474.47,-160.25 474.47,-163.75"/>
</g>
<!-- paramtk.CSPTranslator -->
<g id="node19" class="node"><title>paramtk.CSPTranslator</title>
<polygon fill="none" stroke="black" stroke-width="0.5" points="587,-134.5 461,-134.5 461,-113.5 587,-113.5 587,-134.5"/>
<text text-anchor="middle" x="524" y="-121.5" font-family="Vera" font-size="10.00">paramtk.CSPTranslator</text>
</g>
<!-- paramtk.String_ObjectTranslator&#45;&gt;paramtk.CSPTranslator -->
<g id="edge14" class="edge"><title>paramtk.String_ObjectTranslator&#45;&gt;paramtk.CSPTranslator</title>
<path fill="none" stroke="black" stroke-width="0.5" d="M394.591,-124C414.822,-124 436.133,-124 455.493,-124"/>
<polygon fill="black" stroke="black" points="455.899,-125.75 460.899,-124 455.899,-122.25 455.899,-125.75"/>
</g>
<!-- paramtk.Menu -->
<g id="node30" class="node"><title>paramtk.Menu</title>
<polygon fill="none" stroke="black" stroke-width="0.5" points="946,-286.5 860,-286.5 860,-265.5 946,-265.5 946,-286.5"/>
<text text-anchor="middle" x="903" y="-273.5" font-family="Vera" font-size="10.00">paramtk.Menu</text>
</g>
<!-- Tkinter.Menu&#45;&gt;paramtk.Menu -->
<g id="edge22" class="edge"><title>Tkinter.Menu&#45;&gt;paramtk.Menu</title>
<path fill="none" stroke="black" stroke-width="0.5" d="M755.539,-276C784.308,-276 823.811,-276 854.69,-276"/>
<polygon fill="black" stroke="black" points="854.959,-277.75 859.959,-276 854.959,-274.25 854.959,-277.75"/>
</g>
<!-- param.parameterized.Parameterized -->
<g id="node25" class="node"><title>param.parameterized.Parameterized</title>
<polygon fill="none" stroke="black" stroke-width="0.5" points="406,-590.5 212,-590.5 212,-569.5 406,-569.5 406,-590.5"/>
<text text-anchor="middle" x="309" y="-577.5" font-family="Vera" font-size="10.00">param.parameterized.Parameterized</text>
</g>
<!-- paramtk.TkParameterizedBase -->
<g id="node40" class="node"><title>paramtk.TkParameterizedBase</title>
<polygon fill="none" stroke="black" stroke-width="0.5" points="606,-609.5 442,-609.5 442,-588.5 606,-588.5 606,-609.5"/>
<text text-anchor="middle" x="524" y="-596.5" font-family="Vera" font-size="10.00">paramtk.TkParameterizedBase</text>
</g>
<!-- param.parameterized.Parameterized&#45;&gt;paramtk.TkParameterizedBase -->
<g id="edge28" class="edge"><title>param.parameterized.Parameterized&#45;&gt;paramtk.TkParameterizedBase</title>
<path fill="none" stroke="black" stroke-width="0.5" d="M406.121,-588.583C416.261,-589.479 426.525,-590.386 436.548,-591.272"/>
<polygon fill="black" stroke="black" points="436.631,-593.036 441.766,-591.733 436.939,-589.549 436.631,-593.036"/>
</g>
<!-- paramtk.Representer -->
<g id="node55" class="node"><title>paramtk.Representer</title>
<polygon fill="none" stroke="black" stroke-width="0.5" points="583,-571.5 465,-571.5 465,-550.5 583,-550.5 583,-571.5"/>
<text text-anchor="middle" x="524" y="-558.5" font-family="Vera" font-size="10.00">paramtk.Representer</text>
</g>
<!-- param.parameterized.Parameterized&#45;&gt;paramtk.Representer -->
<g id="edge48" class="edge"><title>param.parameterized.Parameterized&#45;&gt;paramtk.Representer</title>
<path fill="none" stroke="black" stroke-width="0.5" d="M406.121,-571.417C424.274,-569.813 442.826,-568.174 459.679,-566.684"/>
<polygon fill="black" stroke="black" points="460.026,-568.41 464.853,-566.227 459.718,-564.924 460.026,-568.41"/>
</g>
<!-- Tkinter.Pack -->
<g id="node26" class="node"><title>Tkinter.Pack</title>
<polygon fill="none" stroke="black" stroke-width="0.5" points="345,-324.5 273,-324.5 273,-303.5 345,-303.5 345,-324.5"/>
<text text-anchor="middle" x="309" y="-311.5" font-family="Vera" font-size="10.00">Tkinter.Pack</text>
</g>
<!-- Tkinter.Pack&#45;&gt;Tkinter.Widget -->
<g id="edge32" class="edge"><title>Tkinter.Pack&#45;&gt;Tkinter.Widget</title>
<path fill="none" stroke="black" stroke-width="0.5" d="M345.96,-307.468C382.269,-301.05 437.801,-291.235 477.179,-284.275"/>
<polygon fill="black" stroke="black" points="477.764,-285.949 482.383,-283.356 477.154,-282.503 477.764,-285.949"/>
</g>
<!-- param.parameterized.Parameter -->
<g id="node27" class="node"><title>param.parameterized.Parameter</title>
<polygon fill="none" stroke="black" stroke-width="0.5" points="175,-647.5 1,-647.5 1,-626.5 175,-626.5 175,-647.5"/>
<text text-anchor="middle" x="88" y="-634.5" font-family="Vera" font-size="10.00">param.parameterized.Parameter</text>
</g>
<!-- param.parameterized.Parameter&#45;&gt;param.Callable -->
<g id="edge20" class="edge"><title>param.parameterized.Parameter&#45;&gt;param.Callable</title>
<path fill="none" stroke="black" stroke-width="0.5" d="M175.662,-637C204.015,-637 234.464,-637 259.097,-637"/>
<polygon fill="black" stroke="black" points="259.263,-638.75 264.263,-637 259.263,-635.25 259.263,-638.75"/>
</g>
<!-- Tkinter.Place -->
<g id="node29" class="node"><title>Tkinter.Place</title>
<polygon fill="none" stroke="black" stroke-width="0.5" points="347,-286.5 271,-286.5 271,-265.5 347,-265.5 347,-286.5"/>
<text text-anchor="middle" x="309" y="-273.5" font-family="Vera" font-size="10.00">Tkinter.Place</text>
</g>
<!-- Tkinter.Place&#45;&gt;Tkinter.Widget -->
<g id="edge34" class="edge"><title>Tkinter.Place&#45;&gt;Tkinter.Widget</title>
<path fill="none" stroke="black" stroke-width="0.5" d="M347.935,-276C384.299,-276 438.629,-276 477.308,-276"/>
<polygon fill="black" stroke="black" points="477.42,-277.75 482.42,-276 477.42,-274.25 477.42,-277.75"/>
</g>
<!-- Tkinter.Grid -->
<g id="node32" class="node"><title>Tkinter.Grid</title>
<polygon fill="none" stroke="black" stroke-width="0.5" points="344,-248.5 274,-248.5 274,-227.5 344,-227.5 344,-248.5"/>
<text text-anchor="middle" x="309" y="-235.5" font-family="Vera" font-size="10.00">Tkinter.Grid</text>
</g>
<!-- Tkinter.Grid&#45;&gt;Tkinter.Widget -->
<g id="edge36" class="edge"><title>Tkinter.Grid&#45;&gt;Tkinter.Widget</title>
<path fill="none" stroke="black" stroke-width="0.5" d="M344.503,-244.275C380.687,-250.67 437.012,-260.625 476.905,-267.676"/>
<polygon fill="black" stroke="black" points="476.947,-269.461 482.175,-268.608 477.556,-266.014 476.947,-269.461"/>
</g>
<!-- paramtk.ProgressController -->
<g id="node33" class="node"><title>paramtk.ProgressController</title>
<polygon fill="none" stroke="black" stroke-width="0.5" points="791,-362.5 643,-362.5 643,-341.5 791,-341.5 791,-362.5"/>
<text text-anchor="middle" x="717" y="-349.5" font-family="Vera" font-size="10.00">paramtk.ProgressController</text>
</g>
<!-- paramtk.ProgressController&#45;&gt;paramtk.ProgressWindow -->
<g id="edge72" class="edge"><title>paramtk.ProgressController&#45;&gt;paramtk.ProgressWindow</title>
<path fill="none" stroke="black" stroke-width="0.5" d="M791.582,-344.381C803.962,-343.117 816.797,-341.806 829.159,-340.543"/>
<polygon fill="black" stroke="black" points="829.629,-342.254 834.426,-340.005 829.274,-338.772 829.629,-342.254"/>
</g>
<!-- Tkinter.BaseWidget -->
<g id="node34" class="node"><title>Tkinter.BaseWidget</title>
<polygon fill="none" stroke="black" stroke-width="0.5" points="362,-210.5 256,-210.5 256,-189.5 362,-189.5 362,-210.5"/>
<text text-anchor="middle" x="309" y="-197.5" font-family="Vera" font-size="10.00">Tkinter.BaseWidget</text>
</g>
<!-- Tkinter.BaseWidget&#45;&gt;Tkinter.Widget -->
<g id="edge30" class="edge"><title>Tkinter.BaseWidget&#45;&gt;Tkinter.Widget</title>
<path fill="none" stroke="black" stroke-width="0.5" d="M362.75,-207.983C377,-210.787 392.243,-214.415 406,-219 441.006,-230.667 479.019,-250.43 502.178,-263.347"/>
<polygon fill="black" stroke="black" points="501.39,-264.912 506.607,-265.835 503.105,-261.86 501.39,-264.912"/>
</g>
<!-- Tkinter.BaseWidget&#45;&gt;Tkinter.Toplevel -->
<g id="edge38" class="edge"><title>Tkinter.BaseWidget&#45;&gt;Tkinter.Toplevel</title>
<path fill="none" stroke="black" stroke-width="0.5" d="M362.699,-190.509C396.819,-184.479 440.681,-176.726 474.052,-170.828"/>
<polygon fill="black" stroke="black" points="474.695,-172.492 479.314,-169.898 474.086,-169.045 474.695,-172.492"/>
</g>
<!-- Tkinter.Misc -->
<g id="node35" class="node"><title>Tkinter.Misc</title>
<polygon fill="none" stroke="black" stroke-width="0.5" points="124,-210.5 52,-210.5 52,-189.5 124,-189.5 124,-210.5"/>
<text text-anchor="middle" x="88" y="-197.5" font-family="Vera" font-size="10.00">Tkinter.Misc</text>
</g>
<!-- Tkinter.Misc&#45;&gt;Tkinter.BaseWidget -->
<g id="edge24" class="edge"><title>Tkinter.Misc&#45;&gt;Tkinter.BaseWidget</title>
<path fill="none" stroke="black" stroke-width="0.5" d="M124.494,-200C158.637,-200 210.226,-200 250.18,-200"/>
<polygon fill="black" stroke="black" points="250.489,-201.75 255.489,-200 250.489,-198.25 250.489,-201.75"/>
</g>
<!-- paramtk.AppWindow -->
<g id="node37" class="node"><title>paramtk.AppWindow</title>
<polygon fill="none" stroke="black" stroke-width="0.5" points="960,-172.5 846,-172.5 846,-151.5 960,-151.5 960,-172.5"/>
<text text-anchor="middle" x="903" y="-159.5" font-family="Vera" font-size="10.00">paramtk.AppWindow</text>
</g>
<!-- paramtk.ScrolledWindow -->
<g id="node38" class="node"><title>paramtk.ScrolledWindow</title>
<polygon fill="none" stroke="black" stroke-width="0.5" points="784,-172.5 650,-172.5 650,-151.5 784,-151.5 784,-172.5"/>
<text text-anchor="middle" x="717" y="-159.5" font-family="Vera" font-size="10.00">paramtk.ScrolledWindow</text>
</g>
<!-- paramtk.ScrolledWindow&#45;&gt;paramtk.AppWindow -->
<g id="edge26" class="edge"><title>paramtk.ScrolledWindow&#45;&gt;paramtk.AppWindow</title>
<path fill="none" stroke="black" stroke-width="0.5" d="M784.15,-162C802.603,-162 822.53,-162 840.697,-162"/>
<polygon fill="black" stroke="black" points="840.771,-163.75 845.771,-162 840.771,-160.25 840.771,-163.75"/>
</g>
<!-- paramtk.TkParameterized -->
<g id="node58" class="node"><title>paramtk.TkParameterized</title>
<polygon fill="none" stroke="black" stroke-width="0.5" points="787,-609.5 647,-609.5 647,-588.5 787,-588.5 787,-609.5"/>
<text text-anchor="middle" x="717" y="-596.5" font-family="Vera" font-size="10.00">paramtk.TkParameterized</text>
</g>
<!-- paramtk.TkParameterizedBase&#45;&gt;paramtk.TkParameterized -->
<g id="edge50" class="edge"><title>paramtk.TkParameterizedBase&#45;&gt;paramtk.TkParameterized</title>
<path fill="none" stroke="black" stroke-width="0.5" d="M606.129,-599C617.873,-599 629.908,-599 641.516,-599"/>
<polygon fill="black" stroke="black" points="641.817,-600.75 646.817,-599 641.817,-597.25 641.817,-600.75"/>
</g>
<!-- Tkinter.Toplevel&#45;&gt;paramtk.ScrolledWindow -->
<g id="edge58" class="edge"><title>Tkinter.Toplevel&#45;&gt;paramtk.ScrolledWindow</title>
<path fill="none" stroke="black" stroke-width="0.5" d="M568.763,-162C591.313,-162 619.213,-162 644.705,-162"/>
<polygon fill="black" stroke="black" points="644.769,-163.75 649.769,-162 644.769,-160.25 644.769,-163.75"/>
</g>
<!-- paramtk.ToolTip -->
<g id="node75" class="node"><title>paramtk.ToolTip</title>
<polygon fill="none" stroke="black" stroke-width="0.5" points="763,-134.5 671,-134.5 671,-113.5 763,-113.5 763,-134.5"/>
<text text-anchor="middle" x="717" y="-121.5" font-family="Vera" font-size="10.00">paramtk.ToolTip</text>
</g>
<!-- Tkinter.Toplevel&#45;&gt;paramtk.ToolTip -->
<g id="edge70" class="edge"><title>Tkinter.Toplevel&#45;&gt;paramtk.ToolTip</title>
<path fill="none" stroke="black" stroke-width="0.5" d="M568.763,-153.187C597.711,-147.487 635.478,-140.051 665.646,-134.111"/>
<polygon fill="black" stroke="black" points="666.235,-135.779 670.802,-133.096 665.558,-132.345 666.235,-135.779"/>
</g>
<!-- paramtk.BoolTranslator -->
<g id="node49" class="node"><title>paramtk.BoolTranslator</title>
<polygon fill="none" stroke="black" stroke-width="0.5" points="588,-96.5 460,-96.5 460,-75.5 588,-75.5 588,-96.5"/>
<text text-anchor="middle" x="524" y="-83.5" font-family="Vera" font-size="10.00">paramtk.BoolTranslator</text>
</g>
<!-- paramtk.DoNothingTranslator&#45;&gt;paramtk.BoolTranslator -->
<g id="edge42" class="edge"><title>paramtk.DoNothingTranslator&#45;&gt;paramtk.BoolTranslator</title>
<path fill="none" stroke="black" stroke-width="0.5" d="M388.142,-86C409.979,-86 433.497,-86 454.728,-86"/>
<polygon fill="black" stroke="black" points="454.788,-87.7501 459.788,-86 454.788,-84.2501 454.788,-87.7501"/>
</g>
<!-- paramtk.FocusTakingButton -->
<g id="node86" class="node"><title>paramtk.FocusTakingButton</title>
<polygon fill="none" stroke="black" stroke-width="0.5" points="977,-248.5 829,-248.5 829,-227.5 977,-227.5 977,-248.5"/>
<text text-anchor="middle" x="903" y="-235.5" font-family="Vera" font-size="10.00">paramtk.FocusTakingButton</text>
</g>
<!-- Tkinter.Button&#45;&gt;paramtk.FocusTakingButton -->
<g id="edge84" class="edge"><title>Tkinter.Button&#45;&gt;paramtk.FocusTakingButton</title>
<path fill="none" stroke="black" stroke-width="0.5" d="M758.742,-238C777.861,-238 801.182,-238 823.453,-238"/>
<polygon fill="black" stroke="black" points="823.485,-239.75 828.485,-238 823.485,-236.25 823.485,-239.75"/>
</g>
<!-- paramtk.ListRepresenter -->
<g id="node54" class="node"><title>paramtk.ListRepresenter</title>
<polygon fill="none" stroke="black" stroke-width="0.5" points="784,-571.5 650,-571.5 650,-550.5 784,-550.5 784,-571.5"/>
<text text-anchor="middle" x="717" y="-558.5" font-family="Vera" font-size="10.00">paramtk.ListRepresenter</text>
</g>
<!-- paramtk.Representer&#45;&gt;paramtk.ListRepresenter -->
<g id="edge46" class="edge"><title>paramtk.Representer&#45;&gt;paramtk.ListRepresenter</title>
<path fill="none" stroke="black" stroke-width="0.5" d="M583.218,-561C602.627,-561 624.413,-561 644.678,-561"/>
<polygon fill="black" stroke="black" points="644.795,-562.75 649.795,-561 644.795,-559.25 644.795,-562.75"/>
</g>
<!-- paramtk.TkParameterized&#45;&gt;paramtk.ParametersFrame -->
<g id="edge78" class="edge"><title>paramtk.TkParameterized&#45;&gt;paramtk.ParametersFrame</title>
<path fill="none" stroke="black" stroke-width="0.5" d="M787.054,-599C799.308,-599 812.13,-599 824.593,-599"/>
<polygon fill="black" stroke="black" points="824.909,-600.75 829.909,-599 824.909,-597.25 824.909,-600.75"/>
</g>
<!-- paramtk.ScrodgetWidget -->
<g id="node64" class="node"><title>paramtk.ScrodgetWidget</title>
<polygon fill="none" stroke="black" stroke-width="0.5" points="592,-210.5 456,-210.5 456,-189.5 592,-189.5 592,-210.5"/>
<text text-anchor="middle" x="524" y="-197.5" font-family="Vera" font-size="10.00">paramtk.ScrodgetWidget</text>
</g>
<!-- paramtk.ScrodgetWidget&#45;&gt;paramtk.Scrodget -->
<g id="edge64" class="edge"><title>paramtk.ScrodgetWidget&#45;&gt;paramtk.Scrodget</title>
<path fill="none" stroke="black" stroke-width="0.5" d="M592.045,-200C614.148,-200 638.44,-200 659.681,-200"/>
<polygon fill="black" stroke="black" points="659.728,-201.75 664.728,-200 659.728,-198.25 659.728,-201.75"/>
</g>
</g>
</svg>
