<?xml version="1.0" encoding="UTF-8" standalone="no"?>
<!DOCTYPE svg PUBLIC "-//W3C//DTD SVG 1.1//EN"
 "http://www.w3.org/Graphics/SVG/1.1/DTD/svg11.dtd">
<!-- Generated by graphviz version 2.26.3 (20100126.1600)
 -->
<!-- Title: inheritance109cbfe3c3 Pages: 1 -->
<svg width="808pt" height="28pt"
 viewBox="0.00 0.00 808.00 28.00" xmlns="http://www.w3.org/2000/svg" xmlns:xlink="http://www.w3.org/1999/xlink">
<g id="graph1" class="graph" transform="scale(1 1) rotate(0) translate(4 24)">
<title>inheritance109cbfe3c3</title>
<polygon fill="white" stroke="white" points="-4,5 -4,-24 805,-24 805,5 -4,5"/>
<!-- topo.learningfn.som.CFPLF_HebbianSOM -->
<g id="node1" class="node"><title>topo.learningfn.som.CFPLF_HebbianSOM</title>
<polygon fill="none" stroke="black" stroke-width="0.5" points="800,-20 598,-20 598,-1.06581e-14 800,-3.55271e-15 800,-20"/>
<text text-anchor="middle" x="699" y="-7" font-family="Vera" font-size="10.00">topo.learningfn.som.CFPLF_HebbianSOM</text>
</g>
<!-- topo.learningfn.som.CFPLF_SOM -->
<g id="node2" class="node"><title>topo.learningfn.som.CFPLF_SOM</title>
<polygon fill="none" stroke="black" stroke-width="0.5" points="562,-20 398,-20 398,-1.06581e-14 562,-3.55271e-15 562,-20"/>
<text text-anchor="middle" x="480" y="-7" font-family="Vera" font-size="10.00">topo.learningfn.som.CFPLF_SOM</text>
</g>
<!-- topo.learningfn.som.CFPLF_SOM&#45;&gt;topo.learningfn.som.CFPLF_HebbianSOM -->
<g id="edge2" class="edge"><title>topo.learningfn.som.CFPLF_SOM&#45;&gt;topo.learningfn.som.CFPLF_HebbianSOM</title>
<path fill="none" stroke="black" stroke-width="0.5" d="M562.171,-10C572.184,-10 582.523,-10 592.822,-10"/>
<polygon fill="black" stroke="black" points="592.874,-11.7501 597.874,-10 592.874,-8.2501 592.874,-11.7501"/>
</g>
<!-- topo.base.cf.CFPLearningFn -->
<g id="node4" class="node"><title>topo.base.cf.CFPLearningFn</title>
<polygon fill="none" stroke="black" stroke-width="0.5" points="362,-20 220,-20 220,-1.06581e-14 362,-3.55271e-15 362,-20"/>
<text text-anchor="middle" x="291" y="-7" font-family="Vera" font-size="10.00">topo.base.cf.CFPLearningFn</text>
</g>
<!-- topo.base.cf.CFPLearningFn&#45;&gt;topo.learningfn.som.CFPLF_SOM -->
<g id="edge4" class="edge"><title>topo.base.cf.CFPLearningFn&#45;&gt;topo.learningfn.som.CFPLF_SOM</title>
<path fill="none" stroke="black" stroke-width="0.5" d="M362.183,-10C372.165,-10 382.517,-10 392.755,-10"/>
<polygon fill="black" stroke="black" points="392.769,-11.7501 397.769,-10 392.769,-8.2501 392.769,-11.7501"/>
</g>
<!-- param.parameterized.Parameterized -->
<g id="node6" class="node"><title>param.parameterized.Parameterized</title>
<polygon fill="none" stroke="black" stroke-width="0.5" points="184,-20 8.52651e-14,-20 0,-1.06581e-14 184,-3.55271e-15 184,-20"/>
<text text-anchor="middle" x="92" y="-7" font-family="Vera" font-size="10.00">param.parameterized.Parameterized</text>
</g>
<!-- param.parameterized.Parameterized&#45;&gt;topo.base.cf.CFPLearningFn -->
<g id="edge6" class="edge"><title>param.parameterized.Parameterized&#45;&gt;topo.base.cf.CFPLearningFn</title>
<path fill="none" stroke="black" stroke-width="0.5" d="M184.218,-10C194.434,-10 204.754,-10 214.742,-10"/>
<polygon fill="black" stroke="black" points="214.932,-11.7501 219.932,-10 214.932,-8.2501 214.932,-11.7501"/>
</g>
</g>
</svg>
