<?xml version="1.0" encoding="UTF-8" standalone="no"?>
<!DOCTYPE svg PUBLIC "-//W3C//DTD SVG 1.1//EN"
 "http://www.w3.org/Graphics/SVG/1.1/DTD/svg11.dtd">
<!-- Generated by graphviz version 2.26.3 (20100126.1600)
 -->
<!-- Title: inheritancecf805f0ede Pages: 1 -->
<svg width="380pt" height="142pt"
 viewBox="0.00 0.00 380.00 142.00" xmlns="http://www.w3.org/2000/svg" xmlns:xlink="http://www.w3.org/1999/xlink">
<g id="graph1" class="graph" transform="scale(1 1) rotate(0) translate(4 138)">
<title>inheritancecf805f0ede</title>
<polygon fill="white" stroke="white" points="-4,5 -4,-138 377,-138 377,5 -4,5"/>
<!-- paramtk.odict.Items -->
<g id="node1" class="node"><title>paramtk.odict.Items</title>
<polygon fill="none" stroke="black" stroke-width="0.5" points="128,-20.5 16,-20.5 16,0.5 128,0.5 128,-20.5"/>
<text text-anchor="middle" x="72" y="-7.5" font-family="Vera" font-size="10.00">paramtk.odict.Items</text>
</g>
<!-- paramtk.odict.Values -->
<g id="node2" class="node"><title>paramtk.odict.Values</title>
<polygon fill="none" stroke="black" stroke-width="0.5" points="131,-58.5 13,-58.5 13,-37.5 131,-37.5 131,-58.5"/>
<text text-anchor="middle" x="72" y="-45.5" font-family="Vera" font-size="10.00">paramtk.odict.Values</text>
</g>
<!-- paramtk.odict.SequenceOrderedDict -->
<g id="node3" class="node"><title>paramtk.odict.SequenceOrderedDict</title>
<polygon fill="none" stroke="black" stroke-width="0.5" points="372,-96.5 180,-96.5 180,-75.5 372,-75.5 372,-96.5"/>
<text text-anchor="middle" x="276" y="-83.5" font-family="Vera" font-size="10.00">paramtk.odict.SequenceOrderedDict</text>
</g>
<!-- paramtk.odict.OrderedDict -->
<g id="node4" class="node"><title>paramtk.odict.OrderedDict</title>
<polygon fill="none" stroke="black" stroke-width="0.5" points="144,-96.5 5.68434e-14,-96.5 0,-75.5 144,-75.5 144,-96.5"/>
<text text-anchor="middle" x="72" y="-83.5" font-family="Vera" font-size="10.00">paramtk.odict.OrderedDict</text>
</g>
<!-- paramtk.odict.OrderedDict&#45;&gt;paramtk.odict.SequenceOrderedDict -->
<g id="edge2" class="edge"><title>paramtk.odict.OrderedDict&#45;&gt;paramtk.odict.SequenceOrderedDict</title>
<path fill="none" stroke="black" stroke-width="0.5" d="M144.21,-86C154.158,-86 164.521,-86 174.872,-86"/>
<polygon fill="black" stroke="black" points="174.951,-87.7501 179.951,-86 174.951,-84.2501 174.951,-87.7501"/>
</g>
<!-- paramtk.odict.Keys -->
<g id="node6" class="node"><title>paramtk.odict.Keys</title>
<polygon fill="none" stroke="black" stroke-width="0.5" points="126,-134.5 18,-134.5 18,-113.5 126,-113.5 126,-134.5"/>
<text text-anchor="middle" x="72" y="-121.5" font-family="Vera" font-size="10.00">paramtk.odict.Keys</text>
</g>
</g>
</svg>
