<?xml version="1.0" encoding="UTF-8" standalone="no"?>
<!DOCTYPE svg PUBLIC "-//W3C//DTD SVG 1.1//EN"
 "http://www.w3.org/Graphics/SVG/1.1/DTD/svg11.dtd">
<!-- Generated by graphviz version 2.26.3 (20100126.1600)
 -->
<!-- Title: inheritance0bce68b9cf Pages: 1 -->
<svg width="1872pt" height="541pt"
 viewBox="0.00 0.00 1872.00 541.00" xmlns="http://www.w3.org/2000/svg" xmlns:xlink="http://www.w3.org/1999/xlink">
<g id="graph1" class="graph" transform="scale(1 1) rotate(0) translate(4 537)">
<title>inheritance0bce68b9cf</title>
<polygon fill="white" stroke="white" points="-4,5 -4,-537 1869,-537 1869,5 -4,5"/>
<!-- topo.command.analysis.measure_frequency_preference -->
<g id="node1" class="node"><title>topo.command.analysis.measure_frequency_preference</title>
<polygon fill="none" stroke="black" stroke-width="0.5" points="1523,-438.5 1237,-438.5 1237,-417.5 1523,-417.5 1523,-438.5"/>
<text text-anchor="middle" x="1380" y="-425.5" font-family="Vera" font-size="10.00">topo.command.analysis.measure_frequency_preference</text>
</g>
<!-- topo.analysis.featureresponses.MeasureResponseCommand -->
<g id="node2" class="node"><title>topo.analysis.featureresponses.MeasureResponseCommand</title>
<polygon fill="none" stroke="black" stroke-width="0.5" points="1165,-286.5 859,-286.5 859,-265.5 1165,-265.5 1165,-286.5"/>
<text text-anchor="middle" x="1012" y="-273.5" font-family="Vera" font-size="10.00">topo.analysis.featureresponses.MeasureResponseCommand</text>
</g>
<!-- topo.analysis.featureresponses.MeasureResponseCommand&#45;&gt;topo.command.analysis.measure_frequency_preference -->
<g id="edge2" class="edge"><title>topo.analysis.featureresponses.MeasureResponseCommand&#45;&gt;topo.command.analysis.measure_frequency_preference</title>
<path fill="none" stroke="black" stroke-width="0.5" d="M1022.41,-286.284C1049.37,-312.173 1124.71,-380.036 1202,-409 1211.38,-412.514 1221.22,-415.445 1231.25,-417.883"/>
<polygon fill="black" stroke="black" points="1230.92,-419.604 1236.19,-419.041 1231.72,-416.196 1230.92,-419.604"/>
</g>
<!-- topo.command.analysis.measure_latency_preference -->
<g id="node4" class="node"><title>topo.command.analysis.measure_latency_preference</title>
<polygon fill="none" stroke="black" stroke-width="0.5" points="1517,-400.5 1243,-400.5 1243,-379.5 1517,-379.5 1517,-400.5"/>
<text text-anchor="middle" x="1380" y="-387.5" font-family="Vera" font-size="10.00">topo.command.analysis.measure_latency_preference</text>
</g>
<!-- topo.analysis.featureresponses.MeasureResponseCommand&#45;&gt;topo.command.analysis.measure_latency_preference -->
<g id="edge4" class="edge"><title>topo.analysis.featureresponses.MeasureResponseCommand&#45;&gt;topo.command.analysis.measure_latency_preference</title>
<path fill="none" stroke="black" stroke-width="0.5" d="M1027.47,-286.167C1058.87,-306.244 1132.99,-350.781 1202,-371 1213.48,-374.364 1225.54,-377.146 1237.73,-379.445"/>
<polygon fill="black" stroke="black" points="1237.73,-381.224 1242.97,-380.401 1238.36,-377.781 1237.73,-381.224"/>
</g>
<!-- topo.analysis.featureresponses.SinusoidalMeasureResponseCommand -->
<g id="node7" class="node"><title>topo.analysis.featureresponses.SinusoidalMeasureResponseCommand</title>
<polygon fill="none" stroke="black" stroke-width="0.5" points="1558,-362.5 1202,-362.5 1202,-341.5 1558,-341.5 1558,-362.5"/>
<text text-anchor="middle" x="1380" y="-349.5" font-family="Vera" font-size="10.00">topo.analysis.featureresponses.SinusoidalMeasureResponseCommand</text>
</g>
<!-- topo.analysis.featureresponses.MeasureResponseCommand&#45;&gt;topo.analysis.featureresponses.SinusoidalMeasureResponseCommand -->
<g id="edge42" class="edge"><title>topo.analysis.featureresponses.MeasureResponseCommand&#45;&gt;topo.analysis.featureresponses.SinusoidalMeasureResponseCommand</title>
<path fill="none" stroke="black" stroke-width="0.5" d="M1060.49,-286.014C1129.29,-300.224 1254.83,-326.149 1326.35,-340.92"/>
<polygon fill="black" stroke="black" points="1326.15,-342.666 1331.4,-341.964 1326.86,-339.239 1326.15,-342.666"/>
</g>
<!-- topo.analysis.featureresponses.PositionMeasurementCommand -->
<g id="node17" class="node"><title>topo.analysis.featureresponses.PositionMeasurementCommand</title>
<polygon fill="none" stroke="black" stroke-width="0.5" points="1542,-286.5 1218,-286.5 1218,-265.5 1542,-265.5 1542,-286.5"/>
<text text-anchor="middle" x="1380" y="-273.5" font-family="Vera" font-size="10.00">topo.analysis.featureresponses.PositionMeasurementCommand</text>
</g>
<!-- topo.analysis.featureresponses.MeasureResponseCommand&#45;&gt;topo.analysis.featureresponses.PositionMeasurementCommand -->
<g id="edge14" class="edge"><title>topo.analysis.featureresponses.MeasureResponseCommand&#45;&gt;topo.analysis.featureresponses.PositionMeasurementCommand</title>
<path fill="none" stroke="black" stroke-width="0.5" d="M1165.67,-276C1181.16,-276 1196.95,-276 1212.58,-276"/>
<polygon fill="black" stroke="black" points="1212.87,-277.75 1217.87,-276 1212.87,-274.25 1212.87,-277.75"/>
</g>
<!-- topo.command.analysis.measure_log_frequency_preference -->
<g id="node43" class="node"><title>topo.command.analysis.measure_log_frequency_preference</title>
<polygon fill="none" stroke="black" stroke-width="0.5" points="1533,-248.5 1227,-248.5 1227,-227.5 1533,-227.5 1533,-248.5"/>
<text text-anchor="middle" x="1380" y="-235.5" font-family="Vera" font-size="10.00">topo.command.analysis.measure_log_frequency_preference</text>
</g>
<!-- topo.analysis.featureresponses.MeasureResponseCommand&#45;&gt;topo.command.analysis.measure_log_frequency_preference -->
<g id="edge40" class="edge"><title>topo.analysis.featureresponses.MeasureResponseCommand&#45;&gt;topo.command.analysis.measure_log_frequency_preference</title>
<path fill="none" stroke="black" stroke-width="0.5" d="M1109.17,-265.966C1161.15,-260.598 1225.14,-253.991 1277.86,-248.547"/>
<polygon fill="black" stroke="black" points="1278.13,-250.278 1282.93,-248.024 1277.77,-246.797 1278.13,-250.278"/>
</g>
<!-- topo.analysis.featureresponses.SingleInputResponseCommand -->
<g id="node52" class="node"><title>topo.analysis.featureresponses.SingleInputResponseCommand</title>
<polygon fill="none" stroke="black" stroke-width="0.5" points="1539,-210.5 1221,-210.5 1221,-189.5 1539,-189.5 1539,-210.5"/>
<text text-anchor="middle" x="1380" y="-197.5" font-family="Vera" font-size="10.00">topo.analysis.featureresponses.SingleInputResponseCommand</text>
</g>
<!-- topo.analysis.featureresponses.MeasureResponseCommand&#45;&gt;topo.analysis.featureresponses.SingleInputResponseCommand -->
<g id="edge56" class="edge"><title>topo.analysis.featureresponses.MeasureResponseCommand&#45;&gt;topo.analysis.featureresponses.SingleInputResponseCommand</title>
<path fill="none" stroke="black" stroke-width="0.5" d="M1039.6,-265.958C1076.21,-253.045 1143.09,-230.874 1202,-219 1218.29,-215.717 1235.54,-212.976 1252.64,-210.695"/>
<polygon fill="black" stroke="black" points="1253.21,-212.385 1257.94,-210.001 1252.75,-208.915 1253.21,-212.385"/>
</g>
<!-- topo.command.analysis.measure_second_or_pref -->
<g id="node6" class="node"><title>topo.command.analysis.measure_second_or_pref</title>
<polygon fill="none" stroke="black" stroke-width="0.5" points="1857,-533.5 1601,-533.5 1601,-512.5 1857,-512.5 1857,-533.5"/>
<text text-anchor="middle" x="1729" y="-520.5" font-family="Vera" font-size="10.00">topo.command.analysis.measure_second_or_pref</text>
</g>
<!-- topo.analysis.featureresponses.SinusoidalMeasureResponseCommand&#45;&gt;topo.command.analysis.measure_second_or_pref -->
<g id="edge6" class="edge"><title>topo.analysis.featureresponses.SinusoidalMeasureResponseCommand&#45;&gt;topo.command.analysis.measure_second_or_pref</title>
<path fill="none" stroke="black" stroke-width="0.5" d="M1545.63,-362.034C1549.96,-364.693 1554.1,-367.671 1558,-371 1604.58,-410.75 1548.09,-463.476 1594,-504 1596.5,-506.21 1599.14,-508.234 1601.89,-510.086"/>
<polygon fill="black" stroke="black" points="1601.14,-511.678 1606.3,-512.856 1603,-508.714 1601.14,-511.678"/>
</g>
<!-- topo.command.analysis.measure_or_pref -->
<g id="node9" class="node"><title>topo.command.analysis.measure_or_pref</title>
<polygon fill="none" stroke="black" stroke-width="0.5" points="1837,-495.5 1621,-495.5 1621,-474.5 1837,-474.5 1837,-495.5"/>
<text text-anchor="middle" x="1729" y="-482.5" font-family="Vera" font-size="10.00">topo.command.analysis.measure_or_pref</text>
</g>
<!-- topo.analysis.featureresponses.SinusoidalMeasureResponseCommand&#45;&gt;topo.command.analysis.measure_or_pref -->
<g id="edge8" class="edge"><title>topo.analysis.featureresponses.SinusoidalMeasureResponseCommand&#45;&gt;topo.command.analysis.measure_or_pref</title>
<path fill="none" stroke="black" stroke-width="0.5" d="M1544.41,-362.092C1549.15,-364.718 1553.69,-367.676 1558,-371 1593.74,-398.593 1558.73,-437.813 1594,-466 1600.66,-471.323 1608.12,-475.524 1616.02,-478.813"/>
<polygon fill="black" stroke="black" points="1615.7,-480.566 1621,-480.745 1616.97,-477.303 1615.7,-480.566"/>
</g>
<!-- topo.command.analysis.measure_od_pref -->
<g id="node27" class="node"><title>topo.command.analysis.measure_od_pref</title>
<polygon fill="none" stroke="black" stroke-width="0.5" points="1838,-457.5 1620,-457.5 1620,-436.5 1838,-436.5 1838,-457.5"/>
<text text-anchor="middle" x="1729" y="-444.5" font-family="Vera" font-size="10.00">topo.command.analysis.measure_od_pref</text>
</g>
<!-- topo.analysis.featureresponses.SinusoidalMeasureResponseCommand&#45;&gt;topo.command.analysis.measure_od_pref -->
<g id="edge22" class="edge"><title>topo.analysis.featureresponses.SinusoidalMeasureResponseCommand&#45;&gt;topo.command.analysis.measure_od_pref</title>
<path fill="none" stroke="black" stroke-width="0.5" d="M1541.03,-362.105C1546.91,-364.682 1552.59,-367.632 1558,-371 1583.44,-386.837 1568.83,-411.739 1594,-428 1600.46,-432.175 1607.46,-435.595 1614.75,-438.387"/>
<polygon fill="black" stroke="black" points="1614.54,-440.173 1619.84,-440.22 1615.73,-436.88 1614.54,-440.173"/>
</g>
<!-- topo.command.analysis.measure_sine_pref -->
<g id="node29" class="node"><title>topo.command.analysis.measure_sine_pref</title>
<polygon fill="none" stroke="black" stroke-width="0.5" points="1842,-419.5 1616,-419.5 1616,-398.5 1842,-398.5 1842,-419.5"/>
<text text-anchor="middle" x="1729" y="-406.5" font-family="Vera" font-size="10.00">topo.command.analysis.measure_sine_pref</text>
</g>
<!-- topo.analysis.featureresponses.SinusoidalMeasureResponseCommand&#45;&gt;topo.command.analysis.measure_sine_pref -->
<g id="edge24" class="edge"><title>topo.analysis.featureresponses.SinusoidalMeasureResponseCommand&#45;&gt;topo.command.analysis.measure_sine_pref</title>
<path fill="none" stroke="black" stroke-width="0.5" d="M1520.93,-362.009C1533.59,-364.417 1546.11,-367.374 1558,-371 1575.3,-376.277 1576.79,-384.434 1594,-390 1603.68,-393.129 1613.91,-395.743 1624.24,-397.926"/>
<polygon fill="black" stroke="black" points="1624.06,-399.677 1629.31,-398.964 1624.76,-396.248 1624.06,-399.677"/>
</g>
<!-- topo.command.analysis.measure_dr_pref -->
<g id="node39" class="node"><title>topo.command.analysis.measure_dr_pref</title>
<polygon fill="none" stroke="black" stroke-width="0.5" points="1837,-381.5 1621,-381.5 1621,-360.5 1837,-360.5 1837,-381.5"/>
<text text-anchor="middle" x="1729" y="-368.5" font-family="Vera" font-size="10.00">topo.command.analysis.measure_dr_pref</text>
</g>
<!-- topo.analysis.featureresponses.SinusoidalMeasureResponseCommand&#45;&gt;topo.command.analysis.measure_dr_pref -->
<g id="edge36" class="edge"><title>topo.analysis.featureresponses.SinusoidalMeasureResponseCommand&#45;&gt;topo.command.analysis.measure_dr_pref</title>
<path fill="none" stroke="black" stroke-width="0.5" d="M1558.08,-361.695C1577.59,-362.757 1597.03,-363.816 1615.45,-364.818"/>
<polygon fill="black" stroke="black" points="1615.53,-366.575 1620.61,-365.099 1615.72,-363.08 1615.53,-366.575"/>
</g>
<!-- topo.command.analysis.measure_hue_pref -->
<g id="node58" class="node"><title>topo.command.analysis.measure_hue_pref</title>
<polygon fill="none" stroke="black" stroke-width="0.5" points="1841,-343.5 1617,-343.5 1617,-322.5 1841,-322.5 1841,-343.5"/>
<text text-anchor="middle" x="1729" y="-330.5" font-family="Vera" font-size="10.00">topo.command.analysis.measure_hue_pref</text>
</g>
<!-- topo.analysis.featureresponses.SinusoidalMeasureResponseCommand&#45;&gt;topo.command.analysis.measure_hue_pref -->
<g id="edge58" class="edge"><title>topo.analysis.featureresponses.SinusoidalMeasureResponseCommand&#45;&gt;topo.command.analysis.measure_hue_pref</title>
<path fill="none" stroke="black" stroke-width="0.5" d="M1558.08,-342.305C1576.2,-341.319 1594.27,-340.335 1611.51,-339.396"/>
<polygon fill="black" stroke="black" points="1611.94,-341.126 1616.83,-339.107 1611.74,-337.631 1611.94,-341.126"/>
</g>
<!-- topo.command.analysis.measure_phasedisparity -->
<g id="node60" class="node"><title>topo.command.analysis.measure_phasedisparity</title>
<polygon fill="none" stroke="black" stroke-width="0.5" points="1855,-305.5 1603,-305.5 1603,-284.5 1855,-284.5 1855,-305.5"/>
<text text-anchor="middle" x="1729" y="-292.5" font-family="Vera" font-size="10.00">topo.command.analysis.measure_phasedisparity</text>
</g>
<!-- topo.analysis.featureresponses.SinusoidalMeasureResponseCommand&#45;&gt;topo.command.analysis.measure_phasedisparity -->
<g id="edge60" class="edge"><title>topo.analysis.featureresponses.SinusoidalMeasureResponseCommand&#45;&gt;topo.command.analysis.measure_phasedisparity</title>
<path fill="none" stroke="black" stroke-width="0.5" d="M1433.56,-341.94C1476.79,-333.952 1539.22,-322.716 1594,-314 1611.84,-311.162 1631.04,-308.327 1649.21,-305.746"/>
<polygon fill="black" stroke="black" points="1649.6,-307.458 1654.3,-305.025 1649.11,-303.993 1649.6,-307.458"/>
</g>
<!-- topo.analysis.featureresponses.PatternPresentingCommand -->
<g id="node11" class="node"><title>topo.analysis.featureresponses.PatternPresentingCommand</title>
<polygon fill="none" stroke="black" stroke-width="0.5" points="813,-248.5 509,-248.5 509,-227.5 813,-227.5 813,-248.5"/>
<text text-anchor="middle" x="661" y="-235.5" font-family="Vera" font-size="10.00">topo.analysis.featureresponses.PatternPresentingCommand</text>
</g>
<!-- topo.analysis.featureresponses.PatternPresentingCommand&#45;&gt;topo.analysis.featureresponses.MeasureResponseCommand -->
<g id="edge48" class="edge"><title>topo.analysis.featureresponses.PatternPresentingCommand&#45;&gt;topo.analysis.featureresponses.MeasureResponseCommand</title>
<path fill="none" stroke="black" stroke-width="0.5" d="M753.68,-248.034C803.164,-253.391 864.045,-259.982 914.273,-265.42"/>
<polygon fill="black" stroke="black" points="914.25,-267.178 919.409,-265.976 914.627,-263.698 914.25,-267.178"/>
</g>
<!-- param.parameterized.ParameterizedFunction -->
<g id="node12" class="node"><title>param.parameterized.ParameterizedFunction</title>
<polygon fill="none" stroke="black" stroke-width="0.5" points="464,-143.5 230,-143.5 230,-122.5 464,-122.5 464,-143.5"/>
<text text-anchor="middle" x="347" y="-130.5" font-family="Vera" font-size="10.00">param.parameterized.ParameterizedFunction</text>
</g>
<!-- param.parameterized.ParameterizedFunction&#45;&gt;topo.analysis.featureresponses.PatternPresentingCommand -->
<g id="edge10" class="edge"><title>param.parameterized.ParameterizedFunction&#45;&gt;topo.analysis.featureresponses.PatternPresentingCommand</title>
<path fill="none" stroke="black" stroke-width="0.5" d="M377.108,-143.068C435.485,-162.589 563.772,-205.487 625.903,-226.264"/>
<polygon fill="black" stroke="black" points="625.687,-228.037 630.984,-227.963 626.797,-224.717 625.687,-228.037"/>
</g>
<!-- topo.plotting.plotgroup.ProjectionSheetMeasurementCommand -->
<g id="node32" class="node"><title>topo.plotting.plotgroup.ProjectionSheetMeasurementCommand</title>
<polygon fill="none" stroke="black" stroke-width="0.5" points="822,-172.5 500,-172.5 500,-151.5 822,-151.5 822,-172.5"/>
<text text-anchor="middle" x="661" y="-159.5" font-family="Vera" font-size="10.00">topo.plotting.plotgroup.ProjectionSheetMeasurementCommand</text>
</g>
<!-- param.parameterized.ParameterizedFunction&#45;&gt;topo.plotting.plotgroup.ProjectionSheetMeasurementCommand -->
<g id="edge34" class="edge"><title>param.parameterized.ParameterizedFunction&#45;&gt;topo.plotting.plotgroup.ProjectionSheetMeasurementCommand</title>
<path fill="none" stroke="black" stroke-width="0.5" d="M455.501,-143.021C485.161,-145.76 517.382,-148.736 547.323,-151.501"/>
<polygon fill="black" stroke="black" points="547.355,-153.262 552.495,-151.979 547.677,-149.776 547.355,-153.262"/>
</g>
<!-- topo.command.analysis.save_plotgroup -->
<g id="node41" class="node"><title>topo.command.analysis.save_plotgroup</title>
<polygon fill="none" stroke="black" stroke-width="0.5" points="765,-134.5 557,-134.5 557,-113.5 765,-113.5 765,-134.5"/>
<text text-anchor="middle" x="661" y="-121.5" font-family="Vera" font-size="10.00">topo.command.analysis.save_plotgroup</text>
</g>
<!-- param.parameterized.ParameterizedFunction&#45;&gt;topo.command.analysis.save_plotgroup -->
<g id="edge38" class="edge"><title>param.parameterized.ParameterizedFunction&#45;&gt;topo.command.analysis.save_plotgroup</title>
<path fill="none" stroke="black" stroke-width="0.5" d="M464.369,-129.636C492.984,-128.816 523.479,-127.942 551.702,-127.133"/>
<polygon fill="black" stroke="black" points="551.997,-128.875 556.945,-126.982 551.897,-125.377 551.997,-128.875"/>
</g>
<!-- topo.command.analysis.frequency_mapper -->
<g id="node14" class="node"><title>topo.command.analysis.frequency_mapper</title>
<polygon fill="none" stroke="black" stroke-width="0.5" points="773,-96.5 549,-96.5 549,-75.5 773,-75.5 773,-96.5"/>
<text text-anchor="middle" x="661" y="-83.5" font-family="Vera" font-size="10.00">topo.command.analysis.frequency_mapper</text>
</g>
<!-- imagen.patterngenerator.PatternGenerator -->
<g id="node15" class="node"><title>imagen.patterngenerator.PatternGenerator</title>
<polygon fill="none" stroke="black" stroke-width="0.5" points="459,-86.5 235,-86.5 235,-65.5 459,-65.5 459,-86.5"/>
<text text-anchor="middle" x="347" y="-73.5" font-family="Vera" font-size="10.00">imagen.patterngenerator.PatternGenerator</text>
</g>
<!-- imagen.patterngenerator.PatternGenerator&#45;&gt;topo.command.analysis.frequency_mapper -->
<g id="edge12" class="edge"><title>imagen.patterngenerator.PatternGenerator&#45;&gt;topo.command.analysis.frequency_mapper</title>
<path fill="none" stroke="black" stroke-width="0.5" d="M459.031,-79.5679C486.472,-80.4418 515.915,-81.3794 543.6,-82.2611"/>
<polygon fill="black" stroke="black" points="543.694,-84.0149 548.748,-82.4251 543.806,-80.5167 543.694,-84.0149"/>
</g>
<!-- topo.command.analysis.log_frequency_mapper -->
<g id="node46" class="node"><title>topo.command.analysis.log_frequency_mapper</title>
<polygon fill="none" stroke="black" stroke-width="0.5" points="783,-58.5 539,-58.5 539,-37.5 783,-37.5 783,-58.5"/>
<text text-anchor="middle" x="661" y="-45.5" font-family="Vera" font-size="10.00">topo.command.analysis.log_frequency_mapper</text>
</g>
<!-- imagen.patterngenerator.PatternGenerator&#45;&gt;topo.command.analysis.log_frequency_mapper -->
<g id="edge44" class="edge"><title>imagen.patterngenerator.PatternGenerator&#45;&gt;topo.command.analysis.log_frequency_mapper</title>
<path fill="none" stroke="black" stroke-width="0.5" d="M459.031,-66.0099C486.472,-63.563 515.915,-60.9375 543.6,-58.4688"/>
<polygon fill="black" stroke="black" points="543.923,-60.197 548.748,-58.0098 543.612,-56.7109 543.923,-60.197"/>
</g>
<!-- topo.command.analysis.latency_mapper -->
<g id="node48" class="node"><title>topo.command.analysis.latency_mapper</title>
<polygon fill="none" stroke="black" stroke-width="0.5" points="767,-20.5 555,-20.5 555,0.5 767,0.5 767,-20.5"/>
<text text-anchor="middle" x="661" y="-7.5" font-family="Vera" font-size="10.00">topo.command.analysis.latency_mapper</text>
</g>
<!-- imagen.patterngenerator.PatternGenerator&#45;&gt;topo.command.analysis.latency_mapper -->
<g id="edge46" class="edge"><title>imagen.patterngenerator.PatternGenerator&#45;&gt;topo.command.analysis.latency_mapper</title>
<path fill="none" stroke="black" stroke-width="0.5" d="M437.742,-65.9338C446.796,-63.553 455.7,-60.6177 464,-57 482.582,-48.9014 481.247,-36.6924 500,-29 515.575,-22.6113 532.661,-18.1708 549.701,-15.1168"/>
<polygon fill="black" stroke="black" points="550.353,-16.7808 554.987,-14.2129 549.763,-13.3309 550.353,-16.7808"/>
</g>
<!-- topo.command.analysis.measure_corner_or_pref -->
<g id="node22" class="node"><title>topo.command.analysis.measure_corner_or_pref</title>
<polygon fill="none" stroke="black" stroke-width="0.5" points="1855,-267.5 1603,-267.5 1603,-246.5 1855,-246.5 1855,-267.5"/>
<text text-anchor="middle" x="1729" y="-254.5" font-family="Vera" font-size="10.00">topo.command.analysis.measure_corner_or_pref</text>
</g>
<!-- topo.analysis.featureresponses.PositionMeasurementCommand&#45;&gt;topo.command.analysis.measure_corner_or_pref -->
<g id="edge18" class="edge"><title>topo.analysis.featureresponses.PositionMeasurementCommand&#45;&gt;topo.command.analysis.measure_corner_or_pref</title>
<path fill="none" stroke="black" stroke-width="0.5" d="M1542.24,-267.167C1560.87,-266.153 1579.69,-265.129 1597.84,-264.141"/>
<polygon fill="black" stroke="black" points="1598.04,-265.882 1602.94,-263.863 1597.85,-262.387 1598.04,-265.882"/>
</g>
<!-- topo.command.analysis.measure_corner_angle_pref -->
<g id="node35" class="node"><title>topo.command.analysis.measure_corner_angle_pref</title>
<polygon fill="none" stroke="black" stroke-width="0.5" points="1863,-229.5 1595,-229.5 1595,-208.5 1863,-208.5 1863,-229.5"/>
<text text-anchor="middle" x="1729" y="-216.5" font-family="Vera" font-size="10.00">topo.command.analysis.measure_corner_angle_pref</text>
</g>
<!-- topo.analysis.featureresponses.PositionMeasurementCommand&#45;&gt;topo.command.analysis.measure_corner_angle_pref -->
<g id="edge30" class="edge"><title>topo.analysis.featureresponses.PositionMeasurementCommand&#45;&gt;topo.command.analysis.measure_corner_angle_pref</title>
<path fill="none" stroke="black" stroke-width="0.5" d="M1520.93,-265.991C1533.59,-263.583 1546.11,-260.626 1558,-257 1575.3,-251.723 1576.79,-243.566 1594,-238 1603.68,-234.871 1613.91,-232.257 1624.24,-230.074"/>
<polygon fill="black" stroke="black" points="1624.76,-231.752 1629.31,-229.036 1624.06,-228.323 1624.76,-231.752"/>
</g>
<!-- topo.command.analysis.update_projection -->
<g id="node19" class="node"><title>topo.command.analysis.update_projection</title>
<polygon fill="none" stroke="black" stroke-width="0.5" points="1490,-172.5 1270,-172.5 1270,-151.5 1490,-151.5 1490,-172.5"/>
<text text-anchor="middle" x="1380" y="-159.5" font-family="Vera" font-size="10.00">topo.command.analysis.update_projection</text>
</g>
<!-- topo.plotting.plotgroup.UnitMeasurementCommand -->
<g id="node20" class="node"><title>topo.plotting.plotgroup.UnitMeasurementCommand</title>
<polygon fill="none" stroke="black" stroke-width="0.5" points="1145,-172.5 879,-172.5 879,-151.5 1145,-151.5 1145,-172.5"/>
<text text-anchor="middle" x="1012" y="-159.5" font-family="Vera" font-size="10.00">topo.plotting.plotgroup.UnitMeasurementCommand</text>
</g>
<!-- topo.plotting.plotgroup.UnitMeasurementCommand&#45;&gt;topo.command.analysis.update_projection -->
<g id="edge16" class="edge"><title>topo.plotting.plotgroup.UnitMeasurementCommand&#45;&gt;topo.command.analysis.update_projection</title>
<path fill="none" stroke="black" stroke-width="0.5" d="M1145.12,-162C1184.11,-162 1226.42,-162 1264.24,-162"/>
<polygon fill="black" stroke="black" points="1264.3,-163.75 1269.3,-162 1264.3,-160.25 1264.3,-163.75"/>
</g>
<!-- topo.command.analysis.update_connectionfields -->
<g id="node25" class="node"><title>topo.command.analysis.update_connectionfields</title>
<polygon fill="none" stroke="black" stroke-width="0.5" points="1505,-134.5 1255,-134.5 1255,-113.5 1505,-113.5 1505,-134.5"/>
<text text-anchor="middle" x="1380" y="-121.5" font-family="Vera" font-size="10.00">topo.command.analysis.update_connectionfields</text>
</g>
<!-- topo.plotting.plotgroup.UnitMeasurementCommand&#45;&gt;topo.command.analysis.update_connectionfields -->
<g id="edge20" class="edge"><title>topo.plotting.plotgroup.UnitMeasurementCommand&#45;&gt;topo.command.analysis.update_connectionfields</title>
<path fill="none" stroke="black" stroke-width="0.5" d="M1109.17,-151.966C1161.15,-146.598 1225.14,-139.991 1277.86,-134.547"/>
<polygon fill="black" stroke="black" points="1278.13,-136.278 1282.93,-134.024 1277.77,-132.797 1278.13,-136.278"/>
</g>
<!-- param.parameterized.Parameterized -->
<g id="node24" class="node"><title>param.parameterized.Parameterized</title>
<polygon fill="none" stroke="black" stroke-width="0.5" points="194,-86.5 5.68434e-14,-86.5 0,-65.5 194,-65.5 194,-86.5"/>
<text text-anchor="middle" x="97" y="-73.5" font-family="Vera" font-size="10.00">param.parameterized.Parameterized</text>
</g>
<!-- param.parameterized.Parameterized&#45;&gt;param.parameterized.ParameterizedFunction -->
<g id="edge28" class="edge"><title>param.parameterized.Parameterized&#45;&gt;param.parameterized.ParameterizedFunction</title>
<path fill="none" stroke="black" stroke-width="0.5" d="M141.12,-86.0592C185.075,-96.0811 252.414,-111.434 298.007,-121.83"/>
<polygon fill="black" stroke="black" points="297.638,-123.54 302.902,-122.946 298.416,-120.128 297.638,-123.54"/>
</g>
<!-- param.parameterized.Parameterized&#45;&gt;imagen.patterngenerator.PatternGenerator -->
<g id="edge52" class="edge"><title>param.parameterized.Parameterized&#45;&gt;imagen.patterngenerator.PatternGenerator</title>
<path fill="none" stroke="black" stroke-width="0.5" d="M194.014,-76C205.664,-76 217.655,-76 229.554,-76"/>
<polygon fill="black" stroke="black" points="229.647,-77.7501 234.647,-76 229.647,-74.2501 229.647,-77.7501"/>
</g>
<!-- topo.command.analysis.PatternPresenter2 -->
<g id="node55" class="node"><title>topo.command.analysis.PatternPresenter2</title>
<polygon fill="none" stroke="black" stroke-width="0.5" points="457,-48.5 237,-48.5 237,-27.5 457,-27.5 457,-48.5"/>
<text text-anchor="middle" x="347" y="-35.5" font-family="Vera" font-size="10.00">topo.command.analysis.PatternPresenter2</text>
</g>
<!-- param.parameterized.Parameterized&#45;&gt;topo.command.analysis.PatternPresenter2 -->
<g id="edge54" class="edge"><title>param.parameterized.Parameterized&#45;&gt;topo.command.analysis.PatternPresenter2</title>
<path fill="none" stroke="black" stroke-width="0.5" d="M163.012,-65.9662C197.758,-60.6848 240.394,-54.204 275.872,-48.8115"/>
<polygon fill="black" stroke="black" points="276.372,-50.5056 281.052,-48.024 275.846,-47.0454 276.372,-50.5056"/>
</g>
<!-- topo.command.analysis.update_projectionactivity -->
<g id="node31" class="node"><title>topo.command.analysis.update_projectionactivity</title>
<polygon fill="none" stroke="black" stroke-width="0.5" points="1139,-134.5 885,-134.5 885,-113.5 1139,-113.5 1139,-134.5"/>
<text text-anchor="middle" x="1012" y="-121.5" font-family="Vera" font-size="10.00">topo.command.analysis.update_projectionactivity</text>
</g>
<!-- topo.plotting.plotgroup.ProjectionSheetMeasurementCommand&#45;&gt;topo.plotting.plotgroup.UnitMeasurementCommand -->
<g id="edge32" class="edge"><title>topo.plotting.plotgroup.ProjectionSheetMeasurementCommand&#45;&gt;topo.plotting.plotgroup.UnitMeasurementCommand</title>
<path fill="none" stroke="black" stroke-width="0.5" d="M822.118,-162C839.348,-162 856.765,-162 873.698,-162"/>
<polygon fill="black" stroke="black" points="873.936,-163.75 878.936,-162 873.936,-160.25 873.936,-163.75"/>
</g>
<!-- topo.plotting.plotgroup.ProjectionSheetMeasurementCommand&#45;&gt;topo.command.analysis.update_projectionactivity -->
<g id="edge26" class="edge"><title>topo.plotting.plotgroup.ProjectionSheetMeasurementCommand&#45;&gt;topo.command.analysis.update_projectionactivity</title>
<path fill="none" stroke="black" stroke-width="0.5" d="M753.68,-151.966C803.164,-146.609 864.045,-140.018 914.273,-134.58"/>
<polygon fill="black" stroke="black" points="914.627,-136.302 919.409,-134.024 914.25,-132.822 914.627,-136.302"/>
</g>
<!-- topo.command.analysis.measure_rfs -->
<g id="node51" class="node"><title>topo.command.analysis.measure_rfs</title>
<polygon fill="none" stroke="black" stroke-width="0.5" points="1826,-191.5 1632,-191.5 1632,-170.5 1826,-170.5 1826,-191.5"/>
<text text-anchor="middle" x="1729" y="-178.5" font-family="Vera" font-size="10.00">topo.command.analysis.measure_rfs</text>
</g>
<!-- topo.analysis.featureresponses.SingleInputResponseCommand&#45;&gt;topo.command.analysis.measure_rfs -->
<g id="edge50" class="edge"><title>topo.analysis.featureresponses.SingleInputResponseCommand&#45;&gt;topo.command.analysis.measure_rfs</title>
<path fill="none" stroke="black" stroke-width="0.5" d="M1539.69,-191.306C1569.26,-189.696 1599.4,-188.056 1626.68,-186.57"/>
<polygon fill="black" stroke="black" points="1626.85,-188.314 1631.74,-186.295 1626.66,-184.819 1626.85,-188.314"/>
</g>
</g>
</svg>
