<?xml version="1.0" encoding="UTF-8" standalone="no"?>
<!DOCTYPE svg PUBLIC "-//W3C//DTD SVG 1.1//EN"
 "http://www.w3.org/Graphics/SVG/1.1/DTD/svg11.dtd">
<!-- Generated by graphviz version 2.26.3 (20100126.1600)
 -->
<!-- Title: inheritance97c36bc686 Pages: 1 -->
<svg width="2280pt" height="170pt"
 viewBox="0.00 0.00 2280.00 170.00" xmlns="http://www.w3.org/2000/svg" xmlns:xlink="http://www.w3.org/1999/xlink">
<g id="graph1" class="graph" transform="scale(1 1) rotate(0) translate(4 166)">
<title>inheritance97c36bc686</title>
<polygon fill="white" stroke="white" points="-4,5 -4,-166 2277,-166 2277,5 -4,5"/>
<!-- topo.plotting.plotgroup.ConnectionFieldsPlotGroup -->
<g id="node1" class="node"><title>topo.plotting.plotgroup.ConnectionFieldsPlotGroup</title>
<polygon fill="none" stroke="black" stroke-width="0.5" points="1999,-162.5 1743,-162.5 1743,-141.5 1999,-141.5 1999,-162.5"/>
<text text-anchor="middle" x="1871" y="-149.5" font-family="Vera" font-size="10.00">topo.plotting.plotgroup.ConnectionFieldsPlotGroup</text>
</g>
<!-- topo.plotting.plotgroup.UnitPlotGroup -->
<g id="node2" class="node"><title>topo.plotting.plotgroup.UnitPlotGroup</title>
<polygon fill="none" stroke="black" stroke-width="0.5" points="1675,-134.5 1479,-134.5 1479,-113.5 1675,-113.5 1675,-134.5"/>
<text text-anchor="middle" x="1577" y="-121.5" font-family="Vera" font-size="10.00">topo.plotting.plotgroup.UnitPlotGroup</text>
</g>
<!-- topo.plotting.plotgroup.UnitPlotGroup&#45;&gt;topo.plotting.plotgroup.ConnectionFieldsPlotGroup -->
<g id="edge2" class="edge"><title>topo.plotting.plotgroup.UnitPlotGroup&#45;&gt;topo.plotting.plotgroup.ConnectionFieldsPlotGroup</title>
<path fill="none" stroke="black" stroke-width="0.5" d="M1675.31,-133.363C1702.73,-135.974 1732.7,-138.829 1760.76,-141.501"/>
<polygon fill="black" stroke="black" points="1760.83,-143.266 1765.98,-141.998 1761.17,-139.782 1760.83,-143.266"/>
</g>
<!-- topo.plotting.plotgroup.FeatureCurvePlotGroup -->
<g id="node20" class="node"><title>topo.plotting.plotgroup.FeatureCurvePlotGroup</title>
<polygon fill="none" stroke="black" stroke-width="0.5" points="1991,-124.5 1751,-124.5 1751,-103.5 1991,-103.5 1991,-124.5"/>
<text text-anchor="middle" x="1871" y="-111.5" font-family="Vera" font-size="10.00">topo.plotting.plotgroup.FeatureCurvePlotGroup</text>
</g>
<!-- topo.plotting.plotgroup.UnitPlotGroup&#45;&gt;topo.plotting.plotgroup.FeatureCurvePlotGroup -->
<g id="edge20" class="edge"><title>topo.plotting.plotgroup.UnitPlotGroup&#45;&gt;topo.plotting.plotgroup.FeatureCurvePlotGroup</title>
<path fill="none" stroke="black" stroke-width="0.5" d="M1675.31,-120.656C1697.9,-119.888 1722.23,-119.06 1745.8,-118.259"/>
<polygon fill="black" stroke="black" points="1745.87,-120.007 1750.81,-118.088 1745.76,-116.509 1745.87,-120.007"/>
</g>
<!-- topo.plotting.plotgroup.ProjectionSheetPlotGroup -->
<g id="node4" class="node"><title>topo.plotting.plotgroup.ProjectionSheetPlotGroup</title>
<polygon fill="none" stroke="black" stroke-width="0.5" points="1412,-96.5 1160,-96.5 1160,-75.5 1412,-75.5 1412,-96.5"/>
<text text-anchor="middle" x="1286" y="-83.5" font-family="Vera" font-size="10.00">topo.plotting.plotgroup.ProjectionSheetPlotGroup</text>
</g>
<!-- topo.plotting.plotgroup.ProjectionSheetPlotGroup&#45;&gt;topo.plotting.plotgroup.UnitPlotGroup -->
<g id="edge6" class="edge"><title>topo.plotting.plotgroup.ProjectionSheetPlotGroup&#45;&gt;topo.plotting.plotgroup.UnitPlotGroup</title>
<path fill="none" stroke="black" stroke-width="0.5" d="M1362.84,-96.0338C1403.61,-101.358 1453.73,-107.902 1495.22,-113.321"/>
<polygon fill="black" stroke="black" points="1495.05,-115.064 1500.24,-113.976 1495.51,-111.593 1495.05,-115.064"/>
</g>
<!-- topo.plotting.plotgroup.ProjectionActivityPlotGroup -->
<g id="node22" class="node"><title>topo.plotting.plotgroup.ProjectionActivityPlotGroup</title>
<polygon fill="none" stroke="black" stroke-width="0.5" points="1706,-96.5 1448,-96.5 1448,-75.5 1706,-75.5 1706,-96.5"/>
<text text-anchor="middle" x="1577" y="-83.5" font-family="Vera" font-size="10.00">topo.plotting.plotgroup.ProjectionActivityPlotGroup</text>
</g>
<!-- topo.plotting.plotgroup.ProjectionSheetPlotGroup&#45;&gt;topo.plotting.plotgroup.ProjectionActivityPlotGroup -->
<g id="edge22" class="edge"><title>topo.plotting.plotgroup.ProjectionSheetPlotGroup&#45;&gt;topo.plotting.plotgroup.ProjectionActivityPlotGroup</title>
<path fill="none" stroke="black" stroke-width="0.5" d="M1412.37,-86C1422.52,-86 1432.79,-86 1442.99,-86"/>
<polygon fill="black" stroke="black" points="1442.99,-87.7501 1447.99,-86 1442.99,-84.2501 1442.99,-87.7501"/>
</g>
<!-- topo.plotting.plotgroup.GridPlotGroup -->
<g id="node25" class="node"><title>topo.plotting.plotgroup.GridPlotGroup</title>
<polygon fill="none" stroke="black" stroke-width="0.5" points="1675,-58.5 1479,-58.5 1479,-37.5 1675,-37.5 1675,-58.5"/>
<text text-anchor="middle" x="1577" y="-45.5" font-family="Vera" font-size="10.00">topo.plotting.plotgroup.GridPlotGroup</text>
</g>
<!-- topo.plotting.plotgroup.ProjectionSheetPlotGroup&#45;&gt;topo.plotting.plotgroup.GridPlotGroup -->
<g id="edge32" class="edge"><title>topo.plotting.plotgroup.ProjectionSheetPlotGroup&#45;&gt;topo.plotting.plotgroup.GridPlotGroup</title>
<path fill="none" stroke="black" stroke-width="0.5" d="M1362.84,-75.9662C1403.61,-70.6415 1453.73,-64.0977 1495.22,-58.6791"/>
<polygon fill="black" stroke="black" points="1495.51,-60.4068 1500.24,-58.024 1495.05,-56.9363 1495.51,-60.4068"/>
</g>
<!-- topo.plotting.plotgroup.TemplatePlotGroup -->
<g id="node5" class="node"><title>topo.plotting.plotgroup.TemplatePlotGroup</title>
<polygon fill="none" stroke="black" stroke-width="0.5" points="1101,-58.5 881,-58.5 881,-37.5 1101,-37.5 1101,-58.5"/>
<text text-anchor="middle" x="991" y="-45.5" font-family="Vera" font-size="10.00">topo.plotting.plotgroup.TemplatePlotGroup</text>
</g>
<!-- topo.plotting.plotgroup.TemplatePlotGroup&#45;&gt;topo.plotting.plotgroup.ProjectionSheetPlotGroup -->
<g id="edge4" class="edge"><title>topo.plotting.plotgroup.TemplatePlotGroup&#45;&gt;topo.plotting.plotgroup.ProjectionSheetPlotGroup</title>
<path fill="none" stroke="black" stroke-width="0.5" d="M1068.89,-58.0338C1110.23,-63.3585 1161.03,-69.9023 1203.1,-75.3209"/>
<polygon fill="black" stroke="black" points="1203,-77.0727 1208.18,-75.976 1203.45,-73.6014 1203,-77.0727"/>
</g>
<!-- topo.plotting.plotgroup.RetinotopyPlotGroup -->
<g id="node13" class="node"><title>topo.plotting.plotgroup.RetinotopyPlotGroup</title>
<polygon fill="none" stroke="black" stroke-width="0.5" points="1399,-58.5 1173,-58.5 1173,-37.5 1399,-37.5 1399,-58.5"/>
<text text-anchor="middle" x="1286" y="-45.5" font-family="Vera" font-size="10.00">topo.plotting.plotgroup.RetinotopyPlotGroup</text>
</g>
<!-- topo.plotting.plotgroup.TemplatePlotGroup&#45;&gt;topo.plotting.plotgroup.RetinotopyPlotGroup -->
<g id="edge12" class="edge"><title>topo.plotting.plotgroup.TemplatePlotGroup&#45;&gt;topo.plotting.plotgroup.RetinotopyPlotGroup</title>
<path fill="none" stroke="black" stroke-width="0.5" d="M1101.27,-48C1122.78,-48 1145.43,-48 1167.2,-48"/>
<polygon fill="black" stroke="black" points="1167.42,-49.7501 1172.42,-48 1167.42,-46.2501 1167.42,-49.7501"/>
</g>
<!-- topo.plotting.plotgroup.TwoOrientationsPlotGroup -->
<g id="node34" class="node"><title>topo.plotting.plotgroup.TwoOrientationsPlotGroup</title>
<polygon fill="none" stroke="black" stroke-width="0.5" points="1411,-20.5 1161,-20.5 1161,0.5 1411,0.5 1411,-20.5"/>
<text text-anchor="middle" x="1286" y="-7.5" font-family="Vera" font-size="10.00">topo.plotting.plotgroup.TwoOrientationsPlotGroup</text>
</g>
<!-- topo.plotting.plotgroup.TemplatePlotGroup&#45;&gt;topo.plotting.plotgroup.TwoOrientationsPlotGroup -->
<g id="edge34" class="edge"><title>topo.plotting.plotgroup.TemplatePlotGroup&#45;&gt;topo.plotting.plotgroup.TwoOrientationsPlotGroup</title>
<path fill="none" stroke="black" stroke-width="0.5" d="M1068.89,-37.9662C1110.23,-32.6415 1161.03,-26.0977 1203.1,-20.6791"/>
<polygon fill="black" stroke="black" points="1203.45,-22.3986 1208.18,-20.024 1203,-18.9273 1203.45,-22.3986"/>
</g>
<!-- param.parameterized.Parameterized -->
<g id="node8" class="node"><title>param.parameterized.Parameterized</title>
<polygon fill="none" stroke="black" stroke-width="0.5" points="194,-39.5 5.68434e-14,-39.5 0,-18.5 194,-18.5 194,-39.5"/>
<text text-anchor="middle" x="97" y="-26.5" font-family="Vera" font-size="10.00">param.parameterized.Parameterized</text>
</g>
<!-- topo.plotting.plotgroup.PlotGroup -->
<g id="node11" class="node"><title>topo.plotting.plotgroup.PlotGroup</title>
<polygon fill="none" stroke="black" stroke-width="0.5" points="435,-58.5 259,-58.5 259,-37.5 435,-37.5 435,-58.5"/>
<text text-anchor="middle" x="347" y="-45.5" font-family="Vera" font-size="10.00">topo.plotting.plotgroup.PlotGroup</text>
</g>
<!-- param.parameterized.Parameterized&#45;&gt;topo.plotting.plotgroup.PlotGroup -->
<g id="edge10" class="edge"><title>param.parameterized.Parameterized&#45;&gt;topo.plotting.plotgroup.PlotGroup</title>
<path fill="none" stroke="black" stroke-width="0.5" d="M194.014,-36.3731C213.46,-37.851 233.859,-39.4013 253.193,-40.8707"/>
<polygon fill="black" stroke="black" points="253.499,-42.6489 258.617,-41.2829 253.764,-39.1589 253.499,-42.6489"/>
</g>
<!-- param.parameterized.ParameterizedFunction -->
<g id="node16" class="node"><title>param.parameterized.ParameterizedFunction</title>
<polygon fill="none" stroke="black" stroke-width="0.5" points="464,-20.5 230,-20.5 230,0.5 464,0.5 464,-20.5"/>
<text text-anchor="middle" x="347" y="-7.5" font-family="Vera" font-size="10.00">param.parameterized.ParameterizedFunction</text>
</g>
<!-- param.parameterized.Parameterized&#45;&gt;param.parameterized.ParameterizedFunction -->
<g id="edge16" class="edge"><title>param.parameterized.Parameterized&#45;&gt;param.parameterized.ParameterizedFunction</title>
<path fill="none" stroke="black" stroke-width="0.5" d="M194.014,-21.6269C204.04,-20.8649 214.319,-20.0837 224.575,-19.3043"/>
<polygon fill="black" stroke="black" points="224.754,-21.0458 229.607,-18.9219 224.489,-17.5559 224.754,-21.0458"/>
</g>
<!-- topo.plotting.plotgroup.SheetPlotGroup -->
<g id="node9" class="node"><title>topo.plotting.plotgroup.SheetPlotGroup</title>
<polygon fill="none" stroke="black" stroke-width="0.5" points="763,-58.5 559,-58.5 559,-37.5 763,-37.5 763,-58.5"/>
<text text-anchor="middle" x="661" y="-45.5" font-family="Vera" font-size="10.00">topo.plotting.plotgroup.SheetPlotGroup</text>
</g>
<!-- topo.plotting.plotgroup.SheetPlotGroup&#45;&gt;topo.plotting.plotgroup.TemplatePlotGroup -->
<g id="edge8" class="edge"><title>topo.plotting.plotgroup.SheetPlotGroup&#45;&gt;topo.plotting.plotgroup.TemplatePlotGroup</title>
<path fill="none" stroke="black" stroke-width="0.5" d="M763.605,-48C799.041,-48 838.979,-48 875.385,-48"/>
<polygon fill="black" stroke="black" points="875.73,-49.7501 880.729,-48 875.729,-46.2501 875.73,-49.7501"/>
</g>
<!-- topo.plotting.plotgroup.PlotGroup&#45;&gt;topo.plotting.plotgroup.SheetPlotGroup -->
<g id="edge14" class="edge"><title>topo.plotting.plotgroup.PlotGroup&#45;&gt;topo.plotting.plotgroup.SheetPlotGroup</title>
<path fill="none" stroke="black" stroke-width="0.5" d="M435.302,-48C471.932,-48 514.775,-48 553.234,-48"/>
<polygon fill="black" stroke="black" points="553.387,-49.7501 558.387,-48 553.387,-46.2501 553.387,-49.7501"/>
</g>
<!-- topo.plotting.plotgroup.ProjectionSheetMeasurementCommand -->
<g id="node18" class="node"><title>topo.plotting.plotgroup.ProjectionSheetMeasurementCommand</title>
<polygon fill="none" stroke="black" stroke-width="0.5" points="822,-20.5 500,-20.5 500,0.5 822,0.5 822,-20.5"/>
<text text-anchor="middle" x="661" y="-7.5" font-family="Vera" font-size="10.00">topo.plotting.plotgroup.ProjectionSheetMeasurementCommand</text>
</g>
<!-- param.parameterized.ParameterizedFunction&#45;&gt;topo.plotting.plotgroup.ProjectionSheetMeasurementCommand -->
<g id="edge18" class="edge"><title>param.parameterized.ParameterizedFunction&#45;&gt;topo.plotting.plotgroup.ProjectionSheetMeasurementCommand</title>
<path fill="none" stroke="black" stroke-width="0.5" d="M464.369,-10C474.323,-10 484.506,-10 494.741,-10"/>
<polygon fill="black" stroke="black" points="494.769,-11.7501 499.769,-10 494.769,-8.2501 494.769,-11.7501"/>
</g>
<!-- topo.plotting.plotgroup.UnitMeasurementCommand -->
<g id="node29" class="node"><title>topo.plotting.plotgroup.UnitMeasurementCommand</title>
<polygon fill="none" stroke="black" stroke-width="0.5" points="1124,-20.5 858,-20.5 858,0.5 1124,0.5 1124,-20.5"/>
<text text-anchor="middle" x="991" y="-7.5" font-family="Vera" font-size="10.00">topo.plotting.plotgroup.UnitMeasurementCommand</text>
</g>
<!-- topo.plotting.plotgroup.ProjectionSheetMeasurementCommand&#45;&gt;topo.plotting.plotgroup.UnitMeasurementCommand -->
<g id="edge28" class="edge"><title>topo.plotting.plotgroup.ProjectionSheetMeasurementCommand&#45;&gt;topo.plotting.plotgroup.UnitMeasurementCommand</title>
<path fill="none" stroke="black" stroke-width="0.5" d="M822.133,-10C832.304,-10 842.494,-10 852.549,-10"/>
<polygon fill="black" stroke="black" points="852.794,-11.7501 857.794,-10 852.794,-8.2501 852.794,-11.7501"/>
</g>
<!-- topo.plotting.plotgroup.ProjectionPlotGroup -->
<g id="node24" class="node"><title>topo.plotting.plotgroup.ProjectionPlotGroup</title>
<polygon fill="none" stroke="black" stroke-width="0.5" points="1983,-77.5 1759,-77.5 1759,-56.5 1983,-56.5 1983,-77.5"/>
<text text-anchor="middle" x="1871" y="-64.5" font-family="Vera" font-size="10.00">topo.plotting.plotgroup.ProjectionPlotGroup</text>
</g>
<!-- topo.plotting.plotgroup.CFProjectionPlotGroup -->
<g id="node27" class="node"><title>topo.plotting.plotgroup.CFProjectionPlotGroup</title>
<polygon fill="none" stroke="black" stroke-width="0.5" points="2272,-77.5 2036,-77.5 2036,-56.5 2272,-56.5 2272,-77.5"/>
<text text-anchor="middle" x="2154" y="-64.5" font-family="Vera" font-size="10.00">topo.plotting.plotgroup.CFProjectionPlotGroup</text>
</g>
<!-- topo.plotting.plotgroup.ProjectionPlotGroup&#45;&gt;topo.plotting.plotgroup.CFProjectionPlotGroup -->
<g id="edge26" class="edge"><title>topo.plotting.plotgroup.ProjectionPlotGroup&#45;&gt;topo.plotting.plotgroup.CFProjectionPlotGroup</title>
<path fill="none" stroke="black" stroke-width="0.5" d="M1983.26,-67C1998.78,-67 2014.8,-67 2030.52,-67"/>
<polygon fill="black" stroke="black" points="2030.84,-68.7501 2035.84,-67 2030.84,-65.2501 2030.84,-68.7501"/>
</g>
<!-- topo.plotting.plotgroup.GridPlotGroup&#45;&gt;topo.plotting.plotgroup.ProjectionPlotGroup -->
<g id="edge24" class="edge"><title>topo.plotting.plotgroup.GridPlotGroup&#45;&gt;topo.plotting.plotgroup.ProjectionPlotGroup</title>
<path fill="none" stroke="black" stroke-width="0.5" d="M1675.31,-54.3531C1700.42,-55.9764 1727.68,-57.7378 1753.65,-59.416"/>
<polygon fill="black" stroke="black" points="1753.72,-61.1743 1758.82,-59.7505 1753.95,-57.6816 1753.72,-61.1743"/>
</g>
<!-- topo.plotting.plotgroup.RFProjectionPlotGroup -->
<g id="node31" class="node"><title>topo.plotting.plotgroup.RFProjectionPlotGroup</title>
<polygon fill="none" stroke="black" stroke-width="0.5" points="1988,-39.5 1754,-39.5 1754,-18.5 1988,-18.5 1988,-39.5"/>
<text text-anchor="middle" x="1871" y="-26.5" font-family="Vera" font-size="10.00">topo.plotting.plotgroup.RFProjectionPlotGroup</text>
</g>
<!-- topo.plotting.plotgroup.GridPlotGroup&#45;&gt;topo.plotting.plotgroup.RFProjectionPlotGroup -->
<g id="edge30" class="edge"><title>topo.plotting.plotgroup.GridPlotGroup&#45;&gt;topo.plotting.plotgroup.RFProjectionPlotGroup</title>
<path fill="none" stroke="black" stroke-width="0.5" d="M1675.31,-41.6469C1698.68,-40.1361 1723.91,-38.5057 1748.23,-36.9341"/>
<polygon fill="black" stroke="black" points="1748.53,-38.6686 1753.41,-36.5996 1748.3,-35.1758 1748.53,-38.6686"/>
</g>
</g>
</svg>
