<?xml version="1.0" encoding="UTF-8" standalone="no"?>
<!DOCTYPE svg PUBLIC "-//W3C//DTD SVG 1.1//EN"
 "http://www.w3.org/Graphics/SVG/1.1/DTD/svg11.dtd">
<!-- Generated by graphviz version 2.26.3 (20100126.1600)
 -->
<!-- Title: inheritance52f2812edd Pages: 1 -->
<svg width="1516pt" height="218pt"
 viewBox="0.00 0.00 1516.00 218.00" xmlns="http://www.w3.org/2000/svg" xmlns:xlink="http://www.w3.org/1999/xlink">
<g id="graph1" class="graph" transform="scale(1 1) rotate(0) translate(4 214)">
<title>inheritance52f2812edd</title>
<polygon fill="white" stroke="white" points="-4,5 -4,-214 1513,-214 1513,5 -4,5"/>
<!-- topo.plotting.plotgroup.PlotGroup -->
<g id="node1" class="node"><title>topo.plotting.plotgroup.PlotGroup</title>
<polygon fill="none" stroke="black" stroke-width="0.5" points="514,-210.5 338,-210.5 338,-189.5 514,-189.5 514,-210.5"/>
<text text-anchor="middle" x="426" y="-197.5" font-family="Vera" font-size="10.00">topo.plotting.plotgroup.PlotGroup</text>
</g>
<!-- topo.plotting.plotgroup.SheetPlotGroup -->
<g id="node4" class="node"><title>topo.plotting.plotgroup.SheetPlotGroup</title>
<polygon fill="none" stroke="black" stroke-width="0.5" points="755,-210.5 551,-210.5 551,-189.5 755,-189.5 755,-210.5"/>
<text text-anchor="middle" x="653" y="-197.5" font-family="Vera" font-size="10.00">topo.plotting.plotgroup.SheetPlotGroup</text>
</g>
<!-- topo.plotting.plotgroup.PlotGroup&#45;&gt;topo.plotting.plotgroup.SheetPlotGroup -->
<g id="edge4" class="edge"><title>topo.plotting.plotgroup.PlotGroup&#45;&gt;topo.plotting.plotgroup.SheetPlotGroup</title>
<path fill="none" stroke="black" stroke-width="0.5" d="M514.089,-200C524.264,-200 534.725,-200 545.124,-200"/>
<polygon fill="black" stroke="black" points="545.222,-201.75 550.222,-200 545.222,-198.25 545.222,-201.75"/>
</g>
<!-- param.parameterized.Parameterized -->
<g id="node2" class="node"><title>param.parameterized.Parameterized</title>
<polygon fill="none" stroke="black" stroke-width="0.5" points="302,-172.5 108,-172.5 108,-151.5 302,-151.5 302,-172.5"/>
<text text-anchor="middle" x="205" y="-159.5" font-family="Vera" font-size="10.00">param.parameterized.Parameterized</text>
</g>
<!-- param.parameterized.Parameterized&#45;&gt;topo.plotting.plotgroup.PlotGroup -->
<g id="edge2" class="edge"><title>param.parameterized.Parameterized&#45;&gt;topo.plotting.plotgroup.PlotGroup</title>
<path fill="none" stroke="black" stroke-width="0.5" d="M263.354,-172.034C293.944,-177.294 331.452,-183.743 362.737,-189.122"/>
<polygon fill="black" stroke="black" points="362.478,-190.853 367.702,-189.976 363.071,-187.404 362.478,-190.853"/>
</g>
<!-- topo.base.functionfamily.PatternDrivenAnalysis -->
<g id="node9" class="node"><title>topo.base.functionfamily.PatternDrivenAnalysis</title>
<polygon fill="none" stroke="black" stroke-width="0.5" points="1294,-172.5 1054,-172.5 1054,-151.5 1294,-151.5 1294,-172.5"/>
<text text-anchor="middle" x="1174" y="-159.5" font-family="Vera" font-size="10.00">topo.base.functionfamily.PatternDrivenAnalysis</text>
</g>
<!-- param.parameterized.Parameterized&#45;&gt;topo.base.functionfamily.PatternDrivenAnalysis -->
<g id="edge22" class="edge"><title>param.parameterized.Parameterized&#45;&gt;topo.base.functionfamily.PatternDrivenAnalysis</title>
<path fill="none" stroke="black" stroke-width="0.5" d="M302.348,-162C479.195,-162 852.97,-162 1048.62,-162"/>
<polygon fill="black" stroke="black" points="1048.78,-163.75 1053.78,-162 1048.78,-160.25 1048.78,-163.75"/>
</g>
<!-- paramtk.TkParameterizedBase -->
<g id="node21" class="node"><title>paramtk.TkParameterizedBase</title>
<polygon fill="none" stroke="black" stroke-width="0.5" points="508,-134.5 344,-134.5 344,-113.5 508,-113.5 508,-134.5"/>
<text text-anchor="middle" x="426" y="-121.5" font-family="Vera" font-size="10.00">paramtk.TkParameterizedBase</text>
</g>
<!-- param.parameterized.Parameterized&#45;&gt;paramtk.TkParameterizedBase -->
<g id="edge18" class="edge"><title>param.parameterized.Parameterized&#45;&gt;paramtk.TkParameterizedBase</title>
<path fill="none" stroke="black" stroke-width="0.5" d="M263.354,-151.966C293.944,-146.706 331.452,-140.257 362.737,-134.878"/>
<polygon fill="black" stroke="black" points="363.071,-136.596 367.702,-134.024 362.478,-133.147 363.071,-136.596"/>
</g>
<!-- topo.tkgui.testpattern.TestPatternPlotGroup -->
<g id="node26" class="node"><title>topo.tkgui.testpattern.TestPatternPlotGroup</title>
<polygon fill="none" stroke="black" stroke-width="0.5" points="1017,-210.5 793,-210.5 793,-189.5 1017,-189.5 1017,-210.5"/>
<text text-anchor="middle" x="905" y="-197.5" font-family="Vera" font-size="10.00">topo.tkgui.testpattern.TestPatternPlotGroup</text>
</g>
<!-- topo.plotting.plotgroup.SheetPlotGroup&#45;&gt;topo.tkgui.testpattern.TestPatternPlotGroup -->
<g id="edge24" class="edge"><title>topo.plotting.plotgroup.SheetPlotGroup&#45;&gt;topo.tkgui.testpattern.TestPatternPlotGroup</title>
<path fill="none" stroke="black" stroke-width="0.5" d="M755.862,-200C766.154,-200 776.659,-200 787.09,-200"/>
<polygon fill="black" stroke="black" points="787.204,-201.75 792.204,-200 787.204,-198.25 787.204,-201.75"/>
</g>
<!-- topo.tkgui.testpattern.TestPattern -->
<g id="node6" class="node"><title>topo.tkgui.testpattern.TestPattern</title>
<polygon fill="none" stroke="black" stroke-width="0.5" points="1508,-153.5 1330,-153.5 1330,-132.5 1508,-132.5 1508,-153.5"/>
<text text-anchor="middle" x="1419" y="-140.5" font-family="Vera" font-size="10.00">topo.tkgui.testpattern.TestPattern</text>
</g>
<!-- topo.tkgui.plotgrouppanel.SheetPanel -->
<g id="node7" class="node"><title>topo.tkgui.plotgrouppanel.SheetPanel</title>
<polygon fill="none" stroke="black" stroke-width="0.5" points="1272,-134.5 1076,-134.5 1076,-113.5 1272,-113.5 1272,-134.5"/>
<text text-anchor="middle" x="1174" y="-121.5" font-family="Vera" font-size="10.00">topo.tkgui.plotgrouppanel.SheetPanel</text>
</g>
<!-- topo.tkgui.plotgrouppanel.SheetPanel&#45;&gt;topo.tkgui.testpattern.TestPattern -->
<g id="edge6" class="edge"><title>topo.tkgui.plotgrouppanel.SheetPanel&#45;&gt;topo.tkgui.testpattern.TestPattern</title>
<path fill="none" stroke="black" stroke-width="0.5" d="M1272.59,-131.646C1289.7,-132.973 1307.46,-134.35 1324.46,-135.668"/>
<polygon fill="black" stroke="black" points="1324.59,-137.434 1329.71,-136.076 1324.86,-133.944 1324.59,-137.434"/>
</g>
<!-- topo.base.functionfamily.PatternDrivenAnalysis&#45;&gt;topo.tkgui.testpattern.TestPattern -->
<g id="edge8" class="edge"><title>topo.base.functionfamily.PatternDrivenAnalysis&#45;&gt;topo.tkgui.testpattern.TestPattern</title>
<path fill="none" stroke="black" stroke-width="0.5" d="M1294.35,-152.667C1304.55,-151.876 1314.77,-151.083 1324.73,-150.311"/>
<polygon fill="black" stroke="black" points="1325.06,-152.04 1329.91,-149.909 1324.79,-148.551 1325.06,-152.04"/>
</g>
<!-- Tkinter.Frame -->
<g id="node11" class="node"><title>Tkinter.Frame</title>
<polygon fill="none" stroke="black" stroke-width="0.5" points="693,-96.5 613,-96.5 613,-75.5 693,-75.5 693,-96.5"/>
<text text-anchor="middle" x="653" y="-83.5" font-family="Vera" font-size="10.00">Tkinter.Frame</text>
</g>
<!-- topo.tkgui.plotgrouppanel.PlotGroupPanel -->
<g id="node16" class="node"><title>topo.tkgui.plotgrouppanel.PlotGroupPanel</title>
<polygon fill="none" stroke="black" stroke-width="0.5" points="1012,-134.5 798,-134.5 798,-113.5 1012,-113.5 1012,-134.5"/>
<text text-anchor="middle" x="905" y="-121.5" font-family="Vera" font-size="10.00">topo.tkgui.plotgrouppanel.PlotGroupPanel</text>
</g>
<!-- Tkinter.Frame&#45;&gt;topo.tkgui.plotgrouppanel.PlotGroupPanel -->
<g id="edge16" class="edge"><title>Tkinter.Frame&#45;&gt;topo.tkgui.plotgrouppanel.PlotGroupPanel</title>
<path fill="none" stroke="black" stroke-width="0.5" d="M693.768,-92.1476C731.325,-97.8109 787.9,-106.342 833.05,-113.15"/>
<polygon fill="black" stroke="black" points="833.013,-114.915 838.218,-113.93 833.535,-111.454 833.013,-114.915"/>
</g>
<!-- Tkinter.Widget -->
<g id="node12" class="node"><title>Tkinter.Widget</title>
<polygon fill="none" stroke="black" stroke-width="0.5" points="467,-96.5 385,-96.5 385,-75.5 467,-75.5 467,-96.5"/>
<text text-anchor="middle" x="426" y="-83.5" font-family="Vera" font-size="10.00">Tkinter.Widget</text>
</g>
<!-- Tkinter.Widget&#45;&gt;Tkinter.Frame -->
<g id="edge10" class="edge"><title>Tkinter.Widget&#45;&gt;Tkinter.Frame</title>
<path fill="none" stroke="black" stroke-width="0.5" d="M467.635,-86C507.078,-86 566.192,-86 607.009,-86"/>
<polygon fill="black" stroke="black" points="607.392,-87.7501 612.392,-86 607.392,-84.2501 607.392,-87.7501"/>
</g>
<!-- Tkinter.Pack -->
<g id="node14" class="node"><title>Tkinter.Pack</title>
<polygon fill="none" stroke="black" stroke-width="0.5" points="241,-134.5 169,-134.5 169,-113.5 241,-113.5 241,-134.5"/>
<text text-anchor="middle" x="205" y="-121.5" font-family="Vera" font-size="10.00">Tkinter.Pack</text>
</g>
<!-- Tkinter.Pack&#45;&gt;Tkinter.Widget -->
<g id="edge28" class="edge"><title>Tkinter.Pack&#45;&gt;Tkinter.Widget</title>
<path fill="none" stroke="black" stroke-width="0.5" d="M241.99,-117.64C279.622,-111.169 338.069,-101.119 378.968,-94.087"/>
<polygon fill="black" stroke="black" points="379.736,-95.7307 384.367,-93.1587 379.142,-92.2813 379.736,-95.7307"/>
</g>
<!-- Tkinter.Place -->
<g id="node15" class="node"><title>Tkinter.Place</title>
<polygon fill="none" stroke="black" stroke-width="0.5" points="243,-96.5 167,-96.5 167,-75.5 243,-75.5 243,-96.5"/>
<text text-anchor="middle" x="205" y="-83.5" font-family="Vera" font-size="10.00">Tkinter.Place</text>
</g>
<!-- Tkinter.Place&#45;&gt;Tkinter.Widget -->
<g id="edge30" class="edge"><title>Tkinter.Place&#45;&gt;Tkinter.Widget</title>
<path fill="none" stroke="black" stroke-width="0.5" d="M243.748,-86C281.423,-86 338.702,-86 378.969,-86"/>
<polygon fill="black" stroke="black" points="379.287,-87.7501 384.287,-86 379.286,-84.2501 379.287,-87.7501"/>
</g>
<!-- topo.tkgui.plotgrouppanel.PlotGroupPanel&#45;&gt;topo.tkgui.plotgrouppanel.SheetPanel -->
<g id="edge12" class="edge"><title>topo.tkgui.plotgrouppanel.PlotGroupPanel&#45;&gt;topo.tkgui.plotgrouppanel.SheetPanel</title>
<path fill="none" stroke="black" stroke-width="0.5" d="M1012.86,-124C1031.7,-124 1051.27,-124 1070,-124"/>
<polygon fill="black" stroke="black" points="1070.26,-125.75 1075.26,-124 1070.26,-122.25 1070.26,-125.75"/>
</g>
<!-- paramtk.TkParameterized -->
<g id="node18" class="node"><title>paramtk.TkParameterized</title>
<polygon fill="none" stroke="black" stroke-width="0.5" points="723,-134.5 583,-134.5 583,-113.5 723,-113.5 723,-134.5"/>
<text text-anchor="middle" x="653" y="-121.5" font-family="Vera" font-size="10.00">paramtk.TkParameterized</text>
</g>
<!-- paramtk.TkParameterized&#45;&gt;topo.tkgui.plotgrouppanel.PlotGroupPanel -->
<g id="edge14" class="edge"><title>paramtk.TkParameterized&#45;&gt;topo.tkgui.plotgrouppanel.PlotGroupPanel</title>
<path fill="none" stroke="black" stroke-width="0.5" d="M723.196,-124C744.678,-124 768.872,-124 792.433,-124"/>
<polygon fill="black" stroke="black" points="792.45,-125.75 797.45,-124 792.45,-122.25 792.45,-125.75"/>
</g>
<!-- paramtk.TkParameterizedBase&#45;&gt;paramtk.TkParameterized -->
<g id="edge20" class="edge"><title>paramtk.TkParameterizedBase&#45;&gt;paramtk.TkParameterized</title>
<path fill="none" stroke="black" stroke-width="0.5" d="M508.273,-124C531.04,-124 555.624,-124 577.955,-124"/>
<polygon fill="black" stroke="black" points="577.982,-125.75 582.982,-124 577.982,-122.25 577.982,-125.75"/>
</g>
<!-- Tkinter.Grid -->
<g id="node23" class="node"><title>Tkinter.Grid</title>
<polygon fill="none" stroke="black" stroke-width="0.5" points="240,-58.5 170,-58.5 170,-37.5 240,-37.5 240,-58.5"/>
<text text-anchor="middle" x="205" y="-45.5" font-family="Vera" font-size="10.00">Tkinter.Grid</text>
</g>
<!-- Tkinter.Grid&#45;&gt;Tkinter.Widget -->
<g id="edge32" class="edge"><title>Tkinter.Grid&#45;&gt;Tkinter.Widget</title>
<path fill="none" stroke="black" stroke-width="0.5" d="M240.507,-54.1054C278.144,-60.5768 337.758,-70.8272 379.208,-77.9543"/>
<polygon fill="black" stroke="black" points="378.945,-79.6848 384.17,-78.8075 379.539,-76.2354 378.945,-79.6848"/>
</g>
<!-- Tkinter.BaseWidget -->
<g id="node28" class="node"><title>Tkinter.BaseWidget</title>
<polygon fill="none" stroke="black" stroke-width="0.5" points="258,-20.5 152,-20.5 152,0.5 258,0.5 258,-20.5"/>
<text text-anchor="middle" x="205" y="-7.5" font-family="Vera" font-size="10.00">Tkinter.BaseWidget</text>
</g>
<!-- Tkinter.BaseWidget&#45;&gt;Tkinter.Widget -->
<g id="edge26" class="edge"><title>Tkinter.BaseWidget&#45;&gt;Tkinter.Widget</title>
<path fill="none" stroke="black" stroke-width="0.5" d="M258.692,-18.1607C272.942,-20.9634 288.2,-24.5468 302,-29 338.571,-40.8013 378.574,-60.5279 402.982,-73.401"/>
<polygon fill="black" stroke="black" points="402.413,-75.0803 407.65,-75.8798 404.055,-71.9891 402.413,-75.0803"/>
</g>
<!-- Tkinter.Misc -->
<g id="node33" class="node"><title>Tkinter.Misc</title>
<polygon fill="none" stroke="black" stroke-width="0.5" points="72,-20.5 2.84217e-14,-20.5 0,0.5 72,0.5 72,-20.5"/>
<text text-anchor="middle" x="36" y="-7.5" font-family="Vera" font-size="10.00">Tkinter.Misc</text>
</g>
<!-- Tkinter.Misc&#45;&gt;Tkinter.BaseWidget -->
<g id="edge34" class="edge"><title>Tkinter.Misc&#45;&gt;Tkinter.BaseWidget</title>
<path fill="none" stroke="black" stroke-width="0.5" d="M72.2547,-10C93.805,-10 121.651,-10 146.27,-10"/>
<polygon fill="black" stroke="black" points="146.471,-11.7501 151.471,-10 146.471,-8.2501 146.471,-11.7501"/>
</g>
</g>
</svg>
