<?xml version="1.0" encoding="UTF-8" standalone="no"?>
<!DOCTYPE svg PUBLIC "-//W3C//DTD SVG 1.1//EN"
 "http://www.w3.org/Graphics/SVG/1.1/DTD/svg11.dtd">
<!-- Generated by graphviz version 2.26.3 (20100126.1600)
 -->
<!-- Title: inheritancebede3c61fc Pages: 1 -->
<svg width="2498pt" height="598pt"
 viewBox="0.00 0.00 2498.00 598.00" xmlns="http://www.w3.org/2000/svg" xmlns:xlink="http://www.w3.org/1999/xlink">
<g id="graph1" class="graph" transform="scale(1 1) rotate(0) translate(4 594)">
<title>inheritancebede3c61fc</title>
<polygon fill="white" stroke="white" points="-4,5 -4,-594 2495,-594 2495,5 -4,5"/>
<!-- topo.analysis.featureresponses.MeasureResponseCommand -->
<g id="node1" class="node"><title>topo.analysis.featureresponses.MeasureResponseCommand</title>
<polygon fill="none" stroke="black" stroke-width="0.5" points="1149,-457.5 843,-457.5 843,-436.5 1149,-436.5 1149,-457.5"/>
<text text-anchor="middle" x="996" y="-444.5" font-family="Vera" font-size="10.00">topo.analysis.featureresponses.MeasureResponseCommand</text>
</g>
<!-- topo.analysis.featureresponses.SinusoidalMeasureResponseCommand -->
<g id="node36" class="node"><title>topo.analysis.featureresponses.SinusoidalMeasureResponseCommand</title>
<polygon fill="none" stroke="black" stroke-width="0.5" points="1542,-495.5 1186,-495.5 1186,-474.5 1542,-474.5 1542,-495.5"/>
<text text-anchor="middle" x="1364" y="-482.5" font-family="Vera" font-size="10.00">topo.analysis.featureresponses.SinusoidalMeasureResponseCommand</text>
</g>
<!-- topo.analysis.featureresponses.MeasureResponseCommand&#45;&gt;topo.analysis.featureresponses.SinusoidalMeasureResponseCommand -->
<g id="edge54" class="edge"><title>topo.analysis.featureresponses.MeasureResponseCommand&#45;&gt;topo.analysis.featureresponses.SinusoidalMeasureResponseCommand</title>
<path fill="none" stroke="black" stroke-width="0.5" d="M1093.17,-457.034C1145.15,-462.402 1209.14,-469.009 1261.86,-474.453"/>
<polygon fill="black" stroke="black" points="1261.77,-476.203 1266.93,-474.976 1262.13,-472.722 1261.77,-476.203"/>
</g>
<!-- topo.analysis.featureresponses.PositionMeasurementCommand -->
<g id="node47" class="node"><title>topo.analysis.featureresponses.PositionMeasurementCommand</title>
<polygon fill="none" stroke="black" stroke-width="0.5" points="1526,-457.5 1202,-457.5 1202,-436.5 1526,-436.5 1526,-457.5"/>
<text text-anchor="middle" x="1364" y="-444.5" font-family="Vera" font-size="10.00">topo.analysis.featureresponses.PositionMeasurementCommand</text>
</g>
<!-- topo.analysis.featureresponses.MeasureResponseCommand&#45;&gt;topo.analysis.featureresponses.PositionMeasurementCommand -->
<g id="edge58" class="edge"><title>topo.analysis.featureresponses.MeasureResponseCommand&#45;&gt;topo.analysis.featureresponses.PositionMeasurementCommand</title>
<path fill="none" stroke="black" stroke-width="0.5" d="M1149.67,-447C1165.16,-447 1180.95,-447 1196.58,-447"/>
<polygon fill="black" stroke="black" points="1196.87,-448.75 1201.87,-447 1196.87,-445.25 1196.87,-448.75"/>
</g>
<!-- topo.analysis.featureresponses.PatternPresentingCommand -->
<g id="node2" class="node"><title>topo.analysis.featureresponses.PatternPresentingCommand</title>
<polygon fill="none" stroke="black" stroke-width="0.5" points="805,-410.5 501,-410.5 501,-389.5 805,-389.5 805,-410.5"/>
<text text-anchor="middle" x="653" y="-397.5" font-family="Vera" font-size="10.00">topo.analysis.featureresponses.PatternPresentingCommand</text>
</g>
<!-- topo.analysis.featureresponses.PatternPresentingCommand&#45;&gt;topo.analysis.featureresponses.MeasureResponseCommand -->
<g id="edge2" class="edge"><title>topo.analysis.featureresponses.PatternPresentingCommand&#45;&gt;topo.analysis.featureresponses.MeasureResponseCommand</title>
<path fill="none" stroke="black" stroke-width="0.5" d="M726.161,-410.025C782.502,-417.745 860.228,-428.396 917.795,-436.284"/>
<polygon fill="black" stroke="black" points="917.76,-438.045 922.951,-436.99 918.235,-434.578 917.76,-438.045"/>
</g>
<!-- topo.command.pylabplot.matrixplot -->
<g id="node4" class="node"><title>topo.command.pylabplot.matrixplot</title>
<polygon fill="none" stroke="black" stroke-width="0.5" points="1458,-362.5 1270,-362.5 1270,-341.5 1458,-341.5 1458,-362.5"/>
<text text-anchor="middle" x="1364" y="-349.5" font-family="Vera" font-size="10.00">topo.command.pylabplot.matrixplot</text>
</g>
<!-- topo.command.pylabplot.fftplot -->
<g id="node40" class="node"><title>topo.command.pylabplot.fftplot</title>
<polygon fill="none" stroke="black" stroke-width="0.5" points="1803,-419.5 1637,-419.5 1637,-398.5 1803,-398.5 1803,-419.5"/>
<text text-anchor="middle" x="1720" y="-406.5" font-family="Vera" font-size="10.00">topo.command.pylabplot.fftplot</text>
</g>
<!-- topo.command.pylabplot.matrixplot&#45;&gt;topo.command.pylabplot.fftplot -->
<g id="edge38" class="edge"><title>topo.command.pylabplot.matrixplot&#45;&gt;topo.command.pylabplot.fftplot</title>
<path fill="none" stroke="black" stroke-width="0.5" d="M1417.1,-362.08C1460.34,-370.131 1523,-381.442 1578,-390 1596.53,-392.884 1616.47,-395.718 1635.37,-398.28"/>
<polygon fill="black" stroke="black" points="1635.49,-400.061 1640.68,-398.996 1635.96,-396.593 1635.49,-400.061"/>
</g>
<!-- topo.command.pylabplot.activityplot -->
<g id="node42" class="node"><title>topo.command.pylabplot.activityplot</title>
<polygon fill="none" stroke="black" stroke-width="0.5" points="1815,-381.5 1625,-381.5 1625,-360.5 1815,-360.5 1815,-381.5"/>
<text text-anchor="middle" x="1720" y="-368.5" font-family="Vera" font-size="10.00">topo.command.pylabplot.activityplot</text>
</g>
<!-- topo.command.pylabplot.matrixplot&#45;&gt;topo.command.pylabplot.activityplot -->
<g id="edge40" class="edge"><title>topo.command.pylabplot.matrixplot&#45;&gt;topo.command.pylabplot.activityplot</title>
<path fill="none" stroke="black" stroke-width="0.5" d="M1458,-357.017C1507.59,-359.664 1568.47,-362.913 1619.06,-365.613"/>
<polygon fill="black" stroke="black" points="1619.15,-367.37 1624.23,-365.889 1619.33,-363.875 1619.15,-367.37"/>
</g>
<!-- topo.command.pylabplot.gradientplot -->
<g id="node49" class="node"><title>topo.command.pylabplot.gradientplot</title>
<polygon fill="none" stroke="black" stroke-width="0.5" points="1818,-343.5 1622,-343.5 1622,-322.5 1818,-322.5 1818,-343.5"/>
<text text-anchor="middle" x="1720" y="-330.5" font-family="Vera" font-size="10.00">topo.command.pylabplot.gradientplot</text>
</g>
<!-- topo.command.pylabplot.matrixplot&#45;&gt;topo.command.pylabplot.gradientplot -->
<g id="edge46" class="edge"><title>topo.command.pylabplot.matrixplot&#45;&gt;topo.command.pylabplot.gradientplot</title>
<path fill="none" stroke="black" stroke-width="0.5" d="M1458,-346.983C1506.7,-344.384 1566.27,-341.205 1616.3,-338.534"/>
<polygon fill="black" stroke="black" points="1616.52,-340.275 1621.42,-338.261 1616.34,-336.78 1616.52,-340.275"/>
</g>
<!-- topo.command.pylabplot.autocorrelationplot -->
<g id="node62" class="node"><title>topo.command.pylabplot.autocorrelationplot</title>
<polygon fill="none" stroke="black" stroke-width="0.5" points="1835,-305.5 1605,-305.5 1605,-284.5 1835,-284.5 1835,-305.5"/>
<text text-anchor="middle" x="1720" y="-292.5" font-family="Vera" font-size="10.00">topo.command.pylabplot.autocorrelationplot</text>
</g>
<!-- topo.command.pylabplot.matrixplot&#45;&gt;topo.command.pylabplot.autocorrelationplot -->
<g id="edge62" class="edge"><title>topo.command.pylabplot.matrixplot&#45;&gt;topo.command.pylabplot.autocorrelationplot</title>
<path fill="none" stroke="black" stroke-width="0.5" d="M1458.18,-348.639C1485.64,-345.876 1515.39,-341.113 1542,-333 1559.3,-327.723 1560.77,-319.507 1578,-314 1587.77,-310.877 1598.08,-308.267 1608.5,-306.086"/>
<polygon fill="black" stroke="black" points="1609.07,-307.756 1613.63,-305.049 1608.38,-304.326 1609.07,-307.756"/>
</g>
<!-- topo.command.pylabplot.PylabPlotCommand -->
<g id="node5" class="node"><title>topo.command.pylabplot.PylabPlotCommand</title>
<polygon fill="none" stroke="black" stroke-width="0.5" points="1112,-210.5 880,-210.5 880,-189.5 1112,-189.5 1112,-210.5"/>
<text text-anchor="middle" x="996" y="-197.5" font-family="Vera" font-size="10.00">topo.command.pylabplot.PylabPlotCommand</text>
</g>
<!-- topo.command.pylabplot.PylabPlotCommand&#45;&gt;topo.command.pylabplot.matrixplot -->
<g id="edge4" class="edge"><title>topo.command.pylabplot.PylabPlotCommand&#45;&gt;topo.command.pylabplot.matrixplot</title>
<path fill="none" stroke="black" stroke-width="0.5" d="M1006.41,-210.284C1033.37,-236.173 1108.71,-304.036 1186,-333 1210.55,-342.201 1238.26,-347.401 1264.37,-350.238"/>
<polygon fill="black" stroke="black" points="1264.42,-352.002 1269.57,-350.774 1264.78,-348.521 1264.42,-352.002"/>
</g>
<!-- topo.command.pylabplot.tuning_curve -->
<g id="node8" class="node"><title>topo.command.pylabplot.tuning_curve</title>
<polygon fill="none" stroke="black" stroke-width="0.5" points="1464,-324.5 1264,-324.5 1264,-303.5 1464,-303.5 1464,-324.5"/>
<text text-anchor="middle" x="1364" y="-311.5" font-family="Vera" font-size="10.00">topo.command.pylabplot.tuning_curve</text>
</g>
<!-- topo.command.pylabplot.PylabPlotCommand&#45;&gt;topo.command.pylabplot.tuning_curve -->
<g id="edge18" class="edge"><title>topo.command.pylabplot.PylabPlotCommand&#45;&gt;topo.command.pylabplot.tuning_curve</title>
<path fill="none" stroke="black" stroke-width="0.5" d="M1011.47,-210.167C1042.87,-230.244 1116.99,-274.781 1186,-295 1208.97,-301.73 1234.23,-306.13 1258.33,-308.993"/>
<polygon fill="black" stroke="black" points="1258.28,-310.75 1263.45,-309.581 1258.68,-307.272 1258.28,-310.75"/>
</g>
<!-- topo.command.pylabplot.plot_tracked_attributes -->
<g id="node15" class="node"><title>topo.command.pylabplot.plot_tracked_attributes</title>
<polygon fill="none" stroke="black" stroke-width="0.5" points="1489,-286.5 1239,-286.5 1239,-265.5 1489,-265.5 1489,-286.5"/>
<text text-anchor="middle" x="1364" y="-273.5" font-family="Vera" font-size="10.00">topo.command.pylabplot.plot_tracked_attributes</text>
</g>
<!-- topo.command.pylabplot.PylabPlotCommand&#45;&gt;topo.command.pylabplot.plot_tracked_attributes -->
<g id="edge14" class="edge"><title>topo.command.pylabplot.PylabPlotCommand&#45;&gt;topo.command.pylabplot.plot_tracked_attributes</title>
<path fill="none" stroke="black" stroke-width="0.5" d="M1023.6,-210.042C1060.21,-222.955 1127.09,-245.126 1186,-257 1202.29,-260.283 1219.54,-263.024 1236.64,-265.305"/>
<polygon fill="black" stroke="black" points="1236.75,-267.085 1241.94,-265.999 1237.21,-263.615 1236.75,-267.085"/>
</g>
<!-- topo.command.pylabplot.matrixplot3dx3 -->
<g id="node21" class="node"><title>topo.command.pylabplot.matrixplot3dx3</title>
<polygon fill="none" stroke="black" stroke-width="0.5" points="1470,-248.5 1258,-248.5 1258,-227.5 1470,-227.5 1470,-248.5"/>
<text text-anchor="middle" x="1364" y="-235.5" font-family="Vera" font-size="10.00">topo.command.pylabplot.matrixplot3dx3</text>
</g>
<!-- topo.command.pylabplot.PylabPlotCommand&#45;&gt;topo.command.pylabplot.matrixplot3dx3 -->
<g id="edge20" class="edge"><title>topo.command.pylabplot.PylabPlotCommand&#45;&gt;topo.command.pylabplot.matrixplot3dx3</title>
<path fill="none" stroke="black" stroke-width="0.5" d="M1093.17,-210.034C1145.15,-215.402 1209.14,-222.009 1261.86,-227.453"/>
<polygon fill="black" stroke="black" points="1261.77,-229.203 1266.93,-227.976 1262.13,-225.722 1261.77,-229.203"/>
</g>
<!-- topo.command.pylabplot.histogramplot -->
<g id="node23" class="node"><title>topo.command.pylabplot.histogramplot</title>
<polygon fill="none" stroke="black" stroke-width="0.5" points="1467,-210.5 1261,-210.5 1261,-189.5 1467,-189.5 1467,-210.5"/>
<text text-anchor="middle" x="1364" y="-197.5" font-family="Vera" font-size="10.00">topo.command.pylabplot.histogramplot</text>
</g>
<!-- topo.command.pylabplot.PylabPlotCommand&#45;&gt;topo.command.pylabplot.histogramplot -->
<g id="edge22" class="edge"><title>topo.command.pylabplot.PylabPlotCommand&#45;&gt;topo.command.pylabplot.histogramplot</title>
<path fill="none" stroke="black" stroke-width="0.5" d="M1112.69,-200C1158.5,-200 1210.77,-200 1255.73,-200"/>
<polygon fill="black" stroke="black" points="1255.89,-201.75 1260.89,-200 1255.89,-198.25 1255.89,-201.75"/>
</g>
<!-- topo.command.pylabplot.topographic_grid -->
<g id="node38" class="node"><title>topo.command.pylabplot.topographic_grid</title>
<polygon fill="none" stroke="black" stroke-width="0.5" points="1474,-172.5 1254,-172.5 1254,-151.5 1474,-151.5 1474,-172.5"/>
<text text-anchor="middle" x="1364" y="-159.5" font-family="Vera" font-size="10.00">topo.command.pylabplot.topographic_grid</text>
</g>
<!-- topo.command.pylabplot.PylabPlotCommand&#45;&gt;topo.command.pylabplot.topographic_grid -->
<g id="edge36" class="edge"><title>topo.command.pylabplot.PylabPlotCommand&#45;&gt;topo.command.pylabplot.topographic_grid</title>
<path fill="none" stroke="black" stroke-width="0.5" d="M1093.17,-189.966C1145.15,-184.598 1209.14,-177.991 1261.86,-172.547"/>
<polygon fill="black" stroke="black" points="1262.13,-174.278 1266.93,-172.024 1261.77,-170.797 1262.13,-174.278"/>
</g>
<!-- topo.command.pylabplot.matrixplot3d -->
<g id="node44" class="node"><title>topo.command.pylabplot.matrixplot3d</title>
<polygon fill="none" stroke="black" stroke-width="0.5" points="1464,-134.5 1264,-134.5 1264,-113.5 1464,-113.5 1464,-134.5"/>
<text text-anchor="middle" x="1364" y="-121.5" font-family="Vera" font-size="10.00">topo.command.pylabplot.matrixplot3d</text>
</g>
<!-- topo.command.pylabplot.PylabPlotCommand&#45;&gt;topo.command.pylabplot.matrixplot3d -->
<g id="edge42" class="edge"><title>topo.command.pylabplot.PylabPlotCommand&#45;&gt;topo.command.pylabplot.matrixplot3d</title>
<path fill="none" stroke="black" stroke-width="0.5" d="M1023.6,-189.958C1060.21,-177.045 1127.09,-154.874 1186,-143 1209.32,-138.299 1234.61,-134.71 1258.61,-131.989"/>
<polygon fill="black" stroke="black" points="1258.94,-133.714 1263.71,-131.422 1258.55,-130.236 1258.94,-133.714"/>
</g>
<!-- topo.command.pylabplot.vectorplot -->
<g id="node51" class="node"><title>topo.command.pylabplot.vectorplot</title>
<polygon fill="none" stroke="black" stroke-width="0.5" points="1458,-96.5 1270,-96.5 1270,-75.5 1458,-75.5 1458,-96.5"/>
<text text-anchor="middle" x="1364" y="-83.5" font-family="Vera" font-size="10.00">topo.command.pylabplot.vectorplot</text>
</g>
<!-- topo.command.pylabplot.PylabPlotCommand&#45;&gt;topo.command.pylabplot.vectorplot -->
<g id="edge48" class="edge"><title>topo.command.pylabplot.PylabPlotCommand&#45;&gt;topo.command.pylabplot.vectorplot</title>
<path fill="none" stroke="black" stroke-width="0.5" d="M1011.47,-189.833C1042.87,-169.756 1116.99,-125.219 1186,-105 1211.02,-97.6685 1238.77,-93.1019 1264.76,-90.2752"/>
<polygon fill="black" stroke="black" points="1265.14,-91.9947 1269.93,-89.7328 1264.78,-88.5138 1265.14,-91.9947"/>
</g>
<!-- topo.command.pylabplot.overlaid_plots -->
<g id="node55" class="node"><title>topo.command.pylabplot.overlaid_plots</title>
<polygon fill="none" stroke="black" stroke-width="0.5" points="1467,-58.5 1261,-58.5 1261,-37.5 1467,-37.5 1467,-58.5"/>
<text text-anchor="middle" x="1364" y="-45.5" font-family="Vera" font-size="10.00">topo.command.pylabplot.overlaid_plots</text>
</g>
<!-- topo.command.pylabplot.PylabPlotCommand&#45;&gt;topo.command.pylabplot.overlaid_plots -->
<g id="edge52" class="edge"><title>topo.command.pylabplot.PylabPlotCommand&#45;&gt;topo.command.pylabplot.overlaid_plots</title>
<path fill="none" stroke="black" stroke-width="0.5" d="M1006.41,-189.716C1033.37,-163.827 1108.71,-95.9642 1186,-67 1207.87,-58.8041 1232.24,-53.7829 1255.76,-50.7787"/>
<polygon fill="black" stroke="black" points="1256.01,-52.5109 1260.76,-50.1678 1255.59,-49.0367 1256.01,-52.5109"/>
</g>
<!-- topo.command.pylabplot.plot_modulation_ratio -->
<g id="node64" class="node"><title>topo.command.pylabplot.plot_modulation_ratio</title>
<polygon fill="none" stroke="black" stroke-width="0.5" points="1486,-20.5 1242,-20.5 1242,0.5 1486,0.5 1486,-20.5"/>
<text text-anchor="middle" x="1364" y="-7.5" font-family="Vera" font-size="10.00">topo.command.pylabplot.plot_modulation_ratio</text>
</g>
<!-- topo.command.pylabplot.PylabPlotCommand&#45;&gt;topo.command.pylabplot.plot_modulation_ratio -->
<g id="edge64" class="edge"><title>topo.command.pylabplot.PylabPlotCommand&#45;&gt;topo.command.pylabplot.plot_modulation_ratio</title>
<path fill="none" stroke="black" stroke-width="0.5" d="M1003.29,-189.979C1026.16,-159.445 1100.08,-67.3266 1186,-29 1201.83,-21.9408 1219.2,-17.0553 1236.7,-13.7315"/>
<polygon fill="black" stroke="black" points="1237.03,-15.4501 1241.64,-12.8349 1236.41,-12.0064 1237.03,-15.4501"/>
</g>
<!-- topo.command.pylabplot.cyclic_tuning_curve -->
<g id="node7" class="node"><title>topo.command.pylabplot.cyclic_tuning_curve</title>
<polygon fill="none" stroke="black" stroke-width="0.5" points="1836,-267.5 1604,-267.5 1604,-246.5 1836,-246.5 1836,-267.5"/>
<text text-anchor="middle" x="1720" y="-254.5" font-family="Vera" font-size="10.00">topo.command.pylabplot.cyclic_tuning_curve</text>
</g>
<!-- topo.command.pylabplot.tuning_curve&#45;&gt;topo.command.pylabplot.cyclic_tuning_curve -->
<g id="edge6" class="edge"><title>topo.command.pylabplot.tuning_curve&#45;&gt;topo.command.pylabplot.cyclic_tuning_curve</title>
<path fill="none" stroke="black" stroke-width="0.5" d="M1464.66,-309.953C1490.27,-307.11 1517.48,-302.479 1542,-295 1559.3,-289.723 1560.77,-281.507 1578,-276 1587.77,-272.877 1598.08,-270.267 1608.5,-268.086"/>
<polygon fill="black" stroke="black" points="1609.07,-269.756 1613.63,-267.049 1608.38,-266.326 1609.07,-269.756"/>
</g>
<!-- param.parameterized.ParameterizedFunction -->
<g id="node10" class="node"><title>param.parameterized.ParameterizedFunction</title>
<polygon fill="none" stroke="black" stroke-width="0.5" points="464,-277.5 230,-277.5 230,-256.5 464,-256.5 464,-277.5"/>
<text text-anchor="middle" x="347" y="-264.5" font-family="Vera" font-size="10.00">param.parameterized.ParameterizedFunction</text>
</g>
<!-- param.parameterized.ParameterizedFunction&#45;&gt;topo.analysis.featureresponses.PatternPresentingCommand -->
<g id="edge8" class="edge"><title>param.parameterized.ParameterizedFunction&#45;&gt;topo.analysis.featureresponses.PatternPresentingCommand</title>
<path fill="none" stroke="black" stroke-width="0.5" d="M370.251,-277.106C425.599,-301.163 565.012,-361.757 624.924,-387.797"/>
<polygon fill="black" stroke="black" points="624.501,-389.521 629.784,-389.91 625.896,-386.312 624.501,-389.521"/>
</g>
<!-- topo.command.Command -->
<g id="node12" class="node"><title>topo.command.Command</title>
<polygon fill="none" stroke="black" stroke-width="0.5" points="724,-277.5 582,-277.5 582,-256.5 724,-256.5 724,-277.5"/>
<text text-anchor="middle" x="653" y="-264.5" font-family="Vera" font-size="10.00">topo.command.Command</text>
</g>
<!-- param.parameterized.ParameterizedFunction&#45;&gt;topo.command.Command -->
<g id="edge12" class="edge"><title>param.parameterized.ParameterizedFunction&#45;&gt;topo.command.Command</title>
<path fill="none" stroke="black" stroke-width="0.5" d="M464.432,-267C501.869,-267 542.312,-267 576.108,-267"/>
<polygon fill="black" stroke="black" points="576.474,-268.75 581.474,-267 576.474,-265.25 576.474,-268.75"/>
</g>
<!-- topo.command.pylabplot.measure_cog -->
<g id="node17" class="node"><title>topo.command.pylabplot.measure_cog</title>
<polygon fill="none" stroke="black" stroke-width="0.5" points="755,-239.5 551,-239.5 551,-218.5 755,-218.5 755,-239.5"/>
<text text-anchor="middle" x="653" y="-226.5" font-family="Vera" font-size="10.00">topo.command.pylabplot.measure_cog</text>
</g>
<!-- param.parameterized.ParameterizedFunction&#45;&gt;topo.command.pylabplot.measure_cog -->
<g id="edge16" class="edge"><title>param.parameterized.ParameterizedFunction&#45;&gt;topo.command.pylabplot.measure_cog</title>
<path fill="none" stroke="black" stroke-width="0.5" d="M427.798,-256.966C470.763,-251.631 523.585,-245.071 567.271,-239.646"/>
<polygon fill="black" stroke="black" points="567.534,-241.377 572.28,-239.024 567.102,-237.904 567.534,-241.377"/>
</g>
<!-- topo.command.Command&#45;&gt;topo.command.pylabplot.PylabPlotCommand -->
<g id="edge10" class="edge"><title>topo.command.Command&#45;&gt;topo.command.pylabplot.PylabPlotCommand</title>
<path fill="none" stroke="black" stroke-width="0.5" d="M724.509,-259.977C750.301,-256.956 779.561,-252.962 806,-248 858.643,-238.121 918.394,-222.24 956.601,-211.475"/>
<polygon fill="black" stroke="black" points="957.28,-213.101 961.615,-210.056 956.327,-209.733 957.28,-213.101"/>
</g>
<!-- param.parameterized.Parameterized -->
<g id="node19" class="node"><title>param.parameterized.Parameterized</title>
<polygon fill="none" stroke="black" stroke-width="0.5" points="194,-277.5 5.68434e-14,-277.5 0,-256.5 194,-256.5 194,-277.5"/>
<text text-anchor="middle" x="97" y="-264.5" font-family="Vera" font-size="10.00">param.parameterized.Parameterized</text>
</g>
<!-- param.parameterized.Parameterized&#45;&gt;param.parameterized.ParameterizedFunction -->
<g id="edge28" class="edge"><title>param.parameterized.Parameterized&#45;&gt;param.parameterized.ParameterizedFunction</title>
<path fill="none" stroke="black" stroke-width="0.5" d="M194.014,-267C204.04,-267 214.319,-267 224.575,-267"/>
<polygon fill="black" stroke="black" points="224.607,-268.75 229.607,-267 224.607,-265.25 224.607,-268.75"/>
</g>
<!-- topo.command.pylabplot.measure_orientation_contrast -->
<g id="node25" class="node"><title>topo.command.pylabplot.measure_orientation_contrast</title>
<polygon fill="none" stroke="black" stroke-width="0.5" points="2490,-590.5 2206,-590.5 2206,-569.5 2490,-569.5 2490,-590.5"/>
<text text-anchor="middle" x="2348" y="-577.5" font-family="Vera" font-size="10.00">topo.command.pylabplot.measure_orientation_contrast</text>
</g>
<!-- topo.analysis.featureresponses.UnitCurveCommand -->
<g id="node26" class="node"><title>topo.analysis.featureresponses.UnitCurveCommand</title>
<polygon fill="none" stroke="black" stroke-width="0.5" points="2167,-514.5 1901,-514.5 1901,-493.5 2167,-493.5 2167,-514.5"/>
<text text-anchor="middle" x="2034" y="-501.5" font-family="Vera" font-size="10.00">topo.analysis.featureresponses.UnitCurveCommand</text>
</g>
<!-- topo.analysis.featureresponses.UnitCurveCommand&#45;&gt;topo.command.pylabplot.measure_orientation_contrast -->
<g id="edge24" class="edge"><title>topo.analysis.featureresponses.UnitCurveCommand&#45;&gt;topo.command.pylabplot.measure_orientation_contrast</title>
<path fill="none" stroke="black" stroke-width="0.5" d="M2059.22,-514.014C2092.37,-526.792 2152.66,-548.707 2206,-561 2219.71,-564.159 2234.29,-566.85 2248.69,-569.124"/>
<polygon fill="black" stroke="black" points="2248.77,-570.909 2253.98,-569.944 2249.31,-567.45 2248.77,-570.909"/>
</g>
<!-- topo.command.pylabplot.test_measure -->
<g id="node28" class="node"><title>topo.command.pylabplot.test_measure</title>
<polygon fill="none" stroke="black" stroke-width="0.5" points="2451,-552.5 2245,-552.5 2245,-531.5 2451,-531.5 2451,-552.5"/>
<text text-anchor="middle" x="2348" y="-539.5" font-family="Vera" font-size="10.00">topo.command.pylabplot.test_measure</text>
</g>
<!-- topo.analysis.featureresponses.UnitCurveCommand&#45;&gt;topo.command.pylabplot.test_measure -->
<g id="edge26" class="edge"><title>topo.analysis.featureresponses.UnitCurveCommand&#45;&gt;topo.command.pylabplot.test_measure</title>
<path fill="none" stroke="black" stroke-width="0.5" d="M2116.91,-514.034C2161,-519.369 2215.2,-525.929 2260.03,-531.354"/>
<polygon fill="black" stroke="black" points="2260,-533.112 2265.17,-531.976 2260.42,-529.638 2260,-533.112"/>
</g>
<!-- topo.command.pylabplot.measure_contrast_response -->
<g id="node34" class="node"><title>topo.command.pylabplot.measure_contrast_response</title>
<polygon fill="none" stroke="black" stroke-width="0.5" points="2486,-514.5 2210,-514.5 2210,-493.5 2486,-493.5 2486,-514.5"/>
<text text-anchor="middle" x="2348" y="-501.5" font-family="Vera" font-size="10.00">topo.command.pylabplot.measure_contrast_response</text>
</g>
<!-- topo.analysis.featureresponses.UnitCurveCommand&#45;&gt;topo.command.pylabplot.measure_contrast_response -->
<g id="edge32" class="edge"><title>topo.analysis.featureresponses.UnitCurveCommand&#45;&gt;topo.command.pylabplot.measure_contrast_response</title>
<path fill="none" stroke="black" stroke-width="0.5" d="M2167.62,-504C2179.74,-504 2192.05,-504 2204.26,-504"/>
<polygon fill="black" stroke="black" points="2204.48,-505.75 2209.48,-504 2204.48,-502.25 2204.48,-505.75"/>
</g>
<!-- topo.command.pylabplot.measure_or_tuning -->
<g id="node53" class="node"><title>topo.command.pylabplot.measure_or_tuning</title>
<polygon fill="none" stroke="black" stroke-width="0.5" points="2464,-476.5 2232,-476.5 2232,-455.5 2464,-455.5 2464,-476.5"/>
<text text-anchor="middle" x="2348" y="-463.5" font-family="Vera" font-size="10.00">topo.command.pylabplot.measure_or_tuning</text>
</g>
<!-- topo.analysis.featureresponses.UnitCurveCommand&#45;&gt;topo.command.pylabplot.measure_or_tuning -->
<g id="edge50" class="edge"><title>topo.analysis.featureresponses.UnitCurveCommand&#45;&gt;topo.command.pylabplot.measure_or_tuning</title>
<path fill="none" stroke="black" stroke-width="0.5" d="M2116.91,-493.966C2161,-488.631 2215.2,-482.071 2260.03,-476.646"/>
<polygon fill="black" stroke="black" points="2260.42,-478.362 2265.17,-476.024 2260,-474.888 2260.42,-478.362"/>
</g>
<!-- topo.command.pylabplot.measure_size_response -->
<g id="node60" class="node"><title>topo.command.pylabplot.measure_size_response</title>
<polygon fill="none" stroke="black" stroke-width="0.5" points="2476,-438.5 2220,-438.5 2220,-417.5 2476,-417.5 2476,-438.5"/>
<text text-anchor="middle" x="2348" y="-425.5" font-family="Vera" font-size="10.00">topo.command.pylabplot.measure_size_response</text>
</g>
<!-- topo.analysis.featureresponses.UnitCurveCommand&#45;&gt;topo.command.pylabplot.measure_size_response -->
<g id="edge60" class="edge"><title>topo.analysis.featureresponses.UnitCurveCommand&#45;&gt;topo.command.pylabplot.measure_size_response</title>
<path fill="none" stroke="black" stroke-width="0.5" d="M2148.23,-493.953C2155.78,-491.501 2163.11,-488.548 2170,-485 2190.68,-474.348 2185.29,-457.592 2206,-447 2211.36,-444.257 2216.98,-441.864 2222.76,-439.777"/>
<polygon fill="black" stroke="black" points="2223.49,-441.377 2227.65,-438.096 2222.35,-438.067 2223.49,-441.377"/>
</g>
<!-- topo.command.pylabplot.measure_or_tuning_fullfield -->
<g id="node31" class="node"><title>topo.command.pylabplot.measure_or_tuning_fullfield</title>
<polygon fill="none" stroke="black" stroke-width="0.5" points="2169,-476.5 1899,-476.5 1899,-455.5 2169,-455.5 2169,-476.5"/>
<text text-anchor="middle" x="2034" y="-463.5" font-family="Vera" font-size="10.00">topo.command.pylabplot.measure_or_tuning_fullfield</text>
</g>
<!-- topo.analysis.featureresponses.FeatureCurveCommand -->
<g id="node32" class="node"><title>topo.analysis.featureresponses.FeatureCurveCommand</title>
<polygon fill="none" stroke="black" stroke-width="0.5" points="1862,-495.5 1578,-495.5 1578,-474.5 1862,-474.5 1862,-495.5"/>
<text text-anchor="middle" x="1720" y="-482.5" font-family="Vera" font-size="10.00">topo.analysis.featureresponses.FeatureCurveCommand</text>
</g>
<!-- topo.analysis.featureresponses.FeatureCurveCommand&#45;&gt;topo.analysis.featureresponses.UnitCurveCommand -->
<g id="edge56" class="edge"><title>topo.analysis.featureresponses.FeatureCurveCommand&#45;&gt;topo.analysis.featureresponses.UnitCurveCommand</title>
<path fill="none" stroke="black" stroke-width="0.5" d="M1862.3,-493.611C1873.28,-494.275 1884.35,-494.945 1895.3,-495.607"/>
<polygon fill="black" stroke="black" points="1895.23,-497.356 1900.32,-495.911 1895.44,-493.862 1895.23,-497.356"/>
</g>
<!-- topo.analysis.featureresponses.FeatureCurveCommand&#45;&gt;topo.command.pylabplot.measure_or_tuning_fullfield -->
<g id="edge30" class="edge"><title>topo.analysis.featureresponses.FeatureCurveCommand&#45;&gt;topo.command.pylabplot.measure_or_tuning_fullfield</title>
<path fill="none" stroke="black" stroke-width="0.5" d="M1862.3,-476.389C1872.62,-475.765 1883.02,-475.135 1893.33,-474.512"/>
<polygon fill="black" stroke="black" points="1893.5,-476.255 1898.39,-474.206 1893.29,-472.761 1893.5,-476.255"/>
</g>
<!-- topo.analysis.featureresponses.SinusoidalMeasureResponseCommand&#45;&gt;topo.analysis.featureresponses.FeatureCurveCommand -->
<g id="edge34" class="edge"><title>topo.analysis.featureresponses.SinusoidalMeasureResponseCommand&#45;&gt;topo.analysis.featureresponses.FeatureCurveCommand</title>
<path fill="none" stroke="black" stroke-width="0.5" d="M1542,-485C1552.21,-485 1562.43,-485 1572.51,-485"/>
<polygon fill="black" stroke="black" points="1572.76,-486.75 1577.76,-485 1572.76,-483.25 1572.76,-486.75"/>
</g>
<!-- topo.command.pylabplot.measure_position_pref -->
<g id="node46" class="node"><title>topo.command.pylabplot.measure_position_pref</title>
<polygon fill="none" stroke="black" stroke-width="0.5" points="1844,-457.5 1596,-457.5 1596,-436.5 1844,-436.5 1844,-457.5"/>
<text text-anchor="middle" x="1720" y="-444.5" font-family="Vera" font-size="10.00">topo.command.pylabplot.measure_position_pref</text>
</g>
<!-- topo.analysis.featureresponses.PositionMeasurementCommand&#45;&gt;topo.command.pylabplot.measure_position_pref -->
<g id="edge44" class="edge"><title>topo.analysis.featureresponses.PositionMeasurementCommand&#45;&gt;topo.command.pylabplot.measure_position_pref</title>
<path fill="none" stroke="black" stroke-width="0.5" d="M1526.11,-447C1547.52,-447 1569.23,-447 1590,-447"/>
<polygon fill="black" stroke="black" points="1590.26,-448.75 1595.26,-447 1590.26,-445.25 1590.26,-448.75"/>
</g>
</g>
</svg>
