<?xml version="1.0" encoding="UTF-8" standalone="no"?>
<!DOCTYPE svg PUBLIC "-//W3C//DTD SVG 1.1//EN"
 "http://www.w3.org/Graphics/SVG/1.1/DTD/svg11.dtd">
<!-- Generated by graphviz version 2.26.3 (20100126.1600)
 -->
<!-- Title: inheritance03c0df95af Pages: 1 -->
<svg width="1818pt" height="104pt"
 viewBox="0.00 0.00 1818.00 104.00" xmlns="http://www.w3.org/2000/svg" xmlns:xlink="http://www.w3.org/1999/xlink">
<g id="graph1" class="graph" transform="scale(1 1) rotate(0) translate(4 100)">
<title>inheritance03c0df95af</title>
<polygon fill="white" stroke="white" points="-4,5 -4,-100 1815,-100 1815,5 -4,5"/>
<!-- topo.sheet.optimized.SettlingCFSheet_Opt -->
<g id="node1" class="node"><title>topo.sheet.optimized.SettlingCFSheet_Opt</title>
<polygon fill="none" stroke="black" stroke-width="0.5" points="1809,-39.5 1589,-39.5 1589,-18.5 1809,-18.5 1809,-39.5"/>
<text text-anchor="middle" x="1699" y="-26.5" font-family="Vera" font-size="10.00">topo.sheet.optimized.SettlingCFSheet_Opt</text>
</g>
<!-- topo.sheet.SettlingCFSheet -->
<g id="node2" class="node"><title>topo.sheet.SettlingCFSheet</title>
<polygon fill="none" stroke="black" stroke-width="0.5" points="1551,-39.5 1403,-39.5 1403,-18.5 1551,-18.5 1551,-39.5"/>
<text text-anchor="middle" x="1477" y="-26.5" font-family="Vera" font-size="10.00">topo.sheet.SettlingCFSheet</text>
</g>
<!-- topo.sheet.SettlingCFSheet&#45;&gt;topo.sheet.optimized.SettlingCFSheet_Opt -->
<g id="edge2" class="edge"><title>topo.sheet.SettlingCFSheet&#45;&gt;topo.sheet.optimized.SettlingCFSheet_Opt</title>
<path fill="none" stroke="black" stroke-width="0.5" d="M1551.54,-29C1561.72,-29 1572.35,-29 1583.05,-29"/>
<polygon fill="black" stroke="black" points="1583.3,-30.7501 1588.3,-29 1583.3,-27.2501 1583.3,-30.7501"/>
</g>
<!-- topo.sheet.JointNormalizingCFSheet -->
<g id="node4" class="node"><title>topo.sheet.JointNormalizingCFSheet</title>
<polygon fill="none" stroke="black" stroke-width="0.5" points="1365,-39.5 1177,-39.5 1177,-18.5 1365,-18.5 1365,-39.5"/>
<text text-anchor="middle" x="1271" y="-26.5" font-family="Vera" font-size="10.00">topo.sheet.JointNormalizingCFSheet</text>
</g>
<!-- topo.sheet.JointNormalizingCFSheet&#45;&gt;topo.sheet.SettlingCFSheet -->
<g id="edge14" class="edge"><title>topo.sheet.JointNormalizingCFSheet&#45;&gt;topo.sheet.SettlingCFSheet</title>
<path fill="none" stroke="black" stroke-width="0.5" d="M1365.56,-29C1376.19,-29 1386.95,-29 1397.37,-29"/>
<polygon fill="black" stroke="black" points="1397.45,-30.7501 1402.45,-29 1397.45,-27.2501 1397.45,-30.7501"/>
</g>
<!-- topo.base.cf.CFSheet -->
<g id="node5" class="node"><title>topo.base.cf.CFSheet</title>
<polygon fill="none" stroke="black" stroke-width="0.5" points="1139,-39.5 1021,-39.5 1021,-18.5 1139,-18.5 1139,-39.5"/>
<text text-anchor="middle" x="1080" y="-26.5" font-family="Vera" font-size="10.00">topo.base.cf.CFSheet</text>
</g>
<!-- topo.base.cf.CFSheet&#45;&gt;topo.sheet.JointNormalizingCFSheet -->
<g id="edge4" class="edge"><title>topo.base.cf.CFSheet&#45;&gt;topo.sheet.JointNormalizingCFSheet</title>
<path fill="none" stroke="black" stroke-width="0.5" d="M1139.65,-29C1149.71,-29 1160.4,-29 1171.16,-29"/>
<polygon fill="black" stroke="black" points="1171.44,-30.7501 1176.44,-29 1171.44,-27.2501 1171.44,-30.7501"/>
</g>
<!-- topo.base.projection.SheetMask -->
<g id="node7" class="node"><title>topo.base.projection.SheetMask</title>
<polygon fill="none" stroke="black" stroke-width="0.5" points="433,-96.5 263,-96.5 263,-75.5 433,-75.5 433,-96.5"/>
<text text-anchor="middle" x="348" y="-83.5" font-family="Vera" font-size="10.00">topo.base.projection.SheetMask</text>
</g>
<!-- topo.base.projection.NeighborhoodMask -->
<g id="node18" class="node"><title>topo.base.projection.NeighborhoodMask</title>
<polygon fill="none" stroke="black" stroke-width="0.5" points="712,-96.5 502,-96.5 502,-75.5 712,-75.5 712,-96.5"/>
<text text-anchor="middle" x="607" y="-83.5" font-family="Vera" font-size="10.00">topo.base.projection.NeighborhoodMask</text>
</g>
<!-- topo.base.projection.SheetMask&#45;&gt;topo.base.projection.NeighborhoodMask -->
<g id="edge20" class="edge"><title>topo.base.projection.SheetMask&#45;&gt;topo.base.projection.NeighborhoodMask</title>
<path fill="none" stroke="black" stroke-width="0.5" d="M433.524,-86C453.713,-86 475.519,-86 496.632,-86"/>
<polygon fill="black" stroke="black" points="496.696,-87.7501 501.696,-86 496.696,-84.2501 496.696,-87.7501"/>
</g>
<!-- param.parameterized.Parameterized -->
<g id="node8" class="node"><title>param.parameterized.Parameterized</title>
<polygon fill="none" stroke="black" stroke-width="0.5" points="194,-77.5 5.68434e-14,-77.5 0,-56.5 194,-56.5 194,-77.5"/>
<text text-anchor="middle" x="97" y="-64.5" font-family="Vera" font-size="10.00">param.parameterized.Parameterized</text>
</g>
<!-- param.parameterized.Parameterized&#45;&gt;topo.base.projection.SheetMask -->
<g id="edge6" class="edge"><title>param.parameterized.Parameterized&#45;&gt;topo.base.projection.SheetMask</title>
<path fill="none" stroke="black" stroke-width="0.5" d="M194.043,-74.3459C214.773,-75.9151 236.595,-77.567 257.084,-79.1179"/>
<polygon fill="black" stroke="black" points="257.145,-80.8775 262.263,-79.51 257.41,-77.3875 257.145,-80.8775"/>
</g>
<!-- topo.base.simulation.EventProcessor -->
<g id="node10" class="node"><title>topo.base.simulation.EventProcessor</title>
<polygon fill="none" stroke="black" stroke-width="0.5" points="445,-58.5 251,-58.5 251,-37.5 445,-37.5 445,-58.5"/>
<text text-anchor="middle" x="348" y="-45.5" font-family="Vera" font-size="10.00">topo.base.simulation.EventProcessor</text>
</g>
<!-- param.parameterized.Parameterized&#45;&gt;topo.base.simulation.EventProcessor -->
<g id="edge8" class="edge"><title>param.parameterized.Parameterized&#45;&gt;topo.base.simulation.EventProcessor</title>
<path fill="none" stroke="black" stroke-width="0.5" d="M194.043,-59.6541C210.921,-58.3765 228.523,-57.0441 245.54,-55.7559"/>
<polygon fill="black" stroke="black" points="245.947,-57.4802 250.801,-55.3577 245.683,-53.9902 245.947,-57.4802"/>
</g>
<!-- topo.base.sheet.Sheet -->
<g id="node12" class="node"><title>topo.base.sheet.Sheet</title>
<polygon fill="none" stroke="black" stroke-width="0.5" points="670,-39.5 544,-39.5 544,-18.5 670,-18.5 670,-39.5"/>
<text text-anchor="middle" x="607" y="-26.5" font-family="Vera" font-size="10.00">topo.base.sheet.Sheet</text>
</g>
<!-- topo.base.simulation.EventProcessor&#45;&gt;topo.base.sheet.Sheet -->
<g id="edge10" class="edge"><title>topo.base.simulation.EventProcessor&#45;&gt;topo.base.sheet.Sheet</title>
<path fill="none" stroke="black" stroke-width="0.5" d="M445.179,-40.871C476.259,-38.5911 509.992,-36.1164 538.576,-34.0196"/>
<polygon fill="black" stroke="black" points="538.993,-35.7438 543.851,-33.6325 538.736,-32.2531 538.993,-35.7438"/>
</g>
<!-- topo.base.projection.ProjectionSheet -->
<g id="node20" class="node"><title>topo.base.projection.ProjectionSheet</title>
<polygon fill="none" stroke="black" stroke-width="0.5" points="963,-39.5 769,-39.5 769,-18.5 963,-18.5 963,-39.5"/>
<text text-anchor="middle" x="866" y="-26.5" font-family="Vera" font-size="10.00">topo.base.projection.ProjectionSheet</text>
</g>
<!-- topo.base.sheet.Sheet&#45;&gt;topo.base.projection.ProjectionSheet -->
<g id="edge18" class="edge"><title>topo.base.sheet.Sheet&#45;&gt;topo.base.projection.ProjectionSheet</title>
<path fill="none" stroke="black" stroke-width="0.5" d="M670.027,-29C698.241,-29 732.229,-29 763.921,-29"/>
<polygon fill="black" stroke="black" points="763.986,-30.7501 768.986,-29 763.986,-27.2501 763.986,-30.7501"/>
</g>
<!-- imagen.sheetcoords.SheetCoordinateSystem -->
<g id="node14" class="node"><title>imagen.sheetcoords.SheetCoordinateSystem</title>
<polygon fill="none" stroke="black" stroke-width="0.5" points="466,-20.5 230,-20.5 230,0.5 466,0.5 466,-20.5"/>
<text text-anchor="middle" x="348" y="-7.5" font-family="Vera" font-size="10.00">imagen.sheetcoords.SheetCoordinateSystem</text>
</g>
<!-- imagen.sheetcoords.SheetCoordinateSystem&#45;&gt;topo.base.sheet.Sheet -->
<g id="edge12" class="edge"><title>imagen.sheetcoords.SheetCoordinateSystem&#45;&gt;topo.base.sheet.Sheet</title>
<path fill="none" stroke="black" stroke-width="0.5" d="M466.131,-18.666C491.062,-20.4949 516.559,-22.3654 538.889,-24.0034"/>
<polygon fill="black" stroke="black" points="538.784,-25.7504 543.899,-24.371 539.04,-22.2598 538.784,-25.7504"/>
</g>
<!-- topo.sheet.optimized.NeighborhoodMask_Opt -->
<g id="node17" class="node"><title>topo.sheet.optimized.NeighborhoodMask_Opt</title>
<polygon fill="none" stroke="black" stroke-width="0.5" points="984,-96.5 748,-96.5 748,-75.5 984,-75.5 984,-96.5"/>
<text text-anchor="middle" x="866" y="-83.5" font-family="Vera" font-size="10.00">topo.sheet.optimized.NeighborhoodMask_Opt</text>
</g>
<!-- topo.base.projection.NeighborhoodMask&#45;&gt;topo.sheet.optimized.NeighborhoodMask_Opt -->
<g id="edge16" class="edge"><title>topo.base.projection.NeighborhoodMask&#45;&gt;topo.sheet.optimized.NeighborhoodMask_Opt</title>
<path fill="none" stroke="black" stroke-width="0.5" d="M712.345,-86C722.244,-86 732.338,-86 742.384,-86"/>
<polygon fill="black" stroke="black" points="742.633,-87.7501 747.632,-86 742.632,-84.2501 742.633,-87.7501"/>
</g>
<!-- topo.base.projection.ProjectionSheet&#45;&gt;topo.base.cf.CFSheet -->
<g id="edge22" class="edge"><title>topo.base.projection.ProjectionSheet&#45;&gt;topo.base.cf.CFSheet</title>
<path fill="none" stroke="black" stroke-width="0.5" d="M963.294,-29C980.905,-29 998.869,-29 1015.26,-29"/>
<polygon fill="black" stroke="black" points="1015.29,-30.7501 1020.29,-29 1015.29,-27.2501 1015.29,-30.7501"/>
</g>
</g>
</svg>
