<?xml version="1.0" encoding="UTF-8" standalone="no"?>
<!DOCTYPE svg PUBLIC "-//W3C//DTD SVG 1.1//EN"
 "http://www.w3.org/Graphics/SVG/1.1/DTD/svg11.dtd">
<!-- Generated by graphviz version 2.26.3 (20100126.1600)
 -->
<!-- Title: inheritance1d39487c30 Pages: 1 -->
<svg width="1064pt" height="256pt"
 viewBox="0.00 0.00 1064.00 256.00" xmlns="http://www.w3.org/2000/svg" xmlns:xlink="http://www.w3.org/1999/xlink">
<g id="graph1" class="graph" transform="scale(1 1) rotate(0) translate(4 252)">
<title>inheritance1d39487c30</title>
<polygon fill="white" stroke="white" points="-4,5 -4,-252 1061,-252 1061,5 -4,5"/>
<!-- topo.tkgui.editor.EditorSheet -->
<g id="node1" class="node"><title>topo.tkgui.editor.EditorSheet</title>
<polygon fill="none" stroke="black" stroke-width="0.5" points="838,-20.5 684,-20.5 684,0.5 838,0.5 838,-20.5"/>
<text text-anchor="middle" x="761" y="-7.5" font-family="Vera" font-size="10.00">topo.tkgui.editor.EditorSheet</text>
</g>
<!-- topo.tkgui.editor.EditorEP -->
<g id="node2" class="node"><title>topo.tkgui.editor.EditorEP</title>
<polygon fill="none" stroke="black" stroke-width="0.5" points="610,-20.5 474,-20.5 474,0.5 610,0.5 610,-20.5"/>
<text text-anchor="middle" x="542" y="-7.5" font-family="Vera" font-size="10.00">topo.tkgui.editor.EditorEP</text>
</g>
<!-- topo.tkgui.editor.EditorEP&#45;&gt;topo.tkgui.editor.EditorSheet -->
<g id="edge2" class="edge"><title>topo.tkgui.editor.EditorEP&#45;&gt;topo.tkgui.editor.EditorSheet</title>
<path fill="none" stroke="black" stroke-width="0.5" d="M610.692,-10C632.267,-10 656.308,-10 678.724,-10"/>
<polygon fill="black" stroke="black" points="678.78,-11.7501 683.78,-10 678.78,-8.2501 678.78,-11.7501"/>
</g>
<!-- Tkinter.XView -->
<g id="node4" class="node"><title>Tkinter.XView</title>
<polygon fill="none" stroke="black" stroke-width="0.5" points="581,-219.5 503,-219.5 503,-198.5 581,-198.5 581,-219.5"/>
<text text-anchor="middle" x="542" y="-206.5" font-family="Vera" font-size="10.00">Tkinter.XView</text>
</g>
<!-- Tkinter.Canvas -->
<g id="node28" class="node"><title>Tkinter.Canvas</title>
<polygon fill="none" stroke="black" stroke-width="0.5" points="804,-181.5 718,-181.5 718,-160.5 804,-160.5 804,-181.5"/>
<text text-anchor="middle" x="761" y="-168.5" font-family="Vera" font-size="10.00">Tkinter.Canvas</text>
</g>
<!-- Tkinter.XView&#45;&gt;Tkinter.Canvas -->
<g id="edge26" class="edge"><title>Tkinter.XView&#45;&gt;Tkinter.Canvas</title>
<path fill="none" stroke="black" stroke-width="0.5" d="M581.659,-202.118C618.464,-195.732 673.336,-186.211 712.685,-179.383"/>
<polygon fill="black" stroke="black" points="713.261,-181.06 717.888,-178.481 712.662,-177.611 713.261,-181.06"/>
</g>
<!-- Tkinter.YView -->
<g id="node5" class="node"><title>Tkinter.YView</title>
<polygon fill="none" stroke="black" stroke-width="0.5" points="581,-181.5 503,-181.5 503,-160.5 581,-160.5 581,-181.5"/>
<text text-anchor="middle" x="542" y="-168.5" font-family="Vera" font-size="10.00">Tkinter.YView</text>
</g>
<!-- Tkinter.YView&#45;&gt;Tkinter.Canvas -->
<g id="edge28" class="edge"><title>Tkinter.YView&#45;&gt;Tkinter.Canvas</title>
<path fill="none" stroke="black" stroke-width="0.5" d="M581.153,-171C617.889,-171 672.945,-171 712.458,-171"/>
<polygon fill="black" stroke="black" points="712.684,-172.75 717.684,-171 712.684,-169.25 712.684,-172.75"/>
</g>
<!-- topo.tkgui.editor.EditorProjection -->
<g id="node6" class="node"><title>topo.tkgui.editor.EditorProjection</title>
<polygon fill="none" stroke="black" stroke-width="0.5" points="847,-58.5 675,-58.5 675,-37.5 847,-37.5 847,-58.5"/>
<text text-anchor="middle" x="761" y="-45.5" font-family="Vera" font-size="10.00">topo.tkgui.editor.EditorProjection</text>
</g>
<!-- topo.tkgui.editor.EditorEPConnection -->
<g id="node7" class="node"><title>topo.tkgui.editor.EditorEPConnection</title>
<polygon fill="none" stroke="black" stroke-width="0.5" points="637,-58.5 447,-58.5 447,-37.5 637,-37.5 637,-58.5"/>
<text text-anchor="middle" x="542" y="-45.5" font-family="Vera" font-size="10.00">topo.tkgui.editor.EditorEPConnection</text>
</g>
<!-- topo.tkgui.editor.EditorEPConnection&#45;&gt;topo.tkgui.editor.EditorProjection -->
<g id="edge4" class="edge"><title>topo.tkgui.editor.EditorEPConnection&#45;&gt;topo.tkgui.editor.EditorProjection</title>
<path fill="none" stroke="black" stroke-width="0.5" d="M637.738,-48C648.223,-48 658.878,-48 669.312,-48"/>
<polygon fill="black" stroke="black" points="669.415,-49.7501 674.415,-48 669.415,-46.2501 669.415,-49.7501"/>
</g>
<!-- topo.tkgui.editor.EditorConnection -->
<g id="node9" class="node"><title>topo.tkgui.editor.EditorConnection</title>
<polygon fill="none" stroke="black" stroke-width="0.5" points="409,-58.5 231,-58.5 231,-37.5 409,-37.5 409,-58.5"/>
<text text-anchor="middle" x="320" y="-45.5" font-family="Vera" font-size="10.00">topo.tkgui.editor.EditorConnection</text>
</g>
<!-- topo.tkgui.editor.EditorConnection&#45;&gt;topo.tkgui.editor.EditorEPConnection -->
<g id="edge20" class="edge"><title>topo.tkgui.editor.EditorConnection&#45;&gt;topo.tkgui.editor.EditorEPConnection</title>
<path fill="none" stroke="black" stroke-width="0.5" d="M409.656,-48C419.998,-48 430.596,-48 441.074,-48"/>
<polygon fill="black" stroke="black" points="441.206,-49.7501 446.206,-48 441.206,-46.2501 441.206,-49.7501"/>
</g>
<!-- topo.tkgui.editor.EditorObject -->
<g id="node10" class="node"><title>topo.tkgui.editor.EditorObject</title>
<polygon fill="none" stroke="black" stroke-width="0.5" points="175,-39.5 19,-39.5 19,-18.5 175,-18.5 175,-39.5"/>
<text text-anchor="middle" x="97" y="-26.5" font-family="Vera" font-size="10.00">topo.tkgui.editor.EditorObject</text>
</g>
<!-- topo.tkgui.editor.EditorObject&#45;&gt;topo.tkgui.editor.EditorConnection -->
<g id="edge6" class="edge"><title>topo.tkgui.editor.EditorObject&#45;&gt;topo.tkgui.editor.EditorConnection</title>
<path fill="none" stroke="black" stroke-width="0.5" d="M175.308,-35.672C191.458,-37.048 208.63,-38.5111 225.291,-39.9306"/>
<polygon fill="black" stroke="black" points="225.313,-41.6887 230.443,-40.3696 225.61,-38.2014 225.313,-41.6887"/>
</g>
<!-- topo.tkgui.editor.EditorNode -->
<g id="node15" class="node"><title>topo.tkgui.editor.EditorNode</title>
<polygon fill="none" stroke="black" stroke-width="0.5" points="395,-20.5 245,-20.5 245,0.5 395,0.5 395,-20.5"/>
<text text-anchor="middle" x="320" y="-7.5" font-family="Vera" font-size="10.00">topo.tkgui.editor.EditorNode</text>
</g>
<!-- topo.tkgui.editor.EditorObject&#45;&gt;topo.tkgui.editor.EditorNode -->
<g id="edge22" class="edge"><title>topo.tkgui.editor.EditorObject&#45;&gt;topo.tkgui.editor.EditorNode</title>
<path fill="none" stroke="black" stroke-width="0.5" d="M175.308,-22.328C195.901,-20.5734 218.157,-18.6772 238.894,-16.9104"/>
<polygon fill="black" stroke="black" points="239.298,-18.6324 244.132,-16.4641 239.001,-15.145 239.298,-18.6324"/>
</g>
<!-- param.parameterized.Parameterized -->
<g id="node12" class="node"><title>param.parameterized.Parameterized</title>
<polygon fill="none" stroke="black" stroke-width="0.5" points="194,-248.5 5.68434e-14,-248.5 0,-227.5 194,-227.5 194,-248.5"/>
<text text-anchor="middle" x="97" y="-235.5" font-family="Vera" font-size="10.00">param.parameterized.Parameterized</text>
</g>
<!-- topo.tkgui.editor.ModelEditor -->
<g id="node44" class="node"><title>topo.tkgui.editor.ModelEditor</title>
<polygon fill="none" stroke="black" stroke-width="0.5" points="397,-248.5 243,-248.5 243,-227.5 397,-227.5 397,-248.5"/>
<text text-anchor="middle" x="320" y="-235.5" font-family="Vera" font-size="10.00">topo.tkgui.editor.ModelEditor</text>
</g>
<!-- param.parameterized.Parameterized&#45;&gt;topo.tkgui.editor.ModelEditor -->
<g id="edge42" class="edge"><title>param.parameterized.Parameterized&#45;&gt;topo.tkgui.editor.ModelEditor</title>
<path fill="none" stroke="black" stroke-width="0.5" d="M194.162,-238C208.692,-238 223.553,-238 237.735,-238"/>
<polygon fill="black" stroke="black" points="237.927,-239.75 242.927,-238 237.927,-236.25 237.927,-239.75"/>
</g>
<!-- Tkinter.Pack -->
<g id="node13" class="node"><title>Tkinter.Pack</title>
<polygon fill="none" stroke="black" stroke-width="0.5" points="356,-210.5 284,-210.5 284,-189.5 356,-189.5 356,-210.5"/>
<text text-anchor="middle" x="320" y="-197.5" font-family="Vera" font-size="10.00">Tkinter.Pack</text>
</g>
<!-- Tkinter.Widget -->
<g id="node21" class="node"><title>Tkinter.Widget</title>
<polygon fill="none" stroke="black" stroke-width="0.5" points="583,-143.5 501,-143.5 501,-122.5 583,-122.5 583,-143.5"/>
<text text-anchor="middle" x="542" y="-130.5" font-family="Vera" font-size="10.00">Tkinter.Widget</text>
</g>
<!-- Tkinter.Pack&#45;&gt;Tkinter.Widget -->
<g id="edge14" class="edge"><title>Tkinter.Pack&#45;&gt;Tkinter.Widget</title>
<path fill="none" stroke="black" stroke-width="0.5" d="M356.732,-196.223C373.562,-193.507 393.409,-188.874 410,-181 428.562,-172.191 427.383,-160.691 446,-152 461.347,-144.836 479.299,-140.37 495.499,-137.587"/>
<polygon fill="black" stroke="black" points="495.813,-139.309 500.466,-136.777 495.249,-135.855 495.813,-139.309"/>
</g>
<!-- Tkinter.Place -->
<g id="node14" class="node"><title>Tkinter.Place</title>
<polygon fill="none" stroke="black" stroke-width="0.5" points="358,-172.5 282,-172.5 282,-151.5 358,-151.5 358,-172.5"/>
<text text-anchor="middle" x="320" y="-159.5" font-family="Vera" font-size="10.00">Tkinter.Place</text>
</g>
<!-- Tkinter.Place&#45;&gt;Tkinter.Widget -->
<g id="edge16" class="edge"><title>Tkinter.Place&#45;&gt;Tkinter.Widget</title>
<path fill="none" stroke="black" stroke-width="0.5" d="M358.669,-156.949C396.595,-151.994 454.475,-144.433 495.028,-139.136"/>
<polygon fill="black" stroke="black" points="495.651,-140.82 500.382,-138.437 495.197,-137.349 495.651,-140.82"/>
</g>
<!-- topo.tkgui.editor.EditorNode&#45;&gt;topo.tkgui.editor.EditorEP -->
<g id="edge8" class="edge"><title>topo.tkgui.editor.EditorNode&#45;&gt;topo.tkgui.editor.EditorEP</title>
<path fill="none" stroke="black" stroke-width="0.5" d="M395.779,-10C419.134,-10 444.811,-10 468.042,-10"/>
<polygon fill="black" stroke="black" points="468.269,-11.7501 473.269,-10 468.269,-8.2501 468.269,-11.7501"/>
</g>
<!-- Tkinter.Grid -->
<g id="node17" class="node"><title>Tkinter.Grid</title>
<polygon fill="none" stroke="black" stroke-width="0.5" points="355,-134.5 285,-134.5 285,-113.5 355,-113.5 355,-134.5"/>
<text text-anchor="middle" x="320" y="-121.5" font-family="Vera" font-size="10.00">Tkinter.Grid</text>
</g>
<!-- Tkinter.Grid&#45;&gt;Tkinter.Widget -->
<g id="edge18" class="edge"><title>Tkinter.Grid&#45;&gt;Tkinter.Widget</title>
<path fill="none" stroke="black" stroke-width="0.5" d="M355.668,-125.446C393.516,-126.98 453.488,-129.412 495.13,-131.1"/>
<polygon fill="black" stroke="black" points="495.303,-132.858 500.37,-131.312 495.445,-129.361 495.303,-132.858"/>
</g>
<!-- Tkinter.BaseWidget -->
<g id="node18" class="node"><title>Tkinter.BaseWidget</title>
<polygon fill="none" stroke="black" stroke-width="0.5" points="373,-96.5 267,-96.5 267,-75.5 373,-75.5 373,-96.5"/>
<text text-anchor="middle" x="320" y="-83.5" font-family="Vera" font-size="10.00">Tkinter.BaseWidget</text>
</g>
<!-- Tkinter.BaseWidget&#45;&gt;Tkinter.Widget -->
<g id="edge12" class="edge"><title>Tkinter.BaseWidget&#45;&gt;Tkinter.Widget</title>
<path fill="none" stroke="black" stroke-width="0.5" d="M367.644,-96.0492C381.32,-98.9363 396.251,-102.091 410,-105 438.362,-111.002 470.149,-117.744 495.422,-123.108"/>
<polygon fill="black" stroke="black" points="495.132,-124.836 500.387,-124.162 495.859,-121.412 495.132,-124.836"/>
</g>
<!-- Tkinter.Misc -->
<g id="node19" class="node"><title>Tkinter.Misc</title>
<polygon fill="none" stroke="black" stroke-width="0.5" points="133,-96.5 61,-96.5 61,-75.5 133,-75.5 133,-96.5"/>
<text text-anchor="middle" x="97" y="-83.5" font-family="Vera" font-size="10.00">Tkinter.Misc</text>
</g>
<!-- Tkinter.Misc&#45;&gt;Tkinter.BaseWidget -->
<g id="edge10" class="edge"><title>Tkinter.Misc&#45;&gt;Tkinter.BaseWidget</title>
<path fill="none" stroke="black" stroke-width="0.5" d="M133.325,-86C167.814,-86 220.266,-86 260.798,-86"/>
<polygon fill="black" stroke="black" points="261.182,-87.7501 266.182,-86 261.182,-84.2501 261.182,-87.7501"/>
</g>
<!-- Tkinter.Widget&#45;&gt;Tkinter.Canvas -->
<g id="edge24" class="edge"><title>Tkinter.Widget&#45;&gt;Tkinter.Canvas</title>
<path fill="none" stroke="black" stroke-width="0.5" d="M583.708,-140.237C620.527,-146.626 674.204,-155.94 712.841,-162.644"/>
<polygon fill="black" stroke="black" points="712.726,-164.4 717.951,-163.53 713.324,-160.951 712.726,-164.4"/>
</g>
<!-- Tkinter.Frame -->
<g id="node35" class="node"><title>Tkinter.Frame</title>
<polygon fill="none" stroke="black" stroke-width="0.5" points="801,-115.5 721,-115.5 721,-94.5 801,-94.5 801,-115.5"/>
<text text-anchor="middle" x="761" y="-102.5" font-family="Vera" font-size="10.00">Tkinter.Frame</text>
</g>
<!-- Tkinter.Widget&#45;&gt;Tkinter.Frame -->
<g id="edge36" class="edge"><title>Tkinter.Widget&#45;&gt;Tkinter.Frame</title>
<path fill="none" stroke="black" stroke-width="0.5" d="M583.708,-127.668C621.239,-122.869 676.289,-115.831 715.067,-110.873"/>
<polygon fill="black" stroke="black" points="715.451,-112.588 720.189,-110.218 715.007,-109.116 715.451,-112.588"/>
</g>
<!-- topo.tkgui.editor.EditorCanvas -->
<g id="node32" class="node"><title>topo.tkgui.editor.EditorCanvas</title>
<polygon fill="none" stroke="black" stroke-width="0.5" points="1050,-191.5 890,-191.5 890,-170.5 1050,-170.5 1050,-191.5"/>
<text text-anchor="middle" x="970" y="-178.5" font-family="Vera" font-size="10.00">topo.tkgui.editor.EditorCanvas</text>
</g>
<!-- Tkinter.Canvas&#45;&gt;topo.tkgui.editor.EditorCanvas -->
<g id="edge30" class="edge"><title>Tkinter.Canvas&#45;&gt;topo.tkgui.editor.EditorCanvas</title>
<path fill="none" stroke="black" stroke-width="0.5" d="M804.052,-173.06C827.225,-174.169 856.652,-175.577 884.27,-176.898"/>
<polygon fill="black" stroke="black" points="884.326,-178.653 889.404,-177.144 884.494,-175.157 884.326,-178.653"/>
</g>
<!-- topo.tkgui.editor.ArrowTool -->
<g id="node34" class="node"><title>topo.tkgui.editor.ArrowTool</title>
<polygon fill="none" stroke="black" stroke-width="0.5" points="1041,-153.5 899,-153.5 899,-132.5 1041,-132.5 1041,-153.5"/>
<text text-anchor="middle" x="970" y="-140.5" font-family="Vera" font-size="10.00">topo.tkgui.editor.ArrowTool</text>
</g>
<!-- Tkinter.Frame&#45;&gt;topo.tkgui.editor.ArrowTool -->
<g id="edge32" class="edge"><title>Tkinter.Frame&#45;&gt;topo.tkgui.editor.ArrowTool</title>
<path fill="none" stroke="black" stroke-width="0.5" d="M801.793,-112.417C832.478,-117.996 875.012,-125.729 909.631,-132.024"/>
<polygon fill="black" stroke="black" points="909.446,-133.769 914.679,-132.942 910.072,-130.325 909.446,-133.769"/>
</g>
<!-- topo.tkgui.editor.NodeTool -->
<g id="node37" class="node"><title>topo.tkgui.editor.NodeTool</title>
<polygon fill="none" stroke="black" stroke-width="0.5" points="1040,-115.5 900,-115.5 900,-94.5 1040,-94.5 1040,-115.5"/>
<text text-anchor="middle" x="970" y="-102.5" font-family="Vera" font-size="10.00">topo.tkgui.editor.NodeTool</text>
</g>
<!-- Tkinter.Frame&#45;&gt;topo.tkgui.editor.NodeTool -->
<g id="edge34" class="edge"><title>Tkinter.Frame&#45;&gt;topo.tkgui.editor.NodeTool</title>
<path fill="none" stroke="black" stroke-width="0.5" d="M801.793,-105C827.959,-105 862.741,-105 893.884,-105"/>
<polygon fill="black" stroke="black" points="894.25,-106.75 899.25,-105 894.25,-103.25 894.25,-106.75"/>
</g>
<!-- topo.tkgui.editor.ConnectionTool -->
<g id="node40" class="node"><title>topo.tkgui.editor.ConnectionTool</title>
<polygon fill="none" stroke="black" stroke-width="0.5" points="1055,-77.5 885,-77.5 885,-56.5 1055,-56.5 1055,-77.5"/>
<text text-anchor="middle" x="970" y="-64.5" font-family="Vera" font-size="10.00">topo.tkgui.editor.ConnectionTool</text>
</g>
<!-- Tkinter.Frame&#45;&gt;topo.tkgui.editor.ConnectionTool -->
<g id="edge38" class="edge"><title>Tkinter.Frame&#45;&gt;topo.tkgui.editor.ConnectionTool</title>
<path fill="none" stroke="black" stroke-width="0.5" d="M801.793,-97.583C832.478,-92.0041 875.012,-84.2705 909.631,-77.9762"/>
<polygon fill="black" stroke="black" points="910.072,-79.6747 914.679,-77.0584 909.446,-76.2312 910.072,-79.6747"/>
</g>
<!-- topo.tkgui.editor.ParametersTool -->
<g id="node42" class="node"><title>topo.tkgui.editor.ParametersTool</title>
<polygon fill="none" stroke="black" stroke-width="0.5" points="1055,-39.5 885,-39.5 885,-18.5 1055,-18.5 1055,-39.5"/>
<text text-anchor="middle" x="970" y="-26.5" font-family="Vera" font-size="10.00">topo.tkgui.editor.ParametersTool</text>
</g>
<!-- Tkinter.Frame&#45;&gt;topo.tkgui.editor.ParametersTool -->
<g id="edge40" class="edge"><title>Tkinter.Frame&#45;&gt;topo.tkgui.editor.ParametersTool</title>
<path fill="none" stroke="black" stroke-width="0.5" d="M785.219,-94.9879C802.795,-87.5854 827.061,-77.0816 848,-67 864.301,-59.1517 867.015,-54.2296 884,-48 891.965,-45.0787 900.517,-42.5312 909.028,-40.3327"/>
<polygon fill="black" stroke="black" points="909.891,-41.9207 914.316,-39.0087 909.041,-38.5255 909.891,-41.9207"/>
</g>
</g>
</svg>
