<?xml version="1.0" encoding="UTF-8" standalone="no"?>
<!DOCTYPE svg PUBLIC "-//W3C//DTD SVG 1.1//EN"
 "http://www.w3.org/Graphics/SVG/1.1/DTD/svg11.dtd">
<!-- Generated by graphviz version 2.26.3 (20100126.1600)
 -->
<!-- Title: inheritancee08cba1177 Pages: 1 -->
<svg width="1548pt" height="104pt"
 viewBox="0.00 0.00 1548.00 104.00" xmlns="http://www.w3.org/2000/svg" xmlns:xlink="http://www.w3.org/1999/xlink">
<g id="graph1" class="graph" transform="scale(1 1) rotate(0) translate(4 100)">
<title>inheritancee08cba1177</title>
<polygon fill="white" stroke="white" points="-4,5 -4,-100 1545,-100 1545,5 -4,5"/>
<!-- topo.sheet.ActivityCopy -->
<g id="node1" class="node"><title>topo.sheet.ActivityCopy</title>
<polygon fill="none" stroke="black" stroke-width="0.5" points="792,-96 670,-96 670,-76 792,-76 792,-96"/>
<text text-anchor="middle" x="731" y="-83" font-family="Vera" font-size="10.00">topo.sheet.ActivityCopy</text>
</g>
<!-- topo.base.sheet.Sheet -->
<g id="node2" class="node"><title>topo.base.sheet.Sheet</title>
<polygon fill="none" stroke="black" stroke-width="0.5" points="592,-58 476,-58 476,-38 592,-38 592,-58"/>
<text text-anchor="middle" x="534" y="-45" font-family="Vera" font-size="10.00">topo.base.sheet.Sheet</text>
</g>
<!-- topo.base.sheet.Sheet&#45;&gt;topo.sheet.ActivityCopy -->
<g id="edge2" class="edge"><title>topo.base.sheet.Sheet&#45;&gt;topo.sheet.ActivityCopy</title>
<path fill="none" stroke="black" stroke-width="0.5" d="M582.757,-58.0192C597.302,-60.9639 613.288,-64.1564 628,-67 641.754,-69.6584 656.558,-72.4375 670.534,-75.0238"/>
<polygon fill="black" stroke="black" points="670.407,-76.7799 675.642,-75.9674 671.043,-73.3382 670.407,-76.7799"/>
</g>
<!-- topo.base.projection.ProjectionSheet -->
<g id="node7" class="node"><title>topo.base.projection.ProjectionSheet</title>
<polygon fill="none" stroke="black" stroke-width="0.5" points="823,-58 639,-58 639,-38 823,-38 823,-58"/>
<text text-anchor="middle" x="731" y="-45" font-family="Vera" font-size="10.00">topo.base.projection.ProjectionSheet</text>
</g>
<!-- topo.base.sheet.Sheet&#45;&gt;topo.base.projection.ProjectionSheet -->
<g id="edge6" class="edge"><title>topo.base.sheet.Sheet&#45;&gt;topo.base.projection.ProjectionSheet</title>
<path fill="none" stroke="black" stroke-width="0.5" d="M592.041,-48C605.081,-48 619.265,-48 633.424,-48"/>
<polygon fill="black" stroke="black" points="633.638,-49.7501 638.638,-48 633.638,-46.2501 633.638,-49.7501"/>
</g>
<!-- topo.misc.generatorsheet.GeneratorSheet -->
<g id="node19" class="node"><title>topo.misc.generatorsheet.GeneratorSheet</title>
<polygon fill="none" stroke="black" stroke-width="0.5" points="834,-20 628,-20 628,-1.06581e-14 834,-3.55271e-15 834,-20"/>
<text text-anchor="middle" x="731" y="-7" font-family="Vera" font-size="10.00">topo.misc.generatorsheet.GeneratorSheet</text>
</g>
<!-- topo.base.sheet.Sheet&#45;&gt;topo.misc.generatorsheet.GeneratorSheet -->
<g id="edge18" class="edge"><title>topo.base.sheet.Sheet&#45;&gt;topo.misc.generatorsheet.GeneratorSheet</title>
<path fill="none" stroke="black" stroke-width="0.5" d="M582.757,-37.9808C597.302,-35.0361 613.288,-31.8436 628,-29 641.754,-26.3416 656.558,-23.5625 670.534,-20.9762"/>
<polygon fill="black" stroke="black" points="671.043,-22.6618 675.642,-20.0326 670.407,-19.2201 671.043,-22.6618"/>
</g>
<!-- topo.sheet.JointNormalizingCFSheet -->
<g id="node4" class="node"><title>topo.sheet.JointNormalizingCFSheet</title>
<polygon fill="none" stroke="black" stroke-width="0.5" points="1267,-58 1089,-58 1089,-38 1267,-38 1267,-58"/>
<text text-anchor="middle" x="1178" y="-45" font-family="Vera" font-size="10.00">topo.sheet.JointNormalizingCFSheet</text>
</g>
<!-- topo.sheet.SettlingCFSheet -->
<g id="node10" class="node"><title>topo.sheet.SettlingCFSheet</title>
<polygon fill="none" stroke="black" stroke-width="0.5" points="1490,-77 1354,-77 1354,-57 1490,-57 1490,-77"/>
<text text-anchor="middle" x="1422" y="-64" font-family="Vera" font-size="10.00">topo.sheet.SettlingCFSheet</text>
</g>
<!-- topo.sheet.JointNormalizingCFSheet&#45;&gt;topo.sheet.SettlingCFSheet -->
<g id="edge8" class="edge"><title>topo.sheet.JointNormalizingCFSheet&#45;&gt;topo.sheet.SettlingCFSheet</title>
<path fill="none" stroke="black" stroke-width="0.5" d="M1267.82,-54.994C1294.31,-57.0573 1322.99,-59.2904 1348.35,-61.2648"/>
<polygon fill="black" stroke="black" points="1348.25,-63.0125 1353.37,-61.6561 1348.52,-59.5231 1348.25,-63.0125"/>
</g>
<!-- topo.sheet.JointNormalizingCFSheet_Continuous -->
<g id="node16" class="node"><title>topo.sheet.JointNormalizingCFSheet_Continuous</title>
<polygon fill="none" stroke="black" stroke-width="0.5" points="1540,-39 1304,-39 1304,-19 1540,-19 1540,-39"/>
<text text-anchor="middle" x="1422" y="-26" font-family="Vera" font-size="10.00">topo.sheet.JointNormalizingCFSheet_Continuous</text>
</g>
<!-- topo.sheet.JointNormalizingCFSheet&#45;&gt;topo.sheet.JointNormalizingCFSheet_Continuous -->
<g id="edge14" class="edge"><title>topo.sheet.JointNormalizingCFSheet&#45;&gt;topo.sheet.JointNormalizingCFSheet_Continuous</title>
<path fill="none" stroke="black" stroke-width="0.5" d="M1267.82,-41.006C1277.86,-40.224 1288.22,-39.4176 1298.59,-38.6102"/>
<polygon fill="black" stroke="black" points="1298.83,-40.3468 1303.68,-38.2138 1298.55,-36.8573 1298.83,-40.3468"/>
</g>
<!-- topo.base.cf.CFSheet -->
<g id="node5" class="node"><title>topo.base.cf.CFSheet</title>
<polygon fill="none" stroke="black" stroke-width="0.5" points="1016,-58 906,-58 906,-38 1016,-38 1016,-58"/>
<text text-anchor="middle" x="961" y="-45" font-family="Vera" font-size="10.00">topo.base.cf.CFSheet</text>
</g>
<!-- topo.base.cf.CFSheet&#45;&gt;topo.sheet.JointNormalizingCFSheet -->
<g id="edge4" class="edge"><title>topo.base.cf.CFSheet&#45;&gt;topo.sheet.JointNormalizingCFSheet</title>
<path fill="none" stroke="black" stroke-width="0.5" d="M1016.6,-48C1036.91,-48 1060.5,-48 1083.27,-48"/>
<polygon fill="black" stroke="black" points="1083.42,-49.7501 1088.42,-48 1083.42,-46.2501 1083.42,-49.7501"/>
</g>
<!-- topo.base.projection.ProjectionSheet&#45;&gt;topo.base.cf.CFSheet -->
<g id="edge22" class="edge"><title>topo.base.projection.ProjectionSheet&#45;&gt;topo.base.cf.CFSheet</title>
<path fill="none" stroke="black" stroke-width="0.5" d="M823.225,-48C849.018,-48 876.405,-48 899.908,-48"/>
<polygon fill="black" stroke="black" points="900.172,-49.7501 905.172,-48 900.172,-46.2501 900.172,-49.7501"/>
</g>
<!-- param.parameterized.Parameterized -->
<g id="node9" class="node"><title>param.parameterized.Parameterized</title>
<polygon fill="none" stroke="black" stroke-width="0.5" points="184,-77 8.52651e-14,-77 0,-57 184,-57 184,-77"/>
<text text-anchor="middle" x="92" y="-64" font-family="Vera" font-size="10.00">param.parameterized.Parameterized</text>
</g>
<!-- topo.base.simulation.EventProcessor -->
<g id="node12" class="node"><title>topo.base.simulation.EventProcessor</title>
<polygon fill="none" stroke="black" stroke-width="0.5" points="422,-77 238,-77 238,-57 422,-57 422,-77"/>
<text text-anchor="middle" x="330" y="-64" font-family="Vera" font-size="10.00">topo.base.simulation.EventProcessor</text>
</g>
<!-- param.parameterized.Parameterized&#45;&gt;topo.base.simulation.EventProcessor -->
<g id="edge20" class="edge"><title>param.parameterized.Parameterized&#45;&gt;topo.base.simulation.EventProcessor</title>
<path fill="none" stroke="black" stroke-width="0.5" d="M184.017,-67C199.882,-67 216.423,-67 232.429,-67"/>
<polygon fill="black" stroke="black" points="232.835,-68.7501 237.835,-67 232.835,-65.2501 232.835,-68.7501"/>
</g>
<!-- topo.base.simulation.EventProcessor&#45;&gt;topo.base.sheet.Sheet -->
<g id="edge10" class="edge"><title>topo.base.simulation.EventProcessor&#45;&gt;topo.base.sheet.Sheet</title>
<path fill="none" stroke="black" stroke-width="0.5" d="M422.152,-58.4172C438.564,-56.8886 455.319,-55.3281 470.696,-53.8959"/>
<polygon fill="black" stroke="black" points="471.04,-55.6216 475.856,-53.4154 470.715,-52.1367 471.04,-55.6216"/>
</g>
<!-- imagen.sheetcoords.SheetCoordinateSystem -->
<g id="node14" class="node"><title>imagen.sheetcoords.SheetCoordinateSystem</title>
<polygon fill="none" stroke="black" stroke-width="0.5" points="439,-39 221,-39 221,-19 439,-19 439,-39"/>
<text text-anchor="middle" x="330" y="-26" font-family="Vera" font-size="10.00">imagen.sheetcoords.SheetCoordinateSystem</text>
</g>
<!-- imagen.sheetcoords.SheetCoordinateSystem&#45;&gt;topo.base.sheet.Sheet -->
<g id="edge12" class="edge"><title>imagen.sheetcoords.SheetCoordinateSystem&#45;&gt;topo.base.sheet.Sheet</title>
<path fill="none" stroke="black" stroke-width="0.5" d="M437.377,-39.0008C448.76,-40.061 460.054,-41.1129 470.69,-42.1035"/>
<polygon fill="black" stroke="black" points="470.715,-43.8633 475.855,-42.5846 471.039,-40.3783 470.715,-43.8633"/>
</g>
<!-- topo.sheet.SequenceGeneratorSheet -->
<g id="node18" class="node"><title>topo.sheet.SequenceGeneratorSheet</title>
<polygon fill="none" stroke="black" stroke-width="0.5" points="1052,-20 870,-20 870,-1.06581e-14 1052,-3.55271e-15 1052,-20"/>
<text text-anchor="middle" x="961" y="-7" font-family="Vera" font-size="10.00">topo.sheet.SequenceGeneratorSheet</text>
</g>
<!-- topo.misc.generatorsheet.GeneratorSheet&#45;&gt;topo.sheet.SequenceGeneratorSheet -->
<g id="edge16" class="edge"><title>topo.misc.generatorsheet.GeneratorSheet&#45;&gt;topo.sheet.SequenceGeneratorSheet</title>
<path fill="none" stroke="black" stroke-width="0.5" d="M834.226,-10C844.294,-10 854.484,-10 864.482,-10"/>
<polygon fill="black" stroke="black" points="864.691,-11.7501 869.691,-10 864.691,-8.2501 864.691,-11.7501"/>
</g>
</g>
</svg>
