<?xml version="1.0" encoding="UTF-8" standalone="no"?>
<!DOCTYPE svg PUBLIC "-//W3C//DTD SVG 1.1//EN"
 "http://www.w3.org/Graphics/SVG/1.1/DTD/svg11.dtd">
<!-- Generated by graphviz version 2.26.3 (20100126.1600)
 -->
<!-- Title: inheritancefc96a479df Pages: 1 -->
<svg width="812pt" height="332pt"
 viewBox="0.00 0.00 812.00 332.00" xmlns="http://www.w3.org/2000/svg" xmlns:xlink="http://www.w3.org/1999/xlink">
<g id="graph1" class="graph" transform="scale(1 1) rotate(0) translate(4 328)">
<title>inheritancefc96a479df</title>
<polygon fill="white" stroke="white" points="-4,5 -4,-328 809,-328 809,5 -4,5"/>
<!-- lancet.core.LexSorted -->
<g id="node1" class="node"><title>lancet.core.LexSorted</title>
<polygon fill="none" stroke="black" stroke-width="0.5" points="773,-324.5 651,-324.5 651,-303.5 773,-303.5 773,-324.5"/>
<text text-anchor="middle" x="712" y="-311.5" font-family="Vera" font-size="10.00">lancet.core.LexSorted</text>
</g>
<!-- lancet.core.StaticArgs -->
<g id="node2" class="node"><title>lancet.core.StaticArgs</title>
<polygon fill="none" stroke="black" stroke-width="0.5" points="546,-172.5 424,-172.5 424,-151.5 546,-151.5 546,-172.5"/>
<text text-anchor="middle" x="485" y="-159.5" font-family="Vera" font-size="10.00">lancet.core.StaticArgs</text>
</g>
<!-- lancet.core.StaticArgs&#45;&gt;lancet.core.LexSorted -->
<g id="edge2" class="edge"><title>lancet.core.StaticArgs&#45;&gt;lancet.core.LexSorted</title>
<path fill="none" stroke="black" stroke-width="0.5" d="M492.12,-172.318C510.226,-197.692 560.805,-263.365 620,-295 628.01,-299.281 636.889,-302.598 645.879,-305.169"/>
<polygon fill="black" stroke="black" points="645.597,-306.905 650.88,-306.521 646.511,-303.527 645.597,-306.905"/>
</g>
<!-- lancet.core.StaticConcatenate -->
<g id="node10" class="node"><title>lancet.core.StaticConcatenate</title>
<polygon fill="none" stroke="black" stroke-width="0.5" points="793,-286.5 631,-286.5 631,-265.5 793,-265.5 793,-286.5"/>
<text text-anchor="middle" x="712" y="-273.5" font-family="Vera" font-size="10.00">lancet.core.StaticConcatenate</text>
</g>
<!-- lancet.core.StaticArgs&#45;&gt;lancet.core.StaticConcatenate -->
<g id="edge10" class="edge"><title>lancet.core.StaticArgs&#45;&gt;lancet.core.StaticConcatenate</title>
<path fill="none" stroke="black" stroke-width="0.5" d="M495.941,-172.132C517.757,-191.747 568.975,-234.918 620,-257 626.81,-259.947 634.106,-262.447 641.499,-264.565"/>
<polygon fill="black" stroke="black" points="641.344,-266.337 646.629,-265.972 642.27,-262.962 641.344,-266.337"/>
</g>
<!-- lancet.core.Args -->
<g id="node14" class="node"><title>lancet.core.Args</title>
<polygon fill="none" stroke="black" stroke-width="0.5" points="759,-248.5 665,-248.5 665,-227.5 759,-227.5 759,-248.5"/>
<text text-anchor="middle" x="712" y="-235.5" font-family="Vera" font-size="10.00">lancet.core.Args</text>
</g>
<!-- lancet.core.StaticArgs&#45;&gt;lancet.core.Args -->
<g id="edge14" class="edge"><title>lancet.core.StaticArgs&#45;&gt;lancet.core.Args</title>
<path fill="none" stroke="black" stroke-width="0.5" d="M505.57,-172.185C531.638,-184.739 578.216,-206.002 620,-219 632.511,-222.892 646.23,-226.212 659.166,-228.936"/>
<polygon fill="black" stroke="black" points="659.021,-230.693 664.272,-229.99 659.728,-227.265 659.021,-230.693"/>
</g>
<!-- lancet.core.FilePattern -->
<g id="node16" class="node"><title>lancet.core.FilePattern</title>
<polygon fill="none" stroke="black" stroke-width="0.5" points="773,-210.5 651,-210.5 651,-189.5 773,-189.5 773,-210.5"/>
<text text-anchor="middle" x="712" y="-197.5" font-family="Vera" font-size="10.00">lancet.core.FilePattern</text>
</g>
<!-- lancet.core.StaticArgs&#45;&gt;lancet.core.FilePattern -->
<g id="edge16" class="edge"><title>lancet.core.StaticArgs&#45;&gt;lancet.core.FilePattern</title>
<path fill="none" stroke="black" stroke-width="0.5" d="M544.939,-172.034C576.359,-177.294 614.885,-183.743 647.019,-189.122"/>
<polygon fill="black" stroke="black" points="646.899,-190.876 652.12,-189.976 647.477,-187.424 646.899,-190.876"/>
</g>
<!-- lancet.core.LinearArgs -->
<g id="node18" class="node"><title>lancet.core.LinearArgs</title>
<polygon fill="none" stroke="black" stroke-width="0.5" points="774,-172.5 650,-172.5 650,-151.5 774,-151.5 774,-172.5"/>
<text text-anchor="middle" x="712" y="-159.5" font-family="Vera" font-size="10.00">lancet.core.LinearArgs</text>
</g>
<!-- lancet.core.StaticArgs&#45;&gt;lancet.core.LinearArgs -->
<g id="edge18" class="edge"><title>lancet.core.StaticArgs&#45;&gt;lancet.core.LinearArgs</title>
<path fill="none" stroke="black" stroke-width="0.5" d="M546.13,-162C576.544,-162 613.382,-162 644.61,-162"/>
<polygon fill="black" stroke="black" points="644.971,-163.75 649.971,-162 644.971,-160.25 644.971,-163.75"/>
</g>
<!-- lancet.core.Log -->
<g id="node20" class="node"><title>lancet.core.Log</title>
<polygon fill="none" stroke="black" stroke-width="0.5" points="757,-134.5 667,-134.5 667,-113.5 757,-113.5 757,-134.5"/>
<text text-anchor="middle" x="712" y="-121.5" font-family="Vera" font-size="10.00">lancet.core.Log</text>
</g>
<!-- lancet.core.StaticArgs&#45;&gt;lancet.core.Log -->
<g id="edge20" class="edge"><title>lancet.core.StaticArgs&#45;&gt;lancet.core.Log</title>
<path fill="none" stroke="black" stroke-width="0.5" d="M544.939,-151.966C581.371,-145.867 627.357,-138.169 661.854,-132.394"/>
<polygon fill="black" stroke="black" points="662.215,-134.108 666.858,-131.557 661.638,-130.656 662.215,-134.108"/>
</g>
<!-- lancet.core.Indexed -->
<g id="node24" class="node"><title>lancet.core.Indexed</title>
<polygon fill="none" stroke="black" stroke-width="0.5" points="767,-96.5 657,-96.5 657,-75.5 767,-75.5 767,-96.5"/>
<text text-anchor="middle" x="712" y="-83.5" font-family="Vera" font-size="10.00">lancet.core.Indexed</text>
</g>
<!-- lancet.core.StaticArgs&#45;&gt;lancet.core.Indexed -->
<g id="edge24" class="edge"><title>lancet.core.StaticArgs&#45;&gt;lancet.core.Indexed</title>
<path fill="none" stroke="black" stroke-width="0.5" d="M546.222,-156.392C559.223,-153.546 572.487,-149.305 584,-143 604.405,-131.826 599.674,-116.317 620,-105 629.638,-99.6335 640.606,-95.7764 651.528,-93.0058"/>
<polygon fill="black" stroke="black" points="652.082,-94.6727 656.538,-91.8077 651.268,-91.2687 652.082,-94.6727"/>
</g>
<!-- lancet.core.ListArgs -->
<g id="node26" class="node"><title>lancet.core.ListArgs</title>
<polygon fill="none" stroke="black" stroke-width="0.5" points="767,-58.5 657,-58.5 657,-37.5 767,-37.5 767,-58.5"/>
<text text-anchor="middle" x="712" y="-45.5" font-family="Vera" font-size="10.00">lancet.core.ListArgs</text>
</g>
<!-- lancet.core.StaticArgs&#45;&gt;lancet.core.ListArgs -->
<g id="edge26" class="edge"><title>lancet.core.StaticArgs&#45;&gt;lancet.core.ListArgs</title>
<path fill="none" stroke="black" stroke-width="0.5" d="M546.118,-159.397C559.629,-156.452 573.138,-151.413 584,-143 613.549,-120.113 590.612,-90.0936 620,-67 629.008,-59.9216 639.998,-55.2971 651.206,-52.3129"/>
<polygon fill="black" stroke="black" points="651.922,-53.9397 656.364,-51.0543 651.092,-50.5394 651.922,-53.9397"/>
</g>
<!-- lancet.core.StaticCartesianProduct -->
<g id="node28" class="node"><title>lancet.core.StaticCartesianProduct</title>
<polygon fill="none" stroke="black" stroke-width="0.5" points="803,-20.5 621,-20.5 621,0.5 803,0.5 803,-20.5"/>
<text text-anchor="middle" x="712" y="-7.5" font-family="Vera" font-size="10.00">lancet.core.StaticCartesianProduct</text>
</g>
<!-- lancet.core.StaticArgs&#45;&gt;lancet.core.StaticCartesianProduct -->
<g id="edge28" class="edge"><title>lancet.core.StaticArgs&#45;&gt;lancet.core.StaticCartesianProduct</title>
<path fill="none" stroke="black" stroke-width="0.5" d="M546.209,-160.606C559.951,-157.654 573.541,-152.308 584,-143 623.69,-107.676 580.559,-64.6022 620,-29 622.542,-26.7051 625.287,-24.6588 628.183,-22.8359"/>
<polygon fill="black" stroke="black" points="629.389,-24.1609 632.851,-20.1514 627.645,-21.1267 629.389,-24.1609"/>
</g>
<!-- lancet.core.BaseArgs -->
<g id="node4" class="node"><title>lancet.core.BaseArgs</title>
<polygon fill="none" stroke="black" stroke-width="0.5" points="349,-134.5 231,-134.5 231,-113.5 349,-113.5 349,-134.5"/>
<text text-anchor="middle" x="290" y="-121.5" font-family="Vera" font-size="10.00">lancet.core.BaseArgs</text>
</g>
<!-- lancet.core.BaseArgs&#45;&gt;lancet.core.StaticArgs -->
<g id="edge8" class="edge"><title>lancet.core.BaseArgs&#45;&gt;lancet.core.StaticArgs</title>
<path fill="none" stroke="black" stroke-width="0.5" d="M340.311,-134.014C355.033,-136.929 371.158,-140.107 386,-143 399.463,-145.624 413.962,-148.422 427.6,-151.042"/>
<polygon fill="black" stroke="black" points="427.342,-152.775 432.583,-151.999 428.002,-149.337 427.342,-152.775"/>
</g>
<!-- lancet.core.DynamicConcatenate -->
<g id="node7" class="node"><title>lancet.core.DynamicConcatenate</title>
<polygon fill="none" stroke="black" stroke-width="0.5" points="573,-134.5 397,-134.5 397,-113.5 573,-113.5 573,-134.5"/>
<text text-anchor="middle" x="485" y="-121.5" font-family="Vera" font-size="10.00">lancet.core.DynamicConcatenate</text>
</g>
<!-- lancet.core.BaseArgs&#45;&gt;lancet.core.DynamicConcatenate -->
<g id="edge6" class="edge"><title>lancet.core.BaseArgs&#45;&gt;lancet.core.DynamicConcatenate</title>
<path fill="none" stroke="black" stroke-width="0.5" d="M349.566,-124C362.833,-124 377.211,-124 391.474,-124"/>
<polygon fill="black" stroke="black" points="391.722,-125.75 396.722,-124 391.722,-122.25 391.722,-125.75"/>
</g>
<!-- lancet.core.DynamicCartesianProduct -->
<g id="node12" class="node"><title>lancet.core.DynamicCartesianProduct</title>
<polygon fill="none" stroke="black" stroke-width="0.5" points="583,-96.5 387,-96.5 387,-75.5 583,-75.5 583,-96.5"/>
<text text-anchor="middle" x="485" y="-83.5" font-family="Vera" font-size="10.00">lancet.core.DynamicCartesianProduct</text>
</g>
<!-- lancet.core.BaseArgs&#45;&gt;lancet.core.DynamicCartesianProduct -->
<g id="edge12" class="edge"><title>lancet.core.BaseArgs&#45;&gt;lancet.core.DynamicCartesianProduct</title>
<path fill="none" stroke="black" stroke-width="0.5" d="M340.311,-113.986C355.033,-111.071 371.158,-107.893 386,-105 399.463,-102.376 413.962,-99.5776 427.6,-96.9578"/>
<polygon fill="black" stroke="black" points="428.002,-98.6627 432.583,-96.0014 427.342,-95.2255 428.002,-98.6627"/>
</g>
<!-- param.parameterized.Parameterized -->
<g id="node5" class="node"><title>param.parameterized.Parameterized</title>
<polygon fill="none" stroke="black" stroke-width="0.5" points="194,-115.5 5.68434e-14,-115.5 0,-94.5 194,-94.5 194,-115.5"/>
<text text-anchor="middle" x="97" y="-102.5" font-family="Vera" font-size="10.00">param.parameterized.Parameterized</text>
</g>
<!-- param.parameterized.Parameterized&#45;&gt;lancet.core.BaseArgs -->
<g id="edge4" class="edge"><title>param.parameterized.Parameterized&#45;&gt;lancet.core.BaseArgs</title>
<path fill="none" stroke="black" stroke-width="0.5" d="M194.065,-114.556C204.617,-115.594 215.159,-116.632 225.188,-117.62"/>
<polygon fill="black" stroke="black" points="225.236,-119.383 230.383,-118.131 225.579,-115.899 225.236,-119.383"/>
</g>
<!-- lancet.core.applying -->
<g id="node22" class="node"><title>lancet.core.applying</title>
<polygon fill="none" stroke="black" stroke-width="0.5" points="346,-96.5 234,-96.5 234,-75.5 346,-75.5 346,-96.5"/>
<text text-anchor="middle" x="290" y="-83.5" font-family="Vera" font-size="10.00">lancet.core.applying</text>
</g>
<!-- param.parameterized.Parameterized&#45;&gt;lancet.core.applying -->
<g id="edge22" class="edge"><title>param.parameterized.Parameterized&#45;&gt;lancet.core.applying</title>
<path fill="none" stroke="black" stroke-width="0.5" d="M194.065,-95.4443C205.706,-94.2984 217.335,-93.1535 228.276,-92.0764"/>
<polygon fill="black" stroke="black" points="228.448,-93.8181 233.252,-91.5866 228.105,-90.3349 228.448,-93.8181"/>
</g>
</g>
</svg>
