<?xml version="1.0" encoding="UTF-8" standalone="no"?>
<!DOCTYPE svg PUBLIC "-//W3C//DTD SVG 1.1//EN"
 "http://www.w3.org/Graphics/SVG/1.1/DTD/svg11.dtd">
<!-- Generated by graphviz version 2.26.3 (20100126.1600)
 -->
<!-- Title: inheritance1f1dc666b6 Pages: 1 -->
<svg width="964pt" height="170pt"
 viewBox="0.00 0.00 964.00 170.00" xmlns="http://www.w3.org/2000/svg" xmlns:xlink="http://www.w3.org/1999/xlink">
<g id="graph1" class="graph" transform="scale(1 1) rotate(0) translate(4 166)">
<title>inheritance1f1dc666b6</title>
<polygon fill="white" stroke="white" points="-4,5 -4,-166 961,-166 961,5 -4,5"/>
<!-- topo.base.projection.Projection -->
<g id="node1" class="node"><title>topo.base.projection.Projection</title>
<polygon fill="none" stroke="black" stroke-width="0.5" points="696,-162.5 532,-162.5 532,-141.5 696,-141.5 696,-162.5"/>
<text text-anchor="middle" x="614" y="-149.5" font-family="Vera" font-size="10.00">topo.base.projection.Projection</text>
</g>
<!-- topo.base.simulation.EPConnection -->
<g id="node2" class="node"><title>topo.base.simulation.EPConnection</title>
<polygon fill="none" stroke="black" stroke-width="0.5" points="441,-162.5 255,-162.5 255,-141.5 441,-141.5 441,-162.5"/>
<text text-anchor="middle" x="348" y="-149.5" font-family="Vera" font-size="10.00">topo.base.simulation.EPConnection</text>
</g>
<!-- topo.base.simulation.EPConnection&#45;&gt;topo.base.projection.Projection -->
<g id="edge2" class="edge"><title>topo.base.simulation.EPConnection&#45;&gt;topo.base.projection.Projection</title>
<path fill="none" stroke="black" stroke-width="0.5" d="M441.034,-152C468.678,-152 498.861,-152 526.163,-152"/>
<polygon fill="black" stroke="black" points="526.226,-153.75 531.226,-152 526.226,-150.25 526.226,-153.75"/>
</g>
<!-- topo.base.sheet.Sheet -->
<g id="node4" class="node"><title>topo.base.sheet.Sheet</title>
<polygon fill="none" stroke="black" stroke-width="0.5" points="677,-115.5 551,-115.5 551,-94.5 677,-94.5 677,-115.5"/>
<text text-anchor="middle" x="614" y="-102.5" font-family="Vera" font-size="10.00">topo.base.sheet.Sheet</text>
</g>
<!-- topo.base.projection.ProjectionSheet -->
<g id="node21" class="node"><title>topo.base.projection.ProjectionSheet</title>
<polygon fill="none" stroke="black" stroke-width="0.5" points="956,-115.5 762,-115.5 762,-94.5 956,-94.5 956,-115.5"/>
<text text-anchor="middle" x="859" y="-102.5" font-family="Vera" font-size="10.00">topo.base.projection.ProjectionSheet</text>
</g>
<!-- topo.base.sheet.Sheet&#45;&gt;topo.base.projection.ProjectionSheet -->
<g id="edge20" class="edge"><title>topo.base.sheet.Sheet&#45;&gt;topo.base.projection.ProjectionSheet</title>
<path fill="none" stroke="black" stroke-width="0.5" d="M677.094,-105C701.386,-105 729.79,-105 756.834,-105"/>
<polygon fill="black" stroke="black" points="756.867,-106.75 761.867,-105 756.867,-103.25 756.867,-106.75"/>
</g>
<!-- topo.base.simulation.EventProcessor -->
<g id="node5" class="node"><title>topo.base.simulation.EventProcessor</title>
<polygon fill="none" stroke="black" stroke-width="0.5" points="445,-124.5 251,-124.5 251,-103.5 445,-103.5 445,-124.5"/>
<text text-anchor="middle" x="348" y="-111.5" font-family="Vera" font-size="10.00">topo.base.simulation.EventProcessor</text>
</g>
<!-- topo.base.simulation.EventProcessor&#45;&gt;topo.base.sheet.Sheet -->
<g id="edge4" class="edge"><title>topo.base.simulation.EventProcessor&#45;&gt;topo.base.sheet.Sheet</title>
<path fill="none" stroke="black" stroke-width="0.5" d="M445.161,-110.713C478.411,-109.588 514.89,-108.353 545.406,-107.321"/>
<polygon fill="black" stroke="black" points="545.703,-109.062 550.641,-107.144 545.584,-105.564 545.703,-109.062"/>
</g>
<!-- imagen.sheetcoords.SheetCoordinateSystem -->
<g id="node7" class="node"><title>imagen.sheetcoords.SheetCoordinateSystem</title>
<polygon fill="none" stroke="black" stroke-width="0.5" points="466,-86.5 230,-86.5 230,-65.5 466,-65.5 466,-86.5"/>
<text text-anchor="middle" x="348" y="-73.5" font-family="Vera" font-size="10.00">imagen.sheetcoords.SheetCoordinateSystem</text>
</g>
<!-- imagen.sheetcoords.SheetCoordinateSystem&#45;&gt;topo.base.sheet.Sheet -->
<g id="edge6" class="edge"><title>imagen.sheetcoords.SheetCoordinateSystem&#45;&gt;topo.base.sheet.Sheet</title>
<path fill="none" stroke="black" stroke-width="0.5" d="M439.915,-86.0208C474.695,-89.8126 513.632,-94.0576 545.848,-97.5699"/>
<polygon fill="black" stroke="black" points="545.799,-99.3248 550.959,-98.1271 546.178,-95.8454 545.799,-99.3248"/>
</g>
<!-- param.parameterized.Parameterized -->
<g id="node9" class="node"><title>param.parameterized.Parameterized</title>
<polygon fill="none" stroke="black" stroke-width="0.5" points="194,-124.5 5.68434e-14,-124.5 0,-103.5 194,-103.5 194,-124.5"/>
<text text-anchor="middle" x="97" y="-111.5" font-family="Vera" font-size="10.00">param.parameterized.Parameterized</text>
</g>
<!-- param.parameterized.Parameterized&#45;&gt;topo.base.simulation.EPConnection -->
<g id="edge16" class="edge"><title>param.parameterized.Parameterized&#45;&gt;topo.base.simulation.EPConnection</title>
<path fill="none" stroke="black" stroke-width="0.5" d="M163.276,-124.034C198.161,-129.315 240.968,-135.796 276.587,-141.189"/>
<polygon fill="black" stroke="black" points="276.583,-142.958 281.789,-141.976 277.107,-139.497 276.583,-142.958"/>
</g>
<!-- param.parameterized.Parameterized&#45;&gt;topo.base.simulation.EventProcessor -->
<g id="edge8" class="edge"><title>param.parameterized.Parameterized&#45;&gt;topo.base.simulation.EventProcessor</title>
<path fill="none" stroke="black" stroke-width="0.5" d="M194.043,-114C210.921,-114 228.523,-114 245.54,-114"/>
<polygon fill="black" stroke="black" points="245.801,-115.75 250.801,-114 245.801,-112.25 245.801,-115.75"/>
</g>
<!-- topo.base.projection.SheetMask -->
<g id="node11" class="node"><title>topo.base.projection.SheetMask</title>
<polygon fill="none" stroke="black" stroke-width="0.5" points="433,-48.5 263,-48.5 263,-27.5 433,-27.5 433,-48.5"/>
<text text-anchor="middle" x="348" y="-35.5" font-family="Vera" font-size="10.00">topo.base.projection.SheetMask</text>
</g>
<!-- param.parameterized.Parameterized&#45;&gt;topo.base.projection.SheetMask -->
<g id="edge10" class="edge"><title>param.parameterized.Parameterized&#45;&gt;topo.base.projection.SheetMask</title>
<path fill="none" stroke="black" stroke-width="0.5" d="M116.274,-103.949C141.663,-91.1323 188.018,-69.1752 230,-57 240.715,-53.8926 252.134,-51.2523 263.489,-49.0201"/>
<polygon fill="black" stroke="black" points="264.117,-50.6817 268.698,-48.0229 263.459,-47.2441 264.117,-50.6817"/>
</g>
<!-- topo.base.projection.CompositeSheetMask -->
<g id="node14" class="node"><title>topo.base.projection.CompositeSheetMask</title>
<polygon fill="none" stroke="black" stroke-width="0.5" points="725,-58.5 503,-58.5 503,-37.5 725,-37.5 725,-58.5"/>
<text text-anchor="middle" x="614" y="-45.5" font-family="Vera" font-size="10.00">topo.base.projection.CompositeSheetMask</text>
</g>
<!-- topo.base.projection.SheetMask&#45;&gt;topo.base.projection.CompositeSheetMask -->
<g id="edge22" class="edge"><title>topo.base.projection.SheetMask&#45;&gt;topo.base.projection.CompositeSheetMask</title>
<path fill="none" stroke="black" stroke-width="0.5" d="M433.628,-41.2191C453.875,-41.9803 475.807,-42.8048 497.173,-43.608"/>
<polygon fill="black" stroke="black" points="497.238,-45.3616 502.3,-43.8008 497.369,-41.8641 497.238,-45.3616"/>
</g>
<!-- topo.base.projection.NeighborhoodMask -->
<g id="node16" class="node"><title>topo.base.projection.NeighborhoodMask</title>
<polygon fill="none" stroke="black" stroke-width="0.5" points="719,-20.5 509,-20.5 509,0.5 719,0.5 719,-20.5"/>
<text text-anchor="middle" x="614" y="-7.5" font-family="Vera" font-size="10.00">topo.base.projection.NeighborhoodMask</text>
</g>
<!-- topo.base.projection.SheetMask&#45;&gt;topo.base.projection.NeighborhoodMask -->
<g id="edge14" class="edge"><title>topo.base.projection.SheetMask&#45;&gt;topo.base.projection.NeighborhoodMask</title>
<path fill="none" stroke="black" stroke-width="0.5" d="M433.628,-28.9865C459.115,-26.3037 487.271,-23.3399 513.609,-20.5675"/>
<polygon fill="black" stroke="black" points="514.062,-22.2796 518.851,-20.0157 513.695,-18.7988 514.062,-22.2796"/>
</g>
<!-- topo.base.projection.OrMask -->
<g id="node13" class="node"><title>topo.base.projection.OrMask</title>
<polygon fill="none" stroke="black" stroke-width="0.5" points="936,-77.5 782,-77.5 782,-56.5 936,-56.5 936,-77.5"/>
<text text-anchor="middle" x="859" y="-64.5" font-family="Vera" font-size="10.00">topo.base.projection.OrMask</text>
</g>
<!-- topo.base.projection.CompositeSheetMask&#45;&gt;topo.base.projection.OrMask -->
<g id="edge12" class="edge"><title>topo.base.projection.CompositeSheetMask&#45;&gt;topo.base.projection.OrMask</title>
<path fill="none" stroke="black" stroke-width="0.5" d="M725.746,-56.666C742.902,-57.9964 760.341,-59.3489 776.704,-60.6178"/>
<polygon fill="black" stroke="black" points="776.625,-62.3669 781.746,-61.0089 776.896,-58.8774 776.625,-62.3669"/>
</g>
<!-- topo.base.projection.AndMask -->
<g id="node19" class="node"><title>topo.base.projection.AndMask</title>
<polygon fill="none" stroke="black" stroke-width="0.5" points="939,-39.5 779,-39.5 779,-18.5 939,-18.5 939,-39.5"/>
<text text-anchor="middle" x="859" y="-26.5" font-family="Vera" font-size="10.00">topo.base.projection.AndMask</text>
</g>
<!-- topo.base.projection.CompositeSheetMask&#45;&gt;topo.base.projection.AndMask -->
<g id="edge18" class="edge"><title>topo.base.projection.CompositeSheetMask&#45;&gt;topo.base.projection.AndMask</title>
<path fill="none" stroke="black" stroke-width="0.5" d="M725.746,-39.334C741.62,-38.103 757.737,-36.8531 773.019,-35.6679"/>
<polygon fill="black" stroke="black" points="773.318,-37.4001 778.168,-35.2686 773.047,-33.9105 773.318,-37.4001"/>
</g>
</g>
</svg>
