<?xml version="1.0" encoding="UTF-8" standalone="no"?>
<!DOCTYPE svg PUBLIC "-//W3C//DTD SVG 1.1//EN"
 "http://www.w3.org/Graphics/SVG/1.1/DTD/svg11.dtd">
<!-- Generated by graphviz version 2.26.3 (20100126.1600)
 -->
<!-- Title: inheritance7784a43624 Pages: 1 -->
<svg width="708pt" height="142pt"
 viewBox="0.00 0.00 708.00 142.00" xmlns="http://www.w3.org/2000/svg" xmlns:xlink="http://www.w3.org/1999/xlink">
<g id="graph1" class="graph" transform="scale(1 1) rotate(0) translate(4 138)">
<title>inheritance7784a43624</title>
<polygon fill="white" stroke="white" points="-4,5 -4,-138 705,-138 705,5 -4,5"/>
<!-- topo.misc.lancext.param_formatter -->
<g id="node1" class="node"><title>topo.misc.lancext.param_formatter</title>
<polygon fill="none" stroke="black" stroke-width="0.5" points="693,-134.5 507,-134.5 507,-113.5 693,-113.5 693,-134.5"/>
<text text-anchor="middle" x="600" y="-121.5" font-family="Vera" font-size="10.00">topo.misc.lancext.param_formatter</text>
</g>
<!-- param.parameterized.ParameterizedFunction -->
<g id="node2" class="node"><title>param.parameterized.ParameterizedFunction</title>
<polygon fill="none" stroke="black" stroke-width="0.5" points="464,-134.5 230,-134.5 230,-113.5 464,-113.5 464,-134.5"/>
<text text-anchor="middle" x="347" y="-121.5" font-family="Vera" font-size="10.00">param.parameterized.ParameterizedFunction</text>
</g>
<!-- param.parameterized.ParameterizedFunction&#45;&gt;topo.misc.lancext.param_formatter -->
<g id="edge2" class="edge"><title>param.parameterized.ParameterizedFunction&#45;&gt;topo.misc.lancext.param_formatter</title>
<path fill="none" stroke="black" stroke-width="0.5" d="M464.242,-124C476.57,-124 489.016,-124 501.108,-124"/>
<polygon fill="black" stroke="black" points="501.268,-125.75 506.267,-124 501.267,-122.25 501.268,-125.75"/>
</g>
<!-- lancet.launch.review_and_launch -->
<g id="node4" class="node"><title>lancet.launch.review_and_launch</title>
<polygon fill="none" stroke="black" stroke-width="0.5" points="433,-96.5 261,-96.5 261,-75.5 433,-75.5 433,-96.5"/>
<text text-anchor="middle" x="347" y="-83.5" font-family="Vera" font-size="10.00">lancet.launch.review_and_launch</text>
</g>
<!-- topo.misc.lancext.batch_analysis -->
<g id="node7" class="node"><title>topo.misc.lancext.batch_analysis</title>
<polygon fill="none" stroke="black" stroke-width="0.5" points="687,-96.5 513,-96.5 513,-75.5 687,-75.5 687,-96.5"/>
<text text-anchor="middle" x="600" y="-83.5" font-family="Vera" font-size="10.00">topo.misc.lancext.batch_analysis</text>
</g>
<!-- lancet.launch.review_and_launch&#45;&gt;topo.misc.lancext.batch_analysis -->
<g id="edge6" class="edge"><title>lancet.launch.review_and_launch&#45;&gt;topo.misc.lancext.batch_analysis</title>
<path fill="none" stroke="black" stroke-width="0.5" d="M433.714,-86C457.352,-86 483.053,-86 507.023,-86"/>
<polygon fill="black" stroke="black" points="507.11,-87.7501 512.11,-86 507.11,-84.2501 507.11,-87.7501"/>
</g>
<!-- param.parameterized.Parameterized -->
<g id="node5" class="node"><title>param.parameterized.Parameterized</title>
<polygon fill="none" stroke="black" stroke-width="0.5" points="194,-77.5 5.68434e-14,-77.5 0,-56.5 194,-56.5 194,-77.5"/>
<text text-anchor="middle" x="97" y="-64.5" font-family="Vera" font-size="10.00">param.parameterized.Parameterized</text>
</g>
<!-- param.parameterized.Parameterized&#45;&gt;param.parameterized.ParameterizedFunction -->
<g id="edge8" class="edge"><title>param.parameterized.Parameterized&#45;&gt;param.parameterized.ParameterizedFunction</title>
<path fill="none" stroke="black" stroke-width="0.5" d="M128.175,-77.0297C154.96,-85.3762 194.727,-97.1254 230,-105 243.416,-107.995 257.796,-110.721 271.724,-113.113"/>
<polygon fill="black" stroke="black" points="271.61,-114.869 276.832,-113.98 272.195,-111.418 271.61,-114.869"/>
</g>
<!-- param.parameterized.Parameterized&#45;&gt;lancet.launch.review_and_launch -->
<g id="edge4" class="edge"><title>param.parameterized.Parameterized&#45;&gt;lancet.launch.review_and_launch</title>
<path fill="none" stroke="black" stroke-width="0.5" d="M194.014,-74.3731C214.133,-75.9021 235.27,-77.5085 255.195,-79.0228"/>
<polygon fill="black" stroke="black" points="255.115,-80.7717 260.233,-79.4057 255.38,-77.2817 255.115,-80.7717"/>
</g>
<!-- topo.misc.lancext.RunBatchAnalysis -->
<g id="node10" class="node"><title>topo.misc.lancext.RunBatchAnalysis</title>
<polygon fill="none" stroke="black" stroke-width="0.5" points="441,-58.5 253,-58.5 253,-37.5 441,-37.5 441,-58.5"/>
<text text-anchor="middle" x="347" y="-45.5" font-family="Vera" font-size="10.00">topo.misc.lancext.RunBatchAnalysis</text>
</g>
<!-- param.parameterized.Parameterized&#45;&gt;topo.misc.lancext.RunBatchAnalysis -->
<g id="edge10" class="edge"><title>param.parameterized.Parameterized&#45;&gt;topo.misc.lancext.RunBatchAnalysis</title>
<path fill="none" stroke="black" stroke-width="0.5" d="M194.014,-59.6269C211.553,-58.294 229.866,-56.9022 247.474,-55.5639"/>
<polygon fill="black" stroke="black" points="248.062,-57.2744 252.915,-55.1505 247.797,-53.7845 248.062,-57.2744"/>
</g>
<!-- lancet.launch.CommandTemplate -->
<g id="node12" class="node"><title>lancet.launch.CommandTemplate</title>
<polygon fill="none" stroke="black" stroke-width="0.5" points="435,-20.5 259,-20.5 259,0.5 435,0.5 435,-20.5"/>
<text text-anchor="middle" x="347" y="-7.5" font-family="Vera" font-size="10.00">lancet.launch.CommandTemplate</text>
</g>
<!-- param.parameterized.Parameterized&#45;&gt;lancet.launch.CommandTemplate -->
<g id="edge12" class="edge"><title>param.parameterized.Parameterized&#45;&gt;lancet.launch.CommandTemplate</title>
<path fill="none" stroke="black" stroke-width="0.5" d="M128.175,-56.9703C154.96,-48.6238 194.727,-36.8746 230,-29 243.416,-26.005 257.796,-23.2794 271.724,-20.8865"/>
<polygon fill="black" stroke="black" points="272.195,-22.5816 276.832,-20.0201 271.61,-19.1309 272.195,-22.5816"/>
</g>
<!-- topo.misc.lancext.RunBatchCommand -->
<g id="node14" class="node"><title>topo.misc.lancext.RunBatchCommand</title>
<polygon fill="none" stroke="black" stroke-width="0.5" points="700,-20.5 500,-20.5 500,0.5 700,0.5 700,-20.5"/>
<text text-anchor="middle" x="600" y="-7.5" font-family="Vera" font-size="10.00">topo.misc.lancext.RunBatchCommand</text>
</g>
<!-- lancet.launch.CommandTemplate&#45;&gt;topo.misc.lancext.RunBatchCommand -->
<g id="edge14" class="edge"><title>lancet.launch.CommandTemplate&#45;&gt;topo.misc.lancext.RunBatchCommand</title>
<path fill="none" stroke="black" stroke-width="0.5" d="M435.843,-10C454.714,-10 474.815,-10 494.245,-10"/>
<polygon fill="black" stroke="black" points="494.706,-11.7501 499.706,-10 494.706,-8.25009 494.706,-11.7501"/>
</g>
</g>
</svg>
