<?xml version="1.0" encoding="UTF-8" standalone="no"?>
<!DOCTYPE svg PUBLIC "-//W3C//DTD SVG 1.1//EN"
 "http://www.w3.org/Graphics/SVG/1.1/DTD/svg11.dtd">
<!-- Generated by graphviz version 2.26.3 (20100126.1600)
 -->
<!-- Title: inheritancee08cba1177 Pages: 1 -->
<svg width="1638pt" height="104pt"
 viewBox="0.00 0.00 1638.00 104.00" xmlns="http://www.w3.org/2000/svg" xmlns:xlink="http://www.w3.org/1999/xlink">
<g id="graph1" class="graph" transform="scale(1 1) rotate(0) translate(4 100)">
<title>inheritancee08cba1177</title>
<polygon fill="white" stroke="white" points="-4,5 -4,-100 1635,-100 1635,5 -4,5"/>
<!-- topo.misc.generatorsheet.GeneratorSheet -->
<g id="node1" class="node"><title>topo.misc.generatorsheet.GeneratorSheet</title>
<polygon fill="none" stroke="black" stroke-width="0.5" points="885,-96.5 665,-96.5 665,-75.5 885,-75.5 885,-96.5"/>
<text text-anchor="middle" x="775" y="-83.5" font-family="Vera" font-size="10.00">topo.misc.generatorsheet.GeneratorSheet</text>
</g>
<!-- topo.sheet.SequenceGeneratorSheet -->
<g id="node14" class="node"><title>topo.sheet.SequenceGeneratorSheet</title>
<polygon fill="none" stroke="black" stroke-width="0.5" points="1119,-96.5 923,-96.5 923,-75.5 1119,-75.5 1119,-96.5"/>
<text text-anchor="middle" x="1021" y="-83.5" font-family="Vera" font-size="10.00">topo.sheet.SequenceGeneratorSheet</text>
</g>
<!-- topo.misc.generatorsheet.GeneratorSheet&#45;&gt;topo.sheet.SequenceGeneratorSheet -->
<g id="edge12" class="edge"><title>topo.misc.generatorsheet.GeneratorSheet&#45;&gt;topo.sheet.SequenceGeneratorSheet</title>
<path fill="none" stroke="black" stroke-width="0.5" d="M885.766,-86C896.287,-86 906.929,-86 917.379,-86"/>
<polygon fill="black" stroke="black" points="917.493,-87.7501 922.493,-86 917.493,-84.2501 917.493,-87.7501"/>
</g>
<!-- topo.base.sheet.Sheet -->
<g id="node2" class="node"><title>topo.base.sheet.Sheet</title>
<polygon fill="none" stroke="black" stroke-width="0.5" points="628,-58.5 502,-58.5 502,-37.5 628,-37.5 628,-58.5"/>
<text text-anchor="middle" x="565" y="-45.5" font-family="Vera" font-size="10.00">topo.base.sheet.Sheet</text>
</g>
<!-- topo.base.sheet.Sheet&#45;&gt;topo.misc.generatorsheet.GeneratorSheet -->
<g id="edge2" class="edge"><title>topo.base.sheet.Sheet&#45;&gt;topo.misc.generatorsheet.GeneratorSheet</title>
<path fill="none" stroke="black" stroke-width="0.5" d="M616.091,-58.0084C631.478,-60.9678 648.416,-64.1711 664,-67 678.863,-69.6981 694.866,-72.4983 709.967,-75.0932"/>
<polygon fill="black" stroke="black" points="709.826,-76.8446 715.05,-75.9649 710.418,-73.395 709.826,-76.8446"/>
</g>
<!-- topo.base.projection.ProjectionSheet -->
<g id="node4" class="node"><title>topo.base.projection.ProjectionSheet</title>
<polygon fill="none" stroke="black" stroke-width="0.5" points="872,-58.5 678,-58.5 678,-37.5 872,-37.5 872,-58.5"/>
<text text-anchor="middle" x="775" y="-45.5" font-family="Vera" font-size="10.00">topo.base.projection.ProjectionSheet</text>
</g>
<!-- topo.base.sheet.Sheet&#45;&gt;topo.base.projection.ProjectionSheet -->
<g id="edge4" class="edge"><title>topo.base.sheet.Sheet&#45;&gt;topo.base.projection.ProjectionSheet</title>
<path fill="none" stroke="black" stroke-width="0.5" d="M628.007,-48C642.118,-48 657.44,-48 672.686,-48"/>
<polygon fill="black" stroke="black" points="672.852,-49.7501 677.852,-48 672.852,-46.2501 672.852,-49.7501"/>
</g>
<!-- topo.sheet.ActivityCopy -->
<g id="node19" class="node"><title>topo.sheet.ActivityCopy</title>
<polygon fill="none" stroke="black" stroke-width="0.5" points="840,-20.5 710,-20.5 710,0.5 840,0.5 840,-20.5"/>
<text text-anchor="middle" x="775" y="-7.5" font-family="Vera" font-size="10.00">topo.sheet.ActivityCopy</text>
</g>
<!-- topo.base.sheet.Sheet&#45;&gt;topo.sheet.ActivityCopy -->
<g id="edge16" class="edge"><title>topo.base.sheet.Sheet&#45;&gt;topo.sheet.ActivityCopy</title>
<path fill="none" stroke="black" stroke-width="0.5" d="M616.091,-37.9916C631.478,-35.0322 648.416,-31.8289 664,-29 678.863,-26.3019 694.866,-23.5017 709.967,-20.9068"/>
<polygon fill="black" stroke="black" points="710.418,-22.605 715.05,-20.0351 709.826,-19.1554 710.418,-22.605"/>
</g>
<!-- topo.base.cf.CFSheet -->
<g id="node10" class="node"><title>topo.base.cf.CFSheet</title>
<polygon fill="none" stroke="black" stroke-width="0.5" points="1080,-58.5 962,-58.5 962,-37.5 1080,-37.5 1080,-58.5"/>
<text text-anchor="middle" x="1021" y="-45.5" font-family="Vera" font-size="10.00">topo.base.cf.CFSheet</text>
</g>
<!-- topo.base.projection.ProjectionSheet&#45;&gt;topo.base.cf.CFSheet -->
<g id="edge22" class="edge"><title>topo.base.projection.ProjectionSheet&#45;&gt;topo.base.cf.CFSheet</title>
<path fill="none" stroke="black" stroke-width="0.5" d="M872.226,-48C900.429,-48 930.524,-48 956.216,-48"/>
<polygon fill="black" stroke="black" points="956.293,-49.7501 961.293,-48 956.293,-46.2501 956.293,-49.7501"/>
</g>
<!-- param.parameterized.Parameterized -->
<g id="node6" class="node"><title>param.parameterized.Parameterized</title>
<polygon fill="none" stroke="black" stroke-width="0.5" points="194,-77.5 5.68434e-14,-77.5 0,-56.5 194,-56.5 194,-77.5"/>
<text text-anchor="middle" x="97" y="-64.5" font-family="Vera" font-size="10.00">param.parameterized.Parameterized</text>
</g>
<!-- topo.base.simulation.EventProcessor -->
<g id="node7" class="node"><title>topo.base.simulation.EventProcessor</title>
<polygon fill="none" stroke="black" stroke-width="0.5" points="445,-77.5 251,-77.5 251,-56.5 445,-56.5 445,-77.5"/>
<text text-anchor="middle" x="348" y="-64.5" font-family="Vera" font-size="10.00">topo.base.simulation.EventProcessor</text>
</g>
<!-- param.parameterized.Parameterized&#45;&gt;topo.base.simulation.EventProcessor -->
<g id="edge6" class="edge"><title>param.parameterized.Parameterized&#45;&gt;topo.base.simulation.EventProcessor</title>
<path fill="none" stroke="black" stroke-width="0.5" d="M194.043,-67C210.921,-67 228.523,-67 245.54,-67"/>
<polygon fill="black" stroke="black" points="245.801,-68.7501 250.801,-67 245.801,-65.2501 245.801,-68.7501"/>
</g>
<!-- topo.base.simulation.EventProcessor&#45;&gt;topo.base.sheet.Sheet -->
<g id="edge18" class="edge"><title>topo.base.simulation.EventProcessor&#45;&gt;topo.base.sheet.Sheet</title>
<path fill="none" stroke="black" stroke-width="0.5" d="M445.075,-58.5003C462.563,-56.9691 480.451,-55.4029 496.895,-53.9631"/>
<polygon fill="black" stroke="black" points="497.122,-55.7001 501.95,-53.5205 496.816,-52.2134 497.122,-55.7001"/>
</g>
<!-- topo.sheet.JointNormalizingCFSheet -->
<g id="node9" class="node"><title>topo.sheet.JointNormalizingCFSheet</title>
<polygon fill="none" stroke="black" stroke-width="0.5" points="1345,-58.5 1157,-58.5 1157,-37.5 1345,-37.5 1345,-58.5"/>
<text text-anchor="middle" x="1251" y="-45.5" font-family="Vera" font-size="10.00">topo.sheet.JointNormalizingCFSheet</text>
</g>
<!-- topo.sheet.JointNormalizingCFSheet_Continuous -->
<g id="node12" class="node"><title>topo.sheet.JointNormalizingCFSheet_Continuous</title>
<polygon fill="none" stroke="black" stroke-width="0.5" points="1630,-77.5 1382,-77.5 1382,-56.5 1630,-56.5 1630,-77.5"/>
<text text-anchor="middle" x="1506" y="-64.5" font-family="Vera" font-size="10.00">topo.sheet.JointNormalizingCFSheet_Continuous</text>
</g>
<!-- topo.sheet.JointNormalizingCFSheet&#45;&gt;topo.sheet.JointNormalizingCFSheet_Continuous -->
<g id="edge10" class="edge"><title>topo.sheet.JointNormalizingCFSheet&#45;&gt;topo.sheet.JointNormalizingCFSheet_Continuous</title>
<path fill="none" stroke="black" stroke-width="0.5" d="M1345.59,-55.0479C1355.7,-55.8012 1366.11,-56.5766 1376.53,-57.3532"/>
<polygon fill="black" stroke="black" points="1376.53,-59.1081 1381.65,-57.7345 1376.79,-55.6178 1376.53,-59.1081"/>
</g>
<!-- topo.sheet.SettlingCFSheet -->
<g id="node17" class="node"><title>topo.sheet.SettlingCFSheet</title>
<polygon fill="none" stroke="black" stroke-width="0.5" points="1580,-39.5 1432,-39.5 1432,-18.5 1580,-18.5 1580,-39.5"/>
<text text-anchor="middle" x="1506" y="-26.5" font-family="Vera" font-size="10.00">topo.sheet.SettlingCFSheet</text>
</g>
<!-- topo.sheet.JointNormalizingCFSheet&#45;&gt;topo.sheet.SettlingCFSheet -->
<g id="edge14" class="edge"><title>topo.sheet.JointNormalizingCFSheet&#45;&gt;topo.sheet.SettlingCFSheet</title>
<path fill="none" stroke="black" stroke-width="0.5" d="M1345.59,-40.9521C1372.17,-38.9719 1400.79,-36.8392 1426.4,-34.9312"/>
<polygon fill="black" stroke="black" points="1426.62,-36.6694 1431.48,-34.5527 1426.36,-33.1791 1426.62,-36.6694"/>
</g>
<!-- topo.base.cf.CFSheet&#45;&gt;topo.sheet.JointNormalizingCFSheet -->
<g id="edge8" class="edge"><title>topo.base.cf.CFSheet&#45;&gt;topo.sheet.JointNormalizingCFSheet</title>
<path fill="none" stroke="black" stroke-width="0.5" d="M1080.53,-48C1102.15,-48 1127.21,-48 1151.36,-48"/>
<polygon fill="black" stroke="black" points="1151.49,-49.7501 1156.49,-48 1151.49,-46.2501 1151.49,-49.7501"/>
</g>
<!-- imagen.sheetcoords.SheetCoordinateSystem -->
<g id="node16" class="node"><title>imagen.sheetcoords.SheetCoordinateSystem</title>
<polygon fill="none" stroke="black" stroke-width="0.5" points="466,-39.5 230,-39.5 230,-18.5 466,-18.5 466,-39.5"/>
<text text-anchor="middle" x="348" y="-26.5" font-family="Vera" font-size="10.00">imagen.sheetcoords.SheetCoordinateSystem</text>
</g>
<!-- imagen.sheetcoords.SheetCoordinateSystem&#45;&gt;topo.base.sheet.Sheet -->
<g id="edge20" class="edge"><title>imagen.sheetcoords.SheetCoordinateSystem&#45;&gt;topo.base.sheet.Sheet</title>
<path fill="none" stroke="black" stroke-width="0.5" d="M462.219,-39.0008C473.996,-40.0319 485.682,-41.0551 496.721,-42.0217"/>
<polygon fill="black" stroke="black" points="496.612,-43.7687 501.746,-42.4616 496.918,-40.2821 496.612,-43.7687"/>
</g>
</g>
</svg>
