<?xml version="1.0" encoding="UTF-8" standalone="no"?>
<!DOCTYPE svg PUBLIC "-//W3C//DTD SVG 1.1//EN"
 "http://www.w3.org/Graphics/SVG/1.1/DTD/svg11.dtd">
<!-- Generated by graphviz version 2.26.3 (20100126.1600)
 -->
<!-- Title: inheritance7784a43624 Pages: 1 -->
<svg width="708pt" height="142pt"
 viewBox="0.00 0.00 708.00 142.00" xmlns="http://www.w3.org/2000/svg" xmlns:xlink="http://www.w3.org/1999/xlink">
<g id="graph1" class="graph" transform="scale(1 1) rotate(0) translate(4 138)">
<title>inheritance7784a43624</title>
<polygon fill="white" stroke="white" points="-4,5 -4,-138 705,-138 705,5 -4,5"/>
<!-- param.parameterized.Parameterized -->
<g id="node1" class="node"><title>param.parameterized.Parameterized</title>
<polygon fill="none" stroke="black" stroke-width="0.5" points="194,-77.5 5.68434e-14,-77.5 0,-56.5 194,-56.5 194,-77.5"/>
<text text-anchor="middle" x="97" y="-64.5" font-family="Vera" font-size="10.00">param.parameterized.Parameterized</text>
</g>
<!-- lancet.launch.review_and_launch -->
<g id="node3" class="node"><title>lancet.launch.review_and_launch</title>
<polygon fill="none" stroke="black" stroke-width="0.5" points="433,-134.5 261,-134.5 261,-113.5 433,-113.5 433,-134.5"/>
<text text-anchor="middle" x="347" y="-121.5" font-family="Vera" font-size="10.00">lancet.launch.review_and_launch</text>
</g>
<!-- param.parameterized.Parameterized&#45;&gt;lancet.launch.review_and_launch -->
<g id="edge6" class="edge"><title>param.parameterized.Parameterized&#45;&gt;lancet.launch.review_and_launch</title>
<path fill="none" stroke="black" stroke-width="0.5" d="M128.175,-77.0297C154.96,-85.3762 194.727,-97.1254 230,-105 243.416,-107.995 257.796,-110.721 271.724,-113.113"/>
<polygon fill="black" stroke="black" points="271.61,-114.869 276.832,-113.98 272.195,-111.418 271.61,-114.869"/>
</g>
<!-- param.parameterized.ParameterizedFunction -->
<g id="node6" class="node"><title>param.parameterized.ParameterizedFunction</title>
<polygon fill="none" stroke="black" stroke-width="0.5" points="464,-96.5 230,-96.5 230,-75.5 464,-75.5 464,-96.5"/>
<text text-anchor="middle" x="347" y="-83.5" font-family="Vera" font-size="10.00">param.parameterized.ParameterizedFunction</text>
</g>
<!-- param.parameterized.Parameterized&#45;&gt;param.parameterized.ParameterizedFunction -->
<g id="edge12" class="edge"><title>param.parameterized.Parameterized&#45;&gt;param.parameterized.ParameterizedFunction</title>
<path fill="none" stroke="black" stroke-width="0.5" d="M194.014,-74.3731C204.04,-75.1351 214.319,-75.9163 224.575,-76.6957"/>
<polygon fill="black" stroke="black" points="224.489,-78.4441 229.607,-77.0781 224.754,-74.9542 224.489,-78.4441"/>
</g>
<!-- topo.misc.lancext.RunBatchAnalysis -->
<g id="node9" class="node"><title>topo.misc.lancext.RunBatchAnalysis</title>
<polygon fill="none" stroke="black" stroke-width="0.5" points="441,-58.5 253,-58.5 253,-37.5 441,-37.5 441,-58.5"/>
<text text-anchor="middle" x="347" y="-45.5" font-family="Vera" font-size="10.00">topo.misc.lancext.RunBatchAnalysis</text>
</g>
<!-- param.parameterized.Parameterized&#45;&gt;topo.misc.lancext.RunBatchAnalysis -->
<g id="edge8" class="edge"><title>param.parameterized.Parameterized&#45;&gt;topo.misc.lancext.RunBatchAnalysis</title>
<path fill="none" stroke="black" stroke-width="0.5" d="M194.014,-59.6269C211.553,-58.294 229.866,-56.9022 247.474,-55.5639"/>
<polygon fill="black" stroke="black" points="248.062,-57.2744 252.915,-55.1505 247.797,-53.7845 248.062,-57.2744"/>
</g>
<!-- lancet.launch.CommandTemplate -->
<g id="node11" class="node"><title>lancet.launch.CommandTemplate</title>
<polygon fill="none" stroke="black" stroke-width="0.5" points="435,-20.5 259,-20.5 259,0.5 435,0.5 435,-20.5"/>
<text text-anchor="middle" x="347" y="-7.5" font-family="Vera" font-size="10.00">lancet.launch.CommandTemplate</text>
</g>
<!-- param.parameterized.Parameterized&#45;&gt;lancet.launch.CommandTemplate -->
<g id="edge10" class="edge"><title>param.parameterized.Parameterized&#45;&gt;lancet.launch.CommandTemplate</title>
<path fill="none" stroke="black" stroke-width="0.5" d="M128.175,-56.9703C154.96,-48.6238 194.727,-36.8746 230,-29 243.416,-26.005 257.796,-23.2794 271.724,-20.8865"/>
<polygon fill="black" stroke="black" points="272.195,-22.5816 276.832,-20.0201 271.61,-19.1309 272.195,-22.5816"/>
</g>
<!-- topo.misc.lancext.batch_analysis -->
<g id="node2" class="node"><title>topo.misc.lancext.batch_analysis</title>
<polygon fill="none" stroke="black" stroke-width="0.5" points="687,-134.5 513,-134.5 513,-113.5 687,-113.5 687,-134.5"/>
<text text-anchor="middle" x="600" y="-121.5" font-family="Vera" font-size="10.00">topo.misc.lancext.batch_analysis</text>
</g>
<!-- lancet.launch.review_and_launch&#45;&gt;topo.misc.lancext.batch_analysis -->
<g id="edge2" class="edge"><title>lancet.launch.review_and_launch&#45;&gt;topo.misc.lancext.batch_analysis</title>
<path fill="none" stroke="black" stroke-width="0.5" d="M433.714,-124C457.352,-124 483.053,-124 507.023,-124"/>
<polygon fill="black" stroke="black" points="507.11,-125.75 512.11,-124 507.11,-122.25 507.11,-125.75"/>
</g>
<!-- topo.misc.lancext.param_formatter -->
<g id="node5" class="node"><title>topo.misc.lancext.param_formatter</title>
<polygon fill="none" stroke="black" stroke-width="0.5" points="693,-96.5 507,-96.5 507,-75.5 693,-75.5 693,-96.5"/>
<text text-anchor="middle" x="600" y="-83.5" font-family="Vera" font-size="10.00">topo.misc.lancext.param_formatter</text>
</g>
<!-- param.parameterized.ParameterizedFunction&#45;&gt;topo.misc.lancext.param_formatter -->
<g id="edge4" class="edge"><title>param.parameterized.ParameterizedFunction&#45;&gt;topo.misc.lancext.param_formatter</title>
<path fill="none" stroke="black" stroke-width="0.5" d="M464.242,-86C476.57,-86 489.016,-86 501.108,-86"/>
<polygon fill="black" stroke="black" points="501.268,-87.7501 506.267,-86 501.267,-84.2501 501.268,-87.7501"/>
</g>
<!-- topo.misc.lancext.RunBatchCommand -->
<g id="node14" class="node"><title>topo.misc.lancext.RunBatchCommand</title>
<polygon fill="none" stroke="black" stroke-width="0.5" points="700,-20.5 500,-20.5 500,0.5 700,0.5 700,-20.5"/>
<text text-anchor="middle" x="600" y="-7.5" font-family="Vera" font-size="10.00">topo.misc.lancext.RunBatchCommand</text>
</g>
<!-- lancet.launch.CommandTemplate&#45;&gt;topo.misc.lancext.RunBatchCommand -->
<g id="edge14" class="edge"><title>lancet.launch.CommandTemplate&#45;&gt;topo.misc.lancext.RunBatchCommand</title>
<path fill="none" stroke="black" stroke-width="0.5" d="M435.843,-10C454.714,-10 474.815,-10 494.245,-10"/>
<polygon fill="black" stroke="black" points="494.706,-11.7501 499.706,-10 494.706,-8.25009 494.706,-11.7501"/>
</g>
</g>
</svg>
