<?xml version="1.0" encoding="UTF-8" standalone="no"?>
<!DOCTYPE svg PUBLIC "-//W3C//DTD SVG 1.1//EN"
 "http://www.w3.org/Graphics/SVG/1.1/DTD/svg11.dtd">
<!-- Generated by graphviz version 2.26.3 (20100126.1600)
 -->
<!-- Title: inheritancef1ac05fc54 Pages: 1 -->
<svg width="834pt" height="370pt"
 viewBox="0.00 0.00 834.00 370.00" xmlns="http://www.w3.org/2000/svg" xmlns:xlink="http://www.w3.org/1999/xlink">
<g id="graph1" class="graph" transform="scale(1 1) rotate(0) translate(4 366)">
<title>inheritancef1ac05fc54</title>
<polygon fill="white" stroke="white" points="-4,5 -4,-366 831,-366 831,5 -4,5"/>
<!-- numbergen.UniformRandomOffset -->
<g id="node1" class="node"><title>numbergen.UniformRandomOffset</title>
<polygon fill="none" stroke="black" stroke-width="0.5" points="826,-362.5 644,-362.5 644,-341.5 826,-341.5 826,-362.5"/>
<text text-anchor="middle" x="735" y="-349.5" font-family="Vera" font-size="10.00">numbergen.UniformRandomOffset</text>
</g>
<!-- numbergen.RandomDistribution -->
<g id="node2" class="node"><title>numbergen.RandomDistribution</title>
<polygon fill="none" stroke="black" stroke-width="0.5" points="604,-248.5 434,-248.5 434,-227.5 604,-227.5 604,-248.5"/>
<text text-anchor="middle" x="519" y="-235.5" font-family="Vera" font-size="10.00">numbergen.RandomDistribution</text>
</g>
<!-- numbergen.RandomDistribution&#45;&gt;numbergen.UniformRandomOffset -->
<g id="edge2" class="edge"><title>numbergen.RandomDistribution&#45;&gt;numbergen.UniformRandomOffset</title>
<path fill="none" stroke="black" stroke-width="0.5" d="M528.978,-248.157C548.91,-267.816 595.887,-311.059 644,-333 650.443,-335.938 657.35,-338.427 664.374,-340.535"/>
<polygon fill="black" stroke="black" points="663.962,-342.237 669.25,-341.934 664.927,-338.873 663.962,-342.237"/>
</g>
<!-- numbergen.VonMisesRandom -->
<g id="node10" class="node"><title>numbergen.VonMisesRandom</title>
<polygon fill="none" stroke="black" stroke-width="0.5" points="815,-324.5 655,-324.5 655,-303.5 815,-303.5 815,-324.5"/>
<text text-anchor="middle" x="735" y="-311.5" font-family="Vera" font-size="10.00">numbergen.VonMisesRandom</text>
</g>
<!-- numbergen.RandomDistribution&#45;&gt;numbergen.VonMisesRandom -->
<g id="edge8" class="edge"><title>numbergen.RandomDistribution&#45;&gt;numbergen.VonMisesRandom</title>
<path fill="none" stroke="black" stroke-width="0.5" d="M537.534,-248.036C561.491,-260.633 604.791,-282.144 644,-295 653.011,-297.955 662.68,-300.554 672.229,-302.805"/>
<polygon fill="black" stroke="black" points="671.943,-304.535 677.208,-303.951 672.728,-301.124 671.943,-304.535"/>
</g>
<!-- numbergen.UniformRandomInt -->
<g id="node12" class="node"><title>numbergen.UniformRandomInt</title>
<polygon fill="none" stroke="black" stroke-width="0.5" points="817,-286.5 653,-286.5 653,-265.5 817,-265.5 817,-286.5"/>
<text text-anchor="middle" x="735" y="-273.5" font-family="Vera" font-size="10.00">numbergen.UniformRandomInt</text>
</g>
<!-- numbergen.RandomDistribution&#45;&gt;numbergen.UniformRandomInt -->
<g id="edge10" class="edge"><title>numbergen.RandomDistribution&#45;&gt;numbergen.UniformRandomInt</title>
<path fill="none" stroke="black" stroke-width="0.5" d="M576.034,-248.034C605.809,-253.272 642.289,-259.69 672.79,-265.056"/>
<polygon fill="black" stroke="black" points="672.794,-266.833 678.021,-265.976 673.4,-263.386 672.794,-266.833"/>
</g>
<!-- numbergen.NormalRandom -->
<g id="node19" class="node"><title>numbergen.NormalRandom</title>
<polygon fill="none" stroke="black" stroke-width="0.5" points="810,-248.5 660,-248.5 660,-227.5 810,-227.5 810,-248.5"/>
<text text-anchor="middle" x="735" y="-235.5" font-family="Vera" font-size="10.00">numbergen.NormalRandom</text>
</g>
<!-- numbergen.RandomDistribution&#45;&gt;numbergen.NormalRandom -->
<g id="edge18" class="edge"><title>numbergen.RandomDistribution&#45;&gt;numbergen.NormalRandom</title>
<path fill="none" stroke="black" stroke-width="0.5" d="M604.059,-238C620.749,-238 638.206,-238 654.733,-238"/>
<polygon fill="black" stroke="black" points="654.83,-239.75 659.83,-238 654.83,-236.25 654.83,-239.75"/>
</g>
<!-- numbergen.Choice -->
<g id="node21" class="node"><title>numbergen.Choice</title>
<polygon fill="none" stroke="black" stroke-width="0.5" points="788,-210.5 682,-210.5 682,-189.5 788,-189.5 788,-210.5"/>
<text text-anchor="middle" x="735" y="-197.5" font-family="Vera" font-size="10.00">numbergen.Choice</text>
</g>
<!-- numbergen.RandomDistribution&#45;&gt;numbergen.Choice -->
<g id="edge20" class="edge"><title>numbergen.RandomDistribution&#45;&gt;numbergen.Choice</title>
<path fill="none" stroke="black" stroke-width="0.5" d="M576.034,-227.966C607,-222.519 645.218,-215.795 676.42,-210.306"/>
<polygon fill="black" stroke="black" points="676.744,-212.026 681.366,-209.436 676.138,-208.579 676.744,-212.026"/>
</g>
<!-- numbergen.UniformRandom -->
<g id="node27" class="node"><title>numbergen.UniformRandom</title>
<polygon fill="none" stroke="black" stroke-width="0.5" points="811,-172.5 659,-172.5 659,-151.5 811,-151.5 811,-172.5"/>
<text text-anchor="middle" x="735" y="-159.5" font-family="Vera" font-size="10.00">numbergen.UniformRandom</text>
</g>
<!-- numbergen.RandomDistribution&#45;&gt;numbergen.UniformRandom -->
<g id="edge26" class="edge"><title>numbergen.RandomDistribution&#45;&gt;numbergen.UniformRandom</title>
<path fill="none" stroke="black" stroke-width="0.5" d="M537.534,-227.964C561.491,-215.367 604.791,-193.856 644,-181 653.011,-178.045 662.68,-175.446 672.229,-173.195"/>
<polygon fill="black" stroke="black" points="672.728,-174.876 677.208,-172.049 671.943,-171.465 672.728,-174.876"/>
</g>
<!-- numbergen.BoxCar -->
<g id="node4" class="node"><title>numbergen.BoxCar</title>
<polygon fill="none" stroke="black" stroke-width="0.5" points="790,-134.5 680,-134.5 680,-113.5 790,-113.5 790,-134.5"/>
<text text-anchor="middle" x="735" y="-121.5" font-family="Vera" font-size="10.00">numbergen.BoxCar</text>
</g>
<!-- numbergen.TimeDependentValue -->
<g id="node5" class="node"><title>numbergen.TimeDependentValue</title>
<polygon fill="none" stroke="black" stroke-width="0.5" points="608,-134.5 430,-134.5 430,-113.5 608,-113.5 608,-134.5"/>
<text text-anchor="middle" x="519" y="-121.5" font-family="Vera" font-size="10.00">numbergen.TimeDependentValue</text>
</g>
<!-- numbergen.TimeDependentValue&#45;&gt;numbergen.BoxCar -->
<g id="edge4" class="edge"><title>numbergen.TimeDependentValue&#45;&gt;numbergen.BoxCar</title>
<path fill="none" stroke="black" stroke-width="0.5" d="M608.103,-124C630.493,-124 654.002,-124 674.617,-124"/>
<polygon fill="black" stroke="black" points="674.793,-125.75 679.793,-124 674.793,-122.25 674.793,-125.75"/>
</g>
<!-- numbergen.ExponentialDecay -->
<g id="node23" class="node"><title>numbergen.ExponentialDecay</title>
<polygon fill="none" stroke="black" stroke-width="0.5" points="815,-96.5 655,-96.5 655,-75.5 815,-75.5 815,-96.5"/>
<text text-anchor="middle" x="735" y="-83.5" font-family="Vera" font-size="10.00">numbergen.ExponentialDecay</text>
</g>
<!-- numbergen.TimeDependentValue&#45;&gt;numbergen.ExponentialDecay -->
<g id="edge22" class="edge"><title>numbergen.TimeDependentValue&#45;&gt;numbergen.ExponentialDecay</title>
<path fill="none" stroke="black" stroke-width="0.5" d="M576.034,-113.966C605.809,-108.728 642.289,-102.31 672.79,-96.9443"/>
<polygon fill="black" stroke="black" points="673.4,-98.614 678.021,-96.024 672.794,-95.1669 673.4,-98.614"/>
</g>
<!-- param.parameterized.Parameterized -->
<g id="node7" class="node"><title>param.parameterized.Parameterized</title>
<polygon fill="none" stroke="black" stroke-width="0.5" points="194,-96.5 5.68434e-14,-96.5 0,-75.5 194,-75.5 194,-96.5"/>
<text text-anchor="middle" x="97" y="-83.5" font-family="Vera" font-size="10.00">param.parameterized.Parameterized</text>
</g>
<!-- numbergen.NumberGenerator -->
<g id="node8" class="node"><title>numbergen.NumberGenerator</title>
<polygon fill="none" stroke="black" stroke-width="0.5" points="393,-96.5 231,-96.5 231,-75.5 393,-75.5 393,-96.5"/>
<text text-anchor="middle" x="312" y="-83.5" font-family="Vera" font-size="10.00">numbergen.NumberGenerator</text>
</g>
<!-- param.parameterized.Parameterized&#45;&gt;numbergen.NumberGenerator -->
<g id="edge12" class="edge"><title>param.parameterized.Parameterized&#45;&gt;numbergen.NumberGenerator</title>
<path fill="none" stroke="black" stroke-width="0.5" d="M194.121,-86C204.545,-86 215.101,-86 225.391,-86"/>
<polygon fill="black" stroke="black" points="225.419,-87.7501 230.419,-86 225.419,-84.2501 225.419,-87.7501"/>
</g>
<!-- numbergen.NumberGenerator&#45;&gt;numbergen.RandomDistribution -->
<g id="edge6" class="edge"><title>numbergen.NumberGenerator&#45;&gt;numbergen.RandomDistribution</title>
<path fill="none" stroke="black" stroke-width="0.5" d="M325.903,-96.2092C362.287,-122.926 460.294,-194.893 500.948,-224.744"/>
<polygon fill="black" stroke="black" points="500.091,-226.286 505.157,-227.835 502.163,-223.465 500.091,-226.286"/>
</g>
<!-- numbergen.NumberGenerator&#45;&gt;numbergen.TimeDependentValue -->
<g id="edge28" class="edge"><title>numbergen.NumberGenerator&#45;&gt;numbergen.TimeDependentValue</title>
<path fill="none" stroke="black" stroke-width="0.5" d="M366.658,-96.0338C395.192,-101.272 430.152,-107.69 459.382,-113.056"/>
<polygon fill="black" stroke="black" points="459.162,-114.794 464.395,-113.976 459.794,-111.352 459.162,-114.794"/>
</g>
<!-- numbergen.BoundedNumber -->
<g id="node15" class="node"><title>numbergen.BoundedNumber</title>
<polygon fill="none" stroke="black" stroke-width="0.5" points="597,-96.5 441,-96.5 441,-75.5 597,-75.5 597,-96.5"/>
<text text-anchor="middle" x="519" y="-83.5" font-family="Vera" font-size="10.00">numbergen.BoundedNumber</text>
</g>
<!-- numbergen.NumberGenerator&#45;&gt;numbergen.BoundedNumber -->
<g id="edge14" class="edge"><title>numbergen.NumberGenerator&#45;&gt;numbergen.BoundedNumber</title>
<path fill="none" stroke="black" stroke-width="0.5" d="M393.515,-86C407.219,-86 421.461,-86 435.221,-86"/>
<polygon fill="black" stroke="black" points="435.267,-87.7501 440.267,-86 435.267,-84.2501 435.267,-87.7501"/>
</g>
<!-- numbergen.UnaryOperator -->
<g id="node17" class="node"><title>numbergen.UnaryOperator</title>
<polygon fill="none" stroke="black" stroke-width="0.5" points="592,-58.5 446,-58.5 446,-37.5 592,-37.5 592,-58.5"/>
<text text-anchor="middle" x="519" y="-45.5" font-family="Vera" font-size="10.00">numbergen.UnaryOperator</text>
</g>
<!-- numbergen.NumberGenerator&#45;&gt;numbergen.UnaryOperator -->
<g id="edge16" class="edge"><title>numbergen.NumberGenerator&#45;&gt;numbergen.UnaryOperator</title>
<path fill="none" stroke="black" stroke-width="0.5" d="M366.658,-75.9662C395.192,-70.7281 430.152,-64.3102 459.382,-58.9443"/>
<polygon fill="black" stroke="black" points="459.794,-60.6482 464.395,-58.024 459.162,-57.2057 459.794,-60.6482"/>
</g>
<!-- numbergen.BinaryOperator -->
<g id="node25" class="node"><title>numbergen.BinaryOperator</title>
<polygon fill="none" stroke="black" stroke-width="0.5" points="593,-20.5 445,-20.5 445,0.5 593,0.5 593,-20.5"/>
<text text-anchor="middle" x="519" y="-7.5" font-family="Vera" font-size="10.00">numbergen.BinaryOperator</text>
</g>
<!-- numbergen.NumberGenerator&#45;&gt;numbergen.BinaryOperator -->
<g id="edge24" class="edge"><title>numbergen.NumberGenerator&#45;&gt;numbergen.BinaryOperator</title>
<path fill="none" stroke="black" stroke-width="0.5" d="M329.427,-75.934C351.968,-63.3049 392.767,-41.7601 430,-29 438.575,-26.0612 447.777,-23.4853 456.894,-21.2572"/>
<polygon fill="black" stroke="black" points="457.487,-22.9151 461.946,-20.0551 456.677,-19.5102 457.487,-22.9151"/>
</g>
</g>
</svg>
