<?xml version="1.0" encoding="UTF-8" standalone="no"?>
<!DOCTYPE svg PUBLIC "-//W3C//DTD SVG 1.1//EN"
 "http://www.w3.org/Graphics/SVG/1.1/DTD/svg11.dtd">
<!-- Generated by graphviz version 2.26.3 (20100126.1600)
 -->
<!-- Title: inheritance489beebb75 Pages: 1 -->
<svg width="780pt" height="560pt"
 viewBox="0.00 0.00 780.00 560.00" xmlns="http://www.w3.org/2000/svg" xmlns:xlink="http://www.w3.org/1999/xlink">
<g id="graph1" class="graph" transform="scale(1 1) rotate(0) translate(4 556)">
<title>inheritance489beebb75</title>
<polygon fill="white" stroke="white" points="-4,5 -4,-556 777,-556 777,5 -4,5"/>
<!-- paramtk.tilewrapper.Treeview -->
<g id="node1" class="node"><title>paramtk.tilewrapper.Treeview</title>
<polygon fill="none" stroke="black" stroke-width="0.5" points="763,-552 611,-552 611,-532 763,-532 763,-552"/>
<text text-anchor="middle" x="687" y="-539" font-family="Vera" font-size="10.00">paramtk.tilewrapper.Treeview</text>
</g>
<!-- paramtk.tilewrapper.Widget -->
<g id="node2" class="node"><title>paramtk.tilewrapper.Widget</title>
<polygon fill="none" stroke="black" stroke-width="0.5" points="566,-267 422,-267 422,-247 566,-247 566,-267"/>
<text text-anchor="middle" x="494" y="-254" font-family="Vera" font-size="10.00">paramtk.tilewrapper.Widget</text>
</g>
<!-- paramtk.tilewrapper.Widget&#45;&gt;paramtk.tilewrapper.Treeview -->
<g id="edge2" class="edge"><title>paramtk.tilewrapper.Widget&#45;&gt;paramtk.tilewrapper.Treeview</title>
<path fill="none" stroke="black" stroke-width="0.5" d="M507.57,-267.188C524.155,-280.428 551.764,-305.168 566,-333 605.14,-409.518 542.227,-461.242 602,-523 604.103,-525.173 606.397,-527.123 608.838,-528.87"/>
<polygon fill="black" stroke="black" points="608.232,-530.562 613.382,-531.802 610.129,-527.621 608.232,-530.562"/>
</g>
<!-- paramtk.tilewrapper.Checkbutton -->
<g id="node12" class="node"><title>paramtk.tilewrapper.Checkbutton</title>
<polygon fill="none" stroke="black" stroke-width="0.5" points="772,-438 602,-438 602,-418 772,-418 772,-438"/>
<text text-anchor="middle" x="687" y="-425" font-family="Vera" font-size="10.00">paramtk.tilewrapper.Checkbutton</text>
</g>
<!-- paramtk.tilewrapper.Widget&#45;&gt;paramtk.tilewrapper.Checkbutton -->
<g id="edge8" class="edge"><title>paramtk.tilewrapper.Widget&#45;&gt;paramtk.tilewrapper.Checkbutton</title>
<path fill="none" stroke="black" stroke-width="0.5" d="M505.666,-267.129C520.983,-280.877 548.031,-306.755 566,-333 587.115,-363.84 572.801,-385.668 602,-409 605.086,-411.466 608.428,-413.627 611.94,-415.518"/>
<polygon fill="black" stroke="black" points="611.57,-417.288 616.828,-417.935 613.122,-414.15 611.57,-417.288"/>
</g>
<!-- paramtk.tilewrapper.Combobox -->
<g id="node23" class="node"><title>paramtk.tilewrapper.Combobox</title>
<polygon fill="none" stroke="black" stroke-width="0.5" points="768,-514 606,-514 606,-494 768,-494 768,-514"/>
<text text-anchor="middle" x="687" y="-501" font-family="Vera" font-size="10.00">paramtk.tilewrapper.Combobox</text>
</g>
<!-- paramtk.tilewrapper.Widget&#45;&gt;paramtk.tilewrapper.Combobox -->
<g id="edge18" class="edge"><title>paramtk.tilewrapper.Widget&#45;&gt;paramtk.tilewrapper.Combobox</title>
<path fill="none" stroke="black" stroke-width="0.5" d="M507.083,-267.063C523.425,-280.355 551.05,-305.338 566,-333 599.007,-394.076 552.6,-436.221 602,-485 604.33,-487.301 606.874,-489.348 609.58,-491.169"/>
<polygon fill="black" stroke="black" points="608.778,-492.73 613.956,-493.847 610.605,-489.744 608.778,-492.73"/>
</g>
<!-- paramtk.tilewrapper.Entry -->
<g id="node28" class="node"><title>paramtk.tilewrapper.Entry</title>
<polygon fill="none" stroke="black" stroke-width="0.5" points="755,-476 619,-476 619,-456 755,-456 755,-476"/>
<text text-anchor="middle" x="687" y="-463" font-family="Vera" font-size="10.00">paramtk.tilewrapper.Entry</text>
</g>
<!-- paramtk.tilewrapper.Widget&#45;&gt;paramtk.tilewrapper.Entry -->
<g id="edge24" class="edge"><title>paramtk.tilewrapper.Widget&#45;&gt;paramtk.tilewrapper.Entry</title>
<path fill="none" stroke="black" stroke-width="0.5" d="M506.49,-267.009C522.459,-280.431 549.954,-305.748 566,-333 592.958,-378.786 562.85,-411.078 602,-447 605.677,-450.374 609.818,-453.193 614.243,-455.545"/>
<polygon fill="black" stroke="black" points="613.495,-457.127 618.756,-457.745 615.028,-453.981 613.495,-457.127"/>
</g>
<!-- paramtk.tilewrapper.Separator -->
<g id="node31" class="node"><title>paramtk.tilewrapper.Separator</title>
<polygon fill="none" stroke="black" stroke-width="0.5" points="765,-400 609,-400 609,-380 765,-380 765,-400"/>
<text text-anchor="middle" x="687" y="-387" font-family="Vera" font-size="10.00">paramtk.tilewrapper.Separator</text>
</g>
<!-- paramtk.tilewrapper.Widget&#45;&gt;paramtk.tilewrapper.Separator -->
<g id="edge28" class="edge"><title>paramtk.tilewrapper.Widget&#45;&gt;paramtk.tilewrapper.Separator</title>
<path fill="none" stroke="black" stroke-width="0.5" d="M503.574,-267.111C529.98,-294.997 601.903,-370.945 602,-371 607.034,-373.857 612.464,-376.284 618.058,-378.347"/>
<polygon fill="black" stroke="black" points="617.493,-380.003 622.79,-379.995 618.644,-376.698 617.493,-380.003"/>
</g>
<!-- paramtk.tilewrapper.Label -->
<g id="node33" class="node"><title>paramtk.tilewrapper.Label</title>
<polygon fill="none" stroke="black" stroke-width="0.5" points="755,-248 619,-248 619,-228 755,-228 755,-248"/>
<text text-anchor="middle" x="687" y="-235" font-family="Vera" font-size="10.00">paramtk.tilewrapper.Label</text>
</g>
<!-- paramtk.tilewrapper.Widget&#45;&gt;paramtk.tilewrapper.Label -->
<g id="edge30" class="edge"><title>paramtk.tilewrapper.Widget&#45;&gt;paramtk.tilewrapper.Label</title>
<path fill="none" stroke="black" stroke-width="0.5" d="M566.141,-249.898C581.628,-248.373 598.011,-246.761 613.547,-245.231"/>
<polygon fill="black" stroke="black" points="613.976,-246.947 618.781,-244.716 613.633,-243.464 613.976,-246.947"/>
</g>
<!-- paramtk.tilewrapper.Button -->
<g id="node39" class="node"><title>paramtk.tilewrapper.Button</title>
<polygon fill="none" stroke="black" stroke-width="0.5" points="758,-172 616,-172 616,-152 758,-152 758,-172"/>
<text text-anchor="middle" x="687" y="-159" font-family="Vera" font-size="10.00">paramtk.tilewrapper.Button</text>
</g>
<!-- paramtk.tilewrapper.Widget&#45;&gt;paramtk.tilewrapper.Button -->
<g id="edge36" class="edge"><title>paramtk.tilewrapper.Widget&#45;&gt;paramtk.tilewrapper.Button</title>
<path fill="none" stroke="black" stroke-width="0.5" d="M517.52,-246.981C532.175,-240.175 551.024,-230.362 566,-219 584.534,-204.939 581.766,-192.482 602,-181 607.034,-178.143 612.464,-175.716 618.058,-173.653"/>
<polygon fill="black" stroke="black" points="618.644,-175.302 622.79,-172.005 617.493,-171.997 618.644,-175.302"/>
</g>
<!-- paramtk.tilewrapper.LabelFrame -->
<g id="node43" class="node"><title>paramtk.tilewrapper.LabelFrame</title>
<polygon fill="none" stroke="black" stroke-width="0.5" points="769,-210 605,-210 605,-190 769,-190 769,-210"/>
<text text-anchor="middle" x="687" y="-197" font-family="Vera" font-size="10.00">paramtk.tilewrapper.LabelFrame</text>
</g>
<!-- paramtk.tilewrapper.Widget&#45;&gt;paramtk.tilewrapper.LabelFrame -->
<g id="edge40" class="edge"><title>paramtk.tilewrapper.Widget&#45;&gt;paramtk.tilewrapper.LabelFrame</title>
<path fill="none" stroke="black" stroke-width="0.5" d="M519.909,-246.91C541.615,-238.694 573.53,-227.16 602,-219 611.744,-216.207 622.212,-213.575 632.358,-211.209"/>
<polygon fill="black" stroke="black" points="632.828,-212.897 637.309,-210.07 632.044,-209.486 632.828,-212.897"/>
</g>
<!-- paramtk.tilewrapper.Menubutton -->
<g id="node51" class="node"><title>paramtk.tilewrapper.Menubutton</title>
<polygon fill="none" stroke="black" stroke-width="0.5" points="771,-134 603,-134 603,-114 771,-114 771,-134"/>
<text text-anchor="middle" x="687" y="-121" font-family="Vera" font-size="10.00">paramtk.tilewrapper.Menubutton</text>
</g>
<!-- paramtk.tilewrapper.Widget&#45;&gt;paramtk.tilewrapper.Menubutton -->
<g id="edge52" class="edge"><title>paramtk.tilewrapper.Widget&#45;&gt;paramtk.tilewrapper.Menubutton</title>
<path fill="none" stroke="black" stroke-width="0.5" d="M522.726,-246.902C537.162,-240.668 554.073,-231.454 566,-219 591.851,-192.006 572.801,-166.332 602,-143 605.086,-140.534 608.428,-138.373 611.94,-136.482"/>
<polygon fill="black" stroke="black" points="613.122,-137.85 616.828,-134.065 611.57,-134.712 613.122,-137.85"/>
</g>
<!-- paramtk.tilewrapper.Paned -->
<g id="node58" class="node"><title>paramtk.tilewrapper.Paned</title>
<polygon fill="none" stroke="black" stroke-width="0.5" points="757,-362 617,-362 617,-342 757,-342 757,-362"/>
<text text-anchor="middle" x="687" y="-349" font-family="Vera" font-size="10.00">paramtk.tilewrapper.Paned</text>
</g>
<!-- paramtk.tilewrapper.Widget&#45;&gt;paramtk.tilewrapper.Paned -->
<g id="edge64" class="edge"><title>paramtk.tilewrapper.Widget&#45;&gt;paramtk.tilewrapper.Paned</title>
<path fill="none" stroke="black" stroke-width="0.5" d="M505.061,-267.069C523.661,-283.444 563.002,-315.745 602,-333 608.629,-335.933 615.756,-338.434 622.961,-340.561"/>
<polygon fill="black" stroke="black" points="622.67,-342.297 627.957,-341.975 623.623,-338.93 622.67,-342.297"/>
</g>
<!-- paramtk.tilewrapper.Progressbar -->
<g id="node62" class="node"><title>paramtk.tilewrapper.Progressbar</title>
<polygon fill="none" stroke="black" stroke-width="0.5" points="770,-324 604,-324 604,-304 770,-304 770,-324"/>
<text text-anchor="middle" x="687" y="-311" font-family="Vera" font-size="10.00">paramtk.tilewrapper.Progressbar</text>
</g>
<!-- paramtk.tilewrapper.Widget&#45;&gt;paramtk.tilewrapper.Progressbar -->
<g id="edge70" class="edge"><title>paramtk.tilewrapper.Widget&#45;&gt;paramtk.tilewrapper.Progressbar</title>
<path fill="none" stroke="black" stroke-width="0.5" d="M519.909,-267.09C541.615,-275.306 573.53,-286.84 602,-295 611.744,-297.793 622.212,-300.425 632.358,-302.791"/>
<polygon fill="black" stroke="black" points="632.044,-304.514 637.309,-303.93 632.828,-301.103 632.044,-304.514"/>
</g>
<!-- paramtk.tilewrapper.Radiobutton -->
<g id="node64" class="node"><title>paramtk.tilewrapper.Radiobutton</title>
<polygon fill="none" stroke="black" stroke-width="0.5" points="771,-96 603,-96 603,-76 771,-76 771,-96"/>
<text text-anchor="middle" x="687" y="-83" font-family="Vera" font-size="10.00">paramtk.tilewrapper.Radiobutton</text>
</g>
<!-- paramtk.tilewrapper.Widget&#45;&gt;paramtk.tilewrapper.Radiobutton -->
<g id="edge72" class="edge"><title>paramtk.tilewrapper.Widget&#45;&gt;paramtk.tilewrapper.Radiobutton</title>
<path fill="none" stroke="black" stroke-width="0.5" d="M524.893,-246.94C539.18,-240.878 555.313,-231.804 566,-219 600.047,-178.209 562.85,-140.922 602,-105 604.559,-102.652 607.343,-100.572 610.292,-98.7317"/>
<polygon fill="black" stroke="black" points="611.565,-100.021 615.051,-96.032 609.838,-96.9769 611.565,-100.021"/>
</g>
<!-- paramtk.tilewrapper.Frame -->
<g id="node67" class="node"><title>paramtk.tilewrapper.Frame</title>
<polygon fill="none" stroke="black" stroke-width="0.5" points="757,-58 617,-58 617,-38 757,-38 757,-58"/>
<text text-anchor="middle" x="687" y="-45" font-family="Vera" font-size="10.00">paramtk.tilewrapper.Frame</text>
</g>
<!-- paramtk.tilewrapper.Widget&#45;&gt;paramtk.tilewrapper.Frame -->
<g id="edge76" class="edge"><title>paramtk.tilewrapper.Widget&#45;&gt;paramtk.tilewrapper.Frame</title>
<path fill="none" stroke="black" stroke-width="0.5" d="M526.042,-246.967C540.238,-240.981 555.962,-231.964 566,-219 608.503,-164.107 552.6,-115.779 602,-67 604.885,-64.1513 608.098,-61.6909 611.539,-59.5688"/>
<polygon fill="black" stroke="black" points="612.847,-60.8429 616.362,-56.8798 611.143,-57.7858 612.847,-60.8429"/>
</g>
<!-- paramtk.tilewrapper.Scrollbar -->
<g id="node72" class="node"><title>paramtk.tilewrapper.Scrollbar</title>
<polygon fill="none" stroke="black" stroke-width="0.5" points="763,-20 611,-20 611,-1.06581e-14 763,-3.55271e-15 763,-20"/>
<text text-anchor="middle" x="687" y="-7" font-family="Vera" font-size="10.00">paramtk.tilewrapper.Scrollbar</text>
</g>
<!-- paramtk.tilewrapper.Widget&#45;&gt;paramtk.tilewrapper.Scrollbar -->
<g id="edge82" class="edge"><title>paramtk.tilewrapper.Widget&#45;&gt;paramtk.tilewrapper.Scrollbar</title>
<path fill="none" stroke="black" stroke-width="0.5" d="M527.046,-246.858C541.102,-240.913 556.426,-231.96 566,-219 617.066,-149.869 542.227,-90.7579 602,-29 604.103,-26.8269 606.397,-24.8774 608.838,-23.1298"/>
<polygon fill="black" stroke="black" points="610.129,-24.379 613.382,-20.1975 608.232,-21.4382 610.129,-24.379"/>
</g>
<!-- paramtk.tilewrapper.Notebook -->
<g id="node78" class="node"><title>paramtk.tilewrapper.Notebook</title>
<polygon fill="none" stroke="black" stroke-width="0.5" points="765,-286 609,-286 609,-266 765,-266 765,-286"/>
<text text-anchor="middle" x="687" y="-273" font-family="Vera" font-size="10.00">paramtk.tilewrapper.Notebook</text>
</g>
<!-- paramtk.tilewrapper.Widget&#45;&gt;paramtk.tilewrapper.Notebook -->
<g id="edge90" class="edge"><title>paramtk.tilewrapper.Widget&#45;&gt;paramtk.tilewrapper.Notebook</title>
<path fill="none" stroke="black" stroke-width="0.5" d="M566.141,-264.102C578.226,-265.292 590.857,-266.535 603.205,-267.751"/>
<polygon fill="black" stroke="black" points="603.33,-269.521 608.477,-268.27 603.673,-266.038 603.33,-269.521"/>
</g>
<!-- Tkinter.Listbox -->
<g id="node4" class="node"><title>Tkinter.Listbox</title>
<polygon fill="none" stroke="black" stroke-width="0.5" points="536,-514 452,-514 452,-494 536,-494 536,-514"/>
<text text-anchor="middle" x="494" y="-501" font-family="Vera" font-size="10.00">Tkinter.Listbox</text>
</g>
<!-- Tkinter.Listbox&#45;&gt;paramtk.tilewrapper.Treeview -->
<g id="edge4" class="edge"><title>Tkinter.Listbox&#45;&gt;paramtk.tilewrapper.Treeview</title>
<path fill="none" stroke="black" stroke-width="0.5" d="M536.355,-512.339C564.152,-517.812 600.811,-525.03 631.006,-530.975"/>
<polygon fill="black" stroke="black" points="630.934,-532.745 636.178,-531.994 631.61,-529.311 630.934,-532.745"/>
</g>
<!-- Tkinter.XView -->
<g id="node6" class="node"><title>Tkinter.XView</title>
<polygon fill="none" stroke="black" stroke-width="0.5" points="358,-476 280,-476 280,-456 358,-456 358,-476"/>
<text text-anchor="middle" x="319" y="-463" font-family="Vera" font-size="10.00">Tkinter.XView</text>
</g>
<!-- Tkinter.XView&#45;&gt;Tkinter.Listbox -->
<g id="edge58" class="edge"><title>Tkinter.XView&#45;&gt;Tkinter.Listbox</title>
<path fill="none" stroke="black" stroke-width="0.5" d="M358.71,-474.623C384.817,-480.292 419.113,-487.739 446.641,-493.716"/>
<polygon fill="black" stroke="black" points="446.441,-495.464 451.698,-494.815 447.184,-492.043 446.441,-495.464"/>
</g>
<!-- Tkinter.Entry -->
<g id="node25" class="node"><title>Tkinter.Entry</title>
<polygon fill="none" stroke="black" stroke-width="0.5" points="532,-476 456,-476 456,-456 532,-456 532,-476"/>
<text text-anchor="middle" x="494" y="-463" font-family="Vera" font-size="10.00">Tkinter.Entry</text>
</g>
<!-- Tkinter.XView&#45;&gt;Tkinter.Entry -->
<g id="edge68" class="edge"><title>Tkinter.XView&#45;&gt;Tkinter.Entry</title>
<path fill="none" stroke="black" stroke-width="0.5" d="M358.71,-466C386.147,-466 422.626,-466 450.79,-466"/>
<polygon fill="black" stroke="black" points="450.948,-467.75 455.948,-466 450.948,-464.25 450.948,-467.75"/>
</g>
<!-- Tkinter.Radiobutton -->
<g id="node7" class="node"><title>Tkinter.Radiobutton</title>
<polygon fill="none" stroke="black" stroke-width="0.5" points="548,-96 440,-96 440,-76 548,-76 548,-96"/>
<text text-anchor="middle" x="494" y="-83" font-family="Vera" font-size="10.00">Tkinter.Radiobutton</text>
</g>
<!-- Tkinter.Radiobutton&#45;&gt;paramtk.tilewrapper.Radiobutton -->
<g id="edge74" class="edge"><title>Tkinter.Radiobutton&#45;&gt;paramtk.tilewrapper.Radiobutton</title>
<path fill="none" stroke="black" stroke-width="0.5" d="M548.018,-86C563.48,-86 580.761,-86 597.741,-86"/>
<polygon fill="black" stroke="black" points="597.998,-87.7501 602.998,-86 597.998,-84.2501 597.998,-87.7501"/>
</g>
<!-- Tkinter.Widget -->
<g id="node8" class="node"><title>Tkinter.Widget</title>
<polygon fill="none" stroke="black" stroke-width="0.5" points="360,-191 278,-191 278,-171 360,-171 360,-191"/>
<text text-anchor="middle" x="319" y="-178" font-family="Vera" font-size="10.00">Tkinter.Widget</text>
</g>
<!-- Tkinter.Widget&#45;&gt;paramtk.tilewrapper.Widget -->
<g id="edge12" class="edge"><title>Tkinter.Widget&#45;&gt;paramtk.tilewrapper.Widget</title>
<path fill="none" stroke="black" stroke-width="0.5" d="M342.239,-191.092C374.229,-204.985 431.761,-229.971 466.058,-244.865"/>
<polygon fill="black" stroke="black" points="465.661,-246.6 470.944,-246.987 467.055,-243.39 465.661,-246.6"/>
</g>
<!-- Tkinter.Widget&#45;&gt;Tkinter.Listbox -->
<g id="edge56" class="edge"><title>Tkinter.Widget&#45;&gt;Tkinter.Listbox</title>
<path fill="none" stroke="black" stroke-width="0.5" d="M337.011,-191.135C352.682,-200.974 374.615,-217.42 386,-238 439.702,-335.074 348.122,-402.24 422,-485 428.525,-492.309 437.497,-496.956 446.895,-499.876"/>
<polygon fill="black" stroke="black" points="446.552,-501.597 451.838,-501.251 447.49,-498.225 446.552,-501.597"/>
</g>
<!-- Tkinter.Widget&#45;&gt;Tkinter.Radiobutton -->
<g id="edge6" class="edge"><title>Tkinter.Widget&#45;&gt;Tkinter.Radiobutton</title>
<path fill="none" stroke="black" stroke-width="0.5" d="M329.818,-170.805C347.645,-154.544 384.924,-122.766 422,-105 427.853,-102.195 434.179,-99.7601 440.568,-97.6572"/>
<polygon fill="black" stroke="black" points="441.218,-99.2872 445.459,-96.1132 440.164,-95.9496 441.218,-99.2872"/>
</g>
<!-- Tkinter.Checkbutton -->
<g id="node14" class="node"><title>Tkinter.Checkbutton</title>
<polygon fill="none" stroke="black" stroke-width="0.5" points="548,-362 440,-362 440,-342 548,-342 548,-362"/>
<text text-anchor="middle" x="494" y="-349" font-family="Vera" font-size="10.00">Tkinter.Checkbutton</text>
</g>
<!-- Tkinter.Widget&#45;&gt;Tkinter.Checkbutton -->
<g id="edge22" class="edge"><title>Tkinter.Widget&#45;&gt;Tkinter.Checkbutton</title>
<path fill="none" stroke="black" stroke-width="0.5" d="M331.697,-191.118C345.438,-202.223 367.823,-220.769 386,-238 386.309,-238.293 452.066,-307.722 480.81,-338.072"/>
<polygon fill="black" stroke="black" points="479.74,-339.487 484.448,-341.914 482.281,-337.081 479.74,-339.487"/>
</g>
<!-- Tkinter.Menubutton -->
<g id="node21" class="node"><title>Tkinter.Menubutton</title>
<polygon fill="none" stroke="black" stroke-width="0.5" points="548,-134 440,-134 440,-114 548,-114 548,-134"/>
<text text-anchor="middle" x="494" y="-121" font-family="Vera" font-size="10.00">Tkinter.Menubutton</text>
</g>
<!-- Tkinter.Widget&#45;&gt;Tkinter.Menubutton -->
<g id="edge16" class="edge"><title>Tkinter.Widget&#45;&gt;Tkinter.Menubutton</title>
<path fill="none" stroke="black" stroke-width="0.5" d="M344.165,-170.95C364.877,-162.864 395.099,-151.49 422,-143 430.27,-140.39 439.149,-137.843 447.751,-135.506"/>
<polygon fill="black" stroke="black" points="448.688,-137.066 453.062,-134.079 447.78,-133.686 448.688,-137.066"/>
</g>
<!-- Tkinter.Widget&#45;&gt;Tkinter.Entry -->
<g id="edge66" class="edge"><title>Tkinter.Widget&#45;&gt;Tkinter.Entry</title>
<path fill="none" stroke="black" stroke-width="0.5" d="M335.843,-191.087C351.153,-201.115 373.242,-217.88 386,-238 418.793,-289.718 395.009,-316.031 422,-371 437.603,-402.777 464.502,-434.505 480.634,-452.06"/>
<polygon fill="black" stroke="black" points="479.416,-453.32 484.1,-455.794 481.981,-450.939 479.416,-453.32"/>
</g>
<!-- Tkinter.Label -->
<g id="node35" class="node"><title>Tkinter.Label</title>
<polygon fill="none" stroke="black" stroke-width="0.5" points="532,-210 456,-210 456,-190 532,-190 532,-210"/>
<text text-anchor="middle" x="494" y="-197" font-family="Vera" font-size="10.00">Tkinter.Label</text>
</g>
<!-- Tkinter.Widget&#45;&gt;Tkinter.Label -->
<g id="edge80" class="edge"><title>Tkinter.Widget&#45;&gt;Tkinter.Label</title>
<path fill="none" stroke="black" stroke-width="0.5" d="M360.917,-185.551C388.047,-188.497 423.288,-192.323 450.69,-195.298"/>
<polygon fill="black" stroke="black" points="450.552,-197.043 455.711,-195.843 450.929,-193.563 450.552,-197.043"/>
</g>
<!-- Tkinter.Scrollbar -->
<g id="node37" class="node"><title>Tkinter.Scrollbar</title>
<polygon fill="none" stroke="black" stroke-width="0.5" points="540,-20 448,-20 448,-1.06581e-14 540,-3.55271e-15 540,-20"/>
<text text-anchor="middle" x="494" y="-7" font-family="Vera" font-size="10.00">Tkinter.Scrollbar</text>
</g>
<!-- Tkinter.Widget&#45;&gt;Tkinter.Scrollbar -->
<g id="edge34" class="edge"><title>Tkinter.Widget&#45;&gt;Tkinter.Scrollbar</title>
<path fill="none" stroke="black" stroke-width="0.5" d="M322.959,-170.62C334.048,-142.989 368.167,-67.1582 422,-29 428.17,-24.6265 435.28,-21.2597 442.578,-18.6678"/>
<polygon fill="black" stroke="black" points="443.451,-20.2227 447.651,-16.9944 442.355,-16.8988 443.451,-20.2227"/>
</g>
<!-- Tkinter.Button -->
<g id="node41" class="node"><title>Tkinter.Button</title>
<polygon fill="none" stroke="black" stroke-width="0.5" points="535,-172 453,-172 453,-152 535,-152 535,-172"/>
<text text-anchor="middle" x="494" y="-159" font-family="Vera" font-size="10.00">Tkinter.Button</text>
</g>
<!-- Tkinter.Widget&#45;&gt;Tkinter.Button -->
<g id="edge62" class="edge"><title>Tkinter.Widget&#45;&gt;Tkinter.Button</title>
<path fill="none" stroke="black" stroke-width="0.5" d="M360.917,-176.449C386.891,-173.629 420.301,-170.002 447.148,-167.087"/>
<polygon fill="black" stroke="black" points="447.643,-168.793 452.425,-166.514 447.265,-165.314 447.643,-168.793"/>
</g>
<!-- Tkinter.Frame -->
<g id="node69" class="node"><title>Tkinter.Frame</title>
<polygon fill="none" stroke="black" stroke-width="0.5" points="534,-58 454,-58 454,-38 534,-38 534,-58"/>
<text text-anchor="middle" x="494" y="-45" font-family="Vera" font-size="10.00">Tkinter.Frame</text>
</g>
<!-- Tkinter.Widget&#45;&gt;Tkinter.Frame -->
<g id="edge86" class="edge"><title>Tkinter.Widget&#45;&gt;Tkinter.Frame</title>
<path fill="none" stroke="black" stroke-width="0.5" d="M325.303,-170.668C339.573,-148.181 376.666,-94.6097 422,-67 430.012,-62.1206 439.267,-58.4808 448.416,-55.7699"/>
<polygon fill="black" stroke="black" points="449.133,-57.3866 453.479,-54.3574 448.193,-54.0153 449.133,-57.3866"/>
</g>
<!-- Tkinter.YView -->
<g id="node10" class="node"><title>Tkinter.YView</title>
<polygon fill="none" stroke="black" stroke-width="0.5" points="358,-514 280,-514 280,-494 358,-494 358,-514"/>
<text text-anchor="middle" x="319" y="-501" font-family="Vera" font-size="10.00">Tkinter.YView</text>
</g>
<!-- Tkinter.YView&#45;&gt;Tkinter.Listbox -->
<g id="edge60" class="edge"><title>Tkinter.YView&#45;&gt;Tkinter.Listbox</title>
<path fill="none" stroke="black" stroke-width="0.5" d="M358.273,-504C384.457,-504 419.02,-504 446.714,-504"/>
<polygon fill="black" stroke="black" points="446.801,-505.75 451.801,-504 446.801,-502.25 446.801,-505.75"/>
</g>
<!-- paramtk.tilewrapper.Style -->
<g id="node11" class="node"><title>paramtk.tilewrapper.Style</title>
<polygon fill="none" stroke="black" stroke-width="0.5" points="386,-267 252,-267 252,-247 386,-247 386,-267"/>
<text text-anchor="middle" x="319" y="-254" font-family="Vera" font-size="10.00">paramtk.tilewrapper.Style</text>
</g>
<!-- paramtk.tilewrapper.Style&#45;&gt;paramtk.tilewrapper.Widget -->
<g id="edge14" class="edge"><title>paramtk.tilewrapper.Style&#45;&gt;paramtk.tilewrapper.Widget</title>
<path fill="none" stroke="black" stroke-width="0.5" d="M386.159,-257C396.091,-257 406.393,-257 416.514,-257"/>
<polygon fill="black" stroke="black" points="416.787,-258.75 421.787,-257 416.787,-255.25 416.787,-258.75"/>
</g>
<!-- Tkinter.Checkbutton&#45;&gt;paramtk.tilewrapper.Checkbutton -->
<g id="edge10" class="edge"><title>Tkinter.Checkbutton&#45;&gt;paramtk.tilewrapper.Checkbutton</title>
<path fill="none" stroke="black" stroke-width="0.5" d="M509.842,-362.094C530.36,-374.752 567.581,-396.328 602,-409 609.873,-411.899 618.326,-414.433 626.738,-416.626"/>
<polygon fill="black" stroke="black" points="626.689,-418.418 631.965,-417.947 627.546,-415.025 626.689,-418.418"/>
</g>
<!-- Tkinter.Pack -->
<g id="node18" class="node"><title>Tkinter.Pack</title>
<polygon fill="none" stroke="black" stroke-width="0.5" points="199,-248 127,-248 127,-228 199,-228 199,-248"/>
<text text-anchor="middle" x="163" y="-235" font-family="Vera" font-size="10.00">Tkinter.Pack</text>
</g>
<!-- Tkinter.Pack&#45;&gt;Tkinter.Widget -->
<g id="edge46" class="edge"><title>Tkinter.Pack&#45;&gt;Tkinter.Widget</title>
<path fill="none" stroke="black" stroke-width="0.5" d="M191.073,-227.99C199.127,-225.104 207.916,-221.94 216,-219 239.879,-210.315 266.82,-200.371 287.158,-192.834"/>
<polygon fill="black" stroke="black" points="287.837,-194.448 291.917,-191.069 286.621,-191.166 287.837,-194.448"/>
</g>
<!-- Tkinter.Place -->
<g id="node19" class="node"><title>Tkinter.Place</title>
<polygon fill="none" stroke="black" stroke-width="0.5" points="200,-210 126,-210 126,-190 200,-190 200,-210"/>
<text text-anchor="middle" x="163" y="-197" font-family="Vera" font-size="10.00">Tkinter.Place</text>
</g>
<!-- Tkinter.Place&#45;&gt;Tkinter.Widget -->
<g id="edge48" class="edge"><title>Tkinter.Place&#45;&gt;Tkinter.Widget</title>
<path fill="none" stroke="black" stroke-width="0.5" d="M200.763,-195.401C222.308,-192.777 249.493,-189.466 272.363,-186.68"/>
<polygon fill="black" stroke="black" points="272.722,-188.399 277.473,-186.058 272.298,-184.925 272.722,-188.399"/>
</g>
<!-- Tkinter.Grid -->
<g id="node20" class="node"><title>Tkinter.Grid</title>
<polygon fill="none" stroke="black" stroke-width="0.5" points="199,-172 127,-172 127,-152 199,-152 199,-172"/>
<text text-anchor="middle" x="163" y="-159" font-family="Vera" font-size="10.00">Tkinter.Grid</text>
</g>
<!-- Tkinter.Grid&#45;&gt;Tkinter.Widget -->
<g id="edge50" class="edge"><title>Tkinter.Grid&#45;&gt;Tkinter.Widget</title>
<path fill="none" stroke="black" stroke-width="0.5" d="M199.182,-166.407C220.855,-169.046 248.643,-172.431 272.001,-175.276"/>
<polygon fill="black" stroke="black" points="272.046,-177.044 277.22,-175.911 272.469,-173.57 272.046,-177.044"/>
</g>
<!-- Tkinter.Menubutton&#45;&gt;paramtk.tilewrapper.Menubutton -->
<g id="edge54" class="edge"><title>Tkinter.Menubutton&#45;&gt;paramtk.tilewrapper.Menubutton</title>
<path fill="none" stroke="black" stroke-width="0.5" d="M548.532,-124C563.685,-124 580.552,-124 597.156,-124"/>
<polygon fill="black" stroke="black" points="597.298,-125.75 602.298,-124 597.298,-122.25 597.298,-125.75"/>
</g>
<!-- Tkinter.Entry&#45;&gt;paramtk.tilewrapper.Combobox -->
<g id="edge20" class="edge"><title>Tkinter.Entry&#45;&gt;paramtk.tilewrapper.Combobox</title>
<path fill="none" stroke="black" stroke-width="0.5" d="M532.131,-473.508C560.39,-479.072 599.346,-486.742 631.117,-492.997"/>
<polygon fill="black" stroke="black" points="630.908,-494.739 636.152,-493.988 631.584,-491.305 630.908,-494.739"/>
</g>
<!-- Tkinter.Entry&#45;&gt;paramtk.tilewrapper.Entry -->
<g id="edge26" class="edge"><title>Tkinter.Entry&#45;&gt;paramtk.tilewrapper.Entry</title>
<path fill="none" stroke="black" stroke-width="0.5" d="M532.131,-466C555.4,-466 585.922,-466 613.713,-466"/>
<polygon fill="black" stroke="black" points="613.868,-467.75 618.868,-466 613.868,-464.25 613.868,-467.75"/>
</g>
<!-- Tkinter.Label&#45;&gt;paramtk.tilewrapper.Label -->
<g id="edge32" class="edge"><title>Tkinter.Label&#45;&gt;paramtk.tilewrapper.Label</title>
<path fill="none" stroke="black" stroke-width="0.5" d="M532.131,-207.508C560.39,-213.072 599.346,-220.742 631.117,-226.997"/>
<polygon fill="black" stroke="black" points="630.908,-228.739 636.152,-227.988 631.584,-225.305 630.908,-228.739"/>
</g>
<!-- Tkinter.Label&#45;&gt;paramtk.tilewrapper.LabelFrame -->
<g id="edge42" class="edge"><title>Tkinter.Label&#45;&gt;paramtk.tilewrapper.LabelFrame</title>
<path fill="none" stroke="black" stroke-width="0.5" d="M532.131,-200C551.412,-200 575.673,-200 599.234,-200"/>
<polygon fill="black" stroke="black" points="599.249,-201.75 604.249,-200 599.249,-198.25 599.249,-201.75"/>
</g>
<!-- Tkinter.Scrollbar&#45;&gt;paramtk.tilewrapper.Scrollbar -->
<g id="edge84" class="edge"><title>Tkinter.Scrollbar&#45;&gt;paramtk.tilewrapper.Scrollbar</title>
<path fill="none" stroke="black" stroke-width="0.5" d="M540.228,-10C559.823,-10 583.255,-10 605.582,-10"/>
<polygon fill="black" stroke="black" points="605.627,-11.7501 610.627,-10 605.627,-8.2501 605.627,-11.7501"/>
</g>
<!-- Tkinter.Button&#45;&gt;paramtk.tilewrapper.Button -->
<g id="edge38" class="edge"><title>Tkinter.Button&#45;&gt;paramtk.tilewrapper.Button</title>
<path fill="none" stroke="black" stroke-width="0.5" d="M535.878,-162C557.601,-162 584.829,-162 610.168,-162"/>
<polygon fill="black" stroke="black" points="610.209,-163.75 615.209,-162 610.209,-160.25 610.209,-163.75"/>
</g>
<!-- Tkinter.BaseWidget -->
<g id="node46" class="node"><title>Tkinter.BaseWidget</title>
<polygon fill="none" stroke="black" stroke-width="0.5" points="215,-134 111,-134 111,-114 215,-114 215,-134"/>
<text text-anchor="middle" x="163" y="-121" font-family="Vera" font-size="10.00">Tkinter.BaseWidget</text>
</g>
<!-- Tkinter.BaseWidget&#45;&gt;Tkinter.Widget -->
<g id="edge44" class="edge"><title>Tkinter.BaseWidget&#45;&gt;Tkinter.Widget</title>
<path fill="none" stroke="black" stroke-width="0.5" d="M191.073,-134.01C199.127,-136.896 207.916,-140.06 216,-143 239.879,-151.685 266.82,-161.629 287.158,-169.166"/>
<polygon fill="black" stroke="black" points="286.621,-170.834 291.917,-170.931 287.837,-167.552 286.621,-170.834"/>
</g>
<!-- Tkinter.Frame&#45;&gt;paramtk.tilewrapper.Frame -->
<g id="edge78" class="edge"><title>Tkinter.Frame&#45;&gt;paramtk.tilewrapper.Frame</title>
<path fill="none" stroke="black" stroke-width="0.5" d="M534.93,-48C557.13,-48 585.281,-48 611.311,-48"/>
<polygon fill="black" stroke="black" points="611.486,-49.7501 616.486,-48 611.486,-46.2501 611.486,-49.7501"/>
</g>
<!-- Tkinter.Misc -->
<g id="node76" class="node"><title>Tkinter.Misc</title>
<polygon fill="none" stroke="black" stroke-width="0.5" points="73,-134 1,-134 1,-114 73,-114 73,-134"/>
<text text-anchor="middle" x="37" y="-121" font-family="Vera" font-size="10.00">Tkinter.Misc</text>
</g>
<!-- Tkinter.Misc&#45;&gt;Tkinter.BaseWidget -->
<g id="edge88" class="edge"><title>Tkinter.Misc&#45;&gt;Tkinter.BaseWidget</title>
<path fill="none" stroke="black" stroke-width="0.5" d="M73.7831,-124C83.646,-124 94.5523,-124 105.255,-124"/>
<polygon fill="black" stroke="black" points="105.487,-125.75 110.487,-124 105.487,-122.25 105.487,-125.75"/>
</g>
</g>
</svg>
