<?xml version="1.0" encoding="UTF-8" standalone="no"?>
<!DOCTYPE svg PUBLIC "-//W3C//DTD SVG 1.1//EN"
 "http://www.w3.org/Graphics/SVG/1.1/DTD/svg11.dtd">
<!-- Generated by graphviz version 2.26.3 (20100126.1600)
 -->
<!-- Title: inheritancebede3c61fc Pages: 1 -->
<svg width="2498pt" height="503pt"
 viewBox="0.00 0.00 2498.00 503.00" xmlns="http://www.w3.org/2000/svg" xmlns:xlink="http://www.w3.org/1999/xlink">
<g id="graph1" class="graph" transform="scale(1 1) rotate(0) translate(4 499)">
<title>inheritancebede3c61fc</title>
<polygon fill="white" stroke="white" points="-4,5 -4,-499 2495,-499 2495,5 -4,5"/>
<!-- topo.command.pylabplot.measure_orientation_contrast -->
<g id="node1" class="node"><title>topo.command.pylabplot.measure_orientation_contrast</title>
<polygon fill="none" stroke="black" stroke-width="0.5" points="2490,-495.5 2206,-495.5 2206,-474.5 2490,-474.5 2490,-495.5"/>
<text text-anchor="middle" x="2348" y="-482.5" font-family="Vera" font-size="10.00">topo.command.pylabplot.measure_orientation_contrast</text>
</g>
<!-- topo.analysis.featureresponses.UnitCurveCommand -->
<g id="node2" class="node"><title>topo.analysis.featureresponses.UnitCurveCommand</title>
<polygon fill="none" stroke="black" stroke-width="0.5" points="2167,-419.5 1901,-419.5 1901,-398.5 2167,-398.5 2167,-419.5"/>
<text text-anchor="middle" x="2034" y="-406.5" font-family="Vera" font-size="10.00">topo.analysis.featureresponses.UnitCurveCommand</text>
</g>
<!-- topo.analysis.featureresponses.UnitCurveCommand&#45;&gt;topo.command.pylabplot.measure_orientation_contrast -->
<g id="edge2" class="edge"><title>topo.analysis.featureresponses.UnitCurveCommand&#45;&gt;topo.command.pylabplot.measure_orientation_contrast</title>
<path fill="none" stroke="black" stroke-width="0.5" d="M2059.22,-419.014C2092.37,-431.792 2152.66,-453.707 2206,-466 2219.71,-469.159 2234.29,-471.85 2248.69,-474.124"/>
<polygon fill="black" stroke="black" points="2248.77,-475.909 2253.98,-474.944 2249.31,-472.45 2248.77,-475.909"/>
</g>
<!-- topo.command.pylabplot.test_measure -->
<g id="node7" class="node"><title>topo.command.pylabplot.test_measure</title>
<polygon fill="none" stroke="black" stroke-width="0.5" points="2451,-457.5 2245,-457.5 2245,-436.5 2451,-436.5 2451,-457.5"/>
<text text-anchor="middle" x="2348" y="-444.5" font-family="Vera" font-size="10.00">topo.command.pylabplot.test_measure</text>
</g>
<!-- topo.analysis.featureresponses.UnitCurveCommand&#45;&gt;topo.command.pylabplot.test_measure -->
<g id="edge6" class="edge"><title>topo.analysis.featureresponses.UnitCurveCommand&#45;&gt;topo.command.pylabplot.test_measure</title>
<path fill="none" stroke="black" stroke-width="0.5" d="M2116.91,-419.034C2161,-424.369 2215.2,-430.929 2260.03,-436.354"/>
<polygon fill="black" stroke="black" points="2260,-438.112 2265.17,-436.976 2260.42,-434.638 2260,-438.112"/>
</g>
<!-- topo.command.pylabplot.measure_contrast_response -->
<g id="node25" class="node"><title>topo.command.pylabplot.measure_contrast_response</title>
<polygon fill="none" stroke="black" stroke-width="0.5" points="2486,-419.5 2210,-419.5 2210,-398.5 2486,-398.5 2486,-419.5"/>
<text text-anchor="middle" x="2348" y="-406.5" font-family="Vera" font-size="10.00">topo.command.pylabplot.measure_contrast_response</text>
</g>
<!-- topo.analysis.featureresponses.UnitCurveCommand&#45;&gt;topo.command.pylabplot.measure_contrast_response -->
<g id="edge22" class="edge"><title>topo.analysis.featureresponses.UnitCurveCommand&#45;&gt;topo.command.pylabplot.measure_contrast_response</title>
<path fill="none" stroke="black" stroke-width="0.5" d="M2167.62,-409C2179.74,-409 2192.05,-409 2204.26,-409"/>
<polygon fill="black" stroke="black" points="2204.48,-410.75 2209.48,-409 2204.48,-407.25 2204.48,-410.75"/>
</g>
<!-- topo.command.pylabplot.measure_or_tuning -->
<g id="node35" class="node"><title>topo.command.pylabplot.measure_or_tuning</title>
<polygon fill="none" stroke="black" stroke-width="0.5" points="2464,-381.5 2232,-381.5 2232,-360.5 2464,-360.5 2464,-381.5"/>
<text text-anchor="middle" x="2348" y="-368.5" font-family="Vera" font-size="10.00">topo.command.pylabplot.measure_or_tuning</text>
</g>
<!-- topo.analysis.featureresponses.UnitCurveCommand&#45;&gt;topo.command.pylabplot.measure_or_tuning -->
<g id="edge32" class="edge"><title>topo.analysis.featureresponses.UnitCurveCommand&#45;&gt;topo.command.pylabplot.measure_or_tuning</title>
<path fill="none" stroke="black" stroke-width="0.5" d="M2116.91,-398.966C2161,-393.631 2215.2,-387.071 2260.03,-381.646"/>
<polygon fill="black" stroke="black" points="2260.42,-383.362 2265.17,-381.024 2260,-379.888 2260.42,-383.362"/>
</g>
<!-- topo.command.pylabplot.measure_size_response -->
<g id="node44" class="node"><title>topo.command.pylabplot.measure_size_response</title>
<polygon fill="none" stroke="black" stroke-width="0.5" points="2476,-343.5 2220,-343.5 2220,-322.5 2476,-322.5 2476,-343.5"/>
<text text-anchor="middle" x="2348" y="-330.5" font-family="Vera" font-size="10.00">topo.command.pylabplot.measure_size_response</text>
</g>
<!-- topo.analysis.featureresponses.UnitCurveCommand&#45;&gt;topo.command.pylabplot.measure_size_response -->
<g id="edge42" class="edge"><title>topo.analysis.featureresponses.UnitCurveCommand&#45;&gt;topo.command.pylabplot.measure_size_response</title>
<path fill="none" stroke="black" stroke-width="0.5" d="M2148.23,-398.953C2155.78,-396.501 2163.11,-393.548 2170,-390 2190.68,-379.348 2185.29,-362.592 2206,-352 2211.36,-349.257 2216.98,-346.864 2222.76,-344.777"/>
<polygon fill="black" stroke="black" points="2223.49,-346.377 2227.65,-343.096 2222.35,-343.067 2223.49,-346.377"/>
</g>
<!-- topo.analysis.featureresponses.PatternPresentingCommand -->
<g id="node4" class="node"><title>topo.analysis.featureresponses.PatternPresentingCommand</title>
<polygon fill="none" stroke="black" stroke-width="0.5" points="805,-362.5 501,-362.5 501,-341.5 805,-341.5 805,-362.5"/>
<text text-anchor="middle" x="653" y="-349.5" font-family="Vera" font-size="10.00">topo.analysis.featureresponses.PatternPresentingCommand</text>
</g>
<!-- topo.analysis.featureresponses.MeasureResponseCommand -->
<g id="node19" class="node"><title>topo.analysis.featureresponses.MeasureResponseCommand</title>
<polygon fill="none" stroke="black" stroke-width="0.5" points="1149,-400.5 843,-400.5 843,-379.5 1149,-379.5 1149,-400.5"/>
<text text-anchor="middle" x="996" y="-387.5" font-family="Vera" font-size="10.00">topo.analysis.featureresponses.MeasureResponseCommand</text>
</g>
<!-- topo.analysis.featureresponses.PatternPresentingCommand&#45;&gt;topo.analysis.featureresponses.MeasureResponseCommand -->
<g id="edge16" class="edge"><title>topo.analysis.featureresponses.PatternPresentingCommand&#45;&gt;topo.analysis.featureresponses.MeasureResponseCommand</title>
<path fill="none" stroke="black" stroke-width="0.5" d="M743.568,-362.034C791.924,-367.391 851.418,-373.982 900.5,-379.42"/>
<polygon fill="black" stroke="black" points="900.357,-381.165 905.52,-379.976 900.743,-377.686 900.357,-381.165"/>
</g>
<!-- param.parameterized.ParameterizedFunction -->
<g id="node5" class="node"><title>param.parameterized.ParameterizedFunction</title>
<polygon fill="none" stroke="black" stroke-width="0.5" points="464,-248.5 230,-248.5 230,-227.5 464,-227.5 464,-248.5"/>
<text text-anchor="middle" x="347" y="-235.5" font-family="Vera" font-size="10.00">param.parameterized.ParameterizedFunction</text>
</g>
<!-- param.parameterized.ParameterizedFunction&#45;&gt;topo.analysis.featureresponses.PatternPresentingCommand -->
<g id="edge4" class="edge"><title>param.parameterized.ParameterizedFunction&#45;&gt;topo.analysis.featureresponses.PatternPresentingCommand</title>
<path fill="none" stroke="black" stroke-width="0.5" d="M373.887,-248.017C430.202,-268.997 560.332,-317.477 620.905,-340.043"/>
<polygon fill="black" stroke="black" points="620.549,-341.778 625.845,-341.883 621.771,-338.498 620.549,-341.778"/>
</g>
<!-- topo.command.Command -->
<g id="node46" class="node"><title>topo.command.Command</title>
<polygon fill="none" stroke="black" stroke-width="0.5" points="724,-248.5 582,-248.5 582,-227.5 724,-227.5 724,-248.5"/>
<text text-anchor="middle" x="653" y="-235.5" font-family="Vera" font-size="10.00">topo.command.Command</text>
</g>
<!-- param.parameterized.ParameterizedFunction&#45;&gt;topo.command.Command -->
<g id="edge54" class="edge"><title>param.parameterized.ParameterizedFunction&#45;&gt;topo.command.Command</title>
<path fill="none" stroke="black" stroke-width="0.5" d="M464.432,-238C501.869,-238 542.312,-238 576.108,-238"/>
<polygon fill="black" stroke="black" points="576.474,-239.75 581.474,-238 576.474,-236.25 576.474,-239.75"/>
</g>
<!-- topo.command.pylabplot.measure_cog -->
<g id="node62" class="node"><title>topo.command.pylabplot.measure_cog</title>
<polygon fill="none" stroke="black" stroke-width="0.5" points="755,-210.5 551,-210.5 551,-189.5 755,-189.5 755,-210.5"/>
<text text-anchor="middle" x="653" y="-197.5" font-family="Vera" font-size="10.00">topo.command.pylabplot.measure_cog</text>
</g>
<!-- param.parameterized.ParameterizedFunction&#45;&gt;topo.command.pylabplot.measure_cog -->
<g id="edge62" class="edge"><title>param.parameterized.ParameterizedFunction&#45;&gt;topo.command.pylabplot.measure_cog</title>
<path fill="none" stroke="black" stroke-width="0.5" d="M427.798,-227.966C470.763,-222.631 523.585,-216.071 567.271,-210.646"/>
<polygon fill="black" stroke="black" points="567.534,-212.377 572.28,-210.024 567.102,-208.904 567.534,-212.377"/>
</g>
<!-- topo.command.pylabplot.vectorplot -->
<g id="node9" class="node"><title>topo.command.pylabplot.vectorplot</title>
<polygon fill="none" stroke="black" stroke-width="0.5" points="1458,-362.5 1270,-362.5 1270,-341.5 1458,-341.5 1458,-362.5"/>
<text text-anchor="middle" x="1364" y="-349.5" font-family="Vera" font-size="10.00">topo.command.pylabplot.vectorplot</text>
</g>
<!-- topo.command.pylabplot.PylabPlotCommand -->
<g id="node10" class="node"><title>topo.command.pylabplot.PylabPlotCommand</title>
<polygon fill="none" stroke="black" stroke-width="0.5" points="1112,-210.5 880,-210.5 880,-189.5 1112,-189.5 1112,-210.5"/>
<text text-anchor="middle" x="996" y="-197.5" font-family="Vera" font-size="10.00">topo.command.pylabplot.PylabPlotCommand</text>
</g>
<!-- topo.command.pylabplot.PylabPlotCommand&#45;&gt;topo.command.pylabplot.vectorplot -->
<g id="edge8" class="edge"><title>topo.command.pylabplot.PylabPlotCommand&#45;&gt;topo.command.pylabplot.vectorplot</title>
<path fill="none" stroke="black" stroke-width="0.5" d="M1006.41,-210.284C1033.37,-236.173 1108.71,-304.036 1186,-333 1210.55,-342.201 1238.26,-347.401 1264.37,-350.238"/>
<polygon fill="black" stroke="black" points="1264.42,-352.002 1269.57,-350.774 1264.78,-348.521 1264.42,-352.002"/>
</g>
<!-- topo.command.pylabplot.matrixplot3dx3 -->
<g id="node12" class="node"><title>topo.command.pylabplot.matrixplot3dx3</title>
<polygon fill="none" stroke="black" stroke-width="0.5" points="1470,-324.5 1258,-324.5 1258,-303.5 1470,-303.5 1470,-324.5"/>
<text text-anchor="middle" x="1364" y="-311.5" font-family="Vera" font-size="10.00">topo.command.pylabplot.matrixplot3dx3</text>
</g>
<!-- topo.command.pylabplot.PylabPlotCommand&#45;&gt;topo.command.pylabplot.matrixplot3dx3 -->
<g id="edge10" class="edge"><title>topo.command.pylabplot.PylabPlotCommand&#45;&gt;topo.command.pylabplot.matrixplot3dx3</title>
<path fill="none" stroke="black" stroke-width="0.5" d="M1011.47,-210.167C1042.87,-230.244 1116.99,-274.781 1186,-295 1207.21,-301.214 1230.38,-305.442 1252.77,-308.308"/>
<polygon fill="black" stroke="black" points="1252.66,-310.057 1257.84,-308.935 1253.09,-306.584 1252.66,-310.057"/>
</g>
<!-- topo.command.pylabplot.matrixplot -->
<g id="node17" class="node"><title>topo.command.pylabplot.matrixplot</title>
<polygon fill="none" stroke="black" stroke-width="0.5" points="1458,-286.5 1270,-286.5 1270,-265.5 1458,-265.5 1458,-286.5"/>
<text text-anchor="middle" x="1364" y="-273.5" font-family="Vera" font-size="10.00">topo.command.pylabplot.matrixplot</text>
</g>
<!-- topo.command.pylabplot.PylabPlotCommand&#45;&gt;topo.command.pylabplot.matrixplot -->
<g id="edge34" class="edge"><title>topo.command.pylabplot.PylabPlotCommand&#45;&gt;topo.command.pylabplot.matrixplot</title>
<path fill="none" stroke="black" stroke-width="0.5" d="M1023.6,-210.042C1060.21,-222.955 1127.09,-245.126 1186,-257 1211.28,-262.095 1238.87,-265.883 1264.61,-268.676"/>
<polygon fill="black" stroke="black" points="1264.58,-270.433 1269.74,-269.222 1264.95,-266.952 1264.58,-270.433"/>
</g>
<!-- topo.command.pylabplot.overlaid_plots -->
<g id="node21" class="node"><title>topo.command.pylabplot.overlaid_plots</title>
<polygon fill="none" stroke="black" stroke-width="0.5" points="1467,-248.5 1261,-248.5 1261,-227.5 1467,-227.5 1467,-248.5"/>
<text text-anchor="middle" x="1364" y="-235.5" font-family="Vera" font-size="10.00">topo.command.pylabplot.overlaid_plots</text>
</g>
<!-- topo.command.pylabplot.PylabPlotCommand&#45;&gt;topo.command.pylabplot.overlaid_plots -->
<g id="edge18" class="edge"><title>topo.command.pylabplot.PylabPlotCommand&#45;&gt;topo.command.pylabplot.overlaid_plots</title>
<path fill="none" stroke="black" stroke-width="0.5" d="M1093.17,-210.034C1145.15,-215.402 1209.14,-222.009 1261.86,-227.453"/>
<polygon fill="black" stroke="black" points="1261.77,-229.203 1266.93,-227.976 1262.13,-225.722 1261.77,-229.203"/>
</g>
<!-- topo.command.pylabplot.tuning_curve -->
<g id="node23" class="node"><title>topo.command.pylabplot.tuning_curve</title>
<polygon fill="none" stroke="black" stroke-width="0.5" points="1464,-210.5 1264,-210.5 1264,-189.5 1464,-189.5 1464,-210.5"/>
<text text-anchor="middle" x="1364" y="-197.5" font-family="Vera" font-size="10.00">topo.command.pylabplot.tuning_curve</text>
</g>
<!-- topo.command.pylabplot.PylabPlotCommand&#45;&gt;topo.command.pylabplot.tuning_curve -->
<g id="edge20" class="edge"><title>topo.command.pylabplot.PylabPlotCommand&#45;&gt;topo.command.pylabplot.tuning_curve</title>
<path fill="none" stroke="black" stroke-width="0.5" d="M1112.69,-200C1159.31,-200 1212.62,-200 1258.11,-200"/>
<polygon fill="black" stroke="black" points="1258.33,-201.75 1263.33,-200 1258.33,-198.25 1258.33,-201.75"/>
</g>
<!-- topo.command.pylabplot.topographic_grid -->
<g id="node29" class="node"><title>topo.command.pylabplot.topographic_grid</title>
<polygon fill="none" stroke="black" stroke-width="0.5" points="1474,-172.5 1254,-172.5 1254,-151.5 1474,-151.5 1474,-172.5"/>
<text text-anchor="middle" x="1364" y="-159.5" font-family="Vera" font-size="10.00">topo.command.pylabplot.topographic_grid</text>
</g>
<!-- topo.command.pylabplot.PylabPlotCommand&#45;&gt;topo.command.pylabplot.topographic_grid -->
<g id="edge26" class="edge"><title>topo.command.pylabplot.PylabPlotCommand&#45;&gt;topo.command.pylabplot.topographic_grid</title>
<path fill="none" stroke="black" stroke-width="0.5" d="M1093.17,-189.966C1145.15,-184.598 1209.14,-177.991 1261.86,-172.547"/>
<polygon fill="black" stroke="black" points="1262.13,-174.278 1266.93,-172.024 1261.77,-170.797 1262.13,-174.278"/>
</g>
<!-- topo.command.pylabplot.plot_tracked_attributes -->
<g id="node42" class="node"><title>topo.command.pylabplot.plot_tracked_attributes</title>
<polygon fill="none" stroke="black" stroke-width="0.5" points="1489,-134.5 1239,-134.5 1239,-113.5 1489,-113.5 1489,-134.5"/>
<text text-anchor="middle" x="1364" y="-121.5" font-family="Vera" font-size="10.00">topo.command.pylabplot.plot_tracked_attributes</text>
</g>
<!-- topo.command.pylabplot.PylabPlotCommand&#45;&gt;topo.command.pylabplot.plot_tracked_attributes -->
<g id="edge40" class="edge"><title>topo.command.pylabplot.PylabPlotCommand&#45;&gt;topo.command.pylabplot.plot_tracked_attributes</title>
<path fill="none" stroke="black" stroke-width="0.5" d="M1023.6,-189.958C1060.21,-177.045 1127.09,-154.874 1186,-143 1202.29,-139.717 1219.54,-136.976 1236.64,-134.695"/>
<polygon fill="black" stroke="black" points="1237.21,-136.385 1241.94,-134.001 1236.75,-132.915 1237.21,-136.385"/>
</g>
<!-- topo.command.pylabplot.matrixplot3d -->
<g id="node48" class="node"><title>topo.command.pylabplot.matrixplot3d</title>
<polygon fill="none" stroke="black" stroke-width="0.5" points="1464,-96.5 1264,-96.5 1264,-75.5 1464,-75.5 1464,-96.5"/>
<text text-anchor="middle" x="1364" y="-83.5" font-family="Vera" font-size="10.00">topo.command.pylabplot.matrixplot3d</text>
</g>
<!-- topo.command.pylabplot.PylabPlotCommand&#45;&gt;topo.command.pylabplot.matrixplot3d -->
<g id="edge46" class="edge"><title>topo.command.pylabplot.PylabPlotCommand&#45;&gt;topo.command.pylabplot.matrixplot3d</title>
<path fill="none" stroke="black" stroke-width="0.5" d="M1011.47,-189.833C1042.87,-169.756 1116.99,-125.219 1186,-105 1209.11,-98.2293 1234.54,-93.8166 1258.76,-90.9549"/>
<polygon fill="black" stroke="black" points="1259.15,-92.6729 1263.91,-90.3674 1258.75,-89.1954 1259.15,-92.6729"/>
</g>
<!-- topo.command.pylabplot.plot_modulation_ratio -->
<g id="node53" class="node"><title>topo.command.pylabplot.plot_modulation_ratio</title>
<polygon fill="none" stroke="black" stroke-width="0.5" points="1486,-58.5 1242,-58.5 1242,-37.5 1486,-37.5 1486,-58.5"/>
<text text-anchor="middle" x="1364" y="-45.5" font-family="Vera" font-size="10.00">topo.command.pylabplot.plot_modulation_ratio</text>
</g>
<!-- topo.command.pylabplot.PylabPlotCommand&#45;&gt;topo.command.pylabplot.plot_modulation_ratio -->
<g id="edge52" class="edge"><title>topo.command.pylabplot.PylabPlotCommand&#45;&gt;topo.command.pylabplot.plot_modulation_ratio</title>
<path fill="none" stroke="black" stroke-width="0.5" d="M1006.41,-189.716C1033.37,-163.827 1108.71,-95.9642 1186,-67 1201.96,-61.0208 1219.24,-56.7312 1236.56,-53.6818"/>
<polygon fill="black" stroke="black" points="1237.29,-55.3327 1241.93,-52.7747 1236.71,-51.8815 1237.29,-55.3327"/>
</g>
<!-- topo.command.pylabplot.histogramplot -->
<g id="node58" class="node"><title>topo.command.pylabplot.histogramplot</title>
<polygon fill="none" stroke="black" stroke-width="0.5" points="1467,-20.5 1261,-20.5 1261,0.5 1467,0.5 1467,-20.5"/>
<text text-anchor="middle" x="1364" y="-7.5" font-family="Vera" font-size="10.00">topo.command.pylabplot.histogramplot</text>
</g>
<!-- topo.command.pylabplot.PylabPlotCommand&#45;&gt;topo.command.pylabplot.histogramplot -->
<g id="edge58" class="edge"><title>topo.command.pylabplot.PylabPlotCommand&#45;&gt;topo.command.pylabplot.histogramplot</title>
<path fill="none" stroke="black" stroke-width="0.5" d="M1003.29,-189.979C1026.16,-159.445 1100.08,-67.3266 1186,-29 1207.6,-19.3669 1232.08,-13.7816 1255.82,-10.689"/>
<polygon fill="black" stroke="black" points="1256.13,-12.4146 1260.88,-10.0663 1255.7,-8.94084 1256.13,-12.4146"/>
</g>
<!-- topo.analysis.featureresponses.FeatureCurveCommand -->
<g id="node14" class="node"><title>topo.analysis.featureresponses.FeatureCurveCommand</title>
<polygon fill="none" stroke="black" stroke-width="0.5" points="1862,-400.5 1578,-400.5 1578,-379.5 1862,-379.5 1862,-400.5"/>
<text text-anchor="middle" x="1720" y="-387.5" font-family="Vera" font-size="10.00">topo.analysis.featureresponses.FeatureCurveCommand</text>
</g>
<!-- topo.analysis.featureresponses.FeatureCurveCommand&#45;&gt;topo.analysis.featureresponses.UnitCurveCommand -->
<g id="edge12" class="edge"><title>topo.analysis.featureresponses.FeatureCurveCommand&#45;&gt;topo.analysis.featureresponses.UnitCurveCommand</title>
<path fill="none" stroke="black" stroke-width="0.5" d="M1862.3,-398.611C1873.28,-399.275 1884.35,-399.945 1895.3,-400.607"/>
<polygon fill="black" stroke="black" points="1895.23,-402.356 1900.32,-400.911 1895.44,-398.862 1895.23,-402.356"/>
</g>
<!-- topo.command.pylabplot.measure_or_tuning_fullfield -->
<g id="node60" class="node"><title>topo.command.pylabplot.measure_or_tuning_fullfield</title>
<polygon fill="none" stroke="black" stroke-width="0.5" points="2169,-381.5 1899,-381.5 1899,-360.5 2169,-360.5 2169,-381.5"/>
<text text-anchor="middle" x="2034" y="-368.5" font-family="Vera" font-size="10.00">topo.command.pylabplot.measure_or_tuning_fullfield</text>
</g>
<!-- topo.analysis.featureresponses.FeatureCurveCommand&#45;&gt;topo.command.pylabplot.measure_or_tuning_fullfield -->
<g id="edge60" class="edge"><title>topo.analysis.featureresponses.FeatureCurveCommand&#45;&gt;topo.command.pylabplot.measure_or_tuning_fullfield</title>
<path fill="none" stroke="black" stroke-width="0.5" d="M1862.3,-381.389C1872.62,-380.765 1883.02,-380.135 1893.33,-379.512"/>
<polygon fill="black" stroke="black" points="1893.5,-381.255 1898.39,-379.206 1893.29,-377.761 1893.5,-381.255"/>
</g>
<!-- topo.command.pylabplot.autocorrelationplot -->
<g id="node16" class="node"><title>topo.command.pylabplot.autocorrelationplot</title>
<polygon fill="none" stroke="black" stroke-width="0.5" points="1835,-362.5 1605,-362.5 1605,-341.5 1835,-341.5 1835,-362.5"/>
<text text-anchor="middle" x="1720" y="-349.5" font-family="Vera" font-size="10.00">topo.command.pylabplot.autocorrelationplot</text>
</g>
<!-- topo.command.pylabplot.matrixplot&#45;&gt;topo.command.pylabplot.autocorrelationplot -->
<g id="edge14" class="edge"><title>topo.command.pylabplot.matrixplot&#45;&gt;topo.command.pylabplot.autocorrelationplot</title>
<path fill="none" stroke="black" stroke-width="0.5" d="M1458,-273.794C1486.18,-276.303 1516.37,-282.323 1542,-295 1562.85,-305.315 1557.29,-322.408 1578,-333 1584.84,-336.496 1592.09,-339.426 1599.56,-341.874"/>
<polygon fill="black" stroke="black" points="1599.47,-343.679 1604.76,-343.493 1600.51,-340.337 1599.47,-343.679"/>
</g>
<!-- topo.command.pylabplot.fftplot -->
<g id="node40" class="node"><title>topo.command.pylabplot.fftplot</title>
<polygon fill="none" stroke="black" stroke-width="0.5" points="1803,-324.5 1637,-324.5 1637,-303.5 1803,-303.5 1803,-324.5"/>
<text text-anchor="middle" x="1720" y="-311.5" font-family="Vera" font-size="10.00">topo.command.pylabplot.fftplot</text>
</g>
<!-- topo.command.pylabplot.matrixplot&#45;&gt;topo.command.pylabplot.fftplot -->
<g id="edge38" class="edge"><title>topo.command.pylabplot.matrixplot&#45;&gt;topo.command.pylabplot.fftplot</title>
<path fill="none" stroke="black" stroke-width="0.5" d="M1458,-286.034C1511.68,-291.764 1578.59,-298.906 1631.36,-304.538"/>
<polygon fill="black" stroke="black" points="1631.26,-306.288 1636.42,-305.078 1631.63,-302.807 1631.26,-306.288"/>
</g>
<!-- topo.command.pylabplot.activityplot -->
<g id="node56" class="node"><title>topo.command.pylabplot.activityplot</title>
<polygon fill="none" stroke="black" stroke-width="0.5" points="1815,-286.5 1625,-286.5 1625,-265.5 1815,-265.5 1815,-286.5"/>
<text text-anchor="middle" x="1720" y="-273.5" font-family="Vera" font-size="10.00">topo.command.pylabplot.activityplot</text>
</g>
<!-- topo.command.pylabplot.matrixplot&#45;&gt;topo.command.pylabplot.activityplot -->
<g id="edge56" class="edge"><title>topo.command.pylabplot.matrixplot&#45;&gt;topo.command.pylabplot.activityplot</title>
<path fill="none" stroke="black" stroke-width="0.5" d="M1458,-276C1507.59,-276 1568.47,-276 1619.06,-276"/>
<polygon fill="black" stroke="black" points="1619.23,-277.75 1624.23,-276 1619.23,-274.25 1619.23,-277.75"/>
</g>
<!-- topo.command.pylabplot.gradientplot -->
<g id="node64" class="node"><title>topo.command.pylabplot.gradientplot</title>
<polygon fill="none" stroke="black" stroke-width="0.5" points="1818,-248.5 1622,-248.5 1622,-227.5 1818,-227.5 1818,-248.5"/>
<text text-anchor="middle" x="1720" y="-235.5" font-family="Vera" font-size="10.00">topo.command.pylabplot.gradientplot</text>
</g>
<!-- topo.command.pylabplot.matrixplot&#45;&gt;topo.command.pylabplot.gradientplot -->
<g id="edge64" class="edge"><title>topo.command.pylabplot.matrixplot&#45;&gt;topo.command.pylabplot.gradientplot</title>
<path fill="none" stroke="black" stroke-width="0.5" d="M1458,-265.966C1508.19,-260.609 1569.94,-254.018 1620.88,-248.58"/>
<polygon fill="black" stroke="black" points="1621.3,-250.295 1626.09,-248.024 1620.93,-246.815 1621.3,-250.295"/>
</g>
<!-- topo.analysis.featureresponses.PositionMeasurementCommand -->
<g id="node27" class="node"><title>topo.analysis.featureresponses.PositionMeasurementCommand</title>
<polygon fill="none" stroke="black" stroke-width="0.5" points="1526,-438.5 1202,-438.5 1202,-417.5 1526,-417.5 1526,-438.5"/>
<text text-anchor="middle" x="1364" y="-425.5" font-family="Vera" font-size="10.00">topo.analysis.featureresponses.PositionMeasurementCommand</text>
</g>
<!-- topo.analysis.featureresponses.MeasureResponseCommand&#45;&gt;topo.analysis.featureresponses.PositionMeasurementCommand -->
<g id="edge24" class="edge"><title>topo.analysis.featureresponses.MeasureResponseCommand&#45;&gt;topo.analysis.featureresponses.PositionMeasurementCommand</title>
<path fill="none" stroke="black" stroke-width="0.5" d="M1093.17,-400.034C1145.15,-405.402 1209.14,-412.009 1261.86,-417.453"/>
<polygon fill="black" stroke="black" points="1261.77,-419.203 1266.93,-417.976 1262.13,-415.722 1261.77,-419.203"/>
</g>
<!-- topo.analysis.featureresponses.SinusoidalMeasureResponseCommand -->
<g id="node32" class="node"><title>topo.analysis.featureresponses.SinusoidalMeasureResponseCommand</title>
<polygon fill="none" stroke="black" stroke-width="0.5" points="1542,-400.5 1186,-400.5 1186,-379.5 1542,-379.5 1542,-400.5"/>
<text text-anchor="middle" x="1364" y="-387.5" font-family="Vera" font-size="10.00">topo.analysis.featureresponses.SinusoidalMeasureResponseCommand</text>
</g>
<!-- topo.analysis.featureresponses.MeasureResponseCommand&#45;&gt;topo.analysis.featureresponses.SinusoidalMeasureResponseCommand -->
<g id="edge50" class="edge"><title>topo.analysis.featureresponses.MeasureResponseCommand&#45;&gt;topo.analysis.featureresponses.SinusoidalMeasureResponseCommand</title>
<path fill="none" stroke="black" stroke-width="0.5" d="M1149.67,-390C1159.91,-390 1170.29,-390 1180.66,-390"/>
<polygon fill="black" stroke="black" points="1180.75,-391.75 1185.75,-390 1180.75,-388.25 1180.75,-391.75"/>
</g>
<!-- topo.command.pylabplot.cyclic_tuning_curve -->
<g id="node50" class="node"><title>topo.command.pylabplot.cyclic_tuning_curve</title>
<polygon fill="none" stroke="black" stroke-width="0.5" points="1836,-210.5 1604,-210.5 1604,-189.5 1836,-189.5 1836,-210.5"/>
<text text-anchor="middle" x="1720" y="-197.5" font-family="Vera" font-size="10.00">topo.command.pylabplot.cyclic_tuning_curve</text>
</g>
<!-- topo.command.pylabplot.tuning_curve&#45;&gt;topo.command.pylabplot.cyclic_tuning_curve -->
<g id="edge48" class="edge"><title>topo.command.pylabplot.tuning_curve&#45;&gt;topo.command.pylabplot.cyclic_tuning_curve</title>
<path fill="none" stroke="black" stroke-width="0.5" d="M1464.59,-200C1506.36,-200 1555.2,-200 1598.92,-200"/>
<polygon fill="black" stroke="black" points="1598.95,-201.75 1603.95,-200 1598.95,-198.25 1598.95,-201.75"/>
</g>
<!-- topo.command.pylabplot.measure_position_pref -->
<g id="node38" class="node"><title>topo.command.pylabplot.measure_position_pref</title>
<polygon fill="none" stroke="black" stroke-width="0.5" points="1844,-438.5 1596,-438.5 1596,-417.5 1844,-417.5 1844,-438.5"/>
<text text-anchor="middle" x="1720" y="-425.5" font-family="Vera" font-size="10.00">topo.command.pylabplot.measure_position_pref</text>
</g>
<!-- topo.analysis.featureresponses.PositionMeasurementCommand&#45;&gt;topo.command.pylabplot.measure_position_pref -->
<g id="edge36" class="edge"><title>topo.analysis.featureresponses.PositionMeasurementCommand&#45;&gt;topo.command.pylabplot.measure_position_pref</title>
<path fill="none" stroke="black" stroke-width="0.5" d="M1526.11,-428C1547.52,-428 1569.23,-428 1590,-428"/>
<polygon fill="black" stroke="black" points="1590.26,-429.75 1595.26,-428 1590.26,-426.25 1590.26,-429.75"/>
</g>
<!-- param.parameterized.Parameterized -->
<g id="node31" class="node"><title>param.parameterized.Parameterized</title>
<polygon fill="none" stroke="black" stroke-width="0.5" points="194,-248.5 5.68434e-14,-248.5 0,-227.5 194,-227.5 194,-248.5"/>
<text text-anchor="middle" x="97" y="-235.5" font-family="Vera" font-size="10.00">param.parameterized.Parameterized</text>
</g>
<!-- param.parameterized.Parameterized&#45;&gt;param.parameterized.ParameterizedFunction -->
<g id="edge30" class="edge"><title>param.parameterized.Parameterized&#45;&gt;param.parameterized.ParameterizedFunction</title>
<path fill="none" stroke="black" stroke-width="0.5" d="M194.014,-238C204.04,-238 214.319,-238 224.575,-238"/>
<polygon fill="black" stroke="black" points="224.607,-239.75 229.607,-238 224.607,-236.25 224.607,-239.75"/>
</g>
<!-- topo.analysis.featureresponses.SinusoidalMeasureResponseCommand&#45;&gt;topo.analysis.featureresponses.FeatureCurveCommand -->
<g id="edge28" class="edge"><title>topo.analysis.featureresponses.SinusoidalMeasureResponseCommand&#45;&gt;topo.analysis.featureresponses.FeatureCurveCommand</title>
<path fill="none" stroke="black" stroke-width="0.5" d="M1542,-390C1552.21,-390 1562.43,-390 1572.51,-390"/>
<polygon fill="black" stroke="black" points="1572.76,-391.75 1577.76,-390 1572.76,-388.25 1572.76,-391.75"/>
</g>
<!-- topo.command.Command&#45;&gt;topo.command.pylabplot.PylabPlotCommand -->
<g id="edge44" class="edge"><title>topo.command.Command&#45;&gt;topo.command.pylabplot.PylabPlotCommand</title>
<path fill="none" stroke="black" stroke-width="0.5" d="M724.904,-230.034C775.913,-224.383 844.91,-216.739 900.531,-210.577"/>
<polygon fill="black" stroke="black" points="900.753,-212.313 905.529,-210.023 900.367,-208.834 900.753,-212.313"/>
</g>
</g>
</svg>
