<?xml version="1.0" encoding="UTF-8" standalone="no"?>
<!DOCTYPE svg PUBLIC "-//W3C//DTD SVG 1.1//EN"
 "http://www.w3.org/Graphics/SVG/1.1/DTD/svg11.dtd">
<!-- Generated by graphviz version 2.26.3 (20100126.1600)
 -->
<!-- Title: inheritancee3a8736439 Pages: 1 -->
<svg width="1172pt" height="180pt"
 viewBox="0.00 0.00 1172.00 180.00" xmlns="http://www.w3.org/2000/svg" xmlns:xlink="http://www.w3.org/1999/xlink">
<g id="graph1" class="graph" transform="scale(1 1) rotate(0) translate(4 176)">
<title>inheritancee3a8736439</title>
<polygon fill="white" stroke="white" points="-4,5 -4,-176 1169,-176 1169,5 -4,5"/>
<!-- paramtk.TkParameterizedBase -->
<g id="node1" class="node"><title>paramtk.TkParameterizedBase</title>
<polygon fill="none" stroke="black" stroke-width="0.5" points="502,-39.5 338,-39.5 338,-18.5 502,-18.5 502,-39.5"/>
<text text-anchor="middle" x="420" y="-26.5" font-family="Vera" font-size="10.00">paramtk.TkParameterizedBase</text>
</g>
<!-- paramtk.TkParameterized -->
<g id="node16" class="node"><title>paramtk.TkParameterized</title>
<polygon fill="none" stroke="black" stroke-width="0.5" points="678,-48.5 538,-48.5 538,-27.5 678,-27.5 678,-48.5"/>
<text text-anchor="middle" x="608" y="-35.5" font-family="Vera" font-size="10.00">paramtk.TkParameterized</text>
</g>
<!-- paramtk.TkParameterizedBase&#45;&gt;paramtk.TkParameterized -->
<g id="edge18" class="edge"><title>paramtk.TkParameterizedBase&#45;&gt;paramtk.TkParameterized</title>
<path fill="none" stroke="black" stroke-width="0.5" d="M502.186,-32.9344C512.283,-33.4178 522.564,-33.91 532.554,-34.3882"/>
<polygon fill="black" stroke="black" points="532.671,-36.1458 537.749,-34.6369 532.839,-32.6498 532.671,-36.1458"/>
</g>
<!-- param.parameterized.Parameterized -->
<g id="node2" class="node"><title>param.parameterized.Parameterized</title>
<polygon fill="none" stroke="black" stroke-width="0.5" points="302,-20.5 108,-20.5 108,0.5 302,0.5 302,-20.5"/>
<text text-anchor="middle" x="205" y="-7.5" font-family="Vera" font-size="10.00">param.parameterized.Parameterized</text>
</g>
<!-- param.parameterized.Parameterized&#45;&gt;paramtk.TkParameterizedBase -->
<g id="edge2" class="edge"><title>param.parameterized.Parameterized&#45;&gt;paramtk.TkParameterizedBase</title>
<path fill="none" stroke="black" stroke-width="0.5" d="M302.121,-18.5828C312.261,-19.4789 322.525,-20.3859 332.548,-21.2717"/>
<polygon fill="black" stroke="black" points="332.631,-23.0358 337.766,-21.7328 332.939,-19.5493 332.631,-23.0358"/>
</g>
<!-- Tkinter.Widget -->
<g id="node4" class="node"><title>Tkinter.Widget</title>
<polygon fill="none" stroke="black" stroke-width="0.5" points="461,-96.5 379,-96.5 379,-75.5 461,-75.5 461,-96.5"/>
<text text-anchor="middle" x="420" y="-83.5" font-family="Vera" font-size="10.00">Tkinter.Widget</text>
</g>
<!-- Tkinter.Frame -->
<g id="node13" class="node"><title>Tkinter.Frame</title>
<polygon fill="none" stroke="black" stroke-width="0.5" points="648,-91.5 568,-91.5 568,-70.5 648,-70.5 648,-91.5"/>
<text text-anchor="middle" x="608" y="-78.5" font-family="Vera" font-size="10.00">Tkinter.Frame</text>
</g>
<!-- Tkinter.Widget&#45;&gt;Tkinter.Frame -->
<g id="edge12" class="edge"><title>Tkinter.Widget&#45;&gt;Tkinter.Frame</title>
<path fill="none" stroke="black" stroke-width="0.5" d="M461.723,-84.8903C491.481,-84.0989 531.488,-83.0349 562.14,-82.2197"/>
<polygon fill="black" stroke="black" points="562.411,-83.9632 567.362,-82.0808 562.318,-80.4644 562.411,-83.9632"/>
</g>
<!-- Tkinter.BaseWidget -->
<g id="node5" class="node"><title>Tkinter.BaseWidget</title>
<polygon fill="none" stroke="black" stroke-width="0.5" points="258,-172.5 152,-172.5 152,-151.5 258,-151.5 258,-172.5"/>
<text text-anchor="middle" x="205" y="-159.5" font-family="Vera" font-size="10.00">Tkinter.BaseWidget</text>
</g>
<!-- Tkinter.BaseWidget&#45;&gt;Tkinter.Widget -->
<g id="edge4" class="edge"><title>Tkinter.BaseWidget&#45;&gt;Tkinter.Widget</title>
<path fill="none" stroke="black" stroke-width="0.5" d="M258.75,-154.017C273,-151.213 288.243,-147.585 302,-143 337.006,-131.333 375.019,-111.57 398.178,-98.6531"/>
<polygon fill="black" stroke="black" points="399.105,-100.14 402.607,-96.1653 397.39,-97.0885 399.105,-100.14"/>
</g>
<!-- Tkinter.Pack -->
<g id="node7" class="node"><title>Tkinter.Pack</title>
<polygon fill="none" stroke="black" stroke-width="0.5" points="241,-134.5 169,-134.5 169,-113.5 241,-113.5 241,-134.5"/>
<text text-anchor="middle" x="205" y="-121.5" font-family="Vera" font-size="10.00">Tkinter.Pack</text>
</g>
<!-- Tkinter.Pack&#45;&gt;Tkinter.Widget -->
<g id="edge6" class="edge"><title>Tkinter.Pack&#45;&gt;Tkinter.Widget</title>
<path fill="none" stroke="black" stroke-width="0.5" d="M241.96,-117.468C278.269,-111.05 333.801,-101.235 373.179,-94.2753"/>
<polygon fill="black" stroke="black" points="373.764,-95.9492 378.383,-93.3556 373.154,-92.5027 373.764,-95.9492"/>
</g>
<!-- Tkinter.Place -->
<g id="node9" class="node"><title>Tkinter.Place</title>
<polygon fill="none" stroke="black" stroke-width="0.5" points="243,-96.5 167,-96.5 167,-75.5 243,-75.5 243,-96.5"/>
<text text-anchor="middle" x="205" y="-83.5" font-family="Vera" font-size="10.00">Tkinter.Place</text>
</g>
<!-- Tkinter.Place&#45;&gt;Tkinter.Widget -->
<g id="edge8" class="edge"><title>Tkinter.Place&#45;&gt;Tkinter.Widget</title>
<path fill="none" stroke="black" stroke-width="0.5" d="M243.935,-86C280.299,-86 334.629,-86 373.308,-86"/>
<polygon fill="black" stroke="black" points="373.42,-87.7501 378.42,-86 373.42,-84.2501 373.42,-87.7501"/>
</g>
<!-- Tkinter.Grid -->
<g id="node11" class="node"><title>Tkinter.Grid</title>
<polygon fill="none" stroke="black" stroke-width="0.5" points="240,-58.5 170,-58.5 170,-37.5 240,-37.5 240,-58.5"/>
<text text-anchor="middle" x="205" y="-45.5" font-family="Vera" font-size="10.00">Tkinter.Grid</text>
</g>
<!-- Tkinter.Grid&#45;&gt;Tkinter.Widget -->
<g id="edge10" class="edge"><title>Tkinter.Grid&#45;&gt;Tkinter.Widget</title>
<path fill="none" stroke="black" stroke-width="0.5" d="M240.503,-54.2749C276.687,-60.6702 333.012,-70.6253 372.905,-77.6762"/>
<polygon fill="black" stroke="black" points="372.947,-79.4607 378.175,-78.6077 373.556,-76.0141 372.947,-79.4607"/>
</g>
<!-- topo.tkgui.plotgrouppanel.PlotGroupPanel -->
<g id="node15" class="node"><title>topo.tkgui.plotgrouppanel.PlotGroupPanel</title>
<polygon fill="none" stroke="black" stroke-width="0.5" points="929,-69.5 715,-69.5 715,-48.5 929,-48.5 929,-69.5"/>
<text text-anchor="middle" x="822" y="-56.5" font-family="Vera" font-size="10.00">topo.tkgui.plotgrouppanel.PlotGroupPanel</text>
</g>
<!-- Tkinter.Frame&#45;&gt;topo.tkgui.plotgrouppanel.PlotGroupPanel -->
<g id="edge16" class="edge"><title>Tkinter.Frame&#45;&gt;topo.tkgui.plotgrouppanel.PlotGroupPanel</title>
<path fill="none" stroke="black" stroke-width="0.5" d="M648.503,-76.8361C668.724,-74.7573 694.194,-72.1389 719.344,-69.5534"/>
<polygon fill="black" stroke="black" points="719.573,-71.2892 724.368,-69.0369 719.215,-67.8075 719.573,-71.2892"/>
</g>
<!-- topo.tkgui.plotgrouppanel.SheetPanel -->
<g id="node22" class="node"><title>topo.tkgui.plotgrouppanel.SheetPanel</title>
<polygon fill="none" stroke="black" stroke-width="0.5" points="1163,-69.5 967,-69.5 967,-48.5 1163,-48.5 1163,-69.5"/>
<text text-anchor="middle" x="1065" y="-56.5" font-family="Vera" font-size="10.00">topo.tkgui.plotgrouppanel.SheetPanel</text>
</g>
<!-- topo.tkgui.plotgrouppanel.PlotGroupPanel&#45;&gt;topo.tkgui.plotgrouppanel.SheetPanel -->
<g id="edge22" class="edge"><title>topo.tkgui.plotgrouppanel.PlotGroupPanel&#45;&gt;topo.tkgui.plotgrouppanel.SheetPanel</title>
<path fill="none" stroke="black" stroke-width="0.5" d="M929.645,-59C940.118,-59 950.73,-59 961.165,-59"/>
<polygon fill="black" stroke="black" points="961.272,-60.7501 966.272,-59 961.272,-57.2501 961.272,-60.7501"/>
</g>
<!-- paramtk.TkParameterized&#45;&gt;topo.tkgui.plotgrouppanel.PlotGroupPanel -->
<g id="edge14" class="edge"><title>paramtk.TkParameterized&#45;&gt;topo.tkgui.plotgrouppanel.PlotGroupPanel</title>
<path fill="none" stroke="black" stroke-width="0.5" d="M678.072,-44.8762C689.909,-46.0378 702.434,-47.2669 714.959,-48.496"/>
<polygon fill="black" stroke="black" points="714.798,-50.2385 719.945,-48.9853 715.14,-46.7553 714.798,-50.2385"/>
</g>
<!-- Tkinter.Misc -->
<g id="node20" class="node"><title>Tkinter.Misc</title>
<polygon fill="none" stroke="black" stroke-width="0.5" points="72,-172.5 2.84217e-14,-172.5 0,-151.5 72,-151.5 72,-172.5"/>
<text text-anchor="middle" x="36" y="-159.5" font-family="Vera" font-size="10.00">Tkinter.Misc</text>
</g>
<!-- Tkinter.Misc&#45;&gt;Tkinter.BaseWidget -->
<g id="edge20" class="edge"><title>Tkinter.Misc&#45;&gt;Tkinter.BaseWidget</title>
<path fill="none" stroke="black" stroke-width="0.5" d="M72.2547,-162C93.805,-162 121.651,-162 146.27,-162"/>
<polygon fill="black" stroke="black" points="146.471,-163.75 151.471,-162 146.471,-160.25 146.471,-163.75"/>
</g>
</g>
</svg>
