<?xml version="1.0" encoding="UTF-8" standalone="no"?>
<!DOCTYPE svg PUBLIC "-//W3C//DTD SVG 1.1//EN"
 "http://www.w3.org/Graphics/SVG/1.1/DTD/svg11.dtd">
<!-- Generated by graphviz version 2.26.3 (20100126.1600)
 -->
<!-- Title: inheritancea80f92a813 Pages: 1 -->
<svg width="932pt" height="199pt"
 viewBox="0.00 0.00 932.00 199.00" xmlns="http://www.w3.org/2000/svg" xmlns:xlink="http://www.w3.org/1999/xlink">
<g id="graph1" class="graph" transform="scale(1 1) rotate(0) translate(4 195)">
<title>inheritancea80f92a813</title>
<polygon fill="white" stroke="white" points="-4,5 -4,-195 929,-195 929,5 -4,5"/>
<!-- param.parameterized.Parameterized -->
<g id="node1" class="node"><title>param.parameterized.Parameterized</title>
<polygon fill="none" stroke="black" stroke-width="0.5" points="194,-96.5 5.68434e-14,-96.5 0,-75.5 194,-75.5 194,-96.5"/>
<text text-anchor="middle" x="97" y="-83.5" font-family="Vera" font-size="10.00">param.parameterized.Parameterized</text>
</g>
<!-- topo.base.cf.CFPLearningFn -->
<g id="node6" class="node"><title>topo.base.cf.CFPLearningFn</title>
<polygon fill="none" stroke="black" stroke-width="0.5" points="379,-96.5 231,-96.5 231,-75.5 379,-75.5 379,-96.5"/>
<text text-anchor="middle" x="305" y="-83.5" font-family="Vera" font-size="10.00">topo.base.cf.CFPLearningFn</text>
</g>
<!-- param.parameterized.Parameterized&#45;&gt;topo.base.cf.CFPLearningFn -->
<g id="edge20" class="edge"><title>param.parameterized.Parameterized&#45;&gt;topo.base.cf.CFPLearningFn</title>
<path fill="none" stroke="black" stroke-width="0.5" d="M194.301,-86C204.655,-86 215.098,-86 225.218,-86"/>
<polygon fill="black" stroke="black" points="225.478,-87.7501 230.478,-86 225.477,-84.2501 225.478,-87.7501"/>
</g>
<!-- topo.learningfn.optimized.CFPLF_Scaled -->
<g id="node2" class="node"><title>topo.learningfn.optimized.CFPLF_Scaled</title>
<polygon fill="none" stroke="black" stroke-width="0.5" points="913,-191.5 705,-191.5 705,-170.5 913,-170.5 913,-191.5"/>
<text text-anchor="middle" x="809" y="-178.5" font-family="Vera" font-size="10.00">topo.learningfn.optimized.CFPLF_Scaled</text>
</g>
<!-- topo.learningfn.projfn.CFPLF_PluginScaled -->
<g id="node3" class="node"><title>topo.learningfn.projfn.CFPLF_PluginScaled</title>
<polygon fill="none" stroke="black" stroke-width="0.5" points="645,-172.5 429,-172.5 429,-151.5 645,-151.5 645,-172.5"/>
<text text-anchor="middle" x="537" y="-159.5" font-family="Vera" font-size="10.00">topo.learningfn.projfn.CFPLF_PluginScaled</text>
</g>
<!-- topo.learningfn.projfn.CFPLF_PluginScaled&#45;&gt;topo.learningfn.optimized.CFPLF_Scaled -->
<g id="edge2" class="edge"><title>topo.learningfn.projfn.CFPLF_PluginScaled&#45;&gt;topo.learningfn.optimized.CFPLF_Scaled</title>
<path fill="none" stroke="black" stroke-width="0.5" d="M645.283,-169.564C663.158,-170.813 681.7,-172.108 699.603,-173.358"/>
<polygon fill="black" stroke="black" points="699.524,-175.107 704.634,-173.71 699.768,-171.615 699.524,-175.107"/>
</g>
<!-- topo.learningfn.optimized.CFPLF_Scaled_opt -->
<g id="node13" class="node"><title>topo.learningfn.optimized.CFPLF_Scaled_opt</title>
<polygon fill="none" stroke="black" stroke-width="0.5" points="923,-153.5 695,-153.5 695,-132.5 923,-132.5 923,-153.5"/>
<text text-anchor="middle" x="809" y="-140.5" font-family="Vera" font-size="10.00">topo.learningfn.optimized.CFPLF_Scaled_opt</text>
</g>
<!-- topo.learningfn.projfn.CFPLF_PluginScaled&#45;&gt;topo.learningfn.optimized.CFPLF_Scaled_opt -->
<g id="edge12" class="edge"><title>topo.learningfn.projfn.CFPLF_PluginScaled&#45;&gt;topo.learningfn.optimized.CFPLF_Scaled_opt</title>
<path fill="none" stroke="black" stroke-width="0.5" d="M645.283,-154.436C659.665,-153.431 674.479,-152.397 689.044,-151.379"/>
<polygon fill="black" stroke="black" points="689.531,-153.1 694.397,-151.005 689.288,-149.608 689.531,-153.1"/>
</g>
<!-- topo.learningfn.optimized.CFPLF_Trace_opt -->
<g id="node5" class="node"><title>topo.learningfn.optimized.CFPLF_Trace_opt</title>
<polygon fill="none" stroke="black" stroke-width="0.5" points="647,-134.5 427,-134.5 427,-113.5 647,-113.5 647,-134.5"/>
<text text-anchor="middle" x="537" y="-121.5" font-family="Vera" font-size="10.00">topo.learningfn.optimized.CFPLF_Trace_opt</text>
</g>
<!-- topo.base.cf.CFPLearningFn&#45;&gt;topo.learningfn.projfn.CFPLF_PluginScaled -->
<g id="edge8" class="edge"><title>topo.base.cf.CFPLearningFn&#45;&gt;topo.learningfn.projfn.CFPLF_PluginScaled</title>
<path fill="none" stroke="black" stroke-width="0.5" d="M320.839,-96.2027C341.762,-109.184 380.162,-131.319 416,-143 425.556,-146.115 435.708,-148.727 445.91,-150.916"/>
<polygon fill="black" stroke="black" points="445.669,-152.653 450.92,-151.957 446.381,-149.226 445.669,-152.653"/>
</g>
<!-- topo.base.cf.CFPLearningFn&#45;&gt;topo.learningfn.optimized.CFPLF_Trace_opt -->
<g id="edge4" class="edge"><title>topo.base.cf.CFPLearningFn&#45;&gt;topo.learningfn.optimized.CFPLF_Trace_opt</title>
<path fill="none" stroke="black" stroke-width="0.5" d="M362.586,-96.0121C379.762,-98.9566 398.636,-102.151 416,-105 432.449,-107.699 450.17,-110.527 466.842,-113.151"/>
<polygon fill="black" stroke="black" points="466.768,-114.911 471.98,-113.959 467.312,-111.454 466.768,-114.911"/>
</g>
<!-- topo.base.cf.CFPLF_Plugin -->
<g id="node8" class="node"><title>topo.base.cf.CFPLF_Plugin</title>
<polygon fill="none" stroke="black" stroke-width="0.5" points="607,-96.5 467,-96.5 467,-75.5 607,-75.5 607,-96.5"/>
<text text-anchor="middle" x="537" y="-83.5" font-family="Vera" font-size="10.00">topo.base.cf.CFPLF_Plugin</text>
</g>
<!-- topo.base.cf.CFPLearningFn&#45;&gt;topo.base.cf.CFPLF_Plugin -->
<g id="edge6" class="edge"><title>topo.base.cf.CFPLearningFn&#45;&gt;topo.base.cf.CFPLF_Plugin</title>
<path fill="none" stroke="black" stroke-width="0.5" d="M379.683,-86C405.886,-86 435.324,-86 461.587,-86"/>
<polygon fill="black" stroke="black" points="461.795,-87.7501 466.795,-86 461.795,-84.2501 461.795,-87.7501"/>
</g>
<!-- topo.learningfn.optimized.CFPLF_BCMFixed_opt -->
<g id="node15" class="node"><title>topo.learningfn.optimized.CFPLF_BCMFixed_opt</title>
<polygon fill="none" stroke="black" stroke-width="0.5" points="658,-58.5 416,-58.5 416,-37.5 658,-37.5 658,-58.5"/>
<text text-anchor="middle" x="537" y="-45.5" font-family="Vera" font-size="10.00">topo.learningfn.optimized.CFPLF_BCMFixed_opt</text>
</g>
<!-- topo.base.cf.CFPLearningFn&#45;&gt;topo.learningfn.optimized.CFPLF_BCMFixed_opt -->
<g id="edge14" class="edge"><title>topo.base.cf.CFPLearningFn&#45;&gt;topo.learningfn.optimized.CFPLF_BCMFixed_opt</title>
<path fill="none" stroke="black" stroke-width="0.5" d="M362.586,-75.9879C379.762,-73.0434 398.636,-69.8492 416,-67 432.449,-64.3008 450.17,-61.4732 466.842,-58.8487"/>
<polygon fill="black" stroke="black" points="467.312,-60.5464 471.98,-58.0412 466.768,-57.0889 467.312,-60.5464"/>
</g>
<!-- topo.learningfn.optimized.CFPLF_Hebbian_opt -->
<g id="node17" class="node"><title>topo.learningfn.optimized.CFPLF_Hebbian_opt</title>
<polygon fill="none" stroke="black" stroke-width="0.5" points="655,-20.5 419,-20.5 419,0.5 655,0.5 655,-20.5"/>
<text text-anchor="middle" x="537" y="-7.5" font-family="Vera" font-size="10.00">topo.learningfn.optimized.CFPLF_Hebbian_opt</text>
</g>
<!-- topo.base.cf.CFPLearningFn&#45;&gt;topo.learningfn.optimized.CFPLF_Hebbian_opt -->
<g id="edge16" class="edge"><title>topo.base.cf.CFPLearningFn&#45;&gt;topo.learningfn.optimized.CFPLF_Hebbian_opt</title>
<path fill="none" stroke="black" stroke-width="0.5" d="M320.839,-75.7973C341.762,-62.8157 380.162,-40.6809 416,-29 425.556,-25.8854 435.708,-23.2732 445.91,-21.0841"/>
<polygon fill="black" stroke="black" points="446.381,-22.7738 450.92,-20.0431 445.669,-19.3469 446.381,-22.7738"/>
</g>
<!-- topo.learningfn.optimized.CFPLF_BCMFixed -->
<g id="node11" class="node"><title>topo.learningfn.optimized.CFPLF_BCMFixed</title>
<polygon fill="none" stroke="black" stroke-width="0.5" points="919,-115.5 699,-115.5 699,-94.5 919,-94.5 919,-115.5"/>
<text text-anchor="middle" x="809" y="-102.5" font-family="Vera" font-size="10.00">topo.learningfn.optimized.CFPLF_BCMFixed</text>
</g>
<!-- topo.base.cf.CFPLF_Plugin&#45;&gt;topo.learningfn.optimized.CFPLF_BCMFixed -->
<g id="edge10" class="edge"><title>topo.base.cf.CFPLF_Plugin&#45;&gt;topo.learningfn.optimized.CFPLF_BCMFixed</title>
<path fill="none" stroke="black" stroke-width="0.5" d="M607.047,-90.893C633.31,-92.7275 663.902,-94.8645 693.213,-96.9119"/>
<polygon fill="black" stroke="black" points="693.176,-98.6635 698.286,-97.2663 693.42,-95.172 693.176,-98.6635"/>
</g>
<!-- topo.learningfn.optimized.CFPLF_Hebbian -->
<g id="node19" class="node"><title>topo.learningfn.optimized.CFPLF_Hebbian</title>
<polygon fill="none" stroke="black" stroke-width="0.5" points="916,-77.5 702,-77.5 702,-56.5 916,-56.5 916,-77.5"/>
<text text-anchor="middle" x="809" y="-64.5" font-family="Vera" font-size="10.00">topo.learningfn.optimized.CFPLF_Hebbian</text>
</g>
<!-- topo.base.cf.CFPLF_Plugin&#45;&gt;topo.learningfn.optimized.CFPLF_Hebbian -->
<g id="edge18" class="edge"><title>topo.base.cf.CFPLF_Plugin&#45;&gt;topo.learningfn.optimized.CFPLF_Hebbian</title>
<path fill="none" stroke="black" stroke-width="0.5" d="M607.047,-81.107C634.202,-79.2101 665.987,-76.9899 696.197,-74.8796"/>
<polygon fill="black" stroke="black" points="696.558,-76.6088 701.424,-74.5145 696.314,-73.1173 696.558,-76.6088"/>
</g>
</g>
</svg>
