<?xml version="1.0" encoding="UTF-8" standalone="no"?>
<!DOCTYPE svg PUBLIC "-//W3C//DTD SVG 1.1//EN"
 "http://www.w3.org/Graphics/SVG/1.1/DTD/svg11.dtd">
<!-- Generated by graphviz version 2.26.3 (20100126.1600)
 -->
<!-- Title: inheritancef415e0380d Pages: 1 -->
<svg width="702pt" height="218pt"
 viewBox="0.00 0.00 702.00 218.00" xmlns="http://www.w3.org/2000/svg" xmlns:xlink="http://www.w3.org/1999/xlink">
<g id="graph1" class="graph" transform="scale(1 1) rotate(0) translate(4 214)">
<title>inheritancef415e0380d</title>
<polygon fill="white" stroke="white" points="-4,5 -4,-214 699,-214 699,5 -4,5"/>
<!-- topo.command.UnpickleEnvironmentCreator -->
<g id="node1" class="node"><title>topo.command.UnpickleEnvironmentCreator</title>
<polygon fill="none" stroke="black" stroke-width="0.5" points="226,-20 6,-20 6,-1.06581e-14 226,-3.55271e-15 226,-20"/>
<text text-anchor="middle" x="116" y="-7" font-family="Vera" font-size="10.00">topo.command.UnpickleEnvironmentCreator</text>
</g>
<!-- topo.command.param_formatter -->
<g id="node2" class="node"><title>topo.command.param_formatter</title>
<polygon fill="none" stroke="black" stroke-width="0.5" points="694,-96 528,-96 528,-76 694,-76 694,-96"/>
<text text-anchor="middle" x="611" y="-83" font-family="Vera" font-size="10.00">topo.command.param_formatter</text>
</g>
<!-- param.parameterized.ParameterizedFunction -->
<g id="node3" class="node"><title>param.parameterized.ParameterizedFunction</title>
<polygon fill="none" stroke="black" stroke-width="0.5" points="491,-58 269,-58 269,-38 491,-38 491,-58"/>
<text text-anchor="middle" x="380" y="-45" font-family="Vera" font-size="10.00">param.parameterized.ParameterizedFunction</text>
</g>
<!-- param.parameterized.ParameterizedFunction&#45;&gt;topo.command.param_formatter -->
<g id="edge2" class="edge"><title>param.parameterized.ParameterizedFunction&#45;&gt;topo.command.param_formatter</title>
<path fill="none" stroke="black" stroke-width="0.5" d="M440.995,-58.0338C472.969,-63.2936 512.174,-69.7429 544.874,-75.1221"/>
<polygon fill="black" stroke="black" points="544.847,-76.8911 550.064,-75.976 545.415,-73.4375 544.847,-76.8911"/>
</g>
<!-- topo.command.Command -->
<g id="node5" class="node"><title>topo.command.Command</title>
<polygon fill="none" stroke="black" stroke-width="0.5" points="679,-58 543,-58 543,-38 679,-38 679,-58"/>
<text text-anchor="middle" x="611" y="-45" font-family="Vera" font-size="10.00">topo.command.Command</text>
</g>
<!-- param.parameterized.ParameterizedFunction&#45;&gt;topo.command.Command -->
<g id="edge4" class="edge"><title>param.parameterized.ParameterizedFunction&#45;&gt;topo.command.Command</title>
<path fill="none" stroke="black" stroke-width="0.5" d="M491.778,-48C507.266,-48 522.843,-48 537.394,-48"/>
<polygon fill="black" stroke="black" points="537.706,-49.7501 542.706,-48 537.706,-46.2501 537.706,-49.7501"/>
</g>
<!-- topo.command.run_batch -->
<g id="node12" class="node"><title>topo.command.run_batch</title>
<polygon fill="none" stroke="black" stroke-width="0.5" points="678,-20 544,-20 544,-1.06581e-14 678,-3.55271e-15 678,-20"/>
<text text-anchor="middle" x="611" y="-7" font-family="Vera" font-size="10.00">topo.command.run_batch</text>
</g>
<!-- param.parameterized.ParameterizedFunction&#45;&gt;topo.command.run_batch -->
<g id="edge10" class="edge"><title>param.parameterized.ParameterizedFunction&#45;&gt;topo.command.run_batch</title>
<path fill="none" stroke="black" stroke-width="0.5" d="M440.995,-37.9662C472.969,-32.7064 512.174,-26.2571 544.874,-20.8779"/>
<polygon fill="black" stroke="black" points="545.415,-22.5625 550.064,-20.024 544.847,-19.1089 545.415,-22.5625"/>
</g>
<!-- topo.command.CommandMetaclass -->
<g id="node7" class="node"><title>topo.command.CommandMetaclass</title>
<polygon fill="none" stroke="black" stroke-width="0.5" points="470,-96 290,-96 290,-76 470,-76 470,-96"/>
<text text-anchor="middle" x="380" y="-83" font-family="Vera" font-size="10.00">topo.command.CommandMetaclass</text>
</g>
<!-- param.parameterized.ParameterizedMetaclass -->
<g id="node8" class="node"><title>param.parameterized.ParameterizedMetaclass</title>
<polygon fill="none" stroke="black" stroke-width="0.5" points="230,-96 2,-96 2,-76 230,-76 230,-96"/>
<text text-anchor="middle" x="116" y="-83" font-family="Vera" font-size="10.00">param.parameterized.ParameterizedMetaclass</text>
</g>
<!-- param.parameterized.ParameterizedMetaclass&#45;&gt;topo.command.CommandMetaclass -->
<g id="edge6" class="edge"><title>param.parameterized.ParameterizedMetaclass&#45;&gt;topo.command.CommandMetaclass</title>
<path fill="none" stroke="black" stroke-width="0.5" d="M230.259,-86C248.318,-86 266.829,-86 284.405,-86"/>
<polygon fill="black" stroke="black" points="284.828,-87.7501 289.828,-86 284.828,-84.2501 284.828,-87.7501"/>
</g>
<!-- param.parameterized.Parameterized -->
<g id="node10" class="node"><title>param.parameterized.Parameterized</title>
<polygon fill="none" stroke="black" stroke-width="0.5" points="208,-58 24,-58 24,-38 208,-38 208,-58"/>
<text text-anchor="middle" x="116" y="-45" font-family="Vera" font-size="10.00">param.parameterized.Parameterized</text>
</g>
<!-- param.parameterized.Parameterized&#45;&gt;param.parameterized.ParameterizedFunction -->
<g id="edge8" class="edge"><title>param.parameterized.Parameterized&#45;&gt;param.parameterized.ParameterizedFunction</title>
<path fill="none" stroke="black" stroke-width="0.5" d="M208.334,-48C226.003,-48 244.717,-48 263.039,-48"/>
<polygon fill="black" stroke="black" points="263.196,-49.7501 268.196,-48 263.196,-46.2501 263.196,-49.7501"/>
</g>
<!-- topo.command.ImportErrorRaisingFakeModule -->
<g id="node14" class="node"><title>topo.command.ImportErrorRaisingFakeModule</title>
<polygon fill="none" stroke="black" stroke-width="0.5" points="231,-134 1,-134 1,-114 231,-114 231,-134"/>
<text text-anchor="middle" x="116" y="-121" font-family="Vera" font-size="10.00">topo.command.ImportErrorRaisingFakeModule</text>
</g>
<!-- topo.command._VersionPrinter -->
<g id="node15" class="node"><title>topo.command._VersionPrinter</title>
<polygon fill="none" stroke="black" stroke-width="0.5" points="195,-172 37,-172 37,-152 195,-152 195,-172"/>
<text text-anchor="middle" x="116" y="-159" font-family="Vera" font-size="10.00">topo.command._VersionPrinter</text>
</g>
<!-- topo.command.ImportErrorObject -->
<g id="node16" class="node"><title>topo.command.ImportErrorObject</title>
<polygon fill="none" stroke="black" stroke-width="0.5" points="202,-210 30,-210 30,-190 202,-190 202,-210"/>
<text text-anchor="middle" x="116" y="-197" font-family="Vera" font-size="10.00">topo.command.ImportErrorObject</text>
</g>
</g>
</svg>
