<?xml version="1.0" encoding="UTF-8" standalone="no"?>
<!DOCTYPE svg PUBLIC "-//W3C//DTD SVG 1.1//EN"
 "http://www.w3.org/Graphics/SVG/1.1/DTD/svg11.dtd">
<!-- Generated by graphviz version 2.26.3 (20100126.1600)
 -->
<!-- Title: inheritanceb299c4dd19 Pages: 1 -->
<svg width="950pt" height="170pt"
 viewBox="0.00 0.00 950.00 170.00" xmlns="http://www.w3.org/2000/svg" xmlns:xlink="http://www.w3.org/1999/xlink">
<g id="graph1" class="graph" transform="scale(1 1) rotate(0) translate(4 166)">
<title>inheritanceb299c4dd19</title>
<polygon fill="white" stroke="white" points="-4,5 -4,-166 947,-166 947,5 -4,5"/>
<!-- param.parameterized.Parameterized -->
<g id="node1" class="node"><title>param.parameterized.Parameterized</title>
<polygon fill="none" stroke="black" stroke-width="0.5" points="194,-58.5 5.68434e-14,-58.5 0,-37.5 194,-37.5 194,-58.5"/>
<text text-anchor="middle" x="97" y="-45.5" font-family="Vera" font-size="10.00">param.parameterized.Parameterized</text>
</g>
<!-- imagen.patterngenerator.PatternGenerator -->
<g id="node3" class="node"><title>imagen.patterngenerator.PatternGenerator</title>
<polygon fill="none" stroke="black" stroke-width="0.5" points="454,-58.5 230,-58.5 230,-37.5 454,-37.5 454,-58.5"/>
<text text-anchor="middle" x="342" y="-45.5" font-family="Vera" font-size="10.00">imagen.patterngenerator.PatternGenerator</text>
</g>
<!-- param.parameterized.Parameterized&#45;&gt;imagen.patterngenerator.PatternGenerator -->
<g id="edge16" class="edge"><title>param.parameterized.Parameterized&#45;&gt;imagen.patterngenerator.PatternGenerator</title>
<path fill="none" stroke="black" stroke-width="0.5" d="M194.182,-48C204.286,-48 214.629,-48 224.922,-48"/>
<polygon fill="black" stroke="black" points="224.969,-49.7501 229.969,-48 224.969,-46.2501 224.969,-49.7501"/>
</g>
<!-- imagen.random.RandomGenerator -->
<g id="node2" class="node"><title>imagen.random.RandomGenerator</title>
<polygon fill="none" stroke="black" stroke-width="0.5" points="688,-105.5 504,-105.5 504,-84.5 688,-84.5 688,-105.5"/>
<text text-anchor="middle" x="596" y="-92.5" font-family="Vera" font-size="10.00">imagen.random.RandomGenerator</text>
</g>
<!-- imagen.random.UniformRandom -->
<g id="node5" class="node"><title>imagen.random.UniformRandom</title>
<polygon fill="none" stroke="black" stroke-width="0.5" points="927,-162.5 753,-162.5 753,-141.5 927,-141.5 927,-162.5"/>
<text text-anchor="middle" x="840" y="-149.5" font-family="Vera" font-size="10.00">imagen.random.UniformRandom</text>
</g>
<!-- imagen.random.RandomGenerator&#45;&gt;imagen.random.UniformRandom -->
<g id="edge4" class="edge"><title>imagen.random.RandomGenerator&#45;&gt;imagen.random.UniformRandom</title>
<path fill="none" stroke="black" stroke-width="0.5" d="M630.537,-105.044C659.177,-113.18 701.039,-124.625 738,-133 750.485,-135.829 763.898,-138.551 776.763,-141.008"/>
<polygon fill="black" stroke="black" points="776.615,-142.761 781.854,-141.973 777.267,-139.323 776.615,-142.761"/>
</g>
<!-- imagen.random.GaussianRandom -->
<g id="node7" class="node"><title>imagen.random.GaussianRandom</title>
<polygon fill="none" stroke="black" stroke-width="0.5" points="930,-124.5 750,-124.5 750,-103.5 930,-103.5 930,-124.5"/>
<text text-anchor="middle" x="840" y="-111.5" font-family="Vera" font-size="10.00">imagen.random.GaussianRandom</text>
</g>
<!-- imagen.random.RandomGenerator&#45;&gt;imagen.random.GaussianRandom -->
<g id="edge6" class="edge"><title>imagen.random.RandomGenerator&#45;&gt;imagen.random.GaussianRandom</title>
<path fill="none" stroke="black" stroke-width="0.5" d="M688.594,-102.21C706.955,-103.64 726.261,-105.143 744.711,-106.58"/>
<polygon fill="black" stroke="black" points="744.769,-108.34 749.89,-106.983 745.041,-104.85 744.769,-108.34"/>
</g>
<!-- imagen.random.BinaryUniformRandom -->
<g id="node13" class="node"><title>imagen.random.BinaryUniformRandom</title>
<polygon fill="none" stroke="black" stroke-width="0.5" points="942,-86.5 738,-86.5 738,-65.5 942,-65.5 942,-86.5"/>
<text text-anchor="middle" x="840" y="-73.5" font-family="Vera" font-size="10.00">imagen.random.BinaryUniformRandom</text>
</g>
<!-- imagen.random.RandomGenerator&#45;&gt;imagen.random.BinaryUniformRandom -->
<g id="edge12" class="edge"><title>imagen.random.RandomGenerator&#45;&gt;imagen.random.BinaryUniformRandom</title>
<path fill="none" stroke="black" stroke-width="0.5" d="M688.594,-87.7898C702.882,-86.6772 717.743,-85.52 732.327,-84.3844"/>
<polygon fill="black" stroke="black" points="732.836,-86.1001 737.685,-83.9671 732.565,-82.6107 732.836,-86.1001"/>
</g>
<!-- imagen.patterngenerator.PatternGenerator&#45;&gt;imagen.random.RandomGenerator -->
<g id="edge2" class="edge"><title>imagen.patterngenerator.PatternGenerator&#45;&gt;imagen.random.RandomGenerator</title>
<path fill="none" stroke="black" stroke-width="0.5" d="M396.178,-58.025C437.48,-65.6675 494.301,-76.1817 536.796,-84.045"/>
<polygon fill="black" stroke="black" points="536.67,-85.8013 541.905,-84.9904 537.307,-82.3598 536.67,-85.8013"/>
</g>
<!-- imagen.Composite -->
<g id="node9" class="node"><title>imagen.Composite</title>
<polygon fill="none" stroke="black" stroke-width="0.5" points="649,-58.5 543,-58.5 543,-37.5 649,-37.5 649,-58.5"/>
<text text-anchor="middle" x="596" y="-45.5" font-family="Vera" font-size="10.00">imagen.Composite</text>
</g>
<!-- imagen.patterngenerator.PatternGenerator&#45;&gt;imagen.Composite -->
<g id="edge8" class="edge"><title>imagen.patterngenerator.PatternGenerator&#45;&gt;imagen.Composite</title>
<path fill="none" stroke="black" stroke-width="0.5" d="M454.147,-48C482.808,-48 512.492,-48 537.251,-48"/>
<polygon fill="black" stroke="black" points="537.458,-49.7501 542.458,-48 537.458,-46.2501 537.458,-49.7501"/>
</g>
<!-- imagen.random.RandomDotStereogram -->
<g id="node15" class="node"><title>imagen.random.RandomDotStereogram</title>
<polygon fill="none" stroke="black" stroke-width="0.5" points="701,-20.5 491,-20.5 491,0.5 701,0.5 701,-20.5"/>
<text text-anchor="middle" x="596" y="-7.5" font-family="Vera" font-size="10.00">imagen.random.RandomDotStereogram</text>
</g>
<!-- imagen.patterngenerator.PatternGenerator&#45;&gt;imagen.random.RandomDotStereogram -->
<g id="edge14" class="edge"><title>imagen.patterngenerator.PatternGenerator&#45;&gt;imagen.random.RandomDotStereogram</title>
<path fill="none" stroke="black" stroke-width="0.5" d="M409.068,-37.9662C444.37,-32.6848 487.689,-26.204 523.734,-20.8115"/>
<polygon fill="black" stroke="black" points="524.311,-22.4947 528.997,-20.024 523.793,-19.0332 524.311,-22.4947"/>
</g>
<!-- imagen.random.GaussianCloud -->
<g id="node11" class="node"><title>imagen.random.GaussianCloud</title>
<polygon fill="none" stroke="black" stroke-width="0.5" points="923,-48.5 757,-48.5 757,-27.5 923,-27.5 923,-48.5"/>
<text text-anchor="middle" x="840" y="-35.5" font-family="Vera" font-size="10.00">imagen.random.GaussianCloud</text>
</g>
<!-- imagen.Composite&#45;&gt;imagen.random.GaussianCloud -->
<g id="edge10" class="edge"><title>imagen.Composite&#45;&gt;imagen.random.GaussianCloud</title>
<path fill="none" stroke="black" stroke-width="0.5" d="M649.547,-45.8055C679.364,-44.5835 717.246,-43.0309 751.359,-41.6328"/>
<polygon fill="black" stroke="black" points="751.44,-43.3811 756.364,-41.4277 751.296,-39.884 751.44,-43.3811"/>
</g>
</g>
</svg>
