<?xml version="1.0" encoding="UTF-8" standalone="no"?>
<!DOCTYPE svg PUBLIC "-//W3C//DTD SVG 1.1//EN"
 "http://www.w3.org/Graphics/SVG/1.1/DTD/svg11.dtd">
<!-- Generated by graphviz version 2.26.3 (20100126.1600)
 -->
<!-- Title: inheritance380e6ccf80 Pages: 1 -->
<svg width="802pt" height="218pt"
 viewBox="0.00 0.00 802.00 218.00" xmlns="http://www.w3.org/2000/svg" xmlns:xlink="http://www.w3.org/1999/xlink">
<g id="graph1" class="graph" transform="scale(1 1) rotate(0) translate(4 214)">
<title>inheritance380e6ccf80</title>
<polygon fill="white" stroke="white" points="-4,5 -4,-214 799,-214 799,5 -4,5"/>
<!-- imagen.boundingregion.AARectangle -->
<g id="node1" class="node"><title>imagen.boundingregion.AARectangle</title>
<polygon fill="none" stroke="black" stroke-width="0.5" points="201,-20.5 9,-20.5 9,0.5 201,0.5 201,-20.5"/>
<text text-anchor="middle" x="105" y="-7.5" font-family="Vera" font-size="10.00">imagen.boundingregion.AARectangle</text>
</g>
<!-- param.parameterized.Parameter -->
<g id="node2" class="node"><title>param.parameterized.Parameter</title>
<polygon fill="none" stroke="black" stroke-width="0.5" points="192,-58.5 18,-58.5 18,-37.5 192,-37.5 192,-58.5"/>
<text text-anchor="middle" x="105" y="-45.5" font-family="Vera" font-size="10.00">param.parameterized.Parameter</text>
</g>
<!-- imagen.boundingregion.Cartesian2DPoint -->
<g id="node4" class="node"><title>imagen.boundingregion.Cartesian2DPoint</title>
<polygon fill="none" stroke="black" stroke-width="0.5" points="484,-77.5 268,-77.5 268,-56.5 484,-56.5 484,-77.5"/>
<text text-anchor="middle" x="376" y="-64.5" font-family="Vera" font-size="10.00">imagen.boundingregion.Cartesian2DPoint</text>
</g>
<!-- param.parameterized.Parameter&#45;&gt;imagen.boundingregion.Cartesian2DPoint -->
<g id="edge2" class="edge"><title>param.parameterized.Parameter&#45;&gt;imagen.boundingregion.Cartesian2DPoint</title>
<path fill="none" stroke="black" stroke-width="0.5" d="M192.612,-54.1425C214.989,-55.7114 239.367,-57.4206 262.826,-59.0653"/>
<polygon fill="black" stroke="black" points="262.707,-60.8112 267.817,-59.4152 262.952,-57.3197 262.707,-60.8112"/>
</g>
<!-- imagen.boundingregion.BoundingRegionParameter -->
<g id="node12" class="node"><title>imagen.boundingregion.BoundingRegionParameter</title>
<polygon fill="none" stroke="black" stroke-width="0.5" points="506,-39.5 246,-39.5 246,-18.5 506,-18.5 506,-39.5"/>
<text text-anchor="middle" x="376" y="-26.5" font-family="Vera" font-size="10.00">imagen.boundingregion.BoundingRegionParameter</text>
</g>
<!-- param.parameterized.Parameter&#45;&gt;imagen.boundingregion.BoundingRegionParameter -->
<g id="edge10" class="edge"><title>param.parameterized.Parameter&#45;&gt;imagen.boundingregion.BoundingRegionParameter</title>
<path fill="none" stroke="black" stroke-width="0.5" d="M192.612,-41.8575C208.028,-40.7767 224.392,-39.6293 240.752,-38.4823"/>
<polygon fill="black" stroke="black" points="240.963,-40.2219 245.828,-38.1264 240.718,-36.7305 240.963,-40.2219"/>
</g>
<!-- imagen.boundingregion.BoundingRegion -->
<g id="node3" class="node"><title>imagen.boundingregion.BoundingRegion</title>
<polygon fill="none" stroke="black" stroke-width="0.5" points="209,-153.5 1,-153.5 1,-132.5 209,-132.5 209,-153.5"/>
<text text-anchor="middle" x="105" y="-140.5" font-family="Vera" font-size="10.00">imagen.boundingregion.BoundingRegion</text>
</g>
<!-- imagen.boundingregion.BoundingBox -->
<g id="node6" class="node"><title>imagen.boundingregion.BoundingBox</title>
<polygon fill="none" stroke="black" stroke-width="0.5" points="474,-191.5 278,-191.5 278,-170.5 474,-170.5 474,-191.5"/>
<text text-anchor="middle" x="376" y="-178.5" font-family="Vera" font-size="10.00">imagen.boundingregion.BoundingBox</text>
</g>
<!-- imagen.boundingregion.BoundingRegion&#45;&gt;imagen.boundingregion.BoundingBox -->
<g id="edge4" class="edge"><title>imagen.boundingregion.BoundingRegion&#45;&gt;imagen.boundingregion.BoundingBox</title>
<path fill="none" stroke="black" stroke-width="0.5" d="M176.557,-153.034C214.376,-158.337 260.819,-164.849 299.369,-170.255"/>
<polygon fill="black" stroke="black" points="299.318,-172.015 304.513,-170.976 299.804,-168.549 299.318,-172.015"/>
</g>
<!-- imagen.boundingregion.BoundingCircle -->
<g id="node8" class="node"><title>imagen.boundingregion.BoundingCircle</title>
<polygon fill="none" stroke="black" stroke-width="0.5" points="478,-153.5 274,-153.5 274,-132.5 478,-132.5 478,-153.5"/>
<text text-anchor="middle" x="376" y="-140.5" font-family="Vera" font-size="10.00">imagen.boundingregion.BoundingCircle</text>
</g>
<!-- imagen.boundingregion.BoundingRegion&#45;&gt;imagen.boundingregion.BoundingCircle -->
<g id="edge6" class="edge"><title>imagen.boundingregion.BoundingRegion&#45;&gt;imagen.boundingregion.BoundingCircle</title>
<path fill="none" stroke="black" stroke-width="0.5" d="M209.776,-143C228.972,-143 249.037,-143 268.316,-143"/>
<polygon fill="black" stroke="black" points="268.732,-144.75 273.732,-143 268.732,-141.25 268.732,-144.75"/>
</g>
<!-- imagen.boundingregion.Unbounded -->
<g id="node14" class="node"><title>imagen.boundingregion.Unbounded</title>
<polygon fill="none" stroke="black" stroke-width="0.5" points="470,-115.5 282,-115.5 282,-94.5 470,-94.5 470,-115.5"/>
<text text-anchor="middle" x="376" y="-102.5" font-family="Vera" font-size="10.00">imagen.boundingregion.Unbounded</text>
</g>
<!-- imagen.boundingregion.BoundingRegion&#45;&gt;imagen.boundingregion.Unbounded -->
<g id="edge12" class="edge"><title>imagen.boundingregion.BoundingRegion&#45;&gt;imagen.boundingregion.Unbounded</title>
<path fill="none" stroke="black" stroke-width="0.5" d="M176.557,-132.966C214.376,-127.663 260.819,-121.151 299.369,-115.745"/>
<polygon fill="black" stroke="black" points="299.804,-117.451 304.513,-115.024 299.318,-113.985 299.804,-117.451"/>
</g>
<!-- imagen.boundingregion.BoundingEllipse -->
<g id="node10" class="node"><title>imagen.boundingregion.BoundingEllipse</title>
<polygon fill="none" stroke="black" stroke-width="0.5" points="772,-210.5 564,-210.5 564,-189.5 772,-189.5 772,-210.5"/>
<text text-anchor="middle" x="668" y="-197.5" font-family="Vera" font-size="10.00">imagen.boundingregion.BoundingEllipse</text>
</g>
<!-- imagen.boundingregion.BoundingBox&#45;&gt;imagen.boundingregion.BoundingEllipse -->
<g id="edge8" class="edge"><title>imagen.boundingregion.BoundingBox&#45;&gt;imagen.boundingregion.BoundingEllipse</title>
<path fill="none" stroke="black" stroke-width="0.5" d="M474.044,-187.38C501.262,-189.151 530.98,-191.084 558.793,-192.894"/>
<polygon fill="black" stroke="black" points="558.86,-194.652 563.964,-193.231 559.088,-191.159 558.86,-194.652"/>
</g>
<!-- imagen.boundingregion.BoundingBoxIntersection -->
<g id="node16" class="node"><title>imagen.boundingregion.BoundingBoxIntersection</title>
<polygon fill="none" stroke="black" stroke-width="0.5" points="794,-172.5 542,-172.5 542,-151.5 794,-151.5 794,-172.5"/>
<text text-anchor="middle" x="668" y="-159.5" font-family="Vera" font-size="10.00">imagen.boundingregion.BoundingBoxIntersection</text>
</g>
<!-- imagen.boundingregion.BoundingBox&#45;&gt;imagen.boundingregion.BoundingBoxIntersection -->
<g id="edge14" class="edge"><title>imagen.boundingregion.BoundingBox&#45;&gt;imagen.boundingregion.BoundingBoxIntersection</title>
<path fill="none" stroke="black" stroke-width="0.5" d="M474.044,-174.62C494.214,-173.308 515.758,-171.906 536.882,-170.532"/>
<polygon fill="black" stroke="black" points="537.078,-172.273 541.953,-170.202 536.85,-168.78 537.078,-172.273"/>
</g>
</g>
</svg>
