<?xml version="1.0" encoding="UTF-8" standalone="no"?>
<!DOCTYPE svg PUBLIC "-//W3C//DTD SVG 1.1//EN"
 "http://www.w3.org/Graphics/SVG/1.1/DTD/svg11.dtd">
<!-- Generated by graphviz version 2.26.3 (20100126.1600)
 -->
<!-- Title: inheritance95afd34832 Pages: 1 -->
<svg width="1474pt" height="588pt"
 viewBox="0.00 0.00 1474.00 588.00" xmlns="http://www.w3.org/2000/svg" xmlns:xlink="http://www.w3.org/1999/xlink">
<g id="graph1" class="graph" transform="scale(1 1) rotate(0) translate(4 584)">
<title>inheritance95afd34832</title>
<polygon fill="white" stroke="white" points="-4,5 -4,-584 1471,-584 1471,5 -4,5"/>
<!-- paramtk.Eval_ReprTranslator -->
<g id="node1" class="node"><title>paramtk.Eval_ReprTranslator</title>
<polygon fill="none" stroke="black" stroke-width="0.5" points="385,-134.5 233,-134.5 233,-113.5 385,-113.5 385,-134.5"/>
<text text-anchor="middle" x="309" y="-121.5" font-family="Vera" font-size="10.00">paramtk.Eval_ReprTranslator</text>
</g>
<!-- paramtk.Translator -->
<g id="node2" class="node"><title>paramtk.Translator</title>
<polygon fill="none" stroke="black" stroke-width="0.5" points="141,-77.5 35,-77.5 35,-56.5 141,-56.5 141,-77.5"/>
<text text-anchor="middle" x="88" y="-64.5" font-family="Vera" font-size="10.00">paramtk.Translator</text>
</g>
<!-- paramtk.Translator&#45;&gt;paramtk.Eval_ReprTranslator -->
<g id="edge2" class="edge"><title>paramtk.Translator&#45;&gt;paramtk.Eval_ReprTranslator</title>
<path fill="none" stroke="black" stroke-width="0.5" d="M117.572,-77.012C142.543,-85.2365 179.347,-96.8223 212,-105 223.434,-107.864 235.715,-110.558 247.566,-112.969"/>
<polygon fill="black" stroke="black" points="247.368,-114.714 252.615,-113.984 248.058,-111.282 247.368,-114.714"/>
</g>
<!-- paramtk.String_ObjectTranslator -->
<g id="node15" class="node"><title>paramtk.String_ObjectTranslator</title>
<polygon fill="none" stroke="black" stroke-width="0.5" points="394,-96.5 224,-96.5 224,-75.5 394,-75.5 394,-96.5"/>
<text text-anchor="middle" x="309" y="-83.5" font-family="Vera" font-size="10.00">paramtk.String_ObjectTranslator</text>
</g>
<!-- paramtk.Translator&#45;&gt;paramtk.String_ObjectTranslator -->
<g id="edge12" class="edge"><title>paramtk.Translator&#45;&gt;paramtk.String_ObjectTranslator</title>
<path fill="none" stroke="black" stroke-width="0.5" d="M141.78,-71.6236C164.778,-73.6008 192.273,-75.9647 218.261,-78.1989"/>
<polygon fill="black" stroke="black" points="218.305,-79.9591 223.437,-78.6439 218.605,-76.472 218.305,-79.9591"/>
</g>
<!-- paramtk.ListTranslator -->
<g id="node46" class="node"><title>paramtk.ListTranslator</title>
<polygon fill="none" stroke="black" stroke-width="0.5" points="370,-58.5 248,-58.5 248,-37.5 370,-37.5 370,-58.5"/>
<text text-anchor="middle" x="309" y="-45.5" font-family="Vera" font-size="10.00">paramtk.ListTranslator</text>
</g>
<!-- paramtk.Translator&#45;&gt;paramtk.ListTranslator -->
<g id="edge40" class="edge"><title>paramtk.Translator&#45;&gt;paramtk.ListTranslator</title>
<path fill="none" stroke="black" stroke-width="0.5" d="M141.78,-62.3764C171.978,-59.7801 209.931,-56.5172 242.043,-53.7565"/>
<polygon fill="black" stroke="black" points="242.313,-55.4898 247.145,-53.3179 242.013,-52.0027 242.313,-55.4898"/>
</g>
<!-- paramtk.DoNothingTranslator -->
<g id="node54" class="node"><title>paramtk.DoNothingTranslator</title>
<polygon fill="none" stroke="black" stroke-width="0.5" points="388,-20.5 230,-20.5 230,0.5 388,0.5 388,-20.5"/>
<text text-anchor="middle" x="309" y="-7.5" font-family="Vera" font-size="10.00">paramtk.DoNothingTranslator</text>
</g>
<!-- paramtk.Translator&#45;&gt;paramtk.DoNothingTranslator -->
<g id="edge50" class="edge"><title>paramtk.Translator&#45;&gt;paramtk.DoNothingTranslator</title>
<path fill="none" stroke="black" stroke-width="0.5" d="M117.572,-56.988C142.543,-48.7635 179.347,-37.1777 212,-29 223.434,-26.1365 235.715,-23.4417 247.566,-21.0314"/>
<polygon fill="black" stroke="black" points="248.058,-22.7176 252.615,-20.0161 247.368,-19.2863 248.058,-22.7176"/>
</g>
<!-- paramtk.ListWidget -->
<g id="node4" class="node"><title>paramtk.ListWidget</title>
<polygon fill="none" stroke="black" stroke-width="0.5" points="957,-476.5 849,-476.5 849,-455.5 957,-455.5 957,-476.5"/>
<text text-anchor="middle" x="903" y="-463.5" font-family="Vera" font-size="10.00">paramtk.ListWidget</text>
</g>
<!-- Tkinter.Frame -->
<g id="node5" class="node"><title>Tkinter.Frame</title>
<polygon fill="none" stroke="black" stroke-width="0.5" points="757,-381.5 677,-381.5 677,-360.5 757,-360.5 757,-381.5"/>
<text text-anchor="middle" x="717" y="-368.5" font-family="Vera" font-size="10.00">Tkinter.Frame</text>
</g>
<!-- Tkinter.Frame&#45;&gt;paramtk.ListWidget -->
<g id="edge4" class="edge"><title>Tkinter.Frame&#45;&gt;paramtk.ListWidget</title>
<path fill="none" stroke="black" stroke-width="0.5" d="M757.59,-375.466C769.5,-378.246 781.999,-382.742 792,-390 816.25,-407.599 803.75,-429.401 828,-447 832.756,-450.452 838.077,-453.279 843.631,-455.593"/>
<polygon fill="black" stroke="black" points="843.049,-457.245 848.343,-457.42 844.314,-453.981 843.049,-457.245"/>
</g>
<!-- paramtk.ListItemCtrlWidget -->
<g id="node10" class="node"><title>paramtk.ListItemCtrlWidget</title>
<polygon fill="none" stroke="black" stroke-width="0.5" points="976,-438.5 830,-438.5 830,-417.5 976,-417.5 976,-438.5"/>
<text text-anchor="middle" x="903" y="-425.5" font-family="Vera" font-size="10.00">paramtk.ListItemCtrlWidget</text>
</g>
<!-- Tkinter.Frame&#45;&gt;paramtk.ListItemCtrlWidget -->
<g id="edge8" class="edge"><title>Tkinter.Frame&#45;&gt;paramtk.ListItemCtrlWidget</title>
<path fill="none" stroke="black" stroke-width="0.5" d="M757.64,-379.428C768.936,-382.271 781.092,-385.808 792,-390 808.888,-396.489 811.112,-402.511 828,-409 835.372,-411.833 843.314,-414.367 851.175,-416.589"/>
<polygon fill="black" stroke="black" points="850.769,-418.293 856.054,-417.933 851.698,-414.918 850.769,-418.293"/>
</g>
<!-- paramtk.HackFileEntry -->
<g id="node12" class="node"><title>paramtk.HackFileEntry</title>
<polygon fill="none" stroke="black" stroke-width="0.5" points="965,-400.5 841,-400.5 841,-379.5 965,-379.5 965,-400.5"/>
<text text-anchor="middle" x="903" y="-387.5" font-family="Vera" font-size="10.00">paramtk.HackFileEntry</text>
</g>
<!-- Tkinter.Frame&#45;&gt;paramtk.HackFileEntry -->
<g id="edge10" class="edge"><title>Tkinter.Frame&#45;&gt;paramtk.HackFileEntry</title>
<path fill="none" stroke="black" stroke-width="0.5" d="M757.818,-375.17C780.576,-377.494 809.498,-380.449 835.527,-383.108"/>
<polygon fill="black" stroke="black" points="835.54,-384.868 840.692,-383.635 835.896,-381.386 835.54,-384.868"/>
</g>
<!-- paramtk.StatusBar -->
<g id="node17" class="node"><title>paramtk.StatusBar</title>
<polygon fill="none" stroke="black" stroke-width="0.5" points="957,-362.5 849,-362.5 849,-341.5 957,-341.5 957,-362.5"/>
<text text-anchor="middle" x="903" y="-349.5" font-family="Vera" font-size="10.00">paramtk.StatusBar</text>
</g>
<!-- Tkinter.Frame&#45;&gt;paramtk.StatusBar -->
<g id="edge14" class="edge"><title>Tkinter.Frame&#45;&gt;paramtk.StatusBar</title>
<path fill="none" stroke="black" stroke-width="0.5" d="M757.818,-366.83C782.986,-364.259 815.693,-360.918 843.69,-358.059"/>
<polygon fill="black" stroke="black" points="844.063,-359.78 848.859,-357.53 843.707,-356.298 844.063,-359.78"/>
</g>
<!-- paramtk.ProgressWindow -->
<g id="node35" class="node"><title>paramtk.ProgressWindow</title>
<polygon fill="none" stroke="black" stroke-width="0.5" points="971,-561.5 835,-561.5 835,-540.5 971,-540.5 971,-561.5"/>
<text text-anchor="middle" x="903" y="-548.5" font-family="Vera" font-size="10.00">paramtk.ProgressWindow</text>
</g>
<!-- Tkinter.Frame&#45;&gt;paramtk.ProgressWindow -->
<g id="edge28" class="edge"><title>Tkinter.Frame&#45;&gt;paramtk.ProgressWindow</title>
<path fill="none" stroke="black" stroke-width="0.5" d="M757.888,-373.473C770.231,-376.127 782.904,-381.05 792,-390 835.652,-432.949 786.757,-477.733 828,-523 834.239,-529.848 842.314,-535.028 850.846,-538.945"/>
<polygon fill="black" stroke="black" points="850.339,-540.632 855.624,-540.994 851.718,-537.415 850.339,-540.632"/>
</g>
<!-- paramtk.TaggedSlider -->
<g id="node51" class="node"><title>paramtk.TaggedSlider</title>
<polygon fill="none" stroke="black" stroke-width="0.5" points="963,-324.5 843,-324.5 843,-303.5 963,-303.5 963,-324.5"/>
<text text-anchor="middle" x="903" y="-311.5" font-family="Vera" font-size="10.00">paramtk.TaggedSlider</text>
</g>
<!-- Tkinter.Frame&#45;&gt;paramtk.TaggedSlider -->
<g id="edge46" class="edge"><title>Tkinter.Frame&#45;&gt;paramtk.TaggedSlider</title>
<path fill="none" stroke="black" stroke-width="0.5" d="M744.624,-360.84C766.96,-352.796 799.299,-341.533 828,-333 836.908,-330.352 846.479,-327.747 855.704,-325.356"/>
<polygon fill="black" stroke="black" points="856.38,-326.989 860.788,-324.051 855.509,-323.599 856.38,-326.989"/>
</g>
<!-- paramtk.ScrolledFrame -->
<g id="node59" class="node"><title>paramtk.ScrolledFrame</title>
<polygon fill="none" stroke="black" stroke-width="0.5" points="967,-286.5 839,-286.5 839,-265.5 967,-265.5 967,-286.5"/>
<text text-anchor="middle" x="903" y="-273.5" font-family="Vera" font-size="10.00">paramtk.ScrolledFrame</text>
</g>
<!-- Tkinter.Frame&#45;&gt;paramtk.ScrolledFrame -->
<g id="edge54" class="edge"><title>Tkinter.Frame&#45;&gt;paramtk.ScrolledFrame</title>
<path fill="none" stroke="black" stroke-width="0.5" d="M728.792,-360.809C748.191,-344.555 788.623,-312.785 828,-295 834.243,-292.18 840.975,-289.73 847.754,-287.614"/>
<polygon fill="black" stroke="black" points="848.652,-289.171 852.939,-286.06 847.648,-285.819 848.652,-289.171"/>
</g>
<!-- paramtk.ParametersFrame -->
<g id="node67" class="node"><title>paramtk.ParametersFrame</title>
<polygon fill="none" stroke="black" stroke-width="0.5" points="976,-514.5 830,-514.5 830,-493.5 976,-493.5 976,-514.5"/>
<text text-anchor="middle" x="903" y="-501.5" font-family="Vera" font-size="10.00">paramtk.ParametersFrame</text>
</g>
<!-- Tkinter.Frame&#45;&gt;paramtk.ParametersFrame -->
<g id="edge64" class="edge"><title>Tkinter.Frame&#45;&gt;paramtk.ParametersFrame</title>
<path fill="none" stroke="black" stroke-width="0.5" d="M757.77,-374.099C769.962,-376.801 782.577,-381.596 792,-390 825.696,-420.055 794.304,-454.945 828,-485 830.757,-487.459 833.786,-489.608 836.999,-491.487"/>
<polygon fill="black" stroke="black" points="836.25,-493.071 841.485,-493.885 837.9,-489.984 836.25,-493.071"/>
</g>
<!-- paramtk.Balloon -->
<g id="node7" class="node"><title>paramtk.Balloon</title>
<polygon fill="none" stroke="black" stroke-width="0.5" points="764,-286.5 670,-286.5 670,-265.5 764,-265.5 764,-286.5"/>
<text text-anchor="middle" x="717" y="-273.5" font-family="Vera" font-size="10.00">paramtk.Balloon</text>
</g>
<!-- Tkinter.Widget -->
<g id="node8" class="node"><title>Tkinter.Widget</title>
<polygon fill="none" stroke="black" stroke-width="0.5" points="565,-286.5 483,-286.5 483,-265.5 565,-265.5 565,-286.5"/>
<text text-anchor="middle" x="524" y="-273.5" font-family="Vera" font-size="10.00">Tkinter.Widget</text>
</g>
<!-- Tkinter.Widget&#45;&gt;Tkinter.Frame -->
<g id="edge66" class="edge"><title>Tkinter.Widget&#45;&gt;Tkinter.Frame</title>
<path fill="none" stroke="black" stroke-width="0.5" d="M544.654,-286.167C580.35,-303.737 653.45,-339.719 691.973,-358.681"/>
<polygon fill="black" stroke="black" points="691.235,-360.268 696.494,-360.906 692.781,-357.128 691.235,-360.268"/>
</g>
<!-- Tkinter.Widget&#45;&gt;paramtk.Balloon -->
<g id="edge6" class="edge"><title>Tkinter.Widget&#45;&gt;paramtk.Balloon</title>
<path fill="none" stroke="black" stroke-width="0.5" d="M565.878,-276C594.699,-276 633.211,-276 664.144,-276"/>
<polygon fill="black" stroke="black" points="664.433,-277.75 669.433,-276 664.433,-274.25 664.433,-277.75"/>
</g>
<!-- Tkinter.Menu -->
<g id="node19" class="node"><title>Tkinter.Menu</title>
<polygon fill="none" stroke="black" stroke-width="0.5" points="755,-248.5 679,-248.5 679,-227.5 755,-227.5 755,-248.5"/>
<text text-anchor="middle" x="717" y="-235.5" font-family="Vera" font-size="10.00">Tkinter.Menu</text>
</g>
<!-- Tkinter.Widget&#45;&gt;Tkinter.Menu -->
<g id="edge16" class="edge"><title>Tkinter.Widget&#45;&gt;Tkinter.Menu</title>
<path fill="none" stroke="black" stroke-width="0.5" d="M565.878,-267.755C597.659,-261.497 641.226,-252.919 673.418,-246.581"/>
<polygon fill="black" stroke="black" points="673.916,-248.267 678.483,-245.584 673.239,-244.833 673.916,-248.267"/>
</g>
<!-- Tkinter.Button -->
<g id="node56" class="node"><title>Tkinter.Button</title>
<polygon fill="none" stroke="black" stroke-width="0.5" points="758,-210.5 676,-210.5 676,-189.5 758,-189.5 758,-210.5"/>
<text text-anchor="middle" x="717" y="-197.5" font-family="Vera" font-size="10.00">Tkinter.Button</text>
</g>
<!-- Tkinter.Widget&#45;&gt;Tkinter.Button -->
<g id="edge52" class="edge"><title>Tkinter.Widget&#45;&gt;Tkinter.Button</title>
<path fill="none" stroke="black" stroke-width="0.5" d="M541.899,-265.939C564.601,-253.514 605.228,-232.383 642,-219 651.029,-215.714 660.868,-212.781 670.359,-210.26"/>
<polygon fill="black" stroke="black" points="670.885,-211.931 675.284,-208.98 670.005,-208.544 670.885,-211.931"/>
</g>
<!-- paramtk.Scrodget -->
<g id="node76" class="node"><title>paramtk.Scrodget</title>
<polygon fill="none" stroke="black" stroke-width="0.5" points="769,-419.5 665,-419.5 665,-398.5 769,-398.5 769,-419.5"/>
<text text-anchor="middle" x="717" y="-406.5" font-family="Vera" font-size="10.00">paramtk.Scrodget</text>
</g>
<!-- Tkinter.Widget&#45;&gt;paramtk.Scrodget -->
<g id="edge74" class="edge"><title>Tkinter.Widget&#45;&gt;paramtk.Scrodget</title>
<path fill="none" stroke="black" stroke-width="0.5" d="M531.579,-286.336C548.644,-308.832 592.477,-362.42 642,-390 647.611,-393.125 653.742,-395.745 660.003,-397.94"/>
<polygon fill="black" stroke="black" points="659.514,-399.622 664.81,-399.538 660.617,-396.3 659.514,-399.622"/>
</g>
<!-- Tkinter.Wm -->
<g id="node14" class="node"><title>Tkinter.Wm</title>
<polygon fill="none" stroke="black" stroke-width="0.5" points="343,-172.5 275,-172.5 275,-151.5 343,-151.5 343,-172.5"/>
<text text-anchor="middle" x="309" y="-159.5" font-family="Vera" font-size="10.00">Tkinter.Wm</text>
</g>
<!-- Tkinter.Toplevel -->
<g id="node48" class="node"><title>Tkinter.Toplevel</title>
<polygon fill="none" stroke="black" stroke-width="0.5" points="568,-172.5 480,-172.5 480,-151.5 568,-151.5 568,-172.5"/>
<text text-anchor="middle" x="524" y="-159.5" font-family="Vera" font-size="10.00">Tkinter.Toplevel</text>
</g>
<!-- Tkinter.Wm&#45;&gt;Tkinter.Toplevel -->
<g id="edge44" class="edge"><title>Tkinter.Wm&#45;&gt;Tkinter.Toplevel</title>
<path fill="none" stroke="black" stroke-width="0.5" d="M343.543,-162C378.874,-162 434.11,-162 474.169,-162"/>
<polygon fill="black" stroke="black" points="474.47,-163.75 479.47,-162 474.47,-160.25 474.47,-163.75"/>
</g>
<!-- paramtk.CSPTranslator -->
<g id="node81" class="node"><title>paramtk.CSPTranslator</title>
<polygon fill="none" stroke="black" stroke-width="0.5" points="587,-96.5 461,-96.5 461,-75.5 587,-75.5 587,-96.5"/>
<text text-anchor="middle" x="524" y="-83.5" font-family="Vera" font-size="10.00">paramtk.CSPTranslator</text>
</g>
<!-- paramtk.String_ObjectTranslator&#45;&gt;paramtk.CSPTranslator -->
<g id="edge78" class="edge"><title>paramtk.String_ObjectTranslator&#45;&gt;paramtk.CSPTranslator</title>
<path fill="none" stroke="black" stroke-width="0.5" d="M394.591,-86C414.822,-86 436.133,-86 455.493,-86"/>
<polygon fill="black" stroke="black" points="455.899,-87.7501 460.899,-86 455.899,-84.2501 455.899,-87.7501"/>
</g>
<!-- paramtk.Menu -->
<g id="node27" class="node"><title>paramtk.Menu</title>
<polygon fill="none" stroke="black" stroke-width="0.5" points="946,-248.5 860,-248.5 860,-227.5 946,-227.5 946,-248.5"/>
<text text-anchor="middle" x="903" y="-235.5" font-family="Vera" font-size="10.00">paramtk.Menu</text>
</g>
<!-- Tkinter.Menu&#45;&gt;paramtk.Menu -->
<g id="edge20" class="edge"><title>Tkinter.Menu&#45;&gt;paramtk.Menu</title>
<path fill="none" stroke="black" stroke-width="0.5" d="M755.539,-238C784.308,-238 823.811,-238 854.69,-238"/>
<polygon fill="black" stroke="black" points="854.959,-239.75 859.959,-238 854.959,-236.25 854.959,-239.75"/>
</g>
<!-- param.parameterized.Parameterized -->
<g id="node21" class="node"><title>param.parameterized.Parameterized</title>
<polygon fill="none" stroke="black" stroke-width="0.5" points="406,-523.5 212,-523.5 212,-502.5 406,-502.5 406,-523.5"/>
<text text-anchor="middle" x="309" y="-510.5" font-family="Vera" font-size="10.00">param.parameterized.Parameterized</text>
</g>
<!-- paramtk.Representer -->
<g id="node29" class="node"><title>paramtk.Representer</title>
<polygon fill="none" stroke="black" stroke-width="0.5" points="583,-542.5 465,-542.5 465,-521.5 583,-521.5 583,-542.5"/>
<text text-anchor="middle" x="524" y="-529.5" font-family="Vera" font-size="10.00">paramtk.Representer</text>
</g>
<!-- param.parameterized.Parameterized&#45;&gt;paramtk.Representer -->
<g id="edge22" class="edge"><title>param.parameterized.Parameterized&#45;&gt;paramtk.Representer</title>
<path fill="none" stroke="black" stroke-width="0.5" d="M406.121,-521.583C424.274,-523.187 442.826,-524.826 459.679,-526.316"/>
<polygon fill="black" stroke="black" points="459.718,-528.076 464.853,-526.773 460.026,-524.59 459.718,-528.076"/>
</g>
<!-- paramtk.TkParameterizedBase -->
<g id="node44" class="node"><title>paramtk.TkParameterizedBase</title>
<polygon fill="none" stroke="black" stroke-width="0.5" points="606,-504.5 442,-504.5 442,-483.5 606,-483.5 606,-504.5"/>
<text text-anchor="middle" x="524" y="-491.5" font-family="Vera" font-size="10.00">paramtk.TkParameterizedBase</text>
</g>
<!-- param.parameterized.Parameterized&#45;&gt;paramtk.TkParameterizedBase -->
<g id="edge48" class="edge"><title>param.parameterized.Parameterized&#45;&gt;paramtk.TkParameterizedBase</title>
<path fill="none" stroke="black" stroke-width="0.5" d="M406.121,-504.417C416.261,-503.521 426.525,-502.614 436.548,-501.728"/>
<polygon fill="black" stroke="black" points="436.939,-503.451 441.766,-501.267 436.631,-499.964 436.939,-503.451"/>
</g>
<!-- Tkinter.Pack -->
<g id="node22" class="node"><title>Tkinter.Pack</title>
<polygon fill="none" stroke="black" stroke-width="0.5" points="345,-324.5 273,-324.5 273,-303.5 345,-303.5 345,-324.5"/>
<text text-anchor="middle" x="309" y="-311.5" font-family="Vera" font-size="10.00">Tkinter.Pack</text>
</g>
<!-- Tkinter.Pack&#45;&gt;Tkinter.Widget -->
<g id="edge32" class="edge"><title>Tkinter.Pack&#45;&gt;Tkinter.Widget</title>
<path fill="none" stroke="black" stroke-width="0.5" d="M345.96,-307.468C382.269,-301.05 437.801,-291.235 477.179,-284.275"/>
<polygon fill="black" stroke="black" points="477.764,-285.949 482.383,-283.356 477.154,-282.503 477.764,-285.949"/>
</g>
<!-- param.Callable -->
<g id="node23" class="node"><title>param.Callable</title>
<polygon fill="none" stroke="black" stroke-width="0.5" points="353,-580.5 265,-580.5 265,-559.5 353,-559.5 353,-580.5"/>
<text text-anchor="middle" x="309" y="-567.5" font-family="Vera" font-size="10.00">param.Callable</text>
</g>
<!-- paramtk.Button -->
<g id="node65" class="node"><title>paramtk.Button</title>
<polygon fill="none" stroke="black" stroke-width="0.5" points="570,-580.5 478,-580.5 478,-559.5 570,-559.5 570,-580.5"/>
<text text-anchor="middle" x="524" y="-567.5" font-family="Vera" font-size="10.00">paramtk.Button</text>
</g>
<!-- param.Callable&#45;&gt;paramtk.Button -->
<g id="edge60" class="edge"><title>param.Callable&#45;&gt;paramtk.Button</title>
<path fill="none" stroke="black" stroke-width="0.5" d="M353.548,-570C388.132,-570 436.136,-570 472.391,-570"/>
<polygon fill="black" stroke="black" points="472.652,-571.75 477.652,-570 472.652,-568.25 472.652,-571.75"/>
</g>
<!-- param.parameterized.Parameter -->
<g id="node24" class="node"><title>param.parameterized.Parameter</title>
<polygon fill="none" stroke="black" stroke-width="0.5" points="175,-580.5 1,-580.5 1,-559.5 175,-559.5 175,-580.5"/>
<text text-anchor="middle" x="88" y="-567.5" font-family="Vera" font-size="10.00">param.parameterized.Parameter</text>
</g>
<!-- param.parameterized.Parameter&#45;&gt;param.Callable -->
<g id="edge18" class="edge"><title>param.parameterized.Parameter&#45;&gt;param.Callable</title>
<path fill="none" stroke="black" stroke-width="0.5" d="M175.662,-570C204.015,-570 234.464,-570 259.097,-570"/>
<polygon fill="black" stroke="black" points="259.263,-571.75 264.263,-570 259.263,-568.25 259.263,-571.75"/>
</g>
<!-- Tkinter.Place -->
<g id="node26" class="node"><title>Tkinter.Place</title>
<polygon fill="none" stroke="black" stroke-width="0.5" points="347,-286.5 271,-286.5 271,-265.5 347,-265.5 347,-286.5"/>
<text text-anchor="middle" x="309" y="-273.5" font-family="Vera" font-size="10.00">Tkinter.Place</text>
</g>
<!-- Tkinter.Place&#45;&gt;Tkinter.Widget -->
<g id="edge34" class="edge"><title>Tkinter.Place&#45;&gt;Tkinter.Widget</title>
<path fill="none" stroke="black" stroke-width="0.5" d="M347.935,-276C384.299,-276 438.629,-276 477.308,-276"/>
<polygon fill="black" stroke="black" points="477.42,-277.75 482.42,-276 477.42,-274.25 477.42,-277.75"/>
</g>
<!-- paramtk.ListRepresenter -->
<g id="node61" class="node"><title>paramtk.ListRepresenter</title>
<polygon fill="none" stroke="black" stroke-width="0.5" points="784,-542.5 650,-542.5 650,-521.5 784,-521.5 784,-542.5"/>
<text text-anchor="middle" x="717" y="-529.5" font-family="Vera" font-size="10.00">paramtk.ListRepresenter</text>
</g>
<!-- paramtk.Representer&#45;&gt;paramtk.ListRepresenter -->
<g id="edge56" class="edge"><title>paramtk.Representer&#45;&gt;paramtk.ListRepresenter</title>
<path fill="none" stroke="black" stroke-width="0.5" d="M583.218,-532C602.627,-532 624.413,-532 644.678,-532"/>
<polygon fill="black" stroke="black" points="644.795,-533.75 649.795,-532 644.795,-530.25 644.795,-533.75"/>
</g>
<!-- Tkinter.Grid -->
<g id="node31" class="node"><title>Tkinter.Grid</title>
<polygon fill="none" stroke="black" stroke-width="0.5" points="344,-248.5 274,-248.5 274,-227.5 344,-227.5 344,-248.5"/>
<text text-anchor="middle" x="309" y="-235.5" font-family="Vera" font-size="10.00">Tkinter.Grid</text>
</g>
<!-- Tkinter.Grid&#45;&gt;Tkinter.Widget -->
<g id="edge36" class="edge"><title>Tkinter.Grid&#45;&gt;Tkinter.Widget</title>
<path fill="none" stroke="black" stroke-width="0.5" d="M344.503,-244.275C380.687,-250.67 437.012,-260.625 476.905,-267.676"/>
<polygon fill="black" stroke="black" points="476.947,-269.461 482.175,-268.608 477.556,-266.014 476.947,-269.461"/>
</g>
<!-- Tkinter.BaseWidget -->
<g id="node32" class="node"><title>Tkinter.BaseWidget</title>
<polygon fill="none" stroke="black" stroke-width="0.5" points="362,-210.5 256,-210.5 256,-189.5 362,-189.5 362,-210.5"/>
<text text-anchor="middle" x="309" y="-197.5" font-family="Vera" font-size="10.00">Tkinter.BaseWidget</text>
</g>
<!-- Tkinter.BaseWidget&#45;&gt;Tkinter.Widget -->
<g id="edge30" class="edge"><title>Tkinter.BaseWidget&#45;&gt;Tkinter.Widget</title>
<path fill="none" stroke="black" stroke-width="0.5" d="M362.75,-207.983C377,-210.787 392.243,-214.415 406,-219 441.006,-230.667 479.019,-250.43 502.178,-263.347"/>
<polygon fill="black" stroke="black" points="501.39,-264.912 506.607,-265.835 503.105,-261.86 501.39,-264.912"/>
</g>
<!-- Tkinter.BaseWidget&#45;&gt;Tkinter.Toplevel -->
<g id="edge42" class="edge"><title>Tkinter.BaseWidget&#45;&gt;Tkinter.Toplevel</title>
<path fill="none" stroke="black" stroke-width="0.5" d="M362.699,-190.509C396.819,-184.479 440.681,-176.726 474.052,-170.828"/>
<polygon fill="black" stroke="black" points="474.695,-172.492 479.314,-169.898 474.086,-169.045 474.695,-172.492"/>
</g>
<!-- Tkinter.Misc -->
<g id="node33" class="node"><title>Tkinter.Misc</title>
<polygon fill="none" stroke="black" stroke-width="0.5" points="124,-210.5 52,-210.5 52,-189.5 124,-189.5 124,-210.5"/>
<text text-anchor="middle" x="88" y="-197.5" font-family="Vera" font-size="10.00">Tkinter.Misc</text>
</g>
<!-- Tkinter.Misc&#45;&gt;Tkinter.BaseWidget -->
<g id="edge24" class="edge"><title>Tkinter.Misc&#45;&gt;Tkinter.BaseWidget</title>
<path fill="none" stroke="black" stroke-width="0.5" d="M124.494,-200C158.637,-200 210.226,-200 250.18,-200"/>
<polygon fill="black" stroke="black" points="250.489,-201.75 255.489,-200 250.489,-198.25 250.489,-201.75"/>
</g>
<!-- paramtk.ProgressController -->
<g id="node36" class="node"><title>paramtk.ProgressController</title>
<polygon fill="none" stroke="black" stroke-width="0.5" points="791,-580.5 643,-580.5 643,-559.5 791,-559.5 791,-580.5"/>
<text text-anchor="middle" x="717" y="-567.5" font-family="Vera" font-size="10.00">paramtk.ProgressController</text>
</g>
<!-- paramtk.ProgressController&#45;&gt;paramtk.ProgressWindow -->
<g id="edge26" class="edge"><title>paramtk.ProgressController&#45;&gt;paramtk.ProgressWindow</title>
<path fill="none" stroke="black" stroke-width="0.5" d="M791.582,-562.381C803.962,-561.117 816.797,-559.806 829.159,-558.543"/>
<polygon fill="black" stroke="black" points="829.629,-560.254 834.426,-558.005 829.274,-556.772 829.629,-560.254"/>
</g>
<!-- paramtk.TkParameterized -->
<g id="node43" class="node"><title>paramtk.TkParameterized</title>
<polygon fill="none" stroke="black" stroke-width="0.5" points="787,-504.5 647,-504.5 647,-483.5 787,-483.5 787,-504.5"/>
<text text-anchor="middle" x="717" y="-491.5" font-family="Vera" font-size="10.00">paramtk.TkParameterized</text>
</g>
<!-- paramtk.TkParameterized&#45;&gt;paramtk.ParametersFrame -->
<g id="edge62" class="edge"><title>paramtk.TkParameterized&#45;&gt;paramtk.ParametersFrame</title>
<path fill="none" stroke="black" stroke-width="0.5" d="M787.054,-497.766C799.308,-498.425 812.13,-499.114 824.593,-499.785"/>
<polygon fill="black" stroke="black" points="824.822,-501.549 829.909,-500.07 825.01,-498.054 824.822,-501.549"/>
</g>
<!-- paramtk.TkParameterizedBase&#45;&gt;paramtk.TkParameterized -->
<g id="edge38" class="edge"><title>paramtk.TkParameterizedBase&#45;&gt;paramtk.TkParameterized</title>
<path fill="none" stroke="black" stroke-width="0.5" d="M606.129,-494C617.873,-494 629.908,-494 641.516,-494"/>
<polygon fill="black" stroke="black" points="641.817,-495.75 646.817,-494 641.817,-492.25 641.817,-495.75"/>
</g>
<!-- paramtk.ScrolledWindow -->
<g id="node63" class="node"><title>paramtk.ScrolledWindow</title>
<polygon fill="none" stroke="black" stroke-width="0.5" points="784,-172.5 650,-172.5 650,-151.5 784,-151.5 784,-172.5"/>
<text text-anchor="middle" x="717" y="-159.5" font-family="Vera" font-size="10.00">paramtk.ScrolledWindow</text>
</g>
<!-- Tkinter.Toplevel&#45;&gt;paramtk.ScrolledWindow -->
<g id="edge58" class="edge"><title>Tkinter.Toplevel&#45;&gt;paramtk.ScrolledWindow</title>
<path fill="none" stroke="black" stroke-width="0.5" d="M568.763,-162C591.313,-162 619.213,-162 644.705,-162"/>
<polygon fill="black" stroke="black" points="644.769,-163.75 649.769,-162 644.769,-160.25 644.769,-163.75"/>
</g>
<!-- paramtk.ToolTip -->
<g id="node79" class="node"><title>paramtk.ToolTip</title>
<polygon fill="none" stroke="black" stroke-width="0.5" points="763,-134.5 671,-134.5 671,-113.5 763,-113.5 763,-134.5"/>
<text text-anchor="middle" x="717" y="-121.5" font-family="Vera" font-size="10.00">paramtk.ToolTip</text>
</g>
<!-- Tkinter.Toplevel&#45;&gt;paramtk.ToolTip -->
<g id="edge76" class="edge"><title>Tkinter.Toplevel&#45;&gt;paramtk.ToolTip</title>
<path fill="none" stroke="black" stroke-width="0.5" d="M568.763,-153.187C597.711,-147.487 635.478,-140.051 665.646,-134.111"/>
<polygon fill="black" stroke="black" points="666.235,-135.779 670.802,-133.096 665.558,-132.345 666.235,-135.779"/>
</g>
<!-- paramtk.BoolTranslator -->
<g id="node71" class="node"><title>paramtk.BoolTranslator</title>
<polygon fill="none" stroke="black" stroke-width="0.5" points="588,-20.5 460,-20.5 460,0.5 588,0.5 588,-20.5"/>
<text text-anchor="middle" x="524" y="-7.5" font-family="Vera" font-size="10.00">paramtk.BoolTranslator</text>
</g>
<!-- paramtk.DoNothingTranslator&#45;&gt;paramtk.BoolTranslator -->
<g id="edge68" class="edge"><title>paramtk.DoNothingTranslator&#45;&gt;paramtk.BoolTranslator</title>
<path fill="none" stroke="black" stroke-width="0.5" d="M388.142,-10C409.979,-10 433.497,-10 454.728,-10"/>
<polygon fill="black" stroke="black" points="454.788,-11.7501 459.788,-10 454.788,-8.2501 454.788,-11.7501"/>
</g>
<!-- paramtk.FocusTakingButton -->
<g id="node86" class="node"><title>paramtk.FocusTakingButton</title>
<polygon fill="none" stroke="black" stroke-width="0.5" points="977,-210.5 829,-210.5 829,-189.5 977,-189.5 977,-210.5"/>
<text text-anchor="middle" x="903" y="-197.5" font-family="Vera" font-size="10.00">paramtk.FocusTakingButton</text>
</g>
<!-- Tkinter.Button&#45;&gt;paramtk.FocusTakingButton -->
<g id="edge84" class="edge"><title>Tkinter.Button&#45;&gt;paramtk.FocusTakingButton</title>
<path fill="none" stroke="black" stroke-width="0.5" d="M758.742,-200C777.861,-200 801.182,-200 823.453,-200"/>
<polygon fill="black" stroke="black" points="823.485,-201.75 828.485,-200 823.485,-198.25 823.485,-201.75"/>
</g>
<!-- paramtk.ScrodgetWidget -->
<g id="node58" class="node"><title>paramtk.ScrodgetWidget</title>
<polygon fill="none" stroke="black" stroke-width="0.5" points="592,-419.5 456,-419.5 456,-398.5 592,-398.5 592,-419.5"/>
<text text-anchor="middle" x="524" y="-406.5" font-family="Vera" font-size="10.00">paramtk.ScrodgetWidget</text>
</g>
<!-- paramtk.ScrodgetWidget&#45;&gt;paramtk.Scrodget -->
<g id="edge72" class="edge"><title>paramtk.ScrodgetWidget&#45;&gt;paramtk.Scrodget</title>
<path fill="none" stroke="black" stroke-width="0.5" d="M592.045,-409C614.148,-409 638.44,-409 659.681,-409"/>
<polygon fill="black" stroke="black" points="659.728,-410.75 664.728,-409 659.728,-407.25 659.728,-410.75"/>
</g>
<!-- paramtk.AppWindow -->
<g id="node84" class="node"><title>paramtk.AppWindow</title>
<polygon fill="none" stroke="black" stroke-width="0.5" points="960,-172.5 846,-172.5 846,-151.5 960,-151.5 960,-172.5"/>
<text text-anchor="middle" x="903" y="-159.5" font-family="Vera" font-size="10.00">paramtk.AppWindow</text>
</g>
<!-- paramtk.ScrolledWindow&#45;&gt;paramtk.AppWindow -->
<g id="edge82" class="edge"><title>paramtk.ScrolledWindow&#45;&gt;paramtk.AppWindow</title>
<path fill="none" stroke="black" stroke-width="0.5" d="M784.15,-162C802.603,-162 822.53,-162 840.697,-162"/>
<polygon fill="black" stroke="black" points="840.771,-163.75 845.771,-162 840.771,-160.25 840.771,-163.75"/>
</g>
<!-- paramtk.ParametersFrameWithApply -->
<g id="node74" class="node"><title>paramtk.ParametersFrameWithApply</title>
<polygon fill="none" stroke="black" stroke-width="0.5" points="1206,-514.5 1014,-514.5 1014,-493.5 1206,-493.5 1206,-514.5"/>
<text text-anchor="middle" x="1110" y="-501.5" font-family="Vera" font-size="10.00">paramtk.ParametersFrameWithApply</text>
</g>
<!-- paramtk.ParametersFrame&#45;&gt;paramtk.ParametersFrameWithApply -->
<g id="edge80" class="edge"><title>paramtk.ParametersFrame&#45;&gt;paramtk.ParametersFrameWithApply</title>
<path fill="none" stroke="black" stroke-width="0.5" d="M976.272,-504C986.862,-504 997.915,-504 1008.93,-504"/>
<polygon fill="black" stroke="black" points="1008.99,-505.75 1013.99,-504 1008.99,-502.25 1008.99,-505.75"/>
</g>
<!-- paramtk.EditingParametersFrameWithApply -->
<g id="node73" class="node"><title>paramtk.EditingParametersFrameWithApply</title>
<polygon fill="none" stroke="black" stroke-width="0.5" points="1466,-514.5 1242,-514.5 1242,-493.5 1466,-493.5 1466,-514.5"/>
<text text-anchor="middle" x="1354" y="-501.5" font-family="Vera" font-size="10.00">paramtk.EditingParametersFrameWithApply</text>
</g>
<!-- paramtk.ParametersFrameWithApply&#45;&gt;paramtk.EditingParametersFrameWithApply -->
<g id="edge70" class="edge"><title>paramtk.ParametersFrameWithApply&#45;&gt;paramtk.EditingParametersFrameWithApply</title>
<path fill="none" stroke="black" stroke-width="0.5" d="M1206.09,-504C1216.17,-504 1226.5,-504 1236.79,-504"/>
<polygon fill="black" stroke="black" points="1236.84,-505.75 1241.84,-504 1236.84,-502.25 1236.84,-505.75"/>
</g>
</g>
</svg>
