<?xml version="1.0" encoding="UTF-8" standalone="no"?>
<!DOCTYPE svg PUBLIC "-//W3C//DTD SVG 1.1//EN"
 "http://www.w3.org/Graphics/SVG/1.1/DTD/svg11.dtd">
<!-- Generated by graphviz version 2.26.3 (20100126.1600)
 -->
<!-- Title: inheritance0509d66467 Pages: 1 -->
<svg width="1108pt" height="351pt"
 viewBox="0.00 0.00 1108.00 351.00" xmlns="http://www.w3.org/2000/svg" xmlns:xlink="http://www.w3.org/1999/xlink">
<g id="graph1" class="graph" transform="scale(1 1) rotate(0) translate(4 347)">
<title>inheritance0509d66467</title>
<polygon fill="white" stroke="white" points="-4,5 -4,-347 1105,-347 1105,5 -4,5"/>
<!-- topo.transferfn.Sigmoid -->
<g id="node1" class="node"><title>topo.transferfn.Sigmoid</title>
<polygon fill="none" stroke="black" stroke-width="0.5" points="582,-324.5 452,-324.5 452,-303.5 582,-303.5 582,-324.5"/>
<text text-anchor="middle" x="517" y="-311.5" font-family="Vera" font-size="10.00">topo.transferfn.Sigmoid</text>
</g>
<!-- imagen.transferfn.TransferFn -->
<g id="node2" class="node"><title>imagen.transferfn.TransferFn</title>
<polygon fill="none" stroke="black" stroke-width="0.5" points="384,-172.5 230,-172.5 230,-151.5 384,-151.5 384,-172.5"/>
<text text-anchor="middle" x="307" y="-159.5" font-family="Vera" font-size="10.00">imagen.transferfn.TransferFn</text>
</g>
<!-- imagen.transferfn.TransferFn&#45;&gt;topo.transferfn.Sigmoid -->
<g id="edge2" class="edge"><title>imagen.transferfn.TransferFn&#45;&gt;topo.transferfn.Sigmoid</title>
<path fill="none" stroke="black" stroke-width="0.5" d="M312.492,-172.366C326.578,-197.85 366.669,-263.754 420,-295 428.259,-299.839 437.523,-303.471 446.963,-306.192"/>
<polygon fill="black" stroke="black" points="446.628,-307.914 451.911,-307.534 447.544,-304.536 446.628,-307.914"/>
</g>
<!-- topo.transferfn.TransferFnWithState -->
<g id="node5" class="node"><title>topo.transferfn.TransferFnWithState</title>
<polygon fill="none" stroke="black" stroke-width="0.5" points="610,-286.5 424,-286.5 424,-265.5 610,-265.5 610,-286.5"/>
<text text-anchor="middle" x="517" y="-273.5" font-family="Vera" font-size="10.00">topo.transferfn.TransferFnWithState</text>
</g>
<!-- imagen.transferfn.TransferFn&#45;&gt;topo.transferfn.TransferFnWithState -->
<g id="edge8" class="edge"><title>imagen.transferfn.TransferFn&#45;&gt;topo.transferfn.TransferFnWithState</title>
<path fill="none" stroke="black" stroke-width="0.5" d="M315.781,-172.242C333.381,-192.049 375.147,-235.541 420,-257 426.044,-259.892 432.502,-262.344 439.105,-264.422"/>
<polygon fill="black" stroke="black" points="438.887,-266.183 444.179,-265.94 439.89,-262.83 438.887,-266.183"/>
</g>
<!-- topo.transferfn.GeneralizedLogistic -->
<g id="node10" class="node"><title>topo.transferfn.GeneralizedLogistic</title>
<polygon fill="none" stroke="black" stroke-width="0.5" points="609,-248.5 425,-248.5 425,-227.5 609,-227.5 609,-248.5"/>
<text text-anchor="middle" x="517" y="-235.5" font-family="Vera" font-size="10.00">topo.transferfn.GeneralizedLogistic</text>
</g>
<!-- imagen.transferfn.TransferFn&#45;&gt;topo.transferfn.GeneralizedLogistic -->
<g id="edge10" class="edge"><title>imagen.transferfn.TransferFn&#45;&gt;topo.transferfn.GeneralizedLogistic</title>
<path fill="none" stroke="black" stroke-width="0.5" d="M323.593,-172.202C345.079,-184.975 384.042,-206.671 420,-219 428.847,-222.033 438.323,-224.636 447.76,-226.854"/>
<polygon fill="black" stroke="black" points="447.423,-228.573 452.688,-227.98 448.203,-225.16 447.423,-228.573"/>
</g>
<!-- topo.transferfn.Square -->
<g id="node12" class="node"><title>topo.transferfn.Square</title>
<polygon fill="none" stroke="black" stroke-width="0.5" points="579,-210.5 455,-210.5 455,-189.5 579,-189.5 579,-210.5"/>
<text text-anchor="middle" x="517" y="-197.5" font-family="Vera" font-size="10.00">topo.transferfn.Square</text>
</g>
<!-- imagen.transferfn.TransferFn&#45;&gt;topo.transferfn.Square -->
<g id="edge12" class="edge"><title>imagen.transferfn.TransferFn&#45;&gt;topo.transferfn.Square</title>
<path fill="none" stroke="black" stroke-width="0.5" d="M362.45,-172.034C391.397,-177.272 426.865,-183.69 456.518,-189.056"/>
<polygon fill="black" stroke="black" points="456.372,-190.808 461.604,-189.976 456.995,-187.364 456.372,-190.808"/>
</g>
<!-- topo.transferfn.NakaRushton -->
<g id="node18" class="node"><title>topo.transferfn.NakaRushton</title>
<polygon fill="none" stroke="black" stroke-width="0.5" points="594,-172.5 440,-172.5 440,-151.5 594,-151.5 594,-172.5"/>
<text text-anchor="middle" x="517" y="-159.5" font-family="Vera" font-size="10.00">topo.transferfn.NakaRushton</text>
</g>
<!-- imagen.transferfn.TransferFn&#45;&gt;topo.transferfn.NakaRushton -->
<g id="edge18" class="edge"><title>imagen.transferfn.TransferFn&#45;&gt;topo.transferfn.NakaRushton</title>
<path fill="none" stroke="black" stroke-width="0.5" d="M384.004,-162C400.447,-162 417.878,-162 434.518,-162"/>
<polygon fill="black" stroke="black" points="434.654,-163.75 439.654,-162 434.654,-160.25 434.654,-163.75"/>
</g>
<!-- topo.transferfn.HalfRectifyAndSquare -->
<g id="node20" class="node"><title>topo.transferfn.HalfRectifyAndSquare</title>
<polygon fill="none" stroke="black" stroke-width="0.5" points="614,-134.5 420,-134.5 420,-113.5 614,-113.5 614,-134.5"/>
<text text-anchor="middle" x="517" y="-121.5" font-family="Vera" font-size="10.00">topo.transferfn.HalfRectifyAndSquare</text>
</g>
<!-- imagen.transferfn.TransferFn&#45;&gt;topo.transferfn.HalfRectifyAndSquare -->
<g id="edge20" class="edge"><title>imagen.transferfn.TransferFn&#45;&gt;topo.transferfn.HalfRectifyAndSquare</title>
<path fill="none" stroke="black" stroke-width="0.5" d="M362.45,-151.966C391.397,-146.728 426.865,-140.31 456.518,-134.944"/>
<polygon fill="black" stroke="black" points="456.995,-136.636 461.604,-134.024 456.372,-133.192 456.995,-136.636"/>
</g>
<!-- topo.transferfn.HalfRectifyAndPower -->
<g id="node27" class="node"><title>topo.transferfn.HalfRectifyAndPower</title>
<polygon fill="none" stroke="black" stroke-width="0.5" points="611,-96.5 423,-96.5 423,-75.5 611,-75.5 611,-96.5"/>
<text text-anchor="middle" x="517" y="-83.5" font-family="Vera" font-size="10.00">topo.transferfn.HalfRectifyAndPower</text>
</g>
<!-- imagen.transferfn.TransferFn&#45;&gt;topo.transferfn.HalfRectifyAndPower -->
<g id="edge26" class="edge"><title>imagen.transferfn.TransferFn&#45;&gt;topo.transferfn.HalfRectifyAndPower</title>
<path fill="none" stroke="black" stroke-width="0.5" d="M323.593,-151.798C345.079,-139.025 384.042,-117.329 420,-105 428.847,-101.967 438.323,-99.3639 447.76,-97.1456"/>
<polygon fill="black" stroke="black" points="448.203,-98.8396 452.688,-96.0204 447.423,-95.4274 448.203,-98.8396"/>
</g>
<!-- topo.transferfn.PiecewiseLinear -->
<g id="node30" class="node"><title>topo.transferfn.PiecewiseLinear</title>
<polygon fill="none" stroke="black" stroke-width="0.5" points="600,-58.5 434,-58.5 434,-37.5 600,-37.5 600,-58.5"/>
<text text-anchor="middle" x="517" y="-45.5" font-family="Vera" font-size="10.00">topo.transferfn.PiecewiseLinear</text>
</g>
<!-- imagen.transferfn.TransferFn&#45;&gt;topo.transferfn.PiecewiseLinear -->
<g id="edge30" class="edge"><title>imagen.transferfn.TransferFn&#45;&gt;topo.transferfn.PiecewiseLinear</title>
<path fill="none" stroke="black" stroke-width="0.5" d="M315.781,-151.758C333.381,-131.951 375.147,-88.4593 420,-67 426.044,-64.1081 432.502,-61.6564 439.105,-59.5778"/>
<polygon fill="black" stroke="black" points="439.89,-61.1697 444.179,-58.06 438.887,-57.8165 439.89,-61.1697"/>
</g>
<!-- topo.transferfn.ExpLinear -->
<g id="node32" class="node"><title>topo.transferfn.ExpLinear</title>
<polygon fill="none" stroke="black" stroke-width="0.5" points="585,-20.5 449,-20.5 449,0.5 585,0.5 585,-20.5"/>
<text text-anchor="middle" x="517" y="-7.5" font-family="Vera" font-size="10.00">topo.transferfn.ExpLinear</text>
</g>
<!-- imagen.transferfn.TransferFn&#45;&gt;topo.transferfn.ExpLinear -->
<g id="edge32" class="edge"><title>imagen.transferfn.TransferFn&#45;&gt;topo.transferfn.ExpLinear</title>
<path fill="none" stroke="black" stroke-width="0.5" d="M312.492,-151.634C326.578,-126.15 366.669,-60.2456 420,-29 427.173,-24.7975 435.105,-21.5051 443.251,-18.929"/>
<polygon fill="black" stroke="black" points="444.052,-20.5168 448.347,-17.4157 443.055,-17.1617 444.052,-20.5168"/>
</g>
<!-- topo.transferfn.ScalingTF -->
<g id="node4" class="node"><title>topo.transferfn.ScalingTF</title>
<polygon fill="none" stroke="black" stroke-width="0.5" points="831,-343.5 695,-343.5 695,-322.5 831,-322.5 831,-343.5"/>
<text text-anchor="middle" x="763" y="-330.5" font-family="Vera" font-size="10.00">topo.transferfn.ScalingTF</text>
</g>
<!-- topo.transferfn.TransferFnWithState&#45;&gt;topo.transferfn.ScalingTF -->
<g id="edge4" class="edge"><title>topo.transferfn.TransferFnWithState&#45;&gt;topo.transferfn.ScalingTF</title>
<path fill="none" stroke="black" stroke-width="0.5" d="M582.145,-286.033C592.93,-288.468 603.887,-291.428 614,-295 631.059,-301.025 632.862,-308.204 650,-314 662.672,-318.285 676.483,-321.63 689.961,-324.233"/>
<polygon fill="black" stroke="black" points="689.672,-325.959 694.908,-325.159 690.315,-322.519 689.672,-325.959"/>
</g>
<!-- topo.transferfn.Hysteresis -->
<g id="node14" class="node"><title>topo.transferfn.Hysteresis</title>
<polygon fill="none" stroke="black" stroke-width="0.5" points="833,-305.5 693,-305.5 693,-284.5 833,-284.5 833,-305.5"/>
<text text-anchor="middle" x="763" y="-292.5" font-family="Vera" font-size="10.00">topo.transferfn.Hysteresis</text>
</g>
<!-- topo.transferfn.TransferFnWithState&#45;&gt;topo.transferfn.Hysteresis -->
<g id="edge14" class="edge"><title>topo.transferfn.TransferFnWithState&#45;&gt;topo.transferfn.Hysteresis</title>
<path fill="none" stroke="black" stroke-width="0.5" d="M610.002,-283.183C635.534,-285.155 662.903,-287.269 687.332,-289.156"/>
<polygon fill="black" stroke="black" points="687.379,-290.914 692.499,-289.555 687.648,-287.425 687.379,-290.914"/>
</g>
<!-- topo.transferfn.ActivityAveragingTF -->
<g id="node16" class="node"><title>topo.transferfn.ActivityAveragingTF</title>
<polygon fill="none" stroke="black" stroke-width="0.5" points="854,-267.5 672,-267.5 672,-246.5 854,-246.5 854,-267.5"/>
<text text-anchor="middle" x="763" y="-254.5" font-family="Vera" font-size="10.00">topo.transferfn.ActivityAveragingTF</text>
</g>
<!-- topo.transferfn.TransferFnWithState&#45;&gt;topo.transferfn.ActivityAveragingTF -->
<g id="edge16" class="edge"><title>topo.transferfn.TransferFnWithState&#45;&gt;topo.transferfn.ActivityAveragingTF</title>
<path fill="none" stroke="black" stroke-width="0.5" d="M610.002,-268.817C628.408,-267.395 647.769,-265.9 666.295,-264.469"/>
<polygon fill="black" stroke="black" points="666.647,-266.197 671.497,-264.067 666.377,-262.708 666.647,-266.197"/>
</g>
<!-- topo.transferfn.TransferFnWithRandomState -->
<g id="node23" class="node"><title>topo.transferfn.TransferFnWithRandomState</title>
<polygon fill="none" stroke="black" stroke-width="0.5" points="876,-229.5 650,-229.5 650,-208.5 876,-208.5 876,-229.5"/>
<text text-anchor="middle" x="763" y="-216.5" font-family="Vera" font-size="10.00">topo.transferfn.TransferFnWithRandomState</text>
</g>
<!-- topo.transferfn.TransferFnWithState&#45;&gt;topo.transferfn.TransferFnWithRandomState -->
<g id="edge28" class="edge"><title>topo.transferfn.TransferFnWithState&#45;&gt;topo.transferfn.TransferFnWithRandomState</title>
<path fill="none" stroke="black" stroke-width="0.5" d="M582.145,-265.967C592.93,-263.532 603.887,-260.572 614,-257 631.059,-250.975 632.862,-243.796 650,-238 659.147,-234.907 668.888,-232.303 678.669,-230.115"/>
<polygon fill="black" stroke="black" points="679.267,-231.776 683.784,-229.009 678.527,-228.356 679.267,-231.776"/>
</g>
<!-- param.parameterized.Parameterized -->
<g id="node7" class="node"><title>param.parameterized.Parameterized</title>
<polygon fill="none" stroke="black" stroke-width="0.5" points="194,-172.5 5.68434e-14,-172.5 0,-151.5 194,-151.5 194,-172.5"/>
<text text-anchor="middle" x="97" y="-159.5" font-family="Vera" font-size="10.00">param.parameterized.Parameterized</text>
</g>
<!-- param.parameterized.Parameterized&#45;&gt;imagen.transferfn.TransferFn -->
<g id="edge6" class="edge"><title>param.parameterized.Parameterized&#45;&gt;imagen.transferfn.TransferFn</title>
<path fill="none" stroke="black" stroke-width="0.5" d="M194.009,-162C204.259,-162 214.611,-162 224.671,-162"/>
<polygon fill="black" stroke="black" points="224.903,-163.75 229.903,-162 224.903,-160.25 224.903,-163.75"/>
</g>
<!-- topo.transferfn.HomeostaticMaxEnt -->
<g id="node22" class="node"><title>topo.transferfn.HomeostaticMaxEnt</title>
<polygon fill="none" stroke="black" stroke-width="0.5" points="1100,-248.5 912,-248.5 912,-227.5 1100,-227.5 1100,-248.5"/>
<text text-anchor="middle" x="1006" y="-235.5" font-family="Vera" font-size="10.00">topo.transferfn.HomeostaticMaxEnt</text>
</g>
<!-- topo.transferfn.TransferFnWithRandomState&#45;&gt;topo.transferfn.HomeostaticMaxEnt -->
<g id="edge22" class="edge"><title>topo.transferfn.TransferFnWithRandomState&#45;&gt;topo.transferfn.HomeostaticMaxEnt</title>
<path fill="none" stroke="black" stroke-width="0.5" d="M876.318,-227.86C886.434,-228.651 896.625,-229.448 906.61,-230.229"/>
<polygon fill="black" stroke="black" points="906.69,-231.99 911.811,-230.635 906.962,-228.501 906.69,-231.99"/>
</g>
<!-- topo.transferfn.PoissonSample -->
<g id="node25" class="node"><title>topo.transferfn.PoissonSample</title>
<polygon fill="none" stroke="black" stroke-width="0.5" points="1088,-210.5 924,-210.5 924,-189.5 1088,-189.5 1088,-210.5"/>
<text text-anchor="middle" x="1006" y="-197.5" font-family="Vera" font-size="10.00">topo.transferfn.PoissonSample</text>
</g>
<!-- topo.transferfn.TransferFnWithRandomState&#45;&gt;topo.transferfn.PoissonSample -->
<g id="edge24" class="edge"><title>topo.transferfn.TransferFnWithRandomState&#45;&gt;topo.transferfn.PoissonSample</title>
<path fill="none" stroke="black" stroke-width="0.5" d="M876.318,-210.14C890.534,-209.028 904.9,-207.905 918.632,-206.831"/>
<polygon fill="black" stroke="black" points="918.813,-208.572 923.662,-206.438 918.541,-205.083 918.813,-208.572"/>
</g>
</g>
</svg>
