<?xml version="1.0" encoding="UTF-8" standalone="no"?>
<!DOCTYPE svg PUBLIC "-//W3C//DTD SVG 1.1//EN"
 "http://www.w3.org/Graphics/SVG/1.1/DTD/svg11.dtd">
<!-- Generated by graphviz version 2.26.3 (20100126.1600)
 -->
<!-- Title: inheritancea80f92a813 Pages: 1 -->
<svg width="932pt" height="180pt"
 viewBox="0.00 0.00 932.00 180.00" xmlns="http://www.w3.org/2000/svg" xmlns:xlink="http://www.w3.org/1999/xlink">
<g id="graph1" class="graph" transform="scale(1 1) rotate(0) translate(4 176)">
<title>inheritancea80f92a813</title>
<polygon fill="white" stroke="white" points="-4,5 -4,-176 929,-176 929,5 -4,5"/>
<!-- param.parameterized.Parameterized -->
<g id="node1" class="node"><title>param.parameterized.Parameterized</title>
<polygon fill="none" stroke="black" stroke-width="0.5" points="194,-96.5 5.68434e-14,-96.5 0,-75.5 194,-75.5 194,-96.5"/>
<text text-anchor="middle" x="97" y="-83.5" font-family="Vera" font-size="10.00">param.parameterized.Parameterized</text>
</g>
<!-- topo.base.cf.CFPLearningFn -->
<g id="node3" class="node"><title>topo.base.cf.CFPLearningFn</title>
<polygon fill="none" stroke="black" stroke-width="0.5" points="379,-96.5 231,-96.5 231,-75.5 379,-75.5 379,-96.5"/>
<text text-anchor="middle" x="305" y="-83.5" font-family="Vera" font-size="10.00">topo.base.cf.CFPLearningFn</text>
</g>
<!-- param.parameterized.Parameterized&#45;&gt;topo.base.cf.CFPLearningFn -->
<g id="edge10" class="edge"><title>param.parameterized.Parameterized&#45;&gt;topo.base.cf.CFPLearningFn</title>
<path fill="none" stroke="black" stroke-width="0.5" d="M194.301,-86C204.655,-86 215.098,-86 225.218,-86"/>
<polygon fill="black" stroke="black" points="225.478,-87.7501 230.478,-86 225.477,-84.2501 225.478,-87.7501"/>
</g>
<!-- topo.learningfn.optimized.CFPLF_Hebbian_opt -->
<g id="node2" class="node"><title>topo.learningfn.optimized.CFPLF_Hebbian_opt</title>
<polygon fill="none" stroke="black" stroke-width="0.5" points="655,-172.5 419,-172.5 419,-151.5 655,-151.5 655,-172.5"/>
<text text-anchor="middle" x="537" y="-159.5" font-family="Vera" font-size="10.00">topo.learningfn.optimized.CFPLF_Hebbian_opt</text>
</g>
<!-- topo.base.cf.CFPLearningFn&#45;&gt;topo.learningfn.optimized.CFPLF_Hebbian_opt -->
<g id="edge2" class="edge"><title>topo.base.cf.CFPLearningFn&#45;&gt;topo.learningfn.optimized.CFPLF_Hebbian_opt</title>
<path fill="none" stroke="black" stroke-width="0.5" d="M320.839,-96.2027C341.762,-109.184 380.162,-131.319 416,-143 425.556,-146.115 435.708,-148.727 445.91,-150.916"/>
<polygon fill="black" stroke="black" points="445.669,-152.653 450.92,-151.957 446.381,-149.226 445.669,-152.653"/>
</g>
<!-- topo.base.cf.CFPLF_Plugin -->
<g id="node5" class="node"><title>topo.base.cf.CFPLF_Plugin</title>
<polygon fill="none" stroke="black" stroke-width="0.5" points="607,-134.5 467,-134.5 467,-113.5 607,-113.5 607,-134.5"/>
<text text-anchor="middle" x="537" y="-121.5" font-family="Vera" font-size="10.00">topo.base.cf.CFPLF_Plugin</text>
</g>
<!-- topo.base.cf.CFPLearningFn&#45;&gt;topo.base.cf.CFPLF_Plugin -->
<g id="edge4" class="edge"><title>topo.base.cf.CFPLearningFn&#45;&gt;topo.base.cf.CFPLF_Plugin</title>
<path fill="none" stroke="black" stroke-width="0.5" d="M362.586,-96.0121C379.762,-98.9566 398.636,-102.151 416,-105 432.449,-107.699 450.17,-110.527 466.842,-113.151"/>
<polygon fill="black" stroke="black" points="466.768,-114.911 471.98,-113.959 467.312,-111.454 466.768,-114.911"/>
</g>
<!-- topo.learningfn.projfn.CFPLF_PluginScaled -->
<g id="node7" class="node"><title>topo.learningfn.projfn.CFPLF_PluginScaled</title>
<polygon fill="none" stroke="black" stroke-width="0.5" points="645,-96.5 429,-96.5 429,-75.5 645,-75.5 645,-96.5"/>
<text text-anchor="middle" x="537" y="-83.5" font-family="Vera" font-size="10.00">topo.learningfn.projfn.CFPLF_PluginScaled</text>
</g>
<!-- topo.base.cf.CFPLearningFn&#45;&gt;topo.learningfn.projfn.CFPLF_PluginScaled -->
<g id="edge6" class="edge"><title>topo.base.cf.CFPLearningFn&#45;&gt;topo.learningfn.projfn.CFPLF_PluginScaled</title>
<path fill="none" stroke="black" stroke-width="0.5" d="M379.683,-86C393.726,-86 408.699,-86 423.614,-86"/>
<polygon fill="black" stroke="black" points="423.668,-87.7501 428.668,-86 423.668,-84.2501 423.668,-87.7501"/>
</g>
<!-- topo.learningfn.optimized.CFPLF_Trace_opt -->
<g id="node9" class="node"><title>topo.learningfn.optimized.CFPLF_Trace_opt</title>
<polygon fill="none" stroke="black" stroke-width="0.5" points="647,-58.5 427,-58.5 427,-37.5 647,-37.5 647,-58.5"/>
<text text-anchor="middle" x="537" y="-45.5" font-family="Vera" font-size="10.00">topo.learningfn.optimized.CFPLF_Trace_opt</text>
</g>
<!-- topo.base.cf.CFPLearningFn&#45;&gt;topo.learningfn.optimized.CFPLF_Trace_opt -->
<g id="edge8" class="edge"><title>topo.base.cf.CFPLearningFn&#45;&gt;topo.learningfn.optimized.CFPLF_Trace_opt</title>
<path fill="none" stroke="black" stroke-width="0.5" d="M362.586,-75.9879C379.762,-73.0434 398.636,-69.8492 416,-67 432.449,-64.3008 450.17,-61.4732 466.842,-58.8487"/>
<polygon fill="black" stroke="black" points="467.312,-60.5464 471.98,-58.0412 466.768,-57.0889 467.312,-60.5464"/>
</g>
<!-- topo.learningfn.optimized.CFPLF_BCMFixed_opt -->
<g id="node18" class="node"><title>topo.learningfn.optimized.CFPLF_BCMFixed_opt</title>
<polygon fill="none" stroke="black" stroke-width="0.5" points="658,-20.5 416,-20.5 416,0.5 658,0.5 658,-20.5"/>
<text text-anchor="middle" x="537" y="-7.5" font-family="Vera" font-size="10.00">topo.learningfn.optimized.CFPLF_BCMFixed_opt</text>
</g>
<!-- topo.base.cf.CFPLearningFn&#45;&gt;topo.learningfn.optimized.CFPLF_BCMFixed_opt -->
<g id="edge18" class="edge"><title>topo.base.cf.CFPLearningFn&#45;&gt;topo.learningfn.optimized.CFPLF_BCMFixed_opt</title>
<path fill="none" stroke="black" stroke-width="0.5" d="M320.839,-75.7973C341.762,-62.8157 380.162,-40.6809 416,-29 425.556,-25.8854 435.708,-23.2732 445.91,-21.0841"/>
<polygon fill="black" stroke="black" points="446.381,-22.7738 450.92,-20.0431 445.669,-19.3469 446.381,-22.7738"/>
</g>
<!-- topo.learningfn.optimized.CFPLF_Hebbian -->
<g id="node16" class="node"><title>topo.learningfn.optimized.CFPLF_Hebbian</title>
<polygon fill="none" stroke="black" stroke-width="0.5" points="916,-172.5 702,-172.5 702,-151.5 916,-151.5 916,-172.5"/>
<text text-anchor="middle" x="809" y="-159.5" font-family="Vera" font-size="10.00">topo.learningfn.optimized.CFPLF_Hebbian</text>
</g>
<!-- topo.base.cf.CFPLF_Plugin&#45;&gt;topo.learningfn.optimized.CFPLF_Hebbian -->
<g id="edge16" class="edge"><title>topo.base.cf.CFPLF_Plugin&#45;&gt;topo.learningfn.optimized.CFPLF_Hebbian</title>
<path fill="none" stroke="black" stroke-width="0.5" d="M607.047,-133.786C645.31,-139.132 692.763,-145.761 732.055,-151.25"/>
<polygon fill="black" stroke="black" points="732.102,-153.024 737.296,-151.983 732.586,-149.557 732.102,-153.024"/>
</g>
<!-- topo.learningfn.optimized.CFPLF_BCMFixed -->
<g id="node20" class="node"><title>topo.learningfn.optimized.CFPLF_BCMFixed</title>
<polygon fill="none" stroke="black" stroke-width="0.5" points="919,-134.5 699,-134.5 699,-113.5 919,-113.5 919,-134.5"/>
<text text-anchor="middle" x="809" y="-121.5" font-family="Vera" font-size="10.00">topo.learningfn.optimized.CFPLF_BCMFixed</text>
</g>
<!-- topo.base.cf.CFPLF_Plugin&#45;&gt;topo.learningfn.optimized.CFPLF_BCMFixed -->
<g id="edge20" class="edge"><title>topo.base.cf.CFPLF_Plugin&#45;&gt;topo.learningfn.optimized.CFPLF_BCMFixed</title>
<path fill="none" stroke="black" stroke-width="0.5" d="M607.047,-124C633.31,-124 663.902,-124 693.213,-124"/>
<polygon fill="black" stroke="black" points="693.286,-125.75 698.286,-124 693.286,-122.25 693.286,-125.75"/>
</g>
<!-- topo.learningfn.optimized.CFPLF_Scaled -->
<g id="node12" class="node"><title>topo.learningfn.optimized.CFPLF_Scaled</title>
<polygon fill="none" stroke="black" stroke-width="0.5" points="913,-96.5 705,-96.5 705,-75.5 913,-75.5 913,-96.5"/>
<text text-anchor="middle" x="809" y="-83.5" font-family="Vera" font-size="10.00">topo.learningfn.optimized.CFPLF_Scaled</text>
</g>
<!-- topo.learningfn.projfn.CFPLF_PluginScaled&#45;&gt;topo.learningfn.optimized.CFPLF_Scaled -->
<g id="edge12" class="edge"><title>topo.learningfn.projfn.CFPLF_PluginScaled&#45;&gt;topo.learningfn.optimized.CFPLF_Scaled</title>
<path fill="none" stroke="black" stroke-width="0.5" d="M645.283,-86C663.158,-86 681.7,-86 699.603,-86"/>
<polygon fill="black" stroke="black" points="699.634,-87.7501 704.634,-86 699.634,-84.2501 699.634,-87.7501"/>
</g>
<!-- topo.learningfn.optimized.CFPLF_Scaled_opt -->
<g id="node14" class="node"><title>topo.learningfn.optimized.CFPLF_Scaled_opt</title>
<polygon fill="none" stroke="black" stroke-width="0.5" points="923,-58.5 695,-58.5 695,-37.5 923,-37.5 923,-58.5"/>
<text text-anchor="middle" x="809" y="-45.5" font-family="Vera" font-size="10.00">topo.learningfn.optimized.CFPLF_Scaled_opt</text>
</g>
<!-- topo.learningfn.projfn.CFPLF_PluginScaled&#45;&gt;topo.learningfn.optimized.CFPLF_Scaled_opt -->
<g id="edge14" class="edge"><title>topo.learningfn.projfn.CFPLF_PluginScaled&#45;&gt;topo.learningfn.optimized.CFPLF_Scaled_opt</title>
<path fill="none" stroke="black" stroke-width="0.5" d="M608.821,-75.9662C646.78,-70.6631 693.394,-64.1509 732.087,-58.7453"/>
<polygon fill="black" stroke="black" points="732.539,-60.4491 737.249,-58.024 732.055,-56.9828 732.539,-60.4491"/>
</g>
</g>
</svg>
