<?xml version="1.0" encoding="UTF-8" standalone="no"?>
<!DOCTYPE svg PUBLIC "-//W3C//DTD SVG 1.1//EN"
 "http://www.w3.org/Graphics/SVG/1.1/DTD/svg11.dtd">
<!-- Generated by graphviz version 2.26.3 (20100126.1600)
 -->
<!-- Title: inheritancebede3c61fc Pages: 1 -->
<svg width="2498pt" height="503pt"
 viewBox="0.00 0.00 2498.00 503.00" xmlns="http://www.w3.org/2000/svg" xmlns:xlink="http://www.w3.org/1999/xlink">
<g id="graph1" class="graph" transform="scale(1 1) rotate(0) translate(4 499)">
<title>inheritancebede3c61fc</title>
<polygon fill="white" stroke="white" points="-4,5 -4,-499 2495,-499 2495,5 -4,5"/>
<!-- topo.command.pylabplot.plot_tracked_attributes -->
<g id="node1" class="node"><title>topo.command.pylabplot.plot_tracked_attributes</title>
<polygon fill="none" stroke="black" stroke-width="0.5" points="1489,-362.5 1239,-362.5 1239,-341.5 1489,-341.5 1489,-362.5"/>
<text text-anchor="middle" x="1364" y="-349.5" font-family="Vera" font-size="10.00">topo.command.pylabplot.plot_tracked_attributes</text>
</g>
<!-- topo.command.pylabplot.PylabPlotCommand -->
<g id="node2" class="node"><title>topo.command.pylabplot.PylabPlotCommand</title>
<polygon fill="none" stroke="black" stroke-width="0.5" points="1112,-210.5 880,-210.5 880,-189.5 1112,-189.5 1112,-210.5"/>
<text text-anchor="middle" x="996" y="-197.5" font-family="Vera" font-size="10.00">topo.command.pylabplot.PylabPlotCommand</text>
</g>
<!-- topo.command.pylabplot.PylabPlotCommand&#45;&gt;topo.command.pylabplot.plot_tracked_attributes -->
<g id="edge2" class="edge"><title>topo.command.pylabplot.PylabPlotCommand&#45;&gt;topo.command.pylabplot.plot_tracked_attributes</title>
<path fill="none" stroke="black" stroke-width="0.5" d="M1006.41,-210.284C1033.37,-236.173 1108.71,-304.036 1186,-333 1200.9,-338.584 1216.96,-342.694 1233.12,-345.697"/>
<polygon fill="black" stroke="black" points="1232.91,-347.437 1238.14,-346.594 1233.53,-343.991 1232.91,-347.437"/>
</g>
<!-- topo.command.pylabplot.plot_modulation_ratio -->
<g id="node10" class="node"><title>topo.command.pylabplot.plot_modulation_ratio</title>
<polygon fill="none" stroke="black" stroke-width="0.5" points="1486,-324.5 1242,-324.5 1242,-303.5 1486,-303.5 1486,-324.5"/>
<text text-anchor="middle" x="1364" y="-311.5" font-family="Vera" font-size="10.00">topo.command.pylabplot.plot_modulation_ratio</text>
</g>
<!-- topo.command.pylabplot.PylabPlotCommand&#45;&gt;topo.command.pylabplot.plot_modulation_ratio -->
<g id="edge8" class="edge"><title>topo.command.pylabplot.PylabPlotCommand&#45;&gt;topo.command.pylabplot.plot_modulation_ratio</title>
<path fill="none" stroke="black" stroke-width="0.5" d="M1011.47,-210.167C1042.87,-230.244 1116.99,-274.781 1186,-295 1202.08,-299.712 1219.29,-303.281 1236.43,-305.981"/>
<polygon fill="black" stroke="black" points="1236.54,-307.768 1241.74,-306.791 1237.06,-304.308 1236.54,-307.768"/>
</g>
<!-- topo.command.pylabplot.overlaid_plots -->
<g id="node18" class="node"><title>topo.command.pylabplot.overlaid_plots</title>
<polygon fill="none" stroke="black" stroke-width="0.5" points="1467,-286.5 1261,-286.5 1261,-265.5 1467,-265.5 1467,-286.5"/>
<text text-anchor="middle" x="1364" y="-273.5" font-family="Vera" font-size="10.00">topo.command.pylabplot.overlaid_plots</text>
</g>
<!-- topo.command.pylabplot.PylabPlotCommand&#45;&gt;topo.command.pylabplot.overlaid_plots -->
<g id="edge14" class="edge"><title>topo.command.pylabplot.PylabPlotCommand&#45;&gt;topo.command.pylabplot.overlaid_plots</title>
<path fill="none" stroke="black" stroke-width="0.5" d="M1023.6,-210.042C1060.21,-222.955 1127.09,-245.126 1186,-257 1208.38,-261.51 1232.56,-264.996 1255.68,-267.675"/>
<polygon fill="black" stroke="black" points="1255.74,-269.443 1260.91,-268.269 1256.14,-265.965 1255.74,-269.443"/>
</g>
<!-- topo.command.pylabplot.topographic_grid -->
<g id="node20" class="node"><title>topo.command.pylabplot.topographic_grid</title>
<polygon fill="none" stroke="black" stroke-width="0.5" points="1474,-248.5 1254,-248.5 1254,-227.5 1474,-227.5 1474,-248.5"/>
<text text-anchor="middle" x="1364" y="-235.5" font-family="Vera" font-size="10.00">topo.command.pylabplot.topographic_grid</text>
</g>
<!-- topo.command.pylabplot.PylabPlotCommand&#45;&gt;topo.command.pylabplot.topographic_grid -->
<g id="edge16" class="edge"><title>topo.command.pylabplot.PylabPlotCommand&#45;&gt;topo.command.pylabplot.topographic_grid</title>
<path fill="none" stroke="black" stroke-width="0.5" d="M1093.17,-210.034C1145.15,-215.402 1209.14,-222.009 1261.86,-227.453"/>
<polygon fill="black" stroke="black" points="1261.77,-229.203 1266.93,-227.976 1262.13,-225.722 1261.77,-229.203"/>
</g>
<!-- topo.command.pylabplot.matrixplot -->
<g id="node30" class="node"><title>topo.command.pylabplot.matrixplot</title>
<polygon fill="none" stroke="black" stroke-width="0.5" points="1458,-210.5 1270,-210.5 1270,-189.5 1458,-189.5 1458,-210.5"/>
<text text-anchor="middle" x="1364" y="-197.5" font-family="Vera" font-size="10.00">topo.command.pylabplot.matrixplot</text>
</g>
<!-- topo.command.pylabplot.PylabPlotCommand&#45;&gt;topo.command.pylabplot.matrixplot -->
<g id="edge26" class="edge"><title>topo.command.pylabplot.PylabPlotCommand&#45;&gt;topo.command.pylabplot.matrixplot</title>
<path fill="none" stroke="black" stroke-width="0.5" d="M1112.69,-200C1161.64,-200 1217.96,-200 1264.87,-200"/>
<polygon fill="black" stroke="black" points="1264.95,-201.75 1269.95,-200 1264.95,-198.25 1264.95,-201.75"/>
</g>
<!-- topo.command.pylabplot.matrixplot3dx3 -->
<g id="node41" class="node"><title>topo.command.pylabplot.matrixplot3dx3</title>
<polygon fill="none" stroke="black" stroke-width="0.5" points="1470,-172.5 1258,-172.5 1258,-151.5 1470,-151.5 1470,-172.5"/>
<text text-anchor="middle" x="1364" y="-159.5" font-family="Vera" font-size="10.00">topo.command.pylabplot.matrixplot3dx3</text>
</g>
<!-- topo.command.pylabplot.PylabPlotCommand&#45;&gt;topo.command.pylabplot.matrixplot3dx3 -->
<g id="edge38" class="edge"><title>topo.command.pylabplot.PylabPlotCommand&#45;&gt;topo.command.pylabplot.matrixplot3dx3</title>
<path fill="none" stroke="black" stroke-width="0.5" d="M1093.17,-189.966C1145.15,-184.598 1209.14,-177.991 1261.86,-172.547"/>
<polygon fill="black" stroke="black" points="1262.13,-174.278 1266.93,-172.024 1261.77,-170.797 1262.13,-174.278"/>
</g>
<!-- topo.command.pylabplot.histogramplot -->
<g id="node45" class="node"><title>topo.command.pylabplot.histogramplot</title>
<polygon fill="none" stroke="black" stroke-width="0.5" points="1467,-134.5 1261,-134.5 1261,-113.5 1467,-113.5 1467,-134.5"/>
<text text-anchor="middle" x="1364" y="-121.5" font-family="Vera" font-size="10.00">topo.command.pylabplot.histogramplot</text>
</g>
<!-- topo.command.pylabplot.PylabPlotCommand&#45;&gt;topo.command.pylabplot.histogramplot -->
<g id="edge42" class="edge"><title>topo.command.pylabplot.PylabPlotCommand&#45;&gt;topo.command.pylabplot.histogramplot</title>
<path fill="none" stroke="black" stroke-width="0.5" d="M1023.6,-189.958C1060.21,-177.045 1127.09,-154.874 1186,-143 1208.38,-138.49 1232.56,-135.004 1255.68,-132.325"/>
<polygon fill="black" stroke="black" points="1256.14,-134.035 1260.91,-131.731 1255.74,-130.557 1256.14,-134.035"/>
</g>
<!-- topo.command.pylabplot.tuning_curve -->
<g id="node51" class="node"><title>topo.command.pylabplot.tuning_curve</title>
<polygon fill="none" stroke="black" stroke-width="0.5" points="1464,-96.5 1264,-96.5 1264,-75.5 1464,-75.5 1464,-96.5"/>
<text text-anchor="middle" x="1364" y="-83.5" font-family="Vera" font-size="10.00">topo.command.pylabplot.tuning_curve</text>
</g>
<!-- topo.command.pylabplot.PylabPlotCommand&#45;&gt;topo.command.pylabplot.tuning_curve -->
<g id="edge50" class="edge"><title>topo.command.pylabplot.PylabPlotCommand&#45;&gt;topo.command.pylabplot.tuning_curve</title>
<path fill="none" stroke="black" stroke-width="0.5" d="M1011.47,-189.833C1042.87,-169.756 1116.99,-125.219 1186,-105 1208.97,-98.2701 1234.23,-93.8699 1258.33,-91.0067"/>
<polygon fill="black" stroke="black" points="1258.68,-92.7276 1263.45,-90.4188 1258.28,-89.2504 1258.68,-92.7276"/>
</g>
<!-- topo.command.pylabplot.matrixplot3d -->
<g id="node57" class="node"><title>topo.command.pylabplot.matrixplot3d</title>
<polygon fill="none" stroke="black" stroke-width="0.5" points="1464,-58.5 1264,-58.5 1264,-37.5 1464,-37.5 1464,-58.5"/>
<text text-anchor="middle" x="1364" y="-45.5" font-family="Vera" font-size="10.00">topo.command.pylabplot.matrixplot3d</text>
</g>
<!-- topo.command.pylabplot.PylabPlotCommand&#45;&gt;topo.command.pylabplot.matrixplot3d -->
<g id="edge56" class="edge"><title>topo.command.pylabplot.PylabPlotCommand&#45;&gt;topo.command.pylabplot.matrixplot3d</title>
<path fill="none" stroke="black" stroke-width="0.5" d="M1006.41,-189.716C1033.37,-163.827 1108.71,-95.9642 1186,-67 1208.69,-58.4987 1234.06,-53.4131 1258.39,-50.4512"/>
<polygon fill="black" stroke="black" points="1258.79,-52.1657 1263.56,-49.8509 1258.39,-48.689 1258.79,-52.1657"/>
</g>
<!-- topo.command.pylabplot.vectorplot -->
<g id="node61" class="node"><title>topo.command.pylabplot.vectorplot</title>
<polygon fill="none" stroke="black" stroke-width="0.5" points="1458,-20.5 1270,-20.5 1270,0.5 1458,0.5 1458,-20.5"/>
<text text-anchor="middle" x="1364" y="-7.5" font-family="Vera" font-size="10.00">topo.command.pylabplot.vectorplot</text>
</g>
<!-- topo.command.pylabplot.PylabPlotCommand&#45;&gt;topo.command.pylabplot.vectorplot -->
<g id="edge60" class="edge"><title>topo.command.pylabplot.PylabPlotCommand&#45;&gt;topo.command.pylabplot.vectorplot</title>
<path fill="none" stroke="black" stroke-width="0.5" d="M1003.29,-189.979C1026.16,-159.445 1100.08,-67.3266 1186,-29 1210.21,-18.199 1238.06,-12.4868 1264.42,-9.67129"/>
<polygon fill="black" stroke="black" points="1264.87,-11.385 1269.67,-9.14615 1264.52,-7.90241 1264.87,-11.385"/>
</g>
<!-- topo.command.pylabplot.test_measure -->
<g id="node4" class="node"><title>topo.command.pylabplot.test_measure</title>
<polygon fill="none" stroke="black" stroke-width="0.5" points="2451,-495.5 2245,-495.5 2245,-474.5 2451,-474.5 2451,-495.5"/>
<text text-anchor="middle" x="2348" y="-482.5" font-family="Vera" font-size="10.00">topo.command.pylabplot.test_measure</text>
</g>
<!-- topo.analysis.featureresponses.UnitCurveCommand -->
<g id="node5" class="node"><title>topo.analysis.featureresponses.UnitCurveCommand</title>
<polygon fill="none" stroke="black" stroke-width="0.5" points="2167,-419.5 1901,-419.5 1901,-398.5 2167,-398.5 2167,-419.5"/>
<text text-anchor="middle" x="2034" y="-406.5" font-family="Vera" font-size="10.00">topo.analysis.featureresponses.UnitCurveCommand</text>
</g>
<!-- topo.analysis.featureresponses.UnitCurveCommand&#45;&gt;topo.command.pylabplot.test_measure -->
<g id="edge4" class="edge"><title>topo.analysis.featureresponses.UnitCurveCommand&#45;&gt;topo.command.pylabplot.test_measure</title>
<path fill="none" stroke="black" stroke-width="0.5" d="M2059.22,-419.014C2092.37,-431.792 2152.66,-453.707 2206,-466 2219.71,-469.159 2234.29,-471.85 2248.69,-474.124"/>
<polygon fill="black" stroke="black" points="2248.77,-475.909 2253.98,-474.944 2249.31,-472.45 2248.77,-475.909"/>
</g>
<!-- topo.command.pylabplot.measure_contrast_response -->
<g id="node27" class="node"><title>topo.command.pylabplot.measure_contrast_response</title>
<polygon fill="none" stroke="black" stroke-width="0.5" points="2486,-457.5 2210,-457.5 2210,-436.5 2486,-436.5 2486,-457.5"/>
<text text-anchor="middle" x="2348" y="-444.5" font-family="Vera" font-size="10.00">topo.command.pylabplot.measure_contrast_response</text>
</g>
<!-- topo.analysis.featureresponses.UnitCurveCommand&#45;&gt;topo.command.pylabplot.measure_contrast_response -->
<g id="edge22" class="edge"><title>topo.analysis.featureresponses.UnitCurveCommand&#45;&gt;topo.command.pylabplot.measure_contrast_response</title>
<path fill="none" stroke="black" stroke-width="0.5" d="M2116.91,-419.034C2161,-424.369 2215.2,-430.929 2260.03,-436.354"/>
<polygon fill="black" stroke="black" points="2260,-438.112 2265.17,-436.976 2260.42,-434.638 2260,-438.112"/>
</g>
<!-- topo.command.pylabplot.measure_or_tuning -->
<g id="node43" class="node"><title>topo.command.pylabplot.measure_or_tuning</title>
<polygon fill="none" stroke="black" stroke-width="0.5" points="2464,-419.5 2232,-419.5 2232,-398.5 2464,-398.5 2464,-419.5"/>
<text text-anchor="middle" x="2348" y="-406.5" font-family="Vera" font-size="10.00">topo.command.pylabplot.measure_or_tuning</text>
</g>
<!-- topo.analysis.featureresponses.UnitCurveCommand&#45;&gt;topo.command.pylabplot.measure_or_tuning -->
<g id="edge40" class="edge"><title>topo.analysis.featureresponses.UnitCurveCommand&#45;&gt;topo.command.pylabplot.measure_or_tuning</title>
<path fill="none" stroke="black" stroke-width="0.5" d="M2167.62,-409C2187,-409 2206.86,-409 2225.99,-409"/>
<polygon fill="black" stroke="black" points="2226.37,-410.75 2231.37,-409 2226.37,-407.25 2226.37,-410.75"/>
</g>
<!-- topo.command.pylabplot.measure_size_response -->
<g id="node49" class="node"><title>topo.command.pylabplot.measure_size_response</title>
<polygon fill="none" stroke="black" stroke-width="0.5" points="2476,-381.5 2220,-381.5 2220,-360.5 2476,-360.5 2476,-381.5"/>
<text text-anchor="middle" x="2348" y="-368.5" font-family="Vera" font-size="10.00">topo.command.pylabplot.measure_size_response</text>
</g>
<!-- topo.analysis.featureresponses.UnitCurveCommand&#45;&gt;topo.command.pylabplot.measure_size_response -->
<g id="edge48" class="edge"><title>topo.analysis.featureresponses.UnitCurveCommand&#45;&gt;topo.command.pylabplot.measure_size_response</title>
<path fill="none" stroke="black" stroke-width="0.5" d="M2116.91,-398.966C2161,-393.631 2215.2,-387.071 2260.03,-381.646"/>
<polygon fill="black" stroke="black" points="2260.42,-383.362 2265.17,-381.024 2260,-379.888 2260.42,-383.362"/>
</g>
<!-- topo.command.pylabplot.measure_orientation_contrast -->
<g id="node63" class="node"><title>topo.command.pylabplot.measure_orientation_contrast</title>
<polygon fill="none" stroke="black" stroke-width="0.5" points="2490,-343.5 2206,-343.5 2206,-322.5 2490,-322.5 2490,-343.5"/>
<text text-anchor="middle" x="2348" y="-330.5" font-family="Vera" font-size="10.00">topo.command.pylabplot.measure_orientation_contrast</text>
</g>
<!-- topo.analysis.featureresponses.UnitCurveCommand&#45;&gt;topo.command.pylabplot.measure_orientation_contrast -->
<g id="edge62" class="edge"><title>topo.analysis.featureresponses.UnitCurveCommand&#45;&gt;topo.command.pylabplot.measure_orientation_contrast</title>
<path fill="none" stroke="black" stroke-width="0.5" d="M2148.23,-398.953C2155.78,-396.501 2163.11,-393.548 2170,-390 2190.68,-379.348 2185.29,-362.592 2206,-352 2211.36,-349.257 2216.98,-346.864 2222.76,-344.777"/>
<polygon fill="black" stroke="black" points="2223.49,-346.377 2227.65,-343.096 2222.35,-343.067 2223.49,-346.377"/>
</g>
<!-- topo.analysis.featureresponses.PatternPresentingCommand -->
<g id="node7" class="node"><title>topo.analysis.featureresponses.PatternPresentingCommand</title>
<polygon fill="none" stroke="black" stroke-width="0.5" points="805,-386.5 501,-386.5 501,-365.5 805,-365.5 805,-386.5"/>
<text text-anchor="middle" x="653" y="-373.5" font-family="Vera" font-size="10.00">topo.analysis.featureresponses.PatternPresentingCommand</text>
</g>
<!-- topo.analysis.featureresponses.MeasureResponseCommand -->
<g id="node13" class="node"><title>topo.analysis.featureresponses.MeasureResponseCommand</title>
<polygon fill="none" stroke="black" stroke-width="0.5" points="1149,-400.5 843,-400.5 843,-379.5 1149,-379.5 1149,-400.5"/>
<text text-anchor="middle" x="996" y="-387.5" font-family="Vera" font-size="10.00">topo.analysis.featureresponses.MeasureResponseCommand</text>
</g>
<!-- topo.analysis.featureresponses.PatternPresentingCommand&#45;&gt;topo.analysis.featureresponses.MeasureResponseCommand -->
<g id="edge46" class="edge"><title>topo.analysis.featureresponses.PatternPresentingCommand&#45;&gt;topo.analysis.featureresponses.MeasureResponseCommand</title>
<path fill="none" stroke="black" stroke-width="0.5" d="M805.942,-382.243C816.305,-382.666 826.759,-383.092 837.151,-383.516"/>
<polygon fill="black" stroke="black" points="837.18,-385.269 842.247,-383.724 837.323,-381.772 837.18,-385.269"/>
</g>
<!-- param.parameterized.ParameterizedFunction -->
<g id="node8" class="node"><title>param.parameterized.ParameterizedFunction</title>
<polygon fill="none" stroke="black" stroke-width="0.5" points="464,-291.5 230,-291.5 230,-270.5 464,-270.5 464,-291.5"/>
<text text-anchor="middle" x="347" y="-278.5" font-family="Vera" font-size="10.00">param.parameterized.ParameterizedFunction</text>
</g>
<!-- param.parameterized.ParameterizedFunction&#45;&gt;topo.analysis.featureresponses.PatternPresentingCommand -->
<g id="edge6" class="edge"><title>param.parameterized.ParameterizedFunction&#45;&gt;topo.analysis.featureresponses.PatternPresentingCommand</title>
<path fill="none" stroke="black" stroke-width="0.5" d="M379.458,-291.077C436.608,-308.819 554.867,-345.534 615.445,-364.341"/>
<polygon fill="black" stroke="black" points="615.121,-366.072 620.415,-365.884 616.158,-362.73 615.121,-366.072"/>
</g>
<!-- topo.command.pylabplot.measure_cog -->
<g id="node25" class="node"><title>topo.command.pylabplot.measure_cog</title>
<polygon fill="none" stroke="black" stroke-width="0.5" points="755,-291.5 551,-291.5 551,-270.5 755,-270.5 755,-291.5"/>
<text text-anchor="middle" x="653" y="-278.5" font-family="Vera" font-size="10.00">topo.command.pylabplot.measure_cog</text>
</g>
<!-- param.parameterized.ParameterizedFunction&#45;&gt;topo.command.pylabplot.measure_cog -->
<g id="edge20" class="edge"><title>param.parameterized.ParameterizedFunction&#45;&gt;topo.command.pylabplot.measure_cog</title>
<path fill="none" stroke="black" stroke-width="0.5" d="M464.432,-281C490.978,-281 519.035,-281 545.163,-281"/>
<polygon fill="black" stroke="black" points="545.362,-282.75 550.362,-281 545.362,-279.25 545.362,-282.75"/>
</g>
<!-- topo.command.Command -->
<g id="node34" class="node"><title>topo.command.Command</title>
<polygon fill="none" stroke="black" stroke-width="0.5" points="724,-238.5 582,-238.5 582,-217.5 724,-217.5 724,-238.5"/>
<text text-anchor="middle" x="653" y="-225.5" font-family="Vera" font-size="10.00">topo.command.Command</text>
</g>
<!-- param.parameterized.ParameterizedFunction&#45;&gt;topo.command.Command -->
<g id="edge30" class="edge"><title>param.parameterized.ParameterizedFunction&#45;&gt;topo.command.Command</title>
<path fill="none" stroke="black" stroke-width="0.5" d="M404.916,-270.969C457.706,-261.826 535.515,-248.349 589.875,-238.933"/>
<polygon fill="black" stroke="black" points="590.433,-240.613 595.061,-238.035 589.836,-237.164 590.433,-240.613"/>
</g>
<!-- topo.analysis.featureresponses.PositionMeasurementCommand -->
<g id="node12" class="node"><title>topo.analysis.featureresponses.PositionMeasurementCommand</title>
<polygon fill="none" stroke="black" stroke-width="0.5" points="1526,-438.5 1202,-438.5 1202,-417.5 1526,-417.5 1526,-438.5"/>
<text text-anchor="middle" x="1364" y="-425.5" font-family="Vera" font-size="10.00">topo.analysis.featureresponses.PositionMeasurementCommand</text>
</g>
<!-- topo.command.pylabplot.measure_position_pref -->
<g id="node55" class="node"><title>topo.command.pylabplot.measure_position_pref</title>
<polygon fill="none" stroke="black" stroke-width="0.5" points="1844,-438.5 1596,-438.5 1596,-417.5 1844,-417.5 1844,-438.5"/>
<text text-anchor="middle" x="1720" y="-425.5" font-family="Vera" font-size="10.00">topo.command.pylabplot.measure_position_pref</text>
</g>
<!-- topo.analysis.featureresponses.PositionMeasurementCommand&#45;&gt;topo.command.pylabplot.measure_position_pref -->
<g id="edge54" class="edge"><title>topo.analysis.featureresponses.PositionMeasurementCommand&#45;&gt;topo.command.pylabplot.measure_position_pref</title>
<path fill="none" stroke="black" stroke-width="0.5" d="M1526.11,-428C1547.52,-428 1569.23,-428 1590,-428"/>
<polygon fill="black" stroke="black" points="1590.26,-429.75 1595.26,-428 1590.26,-426.25 1590.26,-429.75"/>
</g>
<!-- topo.analysis.featureresponses.MeasureResponseCommand&#45;&gt;topo.analysis.featureresponses.PositionMeasurementCommand -->
<g id="edge10" class="edge"><title>topo.analysis.featureresponses.MeasureResponseCommand&#45;&gt;topo.analysis.featureresponses.PositionMeasurementCommand</title>
<path fill="none" stroke="black" stroke-width="0.5" d="M1093.17,-400.034C1145.15,-405.402 1209.14,-412.009 1261.86,-417.453"/>
<polygon fill="black" stroke="black" points="1261.77,-419.203 1266.93,-417.976 1262.13,-415.722 1261.77,-419.203"/>
</g>
<!-- topo.analysis.featureresponses.SinusoidalMeasureResponseCommand -->
<g id="node16" class="node"><title>topo.analysis.featureresponses.SinusoidalMeasureResponseCommand</title>
<polygon fill="none" stroke="black" stroke-width="0.5" points="1542,-400.5 1186,-400.5 1186,-379.5 1542,-379.5 1542,-400.5"/>
<text text-anchor="middle" x="1364" y="-387.5" font-family="Vera" font-size="10.00">topo.analysis.featureresponses.SinusoidalMeasureResponseCommand</text>
</g>
<!-- topo.analysis.featureresponses.MeasureResponseCommand&#45;&gt;topo.analysis.featureresponses.SinusoidalMeasureResponseCommand -->
<g id="edge44" class="edge"><title>topo.analysis.featureresponses.MeasureResponseCommand&#45;&gt;topo.analysis.featureresponses.SinusoidalMeasureResponseCommand</title>
<path fill="none" stroke="black" stroke-width="0.5" d="M1149.67,-390C1159.91,-390 1170.29,-390 1180.66,-390"/>
<polygon fill="black" stroke="black" points="1180.75,-391.75 1185.75,-390 1180.75,-388.25 1180.75,-391.75"/>
</g>
<!-- topo.analysis.featureresponses.FeatureCurveCommand -->
<g id="node15" class="node"><title>topo.analysis.featureresponses.FeatureCurveCommand</title>
<polygon fill="none" stroke="black" stroke-width="0.5" points="1862,-400.5 1578,-400.5 1578,-379.5 1862,-379.5 1862,-400.5"/>
<text text-anchor="middle" x="1720" y="-387.5" font-family="Vera" font-size="10.00">topo.analysis.featureresponses.FeatureCurveCommand</text>
</g>
<!-- topo.analysis.featureresponses.FeatureCurveCommand&#45;&gt;topo.analysis.featureresponses.UnitCurveCommand -->
<g id="edge34" class="edge"><title>topo.analysis.featureresponses.FeatureCurveCommand&#45;&gt;topo.analysis.featureresponses.UnitCurveCommand</title>
<path fill="none" stroke="black" stroke-width="0.5" d="M1862.3,-398.611C1873.28,-399.275 1884.35,-399.945 1895.3,-400.607"/>
<polygon fill="black" stroke="black" points="1895.23,-402.356 1900.32,-400.911 1895.44,-398.862 1895.23,-402.356"/>
</g>
<!-- topo.command.pylabplot.measure_or_tuning_fullfield -->
<g id="node22" class="node"><title>topo.command.pylabplot.measure_or_tuning_fullfield</title>
<polygon fill="none" stroke="black" stroke-width="0.5" points="2169,-381.5 1899,-381.5 1899,-360.5 2169,-360.5 2169,-381.5"/>
<text text-anchor="middle" x="2034" y="-368.5" font-family="Vera" font-size="10.00">topo.command.pylabplot.measure_or_tuning_fullfield</text>
</g>
<!-- topo.analysis.featureresponses.FeatureCurveCommand&#45;&gt;topo.command.pylabplot.measure_or_tuning_fullfield -->
<g id="edge18" class="edge"><title>topo.analysis.featureresponses.FeatureCurveCommand&#45;&gt;topo.command.pylabplot.measure_or_tuning_fullfield</title>
<path fill="none" stroke="black" stroke-width="0.5" d="M1862.3,-381.389C1872.62,-380.765 1883.02,-380.135 1893.33,-379.512"/>
<polygon fill="black" stroke="black" points="1893.5,-381.255 1898.39,-379.206 1893.29,-377.761 1893.5,-381.255"/>
</g>
<!-- topo.analysis.featureresponses.SinusoidalMeasureResponseCommand&#45;&gt;topo.analysis.featureresponses.FeatureCurveCommand -->
<g id="edge12" class="edge"><title>topo.analysis.featureresponses.SinusoidalMeasureResponseCommand&#45;&gt;topo.analysis.featureresponses.FeatureCurveCommand</title>
<path fill="none" stroke="black" stroke-width="0.5" d="M1542,-390C1552.21,-390 1562.43,-390 1572.51,-390"/>
<polygon fill="black" stroke="black" points="1572.76,-391.75 1577.76,-390 1572.76,-388.25 1572.76,-391.75"/>
</g>
<!-- param.parameterized.Parameterized -->
<g id="node24" class="node"><title>param.parameterized.Parameterized</title>
<polygon fill="none" stroke="black" stroke-width="0.5" points="194,-291.5 5.68434e-14,-291.5 0,-270.5 194,-270.5 194,-291.5"/>
<text text-anchor="middle" x="97" y="-278.5" font-family="Vera" font-size="10.00">param.parameterized.Parameterized</text>
</g>
<!-- param.parameterized.Parameterized&#45;&gt;param.parameterized.ParameterizedFunction -->
<g id="edge24" class="edge"><title>param.parameterized.Parameterized&#45;&gt;param.parameterized.ParameterizedFunction</title>
<path fill="none" stroke="black" stroke-width="0.5" d="M194.014,-281C204.04,-281 214.319,-281 224.575,-281"/>
<polygon fill="black" stroke="black" points="224.607,-282.75 229.607,-281 224.607,-279.25 224.607,-282.75"/>
</g>
<!-- topo.command.pylabplot.autocorrelationplot -->
<g id="node32" class="node"><title>topo.command.pylabplot.autocorrelationplot</title>
<polygon fill="none" stroke="black" stroke-width="0.5" points="1835,-267.5 1605,-267.5 1605,-246.5 1835,-246.5 1835,-267.5"/>
<text text-anchor="middle" x="1720" y="-254.5" font-family="Vera" font-size="10.00">topo.command.pylabplot.autocorrelationplot</text>
</g>
<!-- topo.command.pylabplot.matrixplot&#45;&gt;topo.command.pylabplot.autocorrelationplot -->
<g id="edge28" class="edge"><title>topo.command.pylabplot.matrixplot&#45;&gt;topo.command.pylabplot.autocorrelationplot</title>
<path fill="none" stroke="black" stroke-width="0.5" d="M1458.18,-203.361C1485.64,-206.124 1515.39,-210.887 1542,-219 1559.3,-224.277 1560.77,-232.493 1578,-238 1587.77,-241.123 1598.08,-243.733 1608.5,-245.914"/>
<polygon fill="black" stroke="black" points="1608.38,-247.674 1613.63,-246.951 1609.07,-244.244 1608.38,-247.674"/>
</g>
<!-- topo.command.pylabplot.gradientplot -->
<g id="node36" class="node"><title>topo.command.pylabplot.gradientplot</title>
<polygon fill="none" stroke="black" stroke-width="0.5" points="1818,-229.5 1622,-229.5 1622,-208.5 1818,-208.5 1818,-229.5"/>
<text text-anchor="middle" x="1720" y="-216.5" font-family="Vera" font-size="10.00">topo.command.pylabplot.gradientplot</text>
</g>
<!-- topo.command.pylabplot.matrixplot&#45;&gt;topo.command.pylabplot.gradientplot -->
<g id="edge32" class="edge"><title>topo.command.pylabplot.matrixplot&#45;&gt;topo.command.pylabplot.gradientplot</title>
<path fill="none" stroke="black" stroke-width="0.5" d="M1458,-205.017C1506.7,-207.616 1566.27,-210.795 1616.3,-213.466"/>
<polygon fill="black" stroke="black" points="1616.34,-215.22 1621.42,-213.739 1616.52,-211.725 1616.34,-215.22"/>
</g>
<!-- topo.command.pylabplot.fftplot -->
<g id="node39" class="node"><title>topo.command.pylabplot.fftplot</title>
<polygon fill="none" stroke="black" stroke-width="0.5" points="1803,-191.5 1637,-191.5 1637,-170.5 1803,-170.5 1803,-191.5"/>
<text text-anchor="middle" x="1720" y="-178.5" font-family="Vera" font-size="10.00">topo.command.pylabplot.fftplot</text>
</g>
<!-- topo.command.pylabplot.matrixplot&#45;&gt;topo.command.pylabplot.fftplot -->
<g id="edge36" class="edge"><title>topo.command.pylabplot.matrixplot&#45;&gt;topo.command.pylabplot.fftplot</title>
<path fill="none" stroke="black" stroke-width="0.5" d="M1458,-194.983C1511.68,-192.118 1578.59,-188.547 1631.36,-185.731"/>
<polygon fill="black" stroke="black" points="1631.52,-187.475 1636.42,-185.461 1631.33,-183.98 1631.52,-187.475"/>
</g>
<!-- topo.command.pylabplot.activityplot -->
<g id="node59" class="node"><title>topo.command.pylabplot.activityplot</title>
<polygon fill="none" stroke="black" stroke-width="0.5" points="1815,-153.5 1625,-153.5 1625,-132.5 1815,-132.5 1815,-153.5"/>
<text text-anchor="middle" x="1720" y="-140.5" font-family="Vera" font-size="10.00">topo.command.pylabplot.activityplot</text>
</g>
<!-- topo.command.pylabplot.matrixplot&#45;&gt;topo.command.pylabplot.activityplot -->
<g id="edge58" class="edge"><title>topo.command.pylabplot.matrixplot&#45;&gt;topo.command.pylabplot.activityplot</title>
<path fill="none" stroke="black" stroke-width="0.5" d="M1458.18,-196.639C1485.64,-193.876 1515.39,-189.113 1542,-181 1559.3,-175.723 1560.77,-167.507 1578,-162 1591.08,-157.819 1605.13,-154.558 1619.11,-152.014"/>
<polygon fill="black" stroke="black" points="1619.64,-153.699 1624.26,-151.109 1619.03,-150.251 1619.64,-153.699"/>
</g>
<!-- topo.command.Command&#45;&gt;topo.command.pylabplot.PylabPlotCommand -->
<g id="edge64" class="edge"><title>topo.command.Command&#45;&gt;topo.command.pylabplot.PylabPlotCommand</title>
<path fill="none" stroke="black" stroke-width="0.5" d="M724.904,-222.13C768.111,-218.603 824.224,-214.023 874.182,-209.944"/>
<polygon fill="black" stroke="black" points="874.466,-211.677 879.307,-209.526 874.181,-208.189 874.466,-211.677"/>
</g>
<!-- topo.command.pylabplot.cyclic_tuning_curve -->
<g id="node53" class="node"><title>topo.command.pylabplot.cyclic_tuning_curve</title>
<polygon fill="none" stroke="black" stroke-width="0.5" points="1836,-96.5 1604,-96.5 1604,-75.5 1836,-75.5 1836,-96.5"/>
<text text-anchor="middle" x="1720" y="-83.5" font-family="Vera" font-size="10.00">topo.command.pylabplot.cyclic_tuning_curve</text>
</g>
<!-- topo.command.pylabplot.tuning_curve&#45;&gt;topo.command.pylabplot.cyclic_tuning_curve -->
<g id="edge52" class="edge"><title>topo.command.pylabplot.tuning_curve&#45;&gt;topo.command.pylabplot.cyclic_tuning_curve</title>
<path fill="none" stroke="black" stroke-width="0.5" d="M1464.59,-86C1506.36,-86 1555.2,-86 1598.92,-86"/>
<polygon fill="black" stroke="black" points="1598.95,-87.7501 1603.95,-86 1598.95,-84.2501 1598.95,-87.7501"/>
</g>
</g>
</svg>
