<?xml version="1.0" encoding="UTF-8" standalone="no"?>
<!DOCTYPE svg PUBLIC "-//W3C//DTD SVG 1.1//EN"
 "http://www.w3.org/Graphics/SVG/1.1/DTD/svg11.dtd">
<!-- Generated by graphviz version 2.26.3 (20100126.1600)
 -->
<!-- Title: inheritance52f2812edd Pages: 1 -->
<svg width="1470pt" height="218pt"
 viewBox="0.00 0.00 1470.00 218.00" xmlns="http://www.w3.org/2000/svg" xmlns:xlink="http://www.w3.org/1999/xlink">
<g id="graph1" class="graph" transform="scale(1 1) rotate(0) translate(4 214)">
<title>inheritance52f2812edd</title>
<polygon fill="white" stroke="white" points="-4,5 -4,-214 1467,-214 1467,5 -4,5"/>
<!-- topo.base.functionfamily.PatternDrivenAnalysis -->
<g id="node1" class="node"><title>topo.base.functionfamily.PatternDrivenAnalysis</title>
<polygon fill="none" stroke="black" stroke-width="0.5" points="1256,-58 1024,-58 1024,-38 1256,-38 1256,-58"/>
<text text-anchor="middle" x="1140" y="-45" font-family="Vera" font-size="10.00">topo.base.functionfamily.PatternDrivenAnalysis</text>
</g>
<!-- topo.tkgui.testpattern.TestPattern -->
<g id="node24" class="node"><title>topo.tkgui.testpattern.TestPattern</title>
<polygon fill="none" stroke="black" stroke-width="0.5" points="1461,-77 1293,-77 1293,-57 1461,-57 1461,-77"/>
<text text-anchor="middle" x="1377" y="-64" font-family="Vera" font-size="10.00">topo.tkgui.testpattern.TestPattern</text>
</g>
<!-- topo.base.functionfamily.PatternDrivenAnalysis&#45;&gt;topo.tkgui.testpattern.TestPattern -->
<g id="edge24" class="edge"><title>topo.base.functionfamily.PatternDrivenAnalysis&#45;&gt;topo.tkgui.testpattern.TestPattern</title>
<path fill="none" stroke="black" stroke-width="0.5" d="M1256.07,-57.3052C1266.46,-58.1379 1276.87,-58.9726 1286.99,-59.7837"/>
<polygon fill="black" stroke="black" points="1287.12,-61.5503 1292.25,-60.2055 1287.4,-58.0615 1287.12,-61.5503"/>
</g>
<!-- param.parameterized.Parameterized -->
<g id="node2" class="node"><title>param.parameterized.Parameterized</title>
<polygon fill="none" stroke="black" stroke-width="0.5" points="294,-58 110,-58 110,-38 294,-38 294,-58"/>
<text text-anchor="middle" x="202" y="-45" font-family="Vera" font-size="10.00">param.parameterized.Parameterized</text>
</g>
<!-- param.parameterized.Parameterized&#45;&gt;topo.base.functionfamily.PatternDrivenAnalysis -->
<g id="edge2" class="edge"><title>param.parameterized.Parameterized&#45;&gt;topo.base.functionfamily.PatternDrivenAnalysis</title>
<path fill="none" stroke="black" stroke-width="0.5" d="M294.076,-48C464.393,-48 828.561,-48 1018.72,-48"/>
<polygon fill="black" stroke="black" points="1018.74,-49.7501 1023.74,-48 1018.74,-46.2501 1018.74,-49.7501"/>
</g>
<!-- topo.plotting.plotgroup.PlotGroup -->
<g id="node16" class="node"><title>topo.plotting.plotgroup.PlotGroup</title>
<polygon fill="none" stroke="black" stroke-width="0.5" points="502,-20 330,-20 330,-1.06581e-14 502,-3.55271e-15 502,-20"/>
<text text-anchor="middle" x="416" y="-7" font-family="Vera" font-size="10.00">topo.plotting.plotgroup.PlotGroup</text>
</g>
<!-- param.parameterized.Parameterized&#45;&gt;topo.plotting.plotgroup.PlotGroup -->
<g id="edge14" class="edge"><title>param.parameterized.Parameterized&#45;&gt;topo.plotting.plotgroup.PlotGroup</title>
<path fill="none" stroke="black" stroke-width="0.5" d="M258.506,-37.9662C288.005,-32.7281 324.148,-26.3102 354.366,-20.9443"/>
<polygon fill="black" stroke="black" points="354.932,-22.6213 359.549,-20.024 354.32,-19.1753 354.932,-22.6213"/>
</g>
<!-- paramtk.TkParameterizedBase -->
<g id="node18" class="node"><title>paramtk.TkParameterizedBase</title>
<polygon fill="none" stroke="black" stroke-width="0.5" points="493,-96 339,-96 339,-76 493,-76 493,-96"/>
<text text-anchor="middle" x="416" y="-83" font-family="Vera" font-size="10.00">paramtk.TkParameterizedBase</text>
</g>
<!-- param.parameterized.Parameterized&#45;&gt;paramtk.TkParameterizedBase -->
<g id="edge16" class="edge"><title>param.parameterized.Parameterized&#45;&gt;paramtk.TkParameterizedBase</title>
<path fill="none" stroke="black" stroke-width="0.5" d="M258.506,-58.0338C288.005,-63.2719 324.148,-69.6898 354.366,-75.0557"/>
<polygon fill="black" stroke="black" points="354.32,-76.8247 359.549,-75.976 354.932,-73.3787 354.32,-76.8247"/>
</g>
<!-- Tkinter.Pack -->
<g id="node4" class="node"><title>Tkinter.Pack</title>
<polygon fill="none" stroke="black" stroke-width="0.5" points="238,-210 166,-210 166,-190 238,-190 238,-210"/>
<text text-anchor="middle" x="202" y="-197" font-family="Vera" font-size="10.00">Tkinter.Pack</text>
</g>
<!-- Tkinter.Widget -->
<g id="node5" class="node"><title>Tkinter.Widget</title>
<polygon fill="none" stroke="black" stroke-width="0.5" points="457,-134 375,-134 375,-114 457,-114 457,-134"/>
<text text-anchor="middle" x="416" y="-121" font-family="Vera" font-size="10.00">Tkinter.Widget</text>
</g>
<!-- Tkinter.Pack&#45;&gt;Tkinter.Widget -->
<g id="edge6" class="edge"><title>Tkinter.Pack&#45;&gt;Tkinter.Widget</title>
<path fill="none" stroke="black" stroke-width="0.5" d="M238.783,-194.433C255.825,-191.34 276.199,-186.906 294,-181 329.987,-169.059 369.344,-149.37 393.356,-136.543"/>
<polygon fill="black" stroke="black" points="394.373,-137.983 397.948,-134.073 392.716,-134.9 394.373,-137.983"/>
</g>
<!-- Tkinter.Frame -->
<g id="node22" class="node"><title>Tkinter.Frame</title>
<polygon fill="none" stroke="black" stroke-width="0.5" points="677,-134 597,-134 597,-114 677,-114 677,-134"/>
<text text-anchor="middle" x="637" y="-121" font-family="Vera" font-size="10.00">Tkinter.Frame</text>
</g>
<!-- Tkinter.Widget&#45;&gt;Tkinter.Frame -->
<g id="edge20" class="edge"><title>Tkinter.Widget&#45;&gt;Tkinter.Frame</title>
<path fill="none" stroke="black" stroke-width="0.5" d="M457.568,-124C495.621,-124 551.833,-124 591.171,-124"/>
<polygon fill="black" stroke="black" points="591.365,-125.75 596.365,-124 591.365,-122.25 591.365,-125.75"/>
</g>
<!-- Tkinter.BaseWidget -->
<g id="node6" class="node"><title>Tkinter.BaseWidget</title>
<polygon fill="none" stroke="black" stroke-width="0.5" points="254,-172 150,-172 150,-152 254,-152 254,-172"/>
<text text-anchor="middle" x="202" y="-159" font-family="Vera" font-size="10.00">Tkinter.BaseWidget</text>
</g>
<!-- Tkinter.BaseWidget&#45;&gt;Tkinter.Widget -->
<g id="edge4" class="edge"><title>Tkinter.BaseWidget&#45;&gt;Tkinter.Widget</title>
<path fill="none" stroke="black" stroke-width="0.5" d="M254.624,-152.655C289.631,-146.439 335.214,-138.345 369.001,-132.346"/>
<polygon fill="black" stroke="black" points="369.702,-133.999 374.319,-131.401 369.09,-130.552 369.702,-133.999"/>
</g>
<!-- Tkinter.Place -->
<g id="node9" class="node"><title>Tkinter.Place</title>
<polygon fill="none" stroke="black" stroke-width="0.5" points="239,-134 165,-134 165,-114 239,-114 239,-134"/>
<text text-anchor="middle" x="202" y="-121" font-family="Vera" font-size="10.00">Tkinter.Place</text>
</g>
<!-- Tkinter.Place&#45;&gt;Tkinter.Widget -->
<g id="edge8" class="edge"><title>Tkinter.Place&#45;&gt;Tkinter.Widget</title>
<path fill="none" stroke="black" stroke-width="0.5" d="M239.766,-124C275.824,-124 330.265,-124 369.089,-124"/>
<polygon fill="black" stroke="black" points="369.221,-125.75 374.221,-124 369.221,-122.25 369.221,-125.75"/>
</g>
<!-- Tkinter.Grid -->
<g id="node11" class="node"><title>Tkinter.Grid</title>
<polygon fill="none" stroke="black" stroke-width="0.5" points="238,-96 166,-96 166,-76 238,-76 238,-96"/>
<text text-anchor="middle" x="202" y="-83" font-family="Vera" font-size="10.00">Tkinter.Grid</text>
</g>
<!-- Tkinter.Grid&#45;&gt;Tkinter.Widget -->
<g id="edge10" class="edge"><title>Tkinter.Grid&#45;&gt;Tkinter.Widget</title>
<path fill="none" stroke="black" stroke-width="0.5" d="M238.302,-92.4462C274.365,-98.8499 329.823,-108.697 369.181,-115.686"/>
<polygon fill="black" stroke="black" points="369.153,-117.459 374.382,-116.61 369.765,-114.013 369.153,-117.459"/>
</g>
<!-- topo.tkgui.plotgrouppanel.SheetPanel -->
<g id="node13" class="node"><title>topo.tkgui.plotgrouppanel.SheetPanel</title>
<polygon fill="none" stroke="black" stroke-width="0.5" points="1234,-96 1046,-96 1046,-76 1234,-76 1234,-96"/>
<text text-anchor="middle" x="1140" y="-83" font-family="Vera" font-size="10.00">topo.tkgui.plotgrouppanel.SheetPanel</text>
</g>
<!-- topo.tkgui.plotgrouppanel.SheetPanel&#45;&gt;topo.tkgui.testpattern.TestPattern -->
<g id="edge22" class="edge"><title>topo.tkgui.plotgrouppanel.SheetPanel&#45;&gt;topo.tkgui.testpattern.TestPattern</title>
<path fill="none" stroke="black" stroke-width="0.5" d="M1234.01,-78.4634C1251.46,-77.0644 1269.65,-75.606 1286.98,-74.2168"/>
<polygon fill="black" stroke="black" points="1287.48,-75.9321 1292.33,-73.788 1287.2,-72.4433 1287.48,-75.9321"/>
</g>
<!-- topo.tkgui.plotgrouppanel.PlotGroupPanel -->
<g id="node14" class="node"><title>topo.tkgui.plotgrouppanel.PlotGroupPanel</title>
<polygon fill="none" stroke="black" stroke-width="0.5" points="984,-96 776,-96 776,-76 984,-76 984,-96"/>
<text text-anchor="middle" x="880" y="-83" font-family="Vera" font-size="10.00">topo.tkgui.plotgrouppanel.PlotGroupPanel</text>
</g>
<!-- topo.tkgui.plotgrouppanel.PlotGroupPanel&#45;&gt;topo.tkgui.plotgrouppanel.SheetPanel -->
<g id="edge12" class="edge"><title>topo.tkgui.plotgrouppanel.PlotGroupPanel&#45;&gt;topo.tkgui.plotgrouppanel.SheetPanel</title>
<path fill="none" stroke="black" stroke-width="0.5" d="M984.628,-86C1003.07,-86 1022.23,-86 1040.52,-86"/>
<polygon fill="black" stroke="black" points="1040.66,-87.7501 1045.66,-86 1040.66,-84.2501 1040.66,-87.7501"/>
</g>
<!-- topo.plotting.plotgroup.SheetPlotGroup -->
<g id="node20" class="node"><title>topo.plotting.plotgroup.SheetPlotGroup</title>
<polygon fill="none" stroke="black" stroke-width="0.5" points="735,-20 539,-20 539,-1.06581e-14 735,-3.55271e-15 735,-20"/>
<text text-anchor="middle" x="637" y="-7" font-family="Vera" font-size="10.00">topo.plotting.plotgroup.SheetPlotGroup</text>
</g>
<!-- topo.plotting.plotgroup.PlotGroup&#45;&gt;topo.plotting.plotgroup.SheetPlotGroup -->
<g id="edge18" class="edge"><title>topo.plotting.plotgroup.PlotGroup&#45;&gt;topo.plotting.plotgroup.SheetPlotGroup</title>
<path fill="none" stroke="black" stroke-width="0.5" d="M502.077,-10C512.284,-10 522.784,-10 533.204,-10"/>
<polygon fill="black" stroke="black" points="533.311,-11.7501 538.311,-10 533.311,-8.2501 533.311,-11.7501"/>
</g>
<!-- paramtk.TkParameterized -->
<g id="node28" class="node"><title>paramtk.TkParameterized</title>
<polygon fill="none" stroke="black" stroke-width="0.5" points="704,-96 570,-96 570,-76 704,-76 704,-96"/>
<text text-anchor="middle" x="637" y="-83" font-family="Vera" font-size="10.00">paramtk.TkParameterized</text>
</g>
<!-- paramtk.TkParameterizedBase&#45;&gt;paramtk.TkParameterized -->
<g id="edge26" class="edge"><title>paramtk.TkParameterizedBase&#45;&gt;paramtk.TkParameterized</title>
<path fill="none" stroke="black" stroke-width="0.5" d="M493.606,-86C516.731,-86 541.972,-86 564.741,-86"/>
<polygon fill="black" stroke="black" points="564.863,-87.7501 569.863,-86 564.863,-84.2501 564.863,-87.7501"/>
</g>
<!-- topo.tkgui.testpattern.TestPatternPlotGroup -->
<g id="node30" class="node"><title>topo.tkgui.testpattern.TestPatternPlotGroup</title>
<polygon fill="none" stroke="black" stroke-width="0.5" points="988,-20 772,-20 772,-1.06581e-14 988,-3.55271e-15 988,-20"/>
<text text-anchor="middle" x="880" y="-7" font-family="Vera" font-size="10.00">topo.tkgui.testpattern.TestPatternPlotGroup</text>
</g>
<!-- topo.plotting.plotgroup.SheetPlotGroup&#45;&gt;topo.tkgui.testpattern.TestPatternPlotGroup -->
<g id="edge28" class="edge"><title>topo.plotting.plotgroup.SheetPlotGroup&#45;&gt;topo.tkgui.testpattern.TestPatternPlotGroup</title>
<path fill="none" stroke="black" stroke-width="0.5" d="M735.837,-10C746,-10 756.382,-10 766.686,-10"/>
<polygon fill="black" stroke="black" points="766.736,-11.7501 771.736,-10 766.736,-8.2501 766.736,-11.7501"/>
</g>
<!-- Tkinter.Frame&#45;&gt;topo.tkgui.plotgrouppanel.PlotGroupPanel -->
<g id="edge32" class="edge"><title>Tkinter.Frame&#45;&gt;topo.tkgui.plotgrouppanel.PlotGroupPanel</title>
<path fill="none" stroke="black" stroke-width="0.5" d="M677.673,-117.64C713.896,-111.975 767.661,-103.567 810.664,-96.8427"/>
<polygon fill="black" stroke="black" points="811.183,-98.5328 815.853,-96.0312 810.643,-95.0748 811.183,-98.5328"/>
</g>
<!-- Tkinter.Misc -->
<g id="node27" class="node"><title>Tkinter.Misc</title>
<polygon fill="none" stroke="black" stroke-width="0.5" points="73,-172 1,-172 1,-152 73,-152 73,-172"/>
<text text-anchor="middle" x="37" y="-159" font-family="Vera" font-size="10.00">Tkinter.Misc</text>
</g>
<!-- Tkinter.Misc&#45;&gt;Tkinter.BaseWidget -->
<g id="edge34" class="edge"><title>Tkinter.Misc&#45;&gt;Tkinter.BaseWidget</title>
<path fill="none" stroke="black" stroke-width="0.5" d="M73.6188,-162C94.2732,-162 120.553,-162 143.949,-162"/>
<polygon fill="black" stroke="black" points="144.204,-163.75 149.204,-162 144.204,-160.25 144.204,-163.75"/>
</g>
<!-- paramtk.TkParameterized&#45;&gt;topo.tkgui.plotgrouppanel.PlotGroupPanel -->
<g id="edge30" class="edge"><title>paramtk.TkParameterized&#45;&gt;topo.tkgui.plotgrouppanel.PlotGroupPanel</title>
<path fill="none" stroke="black" stroke-width="0.5" d="M704.044,-86C724.549,-86 747.663,-86 770.232,-86"/>
<polygon fill="black" stroke="black" points="770.342,-87.7501 775.342,-86 770.341,-84.2501 770.342,-87.7501"/>
</g>
</g>
</svg>
