<?xml version="1.0" encoding="UTF-8" standalone="no"?>
<!DOCTYPE svg PUBLIC "-//W3C//DTD SVG 1.1//EN"
 "http://www.w3.org/Graphics/SVG/1.1/DTD/svg11.dtd">
<!-- Generated by graphviz version 2.26.3 (20100126.1600)
 -->
<!-- Title: inheritance705e1e99a0 Pages: 1 -->
<svg width="1020pt" height="66pt"
 viewBox="0.00 0.00 1020.00 66.00" xmlns="http://www.w3.org/2000/svg" xmlns:xlink="http://www.w3.org/1999/xlink">
<g id="graph1" class="graph" transform="scale(1 1) rotate(0) translate(4 62)">
<title>inheritance705e1e99a0</title>
<polygon fill="white" stroke="white" points="-4,5 -4,-62 1017,-62 1017,5 -4,5"/>
<!-- topo.tests.unit.testboundingregion.TestBoundingEllipse -->
<g id="node1" class="node"><title>topo.tests.unit.testboundingregion.TestBoundingEllipse</title>
<polygon fill="none" stroke="black" stroke-width="0.5" points="712,-58 444,-58 444,-38 712,-38 712,-58"/>
<text text-anchor="middle" x="578" y="-45" font-family="Vera" font-size="10.00">topo.tests.unit.testboundingregion.TestBoundingEllipse</text>
</g>
<!-- topo.tests.unit.testboundingregion.TestBoundingCircle -->
<g id="node8" class="node"><title>topo.tests.unit.testboundingregion.TestBoundingCircle</title>
<polygon fill="none" stroke="black" stroke-width="0.5" points="1012,-58 748,-58 748,-38 1012,-38 1012,-58"/>
<text text-anchor="middle" x="880" y="-45" font-family="Vera" font-size="10.00">topo.tests.unit.testboundingregion.TestBoundingCircle</text>
</g>
<!-- topo.tests.unit.testboundingregion.TestBoundingEllipse&#45;&gt;topo.tests.unit.testboundingregion.TestBoundingCircle -->
<g id="edge8" class="edge"><title>topo.tests.unit.testboundingregion.TestBoundingEllipse&#45;&gt;topo.tests.unit.testboundingregion.TestBoundingCircle</title>
<path fill="none" stroke="black" stroke-width="0.5" d="M712.22,-48C722.281,-48 732.443,-48 742.524,-48"/>
<polygon fill="black" stroke="black" points="742.787,-49.7501 747.787,-48 742.787,-46.2501 742.787,-49.7501"/>
</g>
<!-- topo.tests.unit.testboundingregion.TestBoundingBox -->
<g id="node2" class="node"><title>topo.tests.unit.testboundingregion.TestBoundingBox</title>
<polygon fill="none" stroke="black" stroke-width="0.5" points="408,-58 152,-58 152,-38 408,-38 408,-58"/>
<text text-anchor="middle" x="280" y="-45" font-family="Vera" font-size="10.00">topo.tests.unit.testboundingregion.TestBoundingBox</text>
</g>
<!-- topo.tests.unit.testboundingregion.TestBoundingBox&#45;&gt;topo.tests.unit.testboundingregion.TestBoundingEllipse -->
<g id="edge2" class="edge"><title>topo.tests.unit.testboundingregion.TestBoundingBox&#45;&gt;topo.tests.unit.testboundingregion.TestBoundingEllipse</title>
<path fill="none" stroke="black" stroke-width="0.5" d="M408.108,-48C418.276,-48 428.576,-48 438.814,-48"/>
<polygon fill="black" stroke="black" points="438.834,-49.7501 443.834,-48 438.834,-46.2501 438.834,-49.7501"/>
</g>
<!-- topo.tests.unit.testboundingregion.TestAARectangle -->
<g id="node4" class="node"><title>topo.tests.unit.testboundingregion.TestAARectangle</title>
<polygon fill="none" stroke="black" stroke-width="0.5" points="405,-20 155,-20 155,-1.06581e-14 405,-3.55271e-15 405,-20"/>
<text text-anchor="middle" x="280" y="-7" font-family="Vera" font-size="10.00">topo.tests.unit.testboundingregion.TestAARectangle</text>
</g>
<!-- unittest.case.TestCase -->
<g id="node5" class="node"><title>unittest.case.TestCase</title>
<polygon fill="none" stroke="black" stroke-width="0.5" points="116,-39 4.9738e-14,-39 0,-19 116,-19 116,-39"/>
<text text-anchor="middle" x="58" y="-26" font-family="Vera" font-size="10.00">unittest.case.TestCase</text>
</g>
<!-- unittest.case.TestCase&#45;&gt;topo.tests.unit.testboundingregion.TestBoundingBox -->
<g id="edge6" class="edge"><title>unittest.case.TestCase&#45;&gt;topo.tests.unit.testboundingregion.TestBoundingBox</title>
<path fill="none" stroke="black" stroke-width="0.5" d="M116.038,-33.9672C128.967,-35.0738 143.149,-36.2875 157.591,-37.5235"/>
<polygon fill="black" stroke="black" points="157.79,-39.2969 162.921,-37.9797 158.089,-35.8097 157.79,-39.2969"/>
</g>
<!-- unittest.case.TestCase&#45;&gt;topo.tests.unit.testboundingregion.TestAARectangle -->
<g id="edge4" class="edge"><title>unittest.case.TestCase&#45;&gt;topo.tests.unit.testboundingregion.TestAARectangle</title>
<path fill="none" stroke="black" stroke-width="0.5" d="M116.038,-24.0328C128.967,-22.9262 143.149,-21.7125 157.591,-20.4765"/>
<polygon fill="black" stroke="black" points="158.089,-22.1903 162.921,-20.0203 157.79,-18.7031 158.089,-22.1903"/>
</g>
</g>
</svg>
