<?xml version="1.0" encoding="UTF-8" standalone="no"?>
<!DOCTYPE svg PUBLIC "-//W3C//DTD SVG 1.1//EN"
 "http://www.w3.org/Graphics/SVG/1.1/DTD/svg11.dtd">
<!-- Generated by graphviz version 2.26.3 (20100126.1600)
 -->
<!-- Title: inheritance3d1eaa8e0e Pages: 1 -->
<svg width="1284pt" height="180pt"
 viewBox="0.00 0.00 1284.00 180.00" xmlns="http://www.w3.org/2000/svg" xmlns:xlink="http://www.w3.org/1999/xlink">
<g id="graph1" class="graph" transform="scale(1 1) rotate(0) translate(4 176)">
<title>inheritance3d1eaa8e0e</title>
<polygon fill="white" stroke="white" points="-4,5 -4,-176 1281,-176 1281,5 -4,5"/>
<!-- topo.misc.distribution.Distribution -->
<g id="node1" class="node"><title>topo.misc.distribution.Distribution</title>
<polygon fill="none" stroke="black" stroke-width="0.5" points="186,-77.5 8,-77.5 8,-56.5 186,-56.5 186,-77.5"/>
<text text-anchor="middle" x="97" y="-64.5" font-family="Vera" font-size="10.00">topo.misc.distribution.Distribution</text>
</g>
<!-- param.parameterized.Parameterized -->
<g id="node2" class="node"><title>param.parameterized.Parameterized</title>
<polygon fill="none" stroke="black" stroke-width="0.5" points="194,-115.5 5.68434e-14,-115.5 0,-94.5 194,-94.5 194,-115.5"/>
<text text-anchor="middle" x="97" y="-102.5" font-family="Vera" font-size="10.00">param.parameterized.Parameterized</text>
</g>
<!-- topo.misc.distribution.DistributionStatisticFn -->
<g id="node5" class="node"><title>topo.misc.distribution.DistributionStatisticFn</title>
<polygon fill="none" stroke="black" stroke-width="0.5" points="458,-115.5 230,-115.5 230,-94.5 458,-94.5 458,-115.5"/>
<text text-anchor="middle" x="344" y="-102.5" font-family="Vera" font-size="10.00">topo.misc.distribution.DistributionStatisticFn</text>
</g>
<!-- param.parameterized.Parameterized&#45;&gt;topo.misc.distribution.DistributionStatisticFn -->
<g id="edge8" class="edge"><title>param.parameterized.Parameterized&#45;&gt;topo.misc.distribution.DistributionStatisticFn</title>
<path fill="none" stroke="black" stroke-width="0.5" d="M194.266,-105C204.153,-105 214.275,-105 224.362,-105"/>
<polygon fill="black" stroke="black" points="224.633,-106.75 229.633,-105 224.633,-103.25 224.633,-106.75"/>
</g>
<!-- topo.misc.distribution.Pref -->
<g id="node3" class="node"><title>topo.misc.distribution.Pref</title>
<polygon fill="none" stroke="black" stroke-width="0.5" points="168,-153.5 26,-153.5 26,-132.5 168,-132.5 168,-153.5"/>
<text text-anchor="middle" x="97" y="-140.5" font-family="Vera" font-size="10.00">topo.misc.distribution.Pref</text>
</g>
<!-- topo.misc.distribution.VonMisesStatisticFn -->
<g id="node4" class="node"><title>topo.misc.distribution.VonMisesStatisticFn</title>
<polygon fill="none" stroke="black" stroke-width="0.5" points="717,-134.5 499,-134.5 499,-113.5 717,-113.5 717,-134.5"/>
<text text-anchor="middle" x="608" y="-121.5" font-family="Vera" font-size="10.00">topo.misc.distribution.VonMisesStatisticFn</text>
</g>
<!-- topo.misc.distribution.DSF_VonMisesFit -->
<g id="node15" class="node"><title>topo.misc.distribution.DSF_VonMisesFit</title>
<polygon fill="none" stroke="black" stroke-width="0.5" points="992,-172.5 790,-172.5 790,-151.5 992,-151.5 992,-172.5"/>
<text text-anchor="middle" x="891" y="-159.5" font-family="Vera" font-size="10.00">topo.misc.distribution.DSF_VonMisesFit</text>
</g>
<!-- topo.misc.distribution.VonMisesStatisticFn&#45;&gt;topo.misc.distribution.DSF_VonMisesFit -->
<g id="edge12" class="edge"><title>topo.misc.distribution.VonMisesStatisticFn&#45;&gt;topo.misc.distribution.DSF_VonMisesFit</title>
<path fill="none" stroke="black" stroke-width="0.5" d="M682.725,-134.034C722.219,-139.337 770.718,-145.849 810.976,-151.255"/>
<polygon fill="black" stroke="black" points="811.159,-153.045 816.347,-151.976 811.625,-149.576 811.159,-153.045"/>
</g>
<!-- topo.misc.distribution.DSF_BimodalVonMisesFit -->
<g id="node18" class="node"><title>topo.misc.distribution.DSF_BimodalVonMisesFit</title>
<polygon fill="none" stroke="black" stroke-width="0.5" points="1012,-134.5 770,-134.5 770,-113.5 1012,-113.5 1012,-134.5"/>
<text text-anchor="middle" x="891" y="-121.5" font-family="Vera" font-size="10.00">topo.misc.distribution.DSF_BimodalVonMisesFit</text>
</g>
<!-- topo.misc.distribution.VonMisesStatisticFn&#45;&gt;topo.misc.distribution.DSF_BimodalVonMisesFit -->
<g id="edge16" class="edge"><title>topo.misc.distribution.VonMisesStatisticFn&#45;&gt;topo.misc.distribution.DSF_BimodalVonMisesFit</title>
<path fill="none" stroke="black" stroke-width="0.5" d="M717.01,-124C732.539,-124 748.619,-124 764.446,-124"/>
<polygon fill="black" stroke="black" points="764.803,-125.75 769.803,-124 764.803,-122.25 764.803,-125.75"/>
</g>
<!-- topo.misc.distribution.DistributionStatisticFn&#45;&gt;topo.misc.distribution.VonMisesStatisticFn -->
<g id="edge2" class="edge"><title>topo.misc.distribution.DistributionStatisticFn&#45;&gt;topo.misc.distribution.VonMisesStatisticFn</title>
<path fill="none" stroke="black" stroke-width="0.5" d="M458.259,-113.223C470.086,-114.074 482.108,-114.94 493.933,-115.791"/>
<polygon fill="black" stroke="black" points="493.875,-117.541 498.988,-116.154 494.127,-114.05 493.875,-117.541"/>
</g>
<!-- topo.misc.distribution.DescriptiveStatisticFn -->
<g id="node11" class="node"><title>topo.misc.distribution.DescriptiveStatisticFn</title>
<polygon fill="none" stroke="black" stroke-width="0.5" points="721,-77.5 495,-77.5 495,-56.5 721,-56.5 721,-77.5"/>
<text text-anchor="middle" x="608" y="-64.5" font-family="Vera" font-size="10.00">topo.misc.distribution.DescriptiveStatisticFn</text>
</g>
<!-- topo.misc.distribution.DistributionStatisticFn&#45;&gt;topo.misc.distribution.DescriptiveStatisticFn -->
<g id="edge14" class="edge"><title>topo.misc.distribution.DistributionStatisticFn&#45;&gt;topo.misc.distribution.DescriptiveStatisticFn</title>
<path fill="none" stroke="black" stroke-width="0.5" d="M413.708,-94.9662C450.551,-89.6631 495.794,-83.1509 533.349,-77.7453"/>
<polygon fill="black" stroke="black" points="533.66,-79.4686 538.359,-77.024 533.161,-76.0043 533.66,-79.4686"/>
</g>
<!-- topo.misc.distribution.DSF_TopTwoValues -->
<g id="node7" class="node"><title>topo.misc.distribution.DSF_TopTwoValues</title>
<polygon fill="none" stroke="black" stroke-width="0.5" points="1274,-115.5 1062,-115.5 1062,-94.5 1274,-94.5 1274,-115.5"/>
<text text-anchor="middle" x="1168" y="-102.5" font-family="Vera" font-size="10.00">topo.misc.distribution.DSF_TopTwoValues</text>
</g>
<!-- topo.misc.distribution.DescriptiveBimodalStatisticFn -->
<g id="node8" class="node"><title>topo.misc.distribution.DescriptiveBimodalStatisticFn</title>
<polygon fill="none" stroke="black" stroke-width="0.5" points="1024,-96.5 758,-96.5 758,-75.5 1024,-75.5 1024,-96.5"/>
<text text-anchor="middle" x="891" y="-83.5" font-family="Vera" font-size="10.00">topo.misc.distribution.DescriptiveBimodalStatisticFn</text>
</g>
<!-- topo.misc.distribution.DescriptiveBimodalStatisticFn&#45;&gt;topo.misc.distribution.DSF_TopTwoValues -->
<g id="edge4" class="edge"><title>topo.misc.distribution.DescriptiveBimodalStatisticFn&#45;&gt;topo.misc.distribution.DSF_TopTwoValues</title>
<path fill="none" stroke="black" stroke-width="0.5" d="M1024.23,-95.1383C1035.07,-95.8817 1045.95,-96.6281 1056.61,-97.3593"/>
<polygon fill="black" stroke="black" points="1056.71,-99.1205 1061.82,-97.7169 1056.95,-95.6287 1056.71,-99.1205"/>
</g>
<!-- topo.misc.distribution.DSF_BimodalPeaks -->
<g id="node20" class="node"><title>topo.misc.distribution.DSF_BimodalPeaks</title>
<polygon fill="none" stroke="black" stroke-width="0.5" points="1275,-77.5 1061,-77.5 1061,-56.5 1275,-56.5 1275,-77.5"/>
<text text-anchor="middle" x="1168" y="-64.5" font-family="Vera" font-size="10.00">topo.misc.distribution.DSF_BimodalPeaks</text>
</g>
<!-- topo.misc.distribution.DescriptiveBimodalStatisticFn&#45;&gt;topo.misc.distribution.DSF_BimodalPeaks -->
<g id="edge18" class="edge"><title>topo.misc.distribution.DescriptiveBimodalStatisticFn&#45;&gt;topo.misc.distribution.DSF_BimodalPeaks</title>
<path fill="none" stroke="black" stroke-width="0.5" d="M1024.23,-76.8617C1034.59,-76.151 1044.99,-75.4375 1055.2,-74.7372"/>
<polygon fill="black" stroke="black" points="1055.33,-76.4828 1060.19,-74.3946 1055.09,-72.991 1055.33,-76.4828"/>
</g>
<!-- topo.misc.distribution.DSF_MaxValue -->
<g id="node10" class="node"><title>topo.misc.distribution.DSF_MaxValue</title>
<polygon fill="none" stroke="black" stroke-width="0.5" points="988,-58.5 794,-58.5 794,-37.5 988,-37.5 988,-58.5"/>
<text text-anchor="middle" x="891" y="-45.5" font-family="Vera" font-size="10.00">topo.misc.distribution.DSF_MaxValue</text>
</g>
<!-- topo.misc.distribution.DescriptiveStatisticFn&#45;&gt;topo.misc.distribution.DescriptiveBimodalStatisticFn -->
<g id="edge10" class="edge"><title>topo.misc.distribution.DescriptiveStatisticFn&#45;&gt;topo.misc.distribution.DescriptiveBimodalStatisticFn</title>
<path fill="none" stroke="black" stroke-width="0.5" d="M721.884,-74.6459C732.047,-75.3282 742.408,-76.0239 752.746,-76.7179"/>
<polygon fill="black" stroke="black" points="752.712,-78.4695 757.818,-77.0585 752.947,-74.9774 752.712,-78.4695"/>
</g>
<!-- topo.misc.distribution.DescriptiveStatisticFn&#45;&gt;topo.misc.distribution.DSF_MaxValue -->
<g id="edge6" class="edge"><title>topo.misc.distribution.DescriptiveStatisticFn&#45;&gt;topo.misc.distribution.DSF_MaxValue</title>
<path fill="none" stroke="black" stroke-width="0.5" d="M721.884,-59.3541C743.923,-57.8744 766.893,-56.3323 788.54,-54.8789"/>
<polygon fill="black" stroke="black" points="788.848,-56.6123 793.72,-54.5312 788.614,-53.1201 788.848,-56.6123"/>
</g>
<!-- topo.misc.distribution.DSF_WeightedAverage -->
<g id="node22" class="node"><title>topo.misc.distribution.DSF_WeightedAverage</title>
<polygon fill="none" stroke="black" stroke-width="0.5" points="1006,-20.5 776,-20.5 776,0.5 1006,0.5 1006,-20.5"/>
<text text-anchor="middle" x="891" y="-7.5" font-family="Vera" font-size="10.00">topo.misc.distribution.DSF_WeightedAverage</text>
</g>
<!-- topo.misc.distribution.DescriptiveStatisticFn&#45;&gt;topo.misc.distribution.DSF_WeightedAverage -->
<g id="edge20" class="edge"><title>topo.misc.distribution.DescriptiveStatisticFn&#45;&gt;topo.misc.distribution.DSF_WeightedAverage</title>
<path fill="none" stroke="black" stroke-width="0.5" d="M643.219,-56.9498C673.465,-48.5906 718.335,-36.8343 758,-29 773.316,-25.9748 789.715,-23.2327 805.584,-20.8324"/>
<polygon fill="black" stroke="black" points="806.256,-22.5015 810.943,-20.0316 805.739,-19.0399 806.256,-22.5015"/>
</g>
</g>
</svg>
