<?xml version="1.0" encoding="UTF-8" standalone="no"?>
<!DOCTYPE svg PUBLIC "-//W3C//DTD SVG 1.1//EN"
 "http://www.w3.org/Graphics/SVG/1.1/DTD/svg11.dtd">
<!-- Generated by graphviz version 2.26.3 (20100126.1600)
 -->
<!-- Title: inheritance2ef9206f2c Pages: 1 -->
<svg width="600pt" height="66pt"
 viewBox="0.00 0.00 600.00 66.00" xmlns="http://www.w3.org/2000/svg" xmlns:xlink="http://www.w3.org/1999/xlink">
<g id="graph1" class="graph" transform="scale(1 1) rotate(0) translate(4 62)">
<title>inheritance2ef9206f2c</title>
<polygon fill="white" stroke="white" points="-4,5 -4,-62 597,-62 597,5 -4,5"/>
<!-- topo.base.simulation.EventProcessor -->
<g id="node1" class="node"><title>topo.base.simulation.EventProcessor</title>
<polygon fill="none" stroke="black" stroke-width="0.5" points="422,-20 238,-20 238,-1.06581e-14 422,-3.55271e-15 422,-20"/>
<text text-anchor="middle" x="330" y="-7" font-family="Vera" font-size="10.00">topo.base.simulation.EventProcessor</text>
</g>
<!-- topo.base.sheet.Sheet -->
<g id="node5" class="node"><title>topo.base.sheet.Sheet</title>
<polygon fill="none" stroke="black" stroke-width="0.5" points="592,-39 476,-39 476,-19 592,-19 592,-39"/>
<text text-anchor="middle" x="534" y="-26" font-family="Vera" font-size="10.00">topo.base.sheet.Sheet</text>
</g>
<!-- topo.base.simulation.EventProcessor&#45;&gt;topo.base.sheet.Sheet -->
<g id="edge4" class="edge"><title>topo.base.simulation.EventProcessor&#45;&gt;topo.base.sheet.Sheet</title>
<path fill="none" stroke="black" stroke-width="0.5" d="M422.152,-18.5828C438.564,-20.1114 455.319,-21.6719 470.696,-23.1041"/>
<polygon fill="black" stroke="black" points="470.715,-24.8633 475.856,-23.5846 471.04,-21.3784 470.715,-24.8633"/>
</g>
<!-- param.parameterized.Parameterized -->
<g id="node2" class="node"><title>param.parameterized.Parameterized</title>
<polygon fill="none" stroke="black" stroke-width="0.5" points="184,-20 8.52651e-14,-20 0,-1.06581e-14 184,-3.55271e-15 184,-20"/>
<text text-anchor="middle" x="92" y="-7" font-family="Vera" font-size="10.00">param.parameterized.Parameterized</text>
</g>
<!-- param.parameterized.Parameterized&#45;&gt;topo.base.simulation.EventProcessor -->
<g id="edge2" class="edge"><title>param.parameterized.Parameterized&#45;&gt;topo.base.simulation.EventProcessor</title>
<path fill="none" stroke="black" stroke-width="0.5" d="M184.017,-10C199.882,-10 216.423,-10 232.429,-10"/>
<polygon fill="black" stroke="black" points="232.835,-11.7501 237.835,-10 232.835,-8.25009 232.835,-11.7501"/>
</g>
<!-- imagen.sheetcoords.SheetCoordinateSystem -->
<g id="node4" class="node"><title>imagen.sheetcoords.SheetCoordinateSystem</title>
<polygon fill="none" stroke="black" stroke-width="0.5" points="439,-58 221,-58 221,-38 439,-38 439,-58"/>
<text text-anchor="middle" x="330" y="-45" font-family="Vera" font-size="10.00">imagen.sheetcoords.SheetCoordinateSystem</text>
</g>
<!-- imagen.sheetcoords.SheetCoordinateSystem&#45;&gt;topo.base.sheet.Sheet -->
<g id="edge6" class="edge"><title>imagen.sheetcoords.SheetCoordinateSystem&#45;&gt;topo.base.sheet.Sheet</title>
<path fill="none" stroke="black" stroke-width="0.5" d="M437.377,-37.9992C448.76,-36.939 460.054,-35.8871 470.69,-34.8965"/>
<polygon fill="black" stroke="black" points="471.039,-36.6217 475.855,-34.4154 470.715,-33.1367 471.039,-36.6217"/>
</g>
</g>
</svg>
