<?xml version="1.0" encoding="UTF-8" standalone="no"?>
<!DOCTYPE svg PUBLIC "-//W3C//DTD SVG 1.1//EN"
 "http://www.w3.org/Graphics/SVG/1.1/DTD/svg11.dtd">
<!-- Generated by graphviz version 2.26.3 (20100126.1600)
 -->
<!-- Title: inheritance1a184a655e Pages: 1 -->
<svg width="1014pt" height="237pt"
 viewBox="0.00 0.00 1014.00 237.00" xmlns="http://www.w3.org/2000/svg" xmlns:xlink="http://www.w3.org/1999/xlink">
<g id="graph1" class="graph" transform="scale(1 1) rotate(0) translate(4 233)">
<title>inheritance1a184a655e</title>
<polygon fill="white" stroke="white" points="-4,5 -4,-233 1011,-233 1011,5 -4,5"/>
<!-- topo.tests.unit.testparameterizedobject.TestPO -->
<g id="node1" class="node"><title>topo.tests.unit.testparameterizedobject.TestPO</title>
<polygon fill="none" stroke="black" stroke-width="0.5" points="619,-134 391,-134 391,-114 619,-114 619,-134"/>
<text text-anchor="middle" x="505" y="-121" font-family="Vera" font-size="10.00">topo.tests.unit.testparameterizedobject.TestPO</text>
</g>
<!-- param.parameterized.Parameterized -->
<g id="node2" class="node"><title>param.parameterized.Parameterized</title>
<polygon fill="none" stroke="black" stroke-width="0.5" points="246,-77 62,-77 62,-57 246,-57 246,-77"/>
<text text-anchor="middle" x="154" y="-64" font-family="Vera" font-size="10.00">param.parameterized.Parameterized</text>
</g>
<!-- param.parameterized.Parameterized&#45;&gt;topo.tests.unit.testparameterizedobject.TestPO -->
<g id="edge2" class="edge"><title>param.parameterized.Parameterized&#45;&gt;topo.tests.unit.testparameterizedobject.TestPO</title>
<path fill="none" stroke="black" stroke-width="0.5" d="M199.117,-77.0808C237.499,-85.4023 294.165,-97.0889 344,-105 363.347,-108.071 384.075,-110.877 404.003,-113.335"/>
<polygon fill="black" stroke="black" points="403.875,-115.082 409.051,-113.952 404.3,-111.608 403.875,-115.082"/>
</g>
<!-- topo.tests.unit.testparameterizedobject.AnotherTestPO -->
<g id="node4" class="node"><title>topo.tests.unit.testparameterizedobject.AnotherTestPO</title>
<polygon fill="none" stroke="black" stroke-width="0.5" points="638,-96 372,-96 372,-76 638,-76 638,-96"/>
<text text-anchor="middle" x="505" y="-83" font-family="Vera" font-size="10.00">topo.tests.unit.testparameterizedobject.AnotherTestPO</text>
</g>
<!-- param.parameterized.Parameterized&#45;&gt;topo.tests.unit.testparameterizedobject.AnotherTestPO -->
<g id="edge4" class="edge"><title>param.parameterized.Parameterized&#45;&gt;topo.tests.unit.testparameterizedobject.AnotherTestPO</title>
<path fill="none" stroke="black" stroke-width="0.5" d="M246.221,-71.992C282.96,-73.9808 326.039,-76.3126 366.391,-78.497"/>
<polygon fill="black" stroke="black" points="366.722,-80.2673 371.809,-78.7902 366.911,-76.7725 366.722,-80.2673"/>
</g>
<!-- param.parameterized.ParameterizedFunction -->
<g id="node8" class="node"><title>param.parameterized.ParameterizedFunction</title>
<polygon fill="none" stroke="black" stroke-width="0.5" points="616,-58 394,-58 394,-38 616,-38 616,-58"/>
<text text-anchor="middle" x="505" y="-45" font-family="Vera" font-size="10.00">param.parameterized.ParameterizedFunction</text>
</g>
<!-- param.parameterized.Parameterized&#45;&gt;param.parameterized.ParameterizedFunction -->
<g id="edge8" class="edge"><title>param.parameterized.Parameterized&#45;&gt;param.parameterized.ParameterizedFunction</title>
<path fill="none" stroke="black" stroke-width="0.5" d="M246.221,-62.008C289.728,-59.6529 342.123,-56.8167 388.355,-54.3141"/>
<polygon fill="black" stroke="black" points="388.486,-56.0597 393.384,-54.0419 388.296,-52.5648 388.486,-56.0597"/>
</g>
<!-- topo.tests.unit.testparameterizedobject.TestAbstractPO -->
<g id="node18" class="node"><title>topo.tests.unit.testparameterizedobject.TestAbstractPO</title>
<polygon fill="none" stroke="black" stroke-width="0.5" points="638,-20 372,-20 372,-1.06581e-14 638,-3.55271e-15 638,-20"/>
<text text-anchor="middle" x="505" y="-7" font-family="Vera" font-size="10.00">topo.tests.unit.testparameterizedobject.TestAbstractPO</text>
</g>
<!-- param.parameterized.Parameterized&#45;&gt;topo.tests.unit.testparameterizedobject.TestAbstractPO -->
<g id="edge16" class="edge"><title>param.parameterized.Parameterized&#45;&gt;topo.tests.unit.testparameterizedobject.TestAbstractPO</title>
<path fill="none" stroke="black" stroke-width="0.5" d="M199.117,-56.9192C237.499,-48.5977 294.165,-36.9111 344,-29 363.347,-25.9287 384.075,-23.123 404.003,-20.6655"/>
<polygon fill="black" stroke="black" points="404.3,-22.3922 409.051,-20.0482 403.875,-18.9181 404.3,-22.3922"/>
</g>
<!-- topo.tests.unit.testparameterizedobject.TestParamInstantiation -->
<g id="node6" class="node"><title>topo.tests.unit.testparameterizedobject.TestParamInstantiation</title>
<polygon fill="none" stroke="black" stroke-width="0.5" points="1005,-96 703,-96 703,-76 1005,-76 1005,-96"/>
<text text-anchor="middle" x="854" y="-83" font-family="Vera" font-size="10.00">topo.tests.unit.testparameterizedobject.TestParamInstantiation</text>
</g>
<!-- topo.tests.unit.testparameterizedobject.AnotherTestPO&#45;&gt;topo.tests.unit.testparameterizedobject.TestParamInstantiation -->
<g id="edge6" class="edge"><title>topo.tests.unit.testparameterizedobject.AnotherTestPO&#45;&gt;topo.tests.unit.testparameterizedobject.TestParamInstantiation</title>
<path fill="none" stroke="black" stroke-width="0.5" d="M638.436,-86C657.52,-86 677.299,-86 696.788,-86"/>
<polygon fill="black" stroke="black" points="697.276,-87.7501 702.276,-86 697.276,-84.2501 697.276,-87.7501"/>
</g>
<!-- topo.tests.unit.testparameterizedobject.some_fn -->
<g id="node14" class="node"><title>topo.tests.unit.testparameterizedobject.some_fn</title>
<polygon fill="none" stroke="black" stroke-width="0.5" points="972,-58 736,-58 736,-38 972,-38 972,-58"/>
<text text-anchor="middle" x="854" y="-45" font-family="Vera" font-size="10.00">topo.tests.unit.testparameterizedobject.some_fn</text>
</g>
<!-- param.parameterized.ParameterizedFunction&#45;&gt;topo.tests.unit.testparameterizedobject.some_fn -->
<g id="edge12" class="edge"><title>param.parameterized.ParameterizedFunction&#45;&gt;topo.tests.unit.testparameterizedobject.some_fn</title>
<path fill="none" stroke="black" stroke-width="0.5" d="M616.866,-48C653.067,-48 693.414,-48 730.415,-48"/>
<polygon fill="black" stroke="black" points="730.849,-49.7501 735.849,-48 730.849,-46.2501 730.849,-49.7501"/>
</g>
<!-- topo.tests.unit.testparameterizedobject.TestParameterizedFunction -->
<g id="node10" class="node"><title>topo.tests.unit.testparameterizedobject.TestParameterizedFunction</title>
<polygon fill="none" stroke="black" stroke-width="0.5" points="665,-210 345,-210 345,-190 665,-190 665,-210"/>
<text text-anchor="middle" x="505" y="-197" font-family="Vera" font-size="10.00">topo.tests.unit.testparameterizedobject.TestParameterizedFunction</text>
</g>
<!-- unittest.case.TestCase -->
<g id="node11" class="node"><title>unittest.case.TestCase</title>
<polygon fill="none" stroke="black" stroke-width="0.5" points="212,-191 96,-191 96,-171 212,-171 212,-191"/>
<text text-anchor="middle" x="154" y="-178" font-family="Vera" font-size="10.00">unittest.case.TestCase</text>
</g>
<!-- unittest.case.TestCase&#45;&gt;topo.tests.unit.testparameterizedobject.TestParameterizedFunction -->
<g id="edge10" class="edge"><title>unittest.case.TestCase&#45;&gt;topo.tests.unit.testparameterizedobject.TestParameterizedFunction</title>
<path fill="none" stroke="black" stroke-width="0.5" d="M212.355,-184.159C247.267,-186.049 293.563,-188.555 339.007,-191.015"/>
<polygon fill="black" stroke="black" points="339.169,-192.776 344.257,-191.299 339.358,-189.281 339.169,-192.776"/>
</g>
<!-- topo.tests.unit.testparameterizedobject.TestParameterized -->
<g id="node16" class="node"><title>topo.tests.unit.testparameterizedobject.TestParameterized</title>
<polygon fill="none" stroke="black" stroke-width="0.5" points="646,-172 364,-172 364,-152 646,-152 646,-172"/>
<text text-anchor="middle" x="505" y="-159" font-family="Vera" font-size="10.00">topo.tests.unit.testparameterizedobject.TestParameterized</text>
</g>
<!-- unittest.case.TestCase&#45;&gt;topo.tests.unit.testparameterizedobject.TestParameterized -->
<g id="edge14" class="edge"><title>unittest.case.TestCase&#45;&gt;topo.tests.unit.testparameterizedobject.TestParameterized</title>
<path fill="none" stroke="black" stroke-width="0.5" d="M212.355,-177.841C252.309,-175.678 307.172,-172.709 358.604,-169.925"/>
<polygon fill="black" stroke="black" points="358.992,-171.656 363.89,-169.638 358.803,-168.161 358.992,-171.656"/>
</g>
<!-- topo.tests.unit.testparameterizedobject._SomeRandomNumbers -->
<g id="node13" class="node"><title>topo.tests.unit.testparameterizedobject._SomeRandomNumbers</title>
<polygon fill="none" stroke="black" stroke-width="0.5" points="308,-229 1.7053e-13,-229 0,-209 308,-209 308,-229"/>
<text text-anchor="middle" x="154" y="-216" font-family="Vera" font-size="10.00">topo.tests.unit.testparameterizedobject._SomeRandomNumbers</text>
</g>
</g>
</svg>
