<?xml version="1.0" encoding="UTF-8" standalone="no"?>
<!DOCTYPE svg PUBLIC "-//W3C//DTD SVG 1.1//EN"
 "http://www.w3.org/Graphics/SVG/1.1/DTD/svg11.dtd">
<!-- Generated by graphviz version 2.26.3 (20100126.1600)
 -->
<!-- Title: inheritance10172fd8d9 Pages: 1 -->
<svg width="2548pt" height="180pt"
 viewBox="0.00 0.00 2548.00 180.00" xmlns="http://www.w3.org/2000/svg" xmlns:xlink="http://www.w3.org/1999/xlink">
<g id="graph1" class="graph" transform="scale(1 1) rotate(0) translate(4 176)">
<title>inheritance10172fd8d9</title>
<polygon fill="white" stroke="white" points="-4,5 -4,-176 2545,-176 2545,5 -4,5"/>
<!-- topo.tkgui.projectionpanel.ProjectionActivityPanel -->
<g id="node1" class="node"><title>topo.tkgui.projectionpanel.ProjectionActivityPanel</title>
<polygon fill="none" stroke="black" stroke-width="0.5" points="2004,-162 1762,-162 1762,-142 2004,-142 2004,-162"/>
<text text-anchor="middle" x="1883" y="-149" font-family="Vera" font-size="10.00">topo.tkgui.projectionpanel.ProjectionActivityPanel</text>
</g>
<!-- topo.tkgui.projectionpanel.ProjectionSheetPanel -->
<g id="node2" class="node"><title>topo.tkgui.projectionpanel.ProjectionSheetPanel</title>
<polygon fill="none" stroke="black" stroke-width="0.5" points="1725,-124 1491,-124 1491,-104 1725,-104 1725,-124"/>
<text text-anchor="middle" x="1608" y="-111" font-family="Vera" font-size="10.00">topo.tkgui.projectionpanel.ProjectionSheetPanel</text>
</g>
<!-- topo.tkgui.projectionpanel.ProjectionSheetPanel&#45;&gt;topo.tkgui.projectionpanel.ProjectionActivityPanel -->
<g id="edge2" class="edge"><title>topo.tkgui.projectionpanel.ProjectionSheetPanel&#45;&gt;topo.tkgui.projectionpanel.ProjectionActivityPanel</title>
<path fill="none" stroke="black" stroke-width="0.5" d="M1680.61,-124.034C1718.99,-129.337 1766.12,-135.849 1805.24,-141.255"/>
<polygon fill="black" stroke="black" points="1805.27,-143.025 1810.46,-141.976 1805.74,-139.558 1805.27,-143.025"/>
</g>
<!-- topo.tkgui.projectionpanel.PlotMatrixPanel -->
<g id="node10" class="node"><title>topo.tkgui.projectionpanel.PlotMatrixPanel</title>
<polygon fill="none" stroke="black" stroke-width="0.5" points="1988,-124 1778,-124 1778,-104 1988,-104 1988,-124"/>
<text text-anchor="middle" x="1883" y="-111" font-family="Vera" font-size="10.00">topo.tkgui.projectionpanel.PlotMatrixPanel</text>
</g>
<!-- topo.tkgui.projectionpanel.ProjectionSheetPanel&#45;&gt;topo.tkgui.projectionpanel.PlotMatrixPanel -->
<g id="edge28" class="edge"><title>topo.tkgui.projectionpanel.ProjectionSheetPanel&#45;&gt;topo.tkgui.projectionpanel.PlotMatrixPanel</title>
<path fill="none" stroke="black" stroke-width="0.5" d="M1725.82,-114C1741.15,-114 1756.8,-114 1772.01,-114"/>
<polygon fill="black" stroke="black" points="1772.15,-115.75 1777.15,-114 1772.15,-112.25 1772.15,-115.75"/>
</g>
<!-- topo.tkgui.projectionpanel.UnitsPanel -->
<g id="node22" class="node"><title>topo.tkgui.projectionpanel.UnitsPanel</title>
<polygon fill="none" stroke="black" stroke-width="0.5" points="1977,-86 1789,-86 1789,-66 1977,-66 1977,-86"/>
<text text-anchor="middle" x="1883" y="-73" font-family="Vera" font-size="10.00">topo.tkgui.projectionpanel.UnitsPanel</text>
</g>
<!-- topo.tkgui.projectionpanel.ProjectionSheetPanel&#45;&gt;topo.tkgui.projectionpanel.UnitsPanel -->
<g id="edge16" class="edge"><title>topo.tkgui.projectionpanel.ProjectionSheetPanel&#45;&gt;topo.tkgui.projectionpanel.UnitsPanel</title>
<path fill="none" stroke="black" stroke-width="0.5" d="M1680.61,-103.966C1718.99,-98.6631 1766.12,-92.1509 1805.24,-86.7453"/>
<polygon fill="black" stroke="black" points="1805.74,-88.4421 1810.46,-86.024 1805.27,-84.975 1805.74,-88.4421"/>
</g>
<!-- param.parameterized.Parameterized -->
<g id="node4" class="node"><title>param.parameterized.Parameterized</title>
<polygon fill="none" stroke="black" stroke-width="0.5" points="294,-172 110,-172 110,-152 294,-152 294,-172"/>
<text text-anchor="middle" x="202" y="-159" font-family="Vera" font-size="10.00">param.parameterized.Parameterized</text>
</g>
<!-- paramtk.TkParameterizedBase -->
<g id="node5" class="node"><title>paramtk.TkParameterizedBase</title>
<polygon fill="none" stroke="black" stroke-width="0.5" points="485,-167 331,-167 331,-147 485,-147 485,-167"/>
<text text-anchor="middle" x="408" y="-154" font-family="Vera" font-size="10.00">paramtk.TkParameterizedBase</text>
</g>
<!-- param.parameterized.Parameterized&#45;&gt;paramtk.TkParameterizedBase -->
<g id="edge4" class="edge"><title>param.parameterized.Parameterized&#45;&gt;paramtk.TkParameterizedBase</title>
<path fill="none" stroke="black" stroke-width="0.5" d="M294.155,-159.763C304.558,-159.511 315.11,-159.255 325.38,-159.005"/>
<polygon fill="black" stroke="black" points="325.442,-160.754 330.398,-158.884 325.357,-157.255 325.442,-160.754"/>
</g>
<!-- paramtk.TkParameterized -->
<g id="node7" class="node"><title>paramtk.TkParameterized</title>
<polygon fill="none" stroke="black" stroke-width="0.5" points="656,-148 522,-148 522,-128 656,-128 656,-148"/>
<text text-anchor="middle" x="589" y="-135" font-family="Vera" font-size="10.00">paramtk.TkParameterized</text>
</g>
<!-- paramtk.TkParameterizedBase&#45;&gt;paramtk.TkParameterized -->
<g id="edge6" class="edge"><title>paramtk.TkParameterizedBase&#45;&gt;paramtk.TkParameterized</title>
<path fill="none" stroke="black" stroke-width="0.5" d="M485.548,-148.86C495.938,-147.769 506.56,-146.654 516.851,-145.574"/>
<polygon fill="black" stroke="black" points="517.085,-147.309 521.875,-145.046 516.719,-143.828 517.085,-147.309"/>
</g>
<!-- topo.tkgui.plotgrouppanel.PlotGroupPanel -->
<g id="node24" class="node"><title>topo.tkgui.plotgrouppanel.PlotGroupPanel</title>
<polygon fill="none" stroke="black" stroke-width="0.5" points="901,-124 693,-124 693,-104 901,-104 901,-124"/>
<text text-anchor="middle" x="797" y="-111" font-family="Vera" font-size="10.00">topo.tkgui.plotgrouppanel.PlotGroupPanel</text>
</g>
<!-- paramtk.TkParameterized&#45;&gt;topo.tkgui.plotgrouppanel.PlotGroupPanel -->
<g id="edge36" class="edge"><title>paramtk.TkParameterized&#45;&gt;topo.tkgui.plotgrouppanel.PlotGroupPanel</title>
<path fill="none" stroke="black" stroke-width="0.5" d="M656.244,-130.241C671.841,-128.441 688.704,-126.496 705.155,-124.598"/>
<polygon fill="black" stroke="black" points="705.479,-126.322 710.245,-124.01 705.078,-122.845 705.479,-126.322"/>
</g>
<!-- topo.tkgui.projectionpanel.RFProjectionPanel -->
<g id="node9" class="node"><title>topo.tkgui.projectionpanel.RFProjectionPanel</title>
<polygon fill="none" stroke="black" stroke-width="0.5" points="2271,-162 2051,-162 2051,-142 2271,-142 2271,-162"/>
<text text-anchor="middle" x="2161" y="-149" font-family="Vera" font-size="10.00">topo.tkgui.projectionpanel.RFProjectionPanel</text>
</g>
<!-- topo.tkgui.projectionpanel.PlotMatrixPanel&#45;&gt;topo.tkgui.projectionpanel.RFProjectionPanel -->
<g id="edge8" class="edge"><title>topo.tkgui.projectionpanel.PlotMatrixPanel&#45;&gt;topo.tkgui.projectionpanel.RFProjectionPanel</title>
<path fill="none" stroke="black" stroke-width="0.5" d="M1956.4,-124.034C1995.2,-129.337 2042.84,-135.849 2082.39,-141.255"/>
<polygon fill="black" stroke="black" points="2082.48,-143.033 2087.67,-141.976 2082.95,-139.565 2082.48,-143.033"/>
</g>
<!-- topo.tkgui.projectionpanel.ProjectionPanel -->
<g id="node20" class="node"><title>topo.tkgui.projectionpanel.ProjectionPanel</title>
<polygon fill="none" stroke="black" stroke-width="0.5" points="2266,-124 2056,-124 2056,-104 2266,-104 2266,-124"/>
<text text-anchor="middle" x="2161" y="-111" font-family="Vera" font-size="10.00">topo.tkgui.projectionpanel.ProjectionPanel</text>
</g>
<!-- topo.tkgui.projectionpanel.PlotMatrixPanel&#45;&gt;topo.tkgui.projectionpanel.ProjectionPanel -->
<g id="edge32" class="edge"><title>topo.tkgui.projectionpanel.PlotMatrixPanel&#45;&gt;topo.tkgui.projectionpanel.ProjectionPanel</title>
<path fill="none" stroke="black" stroke-width="0.5" d="M1988.89,-114C2009.12,-114 2030.34,-114 2050.7,-114"/>
<polygon fill="black" stroke="black" points="2050.86,-115.75 2055.86,-114 2050.86,-112.25 2050.86,-115.75"/>
</g>
<!-- topo.tkgui.templateplotgrouppanel.TemplatePlotGroupPanel -->
<g id="node12" class="node"><title>topo.tkgui.templateplotgrouppanel.TemplatePlotGroupPanel</title>
<polygon fill="none" stroke="black" stroke-width="0.5" points="1454,-124 1162,-124 1162,-104 1454,-104 1454,-124"/>
<text text-anchor="middle" x="1308" y="-111" font-family="Vera" font-size="10.00">topo.tkgui.templateplotgrouppanel.TemplatePlotGroupPanel</text>
</g>
<!-- topo.tkgui.templateplotgrouppanel.TemplatePlotGroupPanel&#45;&gt;topo.tkgui.projectionpanel.ProjectionSheetPanel -->
<g id="edge10" class="edge"><title>topo.tkgui.templateplotgrouppanel.TemplatePlotGroupPanel&#45;&gt;topo.tkgui.projectionpanel.ProjectionSheetPanel</title>
<path fill="none" stroke="black" stroke-width="0.5" d="M1454.05,-114C1464.55,-114 1475.07,-114 1485.42,-114"/>
<polygon fill="black" stroke="black" points="1485.48,-115.75 1490.48,-114 1485.48,-112.25 1485.48,-115.75"/>
</g>
<!-- Tkinter.Pack -->
<g id="node14" class="node"><title>Tkinter.Pack</title>
<polygon fill="none" stroke="black" stroke-width="0.5" points="238,-134 166,-134 166,-114 238,-114 238,-134"/>
<text text-anchor="middle" x="202" y="-121" font-family="Vera" font-size="10.00">Tkinter.Pack</text>
</g>
<!-- Tkinter.Widget -->
<g id="node26" class="node"><title>Tkinter.Widget</title>
<polygon fill="none" stroke="black" stroke-width="0.5" points="449,-96 367,-96 367,-76 449,-76 449,-96"/>
<text text-anchor="middle" x="408" y="-83" font-family="Vera" font-size="10.00">Tkinter.Widget</text>
</g>
<!-- Tkinter.Pack&#45;&gt;Tkinter.Widget -->
<g id="edge22" class="edge"><title>Tkinter.Pack&#45;&gt;Tkinter.Widget</title>
<path fill="none" stroke="black" stroke-width="0.5" d="M238.829,-117.206C272.912,-110.919 323.761,-101.539 360.809,-94.7052"/>
<polygon fill="black" stroke="black" points="361.572,-96.344 366.171,-93.716 360.937,-92.9021 361.572,-96.344"/>
</g>
<!-- Tkinter.Place -->
<g id="node15" class="node"><title>Tkinter.Place</title>
<polygon fill="none" stroke="black" stroke-width="0.5" points="239,-96 165,-96 165,-76 239,-76 239,-96"/>
<text text-anchor="middle" x="202" y="-83" font-family="Vera" font-size="10.00">Tkinter.Place</text>
</g>
<!-- Tkinter.Place&#45;&gt;Tkinter.Widget -->
<g id="edge24" class="edge"><title>Tkinter.Place&#45;&gt;Tkinter.Widget</title>
<path fill="none" stroke="black" stroke-width="0.5" d="M239.784,-86C273.882,-86 324.179,-86 360.89,-86"/>
<polygon fill="black" stroke="black" points="361.204,-87.7501 366.204,-86 361.204,-84.2501 361.204,-87.7501"/>
</g>
<!-- topo.tkgui.plotgrouppanel.SheetPanel -->
<g id="node16" class="node"><title>topo.tkgui.plotgrouppanel.SheetPanel</title>
<polygon fill="none" stroke="black" stroke-width="0.5" points="1126,-124 938,-124 938,-104 1126,-104 1126,-124"/>
<text text-anchor="middle" x="1032" y="-111" font-family="Vera" font-size="10.00">topo.tkgui.plotgrouppanel.SheetPanel</text>
</g>
<!-- topo.tkgui.plotgrouppanel.SheetPanel&#45;&gt;topo.tkgui.templateplotgrouppanel.TemplatePlotGroupPanel -->
<g id="edge12" class="edge"><title>topo.tkgui.plotgrouppanel.SheetPanel&#45;&gt;topo.tkgui.templateplotgrouppanel.TemplatePlotGroupPanel</title>
<path fill="none" stroke="black" stroke-width="0.5" d="M1126.21,-114C1136.14,-114 1146.41,-114 1156.78,-114"/>
<polygon fill="black" stroke="black" points="1156.88,-115.75 1161.88,-114 1156.88,-112.25 1156.88,-115.75"/>
</g>
<!-- Tkinter.Grid -->
<g id="node18" class="node"><title>Tkinter.Grid</title>
<polygon fill="none" stroke="black" stroke-width="0.5" points="238,-58 166,-58 166,-38 238,-38 238,-58"/>
<text text-anchor="middle" x="202" y="-45" font-family="Vera" font-size="10.00">Tkinter.Grid</text>
</g>
<!-- Tkinter.Grid&#45;&gt;Tkinter.Widget -->
<g id="edge26" class="edge"><title>Tkinter.Grid&#45;&gt;Tkinter.Widget</title>
<path fill="none" stroke="black" stroke-width="0.5" d="M238.354,-54.7062C272.622,-61.0274 324.138,-70.5303 361.407,-77.4052"/>
<polygon fill="black" stroke="black" points="361.103,-79.1286 366.338,-78.3148 361.738,-75.6867 361.103,-79.1286"/>
</g>
<!-- topo.tkgui.projectionpanel.CFProjectionPanel -->
<g id="node19" class="node"><title>topo.tkgui.projectionpanel.CFProjectionPanel</title>
<polygon fill="none" stroke="black" stroke-width="0.5" points="2539,-124 2319,-124 2319,-104 2539,-104 2539,-124"/>
<text text-anchor="middle" x="2429" y="-111" font-family="Vera" font-size="10.00">topo.tkgui.projectionpanel.CFProjectionPanel</text>
</g>
<!-- topo.tkgui.projectionpanel.ProjectionPanel&#45;&gt;topo.tkgui.projectionpanel.CFProjectionPanel -->
<g id="edge14" class="edge"><title>topo.tkgui.projectionpanel.ProjectionPanel&#45;&gt;topo.tkgui.projectionpanel.CFProjectionPanel</title>
<path fill="none" stroke="black" stroke-width="0.5" d="M2266.15,-114C2281.57,-114 2297.52,-114 2313.13,-114"/>
<polygon fill="black" stroke="black" points="2313.41,-115.75 2318.41,-114 2313.41,-112.25 2313.41,-115.75"/>
</g>
<!-- topo.tkgui.projectionpanel.ConnectionFieldsPanel -->
<g id="node40" class="node"><title>topo.tkgui.projectionpanel.ConnectionFieldsPanel</title>
<polygon fill="none" stroke="black" stroke-width="0.5" points="2282,-86 2040,-86 2040,-66 2282,-66 2282,-86"/>
<text text-anchor="middle" x="2161" y="-73" font-family="Vera" font-size="10.00">topo.tkgui.projectionpanel.ConnectionFieldsPanel</text>
</g>
<!-- topo.tkgui.projectionpanel.UnitsPanel&#45;&gt;topo.tkgui.projectionpanel.ConnectionFieldsPanel -->
<g id="edge40" class="edge"><title>topo.tkgui.projectionpanel.UnitsPanel&#45;&gt;topo.tkgui.projectionpanel.ConnectionFieldsPanel</title>
<path fill="none" stroke="black" stroke-width="0.5" d="M1977.12,-76C1995.55,-76 2015.16,-76 2034.44,-76"/>
<polygon fill="black" stroke="black" points="2034.87,-77.7501 2039.87,-76 2034.87,-74.2501 2034.87,-77.7501"/>
</g>
<!-- topo.tkgui.plotgrouppanel.PlotGroupPanel&#45;&gt;topo.tkgui.plotgrouppanel.SheetPanel -->
<g id="edge18" class="edge"><title>topo.tkgui.plotgrouppanel.PlotGroupPanel&#45;&gt;topo.tkgui.plotgrouppanel.SheetPanel</title>
<path fill="none" stroke="black" stroke-width="0.5" d="M901.785,-114C912.093,-114 922.533,-114 932.783,-114"/>
<polygon fill="black" stroke="black" points="932.798,-115.75 937.798,-114 932.798,-112.25 932.798,-115.75"/>
</g>
<!-- Tkinter.Frame -->
<g id="node36" class="node"><title>Tkinter.Frame</title>
<polygon fill="none" stroke="black" stroke-width="0.5" points="629,-101 549,-101 549,-81 629,-81 629,-101"/>
<text text-anchor="middle" x="589" y="-88" font-family="Vera" font-size="10.00">Tkinter.Frame</text>
</g>
<!-- Tkinter.Widget&#45;&gt;Tkinter.Frame -->
<g id="edge34" class="edge"><title>Tkinter.Widget&#45;&gt;Tkinter.Frame</title>
<path fill="none" stroke="black" stroke-width="0.5" d="M449.525,-87.1471C477.429,-87.9179 514.223,-88.9343 543.013,-89.7296"/>
<polygon fill="black" stroke="black" points="543.246,-91.4866 548.292,-89.8755 543.342,-87.988 543.246,-91.4866"/>
</g>
<!-- Tkinter.BaseWidget -->
<g id="node27" class="node"><title>Tkinter.BaseWidget</title>
<polygon fill="none" stroke="black" stroke-width="0.5" points="254,-20 150,-20 150,-1.06581e-14 254,-3.55271e-15 254,-20"/>
<text text-anchor="middle" x="202" y="-7" font-family="Vera" font-size="10.00">Tkinter.BaseWidget</text>
</g>
<!-- Tkinter.BaseWidget&#45;&gt;Tkinter.Widget -->
<g id="edge20" class="edge"><title>Tkinter.BaseWidget&#45;&gt;Tkinter.Widget</title>
<path fill="none" stroke="black" stroke-width="0.5" d="M254.699,-18.4321C267.724,-21.1829 281.518,-24.6736 294,-29 327.768,-40.7044 364.304,-60.3284 386.674,-73.2202"/>
<polygon fill="black" stroke="black" points="386.024,-74.8662 391.227,-75.8637 387.781,-71.8395 386.024,-74.8662"/>
</g>
<!-- Tkinter.Misc -->
<g id="node33" class="node"><title>Tkinter.Misc</title>
<polygon fill="none" stroke="black" stroke-width="0.5" points="73,-20 1,-20 1,-1.06581e-14 73,-3.55271e-15 73,-20"/>
<text text-anchor="middle" x="37" y="-7" font-family="Vera" font-size="10.00">Tkinter.Misc</text>
</g>
<!-- Tkinter.Misc&#45;&gt;Tkinter.BaseWidget -->
<g id="edge30" class="edge"><title>Tkinter.Misc&#45;&gt;Tkinter.BaseWidget</title>
<path fill="none" stroke="black" stroke-width="0.5" d="M73.6188,-10C94.2732,-10 120.553,-10 143.949,-10"/>
<polygon fill="black" stroke="black" points="144.204,-11.7501 149.204,-10 144.204,-8.2501 144.204,-11.7501"/>
</g>
<!-- Tkinter.Frame&#45;&gt;topo.tkgui.plotgrouppanel.PlotGroupPanel -->
<g id="edge38" class="edge"><title>Tkinter.Frame&#45;&gt;topo.tkgui.plotgrouppanel.PlotGroupPanel</title>
<path fill="none" stroke="black" stroke-width="0.5" d="M629.598,-95.4892C650.103,-97.7566 675.925,-100.612 701.109,-103.397"/>
<polygon fill="black" stroke="black" points="700.974,-105.142 706.136,-103.953 701.358,-101.663 700.974,-105.142"/>
</g>
</g>
</svg>
