<?xml version="1.0" encoding="UTF-8" standalone="no"?>
<!DOCTYPE svg PUBLIC "-//W3C//DTD SVG 1.1//EN"
 "http://www.w3.org/Graphics/SVG/1.1/DTD/svg11.dtd">
<!-- Generated by graphviz version 2.26.3 (20100126.1600)
 -->
<!-- Title: inheritance0bce68b9cf Pages: 1 -->
<svg width="1872pt" height="446pt"
 viewBox="0.00 0.00 1872.00 446.00" xmlns="http://www.w3.org/2000/svg" xmlns:xlink="http://www.w3.org/1999/xlink">
<g id="graph1" class="graph" transform="scale(1 1) rotate(0) translate(4 442)">
<title>inheritance0bce68b9cf</title>
<polygon fill="white" stroke="white" points="-4,5 -4,-442 1869,-442 1869,5 -4,5"/>
<!-- topo.analysis.featureresponses.PatternPresentingCommand -->
<g id="node1" class="node"><title>topo.analysis.featureresponses.PatternPresentingCommand</title>
<polygon fill="none" stroke="black" stroke-width="0.5" points="813,-229.5 509,-229.5 509,-208.5 813,-208.5 813,-229.5"/>
<text text-anchor="middle" x="661" y="-216.5" font-family="Vera" font-size="10.00">topo.analysis.featureresponses.PatternPresentingCommand</text>
</g>
<!-- topo.analysis.featureresponses.MeasureResponseCommand -->
<g id="node5" class="node"><title>topo.analysis.featureresponses.MeasureResponseCommand</title>
<polygon fill="none" stroke="black" stroke-width="0.5" points="1165,-229.5 859,-229.5 859,-208.5 1165,-208.5 1165,-229.5"/>
<text text-anchor="middle" x="1012" y="-216.5" font-family="Vera" font-size="10.00">topo.analysis.featureresponses.MeasureResponseCommand</text>
</g>
<!-- topo.analysis.featureresponses.PatternPresentingCommand&#45;&gt;topo.analysis.featureresponses.MeasureResponseCommand -->
<g id="edge6" class="edge"><title>topo.analysis.featureresponses.PatternPresentingCommand&#45;&gt;topo.analysis.featureresponses.MeasureResponseCommand</title>
<path fill="none" stroke="black" stroke-width="0.5" d="M813.677,-219C826.734,-219 839.963,-219 853.067,-219"/>
<polygon fill="black" stroke="black" points="853.278,-220.75 858.278,-219 853.278,-217.25 853.278,-220.75"/>
</g>
<!-- param.parameterized.ParameterizedFunction -->
<g id="node2" class="node"><title>param.parameterized.ParameterizedFunction</title>
<polygon fill="none" stroke="black" stroke-width="0.5" points="464,-143.5 230,-143.5 230,-122.5 464,-122.5 464,-143.5"/>
<text text-anchor="middle" x="347" y="-130.5" font-family="Vera" font-size="10.00">param.parameterized.ParameterizedFunction</text>
</g>
<!-- param.parameterized.ParameterizedFunction&#45;&gt;topo.analysis.featureresponses.PatternPresentingCommand -->
<g id="edge2" class="edge"><title>param.parameterized.ParameterizedFunction&#45;&gt;topo.analysis.featureresponses.PatternPresentingCommand</title>
<path fill="none" stroke="black" stroke-width="0.5" d="M376.715,-143.023C407.406,-153.21 456.778,-169.136 500,-181 536.41,-190.994 577.883,-200.745 609.618,-207.867"/>
<polygon fill="black" stroke="black" points="609.364,-209.603 614.625,-208.987 610.128,-206.187 609.364,-209.603"/>
</g>
<!-- topo.plotting.plotgroup.ProjectionSheetMeasurementCommand -->
<g id="node17" class="node"><title>topo.plotting.plotgroup.ProjectionSheetMeasurementCommand</title>
<polygon fill="none" stroke="black" stroke-width="0.5" points="822,-172.5 500,-172.5 500,-151.5 822,-151.5 822,-172.5"/>
<text text-anchor="middle" x="661" y="-159.5" font-family="Vera" font-size="10.00">topo.plotting.plotgroup.ProjectionSheetMeasurementCommand</text>
</g>
<!-- param.parameterized.ParameterizedFunction&#45;&gt;topo.plotting.plotgroup.ProjectionSheetMeasurementCommand -->
<g id="edge40" class="edge"><title>param.parameterized.ParameterizedFunction&#45;&gt;topo.plotting.plotgroup.ProjectionSheetMeasurementCommand</title>
<path fill="none" stroke="black" stroke-width="0.5" d="M455.501,-143.021C485.161,-145.76 517.382,-148.736 547.323,-151.501"/>
<polygon fill="black" stroke="black" points="547.355,-153.262 552.495,-151.979 547.677,-149.776 547.355,-153.262"/>
</g>
<!-- topo.command.analysis.save_plotgroup -->
<g id="node58" class="node"><title>topo.command.analysis.save_plotgroup</title>
<polygon fill="none" stroke="black" stroke-width="0.5" points="765,-134.5 557,-134.5 557,-113.5 765,-113.5 765,-134.5"/>
<text text-anchor="middle" x="661" y="-121.5" font-family="Vera" font-size="10.00">topo.command.analysis.save_plotgroup</text>
</g>
<!-- param.parameterized.ParameterizedFunction&#45;&gt;topo.command.analysis.save_plotgroup -->
<g id="edge58" class="edge"><title>param.parameterized.ParameterizedFunction&#45;&gt;topo.command.analysis.save_plotgroup</title>
<path fill="none" stroke="black" stroke-width="0.5" d="M464.369,-129.636C492.984,-128.816 523.479,-127.942 551.702,-127.133"/>
<polygon fill="black" stroke="black" points="551.997,-128.875 556.945,-126.982 551.897,-125.377 551.997,-128.875"/>
</g>
<!-- topo.analysis.featureresponses.SingleInputResponseCommand -->
<g id="node4" class="node"><title>topo.analysis.featureresponses.SingleInputResponseCommand</title>
<polygon fill="none" stroke="black" stroke-width="0.5" points="1539,-381.5 1221,-381.5 1221,-360.5 1539,-360.5 1539,-381.5"/>
<text text-anchor="middle" x="1380" y="-368.5" font-family="Vera" font-size="10.00">topo.analysis.featureresponses.SingleInputResponseCommand</text>
</g>
<!-- topo.command.analysis.measure_rfs -->
<g id="node51" class="node"><title>topo.command.analysis.measure_rfs</title>
<polygon fill="none" stroke="black" stroke-width="0.5" points="1826,-438.5 1632,-438.5 1632,-417.5 1826,-417.5 1826,-438.5"/>
<text text-anchor="middle" x="1729" y="-425.5" font-family="Vera" font-size="10.00">topo.command.analysis.measure_rfs</text>
</g>
<!-- topo.analysis.featureresponses.SingleInputResponseCommand&#45;&gt;topo.command.analysis.measure_rfs -->
<g id="edge50" class="edge"><title>topo.analysis.featureresponses.SingleInputResponseCommand&#45;&gt;topo.command.analysis.measure_rfs</title>
<path fill="none" stroke="black" stroke-width="0.5" d="M1433.56,-381.06C1476.79,-389.048 1539.22,-400.284 1594,-409 1611.84,-411.838 1631.04,-414.673 1649.21,-417.254"/>
<polygon fill="black" stroke="black" points="1649.11,-419.007 1654.3,-417.975 1649.6,-415.542 1649.11,-419.007"/>
</g>
<!-- topo.analysis.featureresponses.MeasureResponseCommand&#45;&gt;topo.analysis.featureresponses.SingleInputResponseCommand -->
<g id="edge4" class="edge"><title>topo.analysis.featureresponses.MeasureResponseCommand&#45;&gt;topo.analysis.featureresponses.SingleInputResponseCommand</title>
<path fill="none" stroke="black" stroke-width="0.5" d="M1029.91,-229.125C1063.11,-247.625 1136.76,-287.43 1202,-314 1247.4,-332.491 1301.2,-349.008 1337.68,-359.441"/>
<polygon fill="black" stroke="black" points="1337.65,-361.251 1342.94,-360.936 1338.61,-357.884 1337.65,-361.251"/>
</g>
<!-- topo.command.analysis.measure_log_frequency_preference -->
<g id="node8" class="node"><title>topo.command.analysis.measure_log_frequency_preference</title>
<polygon fill="none" stroke="black" stroke-width="0.5" points="1533,-305.5 1227,-305.5 1227,-284.5 1533,-284.5 1533,-305.5"/>
<text text-anchor="middle" x="1380" y="-292.5" font-family="Vera" font-size="10.00">topo.command.analysis.measure_log_frequency_preference</text>
</g>
<!-- topo.analysis.featureresponses.MeasureResponseCommand&#45;&gt;topo.command.analysis.measure_log_frequency_preference -->
<g id="edge8" class="edge"><title>topo.analysis.featureresponses.MeasureResponseCommand&#45;&gt;topo.command.analysis.measure_log_frequency_preference</title>
<path fill="none" stroke="black" stroke-width="0.5" d="M1039.6,-229.042C1076.21,-241.955 1143.09,-264.126 1202,-276 1218.29,-279.283 1235.54,-282.024 1252.64,-284.305"/>
<polygon fill="black" stroke="black" points="1252.75,-286.085 1257.94,-284.999 1253.21,-282.615 1252.75,-286.085"/>
</g>
<!-- topo.analysis.featureresponses.SinusoidalMeasureResponseCommand -->
<g id="node14" class="node"><title>topo.analysis.featureresponses.SinusoidalMeasureResponseCommand</title>
<polygon fill="none" stroke="black" stroke-width="0.5" points="1558,-267.5 1202,-267.5 1202,-246.5 1558,-246.5 1558,-267.5"/>
<text text-anchor="middle" x="1380" y="-254.5" font-family="Vera" font-size="10.00">topo.analysis.featureresponses.SinusoidalMeasureResponseCommand</text>
</g>
<!-- topo.analysis.featureresponses.MeasureResponseCommand&#45;&gt;topo.analysis.featureresponses.SinusoidalMeasureResponseCommand -->
<g id="edge44" class="edge"><title>topo.analysis.featureresponses.MeasureResponseCommand&#45;&gt;topo.analysis.featureresponses.SinusoidalMeasureResponseCommand</title>
<path fill="none" stroke="black" stroke-width="0.5" d="M1109.17,-229.034C1161.15,-234.402 1225.14,-241.009 1277.86,-246.453"/>
<polygon fill="black" stroke="black" points="1277.77,-248.203 1282.93,-246.976 1278.13,-244.722 1277.77,-248.203"/>
</g>
<!-- topo.analysis.featureresponses.PositionMeasurementCommand -->
<g id="node24" class="node"><title>topo.analysis.featureresponses.PositionMeasurementCommand</title>
<polygon fill="none" stroke="black" stroke-width="0.5" points="1542,-229.5 1218,-229.5 1218,-208.5 1542,-208.5 1542,-229.5"/>
<text text-anchor="middle" x="1380" y="-216.5" font-family="Vera" font-size="10.00">topo.analysis.featureresponses.PositionMeasurementCommand</text>
</g>
<!-- topo.analysis.featureresponses.MeasureResponseCommand&#45;&gt;topo.analysis.featureresponses.PositionMeasurementCommand -->
<g id="edge22" class="edge"><title>topo.analysis.featureresponses.MeasureResponseCommand&#45;&gt;topo.analysis.featureresponses.PositionMeasurementCommand</title>
<path fill="none" stroke="black" stroke-width="0.5" d="M1165.67,-219C1181.16,-219 1196.95,-219 1212.58,-219"/>
<polygon fill="black" stroke="black" points="1212.87,-220.75 1217.87,-219 1212.87,-217.25 1212.87,-220.75"/>
</g>
<!-- topo.command.analysis.measure_frequency_preference -->
<g id="node32" class="node"><title>topo.command.analysis.measure_frequency_preference</title>
<polygon fill="none" stroke="black" stroke-width="0.5" points="1523,-191.5 1237,-191.5 1237,-170.5 1523,-170.5 1523,-191.5"/>
<text text-anchor="middle" x="1380" y="-178.5" font-family="Vera" font-size="10.00">topo.command.analysis.measure_frequency_preference</text>
</g>
<!-- topo.analysis.featureresponses.MeasureResponseCommand&#45;&gt;topo.command.analysis.measure_frequency_preference -->
<g id="edge30" class="edge"><title>topo.analysis.featureresponses.MeasureResponseCommand&#45;&gt;topo.command.analysis.measure_frequency_preference</title>
<path fill="none" stroke="black" stroke-width="0.5" d="M1109.17,-208.966C1161.15,-203.598 1225.14,-196.991 1277.86,-191.547"/>
<polygon fill="black" stroke="black" points="1278.13,-193.278 1282.93,-191.024 1277.77,-189.797 1278.13,-193.278"/>
</g>
<!-- topo.command.analysis.measure_latency_preference -->
<g id="node34" class="node"><title>topo.command.analysis.measure_latency_preference</title>
<polygon fill="none" stroke="black" stroke-width="0.5" points="1517,-153.5 1243,-153.5 1243,-132.5 1517,-132.5 1517,-153.5"/>
<text text-anchor="middle" x="1380" y="-140.5" font-family="Vera" font-size="10.00">topo.command.analysis.measure_latency_preference</text>
</g>
<!-- topo.analysis.featureresponses.MeasureResponseCommand&#45;&gt;topo.command.analysis.measure_latency_preference -->
<g id="edge32" class="edge"><title>topo.analysis.featureresponses.MeasureResponseCommand&#45;&gt;topo.command.analysis.measure_latency_preference</title>
<path fill="none" stroke="black" stroke-width="0.5" d="M1066.43,-208.953C1096.36,-202.595 1133.83,-193.248 1166,-181 1182.91,-174.563 1184.7,-167.277 1202,-162 1213.44,-158.51 1225.47,-155.64 1237.65,-153.283"/>
<polygon fill="black" stroke="black" points="1238.29,-154.944 1242.88,-152.303 1237.64,-151.504 1238.29,-154.944"/>
</g>
<!-- imagen.patterngenerator.PatternGenerator -->
<g id="node10" class="node"><title>imagen.patterngenerator.PatternGenerator</title>
<polygon fill="none" stroke="black" stroke-width="0.5" points="459,-86.5 235,-86.5 235,-65.5 459,-65.5 459,-86.5"/>
<text text-anchor="middle" x="347" y="-73.5" font-family="Vera" font-size="10.00">imagen.patterngenerator.PatternGenerator</text>
</g>
<!-- topo.command.analysis.latency_mapper -->
<g id="node21" class="node"><title>topo.command.analysis.latency_mapper</title>
<polygon fill="none" stroke="black" stroke-width="0.5" points="767,-96.5 555,-96.5 555,-75.5 767,-75.5 767,-96.5"/>
<text text-anchor="middle" x="661" y="-83.5" font-family="Vera" font-size="10.00">topo.command.analysis.latency_mapper</text>
</g>
<!-- imagen.patterngenerator.PatternGenerator&#45;&gt;topo.command.analysis.latency_mapper -->
<g id="edge18" class="edge"><title>imagen.patterngenerator.PatternGenerator&#45;&gt;topo.command.analysis.latency_mapper</title>
<path fill="none" stroke="black" stroke-width="0.5" d="M459.031,-79.5679C488.501,-80.5064 520.279,-81.5184 549.709,-82.4557"/>
<polygon fill="black" stroke="black" points="549.739,-84.2075 554.792,-82.6176 549.851,-80.7092 549.739,-84.2075"/>
</g>
<!-- topo.command.analysis.log_frequency_mapper -->
<g id="node26" class="node"><title>topo.command.analysis.log_frequency_mapper</title>
<polygon fill="none" stroke="black" stroke-width="0.5" points="783,-58.5 539,-58.5 539,-37.5 783,-37.5 783,-58.5"/>
<text text-anchor="middle" x="661" y="-45.5" font-family="Vera" font-size="10.00">topo.command.analysis.log_frequency_mapper</text>
</g>
<!-- imagen.patterngenerator.PatternGenerator&#45;&gt;topo.command.analysis.log_frequency_mapper -->
<g id="edge24" class="edge"><title>imagen.patterngenerator.PatternGenerator&#45;&gt;topo.command.analysis.log_frequency_mapper</title>
<path fill="none" stroke="black" stroke-width="0.5" d="M459.031,-66.0099C486.472,-63.563 515.915,-60.9375 543.6,-58.4688"/>
<polygon fill="black" stroke="black" points="543.923,-60.197 548.748,-58.0098 543.612,-56.7109 543.923,-60.197"/>
</g>
<!-- topo.command.analysis.frequency_mapper -->
<g id="node56" class="node"><title>topo.command.analysis.frequency_mapper</title>
<polygon fill="none" stroke="black" stroke-width="0.5" points="773,-20.5 549,-20.5 549,0.5 773,0.5 773,-20.5"/>
<text text-anchor="middle" x="661" y="-7.5" font-family="Vera" font-size="10.00">topo.command.analysis.frequency_mapper</text>
</g>
<!-- imagen.patterngenerator.PatternGenerator&#45;&gt;topo.command.analysis.frequency_mapper -->
<g id="edge56" class="edge"><title>imagen.patterngenerator.PatternGenerator&#45;&gt;topo.command.analysis.frequency_mapper</title>
<path fill="none" stroke="black" stroke-width="0.5" d="M437.742,-65.9338C446.796,-63.553 455.7,-60.6177 464,-57 482.582,-48.9014 481.247,-36.6924 500,-29 513.686,-23.3861 528.539,-19.2765 543.502,-16.2901"/>
<polygon fill="black" stroke="black" points="543.997,-17.9774 548.58,-15.3199 543.34,-14.5396 543.997,-17.9774"/>
</g>
<!-- param.parameterized.Parameterized -->
<g id="node11" class="node"><title>param.parameterized.Parameterized</title>
<polygon fill="none" stroke="black" stroke-width="0.5" points="194,-86.5 5.68434e-14,-86.5 0,-65.5 194,-65.5 194,-86.5"/>
<text text-anchor="middle" x="97" y="-73.5" font-family="Vera" font-size="10.00">param.parameterized.Parameterized</text>
</g>
<!-- param.parameterized.Parameterized&#45;&gt;param.parameterized.ParameterizedFunction -->
<g id="edge20" class="edge"><title>param.parameterized.Parameterized&#45;&gt;param.parameterized.ParameterizedFunction</title>
<path fill="none" stroke="black" stroke-width="0.5" d="M141.12,-86.0592C185.075,-96.0811 252.414,-111.434 298.007,-121.83"/>
<polygon fill="black" stroke="black" points="297.638,-123.54 302.902,-122.946 298.416,-120.128 297.638,-123.54"/>
</g>
<!-- param.parameterized.Parameterized&#45;&gt;imagen.patterngenerator.PatternGenerator -->
<g id="edge10" class="edge"><title>param.parameterized.Parameterized&#45;&gt;imagen.patterngenerator.PatternGenerator</title>
<path fill="none" stroke="black" stroke-width="0.5" d="M194.014,-76C205.664,-76 217.655,-76 229.554,-76"/>
<polygon fill="black" stroke="black" points="229.647,-77.7501 234.647,-76 229.647,-74.2501 229.647,-77.7501"/>
</g>
<!-- topo.command.analysis.PatternPresenter2 -->
<g id="node40" class="node"><title>topo.command.analysis.PatternPresenter2</title>
<polygon fill="none" stroke="black" stroke-width="0.5" points="457,-48.5 237,-48.5 237,-27.5 457,-27.5 457,-48.5"/>
<text text-anchor="middle" x="347" y="-35.5" font-family="Vera" font-size="10.00">topo.command.analysis.PatternPresenter2</text>
</g>
<!-- param.parameterized.Parameterized&#45;&gt;topo.command.analysis.PatternPresenter2 -->
<g id="edge38" class="edge"><title>param.parameterized.Parameterized&#45;&gt;topo.command.analysis.PatternPresenter2</title>
<path fill="none" stroke="black" stroke-width="0.5" d="M163.012,-65.9662C197.758,-60.6848 240.394,-54.204 275.872,-48.8115"/>
<polygon fill="black" stroke="black" points="276.372,-50.5056 281.052,-48.024 275.846,-47.0454 276.372,-50.5056"/>
</g>
<!-- topo.command.analysis.measure_or_pref -->
<g id="node13" class="node"><title>topo.command.analysis.measure_or_pref</title>
<polygon fill="none" stroke="black" stroke-width="0.5" points="1837,-400.5 1621,-400.5 1621,-379.5 1837,-379.5 1837,-400.5"/>
<text text-anchor="middle" x="1729" y="-387.5" font-family="Vera" font-size="10.00">topo.command.analysis.measure_or_pref</text>
</g>
<!-- topo.analysis.featureresponses.SinusoidalMeasureResponseCommand&#45;&gt;topo.command.analysis.measure_or_pref -->
<g id="edge12" class="edge"><title>topo.analysis.featureresponses.SinusoidalMeasureResponseCommand&#45;&gt;topo.command.analysis.measure_or_pref</title>
<path fill="none" stroke="black" stroke-width="0.5" d="M1544.41,-267.092C1549.15,-269.718 1553.69,-272.676 1558,-276 1593.74,-303.593 1558.73,-342.813 1594,-371 1600.66,-376.323 1608.12,-380.524 1616.02,-383.813"/>
<polygon fill="black" stroke="black" points="1615.7,-385.566 1621,-385.745 1616.97,-382.303 1615.7,-385.566"/>
</g>
<!-- topo.command.analysis.measure_second_or_pref -->
<g id="node19" class="node"><title>topo.command.analysis.measure_second_or_pref</title>
<polygon fill="none" stroke="black" stroke-width="0.5" points="1857,-362.5 1601,-362.5 1601,-341.5 1857,-341.5 1857,-362.5"/>
<text text-anchor="middle" x="1729" y="-349.5" font-family="Vera" font-size="10.00">topo.command.analysis.measure_second_or_pref</text>
</g>
<!-- topo.analysis.featureresponses.SinusoidalMeasureResponseCommand&#45;&gt;topo.command.analysis.measure_second_or_pref -->
<g id="edge16" class="edge"><title>topo.analysis.featureresponses.SinusoidalMeasureResponseCommand&#45;&gt;topo.command.analysis.measure_second_or_pref</title>
<path fill="none" stroke="black" stroke-width="0.5" d="M1541.03,-267.105C1546.91,-269.682 1552.59,-272.632 1558,-276 1583.44,-291.837 1568.83,-316.739 1594,-333 1597.94,-335.547 1602.08,-337.813 1606.37,-339.827"/>
<polygon fill="black" stroke="black" points="1605.79,-341.486 1611.07,-341.915 1607.21,-338.287 1605.79,-341.486"/>
</g>
<!-- topo.command.analysis.measure_sine_pref -->
<g id="node28" class="node"><title>topo.command.analysis.measure_sine_pref</title>
<polygon fill="none" stroke="black" stroke-width="0.5" points="1842,-324.5 1616,-324.5 1616,-303.5 1842,-303.5 1842,-324.5"/>
<text text-anchor="middle" x="1729" y="-311.5" font-family="Vera" font-size="10.00">topo.command.analysis.measure_sine_pref</text>
</g>
<!-- topo.analysis.featureresponses.SinusoidalMeasureResponseCommand&#45;&gt;topo.command.analysis.measure_sine_pref -->
<g id="edge26" class="edge"><title>topo.analysis.featureresponses.SinusoidalMeasureResponseCommand&#45;&gt;topo.command.analysis.measure_sine_pref</title>
<path fill="none" stroke="black" stroke-width="0.5" d="M1520.93,-267.009C1533.59,-269.417 1546.11,-272.374 1558,-276 1575.3,-281.277 1576.79,-289.434 1594,-295 1603.68,-298.129 1613.91,-300.743 1624.24,-302.926"/>
<polygon fill="black" stroke="black" points="1624.06,-304.677 1629.31,-303.964 1624.76,-301.248 1624.06,-304.677"/>
</g>
<!-- topo.command.analysis.measure_phasedisparity -->
<g id="node30" class="node"><title>topo.command.analysis.measure_phasedisparity</title>
<polygon fill="none" stroke="black" stroke-width="0.5" points="1855,-286.5 1603,-286.5 1603,-265.5 1855,-265.5 1855,-286.5"/>
<text text-anchor="middle" x="1729" y="-273.5" font-family="Vera" font-size="10.00">topo.command.analysis.measure_phasedisparity</text>
</g>
<!-- topo.analysis.featureresponses.SinusoidalMeasureResponseCommand&#45;&gt;topo.command.analysis.measure_phasedisparity -->
<g id="edge28" class="edge"><title>topo.analysis.featureresponses.SinusoidalMeasureResponseCommand&#45;&gt;topo.command.analysis.measure_phasedisparity</title>
<path fill="none" stroke="black" stroke-width="0.5" d="M1558.08,-266.695C1571.43,-267.422 1584.75,-268.147 1597.74,-268.854"/>
<polygon fill="black" stroke="black" points="1597.8,-270.61 1602.89,-269.134 1597.99,-267.115 1597.8,-270.61"/>
</g>
<!-- topo.command.analysis.measure_hue_pref -->
<g id="node38" class="node"><title>topo.command.analysis.measure_hue_pref</title>
<polygon fill="none" stroke="black" stroke-width="0.5" points="1841,-248.5 1617,-248.5 1617,-227.5 1841,-227.5 1841,-248.5"/>
<text text-anchor="middle" x="1729" y="-235.5" font-family="Vera" font-size="10.00">topo.command.analysis.measure_hue_pref</text>
</g>
<!-- topo.analysis.featureresponses.SinusoidalMeasureResponseCommand&#45;&gt;topo.command.analysis.measure_hue_pref -->
<g id="edge36" class="edge"><title>topo.analysis.featureresponses.SinusoidalMeasureResponseCommand&#45;&gt;topo.command.analysis.measure_hue_pref</title>
<path fill="none" stroke="black" stroke-width="0.5" d="M1558.08,-247.305C1576.2,-246.319 1594.27,-245.335 1611.51,-244.396"/>
<polygon fill="black" stroke="black" points="1611.94,-246.126 1616.83,-244.107 1611.74,-242.631 1611.94,-246.126"/>
</g>
<!-- topo.command.analysis.measure_dr_pref -->
<g id="node46" class="node"><title>topo.command.analysis.measure_dr_pref</title>
<polygon fill="none" stroke="black" stroke-width="0.5" points="1837,-210.5 1621,-210.5 1621,-189.5 1837,-189.5 1837,-210.5"/>
<text text-anchor="middle" x="1729" y="-197.5" font-family="Vera" font-size="10.00">topo.command.analysis.measure_dr_pref</text>
</g>
<!-- topo.analysis.featureresponses.SinusoidalMeasureResponseCommand&#45;&gt;topo.command.analysis.measure_dr_pref -->
<g id="edge46" class="edge"><title>topo.analysis.featureresponses.SinusoidalMeasureResponseCommand&#45;&gt;topo.command.analysis.measure_dr_pref</title>
<path fill="none" stroke="black" stroke-width="0.5" d="M1520.93,-246.991C1533.59,-244.583 1546.11,-241.626 1558,-238 1575.3,-232.723 1576.79,-224.566 1594,-219 1603.68,-215.871 1613.91,-213.257 1624.24,-211.074"/>
<polygon fill="black" stroke="black" points="1624.76,-212.752 1629.31,-210.036 1624.06,-209.323 1624.76,-212.752"/>
</g>
<!-- topo.command.analysis.measure_od_pref -->
<g id="node60" class="node"><title>topo.command.analysis.measure_od_pref</title>
<polygon fill="none" stroke="black" stroke-width="0.5" points="1838,-172.5 1620,-172.5 1620,-151.5 1838,-151.5 1838,-172.5"/>
<text text-anchor="middle" x="1729" y="-159.5" font-family="Vera" font-size="10.00">topo.command.analysis.measure_od_pref</text>
</g>
<!-- topo.analysis.featureresponses.SinusoidalMeasureResponseCommand&#45;&gt;topo.command.analysis.measure_od_pref -->
<g id="edge60" class="edge"><title>topo.analysis.featureresponses.SinusoidalMeasureResponseCommand&#45;&gt;topo.command.analysis.measure_od_pref</title>
<path fill="none" stroke="black" stroke-width="0.5" d="M1541.03,-246.895C1546.91,-244.318 1552.59,-241.368 1558,-238 1583.44,-222.163 1568.83,-197.261 1594,-181 1600.46,-176.825 1607.46,-173.405 1614.75,-170.613"/>
<polygon fill="black" stroke="black" points="1615.73,-172.12 1619.84,-168.78 1614.54,-168.827 1615.73,-172.12"/>
</g>
<!-- topo.command.analysis.update_projectionactivity -->
<g id="node16" class="node"><title>topo.command.analysis.update_projectionactivity</title>
<polygon fill="none" stroke="black" stroke-width="0.5" points="1139,-172.5 885,-172.5 885,-151.5 1139,-151.5 1139,-172.5"/>
<text text-anchor="middle" x="1012" y="-159.5" font-family="Vera" font-size="10.00">topo.command.analysis.update_projectionactivity</text>
</g>
<!-- topo.plotting.plotgroup.ProjectionSheetMeasurementCommand&#45;&gt;topo.command.analysis.update_projectionactivity -->
<g id="edge14" class="edge"><title>topo.plotting.plotgroup.ProjectionSheetMeasurementCommand&#45;&gt;topo.command.analysis.update_projectionactivity</title>
<path fill="none" stroke="black" stroke-width="0.5" d="M822.118,-162C841.391,-162 860.898,-162 879.699,-162"/>
<polygon fill="black" stroke="black" points="879.982,-163.75 884.982,-162 879.982,-160.25 879.982,-163.75"/>
</g>
<!-- topo.plotting.plotgroup.UnitMeasurementCommand -->
<g id="node49" class="node"><title>topo.plotting.plotgroup.UnitMeasurementCommand</title>
<polygon fill="none" stroke="black" stroke-width="0.5" points="1145,-115.5 879,-115.5 879,-94.5 1145,-94.5 1145,-115.5"/>
<text text-anchor="middle" x="1012" y="-102.5" font-family="Vera" font-size="10.00">topo.plotting.plotgroup.UnitMeasurementCommand</text>
</g>
<!-- topo.plotting.plotgroup.ProjectionSheetMeasurementCommand&#45;&gt;topo.plotting.plotgroup.UnitMeasurementCommand -->
<g id="edge52" class="edge"><title>topo.plotting.plotgroup.ProjectionSheetMeasurementCommand&#45;&gt;topo.plotting.plotgroup.UnitMeasurementCommand</title>
<path fill="none" stroke="black" stroke-width="0.5" d="M756.949,-151.952C778.402,-149.351 801.013,-146.332 822,-143 869.694,-135.429 923.644,-124.4 961.836,-116.172"/>
<polygon fill="black" stroke="black" points="962.366,-117.848 966.883,-115.081 961.626,-114.427 962.366,-117.848"/>
</g>
<!-- topo.command.analysis.measure_corner_or_pref -->
<g id="node36" class="node"><title>topo.command.analysis.measure_corner_or_pref</title>
<polygon fill="none" stroke="black" stroke-width="0.5" points="1855,-134.5 1603,-134.5 1603,-113.5 1855,-113.5 1855,-134.5"/>
<text text-anchor="middle" x="1729" y="-121.5" font-family="Vera" font-size="10.00">topo.command.analysis.measure_corner_or_pref</text>
</g>
<!-- topo.analysis.featureresponses.PositionMeasurementCommand&#45;&gt;topo.command.analysis.measure_corner_or_pref -->
<g id="edge34" class="edge"><title>topo.analysis.featureresponses.PositionMeasurementCommand&#45;&gt;topo.command.analysis.measure_corner_or_pref</title>
<path fill="none" stroke="black" stroke-width="0.5" d="M1541.03,-208.895C1546.91,-206.318 1552.59,-203.368 1558,-200 1583.44,-184.163 1568.83,-159.261 1594,-143 1597.94,-140.453 1602.08,-138.187 1606.37,-136.173"/>
<polygon fill="black" stroke="black" points="1607.21,-137.713 1611.07,-134.085 1605.79,-134.514 1607.21,-137.713"/>
</g>
<!-- topo.command.analysis.measure_corner_angle_pref -->
<g id="node43" class="node"><title>topo.command.analysis.measure_corner_angle_pref</title>
<polygon fill="none" stroke="black" stroke-width="0.5" points="1863,-96.5 1595,-96.5 1595,-75.5 1863,-75.5 1863,-96.5"/>
<text text-anchor="middle" x="1729" y="-83.5" font-family="Vera" font-size="10.00">topo.command.analysis.measure_corner_angle_pref</text>
</g>
<!-- topo.analysis.featureresponses.PositionMeasurementCommand&#45;&gt;topo.command.analysis.measure_corner_angle_pref -->
<g id="edge42" class="edge"><title>topo.analysis.featureresponses.PositionMeasurementCommand&#45;&gt;topo.command.analysis.measure_corner_angle_pref</title>
<path fill="none" stroke="black" stroke-width="0.5" d="M1542.37,-210.014C1547.84,-207.119 1553.08,-203.798 1558,-200 1593.74,-172.407 1558.73,-133.187 1594,-105 1596.92,-102.664 1600,-100.543 1603.2,-98.6215"/>
<polygon fill="black" stroke="black" points="1604.14,-100.1 1607.64,-96.122 1602.43,-97.0502 1604.14,-100.1"/>
</g>
<!-- topo.command.analysis.update_projection -->
<g id="node48" class="node"><title>topo.command.analysis.update_projection</title>
<polygon fill="none" stroke="black" stroke-width="0.5" points="1490,-115.5 1270,-115.5 1270,-94.5 1490,-94.5 1490,-115.5"/>
<text text-anchor="middle" x="1380" y="-102.5" font-family="Vera" font-size="10.00">topo.command.analysis.update_projection</text>
</g>
<!-- topo.plotting.plotgroup.UnitMeasurementCommand&#45;&gt;topo.command.analysis.update_projection -->
<g id="edge48" class="edge"><title>topo.plotting.plotgroup.UnitMeasurementCommand&#45;&gt;topo.command.analysis.update_projection</title>
<path fill="none" stroke="black" stroke-width="0.5" d="M1145.12,-105C1184.11,-105 1226.42,-105 1264.24,-105"/>
<polygon fill="black" stroke="black" points="1264.3,-106.75 1269.3,-105 1264.3,-103.25 1264.3,-106.75"/>
</g>
<!-- topo.command.analysis.update_connectionfields -->
<g id="node54" class="node"><title>topo.command.analysis.update_connectionfields</title>
<polygon fill="none" stroke="black" stroke-width="0.5" points="1505,-77.5 1255,-77.5 1255,-56.5 1505,-56.5 1505,-77.5"/>
<text text-anchor="middle" x="1380" y="-64.5" font-family="Vera" font-size="10.00">topo.command.analysis.update_connectionfields</text>
</g>
<!-- topo.plotting.plotgroup.UnitMeasurementCommand&#45;&gt;topo.command.analysis.update_connectionfields -->
<g id="edge54" class="edge"><title>topo.plotting.plotgroup.UnitMeasurementCommand&#45;&gt;topo.command.analysis.update_connectionfields</title>
<path fill="none" stroke="black" stroke-width="0.5" d="M1109.17,-94.9662C1161.15,-89.5982 1225.14,-82.9912 1277.86,-77.5472"/>
<polygon fill="black" stroke="black" points="1278.13,-79.2785 1282.93,-77.024 1277.77,-75.797 1278.13,-79.2785"/>
</g>
</g>
</svg>
