<?xml version="1.0" encoding="UTF-8" standalone="no"?>
<!DOCTYPE svg PUBLIC "-//W3C//DTD SVG 1.1//EN"
 "http://www.w3.org/Graphics/SVG/1.1/DTD/svg11.dtd">
<!-- Generated by graphviz version 2.26.3 (20100126.1600)
 -->
<!-- Title: inheritance5c943e4cbf Pages: 1 -->
<svg width="600pt" height="66pt"
 viewBox="0.00 0.00 600.00 66.00" xmlns="http://www.w3.org/2000/svg" xmlns:xlink="http://www.w3.org/1999/xlink">
<g id="graph1" class="graph" transform="scale(1 1) rotate(0) translate(4 62)">
<title>inheritance5c943e4cbf</title>
<polygon fill="white" stroke="white" points="-4,5 -4,-62 597,-62 597,5 -4,5"/>
<!-- param.parameterized.Parameterized -->
<g id="node1" class="node"><title>param.parameterized.Parameterized</title>
<polygon fill="none" stroke="black" stroke-width="0.5" points="184,-39 8.52651e-14,-39 0,-19 184,-19 184,-39"/>
<text text-anchor="middle" x="92" y="-26" font-family="Vera" font-size="10.00">param.parameterized.Parameterized</text>
</g>
<!-- topo.base.sheetview.SheetView -->
<g id="node3" class="node"><title>topo.base.sheetview.SheetView</title>
<polygon fill="none" stroke="black" stroke-width="0.5" points="378,-39 220,-39 220,-19 378,-19 378,-39"/>
<text text-anchor="middle" x="299" y="-26" font-family="Vera" font-size="10.00">topo.base.sheetview.SheetView</text>
</g>
<!-- param.parameterized.Parameterized&#45;&gt;topo.base.sheetview.SheetView -->
<g id="edge4" class="edge"><title>param.parameterized.Parameterized&#45;&gt;topo.base.sheetview.SheetView</title>
<path fill="none" stroke="black" stroke-width="0.5" d="M184.3,-29C194.399,-29 204.642,-29 214.638,-29"/>
<polygon fill="black" stroke="black" points="214.841,-30.7501 219.841,-29 214.841,-27.2501 214.841,-30.7501"/>
</g>
<!-- topo.base.sheetview.UnitView -->
<g id="node2" class="node"><title>topo.base.sheetview.UnitView</title>
<polygon fill="none" stroke="black" stroke-width="0.5" points="578,-58 428,-58 428,-38 578,-38 578,-58"/>
<text text-anchor="middle" x="503" y="-45" font-family="Vera" font-size="10.00">topo.base.sheetview.UnitView</text>
</g>
<!-- topo.base.sheetview.SheetView&#45;&gt;topo.base.sheetview.UnitView -->
<g id="edge2" class="edge"><title>topo.base.sheetview.SheetView&#45;&gt;topo.base.sheetview.UnitView</title>
<path fill="none" stroke="black" stroke-width="0.5" d="M378.164,-36.3731C392.527,-37.7109 407.528,-39.108 421.945,-40.4508"/>
<polygon fill="black" stroke="black" points="422.087,-42.2215 427.228,-40.9428 422.412,-38.7366 422.087,-42.2215"/>
</g>
<!-- topo.base.sheetview.ProjectionView -->
<g id="node6" class="node"><title>topo.base.sheetview.ProjectionView</title>
<polygon fill="none" stroke="black" stroke-width="0.5" points="592,-20 414,-20 414,-1.06581e-14 592,-3.55271e-15 592,-20"/>
<text text-anchor="middle" x="503" y="-7" font-family="Vera" font-size="10.00">topo.base.sheetview.ProjectionView</text>
</g>
<!-- topo.base.sheetview.SheetView&#45;&gt;topo.base.sheetview.ProjectionView -->
<g id="edge6" class="edge"><title>topo.base.sheetview.SheetView&#45;&gt;topo.base.sheetview.ProjectionView</title>
<path fill="none" stroke="black" stroke-width="0.5" d="M378.164,-21.6269C388.174,-20.6946 398.493,-19.7335 408.708,-18.7821"/>
<polygon fill="black" stroke="black" points="408.897,-20.5222 413.713,-18.316 408.572,-17.0373 408.897,-20.5222"/>
</g>
</g>
</svg>
