<?xml version="1.0" encoding="UTF-8" standalone="no"?>
<!DOCTYPE svg PUBLIC "-//W3C//DTD SVG 1.1//EN"
 "http://www.w3.org/Graphics/SVG/1.1/DTD/svg11.dtd">
<!-- Generated by graphviz version 2.26.3 (20100126.1600)
 -->
<!-- Title: inheritance814dd881d7 Pages: 1 -->
<svg width="874pt" height="161pt"
 viewBox="0.00 0.00 874.00 161.00" xmlns="http://www.w3.org/2000/svg" xmlns:xlink="http://www.w3.org/1999/xlink">
<g id="graph1" class="graph" transform="scale(1 1) rotate(0) translate(4 157)">
<title>inheritance814dd881d7</title>
<polygon fill="white" stroke="white" points="-4,5 -4,-157 871,-157 871,5 -4,5"/>
<!-- topo.misc.trace.ActivityMovie -->
<g id="node1" class="node"><title>topo.misc.trace.ActivityMovie</title>
<polygon fill="none" stroke="black" stroke-width="0.5" points="405,-153.5 249,-153.5 249,-132.5 405,-132.5 405,-153.5"/>
<text text-anchor="middle" x="327" y="-140.5" font-family="Vera" font-size="10.00">topo.misc.trace.ActivityMovie</text>
</g>
<!-- param.parameterized.Parameterized -->
<g id="node2" class="node"><title>param.parameterized.Parameterized</title>
<polygon fill="none" stroke="black" stroke-width="0.5" points="194,-96.5 5.68434e-14,-96.5 0,-75.5 194,-75.5 194,-96.5"/>
<text text-anchor="middle" x="97" y="-83.5" font-family="Vera" font-size="10.00">param.parameterized.Parameterized</text>
</g>
<!-- param.parameterized.Parameterized&#45;&gt;topo.misc.trace.ActivityMovie -->
<g id="edge2" class="edge"><title>param.parameterized.Parameterized&#45;&gt;topo.misc.trace.ActivityMovie</title>
<path fill="none" stroke="black" stroke-width="0.5" d="M129.318,-96.0662C156.126,-104.215 195.326,-115.667 230,-124 241.68,-126.807 254.224,-129.5 266.288,-131.93"/>
<polygon fill="black" stroke="black" points="266.179,-133.693 271.425,-132.956 266.864,-130.261 266.179,-133.693"/>
</g>
<!-- topo.base.simulation.EventProcessor -->
<g id="node4" class="node"><title>topo.base.simulation.EventProcessor</title>
<polygon fill="none" stroke="black" stroke-width="0.5" points="424,-115.5 230,-115.5 230,-94.5 424,-94.5 424,-115.5"/>
<text text-anchor="middle" x="327" y="-102.5" font-family="Vera" font-size="10.00">topo.base.simulation.EventProcessor</text>
</g>
<!-- param.parameterized.Parameterized&#45;&gt;topo.base.simulation.EventProcessor -->
<g id="edge4" class="edge"><title>param.parameterized.Parameterized&#45;&gt;topo.base.simulation.EventProcessor</title>
<path fill="none" stroke="black" stroke-width="0.5" d="M194.207,-94.0302C204.23,-94.8581 214.438,-95.7014 224.515,-96.5339"/>
<polygon fill="black" stroke="black" points="224.645,-98.3004 229.772,-96.9681 224.933,-94.8123 224.645,-98.3004"/>
</g>
<!-- topo.misc.trace.Trace -->
<g id="node7" class="node"><title>topo.misc.trace.Trace</title>
<polygon fill="none" stroke="black" stroke-width="0.5" points="386,-77.5 268,-77.5 268,-56.5 386,-56.5 386,-77.5"/>
<text text-anchor="middle" x="327" y="-64.5" font-family="Vera" font-size="10.00">topo.misc.trace.Trace</text>
</g>
<!-- param.parameterized.Parameterized&#45;&gt;topo.misc.trace.Trace -->
<g id="edge10" class="edge"><title>param.parameterized.Parameterized&#45;&gt;topo.misc.trace.Trace</title>
<path fill="none" stroke="black" stroke-width="0.5" d="M194.207,-77.9698C217.248,-76.0664 241.266,-74.0824 262.439,-72.3333"/>
<polygon fill="black" stroke="black" points="262.635,-74.0731 267.474,-71.9173 262.347,-70.585 262.635,-74.0731"/>
</g>
<!-- topo.misc.trace.TraceGroup -->
<g id="node13" class="node"><title>topo.misc.trace.TraceGroup</title>
<polygon fill="none" stroke="black" stroke-width="0.5" points="401,-39.5 253,-39.5 253,-18.5 401,-18.5 401,-39.5"/>
<text text-anchor="middle" x="327" y="-26.5" font-family="Vera" font-size="10.00">topo.misc.trace.TraceGroup</text>
</g>
<!-- param.parameterized.Parameterized&#45;&gt;topo.misc.trace.TraceGroup -->
<g id="edge12" class="edge"><title>param.parameterized.Parameterized&#45;&gt;topo.misc.trace.TraceGroup</title>
<path fill="none" stroke="black" stroke-width="0.5" d="M129.318,-75.9338C156.126,-67.7854 195.326,-56.3334 230,-48 241.68,-45.193 254.224,-42.5004 266.288,-40.0696"/>
<polygon fill="black" stroke="black" points="266.864,-41.7393 271.425,-39.0443 266.179,-38.307 266.864,-41.7393"/>
</g>
<!-- topo.misc.trace.DataRecorder -->
<g id="node10" class="node"><title>topo.misc.trace.DataRecorder</title>
<polygon fill="none" stroke="black" stroke-width="0.5" points="633,-134.5 473,-134.5 473,-113.5 633,-113.5 633,-134.5"/>
<text text-anchor="middle" x="553" y="-121.5" font-family="Vera" font-size="10.00">topo.misc.trace.DataRecorder</text>
</g>
<!-- topo.base.simulation.EventProcessor&#45;&gt;topo.misc.trace.DataRecorder -->
<g id="edge18" class="edge"><title>topo.base.simulation.EventProcessor&#45;&gt;topo.misc.trace.DataRecorder</title>
<path fill="none" stroke="black" stroke-width="0.5" d="M424.156,-113.168C438.647,-114.386 453.492,-115.634 467.714,-116.83"/>
<polygon fill="black" stroke="black" points="467.794,-118.593 472.923,-117.268 468.087,-115.105 467.794,-118.593"/>
</g>
<!-- topo.misc.trace.IdentityTrace -->
<g id="node6" class="node"><title>topo.misc.trace.IdentityTrace</title>
<polygon fill="none" stroke="black" stroke-width="0.5" points="630,-96.5 476,-96.5 476,-75.5 630,-75.5 630,-96.5"/>
<text text-anchor="middle" x="553" y="-83.5" font-family="Vera" font-size="10.00">topo.misc.trace.IdentityTrace</text>
</g>
<!-- topo.misc.trace.Trace&#45;&gt;topo.misc.trace.IdentityTrace -->
<g id="edge6" class="edge"><title>topo.misc.trace.Trace&#45;&gt;topo.misc.trace.IdentityTrace</title>
<path fill="none" stroke="black" stroke-width="0.5" d="M386.674,-72.0169C412.282,-74.1697 442.63,-76.7211 470.347,-79.0513"/>
<polygon fill="black" stroke="black" points="470.361,-80.8086 475.49,-79.4837 470.655,-77.3209 470.361,-80.8086"/>
</g>
<!-- topo.misc.trace.IndexTrace -->
<g id="node15" class="node"><title>topo.misc.trace.IndexTrace</title>
<polygon fill="none" stroke="black" stroke-width="0.5" points="625,-58.5 481,-58.5 481,-37.5 625,-37.5 625,-58.5"/>
<text text-anchor="middle" x="553" y="-45.5" font-family="Vera" font-size="10.00">topo.misc.trace.IndexTrace</text>
</g>
<!-- topo.misc.trace.Trace&#45;&gt;topo.misc.trace.IndexTrace -->
<g id="edge14" class="edge"><title>topo.misc.trace.Trace&#45;&gt;topo.misc.trace.IndexTrace</title>
<path fill="none" stroke="black" stroke-width="0.5" d="M386.674,-61.9831C413.872,-59.6966 446.417,-56.9606 475.477,-54.5174"/>
<polygon fill="black" stroke="black" points="475.648,-56.2593 480.484,-54.0965 475.355,-52.7716 475.648,-56.2593"/>
</g>
<!-- topo.misc.trace.SheetPositionTrace -->
<g id="node17" class="node"><title>topo.misc.trace.SheetPositionTrace</title>
<polygon fill="none" stroke="black" stroke-width="0.5" points="645,-20.5 461,-20.5 461,0.5 645,0.5 645,-20.5"/>
<text text-anchor="middle" x="553" y="-7.5" font-family="Vera" font-size="10.00">topo.misc.trace.SheetPositionTrace</text>
</g>
<!-- topo.misc.trace.Trace&#45;&gt;topo.misc.trace.SheetPositionTrace -->
<g id="edge16" class="edge"><title>topo.misc.trace.Trace&#45;&gt;topo.misc.trace.SheetPositionTrace</title>
<path fill="none" stroke="black" stroke-width="0.5" d="M386.728,-58.1495C399.225,-55.5096 412.188,-52.172 424,-48 441.059,-41.9748 442.966,-35.0943 460,-29 468.379,-26.0024 477.361,-23.424 486.319,-21.2213"/>
<polygon fill="black" stroke="black" points="486.831,-22.8982 491.289,-20.036 486.019,-19.4937 486.831,-22.8982"/>
</g>
<!-- topo.misc.trace.InMemoryRecorder -->
<g id="node9" class="node"><title>topo.misc.trace.InMemoryRecorder</title>
<polygon fill="none" stroke="black" stroke-width="0.5" points="866,-134.5 682,-134.5 682,-113.5 866,-113.5 866,-134.5"/>
<text text-anchor="middle" x="774" y="-121.5" font-family="Vera" font-size="10.00">topo.misc.trace.InMemoryRecorder</text>
</g>
<!-- topo.misc.trace.DataRecorder&#45;&gt;topo.misc.trace.InMemoryRecorder -->
<g id="edge8" class="edge"><title>topo.misc.trace.DataRecorder&#45;&gt;topo.misc.trace.InMemoryRecorder</title>
<path fill="none" stroke="black" stroke-width="0.5" d="M633.099,-124C647.181,-124 661.977,-124 676.472,-124"/>
<polygon fill="black" stroke="black" points="676.797,-125.75 681.796,-124 676.796,-122.25 676.797,-125.75"/>
</g>
</g>
</svg>
