<?xml version="1.0" encoding="UTF-8" standalone="no"?>
<!DOCTYPE svg PUBLIC "-//W3C//DTD SVG 1.1//EN"
 "http://www.w3.org/Graphics/SVG/1.1/DTD/svg11.dtd">
<!-- Generated by graphviz version 2.26.3 (20100126.1600)
 -->
<!-- Title: inheritancef4cea304dd Pages: 1 -->
<svg width="1124pt" height="284pt"
 viewBox="0.00 0.00 1124.00 284.00" xmlns="http://www.w3.org/2000/svg" xmlns:xlink="http://www.w3.org/1999/xlink">
<g id="graph1" class="graph" transform="scale(1 1) rotate(0) translate(4 280)">
<title>inheritancef4cea304dd</title>
<polygon fill="white" stroke="white" points="-4,5 -4,-280 1121,-280 1121,5 -4,5"/>
<!-- topo.base.projection.ProjectionSheet -->
<g id="node1" class="node"><title>topo.base.projection.ProjectionSheet</title>
<polygon fill="none" stroke="black" stroke-width="0.5" points="898,-181.5 704,-181.5 704,-160.5 898,-160.5 898,-181.5"/>
<text text-anchor="middle" x="801" y="-168.5" font-family="Vera" font-size="10.00">topo.base.projection.ProjectionSheet</text>
</g>
<!-- topo.base.cf.CFSheet -->
<g id="node24" class="node"><title>topo.base.cf.CFSheet</title>
<polygon fill="none" stroke="black" stroke-width="0.5" points="1084,-181.5 966,-181.5 966,-160.5 1084,-160.5 1084,-181.5"/>
<text text-anchor="middle" x="1025" y="-168.5" font-family="Vera" font-size="10.00">topo.base.cf.CFSheet</text>
</g>
<!-- topo.base.projection.ProjectionSheet&#45;&gt;topo.base.cf.CFSheet -->
<g id="edge20" class="edge"><title>topo.base.projection.ProjectionSheet&#45;&gt;topo.base.cf.CFSheet</title>
<path fill="none" stroke="black" stroke-width="0.5" d="M898.272,-171C919.101,-171 940.622,-171 959.885,-171"/>
<polygon fill="black" stroke="black" points="960.255,-172.75 965.255,-171 960.255,-169.25 960.255,-172.75"/>
</g>
<!-- topo.base.sheet.Sheet -->
<g id="node2" class="node"><title>topo.base.sheet.Sheet</title>
<polygon fill="none" stroke="black" stroke-width="0.5" points="648,-181.5 522,-181.5 522,-160.5 648,-160.5 648,-181.5"/>
<text text-anchor="middle" x="585" y="-168.5" font-family="Vera" font-size="10.00">topo.base.sheet.Sheet</text>
</g>
<!-- topo.base.sheet.Sheet&#45;&gt;topo.base.projection.ProjectionSheet -->
<g id="edge2" class="edge"><title>topo.base.sheet.Sheet&#45;&gt;topo.base.projection.ProjectionSheet</title>
<path fill="none" stroke="black" stroke-width="0.5" d="M648.057,-171C663.856,-171 681.216,-171 698.394,-171"/>
<polygon fill="black" stroke="black" points="698.717,-172.75 703.717,-171 698.717,-169.25 698.717,-172.75"/>
</g>
<!-- topo.base.cf.CFPLF_Identity -->
<g id="node4" class="node"><title>topo.base.cf.CFPLF_Identity</title>
<polygon fill="none" stroke="black" stroke-width="0.5" points="658,-276.5 512,-276.5 512,-255.5 658,-255.5 658,-276.5"/>
<text text-anchor="middle" x="585" y="-263.5" font-family="Vera" font-size="10.00">topo.base.cf.CFPLF_Identity</text>
</g>
<!-- topo.base.cf.CFPLearningFn -->
<g id="node5" class="node"><title>topo.base.cf.CFPLearningFn</title>
<polygon fill="none" stroke="black" stroke-width="0.5" points="422,-248.5 274,-248.5 274,-227.5 422,-227.5 422,-248.5"/>
<text text-anchor="middle" x="348" y="-235.5" font-family="Vera" font-size="10.00">topo.base.cf.CFPLearningFn</text>
</g>
<!-- topo.base.cf.CFPLearningFn&#45;&gt;topo.base.cf.CFPLF_Identity -->
<g id="edge4" class="edge"><title>topo.base.cf.CFPLearningFn&#45;&gt;topo.base.cf.CFPLF_Identity</title>
<path fill="none" stroke="black" stroke-width="0.5" d="M422.663,-246.821C449.231,-249.96 479.222,-253.503 506.131,-256.682"/>
<polygon fill="black" stroke="black" points="505.948,-258.423 511.118,-257.271 506.358,-254.947 505.948,-258.423"/>
</g>
<!-- topo.base.cf.CFPLF_Plugin -->
<g id="node36" class="node"><title>topo.base.cf.CFPLF_Plugin</title>
<polygon fill="none" stroke="black" stroke-width="0.5" points="655,-238.5 515,-238.5 515,-217.5 655,-217.5 655,-238.5"/>
<text text-anchor="middle" x="585" y="-225.5" font-family="Vera" font-size="10.00">topo.base.cf.CFPLF_Plugin</text>
</g>
<!-- topo.base.cf.CFPLearningFn&#45;&gt;topo.base.cf.CFPLF_Plugin -->
<g id="edge32" class="edge"><title>topo.base.cf.CFPLearningFn&#45;&gt;topo.base.cf.CFPLF_Plugin</title>
<path fill="none" stroke="black" stroke-width="0.5" d="M422.663,-234.85C450.381,-233.68 481.824,-232.353 509.606,-231.181"/>
<polygon fill="black" stroke="black" points="509.828,-232.923 514.75,-230.964 509.68,-229.427 509.828,-232.923"/>
</g>
<!-- topo.base.simulation.EventProcessor -->
<g id="node7" class="node"><title>topo.base.simulation.EventProcessor</title>
<polygon fill="none" stroke="black" stroke-width="0.5" points="445,-210.5 251,-210.5 251,-189.5 445,-189.5 445,-210.5"/>
<text text-anchor="middle" x="348" y="-197.5" font-family="Vera" font-size="10.00">topo.base.simulation.EventProcessor</text>
</g>
<!-- topo.base.simulation.EventProcessor&#45;&gt;topo.base.sheet.Sheet -->
<g id="edge6" class="edge"><title>topo.base.simulation.EventProcessor&#45;&gt;topo.base.sheet.Sheet</title>
<path fill="none" stroke="black" stroke-width="0.5" d="M429.894,-189.979C458.234,-186.511 489.672,-182.665 516.794,-179.346"/>
<polygon fill="black" stroke="black" points="517.056,-181.077 521.806,-178.733 516.631,-177.603 517.056,-181.077"/>
</g>
<!-- imagen.sheetcoords.SheetCoordinateSystem -->
<g id="node9" class="node"><title>imagen.sheetcoords.SheetCoordinateSystem</title>
<polygon fill="none" stroke="black" stroke-width="0.5" points="466,-172.5 230,-172.5 230,-151.5 466,-151.5 466,-172.5"/>
<text text-anchor="middle" x="348" y="-159.5" font-family="Vera" font-size="10.00">imagen.sheetcoords.SheetCoordinateSystem</text>
</g>
<!-- imagen.sheetcoords.SheetCoordinateSystem&#45;&gt;topo.base.sheet.Sheet -->
<g id="edge8" class="edge"><title>imagen.sheetcoords.SheetCoordinateSystem&#45;&gt;topo.base.sheet.Sheet</title>
<path fill="none" stroke="black" stroke-width="0.5" d="M466.153,-166.487C483.445,-167.143 500.748,-167.801 516.587,-168.402"/>
<polygon fill="black" stroke="black" points="516.838,-170.163 521.901,-168.604 516.971,-166.665 516.838,-170.163"/>
</g>
<!-- topo.base.cf.NullCFError -->
<g id="node11" class="node"><title>topo.base.cf.NullCFError</title>
<polygon fill="none" stroke="black" stroke-width="0.5" points="162,-172.5 32,-172.5 32,-151.5 162,-151.5 162,-172.5"/>
<text text-anchor="middle" x="97" y="-159.5" font-family="Vera" font-size="10.00">topo.base.cf.NullCFError</text>
</g>
<!-- topo.base.cf.CFPRF_Plugin -->
<g id="node12" class="node"><title>topo.base.cf.CFPRF_Plugin</title>
<polygon fill="none" stroke="black" stroke-width="0.5" points="655,-134.5 515,-134.5 515,-113.5 655,-113.5 655,-134.5"/>
<text text-anchor="middle" x="585" y="-121.5" font-family="Vera" font-size="10.00">topo.base.cf.CFPRF_Plugin</text>
</g>
<!-- topo.base.cf.CFPResponseFn -->
<g id="node13" class="node"><title>topo.base.cf.CFPResponseFn</title>
<polygon fill="none" stroke="black" stroke-width="0.5" points="424,-134.5 272,-134.5 272,-113.5 424,-113.5 424,-134.5"/>
<text text-anchor="middle" x="348" y="-121.5" font-family="Vera" font-size="10.00">topo.base.cf.CFPResponseFn</text>
</g>
<!-- topo.base.cf.CFPResponseFn&#45;&gt;topo.base.cf.CFPRF_Plugin -->
<g id="edge10" class="edge"><title>topo.base.cf.CFPResponseFn&#45;&gt;topo.base.cf.CFPRF_Plugin</title>
<path fill="none" stroke="black" stroke-width="0.5" d="M424.62,-124C451.738,-124 482.215,-124 509.259,-124"/>
<polygon fill="black" stroke="black" points="509.268,-125.75 514.268,-124 509.268,-122.25 509.268,-125.75"/>
</g>
<!-- topo.base.projection.Projection -->
<g id="node15" class="node"><title>topo.base.projection.Projection</title>
<polygon fill="none" stroke="black" stroke-width="0.5" points="667,-96.5 503,-96.5 503,-75.5 667,-75.5 667,-96.5"/>
<text text-anchor="middle" x="585" y="-83.5" font-family="Vera" font-size="10.00">topo.base.projection.Projection</text>
</g>
<!-- topo.base.cf.CFProjection -->
<g id="node21" class="node"><title>topo.base.cf.CFProjection</title>
<polygon fill="none" stroke="black" stroke-width="0.5" points="869,-96.5 733,-96.5 733,-75.5 869,-75.5 869,-96.5"/>
<text text-anchor="middle" x="801" y="-83.5" font-family="Vera" font-size="10.00">topo.base.cf.CFProjection</text>
</g>
<!-- topo.base.projection.Projection&#45;&gt;topo.base.cf.CFProjection -->
<g id="edge22" class="edge"><title>topo.base.projection.Projection&#45;&gt;topo.base.cf.CFProjection</title>
<path fill="none" stroke="black" stroke-width="0.5" d="M667.585,-86C687.071,-86 707.728,-86 726.817,-86"/>
<polygon fill="black" stroke="black" points="727.157,-87.7501 732.157,-86 727.157,-84.2501 727.157,-87.7501"/>
</g>
<!-- topo.base.simulation.EPConnection -->
<g id="node16" class="node"><title>topo.base.simulation.EPConnection</title>
<polygon fill="none" stroke="black" stroke-width="0.5" points="441,-96.5 255,-96.5 255,-75.5 441,-75.5 441,-96.5"/>
<text text-anchor="middle" x="348" y="-83.5" font-family="Vera" font-size="10.00">topo.base.simulation.EPConnection</text>
</g>
<!-- topo.base.simulation.EPConnection&#45;&gt;topo.base.projection.Projection -->
<g id="edge12" class="edge"><title>topo.base.simulation.EPConnection&#45;&gt;topo.base.projection.Projection</title>
<path fill="none" stroke="black" stroke-width="0.5" d="M441.328,-86C459.681,-86 478.878,-86 497.046,-86"/>
<polygon fill="black" stroke="black" points="497.142,-87.7501 502.142,-86 497.142,-84.2501 497.142,-87.7501"/>
</g>
<!-- param.parameterized.Parameterized -->
<g id="node18" class="node"><title>param.parameterized.Parameterized</title>
<polygon fill="none" stroke="black" stroke-width="0.5" points="194,-134.5 5.68434e-14,-134.5 0,-113.5 194,-113.5 194,-134.5"/>
<text text-anchor="middle" x="97" y="-121.5" font-family="Vera" font-size="10.00">param.parameterized.Parameterized</text>
</g>
<!-- param.parameterized.Parameterized&#45;&gt;topo.base.cf.CFPLearningFn -->
<g id="edge18" class="edge"><title>param.parameterized.Parameterized&#45;&gt;topo.base.cf.CFPLearningFn</title>
<path fill="none" stroke="black" stroke-width="0.5" d="M178.93,-134.004C184.301,-136.453 189.394,-139.419 194,-143 223.505,-165.943 200.111,-196.559 230,-219 241.158,-227.378 254.595,-232.665 268.345,-235.908"/>
<polygon fill="black" stroke="black" points="268.163,-237.659 273.421,-237.012 268.907,-234.239 268.163,-237.659"/>
</g>
<!-- param.parameterized.Parameterized&#45;&gt;topo.base.simulation.EventProcessor -->
<g id="edge14" class="edge"><title>param.parameterized.Parameterized&#45;&gt;topo.base.simulation.EventProcessor</title>
<path fill="none" stroke="black" stroke-width="0.5" d="M172.778,-134.022C180.177,-136.411 187.384,-139.361 194,-143 214.384,-154.213 209.43,-170.133 230,-181 235.303,-183.802 240.914,-186.213 246.694,-188.286"/>
<polygon fill="black" stroke="black" points="246.289,-189.997 251.586,-189.95 247.415,-186.683 246.289,-189.997"/>
</g>
<!-- param.parameterized.Parameterized&#45;&gt;topo.base.cf.CFPResponseFn -->
<g id="edge34" class="edge"><title>param.parameterized.Parameterized&#45;&gt;topo.base.cf.CFPResponseFn</title>
<path fill="none" stroke="black" stroke-width="0.5" d="M194.043,-124C217.898,-124 243.201,-124 266.253,-124"/>
<polygon fill="black" stroke="black" points="266.443,-125.75 271.443,-124 266.443,-122.25 266.443,-125.75"/>
</g>
<!-- param.parameterized.Parameterized&#45;&gt;topo.base.simulation.EPConnection -->
<g id="edge26" class="edge"><title>param.parameterized.Parameterized&#45;&gt;topo.base.simulation.EPConnection</title>
<path fill="none" stroke="black" stroke-width="0.5" d="M163.276,-113.966C198.161,-108.685 240.968,-102.204 276.587,-96.8115"/>
<polygon fill="black" stroke="black" points="277.107,-98.5029 281.789,-96.024 276.583,-95.0423 277.107,-98.5029"/>
</g>
<!-- topo.base.cf.CFPOutputFn -->
<g id="node28" class="node"><title>topo.base.cf.CFPOutputFn</title>
<polygon fill="none" stroke="black" stroke-width="0.5" points="418,-58.5 278,-58.5 278,-37.5 418,-37.5 418,-58.5"/>
<text text-anchor="middle" x="348" y="-45.5" font-family="Vera" font-size="10.00">topo.base.cf.CFPOutputFn</text>
</g>
<!-- param.parameterized.Parameterized&#45;&gt;topo.base.cf.CFPOutputFn -->
<g id="edge30" class="edge"><title>param.parameterized.Parameterized&#45;&gt;topo.base.cf.CFPOutputFn</title>
<path fill="none" stroke="black" stroke-width="0.5" d="M116.274,-113.949C141.663,-101.132 188.018,-79.1752 230,-67 243.578,-63.0622 258.287,-59.8746 272.563,-57.3168"/>
<polygon fill="black" stroke="black" points="273.175,-58.9865 277.8,-56.4028 272.574,-55.5386 273.175,-58.9865"/>
</g>
<!-- topo.base.cf.ResizableCFProjection -->
<g id="node20" class="node"><title>topo.base.cf.ResizableCFProjection</title>
<polygon fill="none" stroke="black" stroke-width="0.5" points="1116,-96.5 934,-96.5 934,-75.5 1116,-75.5 1116,-96.5"/>
<text text-anchor="middle" x="1025" y="-83.5" font-family="Vera" font-size="10.00">topo.base.cf.ResizableCFProjection</text>
</g>
<!-- topo.base.cf.CFProjection&#45;&gt;topo.base.cf.ResizableCFProjection -->
<g id="edge16" class="edge"><title>topo.base.cf.CFProjection&#45;&gt;topo.base.cf.ResizableCFProjection</title>
<path fill="none" stroke="black" stroke-width="0.5" d="M869.73,-86C888.343,-86 908.841,-86 928.67,-86"/>
<polygon fill="black" stroke="black" points="928.696,-87.7501 933.696,-86 928.696,-84.2501 928.696,-87.7501"/>
</g>
<!-- topo.base.cf.CFPOF_Plugin -->
<g id="node27" class="node"><title>topo.base.cf.CFPOF_Plugin</title>
<polygon fill="none" stroke="black" stroke-width="0.5" points="656,-58.5 514,-58.5 514,-37.5 656,-37.5 656,-58.5"/>
<text text-anchor="middle" x="585" y="-45.5" font-family="Vera" font-size="10.00">topo.base.cf.CFPOF_Plugin</text>
</g>
<!-- topo.base.cf.CFPOutputFn&#45;&gt;topo.base.cf.CFPOF_Plugin -->
<g id="edge24" class="edge"><title>topo.base.cf.CFPOutputFn&#45;&gt;topo.base.cf.CFPOF_Plugin</title>
<path fill="none" stroke="black" stroke-width="0.5" d="M418.146,-48C446.415,-48 479.116,-48 508.038,-48"/>
<polygon fill="black" stroke="black" points="508.392,-49.7501 513.392,-48 508.392,-46.2501 508.392,-49.7501"/>
</g>
<!-- topo.base.cf.CFPOF_Identity -->
<g id="node31" class="node"><title>topo.base.cf.CFPOF_Identity</title>
<polygon fill="none" stroke="black" stroke-width="0.5" points="659,-20.5 511,-20.5 511,0.5 659,0.5 659,-20.5"/>
<text text-anchor="middle" x="585" y="-7.5" font-family="Vera" font-size="10.00">topo.base.cf.CFPOF_Identity</text>
</g>
<!-- topo.base.cf.CFPOutputFn&#45;&gt;topo.base.cf.CFPOF_Identity -->
<g id="edge28" class="edge"><title>topo.base.cf.CFPOutputFn&#45;&gt;topo.base.cf.CFPOF_Identity</title>
<path fill="none" stroke="black" stroke-width="0.5" d="M410.579,-37.9662C443.384,-32.7064 483.607,-26.2571 517.157,-20.8779"/>
<polygon fill="black" stroke="black" points="517.822,-22.5436 522.482,-20.024 517.268,-19.0878 517.822,-22.5436"/>
</g>
<!-- topo.base.cf.CFIter -->
<g id="node33" class="node"><title>topo.base.cf.CFIter</title>
<polygon fill="none" stroke="black" stroke-width="0.5" points="150,-210.5 44,-210.5 44,-189.5 150,-189.5 150,-210.5"/>
<text text-anchor="middle" x="97" y="-197.5" font-family="Vera" font-size="10.00">topo.base.cf.CFIter</text>
</g>
<!-- topo.base.cf.ConnectionField -->
<g id="node34" class="node"><title>topo.base.cf.ConnectionField</title>
<polygon fill="none" stroke="black" stroke-width="0.5" points="173,-248.5 21,-248.5 21,-227.5 173,-227.5 173,-248.5"/>
<text text-anchor="middle" x="97" y="-235.5" font-family="Vera" font-size="10.00">topo.base.cf.ConnectionField</text>
</g>
</g>
</svg>
