<?xml version="1.0" encoding="UTF-8" standalone="no"?>
<!DOCTYPE svg PUBLIC "-//W3C//DTD SVG 1.1//EN"
 "http://www.w3.org/Graphics/SVG/1.1/DTD/svg11.dtd">
<!-- Generated by graphviz version 2.26.3 (20100126.1600)
 -->
<!-- Title: inheritance09fca71fec Pages: 1 -->
<svg width="1140pt" height="180pt"
 viewBox="0.00 0.00 1140.00 180.00" xmlns="http://www.w3.org/2000/svg" xmlns:xlink="http://www.w3.org/1999/xlink">
<g id="graph1" class="graph" transform="scale(1 1) rotate(0) translate(4 176)">
<title>inheritance09fca71fec</title>
<polygon fill="white" stroke="white" points="-4,5 -4,-176 1137,-176 1137,5 -4,5"/>
<!-- Tkinter.Menu -->
<g id="node1" class="node"><title>Tkinter.Menu</title>
<polygon fill="none" stroke="black" stroke-width="0.5" points="622,-134.5 546,-134.5 546,-113.5 622,-113.5 622,-134.5"/>
<text text-anchor="middle" x="584" y="-121.5" font-family="Vera" font-size="10.00">Tkinter.Menu</text>
</g>
<!-- paramtk.Menu -->
<g id="node5" class="node"><title>paramtk.Menu</title>
<polygon fill="none" stroke="black" stroke-width="0.5" points="846,-134.5 760,-134.5 760,-113.5 846,-113.5 846,-134.5"/>
<text text-anchor="middle" x="803" y="-121.5" font-family="Vera" font-size="10.00">paramtk.Menu</text>
</g>
<!-- Tkinter.Menu&#45;&gt;paramtk.Menu -->
<g id="edge28" class="edge"><title>Tkinter.Menu&#45;&gt;paramtk.Menu</title>
<path fill="none" stroke="black" stroke-width="0.5" d="M622.649,-124C659.432,-124 714.908,-124 754.613,-124"/>
<polygon fill="black" stroke="black" points="754.862,-125.75 759.862,-124 754.862,-122.25 754.862,-125.75"/>
</g>
<!-- Tkinter.Widget -->
<g id="node2" class="node"><title>Tkinter.Widget</title>
<polygon fill="none" stroke="black" stroke-width="0.5" points="390,-134.5 308,-134.5 308,-113.5 390,-113.5 390,-134.5"/>
<text text-anchor="middle" x="349" y="-121.5" font-family="Vera" font-size="10.00">Tkinter.Widget</text>
</g>
<!-- Tkinter.Widget&#45;&gt;Tkinter.Menu -->
<g id="edge2" class="edge"><title>Tkinter.Widget&#45;&gt;Tkinter.Menu</title>
<path fill="none" stroke="black" stroke-width="0.5" d="M390.743,-124C432.821,-124 497.495,-124 540.269,-124"/>
<polygon fill="black" stroke="black" points="540.373,-125.75 545.373,-124 540.373,-122.25 540.373,-125.75"/>
</g>
<!-- paramtk.tilewrapper.Widget -->
<g id="node8" class="node"><title>paramtk.tilewrapper.Widget</title>
<polygon fill="none" stroke="black" stroke-width="0.5" points="657,-172.5 511,-172.5 511,-151.5 657,-151.5 657,-172.5"/>
<text text-anchor="middle" x="584" y="-159.5" font-family="Vera" font-size="10.00">paramtk.tilewrapper.Widget</text>
</g>
<!-- Tkinter.Widget&#45;&gt;paramtk.tilewrapper.Widget -->
<g id="edge36" class="edge"><title>Tkinter.Widget&#45;&gt;paramtk.tilewrapper.Widget</title>
<path fill="none" stroke="black" stroke-width="0.5" d="M390.743,-130.75C425.581,-136.383 475.909,-144.521 516.472,-151.081"/>
<polygon fill="black" stroke="black" points="516.659,-152.884 521.875,-151.954 517.218,-149.428 516.659,-152.884"/>
</g>
<!-- topo.tkgui.topoconsole.ControllableMenu -->
<g id="node4" class="node"><title>topo.tkgui.topoconsole.ControllableMenu</title>
<polygon fill="none" stroke="black" stroke-width="0.5" points="1132,-134.5 920,-134.5 920,-113.5 1132,-113.5 1132,-134.5"/>
<text text-anchor="middle" x="1026" y="-121.5" font-family="Vera" font-size="10.00">topo.tkgui.topoconsole.ControllableMenu</text>
</g>
<!-- paramtk.Menu&#45;&gt;topo.tkgui.topoconsole.ControllableMenu -->
<g id="edge4" class="edge"><title>paramtk.Menu&#45;&gt;topo.tkgui.topoconsole.ControllableMenu</title>
<path fill="none" stroke="black" stroke-width="0.5" d="M846.261,-124C866.009,-124 890.396,-124 914.767,-124"/>
<polygon fill="black" stroke="black" points="914.965,-125.75 919.965,-124 914.965,-122.25 914.965,-125.75"/>
</g>
<!-- paramtk.tilewrapper.Notebook -->
<g id="node7" class="node"><title>paramtk.tilewrapper.Notebook</title>
<polygon fill="none" stroke="black" stroke-width="0.5" points="883,-172.5 723,-172.5 723,-151.5 883,-151.5 883,-172.5"/>
<text text-anchor="middle" x="803" y="-159.5" font-family="Vera" font-size="10.00">paramtk.tilewrapper.Notebook</text>
</g>
<!-- topo.tkgui.topoconsole.DockManager -->
<g id="node34" class="node"><title>topo.tkgui.topoconsole.DockManager</title>
<polygon fill="none" stroke="black" stroke-width="0.5" points="1123,-172.5 929,-172.5 929,-151.5 1123,-151.5 1123,-172.5"/>
<text text-anchor="middle" x="1026" y="-159.5" font-family="Vera" font-size="10.00">topo.tkgui.topoconsole.DockManager</text>
</g>
<!-- paramtk.tilewrapper.Notebook&#45;&gt;topo.tkgui.topoconsole.DockManager -->
<g id="edge30" class="edge"><title>paramtk.tilewrapper.Notebook&#45;&gt;topo.tkgui.topoconsole.DockManager</title>
<path fill="none" stroke="black" stroke-width="0.5" d="M883.508,-162C896.394,-162 909.88,-162 923.2,-162"/>
<polygon fill="black" stroke="black" points="923.493,-163.75 928.493,-162 923.493,-160.25 923.493,-163.75"/>
</g>
<!-- paramtk.tilewrapper.Widget&#45;&gt;paramtk.tilewrapper.Notebook -->
<g id="edge6" class="edge"><title>paramtk.tilewrapper.Widget&#45;&gt;paramtk.tilewrapper.Notebook</title>
<path fill="none" stroke="black" stroke-width="0.5" d="M657.533,-162C676.582,-162 697.265,-162 716.896,-162"/>
<polygon fill="black" stroke="black" points="717.132,-163.75 722.132,-162 717.132,-160.25 717.132,-163.75"/>
</g>
<!-- paramtk.TkParameterizedBase -->
<g id="node10" class="node"><title>paramtk.TkParameterizedBase</title>
<polygon fill="none" stroke="black" stroke-width="0.5" points="666,-96.5 502,-96.5 502,-75.5 666,-75.5 666,-96.5"/>
<text text-anchor="middle" x="584" y="-83.5" font-family="Vera" font-size="10.00">paramtk.TkParameterizedBase</text>
</g>
<!-- paramtk.TkParameterized -->
<g id="node17" class="node"><title>paramtk.TkParameterized</title>
<polygon fill="none" stroke="black" stroke-width="0.5" points="873,-77.5 733,-77.5 733,-56.5 873,-56.5 873,-77.5"/>
<text text-anchor="middle" x="803" y="-64.5" font-family="Vera" font-size="10.00">paramtk.TkParameterized</text>
</g>
<!-- paramtk.TkParameterizedBase&#45;&gt;paramtk.TkParameterized -->
<g id="edge42" class="edge"><title>paramtk.TkParameterizedBase&#45;&gt;paramtk.TkParameterized</title>
<path fill="none" stroke="black" stroke-width="0.5" d="M666.171,-78.871C686.423,-77.114 708.007,-75.2414 727.904,-73.5152"/>
<polygon fill="black" stroke="black" points="728.095,-75.2553 732.925,-73.0796 727.792,-71.7684 728.095,-75.2553"/>
</g>
<!-- param.parameterized.Parameterized -->
<g id="node11" class="node"><title>param.parameterized.Parameterized</title>
<polygon fill="none" stroke="black" stroke-width="0.5" points="446,-58.5 252,-58.5 252,-37.5 446,-37.5 446,-58.5"/>
<text text-anchor="middle" x="349" y="-45.5" font-family="Vera" font-size="10.00">param.parameterized.Parameterized</text>
</g>
<!-- param.parameterized.Parameterized&#45;&gt;paramtk.TkParameterizedBase -->
<g id="edge8" class="edge"><title>param.parameterized.Parameterized&#45;&gt;paramtk.TkParameterizedBase</title>
<path fill="none" stroke="black" stroke-width="0.5" d="M411.051,-58.0338C443.579,-63.2936 483.462,-69.7429 516.729,-75.1221"/>
<polygon fill="black" stroke="black" points="516.794,-76.9053 522.009,-75.976 517.353,-73.4502 516.794,-76.9053"/>
</g>
<!-- topo.tkgui.topoconsole.PlotsMenuEntry -->
<g id="node38" class="node"><title>topo.tkgui.topoconsole.PlotsMenuEntry</title>
<polygon fill="none" stroke="black" stroke-width="0.5" points="685,-58.5 483,-58.5 483,-37.5 685,-37.5 685,-58.5"/>
<text text-anchor="middle" x="584" y="-45.5" font-family="Vera" font-size="10.00">topo.tkgui.topoconsole.PlotsMenuEntry</text>
</g>
<!-- param.parameterized.Parameterized&#45;&gt;topo.tkgui.topoconsole.PlotsMenuEntry -->
<g id="edge34" class="edge"><title>param.parameterized.Parameterized&#45;&gt;topo.tkgui.topoconsole.PlotsMenuEntry</title>
<path fill="none" stroke="black" stroke-width="0.5" d="M446.28,-48C456.48,-48 466.89,-48 477.189,-48"/>
<polygon fill="black" stroke="black" points="477.235,-49.7501 482.235,-48 477.235,-46.2501 477.235,-49.7501"/>
</g>
<!-- Tkinter.Wm -->
<g id="node13" class="node"><title>Tkinter.Wm</title>
<polygon fill="none" stroke="black" stroke-width="0.5" points="196,-20.5 128,-20.5 128,0.5 196,0.5 196,-20.5"/>
<text text-anchor="middle" x="162" y="-7.5" font-family="Vera" font-size="10.00">Tkinter.Wm</text>
</g>
<!-- Tkinter.Toplevel -->
<g id="node21" class="node"><title>Tkinter.Toplevel</title>
<polygon fill="none" stroke="black" stroke-width="0.5" points="393,-20.5 305,-20.5 305,0.5 393,0.5 393,-20.5"/>
<text text-anchor="middle" x="349" y="-7.5" font-family="Vera" font-size="10.00">Tkinter.Toplevel</text>
</g>
<!-- Tkinter.Wm&#45;&gt;Tkinter.Toplevel -->
<g id="edge16" class="edge"><title>Tkinter.Wm&#45;&gt;Tkinter.Toplevel</title>
<path fill="none" stroke="black" stroke-width="0.5" d="M196.735,-10C225.509,-10 266.771,-10 299.085,-10"/>
<polygon fill="black" stroke="black" points="299.191,-11.7501 304.191,-10 299.191,-8.2501 299.191,-11.7501"/>
</g>
<!-- topo.tkgui.topoconsole.TopoConsole -->
<g id="node14" class="node"><title>topo.tkgui.topoconsole.TopoConsole</title>
<polygon fill="none" stroke="black" stroke-width="0.5" points="1120,-54.5 932,-54.5 932,-33.5 1120,-33.5 1120,-54.5"/>
<text text-anchor="middle" x="1026" y="-41.5" font-family="Vera" font-size="10.00">topo.tkgui.topoconsole.TopoConsole</text>
</g>
<!-- paramtk.AppWindow -->
<g id="node15" class="node"><title>paramtk.AppWindow</title>
<polygon fill="none" stroke="black" stroke-width="0.5" points="860,-30.5 746,-30.5 746,-9.5 860,-9.5 860,-30.5"/>
<text text-anchor="middle" x="803" y="-17.5" font-family="Vera" font-size="10.00">paramtk.AppWindow</text>
</g>
<!-- paramtk.AppWindow&#45;&gt;topo.tkgui.topoconsole.TopoConsole -->
<g id="edge10" class="edge"><title>paramtk.AppWindow&#45;&gt;topo.tkgui.topoconsole.TopoConsole</title>
<path fill="none" stroke="black" stroke-width="0.5" d="M860.138,-26.1494C880.774,-28.3703 904.698,-30.9451 927.844,-33.4361"/>
<polygon fill="black" stroke="black" points="927.922,-35.2045 933.081,-33.9997 928.297,-31.7246 927.922,-35.2045"/>
</g>
<!-- paramtk.TkParameterized&#45;&gt;topo.tkgui.topoconsole.TopoConsole -->
<g id="edge12" class="edge"><title>paramtk.TkParameterized&#45;&gt;topo.tkgui.topoconsole.TopoConsole</title>
<path fill="none" stroke="black" stroke-width="0.5" d="M873.253,-59.7542C890.057,-58.0211 908.316,-56.1378 926.172,-54.2962"/>
<polygon fill="black" stroke="black" points="926.401,-56.0319 931.196,-53.778 926.042,-52.5503 926.401,-56.0319"/>
</g>
<!-- Tkinter.Pack -->
<g id="node19" class="node"><title>Tkinter.Pack</title>
<polygon fill="none" stroke="black" stroke-width="0.5" points="198,-172.5 126,-172.5 126,-151.5 198,-151.5 198,-172.5"/>
<text text-anchor="middle" x="162" y="-159.5" font-family="Vera" font-size="10.00">Tkinter.Pack</text>
</g>
<!-- Tkinter.Pack&#45;&gt;Tkinter.Widget -->
<g id="edge22" class="edge"><title>Tkinter.Pack&#45;&gt;Tkinter.Widget</title>
<path fill="none" stroke="black" stroke-width="0.5" d="M198.757,-154.113C215.056,-150.649 234.473,-146.566 252,-143 268.316,-139.68 286.199,-136.147 302.117,-133.04"/>
<polygon fill="black" stroke="black" points="302.862,-134.677 307.435,-132.003 302.193,-131.242 302.862,-134.677"/>
</g>
<!-- Tkinter.Place -->
<g id="node20" class="node"><title>Tkinter.Place</title>
<polygon fill="none" stroke="black" stroke-width="0.5" points="200,-134.5 124,-134.5 124,-113.5 200,-113.5 200,-134.5"/>
<text text-anchor="middle" x="162" y="-121.5" font-family="Vera" font-size="10.00">Tkinter.Place</text>
</g>
<!-- Tkinter.Place&#45;&gt;Tkinter.Widget -->
<g id="edge24" class="edge"><title>Tkinter.Place&#45;&gt;Tkinter.Widget</title>
<path fill="none" stroke="black" stroke-width="0.5" d="M200.747,-124C230.175,-124 270.777,-124 302.051,-124"/>
<polygon fill="black" stroke="black" points="302.381,-125.75 307.381,-124 302.381,-122.25 302.381,-125.75"/>
</g>
<!-- paramtk.ScrolledWindow -->
<g id="node36" class="node"><title>paramtk.ScrolledWindow</title>
<polygon fill="none" stroke="black" stroke-width="0.5" points="651,-20.5 517,-20.5 517,0.5 651,0.5 651,-20.5"/>
<text text-anchor="middle" x="584" y="-7.5" font-family="Vera" font-size="10.00">paramtk.ScrolledWindow</text>
</g>
<!-- Tkinter.Toplevel&#45;&gt;paramtk.ScrolledWindow -->
<g id="edge32" class="edge"><title>Tkinter.Toplevel&#45;&gt;paramtk.ScrolledWindow</title>
<path fill="none" stroke="black" stroke-width="0.5" d="M393.755,-10C427.019,-10 473.106,-10 511.588,-10"/>
<polygon fill="black" stroke="black" points="511.724,-11.7501 516.724,-10 511.724,-8.2501 511.724,-11.7501"/>
</g>
<!-- Tkinter.BaseWidget -->
<g id="node22" class="node"><title>Tkinter.BaseWidget</title>
<polygon fill="none" stroke="black" stroke-width="0.5" points="215,-58.5 109,-58.5 109,-37.5 215,-37.5 215,-58.5"/>
<text text-anchor="middle" x="162" y="-45.5" font-family="Vera" font-size="10.00">Tkinter.BaseWidget</text>
</g>
<!-- Tkinter.BaseWidget&#45;&gt;Tkinter.Widget -->
<g id="edge20" class="edge"><title>Tkinter.BaseWidget&#45;&gt;Tkinter.Widget</title>
<path fill="none" stroke="black" stroke-width="0.5" d="M191.558,-58.0011C199.532,-60.8074 208.129,-63.9325 216,-67 253.019,-81.4269 295.06,-99.7834 321.789,-111.708"/>
<polygon fill="black" stroke="black" points="321.318,-113.414 326.597,-113.857 322.747,-110.219 321.318,-113.414"/>
</g>
<!-- Tkinter.BaseWidget&#45;&gt;Tkinter.Toplevel -->
<g id="edge14" class="edge"><title>Tkinter.BaseWidget&#45;&gt;Tkinter.Toplevel</title>
<path fill="none" stroke="black" stroke-width="0.5" d="M209.15,-37.9106C222.951,-34.9939 238.073,-31.834 252,-29 267.259,-25.8951 283.888,-22.6041 298.998,-19.6491"/>
<polygon fill="black" stroke="black" points="299.488,-21.3365 304.06,-18.6605 298.818,-17.9014 299.488,-21.3365"/>
</g>
<!-- Tkinter.Grid -->
<g id="node25" class="node"><title>Tkinter.Grid</title>
<polygon fill="none" stroke="black" stroke-width="0.5" points="197,-96.5 127,-96.5 127,-75.5 197,-75.5 197,-96.5"/>
<text text-anchor="middle" x="162" y="-83.5" font-family="Vera" font-size="10.00">Tkinter.Grid</text>
</g>
<!-- Tkinter.Grid&#45;&gt;Tkinter.Widget -->
<g id="edge26" class="edge"><title>Tkinter.Grid&#45;&gt;Tkinter.Widget</title>
<path fill="none" stroke="black" stroke-width="0.5" d="M197.613,-93.237C227.287,-99.2669 269.785,-107.903 302.203,-114.491"/>
<polygon fill="black" stroke="black" points="302.068,-116.249 307.316,-115.53 302.765,-112.819 302.068,-116.249"/>
</g>
<!-- Tkinter.Misc -->
<g id="node26" class="node"><title>Tkinter.Misc</title>
<polygon fill="none" stroke="black" stroke-width="0.5" points="72,-58.5 2.84217e-14,-58.5 0,-37.5 72,-37.5 72,-58.5"/>
<text text-anchor="middle" x="36" y="-45.5" font-family="Vera" font-size="10.00">Tkinter.Misc</text>
</g>
<!-- Tkinter.Misc&#45;&gt;Tkinter.BaseWidget -->
<g id="edge18" class="edge"><title>Tkinter.Misc&#45;&gt;Tkinter.BaseWidget</title>
<path fill="none" stroke="black" stroke-width="0.5" d="M72.1065,-48C81.7306,-48 92.3855,-48 102.895,-48"/>
<polygon fill="black" stroke="black" points="103.038,-49.7501 108.038,-48 103.038,-46.2501 103.038,-49.7501"/>
</g>
<!-- paramtk.tilewrapper.Style -->
<g id="node33" class="node"><title>paramtk.tilewrapper.Style</title>
<polygon fill="none" stroke="black" stroke-width="0.5" points="418,-172.5 280,-172.5 280,-151.5 418,-151.5 418,-172.5"/>
<text text-anchor="middle" x="349" y="-159.5" font-family="Vera" font-size="10.00">paramtk.tilewrapper.Style</text>
</g>
<!-- paramtk.tilewrapper.Style&#45;&gt;paramtk.tilewrapper.Widget -->
<g id="edge38" class="edge"><title>paramtk.tilewrapper.Style&#45;&gt;paramtk.tilewrapper.Widget</title>
<path fill="none" stroke="black" stroke-width="0.5" d="M418.554,-162C445.693,-162 476.951,-162 504.939,-162"/>
<polygon fill="black" stroke="black" points="505.125,-163.75 510.125,-162 505.125,-160.25 505.125,-163.75"/>
</g>
<!-- paramtk.ScrolledWindow&#45;&gt;paramtk.AppWindow -->
<g id="edge40" class="edge"><title>paramtk.ScrolledWindow&#45;&gt;paramtk.AppWindow</title>
<path fill="none" stroke="black" stroke-width="0.5" d="M651.196,-13.0683C679.722,-14.3709 712.775,-15.8801 740.742,-17.1571"/>
<polygon fill="black" stroke="black" points="740.827,-18.9128 745.902,-17.3928 740.987,-15.4164 740.827,-18.9128"/>
</g>
</g>
</svg>
