<?xml version="1.0" encoding="UTF-8" standalone="no"?>
<!DOCTYPE svg PUBLIC "-//W3C//DTD SVG 1.1//EN"
 "http://www.w3.org/Graphics/SVG/1.1/DTD/svg11.dtd">
<!-- Generated by graphviz version 2.26.3 (20100126.1600)
 -->
<!-- Title: inheritancef1ac05fc54 Pages: 1 -->
<svg width="802pt" height="256pt"
 viewBox="0.00 0.00 802.00 256.00" xmlns="http://www.w3.org/2000/svg" xmlns:xlink="http://www.w3.org/1999/xlink">
<g id="graph1" class="graph" transform="scale(1 1) rotate(0) translate(4 252)">
<title>inheritancef1ac05fc54</title>
<polygon fill="white" stroke="white" points="-4,5 -4,-252 799,-252 799,5 -4,5"/>
<!-- numbergen.BinaryOperator -->
<g id="node1" class="node"><title>numbergen.BinaryOperator</title>
<polygon fill="none" stroke="black" stroke-width="0.5" points="568,-172 426,-172 426,-152 568,-152 568,-172"/>
<text text-anchor="middle" x="497" y="-159" font-family="Vera" font-size="10.00">numbergen.BinaryOperator</text>
</g>
<!-- numbergen.NumberGenerator -->
<g id="node2" class="node"><title>numbergen.NumberGenerator</title>
<polygon fill="none" stroke="black" stroke-width="0.5" points="376,-96 220,-96 220,-76 376,-76 376,-96"/>
<text text-anchor="middle" x="298" y="-83" font-family="Vera" font-size="10.00">numbergen.NumberGenerator</text>
</g>
<!-- numbergen.NumberGenerator&#45;&gt;numbergen.BinaryOperator -->
<g id="edge2" class="edge"><title>numbergen.NumberGenerator&#45;&gt;numbergen.BinaryOperator</title>
<path fill="none" stroke="black" stroke-width="0.5" d="M314.806,-96.0438C336.551,-108.649 375.933,-130.17 412,-143 420.294,-145.951 429.212,-148.542 438.041,-150.784"/>
<polygon fill="black" stroke="black" points="437.658,-152.492 442.932,-151.995 438.499,-149.095 437.658,-152.492"/>
</g>
<!-- numbergen.RandomDistribution -->
<g id="node5" class="node"><title>numbergen.RandomDistribution</title>
<polygon fill="none" stroke="black" stroke-width="0.5" points="579,-134 415,-134 415,-114 579,-114 579,-134"/>
<text text-anchor="middle" x="497" y="-121" font-family="Vera" font-size="10.00">numbergen.RandomDistribution</text>
</g>
<!-- numbergen.NumberGenerator&#45;&gt;numbergen.RandomDistribution -->
<g id="edge20" class="edge"><title>numbergen.NumberGenerator&#45;&gt;numbergen.RandomDistribution</title>
<path fill="none" stroke="black" stroke-width="0.5" d="M350.545,-96.0338C377.863,-101.25 411.308,-107.637 439.338,-112.989"/>
<polygon fill="black" stroke="black" points="439.266,-114.757 444.506,-113.976 439.923,-111.319 439.266,-114.757"/>
</g>
<!-- numbergen.TimeDependentValue -->
<g id="node15" class="node"><title>numbergen.TimeDependentValue</title>
<polygon fill="none" stroke="black" stroke-width="0.5" points="582,-96 412,-96 412,-76 582,-76 582,-96"/>
<text text-anchor="middle" x="497" y="-83" font-family="Vera" font-size="10.00">numbergen.TimeDependentValue</text>
</g>
<!-- numbergen.NumberGenerator&#45;&gt;numbergen.TimeDependentValue -->
<g id="edge14" class="edge"><title>numbergen.NumberGenerator&#45;&gt;numbergen.TimeDependentValue</title>
<path fill="none" stroke="black" stroke-width="0.5" d="M376.079,-86C386.185,-86 396.601,-86 406.882,-86"/>
<polygon fill="black" stroke="black" points="406.916,-87.7501 411.916,-86 406.916,-84.2501 406.916,-87.7501"/>
</g>
<!-- numbergen.BoundedNumber -->
<g id="node22" class="node"><title>numbergen.BoundedNumber</title>
<polygon fill="none" stroke="black" stroke-width="0.5" points="573,-58 421,-58 421,-38 573,-38 573,-58"/>
<text text-anchor="middle" x="497" y="-45" font-family="Vera" font-size="10.00">numbergen.BoundedNumber</text>
</g>
<!-- numbergen.NumberGenerator&#45;&gt;numbergen.BoundedNumber -->
<g id="edge22" class="edge"><title>numbergen.NumberGenerator&#45;&gt;numbergen.BoundedNumber</title>
<path fill="none" stroke="black" stroke-width="0.5" d="M350.545,-75.9662C377.863,-70.7497 411.308,-64.3632 439.338,-59.0109"/>
<polygon fill="black" stroke="black" points="439.923,-60.6809 444.506,-58.024 439.266,-57.243 439.923,-60.6809"/>
</g>
<!-- numbergen.UnaryOperator -->
<g id="node24" class="node"><title>numbergen.UnaryOperator</title>
<polygon fill="none" stroke="black" stroke-width="0.5" points="567,-20 427,-20 427,-1.06581e-14 567,-3.55271e-15 567,-20"/>
<text text-anchor="middle" x="497" y="-7" font-family="Vera" font-size="10.00">numbergen.UnaryOperator</text>
</g>
<!-- numbergen.NumberGenerator&#45;&gt;numbergen.UnaryOperator -->
<g id="edge24" class="edge"><title>numbergen.NumberGenerator&#45;&gt;numbergen.UnaryOperator</title>
<path fill="none" stroke="black" stroke-width="0.5" d="M314.806,-75.9562C336.551,-63.3505 375.933,-41.8305 412,-29 420.294,-26.0494 429.212,-23.4582 438.041,-21.2155"/>
<polygon fill="black" stroke="black" points="438.499,-22.9051 442.932,-20.0054 437.658,-19.5075 438.499,-22.9051"/>
</g>
<!-- numbergen.NormalRandom -->
<g id="node4" class="node"><title>numbergen.NormalRandom</title>
<polygon fill="none" stroke="black" stroke-width="0.5" points="778,-248 634,-248 634,-228 778,-228 778,-248"/>
<text text-anchor="middle" x="706" y="-235" font-family="Vera" font-size="10.00">numbergen.NormalRandom</text>
</g>
<!-- numbergen.RandomDistribution&#45;&gt;numbergen.NormalRandom -->
<g id="edge4" class="edge"><title>numbergen.RandomDistribution&#45;&gt;numbergen.NormalRandom</title>
<path fill="none" stroke="black" stroke-width="0.5" d="M567.172,-134.065C572.482,-136.472 577.511,-139.413 582,-143 611.199,-166.332 588.717,-195.775 618,-219 621.345,-221.653 624.977,-223.956 628.798,-225.953"/>
<polygon fill="black" stroke="black" points="628.101,-227.56 633.365,-228.161 629.625,-224.409 628.101,-227.56"/>
</g>
<!-- numbergen.UniformRandomOffset -->
<g id="node8" class="node"><title>numbergen.UniformRandomOffset</title>
<polygon fill="none" stroke="black" stroke-width="0.5" points="794,-210 618,-210 618,-190 794,-190 794,-210"/>
<text text-anchor="middle" x="706" y="-197" font-family="Vera" font-size="10.00">numbergen.UniformRandomOffset</text>
</g>
<!-- numbergen.RandomDistribution&#45;&gt;numbergen.UniformRandomOffset -->
<g id="edge6" class="edge"><title>numbergen.RandomDistribution&#45;&gt;numbergen.UniformRandomOffset</title>
<path fill="none" stroke="black" stroke-width="0.5" d="M561.21,-134.005C568.465,-136.39 575.556,-139.343 582,-143 602.234,-154.482 597.725,-169.591 618,-181 622.902,-183.758 628.164,-186.116 633.589,-188.132"/>
<polygon fill="black" stroke="black" points="633.313,-189.89 638.611,-189.889 634.469,-186.586 633.313,-189.89"/>
</g>
<!-- numbergen.UniformRandomInt -->
<g id="node11" class="node"><title>numbergen.UniformRandomInt</title>
<polygon fill="none" stroke="black" stroke-width="0.5" points="786,-172 626,-172 626,-152 786,-152 786,-172"/>
<text text-anchor="middle" x="706" y="-159" font-family="Vera" font-size="10.00">numbergen.UniformRandomInt</text>
</g>
<!-- numbergen.RandomDistribution&#45;&gt;numbergen.UniformRandomInt -->
<g id="edge10" class="edge"><title>numbergen.RandomDistribution&#45;&gt;numbergen.UniformRandomInt</title>
<path fill="none" stroke="black" stroke-width="0.5" d="M552.186,-134.034C580.996,-139.272 616.294,-145.69 645.806,-151.056"/>
<polygon fill="black" stroke="black" points="645.635,-152.803 650.868,-151.976 646.261,-149.36 645.635,-152.803"/>
</g>
<!-- numbergen.UniformRandom -->
<g id="node13" class="node"><title>numbergen.UniformRandom</title>
<polygon fill="none" stroke="black" stroke-width="0.5" points="780,-134 632,-134 632,-114 780,-114 780,-134"/>
<text text-anchor="middle" x="706" y="-121" font-family="Vera" font-size="10.00">numbergen.UniformRandom</text>
</g>
<!-- numbergen.RandomDistribution&#45;&gt;numbergen.UniformRandom -->
<g id="edge12" class="edge"><title>numbergen.RandomDistribution&#45;&gt;numbergen.UniformRandom</title>
<path fill="none" stroke="black" stroke-width="0.5" d="M579.002,-124C594.62,-124 610.941,-124 626.479,-124"/>
<polygon fill="black" stroke="black" points="626.717,-125.75 631.717,-124 626.717,-122.25 626.717,-125.75"/>
</g>
<!-- numbergen.Choice -->
<g id="node17" class="node"><title>numbergen.Choice</title>
<polygon fill="none" stroke="black" stroke-width="0.5" points="757,-96 655,-96 655,-76 757,-76 757,-96"/>
<text text-anchor="middle" x="706" y="-83" font-family="Vera" font-size="10.00">numbergen.Choice</text>
</g>
<!-- numbergen.RandomDistribution&#45;&gt;numbergen.Choice -->
<g id="edge16" class="edge"><title>numbergen.RandomDistribution&#45;&gt;numbergen.Choice</title>
<path fill="none" stroke="black" stroke-width="0.5" d="M552.186,-113.966C582.139,-108.52 619.106,-101.799 649.292,-96.3106"/>
<polygon fill="black" stroke="black" points="649.853,-97.9873 654.46,-95.371 649.227,-94.5437 649.853,-97.9873"/>
</g>
<!-- numbergen.VonMisesRandom -->
<g id="node26" class="node"><title>numbergen.VonMisesRandom</title>
<polygon fill="none" stroke="black" stroke-width="0.5" points="783,-58 629,-58 629,-38 783,-38 783,-58"/>
<text text-anchor="middle" x="706" y="-45" font-family="Vera" font-size="10.00">numbergen.VonMisesRandom</text>
</g>
<!-- numbergen.RandomDistribution&#45;&gt;numbergen.VonMisesRandom -->
<g id="edge26" class="edge"><title>numbergen.RandomDistribution&#45;&gt;numbergen.VonMisesRandom</title>
<path fill="none" stroke="black" stroke-width="0.5" d="M561.21,-113.995C568.465,-111.61 575.556,-108.657 582,-105 602.234,-93.5178 597.725,-78.4085 618,-67 622.902,-64.2419 628.164,-61.8838 633.589,-59.8677"/>
<polygon fill="black" stroke="black" points="634.469,-61.4138 638.611,-58.1107 633.313,-58.1101 634.469,-61.4138"/>
</g>
<!-- param.parameterized.Parameterized -->
<g id="node7" class="node"><title>param.parameterized.Parameterized</title>
<polygon fill="none" stroke="black" stroke-width="0.5" points="184,-96 8.52651e-14,-96 0,-76 184,-76 184,-96"/>
<text text-anchor="middle" x="92" y="-83" font-family="Vera" font-size="10.00">param.parameterized.Parameterized</text>
</g>
<!-- param.parameterized.Parameterized&#45;&gt;numbergen.NumberGenerator -->
<g id="edge8" class="edge"><title>param.parameterized.Parameterized&#45;&gt;numbergen.NumberGenerator</title>
<path fill="none" stroke="black" stroke-width="0.5" d="M184.155,-86C194.281,-86 204.548,-86 214.559,-86"/>
<polygon fill="black" stroke="black" points="214.769,-87.7501 219.769,-86 214.769,-84.2501 214.769,-87.7501"/>
</g>
<!-- numbergen.ExponentialDecay -->
<g id="node19" class="node"><title>numbergen.ExponentialDecay</title>
<polygon fill="none" stroke="black" stroke-width="0.5" points="782,-20 630,-20 630,-1.06581e-14 782,-3.55271e-15 782,-20"/>
<text text-anchor="middle" x="706" y="-7" font-family="Vera" font-size="10.00">numbergen.ExponentialDecay</text>
</g>
<!-- numbergen.TimeDependentValue&#45;&gt;numbergen.ExponentialDecay -->
<g id="edge18" class="edge"><title>numbergen.TimeDependentValue&#45;&gt;numbergen.ExponentialDecay</title>
<path fill="none" stroke="black" stroke-width="0.5" d="M561.21,-75.9947C568.465,-73.61 575.556,-70.6569 582,-67 602.234,-55.5178 597.725,-40.4085 618,-29 622.902,-26.2419 628.164,-23.8838 633.589,-21.8677"/>
<polygon fill="black" stroke="black" points="634.469,-23.4138 638.611,-20.1107 633.313,-20.1101 634.469,-23.4138"/>
</g>
</g>
</svg>
