<?xml version="1.0" encoding="UTF-8" standalone="no"?>
<!DOCTYPE svg PUBLIC "-//W3C//DTD SVG 1.1//EN"
 "http://www.w3.org/Graphics/SVG/1.1/DTD/svg11.dtd">
<!-- Generated by graphviz version 2.26.3 (20100126.1600)
 -->
<!-- Title: inheritancefc96a479df Pages: 1 -->
<svg width="812pt" height="332pt"
 viewBox="0.00 0.00 812.00 332.00" xmlns="http://www.w3.org/2000/svg" xmlns:xlink="http://www.w3.org/1999/xlink">
<g id="graph1" class="graph" transform="scale(1 1) rotate(0) translate(4 328)">
<title>inheritancefc96a479df</title>
<polygon fill="white" stroke="white" points="-4,5 -4,-328 809,-328 809,5 -4,5"/>
<!-- lancet.core.DynamicCartesianProduct -->
<g id="node1" class="node"><title>lancet.core.DynamicCartesianProduct</title>
<polygon fill="none" stroke="black" stroke-width="0.5" points="583,-210.5 387,-210.5 387,-189.5 583,-189.5 583,-210.5"/>
<text text-anchor="middle" x="485" y="-197.5" font-family="Vera" font-size="10.00">lancet.core.DynamicCartesianProduct</text>
</g>
<!-- lancet.core.BaseArgs -->
<g id="node2" class="node"><title>lancet.core.BaseArgs</title>
<polygon fill="none" stroke="black" stroke-width="0.5" points="349,-172.5 231,-172.5 231,-151.5 349,-151.5 349,-172.5"/>
<text text-anchor="middle" x="290" y="-159.5" font-family="Vera" font-size="10.00">lancet.core.BaseArgs</text>
</g>
<!-- lancet.core.BaseArgs&#45;&gt;lancet.core.DynamicCartesianProduct -->
<g id="edge2" class="edge"><title>lancet.core.BaseArgs&#45;&gt;lancet.core.DynamicCartesianProduct</title>
<path fill="none" stroke="black" stroke-width="0.5" d="M340.311,-172.014C355.033,-174.929 371.158,-178.107 386,-181 399.463,-183.624 413.962,-186.422 427.6,-189.042"/>
<polygon fill="black" stroke="black" points="427.342,-190.775 432.583,-189.999 428.002,-187.337 427.342,-190.775"/>
</g>
<!-- lancet.core.StaticArgs -->
<g id="node5" class="node"><title>lancet.core.StaticArgs</title>
<polygon fill="none" stroke="black" stroke-width="0.5" points="546,-172.5 424,-172.5 424,-151.5 546,-151.5 546,-172.5"/>
<text text-anchor="middle" x="485" y="-159.5" font-family="Vera" font-size="10.00">lancet.core.StaticArgs</text>
</g>
<!-- lancet.core.BaseArgs&#45;&gt;lancet.core.StaticArgs -->
<g id="edge6" class="edge"><title>lancet.core.BaseArgs&#45;&gt;lancet.core.StaticArgs</title>
<path fill="none" stroke="black" stroke-width="0.5" d="M349.566,-162C371.433,-162 396.316,-162 418.735,-162"/>
<polygon fill="black" stroke="black" points="418.777,-163.75 423.777,-162 418.777,-160.25 418.777,-163.75"/>
</g>
<!-- lancet.core.DynamicConcatenate -->
<g id="node22" class="node"><title>lancet.core.DynamicConcatenate</title>
<polygon fill="none" stroke="black" stroke-width="0.5" points="573,-134.5 397,-134.5 397,-113.5 573,-113.5 573,-134.5"/>
<text text-anchor="middle" x="485" y="-121.5" font-family="Vera" font-size="10.00">lancet.core.DynamicConcatenate</text>
</g>
<!-- lancet.core.BaseArgs&#45;&gt;lancet.core.DynamicConcatenate -->
<g id="edge22" class="edge"><title>lancet.core.BaseArgs&#45;&gt;lancet.core.DynamicConcatenate</title>
<path fill="none" stroke="black" stroke-width="0.5" d="M340.311,-151.986C355.033,-149.071 371.158,-145.893 386,-143 399.463,-140.376 413.962,-137.578 427.6,-134.958"/>
<polygon fill="black" stroke="black" points="428.002,-136.663 432.583,-134.001 427.342,-133.225 428.002,-136.663"/>
</g>
<!-- lancet.core.StaticCartesianProduct -->
<g id="node4" class="node"><title>lancet.core.StaticCartesianProduct</title>
<polygon fill="none" stroke="black" stroke-width="0.5" points="803,-324.5 621,-324.5 621,-303.5 803,-303.5 803,-324.5"/>
<text text-anchor="middle" x="712" y="-311.5" font-family="Vera" font-size="10.00">lancet.core.StaticCartesianProduct</text>
</g>
<!-- lancet.core.StaticArgs&#45;&gt;lancet.core.StaticCartesianProduct -->
<g id="edge4" class="edge"><title>lancet.core.StaticArgs&#45;&gt;lancet.core.StaticCartesianProduct</title>
<path fill="none" stroke="black" stroke-width="0.5" d="M546.209,-163.394C559.951,-166.346 573.541,-171.692 584,-181 623.69,-216.324 580.559,-259.398 620,-295 622.542,-297.295 625.287,-299.341 628.183,-301.164"/>
<polygon fill="black" stroke="black" points="627.645,-302.873 632.851,-303.849 629.389,-299.839 627.645,-302.873"/>
</g>
<!-- lancet.core.Args -->
<g id="node10" class="node"><title>lancet.core.Args</title>
<polygon fill="none" stroke="black" stroke-width="0.5" points="759,-286.5 665,-286.5 665,-265.5 759,-265.5 759,-286.5"/>
<text text-anchor="middle" x="712" y="-273.5" font-family="Vera" font-size="10.00">lancet.core.Args</text>
</g>
<!-- lancet.core.StaticArgs&#45;&gt;lancet.core.Args -->
<g id="edge10" class="edge"><title>lancet.core.StaticArgs&#45;&gt;lancet.core.Args</title>
<path fill="none" stroke="black" stroke-width="0.5" d="M546.118,-164.603C559.629,-167.548 573.138,-172.587 584,-181 613.549,-203.887 590.612,-233.906 620,-257 631.193,-265.795 645.447,-270.802 659.375,-273.581"/>
<polygon fill="black" stroke="black" points="659.254,-275.337 664.485,-274.507 659.878,-271.893 659.254,-275.337"/>
</g>
<!-- lancet.core.StaticConcatenate -->
<g id="node12" class="node"><title>lancet.core.StaticConcatenate</title>
<polygon fill="none" stroke="black" stroke-width="0.5" points="793,-248.5 631,-248.5 631,-227.5 793,-227.5 793,-248.5"/>
<text text-anchor="middle" x="712" y="-235.5" font-family="Vera" font-size="10.00">lancet.core.StaticConcatenate</text>
</g>
<!-- lancet.core.StaticArgs&#45;&gt;lancet.core.StaticConcatenate -->
<g id="edge12" class="edge"><title>lancet.core.StaticArgs&#45;&gt;lancet.core.StaticConcatenate</title>
<path fill="none" stroke="black" stroke-width="0.5" d="M546.222,-167.608C559.223,-170.454 572.487,-174.695 584,-181 604.405,-192.174 599.674,-207.683 620,-219 625.121,-221.851 630.617,-224.276 636.282,-226.339"/>
<polygon fill="black" stroke="black" points="635.779,-228.016 641.076,-227.987 636.917,-224.707 635.779,-228.016"/>
</g>
<!-- lancet.core.ListArgs -->
<g id="node16" class="node"><title>lancet.core.ListArgs</title>
<polygon fill="none" stroke="black" stroke-width="0.5" points="767,-210.5 657,-210.5 657,-189.5 767,-189.5 767,-210.5"/>
<text text-anchor="middle" x="712" y="-197.5" font-family="Vera" font-size="10.00">lancet.core.ListArgs</text>
</g>
<!-- lancet.core.StaticArgs&#45;&gt;lancet.core.ListArgs -->
<g id="edge16" class="edge"><title>lancet.core.StaticArgs&#45;&gt;lancet.core.ListArgs</title>
<path fill="none" stroke="black" stroke-width="0.5" d="M544.939,-172.034C577.73,-177.523 618.262,-184.308 651.19,-189.82"/>
<polygon fill="black" stroke="black" points="651.186,-191.594 656.407,-190.694 651.764,-188.142 651.186,-191.594"/>
</g>
<!-- lancet.core.Indexed -->
<g id="node18" class="node"><title>lancet.core.Indexed</title>
<polygon fill="none" stroke="black" stroke-width="0.5" points="767,-172.5 657,-172.5 657,-151.5 767,-151.5 767,-172.5"/>
<text text-anchor="middle" x="712" y="-159.5" font-family="Vera" font-size="10.00">lancet.core.Indexed</text>
</g>
<!-- lancet.core.StaticArgs&#45;&gt;lancet.core.Indexed -->
<g id="edge18" class="edge"><title>lancet.core.StaticArgs&#45;&gt;lancet.core.Indexed</title>
<path fill="none" stroke="black" stroke-width="0.5" d="M546.13,-162C578.913,-162 619.161,-162 651.8,-162"/>
<polygon fill="black" stroke="black" points="651.971,-163.75 656.971,-162 651.971,-160.25 651.971,-163.75"/>
</g>
<!-- lancet.core.LexSorted -->
<g id="node20" class="node"><title>lancet.core.LexSorted</title>
<polygon fill="none" stroke="black" stroke-width="0.5" points="773,-134.5 651,-134.5 651,-113.5 773,-113.5 773,-134.5"/>
<text text-anchor="middle" x="712" y="-121.5" font-family="Vera" font-size="10.00">lancet.core.LexSorted</text>
</g>
<!-- lancet.core.StaticArgs&#45;&gt;lancet.core.LexSorted -->
<g id="edge20" class="edge"><title>lancet.core.StaticArgs&#45;&gt;lancet.core.LexSorted</title>
<path fill="none" stroke="black" stroke-width="0.5" d="M544.939,-151.966C576.359,-146.706 614.885,-140.257 647.019,-134.878"/>
<polygon fill="black" stroke="black" points="647.477,-136.576 652.12,-134.024 646.899,-133.124 647.477,-136.576"/>
</g>
<!-- lancet.core.Log -->
<g id="node24" class="node"><title>lancet.core.Log</title>
<polygon fill="none" stroke="black" stroke-width="0.5" points="757,-96.5 667,-96.5 667,-75.5 757,-75.5 757,-96.5"/>
<text text-anchor="middle" x="712" y="-83.5" font-family="Vera" font-size="10.00">lancet.core.Log</text>
</g>
<!-- lancet.core.StaticArgs&#45;&gt;lancet.core.Log -->
<g id="edge24" class="edge"><title>lancet.core.StaticArgs&#45;&gt;lancet.core.Log</title>
<path fill="none" stroke="black" stroke-width="0.5" d="M546.222,-156.392C559.223,-153.546 572.487,-149.305 584,-143 604.405,-131.826 599.674,-116.317 620,-105 632.564,-98.0045 647.387,-93.574 661.422,-90.7713"/>
<polygon fill="black" stroke="black" points="661.96,-92.4512 666.552,-89.8107 661.315,-89.011 661.96,-92.4512"/>
</g>
<!-- lancet.core.LinearArgs -->
<g id="node26" class="node"><title>lancet.core.LinearArgs</title>
<polygon fill="none" stroke="black" stroke-width="0.5" points="774,-58.5 650,-58.5 650,-37.5 774,-37.5 774,-58.5"/>
<text text-anchor="middle" x="712" y="-45.5" font-family="Vera" font-size="10.00">lancet.core.LinearArgs</text>
</g>
<!-- lancet.core.StaticArgs&#45;&gt;lancet.core.LinearArgs -->
<g id="edge26" class="edge"><title>lancet.core.StaticArgs&#45;&gt;lancet.core.LinearArgs</title>
<path fill="none" stroke="black" stroke-width="0.5" d="M546.118,-159.397C559.629,-156.452 573.138,-151.413 584,-143 613.549,-120.113 590.612,-90.0936 620,-67 627.249,-61.3033 635.783,-57.196 644.681,-54.254"/>
<polygon fill="black" stroke="black" points="645.384,-55.8693 649.656,-52.7367 644.363,-52.5215 645.384,-55.8693"/>
</g>
<!-- lancet.core.FilePattern -->
<g id="node28" class="node"><title>lancet.core.FilePattern</title>
<polygon fill="none" stroke="black" stroke-width="0.5" points="773,-20.5 651,-20.5 651,0.5 773,0.5 773,-20.5"/>
<text text-anchor="middle" x="712" y="-7.5" font-family="Vera" font-size="10.00">lancet.core.FilePattern</text>
</g>
<!-- lancet.core.StaticArgs&#45;&gt;lancet.core.FilePattern -->
<g id="edge28" class="edge"><title>lancet.core.StaticArgs&#45;&gt;lancet.core.FilePattern</title>
<path fill="none" stroke="black" stroke-width="0.5" d="M546.209,-160.606C559.951,-157.654 573.541,-152.308 584,-143 623.69,-107.676 580.559,-64.6022 620,-29 627.32,-22.3927 636.314,-17.8466 645.783,-14.7566"/>
<polygon fill="black" stroke="black" points="646.479,-16.3752 650.771,-13.2702 645.48,-13.0209 646.479,-16.3752"/>
</g>
<!-- param.parameterized.Parameterized -->
<g id="node8" class="node"><title>param.parameterized.Parameterized</title>
<polygon fill="none" stroke="black" stroke-width="0.5" points="194,-153.5 5.68434e-14,-153.5 0,-132.5 194,-132.5 194,-153.5"/>
<text text-anchor="middle" x="97" y="-140.5" font-family="Vera" font-size="10.00">param.parameterized.Parameterized</text>
</g>
<!-- param.parameterized.Parameterized&#45;&gt;lancet.core.BaseArgs -->
<g id="edge8" class="edge"><title>param.parameterized.Parameterized&#45;&gt;lancet.core.BaseArgs</title>
<path fill="none" stroke="black" stroke-width="0.5" d="M194.065,-152.556C204.617,-153.594 215.159,-154.632 225.188,-155.62"/>
<polygon fill="black" stroke="black" points="225.236,-157.383 230.383,-156.131 225.579,-153.899 225.236,-157.383"/>
</g>
<!-- lancet.core.applying -->
<g id="node14" class="node"><title>lancet.core.applying</title>
<polygon fill="none" stroke="black" stroke-width="0.5" points="346,-134.5 234,-134.5 234,-113.5 346,-113.5 346,-134.5"/>
<text text-anchor="middle" x="290" y="-121.5" font-family="Vera" font-size="10.00">lancet.core.applying</text>
</g>
<!-- param.parameterized.Parameterized&#45;&gt;lancet.core.applying -->
<g id="edge14" class="edge"><title>param.parameterized.Parameterized&#45;&gt;lancet.core.applying</title>
<path fill="none" stroke="black" stroke-width="0.5" d="M194.065,-133.444C205.706,-132.298 217.335,-131.154 228.276,-130.076"/>
<polygon fill="black" stroke="black" points="228.448,-131.818 233.252,-129.587 228.105,-128.335 228.448,-131.818"/>
</g>
</g>
</svg>
