<?xml version="1.0" encoding="UTF-8" standalone="no"?>
<!DOCTYPE svg PUBLIC "-//W3C//DTD SVG 1.1//EN"
 "http://www.w3.org/Graphics/SVG/1.1/DTD/svg11.dtd">
<!-- Generated by graphviz version 2.26.3 (20100126.1600)
 -->
<!-- Title: inheritance0509d66467 Pages: 1 -->
<svg width="1074pt" height="389pt"
 viewBox="0.00 0.00 1074.00 389.00" xmlns="http://www.w3.org/2000/svg" xmlns:xlink="http://www.w3.org/1999/xlink">
<g id="graph1" class="graph" transform="scale(1 1) rotate(0) translate(4 385)">
<title>inheritance0509d66467</title>
<polygon fill="white" stroke="white" points="-4,5 -4,-385 1071,-385 1071,5 -4,5"/>
<!-- topo.transferfn.ScalingTF -->
<g id="node1" class="node"><title>topo.transferfn.ScalingTF</title>
<polygon fill="none" stroke="black" stroke-width="0.5" points="805,-381 675,-381 675,-361 805,-361 805,-381"/>
<text text-anchor="middle" x="740" y="-368" font-family="Vera" font-size="10.00">topo.transferfn.ScalingTF</text>
</g>
<!-- topo.transferfn.TransferFnWithState -->
<g id="node2" class="node"><title>topo.transferfn.TransferFnWithState</title>
<polygon fill="none" stroke="black" stroke-width="0.5" points="590,-324 410,-324 410,-304 590,-304 590,-324"/>
<text text-anchor="middle" x="500" y="-311" font-family="Vera" font-size="10.00">topo.transferfn.TransferFnWithState</text>
</g>
<!-- topo.transferfn.TransferFnWithState&#45;&gt;topo.transferfn.ScalingTF -->
<g id="edge2" class="edge"><title>topo.transferfn.TransferFnWithState&#45;&gt;topo.transferfn.ScalingTF</title>
<path fill="none" stroke="black" stroke-width="0.5" d="M530.734,-324.054C556.913,-332.36 595.64,-344.038 630,-352 642.75,-354.955 656.429,-357.673 669.659,-360.073"/>
<polygon fill="black" stroke="black" points="669.67,-361.853 674.9,-361.012 670.287,-358.408 669.67,-361.853"/>
</g>
<!-- topo.transferfn.ActivityAveragingTF -->
<g id="node4" class="node"><title>topo.transferfn.ActivityAveragingTF</title>
<polygon fill="none" stroke="black" stroke-width="0.5" points="828,-343 652,-343 652,-323 828,-323 828,-343"/>
<text text-anchor="middle" x="740" y="-330" font-family="Vera" font-size="10.00">topo.transferfn.ActivityAveragingTF</text>
</g>
<!-- topo.transferfn.TransferFnWithState&#45;&gt;topo.transferfn.ActivityAveragingTF -->
<g id="edge4" class="edge"><title>topo.transferfn.TransferFnWithState&#45;&gt;topo.transferfn.ActivityAveragingTF</title>
<path fill="none" stroke="black" stroke-width="0.5" d="M590.734,-321.183C609.055,-322.634 628.346,-324.161 646.752,-325.618"/>
<polygon fill="black" stroke="black" points="646.796,-327.377 651.919,-326.027 647.072,-323.888 646.796,-327.377"/>
</g>
<!-- topo.transferfn.TransferFnWithRandomState -->
<g id="node11" class="node"><title>topo.transferfn.TransferFnWithRandomState</title>
<polygon fill="none" stroke="black" stroke-width="0.5" points="849,-305 631,-305 631,-285 849,-285 849,-305"/>
<text text-anchor="middle" x="740" y="-292" font-family="Vera" font-size="10.00">topo.transferfn.TransferFnWithRandomState</text>
</g>
<!-- topo.transferfn.TransferFnWithState&#45;&gt;topo.transferfn.TransferFnWithRandomState -->
<g id="edge18" class="edge"><title>topo.transferfn.TransferFnWithState&#45;&gt;topo.transferfn.TransferFnWithRandomState</title>
<path fill="none" stroke="black" stroke-width="0.5" d="M590.734,-306.817C601.9,-305.933 613.425,-305.02 624.892,-304.113"/>
<polygon fill="black" stroke="black" points="625.308,-305.835 630.154,-303.696 625.032,-302.346 625.308,-305.835"/>
</g>
<!-- topo.transferfn.Hysteresis -->
<g id="node32" class="node"><title>topo.transferfn.Hysteresis</title>
<polygon fill="none" stroke="black" stroke-width="0.5" points="807,-267 673,-267 673,-247 807,-247 807,-267"/>
<text text-anchor="middle" x="740" y="-254" font-family="Vera" font-size="10.00">topo.transferfn.Hysteresis</text>
</g>
<!-- topo.transferfn.TransferFnWithState&#45;&gt;topo.transferfn.Hysteresis -->
<g id="edge32" class="edge"><title>topo.transferfn.TransferFnWithState&#45;&gt;topo.transferfn.Hysteresis</title>
<path fill="none" stroke="black" stroke-width="0.5" d="M562.626,-303.951C573.24,-301.509 584.042,-298.551 594,-295 611.041,-288.924 612.875,-281.834 630,-276 641.984,-271.917 655.015,-268.681 667.779,-266.125"/>
<polygon fill="black" stroke="black" points="668.269,-267.813 672.844,-265.143 667.602,-264.377 668.269,-267.813"/>
</g>
<!-- topo.transferfn.HalfRectifyAndSquare -->
<g id="node6" class="node"><title>topo.transferfn.HalfRectifyAndSquare</title>
<polygon fill="none" stroke="black" stroke-width="0.5" points="593,-286 407,-286 407,-266 593,-266 593,-286"/>
<text text-anchor="middle" x="500" y="-273" font-family="Vera" font-size="10.00">topo.transferfn.HalfRectifyAndSquare</text>
</g>
<!-- imagen.transferfn.TransferFn -->
<g id="node7" class="node"><title>imagen.transferfn.TransferFn</title>
<polygon fill="none" stroke="black" stroke-width="0.5" points="370,-172 220,-172 220,-152 370,-152 370,-172"/>
<text text-anchor="middle" x="295" y="-159" font-family="Vera" font-size="10.00">imagen.transferfn.TransferFn</text>
</g>
<!-- imagen.transferfn.TransferFn&#45;&gt;topo.transferfn.TransferFnWithState -->
<g id="edge8" class="edge"><title>imagen.transferfn.TransferFn&#45;&gt;topo.transferfn.TransferFnWithState</title>
<path fill="none" stroke="black" stroke-width="0.5" d="M300.355,-172.346C314.102,-197.785 353.294,-263.594 406,-295 410.599,-297.741 415.526,-300.092 420.626,-302.11"/>
<polygon fill="black" stroke="black" points="420.057,-303.766 425.354,-303.87 421.279,-300.486 420.057,-303.766"/>
</g>
<!-- imagen.transferfn.TransferFn&#45;&gt;topo.transferfn.HalfRectifyAndSquare -->
<g id="edge6" class="edge"><title>imagen.transferfn.TransferFn&#45;&gt;topo.transferfn.HalfRectifyAndSquare</title>
<path fill="none" stroke="black" stroke-width="0.5" d="M303.595,-172.223C320.831,-191.997 361.769,-235.434 406,-257 411.963,-259.907 418.346,-262.37 424.876,-264.456"/>
<polygon fill="black" stroke="black" points="424.6,-266.201 429.892,-265.979 425.616,-262.852 424.6,-266.201"/>
</g>
<!-- topo.transferfn.Square -->
<g id="node13" class="node"><title>topo.transferfn.Square</title>
<polygon fill="none" stroke="black" stroke-width="0.5" points="560,-248 440,-248 440,-228 560,-228 560,-248"/>
<text text-anchor="middle" x="500" y="-235" font-family="Vera" font-size="10.00">topo.transferfn.Square</text>
</g>
<!-- imagen.transferfn.TransferFn&#45;&gt;topo.transferfn.Square -->
<g id="edge12" class="edge"><title>imagen.transferfn.TransferFn&#45;&gt;topo.transferfn.Square</title>
<path fill="none" stroke="black" stroke-width="0.5" d="M311.284,-172.183C332.373,-184.936 370.63,-206.611 406,-219 415.099,-222.187 424.891,-224.905 434.597,-227.202"/>
<polygon fill="black" stroke="black" points="434.396,-228.951 439.661,-228.365 435.18,-225.54 434.396,-228.951"/>
</g>
<!-- topo.transferfn.HalfRectifyAndPower -->
<g id="node15" class="node"><title>topo.transferfn.HalfRectifyAndPower</title>
<polygon fill="none" stroke="black" stroke-width="0.5" points="591,-210 409,-210 409,-190 591,-190 591,-210"/>
<text text-anchor="middle" x="500" y="-197" font-family="Vera" font-size="10.00">topo.transferfn.HalfRectifyAndPower</text>
</g>
<!-- imagen.transferfn.TransferFn&#45;&gt;topo.transferfn.HalfRectifyAndPower -->
<g id="edge14" class="edge"><title>imagen.transferfn.TransferFn&#45;&gt;topo.transferfn.HalfRectifyAndPower</title>
<path fill="none" stroke="black" stroke-width="0.5" d="M349.129,-172.034C377.388,-177.272 412.011,-183.69 440.958,-189.056"/>
<polygon fill="black" stroke="black" points="440.688,-190.785 445.923,-189.976 441.326,-187.344 440.688,-190.785"/>
</g>
<!-- topo.transferfn.NakaRushton -->
<g id="node18" class="node"><title>topo.transferfn.NakaRushton</title>
<polygon fill="none" stroke="black" stroke-width="0.5" points="574,-172 426,-172 426,-152 574,-152 574,-172"/>
<text text-anchor="middle" x="500" y="-159" font-family="Vera" font-size="10.00">topo.transferfn.NakaRushton</text>
</g>
<!-- imagen.transferfn.TransferFn&#45;&gt;topo.transferfn.NakaRushton -->
<g id="edge16" class="edge"><title>imagen.transferfn.TransferFn&#45;&gt;topo.transferfn.NakaRushton</title>
<path fill="none" stroke="black" stroke-width="0.5" d="M370.17,-162C386.429,-162 403.677,-162 420.11,-162"/>
<polygon fill="black" stroke="black" points="420.181,-163.75 425.181,-162 420.181,-160.25 420.181,-163.75"/>
</g>
<!-- topo.transferfn.GeneralizedLogistic -->
<g id="node21" class="node"><title>topo.transferfn.GeneralizedLogistic</title>
<polygon fill="none" stroke="black" stroke-width="0.5" points="588,-134 412,-134 412,-114 588,-114 588,-134"/>
<text text-anchor="middle" x="500" y="-121" font-family="Vera" font-size="10.00">topo.transferfn.GeneralizedLogistic</text>
</g>
<!-- imagen.transferfn.TransferFn&#45;&gt;topo.transferfn.GeneralizedLogistic -->
<g id="edge20" class="edge"><title>imagen.transferfn.TransferFn&#45;&gt;topo.transferfn.GeneralizedLogistic</title>
<path fill="none" stroke="black" stroke-width="0.5" d="M349.129,-151.966C377.388,-146.728 412.011,-140.31 440.958,-134.944"/>
<polygon fill="black" stroke="black" points="441.326,-136.656 445.923,-134.024 440.688,-133.215 441.326,-136.656"/>
</g>
<!-- topo.transferfn.PiecewiseLinear -->
<g id="node24" class="node"><title>topo.transferfn.PiecewiseLinear</title>
<polygon fill="none" stroke="black" stroke-width="0.5" points="580,-96 420,-96 420,-76 580,-76 580,-96"/>
<text text-anchor="middle" x="500" y="-83" font-family="Vera" font-size="10.00">topo.transferfn.PiecewiseLinear</text>
</g>
<!-- imagen.transferfn.TransferFn&#45;&gt;topo.transferfn.PiecewiseLinear -->
<g id="edge24" class="edge"><title>imagen.transferfn.TransferFn&#45;&gt;topo.transferfn.PiecewiseLinear</title>
<path fill="none" stroke="black" stroke-width="0.5" d="M311.284,-151.817C332.373,-139.064 370.63,-117.389 406,-105 414.552,-102.005 423.715,-99.4241 432.845,-97.2175"/>
<polygon fill="black" stroke="black" points="433.44,-98.8753 437.909,-96.0298 432.641,-95.4678 433.44,-98.8753"/>
</g>
<!-- topo.transferfn.Sigmoid -->
<g id="node26" class="node"><title>topo.transferfn.Sigmoid</title>
<polygon fill="none" stroke="black" stroke-width="0.5" points="562,-58 438,-58 438,-38 562,-38 562,-58"/>
<text text-anchor="middle" x="500" y="-45" font-family="Vera" font-size="10.00">topo.transferfn.Sigmoid</text>
</g>
<!-- imagen.transferfn.TransferFn&#45;&gt;topo.transferfn.Sigmoid -->
<g id="edge26" class="edge"><title>imagen.transferfn.TransferFn&#45;&gt;topo.transferfn.Sigmoid</title>
<path fill="none" stroke="black" stroke-width="0.5" d="M303.595,-151.777C320.831,-132.003 361.769,-88.566 406,-67 414.208,-62.9982 423.213,-59.839 432.297,-57.345"/>
<polygon fill="black" stroke="black" points="432.951,-58.9829 437.347,-56.0268 432.067,-55.5963 432.951,-58.9829"/>
</g>
<!-- topo.transferfn.ExpLinear -->
<g id="node30" class="node"><title>topo.transferfn.ExpLinear</title>
<polygon fill="none" stroke="black" stroke-width="0.5" points="566,-20 434,-20 434,-1.06581e-14 566,-3.55271e-15 566,-20"/>
<text text-anchor="middle" x="500" y="-7" font-family="Vera" font-size="10.00">topo.transferfn.ExpLinear</text>
</g>
<!-- imagen.transferfn.TransferFn&#45;&gt;topo.transferfn.ExpLinear -->
<g id="edge30" class="edge"><title>imagen.transferfn.TransferFn&#45;&gt;topo.transferfn.ExpLinear</title>
<path fill="none" stroke="black" stroke-width="0.5" d="M300.355,-151.654C314.102,-126.215 353.294,-60.4061 406,-29 412.87,-24.9065 420.471,-21.6802 428.287,-19.1398"/>
<polygon fill="black" stroke="black" points="428.906,-20.7804 433.176,-17.645 427.883,-17.4333 428.906,-20.7804"/>
</g>
<!-- topo.transferfn.PoissonSample -->
<g id="node10" class="node"><title>topo.transferfn.PoissonSample</title>
<polygon fill="none" stroke="black" stroke-width="0.5" points="1054,-324 898,-324 898,-304 1054,-304 1054,-324"/>
<text text-anchor="middle" x="976" y="-311" font-family="Vera" font-size="10.00">topo.transferfn.PoissonSample</text>
</g>
<!-- topo.transferfn.TransferFnWithRandomState&#45;&gt;topo.transferfn.PoissonSample -->
<g id="edge10" class="edge"><title>topo.transferfn.TransferFnWithRandomState&#45;&gt;topo.transferfn.PoissonSample</title>
<path fill="none" stroke="black" stroke-width="0.5" d="M849.709,-303.833C863.968,-304.98 878.388,-306.141 892.133,-307.248"/>
<polygon fill="black" stroke="black" points="892.04,-308.996 897.164,-307.653 892.321,-305.507 892.04,-308.996"/>
</g>
<!-- topo.transferfn.HomeostaticMaxEnt -->
<g id="node28" class="node"><title>topo.transferfn.HomeostaticMaxEnt</title>
<polygon fill="none" stroke="black" stroke-width="0.5" points="1065,-286 887,-286 887,-266 1065,-266 1065,-286"/>
<text text-anchor="middle" x="976" y="-273" font-family="Vera" font-size="10.00">topo.transferfn.HomeostaticMaxEnt</text>
</g>
<!-- topo.transferfn.TransferFnWithRandomState&#45;&gt;topo.transferfn.HomeostaticMaxEnt -->
<g id="edge28" class="edge"><title>topo.transferfn.TransferFnWithRandomState&#45;&gt;topo.transferfn.HomeostaticMaxEnt</title>
<path fill="none" stroke="black" stroke-width="0.5" d="M849.709,-286.167C860.26,-285.318 870.901,-284.461 881.29,-283.625"/>
<polygon fill="black" stroke="black" points="881.525,-285.362 886.368,-283.216 881.244,-281.873 881.525,-285.362"/>
</g>
<!-- param.parameterized.Parameterized -->
<g id="node17" class="node"><title>param.parameterized.Parameterized</title>
<polygon fill="none" stroke="black" stroke-width="0.5" points="184,-172 8.52651e-14,-172 0,-152 184,-152 184,-172"/>
<text text-anchor="middle" x="92" y="-159" font-family="Vera" font-size="10.00">param.parameterized.Parameterized</text>
</g>
<!-- param.parameterized.Parameterized&#45;&gt;imagen.transferfn.TransferFn -->
<g id="edge22" class="edge"><title>param.parameterized.Parameterized&#45;&gt;imagen.transferfn.TransferFn</title>
<path fill="none" stroke="black" stroke-width="0.5" d="M184.293,-162C194.461,-162 204.753,-162 214.756,-162"/>
<polygon fill="black" stroke="black" points="214.959,-163.75 219.959,-162 214.959,-160.25 214.959,-163.75"/>
</g>
</g>
</svg>
