<?xml version="1.0" encoding="UTF-8" standalone="no"?>
<!DOCTYPE svg PUBLIC "-//W3C//DTD SVG 1.1//EN"
 "http://www.w3.org/Graphics/SVG/1.1/DTD/svg11.dtd">
<!-- Generated by graphviz version 2.26.3 (20100126.1600)
 -->
<!-- Title: inheritancedae98195e7 Pages: 1 -->
<svg width="640pt" height="180pt"
 viewBox="0.00 0.00 640.00 180.00" xmlns="http://www.w3.org/2000/svg" xmlns:xlink="http://www.w3.org/1999/xlink">
<g id="graph1" class="graph" transform="scale(1 1) rotate(0) translate(4 176)">
<title>inheritancedae98195e7</title>
<polygon fill="white" stroke="white" points="-4,5 -4,-176 637,-176 637,5 -4,5"/>
<!-- topo.learningfn.projfn.CFPLF_OutstarHebbian -->
<g id="node1" class="node"><title>topo.learningfn.projfn.CFPLF_OutstarHebbian</title>
<polygon fill="none" stroke="black" stroke-width="0.5" points="626,-172 404,-172 404,-152 626,-152 626,-172"/>
<text text-anchor="middle" x="515" y="-159" font-family="Vera" font-size="10.00">topo.learningfn.projfn.CFPLF_OutstarHebbian</text>
</g>
<!-- topo.base.cf.CFPLearningFn -->
<g id="node2" class="node"><title>topo.base.cf.CFPLearningFn</title>
<polygon fill="none" stroke="black" stroke-width="0.5" points="362,-96 220,-96 220,-76 362,-76 362,-96"/>
<text text-anchor="middle" x="291" y="-83" font-family="Vera" font-size="10.00">topo.base.cf.CFPLearningFn</text>
</g>
<!-- topo.base.cf.CFPLearningFn&#45;&gt;topo.learningfn.projfn.CFPLF_OutstarHebbian -->
<g id="edge2" class="edge"><title>topo.base.cf.CFPLearningFn&#45;&gt;topo.learningfn.projfn.CFPLF_OutstarHebbian</title>
<path fill="none" stroke="black" stroke-width="0.5" d="M306.22,-96.1962C326.337,-109.171 363.297,-131.298 398,-143 407.133,-146.08 416.84,-148.668 426.606,-150.843"/>
<polygon fill="black" stroke="black" points="426.459,-152.601 431.716,-151.943 427.196,-149.18 426.459,-152.601"/>
</g>
<!-- topo.learningfn.projfn.CFPLF_EuclideanHebbian -->
<g id="node5" class="node"><title>topo.learningfn.projfn.CFPLF_EuclideanHebbian</title>
<polygon fill="none" stroke="black" stroke-width="0.5" points="631,-134 399,-134 399,-114 631,-114 631,-134"/>
<text text-anchor="middle" x="515" y="-121" font-family="Vera" font-size="10.00">topo.learningfn.projfn.CFPLF_EuclideanHebbian</text>
</g>
<!-- topo.base.cf.CFPLearningFn&#45;&gt;topo.learningfn.projfn.CFPLF_EuclideanHebbian -->
<g id="edge4" class="edge"><title>topo.base.cf.CFPLearningFn&#45;&gt;topo.learningfn.projfn.CFPLF_EuclideanHebbian</title>
<path fill="none" stroke="black" stroke-width="0.5" d="M346.508,-96.017C363.065,-98.9616 381.26,-102.155 398,-105 413.904,-107.703 431.038,-110.532 447.158,-113.157"/>
<polygon fill="black" stroke="black" points="446.91,-114.89 452.126,-113.965 447.472,-111.435 446.91,-114.89"/>
</g>
<!-- topo.learningfn.projfn.CFPLF_Trace -->
<g id="node7" class="node"><title>topo.learningfn.projfn.CFPLF_Trace</title>
<polygon fill="none" stroke="black" stroke-width="0.5" points="602,-96 428,-96 428,-76 602,-76 602,-96"/>
<text text-anchor="middle" x="515" y="-83" font-family="Vera" font-size="10.00">topo.learningfn.projfn.CFPLF_Trace</text>
</g>
<!-- topo.base.cf.CFPLearningFn&#45;&gt;topo.learningfn.projfn.CFPLF_Trace -->
<g id="edge6" class="edge"><title>topo.base.cf.CFPLearningFn&#45;&gt;topo.learningfn.projfn.CFPLF_Trace</title>
<path fill="none" stroke="black" stroke-width="0.5" d="M362.183,-86C381.315,-86 402.287,-86 422.399,-86"/>
<polygon fill="black" stroke="black" points="422.492,-87.7501 427.492,-86 422.492,-84.2501 422.492,-87.7501"/>
</g>
<!-- topo.learningfn.projfn.CFPLF_PluginScaled -->
<g id="node10" class="node"><title>topo.learningfn.projfn.CFPLF_PluginScaled</title>
<polygon fill="none" stroke="black" stroke-width="0.5" points="619,-58 411,-58 411,-38 619,-38 619,-58"/>
<text text-anchor="middle" x="515" y="-45" font-family="Vera" font-size="10.00">topo.learningfn.projfn.CFPLF_PluginScaled</text>
</g>
<!-- topo.base.cf.CFPLearningFn&#45;&gt;topo.learningfn.projfn.CFPLF_PluginScaled -->
<g id="edge10" class="edge"><title>topo.base.cf.CFPLearningFn&#45;&gt;topo.learningfn.projfn.CFPLF_PluginScaled</title>
<path fill="none" stroke="black" stroke-width="0.5" d="M346.508,-75.983C363.065,-73.0384 381.26,-69.8454 398,-67 413.904,-64.2968 431.038,-61.4676 447.158,-58.843"/>
<polygon fill="black" stroke="black" points="447.472,-60.5651 452.126,-58.0353 446.91,-57.1104 447.472,-60.5651"/>
</g>
<!-- topo.learningfn.projfn.HomeoSynaptic -->
<g id="node12" class="node"><title>topo.learningfn.projfn.HomeoSynaptic</title>
<polygon fill="none" stroke="black" stroke-width="0.5" points="610,-20 420,-20 420,-1.06581e-14 610,-3.55271e-15 610,-20"/>
<text text-anchor="middle" x="515" y="-7" font-family="Vera" font-size="10.00">topo.learningfn.projfn.HomeoSynaptic</text>
</g>
<!-- topo.base.cf.CFPLearningFn&#45;&gt;topo.learningfn.projfn.HomeoSynaptic -->
<g id="edge12" class="edge"><title>topo.base.cf.CFPLearningFn&#45;&gt;topo.learningfn.projfn.HomeoSynaptic</title>
<path fill="none" stroke="black" stroke-width="0.5" d="M306.22,-75.8038C326.337,-62.8292 363.297,-40.7021 398,-29 407.133,-25.9203 416.84,-23.3316 426.606,-21.1572"/>
<polygon fill="black" stroke="black" points="427.196,-22.8204 431.716,-20.0575 426.459,-19.3988 427.196,-22.8204"/>
</g>
<!-- param.parameterized.Parameterized -->
<g id="node4" class="node"><title>param.parameterized.Parameterized</title>
<polygon fill="none" stroke="black" stroke-width="0.5" points="184,-96 8.52651e-14,-96 0,-76 184,-76 184,-96"/>
<text text-anchor="middle" x="92" y="-83" font-family="Vera" font-size="10.00">param.parameterized.Parameterized</text>
</g>
<!-- param.parameterized.Parameterized&#45;&gt;topo.base.cf.CFPLearningFn -->
<g id="edge8" class="edge"><title>param.parameterized.Parameterized&#45;&gt;topo.base.cf.CFPLearningFn</title>
<path fill="none" stroke="black" stroke-width="0.5" d="M184.218,-86C194.434,-86 204.754,-86 214.742,-86"/>
<polygon fill="black" stroke="black" points="214.932,-87.7501 219.932,-86 214.932,-84.2501 214.932,-87.7501"/>
</g>
</g>
</svg>
