<?xml version="1.0" encoding="UTF-8" standalone="no"?>
<!DOCTYPE svg PUBLIC "-//W3C//DTD SVG 1.1//EN"
 "http://www.w3.org/Graphics/SVG/1.1/DTD/svg11.dtd">
<!-- Generated by graphviz version 2.26.3 (20100126.1600)
 -->
<!-- Title: inheritance3d1eaa8e0e Pages: 1 -->
<svg width="1284pt" height="180pt"
 viewBox="0.00 0.00 1284.00 180.00" xmlns="http://www.w3.org/2000/svg" xmlns:xlink="http://www.w3.org/1999/xlink">
<g id="graph1" class="graph" transform="scale(1 1) rotate(0) translate(4 176)">
<title>inheritance3d1eaa8e0e</title>
<polygon fill="white" stroke="white" points="-4,5 -4,-176 1281,-176 1281,5 -4,5"/>
<!-- topo.misc.distribution.Pref -->
<g id="node1" class="node"><title>topo.misc.distribution.Pref</title>
<polygon fill="none" stroke="black" stroke-width="0.5" points="168,-48.5 26,-48.5 26,-27.5 168,-27.5 168,-48.5"/>
<text text-anchor="middle" x="97" y="-35.5" font-family="Vera" font-size="10.00">topo.misc.distribution.Pref</text>
</g>
<!-- param.parameterized.Parameterized -->
<g id="node2" class="node"><title>param.parameterized.Parameterized</title>
<polygon fill="none" stroke="black" stroke-width="0.5" points="194,-86.5 5.68434e-14,-86.5 0,-65.5 194,-65.5 194,-86.5"/>
<text text-anchor="middle" x="97" y="-73.5" font-family="Vera" font-size="10.00">param.parameterized.Parameterized</text>
</g>
<!-- topo.misc.distribution.DistributionStatisticFn -->
<g id="node4" class="node"><title>topo.misc.distribution.DistributionStatisticFn</title>
<polygon fill="none" stroke="black" stroke-width="0.5" points="458,-86.5 230,-86.5 230,-65.5 458,-65.5 458,-86.5"/>
<text text-anchor="middle" x="344" y="-73.5" font-family="Vera" font-size="10.00">topo.misc.distribution.DistributionStatisticFn</text>
</g>
<!-- param.parameterized.Parameterized&#45;&gt;topo.misc.distribution.DistributionStatisticFn -->
<g id="edge18" class="edge"><title>param.parameterized.Parameterized&#45;&gt;topo.misc.distribution.DistributionStatisticFn</title>
<path fill="none" stroke="black" stroke-width="0.5" d="M194.266,-76C204.153,-76 214.275,-76 224.362,-76"/>
<polygon fill="black" stroke="black" points="224.633,-77.7501 229.633,-76 224.633,-74.2501 224.633,-77.7501"/>
</g>
<!-- topo.misc.distribution.DescriptiveStatisticFn -->
<g id="node3" class="node"><title>topo.misc.distribution.DescriptiveStatisticFn</title>
<polygon fill="none" stroke="black" stroke-width="0.5" points="721,-115.5 495,-115.5 495,-94.5 721,-94.5 721,-115.5"/>
<text text-anchor="middle" x="608" y="-102.5" font-family="Vera" font-size="10.00">topo.misc.distribution.DescriptiveStatisticFn</text>
</g>
<!-- topo.misc.distribution.DSF_MaxValue -->
<g id="node8" class="node"><title>topo.misc.distribution.DSF_MaxValue</title>
<polygon fill="none" stroke="black" stroke-width="0.5" points="988,-172.5 794,-172.5 794,-151.5 988,-151.5 988,-172.5"/>
<text text-anchor="middle" x="891" y="-159.5" font-family="Vera" font-size="10.00">topo.misc.distribution.DSF_MaxValue</text>
</g>
<!-- topo.misc.distribution.DescriptiveStatisticFn&#45;&gt;topo.misc.distribution.DSF_MaxValue -->
<g id="edge6" class="edge"><title>topo.misc.distribution.DescriptiveStatisticFn&#45;&gt;topo.misc.distribution.DSF_MaxValue</title>
<path fill="none" stroke="black" stroke-width="0.5" d="M643.219,-115.05C673.465,-123.409 718.335,-135.166 758,-143 773.316,-146.025 789.715,-148.767 805.584,-151.168"/>
<polygon fill="black" stroke="black" points="805.739,-152.96 810.943,-151.968 806.256,-149.499 805.739,-152.96"/>
</g>
<!-- topo.misc.distribution.DescriptiveBimodalStatisticFn -->
<g id="node12" class="node"><title>topo.misc.distribution.DescriptiveBimodalStatisticFn</title>
<polygon fill="none" stroke="black" stroke-width="0.5" points="1024,-134.5 758,-134.5 758,-113.5 1024,-113.5 1024,-134.5"/>
<text text-anchor="middle" x="891" y="-121.5" font-family="Vera" font-size="10.00">topo.misc.distribution.DescriptiveBimodalStatisticFn</text>
</g>
<!-- topo.misc.distribution.DescriptiveStatisticFn&#45;&gt;topo.misc.distribution.DescriptiveBimodalStatisticFn -->
<g id="edge16" class="edge"><title>topo.misc.distribution.DescriptiveStatisticFn&#45;&gt;topo.misc.distribution.DescriptiveBimodalStatisticFn</title>
<path fill="none" stroke="black" stroke-width="0.5" d="M721.884,-112.646C732.047,-113.328 742.408,-114.024 752.746,-114.718"/>
<polygon fill="black" stroke="black" points="752.712,-116.47 757.818,-115.058 752.947,-112.977 752.712,-116.47"/>
</g>
<!-- topo.misc.distribution.DSF_WeightedAverage -->
<g id="node22" class="node"><title>topo.misc.distribution.DSF_WeightedAverage</title>
<polygon fill="none" stroke="black" stroke-width="0.5" points="1006,-96.5 776,-96.5 776,-75.5 1006,-75.5 1006,-96.5"/>
<text text-anchor="middle" x="891" y="-83.5" font-family="Vera" font-size="10.00">topo.misc.distribution.DSF_WeightedAverage</text>
</g>
<!-- topo.misc.distribution.DescriptiveStatisticFn&#45;&gt;topo.misc.distribution.DSF_WeightedAverage -->
<g id="edge20" class="edge"><title>topo.misc.distribution.DescriptiveStatisticFn&#45;&gt;topo.misc.distribution.DSF_WeightedAverage</title>
<path fill="none" stroke="black" stroke-width="0.5" d="M721.884,-97.3541C738.03,-96.2701 754.675,-95.1526 770.934,-94.061"/>
<polygon fill="black" stroke="black" points="771.095,-95.8042 775.966,-93.7231 770.86,-92.3121 771.095,-95.8042"/>
</g>
<!-- topo.misc.distribution.DistributionStatisticFn&#45;&gt;topo.misc.distribution.DescriptiveStatisticFn -->
<g id="edge2" class="edge"><title>topo.misc.distribution.DistributionStatisticFn&#45;&gt;topo.misc.distribution.DescriptiveStatisticFn</title>
<path fill="none" stroke="black" stroke-width="0.5" d="M435.223,-86.0208C459.955,-88.7374 486.803,-91.6867 511.8,-94.4325"/>
<polygon fill="black" stroke="black" points="511.612,-96.1723 516.773,-94.9788 511.994,-92.6933 511.612,-96.1723"/>
</g>
<!-- topo.misc.distribution.VonMisesStatisticFn -->
<g id="node6" class="node"><title>topo.misc.distribution.VonMisesStatisticFn</title>
<polygon fill="none" stroke="black" stroke-width="0.5" points="717,-58.5 499,-58.5 499,-37.5 717,-37.5 717,-58.5"/>
<text text-anchor="middle" x="608" y="-45.5" font-family="Vera" font-size="10.00">topo.misc.distribution.VonMisesStatisticFn</text>
</g>
<!-- topo.misc.distribution.DistributionStatisticFn&#45;&gt;topo.misc.distribution.VonMisesStatisticFn -->
<g id="edge4" class="edge"><title>topo.misc.distribution.DistributionStatisticFn&#45;&gt;topo.misc.distribution.VonMisesStatisticFn</title>
<path fill="none" stroke="black" stroke-width="0.5" d="M438.564,-65.9704C461.26,-63.5633 485.566,-60.9855 508.479,-58.5553"/>
<polygon fill="black" stroke="black" points="508.865,-60.2742 513.652,-58.0066 508.496,-56.7938 508.865,-60.2742"/>
</g>
<!-- topo.misc.distribution.DSF_BimodalVonMisesFit -->
<g id="node16" class="node"><title>topo.misc.distribution.DSF_BimodalVonMisesFit</title>
<polygon fill="none" stroke="black" stroke-width="0.5" points="1012,-58.5 770,-58.5 770,-37.5 1012,-37.5 1012,-58.5"/>
<text text-anchor="middle" x="891" y="-45.5" font-family="Vera" font-size="10.00">topo.misc.distribution.DSF_BimodalVonMisesFit</text>
</g>
<!-- topo.misc.distribution.VonMisesStatisticFn&#45;&gt;topo.misc.distribution.DSF_BimodalVonMisesFit -->
<g id="edge12" class="edge"><title>topo.misc.distribution.VonMisesStatisticFn&#45;&gt;topo.misc.distribution.DSF_BimodalVonMisesFit</title>
<path fill="none" stroke="black" stroke-width="0.5" d="M717.01,-48C732.539,-48 748.619,-48 764.446,-48"/>
<polygon fill="black" stroke="black" points="764.803,-49.7501 769.803,-48 764.803,-46.2501 764.803,-49.7501"/>
</g>
<!-- topo.misc.distribution.DSF_VonMisesFit -->
<g id="node18" class="node"><title>topo.misc.distribution.DSF_VonMisesFit</title>
<polygon fill="none" stroke="black" stroke-width="0.5" points="992,-20.5 790,-20.5 790,0.5 992,0.5 992,-20.5"/>
<text text-anchor="middle" x="891" y="-7.5" font-family="Vera" font-size="10.00">topo.misc.distribution.DSF_VonMisesFit</text>
</g>
<!-- topo.misc.distribution.VonMisesStatisticFn&#45;&gt;topo.misc.distribution.DSF_VonMisesFit -->
<g id="edge14" class="edge"><title>topo.misc.distribution.VonMisesStatisticFn&#45;&gt;topo.misc.distribution.DSF_VonMisesFit</title>
<path fill="none" stroke="black" stroke-width="0.5" d="M682.725,-37.9662C722.219,-32.6631 770.718,-26.1509 810.976,-20.7453"/>
<polygon fill="black" stroke="black" points="811.625,-22.424 816.347,-20.024 811.159,-18.9551 811.625,-22.424"/>
</g>
<!-- topo.misc.distribution.Distribution -->
<g id="node10" class="node"><title>topo.misc.distribution.Distribution</title>
<polygon fill="none" stroke="black" stroke-width="0.5" points="186,-124.5 8,-124.5 8,-103.5 186,-103.5 186,-124.5"/>
<text text-anchor="middle" x="97" y="-111.5" font-family="Vera" font-size="10.00">topo.misc.distribution.Distribution</text>
</g>
<!-- topo.misc.distribution.DSF_TopTwoValues -->
<g id="node11" class="node"><title>topo.misc.distribution.DSF_TopTwoValues</title>
<polygon fill="none" stroke="black" stroke-width="0.5" points="1274,-153.5 1062,-153.5 1062,-132.5 1274,-132.5 1274,-153.5"/>
<text text-anchor="middle" x="1168" y="-140.5" font-family="Vera" font-size="10.00">topo.misc.distribution.DSF_TopTwoValues</text>
</g>
<!-- topo.misc.distribution.DescriptiveBimodalStatisticFn&#45;&gt;topo.misc.distribution.DSF_TopTwoValues -->
<g id="edge8" class="edge"><title>topo.misc.distribution.DescriptiveBimodalStatisticFn&#45;&gt;topo.misc.distribution.DSF_TopTwoValues</title>
<path fill="none" stroke="black" stroke-width="0.5" d="M1024.23,-133.138C1035.07,-133.882 1045.95,-134.628 1056.61,-135.359"/>
<polygon fill="black" stroke="black" points="1056.71,-137.121 1061.82,-135.717 1056.95,-133.629 1056.71,-137.121"/>
</g>
<!-- topo.misc.distribution.DSF_BimodalPeaks -->
<g id="node14" class="node"><title>topo.misc.distribution.DSF_BimodalPeaks</title>
<polygon fill="none" stroke="black" stroke-width="0.5" points="1275,-115.5 1061,-115.5 1061,-94.5 1275,-94.5 1275,-115.5"/>
<text text-anchor="middle" x="1168" y="-102.5" font-family="Vera" font-size="10.00">topo.misc.distribution.DSF_BimodalPeaks</text>
</g>
<!-- topo.misc.distribution.DescriptiveBimodalStatisticFn&#45;&gt;topo.misc.distribution.DSF_BimodalPeaks -->
<g id="edge10" class="edge"><title>topo.misc.distribution.DescriptiveBimodalStatisticFn&#45;&gt;topo.misc.distribution.DSF_BimodalPeaks</title>
<path fill="none" stroke="black" stroke-width="0.5" d="M1024.23,-114.862C1034.59,-114.151 1044.99,-113.437 1055.2,-112.737"/>
<polygon fill="black" stroke="black" points="1055.33,-114.483 1060.19,-112.395 1055.09,-110.991 1055.33,-114.483"/>
</g>
</g>
</svg>
