<?xml version="1.0" encoding="UTF-8" standalone="no"?>
<!DOCTYPE svg PUBLIC "-//W3C//DTD SVG 1.1//EN"
 "http://www.w3.org/Graphics/SVG/1.1/DTD/svg11.dtd">
<!-- Generated by graphviz version 2.26.3 (20100126.1600)
 -->
<!-- Title: inheritancef1ac05fc54 Pages: 1 -->
<svg width="834pt" height="332pt"
 viewBox="0.00 0.00 834.00 332.00" xmlns="http://www.w3.org/2000/svg" xmlns:xlink="http://www.w3.org/1999/xlink">
<g id="graph1" class="graph" transform="scale(1 1) rotate(0) translate(4 328)">
<title>inheritancef1ac05fc54</title>
<polygon fill="white" stroke="white" points="-4,5 -4,-328 831,-328 831,5 -4,5"/>
<!-- numbergen.RandomDistribution -->
<g id="node1" class="node"><title>numbergen.RandomDistribution</title>
<polygon fill="none" stroke="black" stroke-width="0.5" points="604,-210.5 434,-210.5 434,-189.5 604,-189.5 604,-210.5"/>
<text text-anchor="middle" x="519" y="-197.5" font-family="Vera" font-size="10.00">numbergen.RandomDistribution</text>
</g>
<!-- numbergen.UniformRandomInt -->
<g id="node8" class="node"><title>numbergen.UniformRandomInt</title>
<polygon fill="none" stroke="black" stroke-width="0.5" points="817,-324.5 653,-324.5 653,-303.5 817,-303.5 817,-324.5"/>
<text text-anchor="middle" x="735" y="-311.5" font-family="Vera" font-size="10.00">numbergen.UniformRandomInt</text>
</g>
<!-- numbergen.RandomDistribution&#45;&gt;numbergen.UniformRandomInt -->
<g id="edge8" class="edge"><title>numbergen.RandomDistribution&#45;&gt;numbergen.UniformRandomInt</title>
<path fill="none" stroke="black" stroke-width="0.5" d="M528.978,-210.157C548.91,-229.816 595.887,-273.059 644,-295 650.443,-297.938 657.35,-300.427 664.374,-302.535"/>
<polygon fill="black" stroke="black" points="663.962,-304.237 669.25,-303.934 664.927,-300.873 663.962,-304.237"/>
</g>
<!-- numbergen.UniformRandom -->
<g id="node14" class="node"><title>numbergen.UniformRandom</title>
<polygon fill="none" stroke="black" stroke-width="0.5" points="811,-286.5 659,-286.5 659,-265.5 811,-265.5 811,-286.5"/>
<text text-anchor="middle" x="735" y="-273.5" font-family="Vera" font-size="10.00">numbergen.UniformRandom</text>
</g>
<!-- numbergen.RandomDistribution&#45;&gt;numbergen.UniformRandom -->
<g id="edge14" class="edge"><title>numbergen.RandomDistribution&#45;&gt;numbergen.UniformRandom</title>
<path fill="none" stroke="black" stroke-width="0.5" d="M537.534,-210.036C561.491,-222.633 604.791,-244.144 644,-257 653.011,-259.955 662.68,-262.554 672.229,-264.805"/>
<polygon fill="black" stroke="black" points="671.943,-266.535 677.208,-265.951 672.728,-263.124 671.943,-266.535"/>
</g>
<!-- numbergen.UniformRandomOffset -->
<g id="node18" class="node"><title>numbergen.UniformRandomOffset</title>
<polygon fill="none" stroke="black" stroke-width="0.5" points="826,-248.5 644,-248.5 644,-227.5 826,-227.5 826,-248.5"/>
<text text-anchor="middle" x="735" y="-235.5" font-family="Vera" font-size="10.00">numbergen.UniformRandomOffset</text>
</g>
<!-- numbergen.RandomDistribution&#45;&gt;numbergen.UniformRandomOffset -->
<g id="edge18" class="edge"><title>numbergen.RandomDistribution&#45;&gt;numbergen.UniformRandomOffset</title>
<path fill="none" stroke="black" stroke-width="0.5" d="M576.034,-210.034C605.809,-215.272 642.289,-221.69 672.79,-227.056"/>
<polygon fill="black" stroke="black" points="672.794,-228.833 678.021,-227.976 673.4,-225.386 672.794,-228.833"/>
</g>
<!-- numbergen.VonMisesRandom -->
<g id="node20" class="node"><title>numbergen.VonMisesRandom</title>
<polygon fill="none" stroke="black" stroke-width="0.5" points="815,-210.5 655,-210.5 655,-189.5 815,-189.5 815,-210.5"/>
<text text-anchor="middle" x="735" y="-197.5" font-family="Vera" font-size="10.00">numbergen.VonMisesRandom</text>
</g>
<!-- numbergen.RandomDistribution&#45;&gt;numbergen.VonMisesRandom -->
<g id="edge20" class="edge"><title>numbergen.RandomDistribution&#45;&gt;numbergen.VonMisesRandom</title>
<path fill="none" stroke="black" stroke-width="0.5" d="M604.059,-200C619.12,-200 634.806,-200 649.869,-200"/>
<polygon fill="black" stroke="black" points="649.952,-201.75 654.952,-200 649.952,-198.25 649.952,-201.75"/>
</g>
<!-- numbergen.NormalRandom -->
<g id="node24" class="node"><title>numbergen.NormalRandom</title>
<polygon fill="none" stroke="black" stroke-width="0.5" points="810,-172.5 660,-172.5 660,-151.5 810,-151.5 810,-172.5"/>
<text text-anchor="middle" x="735" y="-159.5" font-family="Vera" font-size="10.00">numbergen.NormalRandom</text>
</g>
<!-- numbergen.RandomDistribution&#45;&gt;numbergen.NormalRandom -->
<g id="edge24" class="edge"><title>numbergen.RandomDistribution&#45;&gt;numbergen.NormalRandom</title>
<path fill="none" stroke="black" stroke-width="0.5" d="M576.034,-189.966C605.809,-184.728 642.289,-178.31 672.79,-172.944"/>
<polygon fill="black" stroke="black" points="673.4,-174.614 678.021,-172.024 672.794,-171.167 673.4,-174.614"/>
</g>
<!-- numbergen.Choice -->
<g id="node26" class="node"><title>numbergen.Choice</title>
<polygon fill="none" stroke="black" stroke-width="0.5" points="788,-134.5 682,-134.5 682,-113.5 788,-113.5 788,-134.5"/>
<text text-anchor="middle" x="735" y="-121.5" font-family="Vera" font-size="10.00">numbergen.Choice</text>
</g>
<!-- numbergen.RandomDistribution&#45;&gt;numbergen.Choice -->
<g id="edge26" class="edge"><title>numbergen.RandomDistribution&#45;&gt;numbergen.Choice</title>
<path fill="none" stroke="black" stroke-width="0.5" d="M537.534,-189.964C561.491,-177.367 604.791,-155.856 644,-143 654.24,-139.642 665.33,-136.744 676.129,-134.293"/>
<polygon fill="black" stroke="black" points="676.563,-135.989 681.066,-133.198 675.805,-132.572 676.563,-135.989"/>
</g>
<!-- numbergen.NumberGenerator -->
<g id="node2" class="node"><title>numbergen.NumberGenerator</title>
<polygon fill="none" stroke="black" stroke-width="0.5" points="393,-96.5 231,-96.5 231,-75.5 393,-75.5 393,-96.5"/>
<text text-anchor="middle" x="312" y="-83.5" font-family="Vera" font-size="10.00">numbergen.NumberGenerator</text>
</g>
<!-- numbergen.NumberGenerator&#45;&gt;numbergen.RandomDistribution -->
<g id="edge2" class="edge"><title>numbergen.NumberGenerator&#45;&gt;numbergen.RandomDistribution</title>
<path fill="none" stroke="black" stroke-width="0.5" d="M330.37,-96.1167C368.194,-116.947 454.687,-164.581 496.091,-187.383"/>
<polygon fill="black" stroke="black" points="495.447,-189.027 500.671,-189.906 497.136,-185.961 495.447,-189.027"/>
</g>
<!-- numbergen.BoundedNumber -->
<g id="node4" class="node"><title>numbergen.BoundedNumber</title>
<polygon fill="none" stroke="black" stroke-width="0.5" points="597,-134.5 441,-134.5 441,-113.5 597,-113.5 597,-134.5"/>
<text text-anchor="middle" x="519" y="-121.5" font-family="Vera" font-size="10.00">numbergen.BoundedNumber</text>
</g>
<!-- numbergen.NumberGenerator&#45;&gt;numbergen.BoundedNumber -->
<g id="edge4" class="edge"><title>numbergen.NumberGenerator&#45;&gt;numbergen.BoundedNumber</title>
<path fill="none" stroke="black" stroke-width="0.5" d="M366.658,-96.0338C395.192,-101.272 430.152,-107.69 459.382,-113.056"/>
<polygon fill="black" stroke="black" points="459.162,-114.794 464.395,-113.976 459.794,-111.352 459.162,-114.794"/>
</g>
<!-- numbergen.TimeDependentValue -->
<g id="node11" class="node"><title>numbergen.TimeDependentValue</title>
<polygon fill="none" stroke="black" stroke-width="0.5" points="608,-96.5 430,-96.5 430,-75.5 608,-75.5 608,-96.5"/>
<text text-anchor="middle" x="519" y="-83.5" font-family="Vera" font-size="10.00">numbergen.TimeDependentValue</text>
</g>
<!-- numbergen.NumberGenerator&#45;&gt;numbergen.TimeDependentValue -->
<g id="edge12" class="edge"><title>numbergen.NumberGenerator&#45;&gt;numbergen.TimeDependentValue</title>
<path fill="none" stroke="black" stroke-width="0.5" d="M393.515,-86C403.724,-86 414.232,-86 424.616,-86"/>
<polygon fill="black" stroke="black" points="424.703,-87.7501 429.703,-86 424.703,-84.2501 424.703,-87.7501"/>
</g>
<!-- numbergen.BinaryOperator -->
<g id="node16" class="node"><title>numbergen.BinaryOperator</title>
<polygon fill="none" stroke="black" stroke-width="0.5" points="593,-58.5 445,-58.5 445,-37.5 593,-37.5 593,-58.5"/>
<text text-anchor="middle" x="519" y="-45.5" font-family="Vera" font-size="10.00">numbergen.BinaryOperator</text>
</g>
<!-- numbergen.NumberGenerator&#45;&gt;numbergen.BinaryOperator -->
<g id="edge16" class="edge"><title>numbergen.NumberGenerator&#45;&gt;numbergen.BinaryOperator</title>
<path fill="none" stroke="black" stroke-width="0.5" d="M366.658,-75.9662C395.192,-70.7281 430.152,-64.3102 459.382,-58.9443"/>
<polygon fill="black" stroke="black" points="459.794,-60.6482 464.395,-58.024 459.162,-57.2057 459.794,-60.6482"/>
</g>
<!-- numbergen.UnaryOperator -->
<g id="node28" class="node"><title>numbergen.UnaryOperator</title>
<polygon fill="none" stroke="black" stroke-width="0.5" points="592,-20.5 446,-20.5 446,0.5 592,0.5 592,-20.5"/>
<text text-anchor="middle" x="519" y="-7.5" font-family="Vera" font-size="10.00">numbergen.UnaryOperator</text>
</g>
<!-- numbergen.NumberGenerator&#45;&gt;numbergen.UnaryOperator -->
<g id="edge28" class="edge"><title>numbergen.NumberGenerator&#45;&gt;numbergen.UnaryOperator</title>
<path fill="none" stroke="black" stroke-width="0.5" d="M329.427,-75.934C351.968,-63.3049 392.767,-41.7601 430,-29 438.575,-26.0612 447.777,-23.4853 456.894,-21.2572"/>
<polygon fill="black" stroke="black" points="457.487,-22.9151 461.946,-20.0551 456.677,-19.5102 457.487,-22.9151"/>
</g>
<!-- param.parameterized.Parameterized -->
<g id="node6" class="node"><title>param.parameterized.Parameterized</title>
<polygon fill="none" stroke="black" stroke-width="0.5" points="194,-96.5 5.68434e-14,-96.5 0,-75.5 194,-75.5 194,-96.5"/>
<text text-anchor="middle" x="97" y="-83.5" font-family="Vera" font-size="10.00">param.parameterized.Parameterized</text>
</g>
<!-- param.parameterized.Parameterized&#45;&gt;numbergen.NumberGenerator -->
<g id="edge6" class="edge"><title>param.parameterized.Parameterized&#45;&gt;numbergen.NumberGenerator</title>
<path fill="none" stroke="black" stroke-width="0.5" d="M194.121,-86C204.545,-86 215.101,-86 225.391,-86"/>
<polygon fill="black" stroke="black" points="225.419,-87.7501 230.419,-86 225.419,-84.2501 225.419,-87.7501"/>
</g>
<!-- numbergen.ExponentialDecay -->
<g id="node10" class="node"><title>numbergen.ExponentialDecay</title>
<polygon fill="none" stroke="black" stroke-width="0.5" points="815,-96.5 655,-96.5 655,-75.5 815,-75.5 815,-96.5"/>
<text text-anchor="middle" x="735" y="-83.5" font-family="Vera" font-size="10.00">numbergen.ExponentialDecay</text>
</g>
<!-- numbergen.TimeDependentValue&#45;&gt;numbergen.ExponentialDecay -->
<g id="edge10" class="edge"><title>numbergen.TimeDependentValue&#45;&gt;numbergen.ExponentialDecay</title>
<path fill="none" stroke="black" stroke-width="0.5" d="M608.103,-86C621.645,-86 635.596,-86 649.069,-86"/>
<polygon fill="black" stroke="black" points="649.406,-87.7501 654.406,-86 649.406,-84.2501 649.406,-87.7501"/>
</g>
<!-- numbergen.BoxCar -->
<g id="node22" class="node"><title>numbergen.BoxCar</title>
<polygon fill="none" stroke="black" stroke-width="0.5" points="790,-58.5 680,-58.5 680,-37.5 790,-37.5 790,-58.5"/>
<text text-anchor="middle" x="735" y="-45.5" font-family="Vera" font-size="10.00">numbergen.BoxCar</text>
</g>
<!-- numbergen.TimeDependentValue&#45;&gt;numbergen.BoxCar -->
<g id="edge22" class="edge"><title>numbergen.TimeDependentValue&#45;&gt;numbergen.BoxCar</title>
<path fill="none" stroke="black" stroke-width="0.5" d="M576.034,-75.9662C606.4,-70.6242 643.74,-64.0551 674.599,-58.6262"/>
<polygon fill="black" stroke="black" points="675.265,-60.2858 679.887,-57.6959 674.659,-56.8388 675.265,-60.2858"/>
</g>
</g>
</svg>
