<?xml version="1.0" encoding="UTF-8" standalone="no"?>
<!DOCTYPE svg PUBLIC "-//W3C//DTD SVG 1.1//EN"
 "http://www.w3.org/Graphics/SVG/1.1/DTD/svg11.dtd">
<!-- Generated by graphviz version 2.26.3 (20100126.1600)
 -->
<!-- Title: inheritancea3b1853c84 Pages: 1 -->
<svg width="1308pt" height="66pt"
 viewBox="0.00 0.00 1308.00 66.00" xmlns="http://www.w3.org/2000/svg" xmlns:xlink="http://www.w3.org/1999/xlink">
<g id="graph1" class="graph" transform="scale(1 1) rotate(0) translate(4 62)">
<title>inheritancea3b1853c84</title>
<polygon fill="white" stroke="white" points="-4,5 -4,-62 1305,-62 1305,5 -4,5"/>
<!-- topo.sheet.saccade.SaccadeController -->
<g id="node1" class="node"><title>topo.sheet.saccade.SaccadeController</title>
<polygon fill="none" stroke="black" stroke-width="0.5" points="1287,-20 1101,-20 1101,-1.06581e-14 1287,-3.55271e-15 1287,-20"/>
<text text-anchor="middle" x="1194" y="-7" font-family="Vera" font-size="10.00">topo.sheet.saccade.SaccadeController</text>
</g>
<!-- topo.base.cf.CFSheet -->
<g id="node2" class="node"><title>topo.base.cf.CFSheet</title>
<polygon fill="none" stroke="black" stroke-width="0.5" points="1016,-20 906,-20 906,-1.06581e-14 1016,-3.55271e-15 1016,-20"/>
<text text-anchor="middle" x="961" y="-7" font-family="Vera" font-size="10.00">topo.base.cf.CFSheet</text>
</g>
<!-- topo.base.cf.CFSheet&#45;&gt;topo.sheet.saccade.SaccadeController -->
<g id="edge2" class="edge"><title>topo.base.cf.CFSheet&#45;&gt;topo.sheet.saccade.SaccadeController</title>
<path fill="none" stroke="black" stroke-width="0.5" d="M1016.51,-10C1040.08,-10 1068.29,-10 1095.21,-10"/>
<polygon fill="black" stroke="black" points="1095.21,-11.7501 1100.21,-10 1095.21,-8.2501 1095.21,-11.7501"/>
</g>
<!-- topo.sheet.saccade.ShiftingGeneratorSheet -->
<g id="node4" class="node"><title>topo.sheet.saccade.ShiftingGeneratorSheet</title>
<polygon fill="none" stroke="black" stroke-width="0.5" points="1299,-58 1089,-58 1089,-38 1299,-38 1299,-58"/>
<text text-anchor="middle" x="1194" y="-45" font-family="Vera" font-size="10.00">topo.sheet.saccade.ShiftingGeneratorSheet</text>
</g>
<!-- topo.sheet.SequenceGeneratorSheet -->
<g id="node5" class="node"><title>topo.sheet.SequenceGeneratorSheet</title>
<polygon fill="none" stroke="black" stroke-width="0.5" points="1052,-58 870,-58 870,-38 1052,-38 1052,-58"/>
<text text-anchor="middle" x="961" y="-45" font-family="Vera" font-size="10.00">topo.sheet.SequenceGeneratorSheet</text>
</g>
<!-- topo.sheet.SequenceGeneratorSheet&#45;&gt;topo.sheet.saccade.ShiftingGeneratorSheet -->
<g id="edge4" class="edge"><title>topo.sheet.SequenceGeneratorSheet&#45;&gt;topo.sheet.saccade.ShiftingGeneratorSheet</title>
<path fill="none" stroke="black" stroke-width="0.5" d="M1052.08,-48C1062.29,-48 1072.76,-48 1083.17,-48"/>
<polygon fill="black" stroke="black" points="1083.28,-49.7501 1088.28,-48 1083.28,-46.2501 1083.28,-49.7501"/>
</g>
<!-- topo.base.simulation.EventProcessor -->
<g id="node7" class="node"><title>topo.base.simulation.EventProcessor</title>
<polygon fill="none" stroke="black" stroke-width="0.5" points="422,-58 238,-58 238,-38 422,-38 422,-58"/>
<text text-anchor="middle" x="330" y="-45" font-family="Vera" font-size="10.00">topo.base.simulation.EventProcessor</text>
</g>
<!-- topo.base.sheet.Sheet -->
<g id="node12" class="node"><title>topo.base.sheet.Sheet</title>
<polygon fill="none" stroke="black" stroke-width="0.5" points="592,-39 476,-39 476,-19 592,-19 592,-39"/>
<text text-anchor="middle" x="534" y="-26" font-family="Vera" font-size="10.00">topo.base.sheet.Sheet</text>
</g>
<!-- topo.base.simulation.EventProcessor&#45;&gt;topo.base.sheet.Sheet -->
<g id="edge12" class="edge"><title>topo.base.simulation.EventProcessor&#45;&gt;topo.base.sheet.Sheet</title>
<path fill="none" stroke="black" stroke-width="0.5" d="M422.152,-39.4172C438.564,-37.8886 455.319,-36.3281 470.696,-34.8959"/>
<polygon fill="black" stroke="black" points="471.04,-36.6216 475.856,-34.4154 470.715,-33.1367 471.04,-36.6216"/>
</g>
<!-- param.parameterized.Parameterized -->
<g id="node8" class="node"><title>param.parameterized.Parameterized</title>
<polygon fill="none" stroke="black" stroke-width="0.5" points="184,-58 8.52651e-14,-58 0,-38 184,-38 184,-58"/>
<text text-anchor="middle" x="92" y="-45" font-family="Vera" font-size="10.00">param.parameterized.Parameterized</text>
</g>
<!-- param.parameterized.Parameterized&#45;&gt;topo.base.simulation.EventProcessor -->
<g id="edge6" class="edge"><title>param.parameterized.Parameterized&#45;&gt;topo.base.simulation.EventProcessor</title>
<path fill="none" stroke="black" stroke-width="0.5" d="M184.017,-48C199.882,-48 216.423,-48 232.429,-48"/>
<polygon fill="black" stroke="black" points="232.835,-49.7501 237.835,-48 232.835,-46.2501 232.835,-49.7501"/>
</g>
<!-- topo.misc.generatorsheet.GeneratorSheet -->
<g id="node10" class="node"><title>topo.misc.generatorsheet.GeneratorSheet</title>
<polygon fill="none" stroke="black" stroke-width="0.5" points="834,-58 628,-58 628,-38 834,-38 834,-58"/>
<text text-anchor="middle" x="731" y="-45" font-family="Vera" font-size="10.00">topo.misc.generatorsheet.GeneratorSheet</text>
</g>
<!-- topo.misc.generatorsheet.GeneratorSheet&#45;&gt;topo.sheet.SequenceGeneratorSheet -->
<g id="edge8" class="edge"><title>topo.misc.generatorsheet.GeneratorSheet&#45;&gt;topo.sheet.SequenceGeneratorSheet</title>
<path fill="none" stroke="black" stroke-width="0.5" d="M834.226,-48C844.294,-48 854.484,-48 864.482,-48"/>
<polygon fill="black" stroke="black" points="864.691,-49.7501 869.691,-48 864.691,-46.2501 864.691,-49.7501"/>
</g>
<!-- topo.base.sheet.Sheet&#45;&gt;topo.misc.generatorsheet.GeneratorSheet -->
<g id="edge10" class="edge"><title>topo.base.sheet.Sheet&#45;&gt;topo.misc.generatorsheet.GeneratorSheet</title>
<path fill="none" stroke="black" stroke-width="0.5" d="M592.041,-34.5979C601.795,-35.5386 612.189,-36.5411 622.734,-37.5581"/>
<polygon fill="black" stroke="black" points="622.775,-39.3201 627.92,-38.0583 623.111,-35.8363 622.775,-39.3201"/>
</g>
<!-- topo.base.projection.ProjectionSheet -->
<g id="node17" class="node"><title>topo.base.projection.ProjectionSheet</title>
<polygon fill="none" stroke="black" stroke-width="0.5" points="823,-20 639,-20 639,-1.06581e-14 823,-3.55271e-15 823,-20"/>
<text text-anchor="middle" x="731" y="-7" font-family="Vera" font-size="10.00">topo.base.projection.ProjectionSheet</text>
</g>
<!-- topo.base.sheet.Sheet&#45;&gt;topo.base.projection.ProjectionSheet -->
<g id="edge16" class="edge"><title>topo.base.sheet.Sheet&#45;&gt;topo.base.projection.ProjectionSheet</title>
<path fill="none" stroke="black" stroke-width="0.5" d="M592.041,-23.4021C605.081,-22.1445 619.265,-20.7764 633.424,-19.4108"/>
<polygon fill="black" stroke="black" points="633.829,-21.1301 638.638,-18.908 633.493,-17.6462 633.829,-21.1301"/>
</g>
<!-- imagen.sheetcoords.SheetCoordinateSystem -->
<g id="node14" class="node"><title>imagen.sheetcoords.SheetCoordinateSystem</title>
<polygon fill="none" stroke="black" stroke-width="0.5" points="439,-20 221,-20 221,-1.06581e-14 439,-3.55271e-15 439,-20"/>
<text text-anchor="middle" x="330" y="-7" font-family="Vera" font-size="10.00">imagen.sheetcoords.SheetCoordinateSystem</text>
</g>
<!-- imagen.sheetcoords.SheetCoordinateSystem&#45;&gt;topo.base.sheet.Sheet -->
<g id="edge14" class="edge"><title>imagen.sheetcoords.SheetCoordinateSystem&#45;&gt;topo.base.sheet.Sheet</title>
<path fill="none" stroke="black" stroke-width="0.5" d="M437.377,-20.0008C448.76,-21.061 460.054,-22.1129 470.69,-23.1035"/>
<polygon fill="black" stroke="black" points="470.715,-24.8633 475.855,-23.5846 471.039,-21.3783 470.715,-24.8633"/>
</g>
<!-- topo.base.projection.ProjectionSheet&#45;&gt;topo.base.cf.CFSheet -->
<g id="edge18" class="edge"><title>topo.base.projection.ProjectionSheet&#45;&gt;topo.base.cf.CFSheet</title>
<path fill="none" stroke="black" stroke-width="0.5" d="M823.225,-10C849.018,-10 876.405,-10 899.908,-10"/>
<polygon fill="black" stroke="black" points="900.172,-11.7501 905.172,-10 900.172,-8.25009 900.172,-11.7501"/>
</g>
</g>
</svg>
