<?xml version="1.0" encoding="UTF-8" standalone="no"?>
<!DOCTYPE svg PUBLIC "-//W3C//DTD SVG 1.1//EN"
 "http://www.w3.org/Graphics/SVG/1.1/DTD/svg11.dtd">
<!-- Generated by graphviz version 2.26.3 (20100126.1600)
 -->
<!-- Title: inheritance52f2812edd Pages: 1 -->
<svg width="1516pt" height="208pt"
 viewBox="0.00 0.00 1516.00 208.00" xmlns="http://www.w3.org/2000/svg" xmlns:xlink="http://www.w3.org/1999/xlink">
<g id="graph1" class="graph" transform="scale(1 1) rotate(0) translate(4 204)">
<title>inheritance52f2812edd</title>
<polygon fill="white" stroke="white" points="-4,5 -4,-204 1513,-204 1513,5 -4,5"/>
<!-- Tkinter.Widget -->
<g id="node1" class="node"><title>Tkinter.Widget</title>
<polygon fill="none" stroke="black" stroke-width="0.5" points="467,-96.5 385,-96.5 385,-75.5 467,-75.5 467,-96.5"/>
<text text-anchor="middle" x="426" y="-83.5" font-family="Vera" font-size="10.00">Tkinter.Widget</text>
</g>
<!-- Tkinter.Frame -->
<g id="node19" class="node"><title>Tkinter.Frame</title>
<polygon fill="none" stroke="black" stroke-width="0.5" points="693,-96.5 613,-96.5 613,-75.5 693,-75.5 693,-96.5"/>
<text text-anchor="middle" x="653" y="-83.5" font-family="Vera" font-size="10.00">Tkinter.Frame</text>
</g>
<!-- Tkinter.Widget&#45;&gt;Tkinter.Frame -->
<g id="edge16" class="edge"><title>Tkinter.Widget&#45;&gt;Tkinter.Frame</title>
<path fill="none" stroke="black" stroke-width="0.5" d="M467.635,-86C507.078,-86 566.192,-86 607.009,-86"/>
<polygon fill="black" stroke="black" points="607.392,-87.7501 612.392,-86 607.392,-84.2501 607.392,-87.7501"/>
</g>
<!-- Tkinter.BaseWidget -->
<g id="node2" class="node"><title>Tkinter.BaseWidget</title>
<polygon fill="none" stroke="black" stroke-width="0.5" points="258,-96.5 152,-96.5 152,-75.5 258,-75.5 258,-96.5"/>
<text text-anchor="middle" x="205" y="-83.5" font-family="Vera" font-size="10.00">Tkinter.BaseWidget</text>
</g>
<!-- Tkinter.BaseWidget&#45;&gt;Tkinter.Widget -->
<g id="edge2" class="edge"><title>Tkinter.BaseWidget&#45;&gt;Tkinter.Widget</title>
<path fill="none" stroke="black" stroke-width="0.5" d="M258.78,-86C295.557,-86 343.834,-86 379.057,-86"/>
<polygon fill="black" stroke="black" points="379.157,-87.7501 384.157,-86 379.157,-84.2501 379.157,-87.7501"/>
</g>
<!-- Tkinter.Pack -->
<g id="node4" class="node"><title>Tkinter.Pack</title>
<polygon fill="none" stroke="black" stroke-width="0.5" points="241,-58.5 169,-58.5 169,-37.5 241,-37.5 241,-58.5"/>
<text text-anchor="middle" x="205" y="-45.5" font-family="Vera" font-size="10.00">Tkinter.Pack</text>
</g>
<!-- Tkinter.Pack&#45;&gt;Tkinter.Widget -->
<g id="edge4" class="edge"><title>Tkinter.Pack&#45;&gt;Tkinter.Widget</title>
<path fill="none" stroke="black" stroke-width="0.5" d="M241.99,-54.3603C279.622,-60.8309 338.069,-70.8807 378.968,-77.913"/>
<polygon fill="black" stroke="black" points="379.142,-79.7187 384.367,-78.8413 379.736,-76.2693 379.142,-79.7187"/>
</g>
<!-- Tkinter.Place -->
<g id="node6" class="node"><title>Tkinter.Place</title>
<polygon fill="none" stroke="black" stroke-width="0.5" points="243,-20.5 167,-20.5 167,0.5 243,0.5 243,-20.5"/>
<text text-anchor="middle" x="205" y="-7.5" font-family="Vera" font-size="10.00">Tkinter.Place</text>
</g>
<!-- Tkinter.Place&#45;&gt;Tkinter.Widget -->
<g id="edge6" class="edge"><title>Tkinter.Place&#45;&gt;Tkinter.Widget</title>
<path fill="none" stroke="black" stroke-width="0.5" d="M243.771,-15.4267C261.738,-18.4898 283.219,-22.9395 302,-29 338.571,-40.8013 378.574,-60.5279 402.982,-73.401"/>
<polygon fill="black" stroke="black" points="402.413,-75.0803 407.65,-75.8798 404.055,-71.9891 402.413,-75.0803"/>
</g>
<!-- Tkinter.Grid -->
<g id="node8" class="node"><title>Tkinter.Grid</title>
<polygon fill="none" stroke="black" stroke-width="0.5" points="240,-134.5 170,-134.5 170,-113.5 240,-113.5 240,-134.5"/>
<text text-anchor="middle" x="205" y="-121.5" font-family="Vera" font-size="10.00">Tkinter.Grid</text>
</g>
<!-- Tkinter.Grid&#45;&gt;Tkinter.Widget -->
<g id="edge8" class="edge"><title>Tkinter.Grid&#45;&gt;Tkinter.Widget</title>
<path fill="none" stroke="black" stroke-width="0.5" d="M240.507,-117.895C278.144,-111.423 337.758,-101.173 379.208,-94.0457"/>
<polygon fill="black" stroke="black" points="379.539,-95.7646 384.17,-93.1925 378.945,-92.3152 379.539,-95.7646"/>
</g>
<!-- paramtk.TkParameterized -->
<g id="node10" class="node"><title>paramtk.TkParameterized</title>
<polygon fill="none" stroke="black" stroke-width="0.5" points="723,-134.5 583,-134.5 583,-113.5 723,-113.5 723,-134.5"/>
<text text-anchor="middle" x="653" y="-121.5" font-family="Vera" font-size="10.00">paramtk.TkParameterized</text>
</g>
<!-- topo.tkgui.plotgrouppanel.PlotGroupPanel -->
<g id="node27" class="node"><title>topo.tkgui.plotgrouppanel.PlotGroupPanel</title>
<polygon fill="none" stroke="black" stroke-width="0.5" points="1012,-134.5 798,-134.5 798,-113.5 1012,-113.5 1012,-134.5"/>
<text text-anchor="middle" x="905" y="-121.5" font-family="Vera" font-size="10.00">topo.tkgui.plotgrouppanel.PlotGroupPanel</text>
</g>
<!-- paramtk.TkParameterized&#45;&gt;topo.tkgui.plotgrouppanel.PlotGroupPanel -->
<g id="edge32" class="edge"><title>paramtk.TkParameterized&#45;&gt;topo.tkgui.plotgrouppanel.PlotGroupPanel</title>
<path fill="none" stroke="black" stroke-width="0.5" d="M723.196,-124C744.678,-124 768.872,-124 792.433,-124"/>
<polygon fill="black" stroke="black" points="792.45,-125.75 797.45,-124 792.45,-122.25 792.45,-125.75"/>
</g>
<!-- paramtk.TkParameterizedBase -->
<g id="node11" class="node"><title>paramtk.TkParameterizedBase</title>
<polygon fill="none" stroke="black" stroke-width="0.5" points="508,-134.5 344,-134.5 344,-113.5 508,-113.5 508,-134.5"/>
<text text-anchor="middle" x="426" y="-121.5" font-family="Vera" font-size="10.00">paramtk.TkParameterizedBase</text>
</g>
<!-- paramtk.TkParameterizedBase&#45;&gt;paramtk.TkParameterized -->
<g id="edge10" class="edge"><title>paramtk.TkParameterizedBase&#45;&gt;paramtk.TkParameterized</title>
<path fill="none" stroke="black" stroke-width="0.5" d="M508.273,-124C531.04,-124 555.624,-124 577.955,-124"/>
<polygon fill="black" stroke="black" points="577.982,-125.75 582.982,-124 577.982,-122.25 577.982,-125.75"/>
</g>
<!-- param.parameterized.Parameterized -->
<g id="node13" class="node"><title>param.parameterized.Parameterized</title>
<polygon fill="none" stroke="black" stroke-width="0.5" points="302,-172.5 108,-172.5 108,-151.5 302,-151.5 302,-172.5"/>
<text text-anchor="middle" x="205" y="-159.5" font-family="Vera" font-size="10.00">param.parameterized.Parameterized</text>
</g>
<!-- param.parameterized.Parameterized&#45;&gt;paramtk.TkParameterizedBase -->
<g id="edge22" class="edge"><title>param.parameterized.Parameterized&#45;&gt;paramtk.TkParameterizedBase</title>
<path fill="none" stroke="black" stroke-width="0.5" d="M263.354,-151.966C293.944,-146.706 331.452,-140.257 362.737,-134.878"/>
<polygon fill="black" stroke="black" points="363.071,-136.596 367.702,-134.024 362.478,-133.147 363.071,-136.596"/>
</g>
<!-- topo.base.functionfamily.PatternDrivenAnalysis -->
<g id="node17" class="node"><title>topo.base.functionfamily.PatternDrivenAnalysis</title>
<polygon fill="none" stroke="black" stroke-width="0.5" points="1294,-200.5 1054,-200.5 1054,-179.5 1294,-179.5 1294,-200.5"/>
<text text-anchor="middle" x="1174" y="-187.5" font-family="Vera" font-size="10.00">topo.base.functionfamily.PatternDrivenAnalysis</text>
</g>
<!-- param.parameterized.Parameterized&#45;&gt;topo.base.functionfamily.PatternDrivenAnalysis -->
<g id="edge30" class="edge"><title>param.parameterized.Parameterized&#45;&gt;topo.base.functionfamily.PatternDrivenAnalysis</title>
<path fill="none" stroke="black" stroke-width="0.5" d="M263.414,-172.033C286.563,-175.567 313.464,-179.124 338,-181 589.442,-200.23 884.645,-197.504 1048.4,-193.766"/>
<polygon fill="black" stroke="black" points="1048.73,-195.509 1053.69,-193.644 1048.65,-192.01 1048.73,-195.509"/>
</g>
<!-- topo.plotting.plotgroup.PlotGroup -->
<g id="node24" class="node"><title>topo.plotting.plotgroup.PlotGroup</title>
<polygon fill="none" stroke="black" stroke-width="0.5" points="514,-172.5 338,-172.5 338,-151.5 514,-151.5 514,-172.5"/>
<text text-anchor="middle" x="426" y="-159.5" font-family="Vera" font-size="10.00">topo.plotting.plotgroup.PlotGroup</text>
</g>
<!-- param.parameterized.Parameterized&#45;&gt;topo.plotting.plotgroup.PlotGroup -->
<g id="edge20" class="edge"><title>param.parameterized.Parameterized&#45;&gt;topo.plotting.plotgroup.PlotGroup</title>
<path fill="none" stroke="black" stroke-width="0.5" d="M302.255,-162C312.314,-162 322.521,-162 332.537,-162"/>
<polygon fill="black" stroke="black" points="332.756,-163.75 337.756,-162 332.756,-160.25 332.756,-163.75"/>
</g>
<!-- topo.tkgui.testpattern.TestPattern -->
<g id="node14" class="node"><title>topo.tkgui.testpattern.TestPattern</title>
<polygon fill="none" stroke="black" stroke-width="0.5" points="1508,-176.5 1330,-176.5 1330,-155.5 1508,-155.5 1508,-176.5"/>
<text text-anchor="middle" x="1419" y="-163.5" font-family="Vera" font-size="10.00">topo.tkgui.testpattern.TestPattern</text>
</g>
<!-- topo.tkgui.plotgrouppanel.SheetPanel -->
<g id="node15" class="node"><title>topo.tkgui.plotgrouppanel.SheetPanel</title>
<polygon fill="none" stroke="black" stroke-width="0.5" points="1272,-153.5 1076,-153.5 1076,-132.5 1272,-132.5 1272,-153.5"/>
<text text-anchor="middle" x="1174" y="-140.5" font-family="Vera" font-size="10.00">topo.tkgui.plotgrouppanel.SheetPanel</text>
</g>
<!-- topo.tkgui.plotgrouppanel.SheetPanel&#45;&gt;topo.tkgui.testpattern.TestPattern -->
<g id="edge12" class="edge"><title>topo.tkgui.plotgrouppanel.SheetPanel&#45;&gt;topo.tkgui.testpattern.TestPattern</title>
<path fill="none" stroke="black" stroke-width="0.5" d="M1272.59,-152.256C1289.7,-153.862 1307.46,-155.529 1324.46,-157.125"/>
<polygon fill="black" stroke="black" points="1324.57,-158.893 1329.71,-157.618 1324.9,-155.408 1324.57,-158.893"/>
</g>
<!-- topo.base.functionfamily.PatternDrivenAnalysis&#45;&gt;topo.tkgui.testpattern.TestPattern -->
<g id="edge14" class="edge"><title>topo.base.functionfamily.PatternDrivenAnalysis&#45;&gt;topo.tkgui.testpattern.TestPattern</title>
<path fill="none" stroke="black" stroke-width="0.5" d="M1276.13,-179.996C1292.17,-178.424 1308.69,-176.806 1324.55,-175.252"/>
<polygon fill="black" stroke="black" points="1325.1,-176.957 1329.91,-174.728 1324.76,-173.474 1325.1,-176.957"/>
</g>
<!-- Tkinter.Frame&#45;&gt;topo.tkgui.plotgrouppanel.PlotGroupPanel -->
<g id="edge34" class="edge"><title>Tkinter.Frame&#45;&gt;topo.tkgui.plotgrouppanel.PlotGroupPanel</title>
<path fill="none" stroke="black" stroke-width="0.5" d="M693.768,-92.1476C731.325,-97.8109 787.9,-106.342 833.05,-113.15"/>
<polygon fill="black" stroke="black" points="833.013,-114.915 838.218,-113.93 833.535,-111.454 833.013,-114.915"/>
</g>
<!-- topo.tkgui.testpattern.TestPatternPlotGroup -->
<g id="node21" class="node"><title>topo.tkgui.testpattern.TestPatternPlotGroup</title>
<polygon fill="none" stroke="black" stroke-width="0.5" points="1017,-172.5 793,-172.5 793,-151.5 1017,-151.5 1017,-172.5"/>
<text text-anchor="middle" x="905" y="-159.5" font-family="Vera" font-size="10.00">topo.tkgui.testpattern.TestPatternPlotGroup</text>
</g>
<!-- topo.plotting.plotgroup.SheetPlotGroup -->
<g id="node22" class="node"><title>topo.plotting.plotgroup.SheetPlotGroup</title>
<polygon fill="none" stroke="black" stroke-width="0.5" points="755,-172.5 551,-172.5 551,-151.5 755,-151.5 755,-172.5"/>
<text text-anchor="middle" x="653" y="-159.5" font-family="Vera" font-size="10.00">topo.plotting.plotgroup.SheetPlotGroup</text>
</g>
<!-- topo.plotting.plotgroup.SheetPlotGroup&#45;&gt;topo.tkgui.testpattern.TestPatternPlotGroup -->
<g id="edge18" class="edge"><title>topo.plotting.plotgroup.SheetPlotGroup&#45;&gt;topo.tkgui.testpattern.TestPatternPlotGroup</title>
<path fill="none" stroke="black" stroke-width="0.5" d="M755.862,-162C766.154,-162 776.659,-162 787.09,-162"/>
<polygon fill="black" stroke="black" points="787.204,-163.75 792.204,-162 787.204,-160.25 787.204,-163.75"/>
</g>
<!-- topo.plotting.plotgroup.PlotGroup&#45;&gt;topo.plotting.plotgroup.SheetPlotGroup -->
<g id="edge26" class="edge"><title>topo.plotting.plotgroup.PlotGroup&#45;&gt;topo.plotting.plotgroup.SheetPlotGroup</title>
<path fill="none" stroke="black" stroke-width="0.5" d="M514.089,-162C524.264,-162 534.725,-162 545.124,-162"/>
<polygon fill="black" stroke="black" points="545.222,-163.75 550.222,-162 545.222,-160.25 545.222,-163.75"/>
</g>
<!-- topo.tkgui.plotgrouppanel.PlotGroupPanel&#45;&gt;topo.tkgui.plotgrouppanel.SheetPanel -->
<g id="edge24" class="edge"><title>topo.tkgui.plotgrouppanel.PlotGroupPanel&#45;&gt;topo.tkgui.plotgrouppanel.SheetPanel</title>
<path fill="none" stroke="black" stroke-width="0.5" d="M1012.86,-131.619C1031.7,-132.949 1051.27,-134.331 1070,-135.654"/>
<polygon fill="black" stroke="black" points="1070.15,-137.419 1075.26,-136.026 1070.39,-133.928 1070.15,-137.419"/>
</g>
<!-- Tkinter.Misc -->
<g id="node30" class="node"><title>Tkinter.Misc</title>
<polygon fill="none" stroke="black" stroke-width="0.5" points="72,-96.5 2.84217e-14,-96.5 0,-75.5 72,-75.5 72,-96.5"/>
<text text-anchor="middle" x="36" y="-83.5" font-family="Vera" font-size="10.00">Tkinter.Misc</text>
</g>
<!-- Tkinter.Misc&#45;&gt;Tkinter.BaseWidget -->
<g id="edge28" class="edge"><title>Tkinter.Misc&#45;&gt;Tkinter.BaseWidget</title>
<path fill="none" stroke="black" stroke-width="0.5" d="M72.2547,-86C93.805,-86 121.651,-86 146.27,-86"/>
<polygon fill="black" stroke="black" points="146.471,-87.7501 151.471,-86 146.471,-84.2501 146.471,-87.7501"/>
</g>
</g>
</svg>
