<?xml version="1.0" encoding="UTF-8" standalone="no"?>
<!DOCTYPE svg PUBLIC "-//W3C//DTD SVG 1.1//EN"
 "http://www.w3.org/Graphics/SVG/1.1/DTD/svg11.dtd">
<!-- Generated by graphviz version 2.26.3 (20100126.1600)
 -->
<!-- Title: inheritance1f1dc666b6 Pages: 1 -->
<svg width="964pt" height="142pt"
 viewBox="0.00 0.00 964.00 142.00" xmlns="http://www.w3.org/2000/svg" xmlns:xlink="http://www.w3.org/1999/xlink">
<g id="graph1" class="graph" transform="scale(1 1) rotate(0) translate(4 138)">
<title>inheritance1f1dc666b6</title>
<polygon fill="white" stroke="white" points="-4,5 -4,-138 961,-138 961,5 -4,5"/>
<!-- param.parameterized.Parameterized -->
<g id="node1" class="node"><title>param.parameterized.Parameterized</title>
<polygon fill="none" stroke="black" stroke-width="0.5" points="194,-58.5 5.68434e-14,-58.5 0,-37.5 194,-37.5 194,-58.5"/>
<text text-anchor="middle" x="97" y="-45.5" font-family="Vera" font-size="10.00">param.parameterized.Parameterized</text>
</g>
<!-- topo.base.simulation.EventProcessor -->
<g id="node3" class="node"><title>topo.base.simulation.EventProcessor</title>
<polygon fill="none" stroke="black" stroke-width="0.5" points="445,-134.5 251,-134.5 251,-113.5 445,-113.5 445,-134.5"/>
<text text-anchor="middle" x="348" y="-121.5" font-family="Vera" font-size="10.00">topo.base.simulation.EventProcessor</text>
</g>
<!-- param.parameterized.Parameterized&#45;&gt;topo.base.simulation.EventProcessor -->
<g id="edge6" class="edge"><title>param.parameterized.Parameterized&#45;&gt;topo.base.simulation.EventProcessor</title>
<path fill="none" stroke="black" stroke-width="0.5" d="M116.274,-58.0506C141.663,-70.8677 188.018,-92.8248 230,-105 240.715,-108.107 252.134,-110.748 263.489,-112.98"/>
<polygon fill="black" stroke="black" points="263.459,-114.756 268.698,-113.977 264.117,-111.318 263.459,-114.756"/>
</g>
<!-- topo.base.projection.SheetMask -->
<g id="node11" class="node"><title>topo.base.projection.SheetMask</title>
<polygon fill="none" stroke="black" stroke-width="0.5" points="433,-58.5 263,-58.5 263,-37.5 433,-37.5 433,-58.5"/>
<text text-anchor="middle" x="348" y="-45.5" font-family="Vera" font-size="10.00">topo.base.projection.SheetMask</text>
</g>
<!-- param.parameterized.Parameterized&#45;&gt;topo.base.projection.SheetMask -->
<g id="edge16" class="edge"><title>param.parameterized.Parameterized&#45;&gt;topo.base.projection.SheetMask</title>
<path fill="none" stroke="black" stroke-width="0.5" d="M194.043,-48C214.773,-48 236.595,-48 257.084,-48"/>
<polygon fill="black" stroke="black" points="257.263,-49.7501 262.263,-48 257.263,-46.2501 257.263,-49.7501"/>
</g>
<!-- topo.base.simulation.EPConnection -->
<g id="node13" class="node"><title>topo.base.simulation.EPConnection</title>
<polygon fill="none" stroke="black" stroke-width="0.5" points="441,-20.5 255,-20.5 255,0.5 441,0.5 441,-20.5"/>
<text text-anchor="middle" x="348" y="-7.5" font-family="Vera" font-size="10.00">topo.base.simulation.EPConnection</text>
</g>
<!-- param.parameterized.Parameterized&#45;&gt;topo.base.simulation.EPConnection -->
<g id="edge12" class="edge"><title>param.parameterized.Parameterized&#45;&gt;topo.base.simulation.EPConnection</title>
<path fill="none" stroke="black" stroke-width="0.5" d="M163.276,-37.9662C198.161,-32.6848 240.968,-26.204 276.587,-20.8115"/>
<polygon fill="black" stroke="black" points="277.107,-22.5029 281.789,-20.024 276.583,-19.0423 277.107,-22.5029"/>
</g>
<!-- topo.base.sheet.Sheet -->
<g id="node2" class="node"><title>topo.base.sheet.Sheet</title>
<polygon fill="none" stroke="black" stroke-width="0.5" points="677,-134.5 551,-134.5 551,-113.5 677,-113.5 677,-134.5"/>
<text text-anchor="middle" x="614" y="-121.5" font-family="Vera" font-size="10.00">topo.base.sheet.Sheet</text>
</g>
<!-- topo.base.projection.ProjectionSheet -->
<g id="node22" class="node"><title>topo.base.projection.ProjectionSheet</title>
<polygon fill="none" stroke="black" stroke-width="0.5" points="956,-134.5 762,-134.5 762,-113.5 956,-113.5 956,-134.5"/>
<text text-anchor="middle" x="859" y="-121.5" font-family="Vera" font-size="10.00">topo.base.projection.ProjectionSheet</text>
</g>
<!-- topo.base.sheet.Sheet&#45;&gt;topo.base.projection.ProjectionSheet -->
<g id="edge22" class="edge"><title>topo.base.sheet.Sheet&#45;&gt;topo.base.projection.ProjectionSheet</title>
<path fill="none" stroke="black" stroke-width="0.5" d="M677.094,-124C701.386,-124 729.79,-124 756.834,-124"/>
<polygon fill="black" stroke="black" points="756.867,-125.75 761.867,-124 756.867,-122.25 756.867,-125.75"/>
</g>
<!-- topo.base.simulation.EventProcessor&#45;&gt;topo.base.sheet.Sheet -->
<g id="edge2" class="edge"><title>topo.base.simulation.EventProcessor&#45;&gt;topo.base.sheet.Sheet</title>
<path fill="none" stroke="black" stroke-width="0.5" d="M445.161,-124C478.411,-124 514.89,-124 545.406,-124"/>
<polygon fill="black" stroke="black" points="545.641,-125.75 550.641,-124 545.641,-122.25 545.641,-125.75"/>
</g>
<!-- imagen.sheetcoords.SheetCoordinateSystem -->
<g id="node5" class="node"><title>imagen.sheetcoords.SheetCoordinateSystem</title>
<polygon fill="none" stroke="black" stroke-width="0.5" points="466,-96.5 230,-96.5 230,-75.5 466,-75.5 466,-96.5"/>
<text text-anchor="middle" x="348" y="-83.5" font-family="Vera" font-size="10.00">imagen.sheetcoords.SheetCoordinateSystem</text>
</g>
<!-- imagen.sheetcoords.SheetCoordinateSystem&#45;&gt;topo.base.sheet.Sheet -->
<g id="edge4" class="edge"><title>imagen.sheetcoords.SheetCoordinateSystem&#45;&gt;topo.base.sheet.Sheet</title>
<path fill="none" stroke="black" stroke-width="0.5" d="M418.236,-96.0338C457.568,-101.653 506.401,-108.629 545.455,-114.208"/>
<polygon fill="black" stroke="black" points="545.457,-115.976 550.654,-114.951 545.952,-112.511 545.457,-115.976"/>
</g>
<!-- topo.base.projection.AndMask -->
<g id="node8" class="node"><title>topo.base.projection.AndMask</title>
<polygon fill="none" stroke="black" stroke-width="0.5" points="939,-96.5 779,-96.5 779,-75.5 939,-75.5 939,-96.5"/>
<text text-anchor="middle" x="859" y="-83.5" font-family="Vera" font-size="10.00">topo.base.projection.AndMask</text>
</g>
<!-- topo.base.projection.CompositeSheetMask -->
<g id="node9" class="node"><title>topo.base.projection.CompositeSheetMask</title>
<polygon fill="none" stroke="black" stroke-width="0.5" points="725,-96.5 503,-96.5 503,-75.5 725,-75.5 725,-96.5"/>
<text text-anchor="middle" x="614" y="-83.5" font-family="Vera" font-size="10.00">topo.base.projection.CompositeSheetMask</text>
</g>
<!-- topo.base.projection.CompositeSheetMask&#45;&gt;topo.base.projection.AndMask -->
<g id="edge8" class="edge"><title>topo.base.projection.CompositeSheetMask&#45;&gt;topo.base.projection.AndMask</title>
<path fill="none" stroke="black" stroke-width="0.5" d="M725.746,-86C741.62,-86 757.737,-86 773.019,-86"/>
<polygon fill="black" stroke="black" points="773.168,-87.7501 778.168,-86 773.168,-84.2501 773.168,-87.7501"/>
</g>
<!-- topo.base.projection.OrMask -->
<g id="node20" class="node"><title>topo.base.projection.OrMask</title>
<polygon fill="none" stroke="black" stroke-width="0.5" points="936,-58.5 782,-58.5 782,-37.5 936,-37.5 936,-58.5"/>
<text text-anchor="middle" x="859" y="-45.5" font-family="Vera" font-size="10.00">topo.base.projection.OrMask</text>
</g>
<!-- topo.base.projection.CompositeSheetMask&#45;&gt;topo.base.projection.OrMask -->
<g id="edge20" class="edge"><title>topo.base.projection.CompositeSheetMask&#45;&gt;topo.base.projection.OrMask</title>
<path fill="none" stroke="black" stroke-width="0.5" d="M678.691,-75.9662C712.743,-70.6848 754.527,-64.204 789.294,-58.8115"/>
<polygon fill="black" stroke="black" points="789.699,-60.5198 794.371,-58.024 789.162,-57.0612 789.699,-60.5198"/>
</g>
<!-- topo.base.projection.SheetMask&#45;&gt;topo.base.projection.CompositeSheetMask -->
<g id="edge10" class="edge"><title>topo.base.projection.SheetMask&#45;&gt;topo.base.projection.CompositeSheetMask</title>
<path fill="none" stroke="black" stroke-width="0.5" d="M418.236,-58.0338C455.358,-63.3369 500.944,-69.8491 538.783,-75.2547"/>
<polygon fill="black" stroke="black" points="538.634,-77.0012 543.832,-75.976 539.129,-73.5364 538.634,-77.0012"/>
</g>
<!-- topo.base.projection.NeighborhoodMask -->
<g id="node15" class="node"><title>topo.base.projection.NeighborhoodMask</title>
<polygon fill="none" stroke="black" stroke-width="0.5" points="719,-58.5 509,-58.5 509,-37.5 719,-37.5 719,-58.5"/>
<text text-anchor="middle" x="614" y="-45.5" font-family="Vera" font-size="10.00">topo.base.projection.NeighborhoodMask</text>
</g>
<!-- topo.base.projection.SheetMask&#45;&gt;topo.base.projection.NeighborhoodMask -->
<g id="edge14" class="edge"><title>topo.base.projection.SheetMask&#45;&gt;topo.base.projection.NeighborhoodMask</title>
<path fill="none" stroke="black" stroke-width="0.5" d="M433.628,-48C455.937,-48 480.292,-48 503.682,-48"/>
<polygon fill="black" stroke="black" points="503.971,-49.7501 508.971,-48 503.971,-46.2501 503.971,-49.7501"/>
</g>
<!-- topo.base.projection.Projection -->
<g id="node18" class="node"><title>topo.base.projection.Projection</title>
<polygon fill="none" stroke="black" stroke-width="0.5" points="696,-20.5 532,-20.5 532,0.5 696,0.5 696,-20.5"/>
<text text-anchor="middle" x="614" y="-7.5" font-family="Vera" font-size="10.00">topo.base.projection.Projection</text>
</g>
<!-- topo.base.simulation.EPConnection&#45;&gt;topo.base.projection.Projection -->
<g id="edge18" class="edge"><title>topo.base.simulation.EPConnection&#45;&gt;topo.base.projection.Projection</title>
<path fill="none" stroke="black" stroke-width="0.5" d="M441.034,-10C468.678,-10 498.861,-10 526.163,-10"/>
<polygon fill="black" stroke="black" points="526.226,-11.7501 531.226,-10 526.226,-8.2501 526.226,-11.7501"/>
</g>
</g>
</svg>
