<?xml version="1.0" encoding="UTF-8" standalone="no"?>
<!DOCTYPE svg PUBLIC "-//W3C//DTD SVG 1.1//EN"
 "http://www.w3.org/Graphics/SVG/1.1/DTD/svg11.dtd">
<!-- Generated by graphviz version 2.26.3 (20100126.1600)
 -->
<!-- Title: inheritancebe3ab90ace Pages: 1 -->
<svg width="984pt" height="408pt"
 viewBox="0.00 0.00 984.00 408.00" xmlns="http://www.w3.org/2000/svg" xmlns:xlink="http://www.w3.org/1999/xlink">
<g id="graph1" class="graph" transform="scale(1 1) rotate(0) translate(4 404)">
<title>inheritancebe3ab90ace</title>
<polygon fill="white" stroke="white" points="-4,5 -4,-404 981,-404 981,5 -4,5"/>
<!-- topo.coordmapper.Rotate2d -->
<g id="node1" class="node"><title>topo.coordmapper.Rotate2d</title>
<polygon fill="none" stroke="black" stroke-width="0.5" points="944,-400.5 794,-400.5 794,-379.5 944,-379.5 944,-400.5"/>
<text text-anchor="middle" x="869" y="-387.5" font-family="Vera" font-size="10.00">topo.coordmapper.Rotate2d</text>
</g>
<!-- topo.coordmapper.AffineTransform -->
<g id="node2" class="node"><title>topo.coordmapper.AffineTransform</title>
<polygon fill="none" stroke="black" stroke-width="0.5" points="705,-362.5 523,-362.5 523,-341.5 705,-341.5 705,-362.5"/>
<text text-anchor="middle" x="614" y="-349.5" font-family="Vera" font-size="10.00">topo.coordmapper.AffineTransform</text>
</g>
<!-- topo.coordmapper.AffineTransform&#45;&gt;topo.coordmapper.Rotate2d -->
<g id="edge2" class="edge"><title>topo.coordmapper.AffineTransform&#45;&gt;topo.coordmapper.Rotate2d</title>
<path fill="none" stroke="black" stroke-width="0.5" d="M681.332,-362.034C716.773,-367.315 760.262,-373.796 796.449,-379.189"/>
<polygon fill="black" stroke="black" points="796.53,-380.97 801.733,-379.976 797.046,-377.508 796.53,-380.97"/>
</g>
<!-- topo.coordmapper.Translate2d -->
<g id="node4" class="node"><title>topo.coordmapper.Translate2d</title>
<polygon fill="none" stroke="black" stroke-width="0.5" points="950,-362.5 788,-362.5 788,-341.5 950,-341.5 950,-362.5"/>
<text text-anchor="middle" x="869" y="-349.5" font-family="Vera" font-size="10.00">topo.coordmapper.Translate2d</text>
</g>
<!-- topo.coordmapper.AffineTransform&#45;&gt;topo.coordmapper.Translate2d -->
<g id="edge4" class="edge"><title>topo.coordmapper.AffineTransform&#45;&gt;topo.coordmapper.Translate2d</title>
<path fill="none" stroke="black" stroke-width="0.5" d="M705.341,-352C730.29,-352 757.253,-352 781.956,-352"/>
<polygon fill="black" stroke="black" points="782.192,-353.75 787.191,-352 782.191,-350.25 782.192,-353.75"/>
</g>
<!-- topo.coordmapper.Scale2d -->
<g id="node34" class="node"><title>topo.coordmapper.Scale2d</title>
<polygon fill="none" stroke="black" stroke-width="0.5" points="942,-324.5 796,-324.5 796,-303.5 942,-303.5 942,-324.5"/>
<text text-anchor="middle" x="869" y="-311.5" font-family="Vera" font-size="10.00">topo.coordmapper.Scale2d</text>
</g>
<!-- topo.coordmapper.AffineTransform&#45;&gt;topo.coordmapper.Scale2d -->
<g id="edge34" class="edge"><title>topo.coordmapper.AffineTransform&#45;&gt;topo.coordmapper.Scale2d</title>
<path fill="none" stroke="black" stroke-width="0.5" d="M681.332,-341.966C716.773,-336.685 760.262,-330.204 796.449,-324.811"/>
<polygon fill="black" stroke="black" points="797.046,-326.492 801.733,-324.024 796.53,-323.03 797.046,-326.492"/>
</g>
<!-- param.parameterized.Parameterized -->
<g id="node6" class="node"><title>param.parameterized.Parameterized</title>
<polygon fill="none" stroke="black" stroke-width="0.5" points="194,-191.5 5.68434e-14,-191.5 0,-170.5 194,-170.5 194,-191.5"/>
<text text-anchor="middle" x="97" y="-178.5" font-family="Vera" font-size="10.00">param.parameterized.Parameterized</text>
</g>
<!-- topo.base.functionfamily.CoordinateMapperFn -->
<g id="node8" class="node"><title>topo.base.functionfamily.CoordinateMapperFn</title>
<polygon fill="none" stroke="black" stroke-width="0.5" points="466,-191.5 230,-191.5 230,-170.5 466,-170.5 466,-191.5"/>
<text text-anchor="middle" x="348" y="-178.5" font-family="Vera" font-size="10.00">topo.base.functionfamily.CoordinateMapperFn</text>
</g>
<!-- param.parameterized.Parameterized&#45;&gt;topo.base.functionfamily.CoordinateMapperFn -->
<g id="edge16" class="edge"><title>param.parameterized.Parameterized&#45;&gt;topo.base.functionfamily.CoordinateMapperFn</title>
<path fill="none" stroke="black" stroke-width="0.5" d="M194.043,-181C204.12,-181 214.455,-181 224.77,-181"/>
<polygon fill="black" stroke="black" points="224.831,-182.75 229.831,-181 224.831,-179.25 224.831,-182.75"/>
</g>
<!-- topo.coordmapper.Grid -->
<g id="node7" class="node"><title>topo.coordmapper.Grid</title>
<polygon fill="none" stroke="black" stroke-width="0.5" points="678,-324.5 550,-324.5 550,-303.5 678,-303.5 678,-324.5"/>
<text text-anchor="middle" x="614" y="-311.5" font-family="Vera" font-size="10.00">topo.coordmapper.Grid</text>
</g>
<!-- topo.base.functionfamily.CoordinateMapperFn&#45;&gt;topo.coordmapper.AffineTransform -->
<g id="edge20" class="edge"><title>topo.base.functionfamily.CoordinateMapperFn&#45;&gt;topo.coordmapper.AffineTransform</title>
<path fill="none" stroke="black" stroke-width="0.5" d="M354.877,-191.27C374.258,-219.296 432.458,-297.373 502,-333 507.485,-335.81 513.3,-338.217 519.283,-340.278"/>
<polygon fill="black" stroke="black" points="519.048,-342.042 524.344,-341.929 520.133,-338.715 519.048,-342.042"/>
</g>
<!-- topo.base.functionfamily.CoordinateMapperFn&#45;&gt;topo.coordmapper.Grid -->
<g id="edge6" class="edge"><title>topo.base.functionfamily.CoordinateMapperFn&#45;&gt;topo.coordmapper.Grid</title>
<path fill="none" stroke="black" stroke-width="0.5" d="M358.097,-191.236C381.227,-214.015 440.791,-268.931 502,-295 515.252,-300.644 530.057,-304.614 544.452,-307.406"/>
<polygon fill="black" stroke="black" points="544.498,-309.194 549.733,-308.382 545.135,-305.752 544.498,-309.194"/>
</g>
<!-- topo.coordmapper.OttesSCMapper -->
<g id="node11" class="node"><title>topo.coordmapper.OttesSCMapper</title>
<polygon fill="none" stroke="black" stroke-width="0.5" points="706,-286.5 522,-286.5 522,-265.5 706,-265.5 706,-286.5"/>
<text text-anchor="middle" x="614" y="-273.5" font-family="Vera" font-size="10.00">topo.coordmapper.OttesSCMapper</text>
</g>
<!-- topo.base.functionfamily.CoordinateMapperFn&#45;&gt;topo.coordmapper.OttesSCMapper -->
<g id="edge26" class="edge"><title>topo.base.functionfamily.CoordinateMapperFn&#45;&gt;topo.coordmapper.OttesSCMapper</title>
<path fill="none" stroke="black" stroke-width="0.5" d="M364.412,-191.107C391.853,-207.535 449.243,-239.912 502,-257 511.594,-260.107 521.823,-262.732 532.052,-264.942"/>
<polygon fill="black" stroke="black" points="531.818,-266.68 537.07,-265.993 532.536,-263.255 531.818,-266.68"/>
</g>
<!-- topo.coordmapper.ConstantMapper -->
<g id="node13" class="node"><title>topo.coordmapper.ConstantMapper</title>
<polygon fill="none" stroke="black" stroke-width="0.5" points="708,-248.5 520,-248.5 520,-227.5 708,-227.5 708,-248.5"/>
<text text-anchor="middle" x="614" y="-235.5" font-family="Vera" font-size="10.00">topo.coordmapper.ConstantMapper</text>
</g>
<!-- topo.base.functionfamily.CoordinateMapperFn&#45;&gt;topo.coordmapper.ConstantMapper -->
<g id="edge10" class="edge"><title>topo.base.functionfamily.CoordinateMapperFn&#45;&gt;topo.coordmapper.ConstantMapper</title>
<path fill="none" stroke="black" stroke-width="0.5" d="M385.48,-191.071C416.555,-199.223 461.962,-210.676 502,-219 515.758,-221.86 530.533,-224.6 544.694,-227.065"/>
<polygon fill="black" stroke="black" points="544.656,-228.834 549.881,-227.961 545.251,-225.385 544.656,-228.834"/>
</g>
<!-- topo.coordmapper.NormalJitter -->
<g id="node15" class="node"><title>topo.coordmapper.NormalJitter</title>
<polygon fill="none" stroke="black" stroke-width="0.5" points="696,-210.5 532,-210.5 532,-189.5 696,-189.5 696,-210.5"/>
<text text-anchor="middle" x="614" y="-197.5" font-family="Vera" font-size="10.00">topo.coordmapper.NormalJitter</text>
</g>
<!-- topo.base.functionfamily.CoordinateMapperFn&#45;&gt;topo.coordmapper.NormalJitter -->
<g id="edge12" class="edge"><title>topo.base.functionfamily.CoordinateMapperFn&#45;&gt;topo.coordmapper.NormalJitter</title>
<path fill="none" stroke="black" stroke-width="0.5" d="M466.221,-189.444C486.26,-190.876 506.752,-192.339 525.847,-193.703"/>
<polygon fill="black" stroke="black" points="526.083,-195.475 531.195,-194.085 526.332,-191.983 526.083,-195.475"/>
</g>
<!-- topo.coordmapper.Jitter -->
<g id="node17" class="node"><title>topo.coordmapper.Jitter</title>
<polygon fill="none" stroke="black" stroke-width="0.5" points="679,-172.5 549,-172.5 549,-151.5 679,-151.5 679,-172.5"/>
<text text-anchor="middle" x="614" y="-159.5" font-family="Vera" font-size="10.00">topo.coordmapper.Jitter</text>
</g>
<!-- topo.base.functionfamily.CoordinateMapperFn&#45;&gt;topo.coordmapper.Jitter -->
<g id="edge14" class="edge"><title>topo.base.functionfamily.CoordinateMapperFn&#45;&gt;topo.coordmapper.Jitter</title>
<path fill="none" stroke="black" stroke-width="0.5" d="M466.221,-172.556C492.647,-170.668 519.861,-168.724 543.62,-167.027"/>
<polygon fill="black" stroke="black" points="543.774,-168.771 548.636,-166.669 543.524,-165.28 543.774,-168.771"/>
</g>
<!-- topo.coordmapper.SingleDimensionMapper -->
<g id="node20" class="node"><title>topo.coordmapper.SingleDimensionMapper</title>
<polygon fill="none" stroke="black" stroke-width="0.5" points="726,-134.5 502,-134.5 502,-113.5 726,-113.5 726,-134.5"/>
<text text-anchor="middle" x="614" y="-121.5" font-family="Vera" font-size="10.00">topo.coordmapper.SingleDimensionMapper</text>
</g>
<!-- topo.base.functionfamily.CoordinateMapperFn&#45;&gt;topo.coordmapper.SingleDimensionMapper -->
<g id="edge18" class="edge"><title>topo.base.functionfamily.CoordinateMapperFn&#45;&gt;topo.coordmapper.SingleDimensionMapper</title>
<path fill="none" stroke="black" stroke-width="0.5" d="M385.48,-170.929C416.555,-162.777 461.962,-151.324 502,-143 515.758,-140.14 530.533,-137.4 544.694,-134.935"/>
<polygon fill="black" stroke="black" points="545.251,-136.615 549.881,-134.039 544.656,-133.166 545.251,-136.615"/>
</g>
<!-- topo.coordmapper.Cartesian2Polar -->
<g id="node23" class="node"><title>topo.coordmapper.Cartesian2Polar</title>
<polygon fill="none" stroke="black" stroke-width="0.5" points="706,-96.5 522,-96.5 522,-75.5 706,-75.5 706,-96.5"/>
<text text-anchor="middle" x="614" y="-83.5" font-family="Vera" font-size="10.00">topo.coordmapper.Cartesian2Polar</text>
</g>
<!-- topo.base.functionfamily.CoordinateMapperFn&#45;&gt;topo.coordmapper.Cartesian2Polar -->
<g id="edge22" class="edge"><title>topo.base.functionfamily.CoordinateMapperFn&#45;&gt;topo.coordmapper.Cartesian2Polar</title>
<path fill="none" stroke="black" stroke-width="0.5" d="M364.412,-170.893C391.853,-154.465 449.243,-122.088 502,-105 511.594,-101.893 521.823,-99.2684 532.052,-97.0585"/>
<polygon fill="black" stroke="black" points="532.536,-98.7452 537.07,-96.0066 531.818,-95.3196 532.536,-98.7452"/>
</g>
<!-- topo.coordmapper.Pipeline -->
<g id="node25" class="node"><title>topo.coordmapper.Pipeline</title>
<polygon fill="none" stroke="black" stroke-width="0.5" points="686,-58.5 542,-58.5 542,-37.5 686,-37.5 686,-58.5"/>
<text text-anchor="middle" x="614" y="-45.5" font-family="Vera" font-size="10.00">topo.coordmapper.Pipeline</text>
</g>
<!-- topo.base.functionfamily.CoordinateMapperFn&#45;&gt;topo.coordmapper.Pipeline -->
<g id="edge24" class="edge"><title>topo.base.functionfamily.CoordinateMapperFn&#45;&gt;topo.coordmapper.Pipeline</title>
<path fill="none" stroke="black" stroke-width="0.5" d="M358.097,-170.764C381.227,-147.985 440.791,-93.0694 502,-67 512.796,-62.4018 524.624,-58.9146 536.421,-56.2704"/>
<polygon fill="black" stroke="black" points="536.95,-57.947 541.472,-55.1881 536.216,-54.5247 536.95,-57.947"/>
</g>
<!-- topo.coordmapper.Polar2Cartesian -->
<g id="node36" class="node"><title>topo.coordmapper.Polar2Cartesian</title>
<polygon fill="none" stroke="black" stroke-width="0.5" points="706,-20.5 522,-20.5 522,0.5 706,0.5 706,-20.5"/>
<text text-anchor="middle" x="614" y="-7.5" font-family="Vera" font-size="10.00">topo.coordmapper.Polar2Cartesian</text>
</g>
<!-- topo.base.functionfamily.CoordinateMapperFn&#45;&gt;topo.coordmapper.Polar2Cartesian -->
<g id="edge36" class="edge"><title>topo.base.functionfamily.CoordinateMapperFn&#45;&gt;topo.coordmapper.Polar2Cartesian</title>
<path fill="none" stroke="black" stroke-width="0.5" d="M354.877,-170.73C374.258,-142.704 432.458,-64.6275 502,-29 507.485,-26.1898 513.3,-23.7826 519.283,-21.7218"/>
<polygon fill="black" stroke="black" points="520.133,-23.2853 524.344,-20.071 519.048,-19.9578 520.133,-23.2853"/>
</g>
<!-- topo.coordmapper.OttesSCSenseMapper -->
<g id="node10" class="node"><title>topo.coordmapper.OttesSCSenseMapper</title>
<polygon fill="none" stroke="black" stroke-width="0.5" points="976,-286.5 762,-286.5 762,-265.5 976,-265.5 976,-286.5"/>
<text text-anchor="middle" x="869" y="-273.5" font-family="Vera" font-size="10.00">topo.coordmapper.OttesSCSenseMapper</text>
</g>
<!-- topo.coordmapper.OttesSCMapper&#45;&gt;topo.coordmapper.OttesSCSenseMapper -->
<g id="edge8" class="edge"><title>topo.coordmapper.OttesSCMapper&#45;&gt;topo.coordmapper.OttesSCSenseMapper</title>
<path fill="none" stroke="black" stroke-width="0.5" d="M706.061,-276C722.48,-276 739.751,-276 756.661,-276"/>
<polygon fill="black" stroke="black" points="756.896,-277.75 761.896,-276 756.896,-274.25 756.896,-277.75"/>
</g>
<!-- topo.coordmapper.OttesSCMotorMapper -->
<g id="node28" class="node"><title>topo.coordmapper.OttesSCMotorMapper</title>
<polygon fill="none" stroke="black" stroke-width="0.5" points="975,-248.5 763,-248.5 763,-227.5 975,-227.5 975,-248.5"/>
<text text-anchor="middle" x="869" y="-235.5" font-family="Vera" font-size="10.00">topo.coordmapper.OttesSCMotorMapper</text>
</g>
<!-- topo.coordmapper.OttesSCMapper&#45;&gt;topo.coordmapper.OttesSCMotorMapper -->
<g id="edge28" class="edge"><title>topo.coordmapper.OttesSCMapper&#45;&gt;topo.coordmapper.OttesSCMotorMapper</title>
<path fill="none" stroke="black" stroke-width="0.5" d="M681.332,-265.966C716.773,-260.685 760.262,-254.204 796.449,-248.811"/>
<polygon fill="black" stroke="black" points="797.046,-250.492 801.733,-248.024 796.53,-247.03 797.046,-250.492"/>
</g>
<!-- topo.coordmapper.ReducingMapper -->
<g id="node30" class="node"><title>topo.coordmapper.ReducingMapper</title>
<polygon fill="none" stroke="black" stroke-width="0.5" points="962,-153.5 776,-153.5 776,-132.5 962,-132.5 962,-153.5"/>
<text text-anchor="middle" x="869" y="-140.5" font-family="Vera" font-size="10.00">topo.coordmapper.ReducingMapper</text>
</g>
<!-- topo.coordmapper.SingleDimensionMapper&#45;&gt;topo.coordmapper.ReducingMapper -->
<g id="edge30" class="edge"><title>topo.coordmapper.SingleDimensionMapper&#45;&gt;topo.coordmapper.ReducingMapper</title>
<path fill="none" stroke="black" stroke-width="0.5" d="M726.218,-132.361C740.855,-133.452 755.766,-134.563 770.162,-135.636"/>
<polygon fill="black" stroke="black" points="770.325,-137.402 775.441,-136.029 770.585,-133.912 770.325,-137.402"/>
</g>
<!-- topo.coordmapper.MagnifyingMapper -->
<g id="node32" class="node"><title>topo.coordmapper.MagnifyingMapper</title>
<polygon fill="none" stroke="black" stroke-width="0.5" points="966,-115.5 772,-115.5 772,-94.5 966,-94.5 966,-115.5"/>
<text text-anchor="middle" x="869" y="-102.5" font-family="Vera" font-size="10.00">topo.coordmapper.MagnifyingMapper</text>
</g>
<!-- topo.coordmapper.SingleDimensionMapper&#45;&gt;topo.coordmapper.MagnifyingMapper -->
<g id="edge32" class="edge"><title>topo.coordmapper.SingleDimensionMapper&#45;&gt;topo.coordmapper.MagnifyingMapper</title>
<path fill="none" stroke="black" stroke-width="0.5" d="M726.218,-115.639C739.429,-114.654 752.863,-113.653 765.941,-112.679"/>
<polygon fill="black" stroke="black" points="766.272,-114.409 771.128,-112.292 766.012,-110.919 766.272,-114.409"/>
</g>
</g>
</svg>
