<?xml version="1.0" encoding="UTF-8" standalone="no"?>
<!DOCTYPE svg PUBLIC "-//W3C//DTD SVG 1.1//EN"
 "http://www.w3.org/Graphics/SVG/1.1/DTD/svg11.dtd">
<!-- Generated by graphviz version 2.26.3 (20100126.1600)
 -->
<!-- Title: inheritancefe104bf3e4 Pages: 1 -->
<svg width="588pt" height="142pt"
 viewBox="0.00 0.00 588.00 142.00" xmlns="http://www.w3.org/2000/svg" xmlns:xlink="http://www.w3.org/1999/xlink">
<g id="graph1" class="graph" transform="scale(1 1) rotate(0) translate(4 138)">
<title>inheritancefe104bf3e4</title>
<polygon fill="white" stroke="white" points="-4,5 -4,-138 585,-138 585,5 -4,5"/>
<!-- topo.learningfn.Oja -->
<g id="node1" class="node"><title>topo.learningfn.Oja</title>
<polygon fill="none" stroke="black" stroke-width="0.5" points="562,-134 458,-134 458,-114 562,-114 562,-134"/>
<text text-anchor="middle" x="510" y="-121" font-family="Vera" font-size="10.00">topo.learningfn.Oja</text>
</g>
<!-- topo.base.functionfamily.LearningFn -->
<g id="node2" class="node"><title>topo.base.functionfamily.LearningFn</title>
<polygon fill="none" stroke="black" stroke-width="0.5" points="403,-77 221,-77 221,-57 403,-57 403,-77"/>
<text text-anchor="middle" x="312" y="-64" font-family="Vera" font-size="10.00">topo.base.functionfamily.LearningFn</text>
</g>
<!-- topo.base.functionfamily.LearningFn&#45;&gt;topo.learningfn.Oja -->
<g id="edge2" class="edge"><title>topo.base.functionfamily.LearningFn&#45;&gt;topo.learningfn.Oja</title>
<path fill="none" stroke="black" stroke-width="0.5" d="M345.089,-77.0561C370.897,-84.843 407.667,-95.814 440,-105 448.79,-107.497 458.22,-110.105 467.223,-112.561"/>
<polygon fill="black" stroke="black" points="466.889,-114.283 472.173,-113.907 467.808,-110.906 466.889,-114.283"/>
</g>
<!-- topo.learningfn.BCMFixed -->
<g id="node6" class="node"><title>topo.learningfn.BCMFixed</title>
<polygon fill="none" stroke="black" stroke-width="0.5" points="577,-96 443,-96 443,-76 577,-76 577,-96"/>
<text text-anchor="middle" x="510" y="-83" font-family="Vera" font-size="10.00">topo.learningfn.BCMFixed</text>
</g>
<!-- topo.base.functionfamily.LearningFn&#45;&gt;topo.learningfn.BCMFixed -->
<g id="edge6" class="edge"><title>topo.base.functionfamily.LearningFn&#45;&gt;topo.learningfn.BCMFixed</title>
<path fill="none" stroke="black" stroke-width="0.5" d="M403.755,-75.8048C415.159,-76.8991 426.692,-78.0058 437.744,-79.0663"/>
<polygon fill="black" stroke="black" points="437.642,-80.8145 442.786,-79.5502 437.976,-77.3305 437.642,-80.8145"/>
</g>
<!-- topo.learningfn.CPCA -->
<g id="node8" class="node"><title>topo.learningfn.CPCA</title>
<polygon fill="none" stroke="black" stroke-width="0.5" points="566,-58 454,-58 454,-38 566,-38 566,-58"/>
<text text-anchor="middle" x="510" y="-45" font-family="Vera" font-size="10.00">topo.learningfn.CPCA</text>
</g>
<!-- topo.base.functionfamily.LearningFn&#45;&gt;topo.learningfn.CPCA -->
<g id="edge8" class="edge"><title>topo.base.functionfamily.LearningFn&#45;&gt;topo.learningfn.CPCA</title>
<path fill="none" stroke="black" stroke-width="0.5" d="M403.755,-58.1952C418.801,-56.7515 434.071,-55.2861 448.165,-53.9336"/>
<polygon fill="black" stroke="black" points="448.492,-55.6604 453.302,-53.4407 448.158,-52.1764 448.492,-55.6604"/>
</g>
<!-- topo.learningfn.Covariance -->
<g id="node10" class="node"><title>topo.learningfn.Covariance</title>
<polygon fill="none" stroke="black" stroke-width="0.5" points="579,-20 441,-20 441,-1.06581e-14 579,-3.55271e-15 579,-20"/>
<text text-anchor="middle" x="510" y="-7" font-family="Vera" font-size="10.00">topo.learningfn.Covariance</text>
</g>
<!-- topo.base.functionfamily.LearningFn&#45;&gt;topo.learningfn.Covariance -->
<g id="edge10" class="edge"><title>topo.base.functionfamily.LearningFn&#45;&gt;topo.learningfn.Covariance</title>
<path fill="none" stroke="black" stroke-width="0.5" d="M345.089,-56.9439C370.897,-49.157 407.667,-38.186 440,-29 448.79,-26.5028 458.22,-23.8947 467.223,-21.4393"/>
<polygon fill="black" stroke="black" points="467.808,-23.0938 472.173,-20.0926 466.889,-19.7165 467.808,-23.0938"/>
</g>
<!-- param.parameterized.Parameterized -->
<g id="node4" class="node"><title>param.parameterized.Parameterized</title>
<polygon fill="none" stroke="black" stroke-width="0.5" points="184,-77 8.52651e-14,-77 0,-57 184,-57 184,-77"/>
<text text-anchor="middle" x="92" y="-64" font-family="Vera" font-size="10.00">param.parameterized.Parameterized</text>
</g>
<!-- param.parameterized.Parameterized&#45;&gt;topo.base.functionfamily.LearningFn -->
<g id="edge4" class="edge"><title>param.parameterized.Parameterized&#45;&gt;topo.base.functionfamily.LearningFn</title>
<path fill="none" stroke="black" stroke-width="0.5" d="M184.025,-67C194.346,-67 204.884,-67 215.263,-67"/>
<polygon fill="black" stroke="black" points="215.343,-68.7501 220.343,-67 215.343,-65.2501 215.343,-68.7501"/>
</g>
</g>
</svg>
