<?xml version="1.0" encoding="UTF-8" standalone="no"?>
<!DOCTYPE svg PUBLIC "-//W3C//DTD SVG 1.1//EN"
 "http://www.w3.org/Graphics/SVG/1.1/DTD/svg11.dtd">
<!-- Generated by graphviz version 2.26.3 (20100126.1600)
 -->
<!-- Title: inheritancec2708a0c37 Pages: 1 -->
<svg width="736pt" height="28pt"
 viewBox="0.00 0.00 736.00 28.00" xmlns="http://www.w3.org/2000/svg" xmlns:xlink="http://www.w3.org/1999/xlink">
<g id="graph1" class="graph" transform="scale(1 1) rotate(0) translate(4 24)">
<title>inheritancec2708a0c37</title>
<polygon fill="white" stroke="white" points="-4,5 -4,-24 733,-24 733,5 -4,5"/>
<!-- topo.plotting.plotfilesaver.PlotGroupSaver -->
<g id="node1" class="node"><title>topo.plotting.plotfilesaver.PlotGroupSaver</title>
<polygon fill="none" stroke="black" stroke-width="0.5" points="427,-20 221,-20 221,-1.06581e-14 427,-3.55271e-15 427,-20"/>
<text text-anchor="middle" x="324" y="-7" font-family="Vera" font-size="10.00">topo.plotting.plotfilesaver.PlotGroupSaver</text>
</g>
<!-- topo.plotting.plotfilesaver.CFProjectionPlotGroupSaver -->
<g id="node4" class="node"><title>topo.plotting.plotfilesaver.CFProjectionPlotGroupSaver</title>
<polygon fill="none" stroke="black" stroke-width="0.5" points="728,-20 464,-20 464,-1.06581e-14 728,-3.55271e-15 728,-20"/>
<text text-anchor="middle" x="596" y="-7" font-family="Vera" font-size="10.00">topo.plotting.plotfilesaver.CFProjectionPlotGroupSaver</text>
</g>
<!-- topo.plotting.plotfilesaver.PlotGroupSaver&#45;&gt;topo.plotting.plotfilesaver.CFProjectionPlotGroupSaver -->
<g id="edge4" class="edge"><title>topo.plotting.plotfilesaver.PlotGroupSaver&#45;&gt;topo.plotting.plotfilesaver.CFProjectionPlotGroupSaver</title>
<path fill="none" stroke="black" stroke-width="0.5" d="M427.607,-10C437.8,-10 448.25,-10 458.711,-10"/>
<polygon fill="black" stroke="black" points="458.845,-11.7501 463.845,-10 458.845,-8.2501 458.845,-11.7501"/>
</g>
<!-- param.parameterized.Parameterized -->
<g id="node2" class="node"><title>param.parameterized.Parameterized</title>
<polygon fill="none" stroke="black" stroke-width="0.5" points="184,-20 8.52651e-14,-20 0,-1.06581e-14 184,-3.55271e-15 184,-20"/>
<text text-anchor="middle" x="92" y="-7" font-family="Vera" font-size="10.00">param.parameterized.Parameterized</text>
</g>
<!-- param.parameterized.Parameterized&#45;&gt;topo.plotting.plotfilesaver.PlotGroupSaver -->
<g id="edge2" class="edge"><title>param.parameterized.Parameterized&#45;&gt;topo.plotting.plotfilesaver.PlotGroupSaver</title>
<path fill="none" stroke="black" stroke-width="0.5" d="M184.026,-10C194.245,-10 204.725,-10 215.127,-10"/>
<polygon fill="black" stroke="black" points="215.226,-11.7501 220.226,-10 215.226,-8.2501 215.226,-11.7501"/>
</g>
</g>
</svg>
