<?xml version="1.0" encoding="UTF-8" standalone="no"?>
<!DOCTYPE svg PUBLIC "-//W3C//DTD SVG 1.1//EN"
 "http://www.w3.org/Graphics/SVG/1.1/DTD/svg11.dtd">
<!-- Generated by graphviz version 2.26.3 (20100126.1600)
 -->
<!-- Title: inheritance775de93f23 Pages: 1 -->
<svg width="678pt" height="66pt"
 viewBox="0.00 0.00 678.00 66.00" xmlns="http://www.w3.org/2000/svg" xmlns:xlink="http://www.w3.org/1999/xlink">
<g id="graph1" class="graph" transform="scale(1 1) rotate(0) translate(4 62)">
<title>inheritance775de93f23</title>
<polygon fill="white" stroke="white" points="-4,5 -4,-62 675,-62 675,5 -4,5"/>
<!-- topo.base.cf.CFPOutputFn -->
<g id="node1" class="node"><title>topo.base.cf.CFPOutputFn</title>
<polygon fill="none" stroke="black" stroke-width="0.5" points="354,-39 220,-39 220,-19 354,-19 354,-39"/>
<text text-anchor="middle" x="287" y="-26" font-family="Vera" font-size="10.00">topo.base.cf.CFPOutputFn</text>
</g>
<!-- topo.transferfn.optimized.CFPOF_DivisiveNormalizeL1 -->
<g id="node4" class="node"><title>topo.transferfn.optimized.CFPOF_DivisiveNormalizeL1</title>
<polygon fill="none" stroke="black" stroke-width="0.5" points="660,-58 400,-58 400,-38 660,-38 660,-58"/>
<text text-anchor="middle" x="530" y="-45" font-family="Vera" font-size="10.00">topo.transferfn.optimized.CFPOF_DivisiveNormalizeL1</text>
</g>
<!-- topo.base.cf.CFPOutputFn&#45;&gt;topo.transferfn.optimized.CFPOF_DivisiveNormalizeL1 -->
<g id="edge4" class="edge"><title>topo.base.cf.CFPOutputFn&#45;&gt;topo.transferfn.optimized.CFPOF_DivisiveNormalizeL1</title>
<path fill="none" stroke="black" stroke-width="0.5" d="M354.044,-34.2421C367.549,-35.2981 382.186,-36.4425 397.053,-37.605"/>
<polygon fill="black" stroke="black" points="396.981,-39.3546 402.102,-37.9998 397.254,-35.8652 396.981,-39.3546"/>
</g>
<!-- topo.transferfn.optimized.CFPOF_DivisiveNormalizeL1_opt -->
<g id="node6" class="node"><title>topo.transferfn.optimized.CFPOF_DivisiveNormalizeL1_opt</title>
<polygon fill="none" stroke="black" stroke-width="0.5" points="670,-20 390,-20 390,-1.06581e-14 670,-3.55271e-15 670,-20"/>
<text text-anchor="middle" x="530" y="-7" font-family="Vera" font-size="10.00">topo.transferfn.optimized.CFPOF_DivisiveNormalizeL1_opt</text>
</g>
<!-- topo.base.cf.CFPOutputFn&#45;&gt;topo.transferfn.optimized.CFPOF_DivisiveNormalizeL1_opt -->
<g id="edge6" class="edge"><title>topo.base.cf.CFPOutputFn&#45;&gt;topo.transferfn.optimized.CFPOF_DivisiveNormalizeL1_opt</title>
<path fill="none" stroke="black" stroke-width="0.5" d="M354.044,-23.7579C367.549,-22.7019 382.186,-21.5575 397.053,-20.395"/>
<polygon fill="black" stroke="black" points="397.254,-22.1348 402.102,-20.0002 396.981,-18.6454 397.254,-22.1348"/>
</g>
<!-- param.parameterized.Parameterized -->
<g id="node2" class="node"><title>param.parameterized.Parameterized</title>
<polygon fill="none" stroke="black" stroke-width="0.5" points="184,-39 8.52651e-14,-39 0,-19 184,-19 184,-39"/>
<text text-anchor="middle" x="92" y="-26" font-family="Vera" font-size="10.00">param.parameterized.Parameterized</text>
</g>
<!-- param.parameterized.Parameterized&#45;&gt;topo.base.cf.CFPOutputFn -->
<g id="edge2" class="edge"><title>param.parameterized.Parameterized&#45;&gt;topo.base.cf.CFPOutputFn</title>
<path fill="none" stroke="black" stroke-width="0.5" d="M184.075,-29C194.32,-29 204.645,-29 214.596,-29"/>
<polygon fill="black" stroke="black" points="214.763,-30.7501 219.763,-29 214.763,-27.2501 214.763,-30.7501"/>
</g>
</g>
</svg>
