<?xml version="1.0" encoding="UTF-8" standalone="no"?>
<!DOCTYPE svg PUBLIC "-//W3C//DTD SVG 1.1//EN"
 "http://www.w3.org/Graphics/SVG/1.1/DTD/svg11.dtd">
<!-- Generated by graphviz version 2.26.3 (20100126.1600)
 -->
<!-- Title: inheritancece7c9332fe Pages: 1 -->
<svg width="844pt" height="28pt"
 viewBox="0.00 0.00 844.00 28.00" xmlns="http://www.w3.org/2000/svg" xmlns:xlink="http://www.w3.org/1999/xlink">
<g id="graph1" class="graph" transform="scale(1 1) rotate(0) translate(4 24)">
<title>inheritancece7c9332fe</title>
<polygon fill="white" stroke="white" points="-4,5 -4,-24 841,-24 841,5 -4,5"/>
<!-- imagen.image.GenericImage -->
<g id="node1" class="node"><title>imagen.image.GenericImage</title>
<polygon fill="none" stroke="black" stroke-width="0.5" points="614,-20 468,-20 468,-1.06581e-14 614,-3.55271e-15 614,-20"/>
<text text-anchor="middle" x="541" y="-7" font-family="Vera" font-size="10.00">imagen.image.GenericImage</text>
</g>
<!-- imagen.opencvcamera.CameraImage -->
<g id="node5" class="node"><title>imagen.opencvcamera.CameraImage</title>
<polygon fill="none" stroke="black" stroke-width="0.5" points="835,-20 651,-20 651,-1.06581e-14 835,-3.55271e-15 835,-20"/>
<text text-anchor="middle" x="743" y="-7" font-family="Vera" font-size="10.00">imagen.opencvcamera.CameraImage</text>
</g>
<!-- imagen.image.GenericImage&#45;&gt;imagen.opencvcamera.CameraImage -->
<g id="edge4" class="edge"><title>imagen.image.GenericImage&#45;&gt;imagen.opencvcamera.CameraImage</title>
<path fill="none" stroke="black" stroke-width="0.5" d="M614.212,-10C624.303,-10 634.796,-10 645.242,-10"/>
<polygon fill="black" stroke="black" points="645.365,-11.7501 650.364,-10 645.364,-8.2501 645.365,-11.7501"/>
</g>
<!-- imagen.patterngenerator.PatternGenerator -->
<g id="node2" class="node"><title>imagen.patterngenerator.PatternGenerator</title>
<polygon fill="none" stroke="black" stroke-width="0.5" points="432,-20 220,-20 220,-1.06581e-14 432,-3.55271e-15 432,-20"/>
<text text-anchor="middle" x="326" y="-7" font-family="Vera" font-size="10.00">imagen.patterngenerator.PatternGenerator</text>
</g>
<!-- imagen.patterngenerator.PatternGenerator&#45;&gt;imagen.image.GenericImage -->
<g id="edge2" class="edge"><title>imagen.patterngenerator.PatternGenerator&#45;&gt;imagen.image.GenericImage</title>
<path fill="none" stroke="black" stroke-width="0.5" d="M432.24,-10C442.511,-10 452.796,-10 462.722,-10"/>
<polygon fill="black" stroke="black" points="462.878,-11.7501 467.878,-10 462.878,-8.2501 462.878,-11.7501"/>
</g>
<!-- param.parameterized.Parameterized -->
<g id="node4" class="node"><title>param.parameterized.Parameterized</title>
<polygon fill="none" stroke="black" stroke-width="0.5" points="184,-20 8.52651e-14,-20 0,-1.06581e-14 184,-3.55271e-15 184,-20"/>
<text text-anchor="middle" x="92" y="-7" font-family="Vera" font-size="10.00">param.parameterized.Parameterized</text>
</g>
<!-- param.parameterized.Parameterized&#45;&gt;imagen.patterngenerator.PatternGenerator -->
<g id="edge6" class="edge"><title>param.parameterized.Parameterized&#45;&gt;imagen.patterngenerator.PatternGenerator</title>
<path fill="none" stroke="black" stroke-width="0.5" d="M184.147,-10C194.259,-10 204.63,-10 214.94,-10"/>
<polygon fill="black" stroke="black" points="214.995,-11.7501 219.994,-10 214.994,-8.2501 214.995,-11.7501"/>
</g>
</g>
</svg>
