<?xml version="1.0" encoding="UTF-8" standalone="no"?>
<!DOCTYPE svg PUBLIC "-//W3C//DTD SVG 1.1//EN"
 "http://www.w3.org/Graphics/SVG/1.1/DTD/svg11.dtd">
<!-- Generated by graphviz version 2.26.3 (20100126.1600)
 -->
<!-- Title: inheritance273a80740e Pages: 1 -->
<svg width="834pt" height="940pt"
 viewBox="0.00 0.00 834.00 940.00" xmlns="http://www.w3.org/2000/svg" xmlns:xlink="http://www.w3.org/1999/xlink">
<g id="graph1" class="graph" transform="scale(1 1) rotate(0) translate(4 936)">
<title>inheritance273a80740e</title>
<polygon fill="white" stroke="white" points="-4,5 -4,-936 831,-936 831,5 -4,5"/>
<!-- imagen.Line -->
<g id="node1" class="node"><title>imagen.Line</title>
<polygon fill="none" stroke="black" stroke-width="0.5" points="591,-894 519,-894 519,-874 591,-874 591,-894"/>
<text text-anchor="middle" x="555" y="-881" font-family="Vera" font-size="10.00">imagen.Line</text>
</g>
<!-- imagen.patterngenerator.PatternGenerator -->
<g id="node2" class="node"><title>imagen.patterngenerator.PatternGenerator</title>
<polygon fill="none" stroke="black" stroke-width="0.5" points="432,-457 220,-457 220,-437 432,-437 432,-457"/>
<text text-anchor="middle" x="326" y="-444" font-family="Vera" font-size="10.00">imagen.patterngenerator.PatternGenerator</text>
</g>
<!-- imagen.patterngenerator.PatternGenerator&#45;&gt;imagen.Line -->
<g id="edge2" class="edge"><title>imagen.patterngenerator.PatternGenerator&#45;&gt;imagen.Line</title>
<path fill="none" stroke="black" stroke-width="0.5" d="M328.063,-457.242C340.028,-515.667 402.272,-806.278 468,-865 480.326,-876.012 497.531,-881.141 513.39,-883.378"/>
<polygon fill="black" stroke="black" points="513.531,-885.159 518.707,-884.031 513.958,-881.685 513.531,-885.159"/>
</g>
<!-- imagen.Sigmoid -->
<g id="node4" class="node"><title>imagen.Sigmoid</title>
<polygon fill="none" stroke="black" stroke-width="0.5" points="600,-856 510,-856 510,-836 600,-836 600,-856"/>
<text text-anchor="middle" x="555" y="-843" font-family="Vera" font-size="10.00">imagen.Sigmoid</text>
</g>
<!-- imagen.patterngenerator.PatternGenerator&#45;&gt;imagen.Sigmoid -->
<g id="edge4" class="edge"><title>imagen.patterngenerator.PatternGenerator&#45;&gt;imagen.Sigmoid</title>
<path fill="none" stroke="black" stroke-width="0.5" d="M326.438,-457.138C329.141,-506.412 347.72,-722.756 468,-827 478.108,-835.76 491.32,-840.769 504.384,-843.562"/>
<polygon fill="black" stroke="black" points="504.33,-845.334 509.571,-844.561 504.992,-841.897 504.33,-845.334"/>
</g>
<!-- imagen.DifferenceOfGaussians -->
<g id="node6" class="node"><title>imagen.DifferenceOfGaussians</title>
<polygon fill="none" stroke="black" stroke-width="0.5" points="633,-818 477,-818 477,-798 633,-798 633,-818"/>
<text text-anchor="middle" x="555" y="-805" font-family="Vera" font-size="10.00">imagen.DifferenceOfGaussians</text>
</g>
<!-- imagen.patterngenerator.PatternGenerator&#45;&gt;imagen.DifferenceOfGaussians -->
<g id="edge6" class="edge"><title>imagen.patterngenerator.PatternGenerator&#45;&gt;imagen.DifferenceOfGaussians</title>
<path fill="none" stroke="black" stroke-width="0.5" d="M326.89,-457.056C331.541,-503.209 357.252,-696.448 468,-789 470.936,-791.454 474.118,-793.611 477.47,-795.505"/>
<polygon fill="black" stroke="black" points="476.895,-797.179 482.14,-797.929 478.508,-794.072 476.895,-797.179"/>
</g>
<!-- imagen.GaussiansCorner -->
<g id="node12" class="node"><title>imagen.GaussiansCorner</title>
<polygon fill="none" stroke="black" stroke-width="0.5" points="620,-780 490,-780 490,-760 620,-760 620,-780"/>
<text text-anchor="middle" x="555" y="-767" font-family="Vera" font-size="10.00">imagen.GaussiansCorner</text>
</g>
<!-- imagen.patterngenerator.PatternGenerator&#45;&gt;imagen.GaussiansCorner -->
<g id="edge10" class="edge"><title>imagen.patterngenerator.PatternGenerator&#45;&gt;imagen.GaussiansCorner</title>
<path fill="none" stroke="black" stroke-width="0.5" d="M327.458,-457.097C334.237,-500.175 366.765,-670.067 468,-751 473.1,-755.077 478.885,-758.326 484.991,-760.91"/>
<polygon fill="black" stroke="black" points="484.422,-762.566 489.716,-762.758 485.697,-759.307 484.422,-762.566"/>
</g>
<!-- imagen.SineGrating -->
<g id="node14" class="node"><title>imagen.SineGrating</title>
<polygon fill="none" stroke="black" stroke-width="0.5" points="608,-742 502,-742 502,-722 608,-722 608,-742"/>
<text text-anchor="middle" x="555" y="-729" font-family="Vera" font-size="10.00">imagen.SineGrating</text>
</g>
<!-- imagen.patterngenerator.PatternGenerator&#45;&gt;imagen.SineGrating -->
<g id="edge12" class="edge"><title>imagen.patterngenerator.PatternGenerator&#45;&gt;imagen.SineGrating</title>
<path fill="none" stroke="black" stroke-width="0.5" d="M328.186,-457.179C337.299,-497.008 376.159,-643.51 468,-713 476.37,-719.333 486.419,-723.643 496.669,-726.558"/>
<polygon fill="black" stroke="black" points="496.429,-728.305 501.71,-727.88 497.317,-724.919 496.429,-728.305"/>
</g>
<!-- imagen.Arc -->
<g id="node17" class="node"><title>imagen.Arc</title>
<polygon fill="none" stroke="black" stroke-width="0.5" points="589,-704 521,-704 521,-684 589,-684 589,-704"/>
<text text-anchor="middle" x="555" y="-691" font-family="Vera" font-size="10.00">imagen.Arc</text>
</g>
<!-- imagen.patterngenerator.PatternGenerator&#45;&gt;imagen.Arc -->
<g id="edge36" class="edge"><title>imagen.patterngenerator.PatternGenerator&#45;&gt;imagen.Arc</title>
<path fill="none" stroke="black" stroke-width="0.5" d="M329.126,-457.201C340.776,-493.404 385.313,-616.666 468,-675 481.733,-684.689 499.491,-689.575 515.38,-691.99"/>
<polygon fill="black" stroke="black" points="515.496,-693.773 520.688,-692.718 515.972,-690.305 515.496,-693.773"/>
</g>
<!-- imagen.Composite -->
<g id="node20" class="node"><title>imagen.Composite</title>
<polygon fill="none" stroke="black" stroke-width="0.5" points="605,-666 505,-666 505,-646 605,-646 605,-666"/>
<text text-anchor="middle" x="555" y="-653" font-family="Vera" font-size="10.00">imagen.Composite</text>
</g>
<!-- imagen.patterngenerator.PatternGenerator&#45;&gt;imagen.Composite -->
<g id="edge26" class="edge"><title>imagen.patterngenerator.PatternGenerator&#45;&gt;imagen.Composite</title>
<path fill="none" stroke="black" stroke-width="0.5" d="M330.431,-457.262C344.921,-489.517 394.248,-589.519 468,-637 477.356,-643.024 488.329,-647.162 499.269,-649.999"/>
<polygon fill="black" stroke="black" points="499.016,-651.738 504.287,-651.213 499.839,-648.336 499.016,-651.738"/>
</g>
<!-- imagen.Rectangle -->
<g id="node22" class="node"><title>imagen.Rectangle</title>
<polygon fill="none" stroke="black" stroke-width="0.5" points="603,-628 507,-628 507,-608 603,-608 603,-628"/>
<text text-anchor="middle" x="555" y="-615" font-family="Vera" font-size="10.00">imagen.Rectangle</text>
</g>
<!-- imagen.patterngenerator.PatternGenerator&#45;&gt;imagen.Rectangle -->
<g id="edge18" class="edge"><title>imagen.patterngenerator.PatternGenerator&#45;&gt;imagen.Rectangle</title>
<path fill="none" stroke="black" stroke-width="0.5" d="M332.218,-457.11C349.774,-484.728 402.71,-561.859 468,-599 478.112,-604.752 489.797,-608.765 501.255,-611.563"/>
<polygon fill="black" stroke="black" points="500.882,-613.273 506.147,-612.689 501.667,-609.862 500.882,-613.273"/>
</g>
<!-- imagen.Gabor -->
<g id="node26" class="node"><title>imagen.Gabor</title>
<polygon fill="none" stroke="black" stroke-width="0.5" points="595,-590 515,-590 515,-570 595,-570 595,-590"/>
<text text-anchor="middle" x="555" y="-577" font-family="Vera" font-size="10.00">imagen.Gabor</text>
</g>
<!-- imagen.patterngenerator.PatternGenerator&#45;&gt;imagen.Gabor -->
<g id="edge22" class="edge"><title>imagen.patterngenerator.PatternGenerator&#45;&gt;imagen.Gabor</title>
<path fill="none" stroke="black" stroke-width="0.5" d="M335.222,-457.065C356.37,-479.494 410.949,-533.741 468,-561 480.797,-567.114 495.593,-571.286 509.314,-574.123"/>
<polygon fill="black" stroke="black" points="509.07,-575.859 514.314,-575.109 509.747,-572.425 509.07,-575.859"/>
</g>
<!-- imagen.patterngenerator.Constant -->
<g id="node29" class="node"><title>imagen.patterngenerator.Constant</title>
<polygon fill="none" stroke="black" stroke-width="0.5" points="642,-552 468,-552 468,-532 642,-532 642,-552"/>
<text text-anchor="middle" x="555" y="-539" font-family="Vera" font-size="10.00">imagen.patterngenerator.Constant</text>
</g>
<!-- imagen.patterngenerator.PatternGenerator&#45;&gt;imagen.patterngenerator.Constant -->
<g id="edge56" class="edge"><title>imagen.patterngenerator.PatternGenerator&#45;&gt;imagen.patterngenerator.Constant</title>
<path fill="none" stroke="black" stroke-width="0.5" d="M341.509,-457.166C366.921,-473.385 419.464,-505.106 468,-523 475.928,-525.923 484.437,-528.464 492.917,-530.653"/>
<polygon fill="black" stroke="black" points="492.912,-532.455 498.187,-531.97 493.761,-529.06 492.912,-532.455"/>
</g>
<!-- imagen.PowerSpectrum -->
<g id="node33" class="node"><title>imagen.PowerSpectrum</title>
<polygon fill="none" stroke="black" stroke-width="0.5" points="617,-514 493,-514 493,-494 617,-494 617,-514"/>
<text text-anchor="middle" x="555" y="-501" font-family="Vera" font-size="10.00">imagen.PowerSpectrum</text>
</g>
<!-- imagen.patterngenerator.PatternGenerator&#45;&gt;imagen.PowerSpectrum -->
<g id="edge58" class="edge"><title>imagen.patterngenerator.PatternGenerator&#45;&gt;imagen.PowerSpectrum</title>
<path fill="none" stroke="black" stroke-width="0.5" d="M361.774,-457.067C390.417,-465.007 431.669,-476.177 468,-485 478.944,-487.658 490.703,-490.341 501.929,-492.821"/>
<polygon fill="black" stroke="black" points="501.785,-494.581 507.044,-493.945 502.536,-491.163 501.785,-494.581"/>
</g>
<!-- imagen.Ring -->
<g id="node39" class="node"><title>imagen.Ring</title>
<polygon fill="none" stroke="black" stroke-width="0.5" points="591,-476 519,-476 519,-456 591,-456 591,-476"/>
<text text-anchor="middle" x="555" y="-463" font-family="Vera" font-size="10.00">imagen.Ring</text>
</g>
<!-- imagen.patterngenerator.PatternGenerator&#45;&gt;imagen.Ring -->
<g id="edge34" class="edge"><title>imagen.patterngenerator.PatternGenerator&#45;&gt;imagen.Ring</title>
<path fill="none" stroke="black" stroke-width="0.5" d="M432.12,-455.805C460.945,-458.196 490.481,-460.647 513.37,-462.546"/>
<polygon fill="black" stroke="black" points="513.318,-464.298 518.446,-462.967 513.608,-460.81 513.318,-464.298"/>
</g>
<!-- imagen.SigmoidedDoG -->
<g id="node42" class="node"><title>imagen.SigmoidedDoG</title>
<polygon fill="none" stroke="black" stroke-width="0.5" points="615,-438 495,-438 495,-418 615,-418 615,-438"/>
<text text-anchor="middle" x="555" y="-425" font-family="Vera" font-size="10.00">imagen.SigmoidedDoG</text>
</g>
<!-- imagen.patterngenerator.PatternGenerator&#45;&gt;imagen.SigmoidedDoG -->
<g id="edge38" class="edge"><title>imagen.patterngenerator.PatternGenerator&#45;&gt;imagen.SigmoidedDoG</title>
<path fill="none" stroke="black" stroke-width="0.5" d="M432.12,-438.195C451.418,-436.594 471.034,-434.967 488.761,-433.496"/>
<polygon fill="black" stroke="black" points="489.361,-435.202 494.199,-433.045 489.072,-431.714 489.361,-435.202"/>
</g>
<!-- imagen.HalfPlane -->
<g id="node44" class="node"><title>imagen.HalfPlane</title>
<polygon fill="none" stroke="black" stroke-width="0.5" points="603,-400 507,-400 507,-380 603,-380 603,-400"/>
<text text-anchor="middle" x="555" y="-387" font-family="Vera" font-size="10.00">imagen.HalfPlane</text>
</g>
<!-- imagen.patterngenerator.PatternGenerator&#45;&gt;imagen.HalfPlane -->
<g id="edge40" class="edge"><title>imagen.patterngenerator.PatternGenerator&#45;&gt;imagen.HalfPlane</title>
<path fill="none" stroke="black" stroke-width="0.5" d="M399.175,-436.94C410.317,-434.534 421.57,-431.59 432,-428 449.107,-422.112 451.007,-415.209 468,-409 478.704,-405.089 490.456,-401.855 501.766,-399.232"/>
<polygon fill="black" stroke="black" points="502.433,-400.876 506.926,-398.07 501.664,-397.462 502.433,-400.876"/>
</g>
<!-- imagen.Selector -->
<g id="node46" class="node"><title>imagen.Selector</title>
<polygon fill="none" stroke="black" stroke-width="0.5" points="599,-362 511,-362 511,-342 599,-342 599,-362"/>
<text text-anchor="middle" x="555" y="-349" font-family="Vera" font-size="10.00">imagen.Selector</text>
</g>
<!-- imagen.patterngenerator.PatternGenerator&#45;&gt;imagen.Selector -->
<g id="edge42" class="edge"><title>imagen.patterngenerator.PatternGenerator&#45;&gt;imagen.Selector</title>
<path fill="none" stroke="black" stroke-width="0.5" d="M414.99,-436.924C420.984,-434.491 426.727,-431.549 432,-428 456.857,-411.27 443.462,-388.195 468,-371 478.842,-363.402 492.165,-358.762 505.096,-355.95"/>
<polygon fill="black" stroke="black" points="505.66,-357.622 510.219,-354.924 504.972,-354.19 505.66,-357.622"/>
</g>
<!-- imagen.RawRectangle -->
<g id="node48" class="node"><title>imagen.RawRectangle</title>
<polygon fill="none" stroke="black" stroke-width="0.5" points="612,-324 498,-324 498,-304 612,-304 612,-324"/>
<text text-anchor="middle" x="555" y="-311" font-family="Vera" font-size="10.00">imagen.RawRectangle</text>
</g>
<!-- imagen.patterngenerator.PatternGenerator&#45;&gt;imagen.RawRectangle -->
<g id="edge44" class="edge"><title>imagen.patterngenerator.PatternGenerator&#45;&gt;imagen.RawRectangle</title>
<path fill="none" stroke="black" stroke-width="0.5" d="M418.137,-436.973C423.084,-434.487 427.757,-431.523 432,-428 466.738,-399.156 433.811,-362.493 468,-333 475.013,-326.95 483.508,-322.692 492.407,-319.717"/>
<polygon fill="black" stroke="black" points="493.117,-321.33 497.386,-318.193 492.092,-317.983 493.117,-321.33"/>
</g>
<!-- imagen.SigmoidedDoLG -->
<g id="node50" class="node"><title>imagen.SigmoidedDoLG</title>
<polygon fill="none" stroke="black" stroke-width="0.5" points="618,-286 492,-286 492,-266 618,-266 618,-286"/>
<text text-anchor="middle" x="555" y="-273" font-family="Vera" font-size="10.00">imagen.SigmoidedDoLG</text>
</g>
<!-- imagen.patterngenerator.PatternGenerator&#45;&gt;imagen.SigmoidedDoLG -->
<g id="edge46" class="edge"><title>imagen.patterngenerator.PatternGenerator&#45;&gt;imagen.SigmoidedDoLG</title>
<path fill="none" stroke="black" stroke-width="0.5" d="M419.778,-436.777C424.163,-434.314 428.279,-431.411 432,-428 477.144,-386.622 423.643,-337.221 468,-295 473.459,-289.804 479.994,-285.897 486.997,-282.978"/>
<polygon fill="black" stroke="black" points="487.86,-284.523 491.913,-281.111 486.617,-281.251 487.86,-284.523"/>
</g>
<!-- imagen.SquareGrating -->
<g id="node52" class="node"><title>imagen.SquareGrating</title>
<polygon fill="none" stroke="black" stroke-width="0.5" points="614,-248 496,-248 496,-228 614,-228 614,-248"/>
<text text-anchor="middle" x="555" y="-235" font-family="Vera" font-size="10.00">imagen.SquareGrating</text>
</g>
<!-- imagen.patterngenerator.PatternGenerator&#45;&gt;imagen.SquareGrating -->
<g id="edge48" class="edge"><title>imagen.patterngenerator.PatternGenerator&#45;&gt;imagen.SquareGrating</title>
<path fill="none" stroke="black" stroke-width="0.5" d="M420.494,-436.745C424.638,-434.279 428.511,-431.385 432,-428 487.739,-373.916 413.289,-312.124 468,-257 474.34,-250.612 482.297,-246.146 490.806,-243.06"/>
<polygon fill="black" stroke="black" points="491.383,-244.712 495.583,-241.483 490.286,-241.388 491.383,-244.712"/>
</g>
<!-- imagen.Disk -->
<g id="node56" class="node"><title>imagen.Disk</title>
<polygon fill="none" stroke="black" stroke-width="0.5" points="591,-210 519,-210 519,-190 591,-190 591,-210"/>
<text text-anchor="middle" x="555" y="-197" font-family="Vera" font-size="10.00">imagen.Disk</text>
</g>
<!-- imagen.patterngenerator.PatternGenerator&#45;&gt;imagen.Disk -->
<g id="edge52" class="edge"><title>imagen.patterngenerator.PatternGenerator&#45;&gt;imagen.Disk</title>
<path fill="none" stroke="black" stroke-width="0.5" d="M420.647,-436.9C424.751,-434.393 428.574,-431.449 432,-428 498.423,-361.125 402.848,-287.114 468,-219 479.718,-206.749 497.36,-201.507 513.701,-199.518"/>
<polygon fill="black" stroke="black" points="513.928,-201.254 518.723,-199.001 513.57,-197.772 513.928,-201.254"/>
</g>
<!-- imagen.Sweeper -->
<g id="node58" class="node"><title>imagen.Sweeper</title>
<polygon fill="none" stroke="black" stroke-width="0.5" points="601,-172 509,-172 509,-152 601,-152 601,-172"/>
<text text-anchor="middle" x="555" y="-159" font-family="Vera" font-size="10.00">imagen.Sweeper</text>
</g>
<!-- imagen.patterngenerator.PatternGenerator&#45;&gt;imagen.Sweeper -->
<g id="edge54" class="edge"><title>imagen.patterngenerator.PatternGenerator&#45;&gt;imagen.Sweeper</title>
<path fill="none" stroke="black" stroke-width="0.5" d="M421.224,-436.712C425.123,-434.242 428.749,-431.359 432,-428 509.154,-348.286 392.36,-262.153 468,-181 477.213,-171.116 490.275,-165.766 503.485,-163.007"/>
<polygon fill="black" stroke="black" points="504.143,-164.665 508.745,-162.04 503.511,-161.223 504.143,-164.665"/>
</g>
<!-- imagen.Gaussian -->
<g id="node62" class="node"><title>imagen.Gaussian</title>
<polygon fill="none" stroke="black" stroke-width="0.5" points="602,-134 508,-134 508,-114 602,-114 602,-134"/>
<text text-anchor="middle" x="555" y="-121" font-family="Vera" font-size="10.00">imagen.Gaussian</text>
</g>
<!-- imagen.patterngenerator.PatternGenerator&#45;&gt;imagen.Gaussian -->
<g id="edge60" class="edge"><title>imagen.patterngenerator.PatternGenerator&#45;&gt;imagen.Gaussian</title>
<path fill="none" stroke="black" stroke-width="0.5" d="M421.303,-436.787C425.181,-434.298 428.782,-431.389 432,-428 519.914,-335.418 381.844,-237.221 468,-143 476.934,-133.23 489.626,-127.87 502.561,-125.063"/>
<polygon fill="black" stroke="black" points="503.136,-126.735 507.718,-124.076 502.478,-123.298 503.136,-126.735"/>
</g>
<!-- imagen.ExponentialDecay -->
<g id="node64" class="node"><title>imagen.ExponentialDecay</title>
<polygon fill="none" stroke="black" stroke-width="0.5" points="621,-96 489,-96 489,-76 621,-76 621,-96"/>
<text text-anchor="middle" x="555" y="-83" font-family="Vera" font-size="10.00">imagen.ExponentialDecay</text>
</g>
<!-- imagen.patterngenerator.PatternGenerator&#45;&gt;imagen.ExponentialDecay -->
<g id="edge62" class="edge"><title>imagen.patterngenerator.PatternGenerator&#45;&gt;imagen.ExponentialDecay</title>
<path fill="none" stroke="black" stroke-width="0.5" d="M421.364,-436.845C425.226,-434.34 428.806,-431.413 432,-428 530.693,-322.53 371.31,-212.309 468,-105 472.453,-100.058 477.868,-96.24 483.794,-93.3085"/>
<polygon fill="black" stroke="black" points="484.572,-94.8778 488.418,-91.2357 483.14,-91.684 484.572,-94.8778"/>
</g>
<!-- imagen.Translator -->
<g id="node66" class="node"><title>imagen.Translator</title>
<polygon fill="none" stroke="black" stroke-width="0.5" points="604,-58 506,-58 506,-38 604,-38 604,-58"/>
<text text-anchor="middle" x="555" y="-45" font-family="Vera" font-size="10.00">imagen.Translator</text>
</g>
<!-- imagen.patterngenerator.PatternGenerator&#45;&gt;imagen.Translator -->
<g id="edge64" class="edge"><title>imagen.patterngenerator.PatternGenerator&#45;&gt;imagen.Translator</title>
<path fill="none" stroke="black" stroke-width="0.5" d="M421.412,-436.89C425.262,-434.374 428.826,-431.431 432,-428 486.742,-368.814 414.382,-127.206 468,-67 476.277,-57.706 487.951,-52.3783 500.068,-49.4415"/>
<polygon fill="black" stroke="black" points="500.757,-51.0837 505.279,-48.3247 500.023,-47.6614 500.757,-51.0837"/>
</g>
<!-- imagen.LogGaussian -->
<g id="node70" class="node"><title>imagen.LogGaussian</title>
<polygon fill="none" stroke="black" stroke-width="0.5" points="610,-20 500,-20 500,-1.06581e-14 610,-3.55271e-15 610,-20"/>
<text text-anchor="middle" x="555" y="-7" font-family="Vera" font-size="10.00">imagen.LogGaussian</text>
</g>
<!-- imagen.patterngenerator.PatternGenerator&#45;&gt;imagen.LogGaussian -->
<g id="edge68" class="edge"><title>imagen.patterngenerator.PatternGenerator&#45;&gt;imagen.LogGaussian</title>
<path fill="none" stroke="black" stroke-width="0.5" d="M421.452,-436.926C425.291,-434.401 428.842,-431.446 432,-428 492.142,-362.359 409.104,-95.7614 468,-29 475.032,-21.0294 484.561,-15.9696 494.739,-12.832"/>
<polygon fill="black" stroke="black" points="495.425,-14.4582 499.78,-11.4418 494.495,-11.0841 495.425,-14.4582"/>
</g>
<!-- param.parameterized.Parameterized -->
<g id="node8" class="node"><title>param.parameterized.Parameterized</title>
<polygon fill="none" stroke="black" stroke-width="0.5" points="184,-438 8.52651e-14,-438 0,-418 184,-418 184,-438"/>
<text text-anchor="middle" x="92" y="-425" font-family="Vera" font-size="10.00">param.parameterized.Parameterized</text>
</g>
<!-- param.parameterized.Parameterized&#45;&gt;imagen.patterngenerator.PatternGenerator -->
<g id="edge70" class="edge"><title>param.parameterized.Parameterized&#45;&gt;imagen.patterngenerator.PatternGenerator</title>
<path fill="none" stroke="black" stroke-width="0.5" d="M184.147,-435.482C194.259,-436.303 204.63,-437.145 214.94,-437.982"/>
<polygon fill="black" stroke="black" points="214.869,-439.732 219.994,-438.393 215.153,-436.244 214.869,-439.732"/>
</g>
<!-- imagen.TimeSeries -->
<g id="node35" class="node"><title>imagen.TimeSeries</title>
<polygon fill="none" stroke="black" stroke-width="0.5" points="377,-419 275,-419 275,-399 377,-399 377,-419"/>
<text text-anchor="middle" x="326" y="-406" font-family="Vera" font-size="10.00">imagen.TimeSeries</text>
</g>
<!-- param.parameterized.Parameterized&#45;&gt;imagen.TimeSeries -->
<g id="edge30" class="edge"><title>param.parameterized.Parameterized&#45;&gt;imagen.TimeSeries</title>
<path fill="none" stroke="black" stroke-width="0.5" d="M184.147,-420.518C213.043,-418.172 244.06,-415.653 269.698,-413.571"/>
<polygon fill="black" stroke="black" points="269.91,-415.31 274.752,-413.161 269.627,-411.822 269.91,-415.31"/>
</g>
<!-- param.ClassSelector -->
<g id="node9" class="node"><title>param.ClassSelector</title>
<polygon fill="none" stroke="black" stroke-width="0.5" points="609,-932 501,-932 501,-912 609,-912 609,-932"/>
<text text-anchor="middle" x="555" y="-919" font-family="Vera" font-size="10.00">param.ClassSelector</text>
</g>
<!-- imagen.TimeSeriesParam -->
<g id="node24" class="node"><title>imagen.TimeSeriesParam</title>
<polygon fill="none" stroke="black" stroke-width="0.5" points="818,-932 686,-932 686,-912 818,-912 818,-932"/>
<text text-anchor="middle" x="752" y="-919" font-family="Vera" font-size="10.00">imagen.TimeSeriesParam</text>
</g>
<!-- param.ClassSelector&#45;&gt;imagen.TimeSeriesParam -->
<g id="edge20" class="edge"><title>param.ClassSelector&#45;&gt;imagen.TimeSeriesParam</title>
<path fill="none" stroke="black" stroke-width="0.5" d="M609.092,-922C631.211,-922 657.109,-922 680.737,-922"/>
<polygon fill="black" stroke="black" points="680.742,-923.75 685.742,-922 680.742,-920.25 680.742,-923.75"/>
</g>
<!-- param.Selector -->
<g id="node10" class="node"><title>param.Selector</title>
<polygon fill="none" stroke="black" stroke-width="0.5" points="368,-932 284,-932 284,-912 368,-912 368,-932"/>
<text text-anchor="middle" x="326" y="-919" font-family="Vera" font-size="10.00">param.Selector</text>
</g>
<!-- param.Selector&#45;&gt;param.ClassSelector -->
<g id="edge8" class="edge"><title>param.Selector&#45;&gt;param.ClassSelector</title>
<path fill="none" stroke="black" stroke-width="0.5" d="M368.536,-922C404.311,-922 455.848,-922 495.678,-922"/>
<polygon fill="black" stroke="black" points="495.969,-923.75 500.969,-922 495.969,-920.25 495.969,-923.75"/>
</g>
<!-- imagen.OrientationContrast -->
<g id="node54" class="node"><title>imagen.OrientationContrast</title>
<polygon fill="none" stroke="black" stroke-width="0.5" points="823,-742 681,-742 681,-722 823,-722 823,-742"/>
<text text-anchor="middle" x="752" y="-729" font-family="Vera" font-size="10.00">imagen.OrientationContrast</text>
</g>
<!-- imagen.SineGrating&#45;&gt;imagen.OrientationContrast -->
<g id="edge50" class="edge"><title>imagen.SineGrating&#45;&gt;imagen.OrientationContrast</title>
<path fill="none" stroke="black" stroke-width="0.5" d="M608.052,-732C628.712,-732 652.788,-732 675.272,-732"/>
<polygon fill="black" stroke="black" points="675.344,-733.75 680.344,-732 675.343,-730.25 675.344,-733.75"/>
</g>
<!-- imagen.Curve -->
<g id="node16" class="node"><title>imagen.Curve</title>
<polygon fill="none" stroke="black" stroke-width="0.5" points="791,-704 713,-704 713,-684 791,-684 791,-704"/>
<text text-anchor="middle" x="752" y="-691" font-family="Vera" font-size="10.00">imagen.Curve</text>
</g>
<!-- imagen.Arc&#45;&gt;imagen.Curve -->
<g id="edge14" class="edge"><title>imagen.Arc&#45;&gt;imagen.Curve</title>
<path fill="none" stroke="black" stroke-width="0.5" d="M589.315,-694C621.992,-694 671.361,-694 707.142,-694"/>
<polygon fill="black" stroke="black" points="707.319,-695.75 712.319,-694 707.319,-692.25 707.319,-695.75"/>
</g>
<!-- imagen.SeparatedComposite -->
<g id="node19" class="node"><title>imagen.SeparatedComposite</title>
<polygon fill="none" stroke="black" stroke-width="0.5" points="825,-666 679,-666 679,-646 825,-646 825,-666"/>
<text text-anchor="middle" x="752" y="-653" font-family="Vera" font-size="10.00">imagen.SeparatedComposite</text>
</g>
<!-- imagen.Composite&#45;&gt;imagen.SeparatedComposite -->
<g id="edge16" class="edge"><title>imagen.Composite&#45;&gt;imagen.SeparatedComposite</title>
<path fill="none" stroke="black" stroke-width="0.5" d="M605.732,-656C626.294,-656 650.52,-656 673.277,-656"/>
<polygon fill="black" stroke="black" points="673.413,-657.75 678.412,-656 673.412,-654.25 673.413,-657.75"/>
</g>
<!-- imagen.TwoRectangles -->
<g id="node68" class="node"><title>imagen.TwoRectangles</title>
<polygon fill="none" stroke="black" stroke-width="0.5" points="812,-628 692,-628 692,-608 812,-608 812,-628"/>
<text text-anchor="middle" x="752" y="-615" font-family="Vera" font-size="10.00">imagen.TwoRectangles</text>
</g>
<!-- imagen.Rectangle&#45;&gt;imagen.TwoRectangles -->
<g id="edge66" class="edge"><title>imagen.Rectangle&#45;&gt;imagen.TwoRectangles</title>
<path fill="none" stroke="black" stroke-width="0.5" d="M603.697,-618C628.796,-618 659.751,-618 686.876,-618"/>
<polygon fill="black" stroke="black" points="686.894,-619.75 691.894,-618 686.894,-616.25 686.894,-619.75"/>
</g>
<!-- imagen.Null -->
<g id="node28" class="node"><title>imagen.Null</title>
<polygon fill="none" stroke="black" stroke-width="0.5" points="788,-552 716,-552 716,-532 788,-532 788,-552"/>
<text text-anchor="middle" x="752" y="-539" font-family="Vera" font-size="10.00">imagen.Null</text>
</g>
<!-- imagen.patterngenerator.Constant&#45;&gt;imagen.Null -->
<g id="edge24" class="edge"><title>imagen.patterngenerator.Constant&#45;&gt;imagen.Null</title>
<path fill="none" stroke="black" stroke-width="0.5" d="M642.267,-542C666.075,-542 690.77,-542 710.69,-542"/>
<polygon fill="black" stroke="black" points="710.912,-543.75 715.912,-542 710.912,-540.25 710.912,-543.75"/>
</g>
<!-- imagen.Spectrogram -->
<g id="node32" class="node"><title>imagen.Spectrogram</title>
<polygon fill="none" stroke="black" stroke-width="0.5" points="807,-514 697,-514 697,-494 807,-494 807,-514"/>
<text text-anchor="middle" x="752" y="-501" font-family="Vera" font-size="10.00">imagen.Spectrogram</text>
</g>
<!-- imagen.PowerSpectrum&#45;&gt;imagen.Spectrogram -->
<g id="edge28" class="edge"><title>imagen.PowerSpectrum&#45;&gt;imagen.Spectrogram</title>
<path fill="none" stroke="black" stroke-width="0.5" d="M617.603,-504C641.065,-504 667.676,-504 690.992,-504"/>
<polygon fill="black" stroke="black" points="691.223,-505.75 696.223,-504 691.223,-502.25 691.223,-505.75"/>
</g>
<!-- param.parameterized.Parameter -->
<g id="node37" class="node"><title>param.parameterized.Parameter</title>
<polygon fill="none" stroke="black" stroke-width="0.5" points="174,-932 10,-932 10,-912 174,-912 174,-932"/>
<text text-anchor="middle" x="92" y="-919" font-family="Vera" font-size="10.00">param.parameterized.Parameter</text>
</g>
<!-- param.parameterized.Parameter&#45;&gt;param.Selector -->
<g id="edge32" class="edge"><title>param.parameterized.Parameter&#45;&gt;param.Selector</title>
<path fill="none" stroke="black" stroke-width="0.5" d="M174.829,-922C209.504,-922 248.569,-922 278.299,-922"/>
<polygon fill="black" stroke="black" points="278.363,-923.75 283.363,-922 278.363,-920.25 278.363,-923.75"/>
</g>
</g>
</svg>
