<?xml version="1.0" encoding="UTF-8" standalone="no"?>
<!DOCTYPE svg PUBLIC "-//W3C//DTD SVG 1.1//EN"
 "http://www.w3.org/Graphics/SVG/1.1/DTD/svg11.dtd">
<!-- Generated by graphviz version 2.26.3 (20100126.1600)
 -->
<!-- Title: inheritance23d65fc6d3 Pages: 1 -->
<svg width="948pt" height="104pt"
 viewBox="0.00 0.00 948.00 104.00" xmlns="http://www.w3.org/2000/svg" xmlns:xlink="http://www.w3.org/1999/xlink">
<g id="graph1" class="graph" transform="scale(1 1) rotate(0) translate(4 100)">
<title>inheritance23d65fc6d3</title>
<polygon fill="white" stroke="white" points="-4,5 -4,-100 945,-100 945,5 -4,5"/>
<!-- topo.base.cf.CFPResponseFn -->
<g id="node1" class="node"><title>topo.base.cf.CFPResponseFn</title>
<polygon fill="none" stroke="black" stroke-width="0.5" points="366,-58 220,-58 220,-38 366,-38 366,-58"/>
<text text-anchor="middle" x="293" y="-45" font-family="Vera" font-size="10.00">topo.base.cf.CFPResponseFn</text>
</g>
<!-- topo.responsefn.optimized.CFPRF_EuclideanDistance_opt -->
<g id="node4" class="node"><title>topo.responsefn.optimized.CFPRF_EuclideanDistance_opt</title>
<polygon fill="none" stroke="black" stroke-width="0.5" points="677,-96 403,-96 403,-76 677,-76 677,-96"/>
<text text-anchor="middle" x="540" y="-83" font-family="Vera" font-size="10.00">topo.responsefn.optimized.CFPRF_EuclideanDistance_opt</text>
</g>
<!-- topo.base.cf.CFPResponseFn&#45;&gt;topo.responsefn.optimized.CFPRF_EuclideanDistance_opt -->
<g id="edge4" class="edge"><title>topo.base.cf.CFPResponseFn&#45;&gt;topo.responsefn.optimized.CFPRF_EuclideanDistance_opt</title>
<path fill="none" stroke="black" stroke-width="0.5" d="M348.108,-58.0006C365.344,-61.0223 384.444,-64.2622 402,-67 420.238,-69.8441 439.868,-72.6813 458.438,-75.2627"/>
<polygon fill="black" stroke="black" points="458.453,-77.0314 463.646,-75.9838 458.933,-73.5645 458.453,-77.0314"/>
</g>
<!-- topo.base.cf.CFPRF_Plugin -->
<g id="node7" class="node"><title>topo.base.cf.CFPRF_Plugin</title>
<polygon fill="none" stroke="black" stroke-width="0.5" points="607,-58 473,-58 473,-38 607,-38 607,-58"/>
<text text-anchor="middle" x="540" y="-45" font-family="Vera" font-size="10.00">topo.base.cf.CFPRF_Plugin</text>
</g>
<!-- topo.base.cf.CFPResponseFn&#45;&gt;topo.base.cf.CFPRF_Plugin -->
<g id="edge8" class="edge"><title>topo.base.cf.CFPResponseFn&#45;&gt;topo.base.cf.CFPRF_Plugin</title>
<path fill="none" stroke="black" stroke-width="0.5" d="M366.106,-48C397.973,-48 435.243,-48 467.089,-48"/>
<polygon fill="black" stroke="black" points="467.151,-49.7501 472.151,-48 467.151,-46.2501 467.151,-49.7501"/>
</g>
<!-- topo.responsefn.optimized.CFPRF_DotProduct_opt -->
<g id="node10" class="node"><title>topo.responsefn.optimized.CFPRF_DotProduct_opt</title>
<polygon fill="none" stroke="black" stroke-width="0.5" points="662,-20 418,-20 418,-1.06581e-14 662,-3.55271e-15 662,-20"/>
<text text-anchor="middle" x="540" y="-7" font-family="Vera" font-size="10.00">topo.responsefn.optimized.CFPRF_DotProduct_opt</text>
</g>
<!-- topo.base.cf.CFPResponseFn&#45;&gt;topo.responsefn.optimized.CFPRF_DotProduct_opt -->
<g id="edge10" class="edge"><title>topo.base.cf.CFPResponseFn&#45;&gt;topo.responsefn.optimized.CFPRF_DotProduct_opt</title>
<path fill="none" stroke="black" stroke-width="0.5" d="M348.108,-37.9994C365.344,-34.9777 384.444,-31.7378 402,-29 420.238,-26.1559 439.868,-23.3187 458.438,-20.7373"/>
<polygon fill="black" stroke="black" points="458.933,-22.4355 463.646,-20.0162 458.453,-18.9686 458.933,-22.4355"/>
</g>
<!-- param.parameterized.Parameterized -->
<g id="node2" class="node"><title>param.parameterized.Parameterized</title>
<polygon fill="none" stroke="black" stroke-width="0.5" points="184,-58 8.52651e-14,-58 0,-38 184,-38 184,-58"/>
<text text-anchor="middle" x="92" y="-45" font-family="Vera" font-size="10.00">param.parameterized.Parameterized</text>
</g>
<!-- param.parameterized.Parameterized&#45;&gt;topo.base.cf.CFPResponseFn -->
<g id="edge2" class="edge"><title>param.parameterized.Parameterized&#45;&gt;topo.base.cf.CFPResponseFn</title>
<path fill="none" stroke="black" stroke-width="0.5" d="M184.264,-48C194.459,-48 204.767,-48 214.765,-48"/>
<polygon fill="black" stroke="black" points="214.964,-49.7501 219.964,-48 214.964,-46.2501 214.964,-49.7501"/>
</g>
<!-- topo.responsefn.optimized.CFPRF_DotProduct -->
<g id="node6" class="node"><title>topo.responsefn.optimized.CFPRF_DotProduct</title>
<polygon fill="none" stroke="black" stroke-width="0.5" points="939,-58 715,-58 715,-38 939,-38 939,-58"/>
<text text-anchor="middle" x="827" y="-45" font-family="Vera" font-size="10.00">topo.responsefn.optimized.CFPRF_DotProduct</text>
</g>
<!-- topo.base.cf.CFPRF_Plugin&#45;&gt;topo.responsefn.optimized.CFPRF_DotProduct -->
<g id="edge6" class="edge"><title>topo.base.cf.CFPRF_Plugin&#45;&gt;topo.responsefn.optimized.CFPRF_DotProduct</title>
<path fill="none" stroke="black" stroke-width="0.5" d="M607.652,-48C637.979,-48 674.649,-48 709.253,-48"/>
<polygon fill="black" stroke="black" points="709.342,-49.7501 714.342,-48 709.342,-46.2501 709.342,-49.7501"/>
</g>
</g>
</svg>
