<?xml version="1.0" encoding="UTF-8" standalone="no"?>
<!DOCTYPE svg PUBLIC "-//W3C//DTD SVG 1.1//EN"
 "http://www.w3.org/Graphics/SVG/1.1/DTD/svg11.dtd">
<!-- Generated by graphviz version 2.26.3 (20100126.1600)
 -->
<!-- Title: inheritance50e9782c42 Pages: 1 -->
<svg width="882pt" height="161pt"
 viewBox="0.00 0.00 882.00 161.00" xmlns="http://www.w3.org/2000/svg" xmlns:xlink="http://www.w3.org/1999/xlink">
<g id="graph1" class="graph" transform="scale(1 1) rotate(0) translate(4 157)">
<title>inheritance50e9782c42</title>
<polygon fill="white" stroke="white" points="-4,5 -4,-157 879,-157 879,5 -4,5"/>
<!-- topo.transferfn.misc.AttributeTrackingTF -->
<g id="node1" class="node"><title>topo.transferfn.misc.AttributeTrackingTF</title>
<polygon fill="none" stroke="black" stroke-width="0.5" points="865,-153.5 659,-153.5 659,-132.5 865,-132.5 865,-153.5"/>
<text text-anchor="middle" x="762" y="-140.5" font-family="Vera" font-size="10.00">topo.transferfn.misc.AttributeTrackingTF</text>
</g>
<!-- topo.transferfn.TransferFnWithState -->
<g id="node2" class="node"><title>topo.transferfn.TransferFnWithState</title>
<polygon fill="none" stroke="black" stroke-width="0.5" points="610,-134.5 424,-134.5 424,-113.5 610,-113.5 610,-134.5"/>
<text text-anchor="middle" x="517" y="-121.5" font-family="Vera" font-size="10.00">topo.transferfn.TransferFnWithState</text>
</g>
<!-- topo.transferfn.TransferFnWithState&#45;&gt;topo.transferfn.misc.AttributeTrackingTF -->
<g id="edge2" class="edge"><title>topo.transferfn.TransferFnWithState&#45;&gt;topo.transferfn.misc.AttributeTrackingTF</title>
<path fill="none" stroke="black" stroke-width="0.5" d="M610.323,-131.237C624.294,-132.321 638.802,-133.446 653.062,-134.552"/>
<polygon fill="black" stroke="black" points="653.183,-136.316 658.303,-134.958 653.454,-132.827 653.183,-136.316"/>
</g>
<!-- topo.transferfn.misc.HomeostaticResponse -->
<g id="node10" class="node"><title>topo.transferfn.misc.HomeostaticResponse</title>
<polygon fill="none" stroke="black" stroke-width="0.5" points="874,-115.5 650,-115.5 650,-94.5 874,-94.5 874,-115.5"/>
<text text-anchor="middle" x="762" y="-102.5" font-family="Vera" font-size="10.00">topo.transferfn.misc.HomeostaticResponse</text>
</g>
<!-- topo.transferfn.TransferFnWithState&#45;&gt;topo.transferfn.misc.HomeostaticResponse -->
<g id="edge8" class="edge"><title>topo.transferfn.TransferFnWithState&#45;&gt;topo.transferfn.misc.HomeostaticResponse</title>
<path fill="none" stroke="black" stroke-width="0.5" d="M610.323,-116.763C621.463,-115.899 632.946,-115.008 644.371,-114.122"/>
<polygon fill="black" stroke="black" points="644.766,-115.847 649.616,-113.716 644.495,-112.357 644.766,-115.847"/>
</g>
<!-- topo.transferfn.misc.HalfRectify -->
<g id="node4" class="node"><title>topo.transferfn.misc.HalfRectify</title>
<polygon fill="none" stroke="black" stroke-width="0.5" points="600,-96.5 434,-96.5 434,-75.5 600,-75.5 600,-96.5"/>
<text text-anchor="middle" x="517" y="-83.5" font-family="Vera" font-size="10.00">topo.transferfn.misc.HalfRectify</text>
</g>
<!-- imagen.transferfn.TransferFn -->
<g id="node5" class="node"><title>imagen.transferfn.TransferFn</title>
<polygon fill="none" stroke="black" stroke-width="0.5" points="384,-77.5 230,-77.5 230,-56.5 384,-56.5 384,-77.5"/>
<text text-anchor="middle" x="307" y="-64.5" font-family="Vera" font-size="10.00">imagen.transferfn.TransferFn</text>
</g>
<!-- imagen.transferfn.TransferFn&#45;&gt;topo.transferfn.TransferFnWithState -->
<g id="edge12" class="edge"><title>imagen.transferfn.TransferFn&#45;&gt;topo.transferfn.TransferFnWithState</title>
<path fill="none" stroke="black" stroke-width="0.5" d="M333.641,-77.0613C356.351,-85.3711 389.988,-97.0511 420,-105 431.031,-107.922 442.877,-110.608 454.369,-112.983"/>
<polygon fill="black" stroke="black" points="454.021,-114.698 459.27,-113.982 454.72,-111.268 454.021,-114.698"/>
</g>
<!-- imagen.transferfn.TransferFn&#45;&gt;topo.transferfn.misc.HalfRectify -->
<g id="edge4" class="edge"><title>imagen.transferfn.TransferFn&#45;&gt;topo.transferfn.misc.HalfRectify</title>
<path fill="none" stroke="black" stroke-width="0.5" d="M384.004,-73.967C398.622,-75.2896 414.022,-76.6829 428.952,-78.0338"/>
<polygon fill="black" stroke="black" points="428.858,-79.7823 433.995,-78.4901 429.173,-76.2965 428.858,-79.7823"/>
</g>
<!-- topo.transferfn.misc.PatternCombine -->
<g id="node8" class="node"><title>topo.transferfn.misc.PatternCombine</title>
<polygon fill="none" stroke="black" stroke-width="0.5" points="614,-58.5 420,-58.5 420,-37.5 614,-37.5 614,-58.5"/>
<text text-anchor="middle" x="517" y="-45.5" font-family="Vera" font-size="10.00">topo.transferfn.misc.PatternCombine</text>
</g>
<!-- imagen.transferfn.TransferFn&#45;&gt;topo.transferfn.misc.PatternCombine -->
<g id="edge6" class="edge"><title>imagen.transferfn.TransferFn&#45;&gt;topo.transferfn.misc.PatternCombine</title>
<path fill="none" stroke="black" stroke-width="0.5" d="M384.004,-60.033C394.064,-59.1228 404.493,-58.1792 414.885,-57.239"/>
<polygon fill="black" stroke="black" points="415.16,-58.9714 419.982,-56.7779 414.844,-55.4856 415.16,-58.9714"/>
</g>
<!-- topo.transferfn.misc.KernelMax -->
<g id="node12" class="node"><title>topo.transferfn.misc.KernelMax</title>
<polygon fill="none" stroke="black" stroke-width="0.5" points="599,-20.5 435,-20.5 435,0.5 599,0.5 599,-20.5"/>
<text text-anchor="middle" x="517" y="-7.5" font-family="Vera" font-size="10.00">topo.transferfn.misc.KernelMax</text>
</g>
<!-- imagen.transferfn.TransferFn&#45;&gt;topo.transferfn.misc.KernelMax -->
<g id="edge10" class="edge"><title>imagen.transferfn.TransferFn&#45;&gt;topo.transferfn.misc.KernelMax</title>
<path fill="none" stroke="black" stroke-width="0.5" d="M333.641,-56.9387C356.351,-48.6289 389.988,-36.9489 420,-29 431.031,-26.0783 442.877,-23.3924 454.369,-21.017"/>
<polygon fill="black" stroke="black" points="454.72,-22.7316 459.27,-20.0182 454.021,-19.3021 454.72,-22.7316"/>
</g>
<!-- param.parameterized.Parameterized -->
<g id="node7" class="node"><title>param.parameterized.Parameterized</title>
<polygon fill="none" stroke="black" stroke-width="0.5" points="194,-77.5 5.68434e-14,-77.5 0,-56.5 194,-56.5 194,-77.5"/>
<text text-anchor="middle" x="97" y="-64.5" font-family="Vera" font-size="10.00">param.parameterized.Parameterized</text>
</g>
<!-- param.parameterized.Parameterized&#45;&gt;imagen.transferfn.TransferFn -->
<g id="edge14" class="edge"><title>param.parameterized.Parameterized&#45;&gt;imagen.transferfn.TransferFn</title>
<path fill="none" stroke="black" stroke-width="0.5" d="M194.009,-67C204.259,-67 214.611,-67 224.671,-67"/>
<polygon fill="black" stroke="black" points="224.903,-68.7501 229.903,-67 224.903,-65.2501 224.903,-68.7501"/>
</g>
</g>
</svg>
