<?xml version="1.0" encoding="UTF-8" standalone="no"?>
<!DOCTYPE svg PUBLIC "-//W3C//DTD SVG 1.1//EN"
 "http://www.w3.org/Graphics/SVG/1.1/DTD/svg11.dtd">
<!-- Generated by graphviz version 2.26.3 (20100126.1600)
 -->
<!-- Title: inheritance0f827376bc Pages: 1 -->
<svg width="2194pt" height="285pt"
 viewBox="0.00 0.00 2194.00 285.00" xmlns="http://www.w3.org/2000/svg" xmlns:xlink="http://www.w3.org/1999/xlink">
<g id="graph1" class="graph" transform="scale(1 1) rotate(0) translate(4 281)">
<title>inheritance0f827376bc</title>
<polygon fill="white" stroke="white" points="-4,5 -4,-281 2191,-281 2191,5 -4,5"/>
<!-- topo.analysis.featureresponses.FeatureMaps -->
<g id="node1" class="node"><title>topo.analysis.featureresponses.FeatureMaps</title>
<polygon fill="none" stroke="black" stroke-width="0.5" points="1131,-277.5 901,-277.5 901,-256.5 1131,-256.5 1131,-277.5"/>
<text text-anchor="middle" x="1016" y="-264.5" font-family="Vera" font-size="10.00">topo.analysis.featureresponses.FeatureMaps</text>
</g>
<!-- topo.analysis.featureresponses.FeatureResponses -->
<g id="node2" class="node"><title>topo.analysis.featureresponses.FeatureResponses</title>
<polygon fill="none" stroke="black" stroke-width="0.5" points="801,-220.5 545,-220.5 545,-199.5 801,-199.5 801,-220.5"/>
<text text-anchor="middle" x="673" y="-207.5" font-family="Vera" font-size="10.00">topo.analysis.featureresponses.FeatureResponses</text>
</g>
<!-- topo.analysis.featureresponses.FeatureResponses&#45;&gt;topo.analysis.featureresponses.FeatureMaps -->
<g id="edge2" class="edge"><title>topo.analysis.featureresponses.FeatureResponses&#45;&gt;topo.analysis.featureresponses.FeatureMaps</title>
<path fill="none" stroke="black" stroke-width="0.5" d="M717.887,-220.021C756.072,-228.306 812.442,-239.973 862,-248 880.716,-251.032 900.782,-253.832 920.04,-256.3"/>
<polygon fill="black" stroke="black" points="920.268,-258.093 925.448,-256.987 920.709,-254.621 920.268,-258.093"/>
</g>
<!-- topo.analysis.featureresponses.FeatureCurves -->
<g id="node14" class="node"><title>topo.analysis.featureresponses.FeatureCurves</title>
<polygon fill="none" stroke="black" stroke-width="0.5" points="1135,-239.5 897,-239.5 897,-218.5 1135,-218.5 1135,-239.5"/>
<text text-anchor="middle" x="1016" y="-226.5" font-family="Vera" font-size="10.00">topo.analysis.featureresponses.FeatureCurves</text>
</g>
<!-- topo.analysis.featureresponses.FeatureResponses&#45;&gt;topo.analysis.featureresponses.FeatureCurves -->
<g id="edge12" class="edge"><title>topo.analysis.featureresponses.FeatureResponses&#45;&gt;topo.analysis.featureresponses.FeatureCurves</title>
<path fill="none" stroke="black" stroke-width="0.5" d="M801.696,-217.129C831.077,-218.756 862.248,-220.483 891.451,-222.101"/>
<polygon fill="black" stroke="black" points="891.41,-223.851 896.499,-222.38 891.603,-220.356 891.41,-223.851"/>
</g>
<!-- topo.analysis.featureresponses.ReverseCorrelation -->
<g id="node17" class="node"><title>topo.analysis.featureresponses.ReverseCorrelation</title>
<polygon fill="none" stroke="black" stroke-width="0.5" points="1146,-201.5 886,-201.5 886,-180.5 1146,-180.5 1146,-201.5"/>
<text text-anchor="middle" x="1016" y="-188.5" font-family="Vera" font-size="10.00">topo.analysis.featureresponses.ReverseCorrelation</text>
</g>
<!-- topo.analysis.featureresponses.FeatureResponses&#45;&gt;topo.analysis.featureresponses.ReverseCorrelation -->
<g id="edge16" class="edge"><title>topo.analysis.featureresponses.FeatureResponses&#45;&gt;topo.analysis.featureresponses.ReverseCorrelation</title>
<path fill="none" stroke="black" stroke-width="0.5" d="M801.696,-202.871C827.448,-201.445 854.575,-199.942 880.547,-198.503"/>
<polygon fill="black" stroke="black" points="880.83,-200.24 885.726,-198.216 880.636,-196.746 880.83,-200.24"/>
</g>
<!-- topo.analysis.featureresponses.Feature -->
<g id="node4" class="node"><title>topo.analysis.featureresponses.Feature</title>
<polygon fill="none" stroke="black" stroke-width="0.5" points="460,-248.5 254,-248.5 254,-227.5 460,-227.5 460,-248.5"/>
<text text-anchor="middle" x="357" y="-235.5" font-family="Vera" font-size="10.00">topo.analysis.featureresponses.Feature</text>
</g>
<!-- param.parameterized.Parameterized -->
<g id="node5" class="node"><title>param.parameterized.Parameterized</title>
<polygon fill="none" stroke="black" stroke-width="0.5" points="194,-134.5 5.68434e-14,-134.5 0,-113.5 194,-113.5 194,-134.5"/>
<text text-anchor="middle" x="97" y="-121.5" font-family="Vera" font-size="10.00">param.parameterized.Parameterized</text>
</g>
<!-- param.parameterized.Parameterized&#45;&gt;topo.analysis.featureresponses.Feature -->
<g id="edge4" class="edge"><title>param.parameterized.Parameterized&#45;&gt;topo.analysis.featureresponses.Feature</title>
<path fill="none" stroke="black" stroke-width="0.5" d="M107.318,-134.077C128.386,-153.991 178.705,-198.251 230,-219 237.445,-222.012 245.31,-224.552 253.328,-226.694"/>
<polygon fill="black" stroke="black" points="253.06,-228.431 258.338,-227.976 253.929,-225.041 253.06,-228.431"/>
</g>
<!-- topo.base.functionfamily.PatternDrivenAnalysis -->
<g id="node7" class="node"><title>topo.base.functionfamily.PatternDrivenAnalysis</title>
<polygon fill="none" stroke="black" stroke-width="0.5" points="477,-210.5 237,-210.5 237,-189.5 477,-189.5 477,-210.5"/>
<text text-anchor="middle" x="357" y="-197.5" font-family="Vera" font-size="10.00">topo.base.functionfamily.PatternDrivenAnalysis</text>
</g>
<!-- param.parameterized.Parameterized&#45;&gt;topo.base.functionfamily.PatternDrivenAnalysis -->
<g id="edge6" class="edge"><title>param.parameterized.Parameterized&#45;&gt;topo.base.functionfamily.PatternDrivenAnalysis</title>
<path fill="none" stroke="black" stroke-width="0.5" d="M116.253,-134.123C141.62,-147.018 187.951,-169.059 230,-181 241.071,-184.144 252.842,-186.793 264.58,-189.018"/>
<polygon fill="black" stroke="black" points="264.372,-190.759 269.607,-189.946 265.007,-187.317 264.372,-190.759"/>
</g>
<!-- param.parameterized.ParameterizedFunction -->
<g id="node19" class="node"><title>param.parameterized.ParameterizedFunction</title>
<polygon fill="none" stroke="black" stroke-width="0.5" points="474,-172.5 240,-172.5 240,-151.5 474,-151.5 474,-172.5"/>
<text text-anchor="middle" x="357" y="-159.5" font-family="Vera" font-size="10.00">param.parameterized.ParameterizedFunction</text>
</g>
<!-- param.parameterized.Parameterized&#45;&gt;param.parameterized.ParameterizedFunction -->
<g id="edge18" class="edge"><title>param.parameterized.Parameterized&#45;&gt;param.parameterized.ParameterizedFunction</title>
<path fill="none" stroke="black" stroke-width="0.5" d="M165.652,-134.034C201.788,-139.315 246.13,-145.796 283.027,-151.189"/>
<polygon fill="black" stroke="black" points="283.214,-152.984 288.414,-151.976 283.72,-149.521 283.214,-152.984"/>
</g>
<!-- topo.analysis.featureresponses.PatternPresenter -->
<g id="node21" class="node"><title>topo.analysis.featureresponses.PatternPresenter</title>
<polygon fill="none" stroke="black" stroke-width="0.5" points="482,-134.5 232,-134.5 232,-113.5 482,-113.5 482,-134.5"/>
<text text-anchor="middle" x="357" y="-121.5" font-family="Vera" font-size="10.00">topo.analysis.featureresponses.PatternPresenter</text>
</g>
<!-- param.parameterized.Parameterized&#45;&gt;topo.analysis.featureresponses.PatternPresenter -->
<g id="edge20" class="edge"><title>param.parameterized.Parameterized&#45;&gt;topo.analysis.featureresponses.PatternPresenter</title>
<path fill="none" stroke="black" stroke-width="0.5" d="M194.184,-124C204.596,-124 215.309,-124 226.03,-124"/>
<polygon fill="black" stroke="black" points="226.293,-125.75 231.293,-124 226.293,-122.25 226.293,-125.75"/>
</g>
<!-- topo.analysis.featureresponses.FullMatrix -->
<g id="node27" class="node"><title>topo.analysis.featureresponses.FullMatrix</title>
<polygon fill="none" stroke="black" stroke-width="0.5" points="464,-96.5 250,-96.5 250,-75.5 464,-75.5 464,-96.5"/>
<text text-anchor="middle" x="357" y="-83.5" font-family="Vera" font-size="10.00">topo.analysis.featureresponses.FullMatrix</text>
</g>
<!-- param.parameterized.Parameterized&#45;&gt;topo.analysis.featureresponses.FullMatrix -->
<g id="edge26" class="edge"><title>param.parameterized.Parameterized&#45;&gt;topo.analysis.featureresponses.FullMatrix</title>
<path fill="none" stroke="black" stroke-width="0.5" d="M165.652,-113.966C201.788,-108.685 246.13,-102.204 283.027,-96.8115"/>
<polygon fill="black" stroke="black" points="283.72,-98.4788 288.414,-96.024 283.214,-95.0156 283.72,-98.4788"/>
</g>
<!-- topo.analysis.featureresponses.Subplotting -->
<g id="node36" class="node"><title>topo.analysis.featureresponses.Subplotting</title>
<polygon fill="none" stroke="black" stroke-width="0.5" points="469,-58.5 245,-58.5 245,-37.5 469,-37.5 469,-58.5"/>
<text text-anchor="middle" x="357" y="-45.5" font-family="Vera" font-size="10.00">topo.analysis.featureresponses.Subplotting</text>
</g>
<!-- param.parameterized.Parameterized&#45;&gt;topo.analysis.featureresponses.Subplotting -->
<g id="edge36" class="edge"><title>param.parameterized.Parameterized&#45;&gt;topo.analysis.featureresponses.Subplotting</title>
<path fill="none" stroke="black" stroke-width="0.5" d="M116.253,-113.877C141.62,-100.982 187.951,-78.9411 230,-67 241.071,-63.8559 252.842,-61.2072 264.58,-58.982"/>
<polygon fill="black" stroke="black" points="265.007,-60.6827 269.607,-58.054 264.372,-57.2409 265.007,-60.6827"/>
</g>
<!-- topo.analysis.featureresponses.DistributionMatrix -->
<g id="node38" class="node"><title>topo.analysis.featureresponses.DistributionMatrix</title>
<polygon fill="none" stroke="black" stroke-width="0.5" points="484,-20.5 230,-20.5 230,0.5 484,0.5 484,-20.5"/>
<text text-anchor="middle" x="357" y="-7.5" font-family="Vera" font-size="10.00">topo.analysis.featureresponses.DistributionMatrix</text>
</g>
<!-- param.parameterized.Parameterized&#45;&gt;topo.analysis.featureresponses.DistributionMatrix -->
<g id="edge38" class="edge"><title>param.parameterized.Parameterized&#45;&gt;topo.analysis.featureresponses.DistributionMatrix</title>
<path fill="none" stroke="black" stroke-width="0.5" d="M107.318,-113.923C128.386,-94.0085 178.705,-49.7487 230,-29 237.445,-25.9885 245.31,-23.4483 253.328,-21.3064"/>
<polygon fill="black" stroke="black" points="253.929,-22.9592 258.338,-20.0236 253.06,-19.5686 253.929,-22.9592"/>
</g>
<!-- topo.base.functionfamily.PatternDrivenAnalysis&#45;&gt;topo.analysis.featureresponses.FeatureResponses -->
<g id="edge14" class="edge"><title>topo.base.functionfamily.PatternDrivenAnalysis&#45;&gt;topo.analysis.featureresponses.FeatureResponses</title>
<path fill="none" stroke="black" stroke-width="0.5" d="M477.368,-203.809C497.547,-204.448 518.595,-205.114 539.09,-205.762"/>
<polygon fill="black" stroke="black" points="539.235,-207.518 544.288,-205.927 539.346,-204.019 539.235,-207.518"/>
</g>
<!-- topo.analysis.featureresponses.SinusoidalMeasureResponseCommand -->
<g id="node9" class="node"><title>topo.analysis.featureresponses.SinusoidalMeasureResponseCommand</title>
<polygon fill="none" stroke="black" stroke-width="0.5" points="1562,-201.5 1206,-201.5 1206,-180.5 1562,-180.5 1562,-201.5"/>
<text text-anchor="middle" x="1384" y="-188.5" font-family="Vera" font-size="10.00">topo.analysis.featureresponses.SinusoidalMeasureResponseCommand</text>
</g>
<!-- topo.analysis.featureresponses.FeatureCurveCommand -->
<g id="node12" class="node"><title>topo.analysis.featureresponses.FeatureCurveCommand</title>
<polygon fill="none" stroke="black" stroke-width="0.5" points="1882,-201.5 1598,-201.5 1598,-180.5 1882,-180.5 1882,-201.5"/>
<text text-anchor="middle" x="1740" y="-188.5" font-family="Vera" font-size="10.00">topo.analysis.featureresponses.FeatureCurveCommand</text>
</g>
<!-- topo.analysis.featureresponses.SinusoidalMeasureResponseCommand&#45;&gt;topo.analysis.featureresponses.FeatureCurveCommand -->
<g id="edge10" class="edge"><title>topo.analysis.featureresponses.SinusoidalMeasureResponseCommand&#45;&gt;topo.analysis.featureresponses.FeatureCurveCommand</title>
<path fill="none" stroke="black" stroke-width="0.5" d="M1562,-191C1572.21,-191 1582.43,-191 1592.51,-191"/>
<polygon fill="black" stroke="black" points="1592.76,-192.75 1597.76,-191 1592.76,-189.25 1592.76,-192.75"/>
</g>
<!-- topo.analysis.featureresponses.MeasureResponseCommand -->
<g id="node10" class="node"><title>topo.analysis.featureresponses.MeasureResponseCommand</title>
<polygon fill="none" stroke="black" stroke-width="0.5" points="1169,-163.5 863,-163.5 863,-142.5 1169,-142.5 1169,-163.5"/>
<text text-anchor="middle" x="1016" y="-150.5" font-family="Vera" font-size="10.00">topo.analysis.featureresponses.MeasureResponseCommand</text>
</g>
<!-- topo.analysis.featureresponses.MeasureResponseCommand&#45;&gt;topo.analysis.featureresponses.SinusoidalMeasureResponseCommand -->
<g id="edge8" class="edge"><title>topo.analysis.featureresponses.MeasureResponseCommand&#45;&gt;topo.analysis.featureresponses.SinusoidalMeasureResponseCommand</title>
<path fill="none" stroke="black" stroke-width="0.5" d="M1113.17,-163.034C1165.15,-168.402 1229.14,-175.009 1281.86,-180.453"/>
<polygon fill="black" stroke="black" points="1281.77,-182.203 1286.93,-180.976 1282.13,-178.722 1281.77,-182.203"/>
</g>
<!-- topo.analysis.featureresponses.PositionMeasurementCommand -->
<g id="node23" class="node"><title>topo.analysis.featureresponses.PositionMeasurementCommand</title>
<polygon fill="none" stroke="black" stroke-width="0.5" points="1546,-163.5 1222,-163.5 1222,-142.5 1546,-142.5 1546,-163.5"/>
<text text-anchor="middle" x="1384" y="-150.5" font-family="Vera" font-size="10.00">topo.analysis.featureresponses.PositionMeasurementCommand</text>
</g>
<!-- topo.analysis.featureresponses.MeasureResponseCommand&#45;&gt;topo.analysis.featureresponses.PositionMeasurementCommand -->
<g id="edge22" class="edge"><title>topo.analysis.featureresponses.MeasureResponseCommand&#45;&gt;topo.analysis.featureresponses.PositionMeasurementCommand</title>
<path fill="none" stroke="black" stroke-width="0.5" d="M1169.67,-153C1185.16,-153 1200.95,-153 1216.58,-153"/>
<polygon fill="black" stroke="black" points="1216.87,-154.75 1221.87,-153 1216.87,-151.25 1216.87,-154.75"/>
</g>
<!-- topo.analysis.featureresponses.SingleInputResponseCommand -->
<g id="node29" class="node"><title>topo.analysis.featureresponses.SingleInputResponseCommand</title>
<polygon fill="none" stroke="black" stroke-width="0.5" points="1543,-125.5 1225,-125.5 1225,-104.5 1543,-104.5 1543,-125.5"/>
<text text-anchor="middle" x="1384" y="-112.5" font-family="Vera" font-size="10.00">topo.analysis.featureresponses.SingleInputResponseCommand</text>
</g>
<!-- topo.analysis.featureresponses.MeasureResponseCommand&#45;&gt;topo.analysis.featureresponses.SingleInputResponseCommand -->
<g id="edge28" class="edge"><title>topo.analysis.featureresponses.MeasureResponseCommand&#45;&gt;topo.analysis.featureresponses.SingleInputResponseCommand</title>
<path fill="none" stroke="black" stroke-width="0.5" d="M1113.17,-142.966C1165.15,-137.598 1229.14,-130.991 1281.86,-125.547"/>
<polygon fill="black" stroke="black" points="1282.13,-127.278 1286.93,-125.024 1281.77,-123.797 1282.13,-127.278"/>
</g>
<!-- topo.analysis.featureresponses.UnitCurveCommand -->
<g id="node33" class="node"><title>topo.analysis.featureresponses.UnitCurveCommand</title>
<polygon fill="none" stroke="black" stroke-width="0.5" points="2185,-201.5 1919,-201.5 1919,-180.5 2185,-180.5 2185,-201.5"/>
<text text-anchor="middle" x="2052" y="-188.5" font-family="Vera" font-size="10.00">topo.analysis.featureresponses.UnitCurveCommand</text>
</g>
<!-- topo.analysis.featureresponses.FeatureCurveCommand&#45;&gt;topo.analysis.featureresponses.UnitCurveCommand -->
<g id="edge32" class="edge"><title>topo.analysis.featureresponses.FeatureCurveCommand&#45;&gt;topo.analysis.featureresponses.UnitCurveCommand</title>
<path fill="none" stroke="black" stroke-width="0.5" d="M1882.3,-191C1892.43,-191 1902.64,-191 1912.75,-191"/>
<polygon fill="black" stroke="black" points="1913.03,-192.75 1918.03,-191 1913.03,-189.25 1913.03,-192.75"/>
</g>
<!-- topo.analysis.featureresponses.PatternPresentingCommand -->
<g id="node25" class="node"><title>topo.analysis.featureresponses.PatternPresentingCommand</title>
<polygon fill="none" stroke="black" stroke-width="0.5" points="825,-163.5 521,-163.5 521,-142.5 825,-142.5 825,-163.5"/>
<text text-anchor="middle" x="673" y="-150.5" font-family="Vera" font-size="10.00">topo.analysis.featureresponses.PatternPresentingCommand</text>
</g>
<!-- param.parameterized.ParameterizedFunction&#45;&gt;topo.analysis.featureresponses.PatternPresentingCommand -->
<g id="edge24" class="edge"><title>param.parameterized.ParameterizedFunction&#45;&gt;topo.analysis.featureresponses.PatternPresentingCommand</title>
<path fill="none" stroke="black" stroke-width="0.5" d="M474.218,-158.662C487.593,-158.281 501.386,-157.888 515.178,-157.495"/>
<polygon fill="black" stroke="black" points="515.311,-159.242 520.259,-157.35 515.211,-155.743 515.311,-159.242"/>
</g>
<!-- topo.analysis.featureresponses.PatternPresentingCommand&#45;&gt;topo.analysis.featureresponses.MeasureResponseCommand -->
<g id="edge34" class="edge"><title>topo.analysis.featureresponses.PatternPresentingCommand&#45;&gt;topo.analysis.featureresponses.MeasureResponseCommand</title>
<path fill="none" stroke="black" stroke-width="0.5" d="M825.942,-153C836.305,-153 846.759,-153 857.151,-153"/>
<polygon fill="black" stroke="black" points="857.247,-154.75 862.247,-153 857.247,-151.25 857.247,-154.75"/>
</g>
<!-- topo.analysis.featureresponses.measure_response -->
<g id="node31" class="node"><title>topo.analysis.featureresponses.measure_response</title>
<polygon fill="none" stroke="black" stroke-width="0.5" points="1147,-125.5 885,-125.5 885,-104.5 1147,-104.5 1147,-125.5"/>
<text text-anchor="middle" x="1016" y="-112.5" font-family="Vera" font-size="10.00">topo.analysis.featureresponses.measure_response</text>
</g>
<!-- topo.analysis.featureresponses.PatternPresentingCommand&#45;&gt;topo.analysis.featureresponses.measure_response -->
<g id="edge30" class="edge"><title>topo.analysis.featureresponses.PatternPresentingCommand&#45;&gt;topo.analysis.featureresponses.measure_response</title>
<path fill="none" stroke="black" stroke-width="0.5" d="M763.568,-142.966C811.924,-137.609 871.418,-131.018 920.5,-125.58"/>
<polygon fill="black" stroke="black" points="920.743,-127.314 925.52,-125.024 920.357,-123.835 920.743,-127.314"/>
</g>
</g>
</svg>
