<?xml version="1.0" encoding="UTF-8" standalone="no"?>
<!DOCTYPE svg PUBLIC "-//W3C//DTD SVG 1.1//EN"
 "http://www.w3.org/Graphics/SVG/1.1/DTD/svg11.dtd">
<!-- Generated by graphviz version 2.26.3 (20100126.1600)
 -->
<!-- Title: inheritance0bce68b9cf Pages: 1 -->
<svg width="1872pt" height="427pt"
 viewBox="0.00 0.00 1872.00 427.00" xmlns="http://www.w3.org/2000/svg" xmlns:xlink="http://www.w3.org/1999/xlink">
<g id="graph1" class="graph" transform="scale(1 1) rotate(0) translate(4 423)">
<title>inheritance0bce68b9cf</title>
<polygon fill="white" stroke="white" points="-4,5 -4,-423 1869,-423 1869,5 -4,5"/>
<!-- topo.command.analysis.measure_hue_pref -->
<g id="node1" class="node"><title>topo.command.analysis.measure_hue_pref</title>
<polygon fill="none" stroke="black" stroke-width="0.5" points="1841,-419.5 1617,-419.5 1617,-398.5 1841,-398.5 1841,-419.5"/>
<text text-anchor="middle" x="1729" y="-406.5" font-family="Vera" font-size="10.00">topo.command.analysis.measure_hue_pref</text>
</g>
<!-- topo.analysis.featureresponses.SinusoidalMeasureResponseCommand -->
<g id="node2" class="node"><title>topo.analysis.featureresponses.SinusoidalMeasureResponseCommand</title>
<polygon fill="none" stroke="black" stroke-width="0.5" points="1558,-267.5 1202,-267.5 1202,-246.5 1558,-246.5 1558,-267.5"/>
<text text-anchor="middle" x="1380" y="-254.5" font-family="Vera" font-size="10.00">topo.analysis.featureresponses.SinusoidalMeasureResponseCommand</text>
</g>
<!-- topo.analysis.featureresponses.SinusoidalMeasureResponseCommand&#45;&gt;topo.command.analysis.measure_hue_pref -->
<g id="edge2" class="edge"><title>topo.analysis.featureresponses.SinusoidalMeasureResponseCommand&#45;&gt;topo.command.analysis.measure_hue_pref</title>
<path fill="none" stroke="black" stroke-width="0.5" d="M1545.06,-267.013C1549.58,-269.67 1553.91,-272.655 1558,-276 1599.13,-309.642 1553.44,-355.675 1594,-390 1599.58,-394.721 1605.77,-398.58 1612.36,-401.715"/>
<polygon fill="black" stroke="black" points="1611.7,-403.336 1616.98,-403.772 1613.12,-400.139 1611.7,-403.336"/>
</g>
<!-- topo.command.analysis.measure_sine_pref -->
<g id="node7" class="node"><title>topo.command.analysis.measure_sine_pref</title>
<polygon fill="none" stroke="black" stroke-width="0.5" points="1842,-381.5 1616,-381.5 1616,-360.5 1842,-360.5 1842,-381.5"/>
<text text-anchor="middle" x="1729" y="-368.5" font-family="Vera" font-size="10.00">topo.command.analysis.measure_sine_pref</text>
</g>
<!-- topo.analysis.featureresponses.SinusoidalMeasureResponseCommand&#45;&gt;topo.command.analysis.measure_sine_pref -->
<g id="edge6" class="edge"><title>topo.analysis.featureresponses.SinusoidalMeasureResponseCommand&#45;&gt;topo.command.analysis.measure_sine_pref</title>
<path fill="none" stroke="black" stroke-width="0.5" d="M1543.24,-267.123C1548.37,-269.725 1553.31,-272.672 1558,-276 1588.48,-297.637 1563.89,-329.856 1594,-352 1599.32,-355.911 1605.08,-359.195 1611.12,-361.943"/>
<polygon fill="black" stroke="black" points="1610.52,-363.586 1615.8,-363.941 1611.89,-360.367 1610.52,-363.586"/>
</g>
<!-- topo.command.analysis.measure_or_pref -->
<g id="node12" class="node"><title>topo.command.analysis.measure_or_pref</title>
<polygon fill="none" stroke="black" stroke-width="0.5" points="1837,-343.5 1621,-343.5 1621,-322.5 1837,-322.5 1837,-343.5"/>
<text text-anchor="middle" x="1729" y="-330.5" font-family="Vera" font-size="10.00">topo.command.analysis.measure_or_pref</text>
</g>
<!-- topo.analysis.featureresponses.SinusoidalMeasureResponseCommand&#45;&gt;topo.command.analysis.measure_or_pref -->
<g id="edge10" class="edge"><title>topo.analysis.featureresponses.SinusoidalMeasureResponseCommand&#45;&gt;topo.command.analysis.measure_or_pref</title>
<path fill="none" stroke="black" stroke-width="0.5" d="M1536.23,-267.077C1543.73,-269.602 1551.04,-272.555 1558,-276 1578.85,-286.315 1573.32,-303.337 1594,-314 1600.97,-317.593 1608.39,-320.575 1616.04,-323.043"/>
<polygon fill="black" stroke="black" points="1615.54,-324.718 1620.83,-324.514 1616.56,-321.373 1615.54,-324.718"/>
</g>
<!-- topo.command.analysis.measure_od_pref -->
<g id="node28" class="node"><title>topo.command.analysis.measure_od_pref</title>
<polygon fill="none" stroke="black" stroke-width="0.5" points="1838,-305.5 1620,-305.5 1620,-284.5 1838,-284.5 1838,-305.5"/>
<text text-anchor="middle" x="1729" y="-292.5" font-family="Vera" font-size="10.00">topo.command.analysis.measure_od_pref</text>
</g>
<!-- topo.analysis.featureresponses.SinusoidalMeasureResponseCommand&#45;&gt;topo.command.analysis.measure_od_pref -->
<g id="edge24" class="edge"><title>topo.analysis.featureresponses.SinusoidalMeasureResponseCommand&#45;&gt;topo.command.analysis.measure_od_pref</title>
<path fill="none" stroke="black" stroke-width="0.5" d="M1474.7,-267.031C1501.62,-269.904 1530.97,-273.055 1558,-276 1582.67,-278.688 1609.34,-281.632 1634.12,-284.384"/>
<polygon fill="black" stroke="black" points="1634.21,-286.155 1639.37,-284.968 1634.6,-282.676 1634.21,-286.155"/>
</g>
<!-- topo.command.analysis.measure_phasedisparity -->
<g id="node36" class="node"><title>topo.command.analysis.measure_phasedisparity</title>
<polygon fill="none" stroke="black" stroke-width="0.5" points="1855,-267.5 1603,-267.5 1603,-246.5 1855,-246.5 1855,-267.5"/>
<text text-anchor="middle" x="1729" y="-254.5" font-family="Vera" font-size="10.00">topo.command.analysis.measure_phasedisparity</text>
</g>
<!-- topo.analysis.featureresponses.SinusoidalMeasureResponseCommand&#45;&gt;topo.command.analysis.measure_phasedisparity -->
<g id="edge32" class="edge"><title>topo.analysis.featureresponses.SinusoidalMeasureResponseCommand&#45;&gt;topo.command.analysis.measure_phasedisparity</title>
<path fill="none" stroke="black" stroke-width="0.5" d="M1558.08,-257C1571.43,-257 1584.75,-257 1597.74,-257"/>
<polygon fill="black" stroke="black" points="1597.89,-258.75 1602.89,-257 1597.89,-255.25 1597.89,-258.75"/>
</g>
<!-- topo.command.analysis.measure_second_or_pref -->
<g id="node38" class="node"><title>topo.command.analysis.measure_second_or_pref</title>
<polygon fill="none" stroke="black" stroke-width="0.5" points="1857,-229.5 1601,-229.5 1601,-208.5 1857,-208.5 1857,-229.5"/>
<text text-anchor="middle" x="1729" y="-216.5" font-family="Vera" font-size="10.00">topo.command.analysis.measure_second_or_pref</text>
</g>
<!-- topo.analysis.featureresponses.SinusoidalMeasureResponseCommand&#45;&gt;topo.command.analysis.measure_second_or_pref -->
<g id="edge34" class="edge"><title>topo.analysis.featureresponses.SinusoidalMeasureResponseCommand&#45;&gt;topo.command.analysis.measure_second_or_pref</title>
<path fill="none" stroke="black" stroke-width="0.5" d="M1472.15,-246.966C1521.35,-241.609 1581.89,-235.018 1631.83,-229.58"/>
<polygon fill="black" stroke="black" points="1632.16,-231.305 1636.94,-229.024 1631.78,-227.826 1632.16,-231.305"/>
</g>
<!-- topo.command.analysis.measure_dr_pref -->
<g id="node50" class="node"><title>topo.command.analysis.measure_dr_pref</title>
<polygon fill="none" stroke="black" stroke-width="0.5" points="1837,-191.5 1621,-191.5 1621,-170.5 1837,-170.5 1837,-191.5"/>
<text text-anchor="middle" x="1729" y="-178.5" font-family="Vera" font-size="10.00">topo.command.analysis.measure_dr_pref</text>
</g>
<!-- topo.analysis.featureresponses.SinusoidalMeasureResponseCommand&#45;&gt;topo.command.analysis.measure_dr_pref -->
<g id="edge48" class="edge"><title>topo.analysis.featureresponses.SinusoidalMeasureResponseCommand&#45;&gt;topo.command.analysis.measure_dr_pref</title>
<path fill="none" stroke="black" stroke-width="0.5" d="M1412.7,-246.97C1454.43,-234.479 1529,-213.181 1594,-200 1609.11,-196.936 1625.27,-194.201 1640.97,-191.827"/>
<polygon fill="black" stroke="black" points="1641.59,-193.504 1646.27,-191.035 1641.07,-190.042 1641.59,-193.504"/>
</g>
<!-- topo.command.analysis.frequency_mapper -->
<g id="node4" class="node"><title>topo.command.analysis.frequency_mapper</title>
<polygon fill="none" stroke="black" stroke-width="0.5" points="773,-343.5 549,-343.5 549,-322.5 773,-322.5 773,-343.5"/>
<text text-anchor="middle" x="661" y="-330.5" font-family="Vera" font-size="10.00">topo.command.analysis.frequency_mapper</text>
</g>
<!-- imagen.patterngenerator.PatternGenerator -->
<g id="node5" class="node"><title>imagen.patterngenerator.PatternGenerator</title>
<polygon fill="none" stroke="black" stroke-width="0.5" points="459,-286.5 235,-286.5 235,-265.5 459,-265.5 459,-286.5"/>
<text text-anchor="middle" x="347" y="-273.5" font-family="Vera" font-size="10.00">imagen.patterngenerator.PatternGenerator</text>
</g>
<!-- imagen.patterngenerator.PatternGenerator&#45;&gt;topo.command.analysis.frequency_mapper -->
<g id="edge4" class="edge"><title>imagen.patterngenerator.PatternGenerator&#45;&gt;topo.command.analysis.frequency_mapper</title>
<path fill="none" stroke="black" stroke-width="0.5" d="M381.973,-286.022C412.809,-294.537 459.074,-306.533 500,-314 517.463,-317.186 536.094,-319.955 554.257,-322.32"/>
<polygon fill="black" stroke="black" points="554.184,-324.075 559.366,-322.976 554.63,-320.603 554.184,-324.075"/>
</g>
<!-- topo.command.analysis.latency_mapper -->
<g id="node26" class="node"><title>topo.command.analysis.latency_mapper</title>
<polygon fill="none" stroke="black" stroke-width="0.5" points="767,-305.5 555,-305.5 555,-284.5 767,-284.5 767,-305.5"/>
<text text-anchor="middle" x="661" y="-292.5" font-family="Vera" font-size="10.00">topo.command.analysis.latency_mapper</text>
</g>
<!-- imagen.patterngenerator.PatternGenerator&#45;&gt;topo.command.analysis.latency_mapper -->
<g id="edge22" class="edge"><title>imagen.patterngenerator.PatternGenerator&#45;&gt;topo.command.analysis.latency_mapper</title>
<path fill="none" stroke="black" stroke-width="0.5" d="M459.031,-282.779C488.501,-284.562 520.279,-286.485 549.709,-288.266"/>
<polygon fill="black" stroke="black" points="549.696,-290.018 554.792,-288.573 549.907,-286.525 549.696,-290.018"/>
</g>
<!-- topo.command.analysis.log_frequency_mapper -->
<g id="node42" class="node"><title>topo.command.analysis.log_frequency_mapper</title>
<polygon fill="none" stroke="black" stroke-width="0.5" points="783,-267.5 539,-267.5 539,-246.5 783,-246.5 783,-267.5"/>
<text text-anchor="middle" x="661" y="-254.5" font-family="Vera" font-size="10.00">topo.command.analysis.log_frequency_mapper</text>
</g>
<!-- imagen.patterngenerator.PatternGenerator&#45;&gt;topo.command.analysis.log_frequency_mapper -->
<g id="edge38" class="edge"><title>imagen.patterngenerator.PatternGenerator&#45;&gt;topo.command.analysis.log_frequency_mapper</title>
<path fill="none" stroke="black" stroke-width="0.5" d="M459.031,-269.221C483.203,-267.758 508.927,-266.202 533.635,-264.707"/>
<polygon fill="black" stroke="black" points="534.006,-266.438 538.891,-264.389 533.794,-262.944 534.006,-266.438"/>
</g>
<!-- topo.plotting.plotgroup.UnitMeasurementCommand -->
<g id="node9" class="node"><title>topo.plotting.plotgroup.UnitMeasurementCommand</title>
<polygon fill="none" stroke="black" stroke-width="0.5" points="1145,-305.5 879,-305.5 879,-284.5 1145,-284.5 1145,-305.5"/>
<text text-anchor="middle" x="1012" y="-292.5" font-family="Vera" font-size="10.00">topo.plotting.plotgroup.UnitMeasurementCommand</text>
</g>
<!-- topo.command.analysis.update_projection -->
<g id="node44" class="node"><title>topo.command.analysis.update_projection</title>
<polygon fill="none" stroke="black" stroke-width="0.5" points="1490,-343.5 1270,-343.5 1270,-322.5 1490,-322.5 1490,-343.5"/>
<text text-anchor="middle" x="1380" y="-330.5" font-family="Vera" font-size="10.00">topo.command.analysis.update_projection</text>
</g>
<!-- topo.plotting.plotgroup.UnitMeasurementCommand&#45;&gt;topo.command.analysis.update_projection -->
<g id="edge40" class="edge"><title>topo.plotting.plotgroup.UnitMeasurementCommand&#45;&gt;topo.command.analysis.update_projection</title>
<path fill="none" stroke="black" stroke-width="0.5" d="M1109.17,-305.034C1161.15,-310.402 1225.14,-317.009 1277.86,-322.453"/>
<polygon fill="black" stroke="black" points="1277.77,-324.203 1282.93,-322.976 1278.13,-320.722 1277.77,-324.203"/>
</g>
<!-- topo.command.analysis.update_connectionfields -->
<g id="node47" class="node"><title>topo.command.analysis.update_connectionfields</title>
<polygon fill="none" stroke="black" stroke-width="0.5" points="1505,-305.5 1255,-305.5 1255,-284.5 1505,-284.5 1505,-305.5"/>
<text text-anchor="middle" x="1380" y="-292.5" font-family="Vera" font-size="10.00">topo.command.analysis.update_connectionfields</text>
</g>
<!-- topo.plotting.plotgroup.UnitMeasurementCommand&#45;&gt;topo.command.analysis.update_connectionfields -->
<g id="edge44" class="edge"><title>topo.plotting.plotgroup.UnitMeasurementCommand&#45;&gt;topo.command.analysis.update_connectionfields</title>
<path fill="none" stroke="black" stroke-width="0.5" d="M1145.12,-295C1178.91,-295 1215.19,-295 1248.88,-295"/>
<polygon fill="black" stroke="black" points="1249.27,-296.75 1254.27,-295 1249.27,-293.25 1249.27,-296.75"/>
</g>
<!-- topo.plotting.plotgroup.ProjectionSheetMeasurementCommand -->
<g id="node10" class="node"><title>topo.plotting.plotgroup.ProjectionSheetMeasurementCommand</title>
<polygon fill="none" stroke="black" stroke-width="0.5" points="822,-229.5 500,-229.5 500,-208.5 822,-208.5 822,-229.5"/>
<text text-anchor="middle" x="661" y="-216.5" font-family="Vera" font-size="10.00">topo.plotting.plotgroup.ProjectionSheetMeasurementCommand</text>
</g>
<!-- topo.plotting.plotgroup.ProjectionSheetMeasurementCommand&#45;&gt;topo.plotting.plotgroup.UnitMeasurementCommand -->
<g id="edge8" class="edge"><title>topo.plotting.plotgroup.ProjectionSheetMeasurementCommand&#45;&gt;topo.plotting.plotgroup.UnitMeasurementCommand</title>
<path fill="none" stroke="black" stroke-width="0.5" d="M768.375,-229.034C786.365,-231.468 804.776,-234.428 822,-238 878.154,-249.644 941.648,-270.258 979.172,-283.245"/>
<polygon fill="black" stroke="black" points="978.769,-284.958 984.066,-284.947 979.918,-281.652 978.769,-284.958"/>
</g>
<!-- topo.command.analysis.update_projectionactivity -->
<g id="node17" class="node"><title>topo.command.analysis.update_projectionactivity</title>
<polygon fill="none" stroke="black" stroke-width="0.5" points="1139,-229.5 885,-229.5 885,-208.5 1139,-208.5 1139,-229.5"/>
<text text-anchor="middle" x="1012" y="-216.5" font-family="Vera" font-size="10.00">topo.command.analysis.update_projectionactivity</text>
</g>
<!-- topo.plotting.plotgroup.ProjectionSheetMeasurementCommand&#45;&gt;topo.command.analysis.update_projectionactivity -->
<g id="edge14" class="edge"><title>topo.plotting.plotgroup.ProjectionSheetMeasurementCommand&#45;&gt;topo.command.analysis.update_projectionactivity</title>
<path fill="none" stroke="black" stroke-width="0.5" d="M822.118,-219C841.391,-219 860.898,-219 879.699,-219"/>
<polygon fill="black" stroke="black" points="879.982,-220.75 884.982,-219 879.982,-217.25 879.982,-220.75"/>
</g>
<!-- topo.analysis.featureresponses.MeasureResponseCommand -->
<g id="node14" class="node"><title>topo.analysis.featureresponses.MeasureResponseCommand</title>
<polygon fill="none" stroke="black" stroke-width="0.5" points="1165,-134.5 859,-134.5 859,-113.5 1165,-113.5 1165,-134.5"/>
<text text-anchor="middle" x="1012" y="-121.5" font-family="Vera" font-size="10.00">topo.analysis.featureresponses.MeasureResponseCommand</text>
</g>
<!-- topo.analysis.featureresponses.MeasureResponseCommand&#45;&gt;topo.analysis.featureresponses.SinusoidalMeasureResponseCommand -->
<g id="edge12" class="edge"><title>topo.analysis.featureresponses.MeasureResponseCommand&#45;&gt;topo.analysis.featureresponses.SinusoidalMeasureResponseCommand</title>
<path fill="none" stroke="black" stroke-width="0.5" d="M1039.96,-134.106C1106.79,-158.259 1275.53,-219.244 1347.1,-245.109"/>
<polygon fill="black" stroke="black" points="1346.78,-246.856 1352.08,-246.91 1347.97,-243.564 1346.78,-246.856"/>
</g>
<!-- topo.analysis.featureresponses.PositionMeasurementCommand -->
<g id="node20" class="node"><title>topo.analysis.featureresponses.PositionMeasurementCommand</title>
<polygon fill="none" stroke="black" stroke-width="0.5" points="1542,-172.5 1218,-172.5 1218,-151.5 1542,-151.5 1542,-172.5"/>
<text text-anchor="middle" x="1380" y="-159.5" font-family="Vera" font-size="10.00">topo.analysis.featureresponses.PositionMeasurementCommand</text>
</g>
<!-- topo.analysis.featureresponses.MeasureResponseCommand&#45;&gt;topo.analysis.featureresponses.PositionMeasurementCommand -->
<g id="edge46" class="edge"><title>topo.analysis.featureresponses.MeasureResponseCommand&#45;&gt;topo.analysis.featureresponses.PositionMeasurementCommand</title>
<path fill="none" stroke="black" stroke-width="0.5" d="M1109.17,-134.034C1161.15,-139.402 1225.14,-146.009 1277.86,-151.453"/>
<polygon fill="black" stroke="black" points="1277.77,-153.203 1282.93,-151.976 1278.13,-149.722 1277.77,-153.203"/>
</g>
<!-- topo.command.analysis.measure_log_frequency_preference -->
<g id="node32" class="node"><title>topo.command.analysis.measure_log_frequency_preference</title>
<polygon fill="none" stroke="black" stroke-width="0.5" points="1533,-134.5 1227,-134.5 1227,-113.5 1533,-113.5 1533,-134.5"/>
<text text-anchor="middle" x="1380" y="-121.5" font-family="Vera" font-size="10.00">topo.command.analysis.measure_log_frequency_preference</text>
</g>
<!-- topo.analysis.featureresponses.MeasureResponseCommand&#45;&gt;topo.command.analysis.measure_log_frequency_preference -->
<g id="edge28" class="edge"><title>topo.analysis.featureresponses.MeasureResponseCommand&#45;&gt;topo.command.analysis.measure_log_frequency_preference</title>
<path fill="none" stroke="black" stroke-width="0.5" d="M1165.67,-124C1184.13,-124 1203.02,-124 1221.55,-124"/>
<polygon fill="black" stroke="black" points="1221.77,-125.75 1226.77,-124 1221.77,-122.25 1221.77,-125.75"/>
</g>
<!-- topo.command.analysis.measure_latency_preference -->
<g id="node40" class="node"><title>topo.command.analysis.measure_latency_preference</title>
<polygon fill="none" stroke="black" stroke-width="0.5" points="1517,-96.5 1243,-96.5 1243,-75.5 1517,-75.5 1517,-96.5"/>
<text text-anchor="middle" x="1380" y="-83.5" font-family="Vera" font-size="10.00">topo.command.analysis.measure_latency_preference</text>
</g>
<!-- topo.analysis.featureresponses.MeasureResponseCommand&#45;&gt;topo.command.analysis.measure_latency_preference -->
<g id="edge36" class="edge"><title>topo.analysis.featureresponses.MeasureResponseCommand&#45;&gt;topo.command.analysis.measure_latency_preference</title>
<path fill="none" stroke="black" stroke-width="0.5" d="M1109.17,-113.966C1161.15,-108.598 1225.14,-101.991 1277.86,-96.5472"/>
<polygon fill="black" stroke="black" points="1278.13,-98.2785 1282.93,-96.024 1277.77,-94.797 1278.13,-98.2785"/>
</g>
<!-- topo.analysis.featureresponses.SingleInputResponseCommand -->
<g id="node53" class="node"><title>topo.analysis.featureresponses.SingleInputResponseCommand</title>
<polygon fill="none" stroke="black" stroke-width="0.5" points="1539,-58.5 1221,-58.5 1221,-37.5 1539,-37.5 1539,-58.5"/>
<text text-anchor="middle" x="1380" y="-45.5" font-family="Vera" font-size="10.00">topo.analysis.featureresponses.SingleInputResponseCommand</text>
</g>
<!-- topo.analysis.featureresponses.MeasureResponseCommand&#45;&gt;topo.analysis.featureresponses.SingleInputResponseCommand -->
<g id="edge56" class="edge"><title>topo.analysis.featureresponses.MeasureResponseCommand&#45;&gt;topo.analysis.featureresponses.SingleInputResponseCommand</title>
<path fill="none" stroke="black" stroke-width="0.5" d="M1039.6,-113.958C1076.21,-101.045 1143.09,-78.8742 1202,-67 1218.29,-63.7166 1235.54,-60.976 1252.64,-58.6945"/>
<polygon fill="black" stroke="black" points="1253.21,-60.385 1257.94,-58.0011 1252.75,-56.9146 1253.21,-60.385"/>
</g>
<!-- topo.command.analysis.measure_frequency_preference -->
<g id="node55" class="node"><title>topo.command.analysis.measure_frequency_preference</title>
<polygon fill="none" stroke="black" stroke-width="0.5" points="1523,-20.5 1237,-20.5 1237,0.5 1523,0.5 1523,-20.5"/>
<text text-anchor="middle" x="1380" y="-7.5" font-family="Vera" font-size="10.00">topo.command.analysis.measure_frequency_preference</text>
</g>
<!-- topo.analysis.featureresponses.MeasureResponseCommand&#45;&gt;topo.command.analysis.measure_frequency_preference -->
<g id="edge52" class="edge"><title>topo.analysis.featureresponses.MeasureResponseCommand&#45;&gt;topo.command.analysis.measure_frequency_preference</title>
<path fill="none" stroke="black" stroke-width="0.5" d="M1027.47,-113.833C1058.87,-93.7561 1132.99,-49.219 1202,-29 1212.83,-25.8271 1224.17,-23.1721 1235.65,-20.9518"/>
<polygon fill="black" stroke="black" points="1235.99,-22.6688 1240.59,-20.0266 1235.35,-19.2289 1235.99,-22.6688"/>
</g>
<!-- param.parameterized.Parameterized -->
<g id="node16" class="node"><title>param.parameterized.Parameterized</title>
<polygon fill="none" stroke="black" stroke-width="0.5" points="194,-243.5 5.68434e-14,-243.5 0,-222.5 194,-222.5 194,-243.5"/>
<text text-anchor="middle" x="97" y="-230.5" font-family="Vera" font-size="10.00">param.parameterized.Parameterized</text>
</g>
<!-- param.parameterized.Parameterized&#45;&gt;imagen.patterngenerator.PatternGenerator -->
<g id="edge60" class="edge"><title>param.parameterized.Parameterized&#45;&gt;imagen.patterngenerator.PatternGenerator</title>
<path fill="none" stroke="black" stroke-width="0.5" d="M155.298,-243.027C193.686,-249.63 243.942,-258.274 283.367,-265.055"/>
<polygon fill="black" stroke="black" points="283.385,-266.834 288.609,-265.957 283.978,-263.384 283.385,-266.834"/>
</g>
<!-- topo.command.analysis.PatternPresenter2 -->
<g id="node22" class="node"><title>topo.command.analysis.PatternPresenter2</title>
<polygon fill="none" stroke="black" stroke-width="0.5" points="457,-243.5 237,-243.5 237,-222.5 457,-222.5 457,-243.5"/>
<text text-anchor="middle" x="347" y="-230.5" font-family="Vera" font-size="10.00">topo.command.analysis.PatternPresenter2</text>
</g>
<!-- param.parameterized.Parameterized&#45;&gt;topo.command.analysis.PatternPresenter2 -->
<g id="edge18" class="edge"><title>param.parameterized.Parameterized&#45;&gt;topo.command.analysis.PatternPresenter2</title>
<path fill="none" stroke="black" stroke-width="0.5" d="M194.014,-233C206.144,-233 218.644,-233 231.026,-233"/>
<polygon fill="black" stroke="black" points="231.324,-234.75 236.324,-233 231.324,-231.25 231.324,-234.75"/>
</g>
<!-- param.parameterized.ParameterizedFunction -->
<g id="node24" class="node"><title>param.parameterized.ParameterizedFunction</title>
<polygon fill="none" stroke="black" stroke-width="0.5" points="464,-196.5 230,-196.5 230,-175.5 464,-175.5 464,-196.5"/>
<text text-anchor="middle" x="347" y="-183.5" font-family="Vera" font-size="10.00">param.parameterized.ParameterizedFunction</text>
</g>
<!-- param.parameterized.Parameterized&#45;&gt;param.parameterized.ParameterizedFunction -->
<g id="edge20" class="edge"><title>param.parameterized.Parameterized&#45;&gt;param.parameterized.ParameterizedFunction</title>
<path fill="none" stroke="black" stroke-width="0.5" d="M150.325,-222.975C190.976,-215.333 246.903,-204.818 288.728,-196.955"/>
<polygon fill="black" stroke="black" points="289.167,-198.653 293.757,-196.01 288.52,-195.214 289.167,-198.653"/>
</g>
<!-- topo.command.analysis.measure_corner_angle_pref -->
<g id="node19" class="node"><title>topo.command.analysis.measure_corner_angle_pref</title>
<polygon fill="none" stroke="black" stroke-width="0.5" points="1863,-153.5 1595,-153.5 1595,-132.5 1863,-132.5 1863,-153.5"/>
<text text-anchor="middle" x="1729" y="-140.5" font-family="Vera" font-size="10.00">topo.command.analysis.measure_corner_angle_pref</text>
</g>
<!-- topo.analysis.featureresponses.PositionMeasurementCommand&#45;&gt;topo.command.analysis.measure_corner_angle_pref -->
<g id="edge16" class="edge"><title>topo.analysis.featureresponses.PositionMeasurementCommand&#45;&gt;topo.command.analysis.measure_corner_angle_pref</title>
<path fill="none" stroke="black" stroke-width="0.5" d="M1542.24,-153.167C1557.91,-152.314 1573.72,-151.454 1589.15,-150.614"/>
<polygon fill="black" stroke="black" points="1589.47,-152.349 1594.36,-150.33 1589.28,-148.854 1589.47,-152.349"/>
</g>
<!-- topo.command.analysis.measure_corner_or_pref -->
<g id="node30" class="node"><title>topo.command.analysis.measure_corner_or_pref</title>
<polygon fill="none" stroke="black" stroke-width="0.5" points="1855,-115.5 1603,-115.5 1603,-94.5 1855,-94.5 1855,-115.5"/>
<text text-anchor="middle" x="1729" y="-102.5" font-family="Vera" font-size="10.00">topo.command.analysis.measure_corner_or_pref</text>
</g>
<!-- topo.analysis.featureresponses.PositionMeasurementCommand&#45;&gt;topo.command.analysis.measure_corner_or_pref -->
<g id="edge26" class="edge"><title>topo.analysis.featureresponses.PositionMeasurementCommand&#45;&gt;topo.command.analysis.measure_corner_or_pref</title>
<path fill="none" stroke="black" stroke-width="0.5" d="M1520.93,-151.991C1533.59,-149.583 1546.11,-146.626 1558,-143 1575.3,-137.723 1576.79,-129.566 1594,-124 1603.68,-120.871 1613.91,-118.257 1624.24,-116.074"/>
<polygon fill="black" stroke="black" points="1624.76,-117.752 1629.31,-115.036 1624.06,-114.323 1624.76,-117.752"/>
</g>
<!-- param.parameterized.ParameterizedFunction&#45;&gt;topo.plotting.plotgroup.ProjectionSheetMeasurementCommand -->
<g id="edge42" class="edge"><title>param.parameterized.ParameterizedFunction&#45;&gt;topo.plotting.plotgroup.ProjectionSheetMeasurementCommand</title>
<path fill="none" stroke="black" stroke-width="0.5" d="M442.489,-196.035C479.874,-199.964 522.786,-204.474 560.629,-208.451"/>
<polygon fill="black" stroke="black" points="560.539,-210.202 565.695,-208.984 560.905,-206.721 560.539,-210.202"/>
</g>
<!-- topo.analysis.featureresponses.PatternPresentingCommand -->
<g id="node34" class="node"><title>topo.analysis.featureresponses.PatternPresentingCommand</title>
<polygon fill="none" stroke="black" stroke-width="0.5" points="813,-191.5 509,-191.5 509,-170.5 813,-170.5 813,-191.5"/>
<text text-anchor="middle" x="661" y="-178.5" font-family="Vera" font-size="10.00">topo.analysis.featureresponses.PatternPresentingCommand</text>
</g>
<!-- param.parameterized.ParameterizedFunction&#45;&gt;topo.analysis.featureresponses.PatternPresentingCommand -->
<g id="edge30" class="edge"><title>param.parameterized.ParameterizedFunction&#45;&gt;topo.analysis.featureresponses.PatternPresentingCommand</title>
<path fill="none" stroke="black" stroke-width="0.5" d="M464.369,-184.131C477.055,-183.929 490.112,-183.721 503.176,-183.513"/>
<polygon fill="black" stroke="black" points="503.406,-185.26 508.378,-183.43 503.35,-181.76 503.406,-185.26"/>
</g>
<!-- topo.command.analysis.save_plotgroup -->
<g id="node57" class="node"><title>topo.command.analysis.save_plotgroup</title>
<polygon fill="none" stroke="black" stroke-width="0.5" points="765,-153.5 557,-153.5 557,-132.5 765,-132.5 765,-153.5"/>
<text text-anchor="middle" x="661" y="-140.5" font-family="Vera" font-size="10.00">topo.command.analysis.save_plotgroup</text>
</g>
<!-- param.parameterized.ParameterizedFunction&#45;&gt;topo.command.analysis.save_plotgroup -->
<g id="edge54" class="edge"><title>param.parameterized.ParameterizedFunction&#45;&gt;topo.command.analysis.save_plotgroup</title>
<path fill="none" stroke="black" stroke-width="0.5" d="M407.603,-175.949C435.677,-171.433 469.501,-166.19 500,-162 521.167,-159.092 543.939,-156.238 565.501,-153.661"/>
<polygon fill="black" stroke="black" points="565.904,-155.376 570.662,-153.047 565.49,-151.9 565.904,-155.376"/>
</g>
<!-- topo.analysis.featureresponses.PatternPresentingCommand&#45;&gt;topo.analysis.featureresponses.MeasureResponseCommand -->
<g id="edge58" class="edge"><title>topo.analysis.featureresponses.PatternPresentingCommand&#45;&gt;topo.analysis.featureresponses.MeasureResponseCommand</title>
<path fill="none" stroke="black" stroke-width="0.5" d="M756.949,-170.952C778.402,-168.351 801.013,-165.332 822,-162 869.694,-154.429 923.644,-143.4 961.836,-135.172"/>
<polygon fill="black" stroke="black" points="962.366,-136.848 966.883,-134.081 961.626,-133.427 962.366,-136.848"/>
</g>
<!-- topo.command.analysis.measure_rfs -->
<g id="node52" class="node"><title>topo.command.analysis.measure_rfs</title>
<polygon fill="none" stroke="black" stroke-width="0.5" points="1826,-58.5 1632,-58.5 1632,-37.5 1826,-37.5 1826,-58.5"/>
<text text-anchor="middle" x="1729" y="-45.5" font-family="Vera" font-size="10.00">topo.command.analysis.measure_rfs</text>
</g>
<!-- topo.analysis.featureresponses.SingleInputResponseCommand&#45;&gt;topo.command.analysis.measure_rfs -->
<g id="edge50" class="edge"><title>topo.analysis.featureresponses.SingleInputResponseCommand&#45;&gt;topo.command.analysis.measure_rfs</title>
<path fill="none" stroke="black" stroke-width="0.5" d="M1539.69,-48C1569.26,-48 1599.4,-48 1626.68,-48"/>
<polygon fill="black" stroke="black" points="1626.74,-49.7501 1631.74,-48 1626.74,-46.2501 1626.74,-49.7501"/>
</g>
</g>
</svg>
