<?xml version="1.0" encoding="UTF-8" standalone="no"?>
<!DOCTYPE svg PUBLIC "-//W3C//DTD SVG 1.1//EN"
 "http://www.w3.org/Graphics/SVG/1.1/DTD/svg11.dtd">
<!-- Generated by graphviz version 2.26.3 (20100126.1600)
 -->
<!-- Title: inheritancecc9184d1e2 Pages: 1 -->
<svg width="396pt" height="142pt"
 viewBox="0.00 0.00 396.00 142.00" xmlns="http://www.w3.org/2000/svg" xmlns:xlink="http://www.w3.org/1999/xlink">
<g id="graph1" class="graph" transform="scale(1 1) rotate(0) translate(4 138)">
<title>inheritancecc9184d1e2</title>
<polygon fill="white" stroke="white" points="-4,5 -4,-138 393,-138 393,5 -4,5"/>
<!-- topo.misc.odict.Items -->
<g id="node1" class="node"><title>topo.misc.odict.Items</title>
<polygon fill="none" stroke="black" stroke-width="0.5" points="136,-20.5 16,-20.5 16,0.5 136,0.5 136,-20.5"/>
<text text-anchor="middle" x="76" y="-7.5" font-family="Vera" font-size="10.00">topo.misc.odict.Items</text>
</g>
<!-- topo.misc.odict.Keys -->
<g id="node2" class="node"><title>topo.misc.odict.Keys</title>
<polygon fill="none" stroke="black" stroke-width="0.5" points="133,-58.5 19,-58.5 19,-37.5 133,-37.5 133,-58.5"/>
<text text-anchor="middle" x="76" y="-45.5" font-family="Vera" font-size="10.00">topo.misc.odict.Keys</text>
</g>
<!-- topo.misc.odict.SequenceOrderedDict -->
<g id="node3" class="node"><title>topo.misc.odict.SequenceOrderedDict</title>
<polygon fill="none" stroke="black" stroke-width="0.5" points="387,-96.5 189,-96.5 189,-75.5 387,-75.5 387,-96.5"/>
<text text-anchor="middle" x="288" y="-83.5" font-family="Vera" font-size="10.00">topo.misc.odict.SequenceOrderedDict</text>
</g>
<!-- topo.misc.odict.OrderedDict -->
<g id="node4" class="node"><title>topo.misc.odict.OrderedDict</title>
<polygon fill="none" stroke="black" stroke-width="0.5" points="151,-96.5 1,-96.5 1,-75.5 151,-75.5 151,-96.5"/>
<text text-anchor="middle" x="76" y="-83.5" font-family="Vera" font-size="10.00">topo.misc.odict.OrderedDict</text>
</g>
<!-- topo.misc.odict.OrderedDict&#45;&gt;topo.misc.odict.SequenceOrderedDict -->
<g id="edge2" class="edge"><title>topo.misc.odict.OrderedDict&#45;&gt;topo.misc.odict.SequenceOrderedDict</title>
<path fill="none" stroke="black" stroke-width="0.5" d="M151.639,-86C161.858,-86 172.488,-86 183.104,-86"/>
<polygon fill="black" stroke="black" points="183.312,-87.7501 188.312,-86 183.312,-84.2501 183.312,-87.7501"/>
</g>
<!-- topo.misc.odict.Values -->
<g id="node6" class="node"><title>topo.misc.odict.Values</title>
<polygon fill="none" stroke="black" stroke-width="0.5" points="138,-134.5 14,-134.5 14,-113.5 138,-113.5 138,-134.5"/>
<text text-anchor="middle" x="76" y="-121.5" font-family="Vera" font-size="10.00">topo.misc.odict.Values</text>
</g>
</g>
</svg>
