<?xml version="1.0" encoding="UTF-8" standalone="no"?>
<!DOCTYPE svg PUBLIC "-//W3C//DTD SVG 1.1//EN"
 "http://www.w3.org/Graphics/SVG/1.1/DTD/svg11.dtd">
<!-- Generated by graphviz version 2.26.3 (20100126.1600)
 -->
<!-- Title: inheritance1f1dc666b6 Pages: 1 -->
<svg width="964pt" height="189pt"
 viewBox="0.00 0.00 964.00 189.00" xmlns="http://www.w3.org/2000/svg" xmlns:xlink="http://www.w3.org/1999/xlink">
<g id="graph1" class="graph" transform="scale(1 1) rotate(0) translate(4 185)">
<title>inheritance1f1dc666b6</title>
<polygon fill="white" stroke="white" points="-4,5 -4,-185 961,-185 961,5 -4,5"/>
<!-- topo.base.projection.OrMask -->
<g id="node1" class="node"><title>topo.base.projection.OrMask</title>
<polygon fill="none" stroke="black" stroke-width="0.5" points="936,-181.5 782,-181.5 782,-160.5 936,-160.5 936,-181.5"/>
<text text-anchor="middle" x="859" y="-168.5" font-family="Vera" font-size="10.00">topo.base.projection.OrMask</text>
</g>
<!-- topo.base.projection.CompositeSheetMask -->
<g id="node2" class="node"><title>topo.base.projection.CompositeSheetMask</title>
<polygon fill="none" stroke="black" stroke-width="0.5" points="725,-162.5 503,-162.5 503,-141.5 725,-141.5 725,-162.5"/>
<text text-anchor="middle" x="614" y="-149.5" font-family="Vera" font-size="10.00">topo.base.projection.CompositeSheetMask</text>
</g>
<!-- topo.base.projection.CompositeSheetMask&#45;&gt;topo.base.projection.OrMask -->
<g id="edge2" class="edge"><title>topo.base.projection.CompositeSheetMask&#45;&gt;topo.base.projection.OrMask</title>
<path fill="none" stroke="black" stroke-width="0.5" d="M725.746,-160.666C742.902,-161.996 760.341,-163.349 776.704,-164.618"/>
<polygon fill="black" stroke="black" points="776.625,-166.367 781.746,-165.009 776.896,-162.877 776.625,-166.367"/>
</g>
<!-- topo.base.projection.AndMask -->
<g id="node7" class="node"><title>topo.base.projection.AndMask</title>
<polygon fill="none" stroke="black" stroke-width="0.5" points="939,-143.5 779,-143.5 779,-122.5 939,-122.5 939,-143.5"/>
<text text-anchor="middle" x="859" y="-130.5" font-family="Vera" font-size="10.00">topo.base.projection.AndMask</text>
</g>
<!-- topo.base.projection.CompositeSheetMask&#45;&gt;topo.base.projection.AndMask -->
<g id="edge6" class="edge"><title>topo.base.projection.CompositeSheetMask&#45;&gt;topo.base.projection.AndMask</title>
<path fill="none" stroke="black" stroke-width="0.5" d="M725.746,-143.334C741.62,-142.103 757.737,-140.853 773.019,-139.668"/>
<polygon fill="black" stroke="black" points="773.318,-141.4 778.168,-139.269 773.047,-137.911 773.318,-141.4"/>
</g>
<!-- topo.base.projection.SheetMask -->
<g id="node4" class="node"><title>topo.base.projection.SheetMask</title>
<polygon fill="none" stroke="black" stroke-width="0.5" points="433,-134.5 263,-134.5 263,-113.5 433,-113.5 433,-134.5"/>
<text text-anchor="middle" x="348" y="-121.5" font-family="Vera" font-size="10.00">topo.base.projection.SheetMask</text>
</g>
<!-- topo.base.projection.SheetMask&#45;&gt;topo.base.projection.CompositeSheetMask -->
<g id="edge22" class="edge"><title>topo.base.projection.SheetMask&#45;&gt;topo.base.projection.CompositeSheetMask</title>
<path fill="none" stroke="black" stroke-width="0.5" d="M433.628,-133.014C459.115,-135.696 487.271,-138.66 513.609,-141.433"/>
<polygon fill="black" stroke="black" points="513.695,-143.201 518.851,-141.984 514.062,-139.72 513.695,-143.201"/>
</g>
<!-- topo.base.projection.NeighborhoodMask -->
<g id="node21" class="node"><title>topo.base.projection.NeighborhoodMask</title>
<polygon fill="none" stroke="black" stroke-width="0.5" points="719,-124.5 509,-124.5 509,-103.5 719,-103.5 719,-124.5"/>
<text text-anchor="middle" x="614" y="-111.5" font-family="Vera" font-size="10.00">topo.base.projection.NeighborhoodMask</text>
</g>
<!-- topo.base.projection.SheetMask&#45;&gt;topo.base.projection.NeighborhoodMask -->
<g id="edge20" class="edge"><title>topo.base.projection.SheetMask&#45;&gt;topo.base.projection.NeighborhoodMask</title>
<path fill="none" stroke="black" stroke-width="0.5" d="M433.628,-120.781C455.937,-119.942 480.292,-119.027 503.682,-118.147"/>
<polygon fill="black" stroke="black" points="504.041,-119.885 508.971,-117.948 503.909,-116.388 504.041,-119.885"/>
</g>
<!-- param.parameterized.Parameterized -->
<g id="node5" class="node"><title>param.parameterized.Parameterized</title>
<polygon fill="none" stroke="black" stroke-width="0.5" points="194,-96.5 5.68434e-14,-96.5 0,-75.5 194,-75.5 194,-96.5"/>
<text text-anchor="middle" x="97" y="-83.5" font-family="Vera" font-size="10.00">param.parameterized.Parameterized</text>
</g>
<!-- param.parameterized.Parameterized&#45;&gt;topo.base.projection.SheetMask -->
<g id="edge4" class="edge"><title>param.parameterized.Parameterized&#45;&gt;topo.base.projection.SheetMask</title>
<path fill="none" stroke="black" stroke-width="0.5" d="M163.276,-96.0338C198.161,-101.315 240.968,-107.796 276.587,-113.189"/>
<polygon fill="black" stroke="black" points="276.583,-114.958 281.789,-113.976 277.107,-111.497 276.583,-114.958"/>
</g>
<!-- topo.base.simulation.EventProcessor -->
<g id="node11" class="node"><title>topo.base.simulation.EventProcessor</title>
<polygon fill="none" stroke="black" stroke-width="0.5" points="445,-96.5 251,-96.5 251,-75.5 445,-75.5 445,-96.5"/>
<text text-anchor="middle" x="348" y="-83.5" font-family="Vera" font-size="10.00">topo.base.simulation.EventProcessor</text>
</g>
<!-- param.parameterized.Parameterized&#45;&gt;topo.base.simulation.EventProcessor -->
<g id="edge18" class="edge"><title>param.parameterized.Parameterized&#45;&gt;topo.base.simulation.EventProcessor</title>
<path fill="none" stroke="black" stroke-width="0.5" d="M194.043,-86C210.921,-86 228.523,-86 245.54,-86"/>
<polygon fill="black" stroke="black" points="245.801,-87.7501 250.801,-86 245.801,-84.2501 245.801,-87.7501"/>
</g>
<!-- topo.base.simulation.EPConnection -->
<g id="node15" class="node"><title>topo.base.simulation.EPConnection</title>
<polygon fill="none" stroke="black" stroke-width="0.5" points="441,-20.5 255,-20.5 255,0.5 441,0.5 441,-20.5"/>
<text text-anchor="middle" x="348" y="-7.5" font-family="Vera" font-size="10.00">topo.base.simulation.EPConnection</text>
</g>
<!-- param.parameterized.Parameterized&#45;&gt;topo.base.simulation.EPConnection -->
<g id="edge16" class="edge"><title>param.parameterized.Parameterized&#45;&gt;topo.base.simulation.EPConnection</title>
<path fill="none" stroke="black" stroke-width="0.5" d="M116.274,-75.9494C141.663,-63.1323 188.018,-41.1752 230,-29 240.715,-25.8926 252.134,-23.2523 263.489,-21.0201"/>
<polygon fill="black" stroke="black" points="264.117,-22.6817 268.698,-20.0229 263.459,-19.2441 264.117,-22.6817"/>
</g>
<!-- imagen.sheetcoords.SheetCoordinateSystem -->
<g id="node9" class="node"><title>imagen.sheetcoords.SheetCoordinateSystem</title>
<polygon fill="none" stroke="black" stroke-width="0.5" points="466,-58.5 230,-58.5 230,-37.5 466,-37.5 466,-58.5"/>
<text text-anchor="middle" x="348" y="-45.5" font-family="Vera" font-size="10.00">imagen.sheetcoords.SheetCoordinateSystem</text>
</g>
<!-- topo.base.sheet.Sheet -->
<g id="node10" class="node"><title>topo.base.sheet.Sheet</title>
<polygon fill="none" stroke="black" stroke-width="0.5" points="677,-67.5 551,-67.5 551,-46.5 677,-46.5 677,-67.5"/>
<text text-anchor="middle" x="614" y="-54.5" font-family="Vera" font-size="10.00">topo.base.sheet.Sheet</text>
</g>
<!-- imagen.sheetcoords.SheetCoordinateSystem&#45;&gt;topo.base.sheet.Sheet -->
<g id="edge10" class="edge"><title>imagen.sheetcoords.SheetCoordinateSystem&#45;&gt;topo.base.sheet.Sheet</title>
<path fill="none" stroke="black" stroke-width="0.5" d="M466.221,-51.9999C493.424,-52.9204 521.462,-53.869 545.708,-54.6894"/>
<polygon fill="black" stroke="black" points="545.766,-56.4422 550.822,-54.8624 545.884,-52.9442 545.766,-56.4422"/>
</g>
<!-- topo.base.projection.ProjectionSheet -->
<g id="node17" class="node"><title>topo.base.projection.ProjectionSheet</title>
<polygon fill="none" stroke="black" stroke-width="0.5" points="956,-67.5 762,-67.5 762,-46.5 956,-46.5 956,-67.5"/>
<text text-anchor="middle" x="859" y="-54.5" font-family="Vera" font-size="10.00">topo.base.projection.ProjectionSheet</text>
</g>
<!-- topo.base.sheet.Sheet&#45;&gt;topo.base.projection.ProjectionSheet -->
<g id="edge14" class="edge"><title>topo.base.sheet.Sheet&#45;&gt;topo.base.projection.ProjectionSheet</title>
<path fill="none" stroke="black" stroke-width="0.5" d="M677.094,-57C701.386,-57 729.79,-57 756.834,-57"/>
<polygon fill="black" stroke="black" points="756.867,-58.7501 761.867,-57 756.867,-55.2501 756.867,-58.7501"/>
</g>
<!-- topo.base.simulation.EventProcessor&#45;&gt;topo.base.sheet.Sheet -->
<g id="edge8" class="edge"><title>topo.base.simulation.EventProcessor&#45;&gt;topo.base.sheet.Sheet</title>
<path fill="none" stroke="black" stroke-width="0.5" d="M439.915,-75.9792C474.695,-72.1874 513.632,-67.9424 545.848,-64.4301"/>
<polygon fill="black" stroke="black" points="546.178,-66.1546 550.959,-63.8729 545.799,-62.6752 546.178,-66.1546"/>
</g>
<!-- topo.base.projection.Projection -->
<g id="node14" class="node"><title>topo.base.projection.Projection</title>
<polygon fill="none" stroke="black" stroke-width="0.5" points="696,-20.5 532,-20.5 532,0.5 696,0.5 696,-20.5"/>
<text text-anchor="middle" x="614" y="-7.5" font-family="Vera" font-size="10.00">topo.base.projection.Projection</text>
</g>
<!-- topo.base.simulation.EPConnection&#45;&gt;topo.base.projection.Projection -->
<g id="edge12" class="edge"><title>topo.base.simulation.EPConnection&#45;&gt;topo.base.projection.Projection</title>
<path fill="none" stroke="black" stroke-width="0.5" d="M441.034,-10C468.678,-10 498.861,-10 526.163,-10"/>
<polygon fill="black" stroke="black" points="526.226,-11.7501 531.226,-10 526.226,-8.2501 526.226,-11.7501"/>
</g>
</g>
</svg>
