<?xml version="1.0" encoding="UTF-8" standalone="no"?>
<!DOCTYPE svg PUBLIC "-//W3C//DTD SVG 1.1//EN"
 "http://www.w3.org/Graphics/SVG/1.1/DTD/svg11.dtd">
<!-- Generated by graphviz version 2.26.3 (20100126.1600)
 -->
<!-- Title: inheritancefb77bc0bf5 Pages: 1 -->
<svg width="422pt" height="28pt"
 viewBox="0.00 0.00 422.00 28.00" xmlns="http://www.w3.org/2000/svg" xmlns:xlink="http://www.w3.org/1999/xlink">
<g id="graph1" class="graph" transform="scale(1 1) rotate(0) translate(4 24)">
<title>inheritancefb77bc0bf5</title>
<polygon fill="white" stroke="white" points="-4,5 -4,-24 419,-24 419,5 -4,5"/>
<!-- topo.base.arrayutil.DivideWithConstant -->
<g id="node1" class="node"><title>topo.base.arrayutil.DivideWithConstant</title>
<polygon fill="none" stroke="black" stroke-width="0.5" points="414,-20 220,-20 220,-1.06581e-14 414,-3.55271e-15 414,-20"/>
<text text-anchor="middle" x="317" y="-7" font-family="Vera" font-size="10.00">topo.base.arrayutil.DivideWithConstant</text>
</g>
<!-- param.parameterized.Parameterized -->
<g id="node2" class="node"><title>param.parameterized.Parameterized</title>
<polygon fill="none" stroke="black" stroke-width="0.5" points="184,-20 8.52651e-14,-20 0,-1.06581e-14 184,-3.55271e-15 184,-20"/>
<text text-anchor="middle" x="92" y="-7" font-family="Vera" font-size="10.00">param.parameterized.Parameterized</text>
</g>
<!-- param.parameterized.Parameterized&#45;&gt;topo.base.arrayutil.DivideWithConstant -->
<g id="edge2" class="edge"><title>param.parameterized.Parameterized&#45;&gt;topo.base.arrayutil.DivideWithConstant</title>
<path fill="none" stroke="black" stroke-width="0.5" d="M184.165,-10C194.282,-10 204.625,-10 214.854,-10"/>
<polygon fill="black" stroke="black" points="214.864,-11.7501 219.864,-10 214.864,-8.2501 214.864,-11.7501"/>
</g>
</g>
</svg>
