<?xml version="1.0" encoding="UTF-8" standalone="no"?>
<!DOCTYPE svg PUBLIC "-//W3C//DTD SVG 1.1//EN"
 "http://www.w3.org/Graphics/SVG/1.1/DTD/svg11.dtd">
<!-- Generated by graphviz version 2.26.3 (20100126.1600)
 -->
<!-- Title: inheritance97c36bc686 Pages: 1 -->
<svg width="2280pt" height="142pt"
 viewBox="0.00 0.00 2280.00 142.00" xmlns="http://www.w3.org/2000/svg" xmlns:xlink="http://www.w3.org/1999/xlink">
<g id="graph1" class="graph" transform="scale(1 1) rotate(0) translate(4 138)">
<title>inheritance97c36bc686</title>
<polygon fill="white" stroke="white" points="-4,5 -4,-138 2277,-138 2277,5 -4,5"/>
<!-- topo.plotting.plotgroup.RetinotopyPlotGroup -->
<g id="node1" class="node"><title>topo.plotting.plotgroup.RetinotopyPlotGroup</title>
<polygon fill="none" stroke="black" stroke-width="0.5" points="1399,-134.5 1173,-134.5 1173,-113.5 1399,-113.5 1399,-134.5"/>
<text text-anchor="middle" x="1286" y="-121.5" font-family="Vera" font-size="10.00">topo.plotting.plotgroup.RetinotopyPlotGroup</text>
</g>
<!-- topo.plotting.plotgroup.TemplatePlotGroup -->
<g id="node2" class="node"><title>topo.plotting.plotgroup.TemplatePlotGroup</title>
<polygon fill="none" stroke="black" stroke-width="0.5" points="1101,-96.5 881,-96.5 881,-75.5 1101,-75.5 1101,-96.5"/>
<text text-anchor="middle" x="991" y="-83.5" font-family="Vera" font-size="10.00">topo.plotting.plotgroup.TemplatePlotGroup</text>
</g>
<!-- topo.plotting.plotgroup.TemplatePlotGroup&#45;&gt;topo.plotting.plotgroup.RetinotopyPlotGroup -->
<g id="edge2" class="edge"><title>topo.plotting.plotgroup.TemplatePlotGroup&#45;&gt;topo.plotting.plotgroup.RetinotopyPlotGroup</title>
<path fill="none" stroke="black" stroke-width="0.5" d="M1068.89,-96.0338C1110.23,-101.358 1161.03,-107.902 1203.1,-113.321"/>
<polygon fill="black" stroke="black" points="1203,-115.073 1208.18,-113.976 1203.45,-111.601 1203,-115.073"/>
</g>
<!-- topo.plotting.plotgroup.ProjectionSheetPlotGroup -->
<g id="node5" class="node"><title>topo.plotting.plotgroup.ProjectionSheetPlotGroup</title>
<polygon fill="none" stroke="black" stroke-width="0.5" points="1412,-96.5 1160,-96.5 1160,-75.5 1412,-75.5 1412,-96.5"/>
<text text-anchor="middle" x="1286" y="-83.5" font-family="Vera" font-size="10.00">topo.plotting.plotgroup.ProjectionSheetPlotGroup</text>
</g>
<!-- topo.plotting.plotgroup.TemplatePlotGroup&#45;&gt;topo.plotting.plotgroup.ProjectionSheetPlotGroup -->
<g id="edge26" class="edge"><title>topo.plotting.plotgroup.TemplatePlotGroup&#45;&gt;topo.plotting.plotgroup.ProjectionSheetPlotGroup</title>
<path fill="none" stroke="black" stroke-width="0.5" d="M1101.27,-86C1118.77,-86 1137.02,-86 1154.94,-86"/>
<polygon fill="black" stroke="black" points="1154.99,-87.7501 1159.99,-86 1154.99,-84.2501 1154.99,-87.7501"/>
</g>
<!-- topo.plotting.plotgroup.TwoOrientationsPlotGroup -->
<g id="node9" class="node"><title>topo.plotting.plotgroup.TwoOrientationsPlotGroup</title>
<polygon fill="none" stroke="black" stroke-width="0.5" points="1411,-58.5 1161,-58.5 1161,-37.5 1411,-37.5 1411,-58.5"/>
<text text-anchor="middle" x="1286" y="-45.5" font-family="Vera" font-size="10.00">topo.plotting.plotgroup.TwoOrientationsPlotGroup</text>
</g>
<!-- topo.plotting.plotgroup.TemplatePlotGroup&#45;&gt;topo.plotting.plotgroup.TwoOrientationsPlotGroup -->
<g id="edge8" class="edge"><title>topo.plotting.plotgroup.TemplatePlotGroup&#45;&gt;topo.plotting.plotgroup.TwoOrientationsPlotGroup</title>
<path fill="none" stroke="black" stroke-width="0.5" d="M1068.89,-75.9662C1110.23,-70.6415 1161.03,-64.0977 1203.1,-58.6791"/>
<polygon fill="black" stroke="black" points="1203.45,-60.3986 1208.18,-58.024 1203,-56.9273 1203.45,-60.3986"/>
</g>
<!-- topo.plotting.plotgroup.ProjectionActivityPlotGroup -->
<g id="node4" class="node"><title>topo.plotting.plotgroup.ProjectionActivityPlotGroup</title>
<polygon fill="none" stroke="black" stroke-width="0.5" points="1706,-134.5 1448,-134.5 1448,-113.5 1706,-113.5 1706,-134.5"/>
<text text-anchor="middle" x="1577" y="-121.5" font-family="Vera" font-size="10.00">topo.plotting.plotgroup.ProjectionActivityPlotGroup</text>
</g>
<!-- topo.plotting.plotgroup.ProjectionSheetPlotGroup&#45;&gt;topo.plotting.plotgroup.ProjectionActivityPlotGroup -->
<g id="edge4" class="edge"><title>topo.plotting.plotgroup.ProjectionSheetPlotGroup&#45;&gt;topo.plotting.plotgroup.ProjectionActivityPlotGroup</title>
<path fill="none" stroke="black" stroke-width="0.5" d="M1362.84,-96.0338C1403.61,-101.358 1453.73,-107.902 1495.22,-113.321"/>
<polygon fill="black" stroke="black" points="1495.05,-115.064 1500.24,-113.976 1495.51,-111.593 1495.05,-115.064"/>
</g>
<!-- topo.plotting.plotgroup.GridPlotGroup -->
<g id="node15" class="node"><title>topo.plotting.plotgroup.GridPlotGroup</title>
<polygon fill="none" stroke="black" stroke-width="0.5" points="1675,-96.5 1479,-96.5 1479,-75.5 1675,-75.5 1675,-96.5"/>
<text text-anchor="middle" x="1577" y="-83.5" font-family="Vera" font-size="10.00">topo.plotting.plotgroup.GridPlotGroup</text>
</g>
<!-- topo.plotting.plotgroup.ProjectionSheetPlotGroup&#45;&gt;topo.plotting.plotgroup.GridPlotGroup -->
<g id="edge32" class="edge"><title>topo.plotting.plotgroup.ProjectionSheetPlotGroup&#45;&gt;topo.plotting.plotgroup.GridPlotGroup</title>
<path fill="none" stroke="black" stroke-width="0.5" d="M1412.37,-86C1432.87,-86 1453.89,-86 1473.76,-86"/>
<polygon fill="black" stroke="black" points="1473.78,-87.7501 1478.78,-86 1473.78,-84.2501 1473.78,-87.7501"/>
</g>
<!-- topo.plotting.plotgroup.UnitPlotGroup -->
<g id="node17" class="node"><title>topo.plotting.plotgroup.UnitPlotGroup</title>
<polygon fill="none" stroke="black" stroke-width="0.5" points="1675,-58.5 1479,-58.5 1479,-37.5 1675,-37.5 1675,-58.5"/>
<text text-anchor="middle" x="1577" y="-45.5" font-family="Vera" font-size="10.00">topo.plotting.plotgroup.UnitPlotGroup</text>
</g>
<!-- topo.plotting.plotgroup.ProjectionSheetPlotGroup&#45;&gt;topo.plotting.plotgroup.UnitPlotGroup -->
<g id="edge14" class="edge"><title>topo.plotting.plotgroup.ProjectionSheetPlotGroup&#45;&gt;topo.plotting.plotgroup.UnitPlotGroup</title>
<path fill="none" stroke="black" stroke-width="0.5" d="M1362.84,-75.9662C1403.61,-70.6415 1453.73,-64.0977 1495.22,-58.6791"/>
<polygon fill="black" stroke="black" points="1495.51,-60.4068 1500.24,-58.024 1495.05,-56.9363 1495.51,-60.4068"/>
</g>
<!-- topo.plotting.plotgroup.SheetPlotGroup -->
<g id="node7" class="node"><title>topo.plotting.plotgroup.SheetPlotGroup</title>
<polygon fill="none" stroke="black" stroke-width="0.5" points="763,-96.5 559,-96.5 559,-75.5 763,-75.5 763,-96.5"/>
<text text-anchor="middle" x="661" y="-83.5" font-family="Vera" font-size="10.00">topo.plotting.plotgroup.SheetPlotGroup</text>
</g>
<!-- topo.plotting.plotgroup.SheetPlotGroup&#45;&gt;topo.plotting.plotgroup.TemplatePlotGroup -->
<g id="edge6" class="edge"><title>topo.plotting.plotgroup.SheetPlotGroup&#45;&gt;topo.plotting.plotgroup.TemplatePlotGroup</title>
<path fill="none" stroke="black" stroke-width="0.5" d="M763.605,-86C799.041,-86 838.979,-86 875.385,-86"/>
<polygon fill="black" stroke="black" points="875.73,-87.7501 880.729,-86 875.729,-84.2501 875.73,-87.7501"/>
</g>
<!-- topo.plotting.plotgroup.UnitMeasurementCommand -->
<g id="node11" class="node"><title>topo.plotting.plotgroup.UnitMeasurementCommand</title>
<polygon fill="none" stroke="black" stroke-width="0.5" points="1124,-58.5 858,-58.5 858,-37.5 1124,-37.5 1124,-58.5"/>
<text text-anchor="middle" x="991" y="-45.5" font-family="Vera" font-size="10.00">topo.plotting.plotgroup.UnitMeasurementCommand</text>
</g>
<!-- topo.plotting.plotgroup.ProjectionSheetMeasurementCommand -->
<g id="node12" class="node"><title>topo.plotting.plotgroup.ProjectionSheetMeasurementCommand</title>
<polygon fill="none" stroke="black" stroke-width="0.5" points="822,-58.5 500,-58.5 500,-37.5 822,-37.5 822,-58.5"/>
<text text-anchor="middle" x="661" y="-45.5" font-family="Vera" font-size="10.00">topo.plotting.plotgroup.ProjectionSheetMeasurementCommand</text>
</g>
<!-- topo.plotting.plotgroup.ProjectionSheetMeasurementCommand&#45;&gt;topo.plotting.plotgroup.UnitMeasurementCommand -->
<g id="edge10" class="edge"><title>topo.plotting.plotgroup.ProjectionSheetMeasurementCommand&#45;&gt;topo.plotting.plotgroup.UnitMeasurementCommand</title>
<path fill="none" stroke="black" stroke-width="0.5" d="M822.133,-48C832.304,-48 842.494,-48 852.549,-48"/>
<polygon fill="black" stroke="black" points="852.794,-49.7501 857.794,-48 852.794,-46.2501 852.794,-49.7501"/>
</g>
<!-- topo.plotting.plotgroup.ProjectionPlotGroup -->
<g id="node14" class="node"><title>topo.plotting.plotgroup.ProjectionPlotGroup</title>
<polygon fill="none" stroke="black" stroke-width="0.5" points="1983,-134.5 1759,-134.5 1759,-113.5 1983,-113.5 1983,-134.5"/>
<text text-anchor="middle" x="1871" y="-121.5" font-family="Vera" font-size="10.00">topo.plotting.plotgroup.ProjectionPlotGroup</text>
</g>
<!-- topo.plotting.plotgroup.CFProjectionPlotGroup -->
<g id="node19" class="node"><title>topo.plotting.plotgroup.CFProjectionPlotGroup</title>
<polygon fill="none" stroke="black" stroke-width="0.5" points="2272,-134.5 2036,-134.5 2036,-113.5 2272,-113.5 2272,-134.5"/>
<text text-anchor="middle" x="2154" y="-121.5" font-family="Vera" font-size="10.00">topo.plotting.plotgroup.CFProjectionPlotGroup</text>
</g>
<!-- topo.plotting.plotgroup.ProjectionPlotGroup&#45;&gt;topo.plotting.plotgroup.CFProjectionPlotGroup -->
<g id="edge16" class="edge"><title>topo.plotting.plotgroup.ProjectionPlotGroup&#45;&gt;topo.plotting.plotgroup.CFProjectionPlotGroup</title>
<path fill="none" stroke="black" stroke-width="0.5" d="M1983.26,-124C1998.78,-124 2014.8,-124 2030.52,-124"/>
<polygon fill="black" stroke="black" points="2030.84,-125.75 2035.84,-124 2030.84,-122.25 2030.84,-125.75"/>
</g>
<!-- topo.plotting.plotgroup.GridPlotGroup&#45;&gt;topo.plotting.plotgroup.ProjectionPlotGroup -->
<g id="edge12" class="edge"><title>topo.plotting.plotgroup.GridPlotGroup&#45;&gt;topo.plotting.plotgroup.ProjectionPlotGroup</title>
<path fill="none" stroke="black" stroke-width="0.5" d="M1654.63,-96.0338C1695.83,-101.358 1746.45,-107.902 1788.38,-113.321"/>
<polygon fill="black" stroke="black" points="1788.26,-115.071 1793.45,-113.976 1788.71,-111.599 1788.26,-115.071"/>
</g>
<!-- topo.plotting.plotgroup.RFProjectionPlotGroup -->
<g id="node34" class="node"><title>topo.plotting.plotgroup.RFProjectionPlotGroup</title>
<polygon fill="none" stroke="black" stroke-width="0.5" points="1988,-96.5 1754,-96.5 1754,-75.5 1988,-75.5 1988,-96.5"/>
<text text-anchor="middle" x="1871" y="-83.5" font-family="Vera" font-size="10.00">topo.plotting.plotgroup.RFProjectionPlotGroup</text>
</g>
<!-- topo.plotting.plotgroup.GridPlotGroup&#45;&gt;topo.plotting.plotgroup.RFProjectionPlotGroup -->
<g id="edge34" class="edge"><title>topo.plotting.plotgroup.GridPlotGroup&#45;&gt;topo.plotting.plotgroup.RFProjectionPlotGroup</title>
<path fill="none" stroke="black" stroke-width="0.5" d="M1675.31,-86C1698.68,-86 1723.91,-86 1748.23,-86"/>
<polygon fill="black" stroke="black" points="1748.41,-87.7501 1753.41,-86 1748.41,-84.2501 1748.41,-87.7501"/>
</g>
<!-- topo.plotting.plotgroup.FeatureCurvePlotGroup -->
<g id="node26" class="node"><title>topo.plotting.plotgroup.FeatureCurvePlotGroup</title>
<polygon fill="none" stroke="black" stroke-width="0.5" points="1991,-58.5 1751,-58.5 1751,-37.5 1991,-37.5 1991,-58.5"/>
<text text-anchor="middle" x="1871" y="-45.5" font-family="Vera" font-size="10.00">topo.plotting.plotgroup.FeatureCurvePlotGroup</text>
</g>
<!-- topo.plotting.plotgroup.UnitPlotGroup&#45;&gt;topo.plotting.plotgroup.FeatureCurvePlotGroup -->
<g id="edge22" class="edge"><title>topo.plotting.plotgroup.UnitPlotGroup&#45;&gt;topo.plotting.plotgroup.FeatureCurvePlotGroup</title>
<path fill="none" stroke="black" stroke-width="0.5" d="M1675.31,-48C1697.9,-48 1722.23,-48 1745.8,-48"/>
<polygon fill="black" stroke="black" points="1745.81,-49.7501 1750.81,-48 1745.81,-46.2501 1745.81,-49.7501"/>
</g>
<!-- topo.plotting.plotgroup.ConnectionFieldsPlotGroup -->
<g id="node31" class="node"><title>topo.plotting.plotgroup.ConnectionFieldsPlotGroup</title>
<polygon fill="none" stroke="black" stroke-width="0.5" points="1999,-20.5 1743,-20.5 1743,0.5 1999,0.5 1999,-20.5"/>
<text text-anchor="middle" x="1871" y="-7.5" font-family="Vera" font-size="10.00">topo.plotting.plotgroup.ConnectionFieldsPlotGroup</text>
</g>
<!-- topo.plotting.plotgroup.UnitPlotGroup&#45;&gt;topo.plotting.plotgroup.ConnectionFieldsPlotGroup -->
<g id="edge30" class="edge"><title>topo.plotting.plotgroup.UnitPlotGroup&#45;&gt;topo.plotting.plotgroup.ConnectionFieldsPlotGroup</title>
<path fill="none" stroke="black" stroke-width="0.5" d="M1654.63,-37.9662C1695.83,-32.6415 1746.45,-26.0977 1788.38,-20.6791"/>
<polygon fill="black" stroke="black" points="1788.71,-22.4006 1793.45,-20.024 1788.26,-18.9295 1788.71,-22.4006"/>
</g>
<!-- topo.plotting.plotgroup.PlotGroup -->
<g id="node21" class="node"><title>topo.plotting.plotgroup.PlotGroup</title>
<polygon fill="none" stroke="black" stroke-width="0.5" points="435,-96.5 259,-96.5 259,-75.5 435,-75.5 435,-96.5"/>
<text text-anchor="middle" x="347" y="-83.5" font-family="Vera" font-size="10.00">topo.plotting.plotgroup.PlotGroup</text>
</g>
<!-- topo.plotting.plotgroup.PlotGroup&#45;&gt;topo.plotting.plotgroup.SheetPlotGroup -->
<g id="edge28" class="edge"><title>topo.plotting.plotgroup.PlotGroup&#45;&gt;topo.plotting.plotgroup.SheetPlotGroup</title>
<path fill="none" stroke="black" stroke-width="0.5" d="M435.302,-86C471.932,-86 514.775,-86 553.234,-86"/>
<polygon fill="black" stroke="black" points="553.387,-87.7501 558.387,-86 553.387,-84.2501 553.387,-87.7501"/>
</g>
<!-- param.parameterized.Parameterized -->
<g id="node22" class="node"><title>param.parameterized.Parameterized</title>
<polygon fill="none" stroke="black" stroke-width="0.5" points="194,-77.5 5.68434e-14,-77.5 0,-56.5 194,-56.5 194,-77.5"/>
<text text-anchor="middle" x="97" y="-64.5" font-family="Vera" font-size="10.00">param.parameterized.Parameterized</text>
</g>
<!-- param.parameterized.Parameterized&#45;&gt;topo.plotting.plotgroup.PlotGroup -->
<g id="edge18" class="edge"><title>param.parameterized.Parameterized&#45;&gt;topo.plotting.plotgroup.PlotGroup</title>
<path fill="none" stroke="black" stroke-width="0.5" d="M194.014,-74.3731C213.46,-75.851 233.859,-77.4013 253.193,-78.8707"/>
<polygon fill="black" stroke="black" points="253.499,-80.6489 258.617,-79.2829 253.764,-77.1589 253.499,-80.6489"/>
</g>
<!-- param.parameterized.ParameterizedFunction -->
<g id="node24" class="node"><title>param.parameterized.ParameterizedFunction</title>
<polygon fill="none" stroke="black" stroke-width="0.5" points="464,-58.5 230,-58.5 230,-37.5 464,-37.5 464,-58.5"/>
<text text-anchor="middle" x="347" y="-45.5" font-family="Vera" font-size="10.00">param.parameterized.ParameterizedFunction</text>
</g>
<!-- param.parameterized.Parameterized&#45;&gt;param.parameterized.ParameterizedFunction -->
<g id="edge24" class="edge"><title>param.parameterized.Parameterized&#45;&gt;param.parameterized.ParameterizedFunction</title>
<path fill="none" stroke="black" stroke-width="0.5" d="M194.014,-59.6269C204.04,-58.8649 214.319,-58.0837 224.575,-57.3043"/>
<polygon fill="black" stroke="black" points="224.754,-59.0458 229.607,-56.9219 224.489,-55.5559 224.754,-59.0458"/>
</g>
<!-- param.parameterized.ParameterizedFunction&#45;&gt;topo.plotting.plotgroup.ProjectionSheetMeasurementCommand -->
<g id="edge20" class="edge"><title>param.parameterized.ParameterizedFunction&#45;&gt;topo.plotting.plotgroup.ProjectionSheetMeasurementCommand</title>
<path fill="none" stroke="black" stroke-width="0.5" d="M464.369,-48C474.323,-48 484.506,-48 494.741,-48"/>
<polygon fill="black" stroke="black" points="494.769,-49.7501 499.769,-48 494.769,-46.2501 494.769,-49.7501"/>
</g>
</g>
</svg>
