<?xml version="1.0" encoding="UTF-8" standalone="no"?>
<!DOCTYPE svg PUBLIC "-//W3C//DTD SVG 1.1//EN"
 "http://www.w3.org/Graphics/SVG/1.1/DTD/svg11.dtd">
<!-- Generated by graphviz version 2.26.3 (20100126.1600)
 -->
<!-- Title: inheritance0f827376bc Pages: 1 -->
<svg width="1766pt" height="294pt"
 viewBox="0.00 0.00 1766.00 294.00" xmlns="http://www.w3.org/2000/svg" xmlns:xlink="http://www.w3.org/1999/xlink">
<g id="graph1" class="graph" transform="scale(1 1) rotate(0) translate(4 290)">
<title>inheritance0f827376bc</title>
<polygon fill="white" stroke="white" points="-4,5 -4,-290 1763,-290 1763,5 -4,5"/>
<!-- topo.analysis.featureresponses.FullMatrix -->
<g id="node1" class="node"><title>topo.analysis.featureresponses.FullMatrix</title>
<polygon fill="none" stroke="black" stroke-width="0.5" points="445,-248 239,-248 239,-228 445,-228 445,-248"/>
<text text-anchor="middle" x="342" y="-235" font-family="Vera" font-size="10.00">topo.analysis.featureresponses.FullMatrix</text>
</g>
<!-- param.parameterized.Parameterized -->
<g id="node2" class="node"><title>param.parameterized.Parameterized</title>
<polygon fill="none" stroke="black" stroke-width="0.5" points="184,-134 8.52651e-14,-134 0,-114 184,-114 184,-134"/>
<text text-anchor="middle" x="92" y="-121" font-family="Vera" font-size="10.00">param.parameterized.Parameterized</text>
</g>
<!-- param.parameterized.Parameterized&#45;&gt;topo.analysis.featureresponses.FullMatrix -->
<g id="edge2" class="edge"><title>param.parameterized.Parameterized&#45;&gt;topo.analysis.featureresponses.FullMatrix</title>
<path fill="none" stroke="black" stroke-width="0.5" d="M101.86,-134.061C122.01,-153.948 170.222,-198.16 220,-219 227.205,-222.016 234.83,-224.559 242.61,-226.702"/>
<polygon fill="black" stroke="black" points="242.191,-228.401 247.472,-227.985 243.085,-225.017 242.191,-228.401"/>
</g>
<!-- topo.base.functionfamily.PatternDrivenAnalysis -->
<g id="node4" class="node"><title>topo.base.functionfamily.PatternDrivenAnalysis</title>
<polygon fill="none" stroke="black" stroke-width="0.5" points="458,-210 226,-210 226,-190 458,-190 458,-210"/>
<text text-anchor="middle" x="342" y="-197" font-family="Vera" font-size="10.00">topo.base.functionfamily.PatternDrivenAnalysis</text>
</g>
<!-- param.parameterized.Parameterized&#45;&gt;topo.base.functionfamily.PatternDrivenAnalysis -->
<g id="edge4" class="edge"><title>param.parameterized.Parameterized&#45;&gt;topo.base.functionfamily.PatternDrivenAnalysis</title>
<path fill="none" stroke="black" stroke-width="0.5" d="M110.489,-134.114C134.858,-146.999 179.401,-169.029 220,-181 230.609,-184.128 241.897,-186.767 253.16,-188.987"/>
<polygon fill="black" stroke="black" points="253.091,-190.755 258.331,-189.978 253.75,-187.318 253.091,-190.755"/>
</g>
<!-- param.parameterized.ParameterizedFunction -->
<g id="node9" class="node"><title>param.parameterized.ParameterizedFunction</title>
<polygon fill="none" stroke="black" stroke-width="0.5" points="453,-172 231,-172 231,-152 453,-152 453,-172"/>
<text text-anchor="middle" x="342" y="-159" font-family="Vera" font-size="10.00">param.parameterized.ParameterizedFunction</text>
</g>
<!-- param.parameterized.Parameterized&#45;&gt;param.parameterized.ParameterizedFunction -->
<g id="edge8" class="edge"><title>param.parameterized.Parameterized&#45;&gt;param.parameterized.ParameterizedFunction</title>
<path fill="none" stroke="black" stroke-width="0.5" d="M158.012,-134.034C192.758,-139.315 235.394,-145.796 270.872,-151.189"/>
<polygon fill="black" stroke="black" points="270.846,-152.955 276.052,-151.976 271.372,-149.494 270.846,-152.955"/>
</g>
<!-- topo.analysis.featureresponses.PatternPresenter -->
<g id="node20" class="node"><title>topo.analysis.featureresponses.PatternPresenter</title>
<polygon fill="none" stroke="black" stroke-width="0.5" points="460,-134 224,-134 224,-114 460,-114 460,-134"/>
<text text-anchor="middle" x="342" y="-121" font-family="Vera" font-size="10.00">topo.analysis.featureresponses.PatternPresenter</text>
</g>
<!-- param.parameterized.Parameterized&#45;&gt;topo.analysis.featureresponses.PatternPresenter -->
<g id="edge18" class="edge"><title>param.parameterized.Parameterized&#45;&gt;topo.analysis.featureresponses.PatternPresenter</title>
<path fill="none" stroke="black" stroke-width="0.5" d="M184.026,-124C195.133,-124 206.615,-124 218.084,-124"/>
<polygon fill="black" stroke="black" points="218.352,-125.75 223.352,-124 218.352,-122.25 218.352,-125.75"/>
</g>
<!-- topo.analysis.featureresponses.Feature -->
<g id="node22" class="node"><title>topo.analysis.featureresponses.Feature</title>
<polygon fill="none" stroke="black" stroke-width="0.5" points="439,-96 245,-96 245,-76 439,-76 439,-96"/>
<text text-anchor="middle" x="342" y="-83" font-family="Vera" font-size="10.00">topo.analysis.featureresponses.Feature</text>
</g>
<!-- param.parameterized.Parameterized&#45;&gt;topo.analysis.featureresponses.Feature -->
<g id="edge20" class="edge"><title>param.parameterized.Parameterized&#45;&gt;topo.analysis.featureresponses.Feature</title>
<path fill="none" stroke="black" stroke-width="0.5" d="M158.012,-113.966C192.758,-108.685 235.394,-102.204 270.872,-96.8115"/>
<polygon fill="black" stroke="black" points="271.372,-98.5056 276.052,-96.024 270.846,-95.0454 271.372,-98.5056"/>
</g>
<!-- topo.analysis.featureresponses.DistributionMatrix -->
<g id="node25" class="node"><title>topo.analysis.featureresponses.DistributionMatrix</title>
<polygon fill="none" stroke="black" stroke-width="0.5" points="463,-58 221,-58 221,-38 463,-38 463,-58"/>
<text text-anchor="middle" x="342" y="-45" font-family="Vera" font-size="10.00">topo.analysis.featureresponses.DistributionMatrix</text>
</g>
<!-- param.parameterized.Parameterized&#45;&gt;topo.analysis.featureresponses.DistributionMatrix -->
<g id="edge24" class="edge"><title>param.parameterized.Parameterized&#45;&gt;topo.analysis.featureresponses.DistributionMatrix</title>
<path fill="none" stroke="black" stroke-width="0.5" d="M110.489,-113.886C134.858,-101.001 179.401,-78.9706 220,-67 230.609,-63.872 241.897,-61.2331 253.16,-59.0131"/>
<polygon fill="black" stroke="black" points="253.75,-60.6821 258.331,-58.0224 253.091,-57.2447 253.75,-60.6821"/>
</g>
<!-- topo.analysis.featureresponses.Subplotting -->
<g id="node27" class="node"><title>topo.analysis.featureresponses.Subplotting</title>
<polygon fill="none" stroke="black" stroke-width="0.5" points="448,-20 236,-20 236,-1.06581e-14 448,-3.55271e-15 448,-20"/>
<text text-anchor="middle" x="342" y="-7" font-family="Vera" font-size="10.00">topo.analysis.featureresponses.Subplotting</text>
</g>
<!-- param.parameterized.Parameterized&#45;&gt;topo.analysis.featureresponses.Subplotting -->
<g id="edge26" class="edge"><title>param.parameterized.Parameterized&#45;&gt;topo.analysis.featureresponses.Subplotting</title>
<path fill="none" stroke="black" stroke-width="0.5" d="M101.86,-113.939C122.01,-94.052 170.222,-49.84 220,-29 227.205,-25.9836 234.83,-23.441 242.61,-21.2984"/>
<polygon fill="black" stroke="black" points="243.085,-22.9833 247.472,-20.0153 242.191,-19.5991 243.085,-22.9833"/>
</g>
<!-- topo.analysis.featureresponses.FeatureResponses -->
<g id="node7" class="node"><title>topo.analysis.featureresponses.FeatureResponses</title>
<polygon fill="none" stroke="black" stroke-width="0.5" points="766,-229 524,-229 524,-209 766,-209 766,-229"/>
<text text-anchor="middle" x="645" y="-216" font-family="Vera" font-size="10.00">topo.analysis.featureresponses.FeatureResponses</text>
</g>
<!-- topo.base.functionfamily.PatternDrivenAnalysis&#45;&gt;topo.analysis.featureresponses.FeatureResponses -->
<g id="edge34" class="edge"><title>topo.base.functionfamily.PatternDrivenAnalysis&#45;&gt;topo.analysis.featureresponses.FeatureResponses</title>
<path fill="none" stroke="black" stroke-width="0.5" d="M458.281,-207.292C478.051,-208.531 498.668,-209.824 518.682,-211.079"/>
<polygon fill="black" stroke="black" points="518.656,-212.831 523.756,-211.397 518.876,-209.338 518.656,-212.831"/>
</g>
<!-- topo.analysis.featureresponses.ReverseCorrelation -->
<g id="node6" class="node"><title>topo.analysis.featureresponses.ReverseCorrelation</title>
<polygon fill="none" stroke="black" stroke-width="0.5" points="1118,-286 872,-286 872,-266 1118,-266 1118,-286"/>
<text text-anchor="middle" x="995" y="-273" font-family="Vera" font-size="10.00">topo.analysis.featureresponses.ReverseCorrelation</text>
</g>
<!-- topo.analysis.featureresponses.FeatureResponses&#45;&gt;topo.analysis.featureresponses.ReverseCorrelation -->
<g id="edge6" class="edge"><title>topo.analysis.featureresponses.FeatureResponses&#45;&gt;topo.analysis.featureresponses.ReverseCorrelation</title>
<path fill="none" stroke="black" stroke-width="0.5" d="M687.211,-229.049C723.76,-237.464 778.131,-249.302 826,-257 845.617,-260.155 866.6,-262.964 886.873,-265.391"/>
<polygon fill="black" stroke="black" points="886.84,-267.149 892.011,-266 887.252,-263.674 886.84,-267.149"/>
</g>
<!-- topo.analysis.featureresponses.FeatureMaps -->
<g id="node18" class="node"><title>topo.analysis.featureresponses.FeatureMaps</title>
<polygon fill="none" stroke="black" stroke-width="0.5" points="1104,-248 886,-248 886,-228 1104,-228 1104,-248"/>
<text text-anchor="middle" x="995" y="-235" font-family="Vera" font-size="10.00">topo.analysis.featureresponses.FeatureMaps</text>
</g>
<!-- topo.analysis.featureresponses.FeatureResponses&#45;&gt;topo.analysis.featureresponses.FeatureMaps -->
<g id="edge16" class="edge"><title>topo.analysis.featureresponses.FeatureResponses&#45;&gt;topo.analysis.featureresponses.FeatureMaps</title>
<path fill="none" stroke="black" stroke-width="0.5" d="M766.431,-225.592C803.315,-227.594 843.712,-229.787 880.149,-231.765"/>
<polygon fill="black" stroke="black" points="880.408,-233.532 885.495,-232.055 880.598,-230.037 880.408,-233.532"/>
</g>
<!-- topo.analysis.featureresponses.FeatureCurves -->
<g id="node31" class="node"><title>topo.analysis.featureresponses.FeatureCurves</title>
<polygon fill="none" stroke="black" stroke-width="0.5" points="1107,-210 883,-210 883,-190 1107,-190 1107,-210"/>
<text text-anchor="middle" x="995" y="-197" font-family="Vera" font-size="10.00">topo.analysis.featureresponses.FeatureCurves</text>
</g>
<!-- topo.analysis.featureresponses.FeatureResponses&#45;&gt;topo.analysis.featureresponses.FeatureCurves -->
<g id="edge30" class="edge"><title>topo.analysis.featureresponses.FeatureResponses&#45;&gt;topo.analysis.featureresponses.FeatureCurves</title>
<path fill="none" stroke="black" stroke-width="0.5" d="M766.431,-212.408C802.28,-210.462 841.448,-208.336 877.072,-206.402"/>
<polygon fill="black" stroke="black" points="877.404,-208.136 882.302,-206.118 877.214,-204.642 877.404,-208.136"/>
</g>
<!-- topo.analysis.featureresponses.MeasureResponseCommand -->
<g id="node11" class="node"><title>topo.analysis.featureresponses.MeasureResponseCommand</title>
<polygon fill="none" stroke="black" stroke-width="0.5" points="790,-153 500,-153 500,-133 790,-133 790,-153"/>
<text text-anchor="middle" x="645" y="-140" font-family="Vera" font-size="10.00">topo.analysis.featureresponses.MeasureResponseCommand</text>
</g>
<!-- param.parameterized.ParameterizedFunction&#45;&gt;topo.analysis.featureresponses.MeasureResponseCommand -->
<g id="edge10" class="edge"><title>param.parameterized.ParameterizedFunction&#45;&gt;topo.analysis.featureresponses.MeasureResponseCommand</title>
<path fill="none" stroke="black" stroke-width="0.5" d="M453.535,-155.006C466.986,-154.163 480.889,-153.291 494.778,-152.42"/>
<polygon fill="black" stroke="black" points="495.012,-154.159 499.893,-152.099 494.793,-150.666 495.012,-154.159"/>
</g>
<!-- topo.analysis.featureresponses.SingleInputResponseCommand -->
<g id="node13" class="node"><title>topo.analysis.featureresponses.SingleInputResponseCommand</title>
<polygon fill="none" stroke="black" stroke-width="0.5" points="1146,-172 844,-172 844,-152 1146,-152 1146,-172"/>
<text text-anchor="middle" x="995" y="-159" font-family="Vera" font-size="10.00">topo.analysis.featureresponses.SingleInputResponseCommand</text>
</g>
<!-- topo.analysis.featureresponses.MeasureResponseCommand&#45;&gt;topo.analysis.featureresponses.SingleInputResponseCommand -->
<g id="edge12" class="edge"><title>topo.analysis.featureresponses.MeasureResponseCommand&#45;&gt;topo.analysis.featureresponses.SingleInputResponseCommand</title>
<path fill="none" stroke="black" stroke-width="0.5" d="M790.138,-150.879C805.925,-151.736 822.047,-152.611 837.968,-153.475"/>
<polygon fill="black" stroke="black" points="838.272,-155.244 843.359,-153.768 838.462,-151.75 838.272,-155.244"/>
</g>
<!-- topo.analysis.featureresponses.SinusoidalMeasureResponseCommand -->
<g id="node16" class="node"><title>topo.analysis.featureresponses.SinusoidalMeasureResponseCommand</title>
<polygon fill="none" stroke="black" stroke-width="0.5" points="1163,-134 827,-134 827,-114 1163,-114 1163,-134"/>
<text text-anchor="middle" x="995" y="-121" font-family="Vera" font-size="10.00">topo.analysis.featureresponses.SinusoidalMeasureResponseCommand</text>
</g>
<!-- topo.analysis.featureresponses.MeasureResponseCommand&#45;&gt;topo.analysis.featureresponses.SinusoidalMeasureResponseCommand -->
<g id="edge22" class="edge"><title>topo.analysis.featureresponses.MeasureResponseCommand&#45;&gt;topo.analysis.featureresponses.SinusoidalMeasureResponseCommand</title>
<path fill="none" stroke="black" stroke-width="0.5" d="M790.138,-135.121C800.394,-134.564 810.791,-134 821.182,-133.436"/>
<polygon fill="black" stroke="black" points="821.384,-135.178 826.282,-133.159 821.195,-131.683 821.384,-135.178"/>
</g>
<!-- topo.analysis.featureresponses.PositionMeasurementCommand -->
<g id="node33" class="node"><title>topo.analysis.featureresponses.PositionMeasurementCommand</title>
<polygon fill="none" stroke="black" stroke-width="0.5" points="1148,-96 842,-96 842,-76 1148,-76 1148,-96"/>
<text text-anchor="middle" x="995" y="-83" font-family="Vera" font-size="10.00">topo.analysis.featureresponses.PositionMeasurementCommand</text>
</g>
<!-- topo.analysis.featureresponses.MeasureResponseCommand&#45;&gt;topo.analysis.featureresponses.PositionMeasurementCommand -->
<g id="edge32" class="edge"><title>topo.analysis.featureresponses.MeasureResponseCommand&#45;&gt;topo.analysis.featureresponses.PositionMeasurementCommand</title>
<path fill="none" stroke="black" stroke-width="0.5" d="M687.211,-132.951C723.76,-124.536 778.131,-112.698 826,-105 845.617,-101.845 866.6,-99.0362 886.873,-96.609"/>
<polygon fill="black" stroke="black" points="887.252,-98.3264 892.011,-96.0001 886.84,-94.8508 887.252,-98.3264"/>
</g>
<!-- topo.analysis.featureresponses.FeatureCurveCommand -->
<g id="node15" class="node"><title>topo.analysis.featureresponses.FeatureCurveCommand</title>
<polygon fill="none" stroke="black" stroke-width="0.5" points="1468,-134 1200,-134 1200,-114 1468,-114 1468,-134"/>
<text text-anchor="middle" x="1334" y="-121" font-family="Vera" font-size="10.00">topo.analysis.featureresponses.FeatureCurveCommand</text>
</g>
<!-- topo.analysis.featureresponses.UnitCurveCommand -->
<g id="node29" class="node"><title>topo.analysis.featureresponses.UnitCurveCommand</title>
<polygon fill="none" stroke="black" stroke-width="0.5" points="1757,-134 1505,-134 1505,-114 1757,-114 1757,-134"/>
<text text-anchor="middle" x="1631" y="-121" font-family="Vera" font-size="10.00">topo.analysis.featureresponses.UnitCurveCommand</text>
</g>
<!-- topo.analysis.featureresponses.FeatureCurveCommand&#45;&gt;topo.analysis.featureresponses.UnitCurveCommand -->
<g id="edge28" class="edge"><title>topo.analysis.featureresponses.FeatureCurveCommand&#45;&gt;topo.analysis.featureresponses.UnitCurveCommand</title>
<path fill="none" stroke="black" stroke-width="0.5" d="M1468.16,-124C1478.47,-124 1488.86,-124 1499.15,-124"/>
<polygon fill="black" stroke="black" points="1499.2,-125.75 1504.2,-124 1499.2,-122.25 1499.2,-125.75"/>
</g>
<!-- topo.analysis.featureresponses.SinusoidalMeasureResponseCommand&#45;&gt;topo.analysis.featureresponses.FeatureCurveCommand -->
<g id="edge14" class="edge"><title>topo.analysis.featureresponses.SinusoidalMeasureResponseCommand&#45;&gt;topo.analysis.featureresponses.FeatureCurveCommand</title>
<path fill="none" stroke="black" stroke-width="0.5" d="M1163.51,-124C1173.93,-124 1184.36,-124 1194.64,-124"/>
<polygon fill="black" stroke="black" points="1194.67,-125.75 1199.67,-124 1194.67,-122.25 1194.67,-125.75"/>
</g>
</g>
</svg>
