<?xml version="1.0" encoding="UTF-8" standalone="no"?>
<!DOCTYPE svg PUBLIC "-//W3C//DTD SVG 1.1//EN"
 "http://www.w3.org/Graphics/SVG/1.1/DTD/svg11.dtd">
<!-- Generated by graphviz version 2.26.3 (20100126.1600)
 -->
<!-- Title: inheritanceb37826b6ea Pages: 1 -->
<svg width="380pt" height="28pt"
 viewBox="0.00 0.00 380.00 28.00" xmlns="http://www.w3.org/2000/svg" xmlns:xlink="http://www.w3.org/1999/xlink">
<g id="graph1" class="graph" transform="scale(1 1) rotate(0) translate(4 24)">
<title>inheritanceb37826b6ea</title>
<polygon fill="white" stroke="white" points="-4,5 -4,-24 377,-24 377,5 -4,5"/>
<!-- unittest.case.TestCase -->
<g id="node1" class="node"><title>unittest.case.TestCase</title>
<polygon fill="none" stroke="black" stroke-width="0.5" points="116,-20 4.9738e-14,-20 0,-1.06581e-14 116,-3.55271e-15 116,-20"/>
<text text-anchor="middle" x="58" y="-7" font-family="Vera" font-size="10.00">unittest.case.TestCase</text>
</g>
<!-- topo.tests.unit.testsimulation.TestSimulation -->
<g id="node2" class="node"><title>topo.tests.unit.testsimulation.TestSimulation</title>
<polygon fill="none" stroke="black" stroke-width="0.5" points="371,-20 153,-20 153,-1.06581e-14 371,-3.55271e-15 371,-20"/>
<text text-anchor="middle" x="262" y="-7" font-family="Vera" font-size="10.00">topo.tests.unit.testsimulation.TestSimulation</text>
</g>
<!-- unittest.case.TestCase&#45;&gt;topo.tests.unit.testsimulation.TestSimulation -->
<g id="edge2" class="edge"><title>unittest.case.TestCase&#45;&gt;topo.tests.unit.testsimulation.TestSimulation</title>
<path fill="none" stroke="black" stroke-width="0.5" d="M116.185,-10C126.002,-10 136.488,-10 147.164,-10"/>
<polygon fill="black" stroke="black" points="147.418,-11.7501 152.418,-10 147.418,-8.2501 147.418,-11.7501"/>
</g>
</g>
</svg>
