<?xml version="1.0" encoding="UTF-8" standalone="no"?>
<!DOCTYPE svg PUBLIC "-//W3C//DTD SVG 1.1//EN"
 "http://www.w3.org/Graphics/SVG/1.1/DTD/svg11.dtd">
<!-- Generated by graphviz version 2.26.3 (20100126.1600)
 -->
<!-- Title: inheritance97c36bc686 Pages: 1 -->
<svg width="2210pt" height="180pt"
 viewBox="0.00 0.00 2210.00 180.00" xmlns="http://www.w3.org/2000/svg" xmlns:xlink="http://www.w3.org/1999/xlink">
<g id="graph1" class="graph" transform="scale(1 1) rotate(0) translate(4 176)">
<title>inheritance97c36bc686</title>
<polygon fill="white" stroke="white" points="-4,5 -4,-176 2207,-176 2207,5 -4,5"/>
<!-- topo.plotting.plotgroup.RFProjectionPlotGroup -->
<g id="node1" class="node"><title>topo.plotting.plotgroup.RFProjectionPlotGroup</title>
<polygon fill="none" stroke="black" stroke-width="0.5" points="1925,-172 1697,-172 1697,-152 1925,-152 1925,-172"/>
<text text-anchor="middle" x="1811" y="-159" font-family="Vera" font-size="10.00">topo.plotting.plotgroup.RFProjectionPlotGroup</text>
</g>
<!-- topo.plotting.plotgroup.GridPlotGroup -->
<g id="node2" class="node"><title>topo.plotting.plotgroup.GridPlotGroup</title>
<polygon fill="none" stroke="black" stroke-width="0.5" points="1620,-134 1430,-134 1430,-114 1620,-114 1620,-134"/>
<text text-anchor="middle" x="1525" y="-121" font-family="Vera" font-size="10.00">topo.plotting.plotgroup.GridPlotGroup</text>
</g>
<!-- topo.plotting.plotgroup.GridPlotGroup&#45;&gt;topo.plotting.plotgroup.RFProjectionPlotGroup -->
<g id="edge2" class="edge"><title>topo.plotting.plotgroup.GridPlotGroup&#45;&gt;topo.plotting.plotgroup.RFProjectionPlotGroup</title>
<path fill="none" stroke="black" stroke-width="0.5" d="M1600.52,-134.034C1640.43,-139.337 1689.44,-145.849 1730.13,-151.255"/>
<polygon fill="black" stroke="black" points="1730.37,-153.052 1735.56,-151.976 1730.83,-149.583 1730.37,-153.052"/>
</g>
<!-- topo.plotting.plotgroup.ProjectionPlotGroup -->
<g id="node7" class="node"><title>topo.plotting.plotgroup.ProjectionPlotGroup</title>
<polygon fill="none" stroke="black" stroke-width="0.5" points="1920,-134 1702,-134 1702,-114 1920,-114 1920,-134"/>
<text text-anchor="middle" x="1811" y="-121" font-family="Vera" font-size="10.00">topo.plotting.plotgroup.ProjectionPlotGroup</text>
</g>
<!-- topo.plotting.plotgroup.GridPlotGroup&#45;&gt;topo.plotting.plotgroup.ProjectionPlotGroup -->
<g id="edge6" class="edge"><title>topo.plotting.plotgroup.GridPlotGroup&#45;&gt;topo.plotting.plotgroup.ProjectionPlotGroup</title>
<path fill="none" stroke="black" stroke-width="0.5" d="M1620.63,-124C1644.99,-124 1671.41,-124 1696.61,-124"/>
<polygon fill="black" stroke="black" points="1696.63,-125.75 1701.63,-124 1696.63,-122.25 1696.63,-125.75"/>
</g>
<!-- topo.plotting.plotgroup.ConnectionFieldsPlotGroup -->
<g id="node4" class="node"><title>topo.plotting.plotgroup.ConnectionFieldsPlotGroup</title>
<polygon fill="none" stroke="black" stroke-width="0.5" points="1935,-96 1687,-96 1687,-76 1935,-76 1935,-96"/>
<text text-anchor="middle" x="1811" y="-83" font-family="Vera" font-size="10.00">topo.plotting.plotgroup.ConnectionFieldsPlotGroup</text>
</g>
<!-- topo.plotting.plotgroup.UnitPlotGroup -->
<g id="node5" class="node"><title>topo.plotting.plotgroup.UnitPlotGroup</title>
<polygon fill="none" stroke="black" stroke-width="0.5" points="1620,-96 1430,-96 1430,-76 1620,-76 1620,-96"/>
<text text-anchor="middle" x="1525" y="-83" font-family="Vera" font-size="10.00">topo.plotting.plotgroup.UnitPlotGroup</text>
</g>
<!-- topo.plotting.plotgroup.UnitPlotGroup&#45;&gt;topo.plotting.plotgroup.ConnectionFieldsPlotGroup -->
<g id="edge4" class="edge"><title>topo.plotting.plotgroup.UnitPlotGroup&#45;&gt;topo.plotting.plotgroup.ConnectionFieldsPlotGroup</title>
<path fill="none" stroke="black" stroke-width="0.5" d="M1620.63,-86C1640.09,-86 1660.87,-86 1681.29,-86"/>
<polygon fill="black" stroke="black" points="1681.47,-87.7501 1686.47,-86 1681.47,-84.2501 1681.47,-87.7501"/>
</g>
<!-- topo.plotting.plotgroup.FeatureCurvePlotGroup -->
<g id="node16" class="node"><title>topo.plotting.plotgroup.FeatureCurvePlotGroup</title>
<polygon fill="none" stroke="black" stroke-width="0.5" points="1927,-58 1695,-58 1695,-38 1927,-38 1927,-58"/>
<text text-anchor="middle" x="1811" y="-45" font-family="Vera" font-size="10.00">topo.plotting.plotgroup.FeatureCurvePlotGroup</text>
</g>
<!-- topo.plotting.plotgroup.UnitPlotGroup&#45;&gt;topo.plotting.plotgroup.FeatureCurvePlotGroup -->
<g id="edge14" class="edge"><title>topo.plotting.plotgroup.UnitPlotGroup&#45;&gt;topo.plotting.plotgroup.FeatureCurvePlotGroup</title>
<path fill="none" stroke="black" stroke-width="0.5" d="M1600.52,-75.9662C1640.43,-70.6631 1689.44,-64.1509 1730.13,-58.7453"/>
<polygon fill="black" stroke="black" points="1730.83,-60.4174 1735.56,-58.024 1730.37,-56.9479 1730.83,-60.4174"/>
</g>
<!-- topo.plotting.plotgroup.CFProjectionPlotGroup -->
<g id="node32" class="node"><title>topo.plotting.plotgroup.CFProjectionPlotGroup</title>
<polygon fill="none" stroke="black" stroke-width="0.5" points="2201,-134 1973,-134 1973,-114 2201,-114 2201,-134"/>
<text text-anchor="middle" x="2087" y="-121" font-family="Vera" font-size="10.00">topo.plotting.plotgroup.CFProjectionPlotGroup</text>
</g>
<!-- topo.plotting.plotgroup.ProjectionPlotGroup&#45;&gt;topo.plotting.plotgroup.CFProjectionPlotGroup -->
<g id="edge32" class="edge"><title>topo.plotting.plotgroup.ProjectionPlotGroup&#45;&gt;topo.plotting.plotgroup.CFProjectionPlotGroup</title>
<path fill="none" stroke="black" stroke-width="0.5" d="M1920.08,-124C1935.52,-124 1951.45,-124 1967.08,-124"/>
<polygon fill="black" stroke="black" points="1967.36,-125.75 1972.36,-124 1967.36,-122.25 1967.36,-125.75"/>
</g>
<!-- topo.plotting.plotgroup.TemplatePlotGroup -->
<g id="node9" class="node"><title>topo.plotting.plotgroup.TemplatePlotGroup</title>
<polygon fill="none" stroke="black" stroke-width="0.5" points="1059,-58 845,-58 845,-38 1059,-38 1059,-58"/>
<text text-anchor="middle" x="952" y="-45" font-family="Vera" font-size="10.00">topo.plotting.plotgroup.TemplatePlotGroup</text>
</g>
<!-- topo.plotting.plotgroup.ProjectionSheetPlotGroup -->
<g id="node21" class="node"><title>topo.plotting.plotgroup.ProjectionSheetPlotGroup</title>
<polygon fill="none" stroke="black" stroke-width="0.5" points="1361,-96 1119,-96 1119,-76 1361,-76 1361,-96"/>
<text text-anchor="middle" x="1240" y="-83" font-family="Vera" font-size="10.00">topo.plotting.plotgroup.ProjectionSheetPlotGroup</text>
</g>
<!-- topo.plotting.plotgroup.TemplatePlotGroup&#45;&gt;topo.plotting.plotgroup.ProjectionSheetPlotGroup -->
<g id="edge20" class="edge"><title>topo.plotting.plotgroup.TemplatePlotGroup&#45;&gt;topo.plotting.plotgroup.ProjectionSheetPlotGroup</title>
<path fill="none" stroke="black" stroke-width="0.5" d="M1028.05,-58.0338C1068.4,-63.3585 1118,-69.9023 1159.06,-75.3209"/>
<polygon fill="black" stroke="black" points="1158.84,-77.0568 1164.03,-75.976 1159.3,-73.5869 1158.84,-77.0568"/>
</g>
<!-- topo.plotting.plotgroup.RetinotopyPlotGroup -->
<g id="node30" class="node"><title>topo.plotting.plotgroup.RetinotopyPlotGroup</title>
<polygon fill="none" stroke="black" stroke-width="0.5" points="1350,-58 1130,-58 1130,-38 1350,-38 1350,-58"/>
<text text-anchor="middle" x="1240" y="-45" font-family="Vera" font-size="10.00">topo.plotting.plotgroup.RetinotopyPlotGroup</text>
</g>
<!-- topo.plotting.plotgroup.TemplatePlotGroup&#45;&gt;topo.plotting.plotgroup.RetinotopyPlotGroup -->
<g id="edge30" class="edge"><title>topo.plotting.plotgroup.TemplatePlotGroup&#45;&gt;topo.plotting.plotgroup.RetinotopyPlotGroup</title>
<path fill="none" stroke="black" stroke-width="0.5" d="M1059.24,-48C1080.41,-48 1102.72,-48 1124.16,-48"/>
<polygon fill="black" stroke="black" points="1124.3,-49.7501 1129.3,-48 1124.3,-46.2501 1124.3,-49.7501"/>
</g>
<!-- topo.plotting.plotgroup.TwoOrientationsPlotGroup -->
<g id="node34" class="node"><title>topo.plotting.plotgroup.TwoOrientationsPlotGroup</title>
<polygon fill="none" stroke="black" stroke-width="0.5" points="1363,-20 1117,-20 1117,-1.06581e-14 1363,-3.55271e-15 1363,-20"/>
<text text-anchor="middle" x="1240" y="-7" font-family="Vera" font-size="10.00">topo.plotting.plotgroup.TwoOrientationsPlotGroup</text>
</g>
<!-- topo.plotting.plotgroup.TemplatePlotGroup&#45;&gt;topo.plotting.plotgroup.TwoOrientationsPlotGroup -->
<g id="edge34" class="edge"><title>topo.plotting.plotgroup.TemplatePlotGroup&#45;&gt;topo.plotting.plotgroup.TwoOrientationsPlotGroup</title>
<path fill="none" stroke="black" stroke-width="0.5" d="M1028.05,-37.9662C1068.4,-32.6415 1118,-26.0977 1159.06,-20.6791"/>
<polygon fill="black" stroke="black" points="1159.3,-22.4131 1164.03,-20.024 1158.84,-18.9432 1159.3,-22.4131"/>
</g>
<!-- topo.plotting.plotgroup.SheetPlotGroup -->
<g id="node10" class="node"><title>topo.plotting.plotgroup.SheetPlotGroup</title>
<polygon fill="none" stroke="black" stroke-width="0.5" points="732,-58 536,-58 536,-38 732,-38 732,-58"/>
<text text-anchor="middle" x="634" y="-45" font-family="Vera" font-size="10.00">topo.plotting.plotgroup.SheetPlotGroup</text>
</g>
<!-- topo.plotting.plotgroup.SheetPlotGroup&#45;&gt;topo.plotting.plotgroup.TemplatePlotGroup -->
<g id="edge8" class="edge"><title>topo.plotting.plotgroup.SheetPlotGroup&#45;&gt;topo.plotting.plotgroup.TemplatePlotGroup</title>
<path fill="none" stroke="black" stroke-width="0.5" d="M732.874,-48C766.761,-48 804.92,-48 839.785,-48"/>
<polygon fill="black" stroke="black" points="839.904,-49.7501 844.904,-48 839.904,-46.2501 839.904,-49.7501"/>
</g>
<!-- param.parameterized.Parameterized -->
<g id="node12" class="node"><title>param.parameterized.Parameterized</title>
<polygon fill="none" stroke="black" stroke-width="0.5" points="184,-39 8.52651e-14,-39 0,-19 184,-19 184,-39"/>
<text text-anchor="middle" x="92" y="-26" font-family="Vera" font-size="10.00">param.parameterized.Parameterized</text>
</g>
<!-- topo.plotting.plotgroup.PlotGroup -->
<g id="node13" class="node"><title>topo.plotting.plotgroup.PlotGroup</title>
<polygon fill="none" stroke="black" stroke-width="0.5" points="418,-58 246,-58 246,-38 418,-38 418,-58"/>
<text text-anchor="middle" x="332" y="-45" font-family="Vera" font-size="10.00">topo.plotting.plotgroup.PlotGroup</text>
</g>
<!-- param.parameterized.Parameterized&#45;&gt;topo.plotting.plotgroup.PlotGroup -->
<g id="edge10" class="edge"><title>param.parameterized.Parameterized&#45;&gt;topo.plotting.plotgroup.PlotGroup</title>
<path fill="none" stroke="black" stroke-width="0.5" d="M184.104,-36.2916C202.591,-37.7551 222.013,-39.2927 240.48,-40.7547"/>
<polygon fill="black" stroke="black" points="240.539,-42.5147 245.662,-41.1649 240.816,-39.0257 240.539,-42.5147"/>
</g>
<!-- param.parameterized.ParameterizedFunction -->
<g id="node18" class="node"><title>param.parameterized.ParameterizedFunction</title>
<polygon fill="none" stroke="black" stroke-width="0.5" points="443,-20 221,-20 221,-1.06581e-14 443,-3.55271e-15 443,-20"/>
<text text-anchor="middle" x="332" y="-7" font-family="Vera" font-size="10.00">param.parameterized.ParameterizedFunction</text>
</g>
<!-- param.parameterized.Parameterized&#45;&gt;param.parameterized.ParameterizedFunction -->
<g id="edge16" class="edge"><title>param.parameterized.Parameterized&#45;&gt;param.parameterized.ParameterizedFunction</title>
<path fill="none" stroke="black" stroke-width="0.5" d="M184.104,-21.7084C194.328,-20.899 204.838,-20.067 215.314,-19.2376"/>
<polygon fill="black" stroke="black" points="215.607,-20.97 220.453,-18.8308 215.331,-17.4809 215.607,-20.97"/>
</g>
<!-- topo.plotting.plotgroup.PlotGroup&#45;&gt;topo.plotting.plotgroup.SheetPlotGroup -->
<g id="edge12" class="edge"><title>topo.plotting.plotgroup.PlotGroup&#45;&gt;topo.plotting.plotgroup.SheetPlotGroup</title>
<path fill="none" stroke="black" stroke-width="0.5" d="M418.137,-48C452.949,-48 493.441,-48 529.887,-48"/>
<polygon fill="black" stroke="black" points="530.234,-49.7501 535.234,-48 530.233,-46.2501 530.234,-49.7501"/>
</g>
<!-- topo.plotting.plotgroup.ProjectionSheetMeasurementCommand -->
<g id="node27" class="node"><title>topo.plotting.plotgroup.ProjectionSheetMeasurementCommand</title>
<polygon fill="none" stroke="black" stroke-width="0.5" points="787,-20 481,-20 481,-1.06581e-14 787,-3.55271e-15 787,-20"/>
<text text-anchor="middle" x="634" y="-7" font-family="Vera" font-size="10.00">topo.plotting.plotgroup.ProjectionSheetMeasurementCommand</text>
</g>
<!-- param.parameterized.ParameterizedFunction&#45;&gt;topo.plotting.plotgroup.ProjectionSheetMeasurementCommand -->
<g id="edge28" class="edge"><title>param.parameterized.ParameterizedFunction&#45;&gt;topo.plotting.plotgroup.ProjectionSheetMeasurementCommand</title>
<path fill="none" stroke="black" stroke-width="0.5" d="M443.596,-10C453.92,-10 464.509,-10 475.149,-10"/>
<polygon fill="black" stroke="black" points="475.376,-11.7501 480.376,-10 475.376,-8.2501 475.376,-11.7501"/>
</g>
<!-- topo.plotting.plotgroup.ProjectionActivityPlotGroup -->
<g id="node20" class="node"><title>topo.plotting.plotgroup.ProjectionActivityPlotGroup</title>
<polygon fill="none" stroke="black" stroke-width="0.5" points="1650,-58 1400,-58 1400,-38 1650,-38 1650,-58"/>
<text text-anchor="middle" x="1525" y="-45" font-family="Vera" font-size="10.00">topo.plotting.plotgroup.ProjectionActivityPlotGroup</text>
</g>
<!-- topo.plotting.plotgroup.ProjectionSheetPlotGroup&#45;&gt;topo.plotting.plotgroup.GridPlotGroup -->
<g id="edge22" class="edge"><title>topo.plotting.plotgroup.ProjectionSheetPlotGroup&#45;&gt;topo.plotting.plotgroup.GridPlotGroup</title>
<path fill="none" stroke="black" stroke-width="0.5" d="M1315.25,-96.0338C1355.03,-101.337 1403.87,-107.849 1444.41,-113.255"/>
<polygon fill="black" stroke="black" points="1444.63,-115.05 1449.82,-113.976 1445.09,-111.58 1444.63,-115.05"/>
</g>
<!-- topo.plotting.plotgroup.ProjectionSheetPlotGroup&#45;&gt;topo.plotting.plotgroup.UnitPlotGroup -->
<g id="edge24" class="edge"><title>topo.plotting.plotgroup.ProjectionSheetPlotGroup&#45;&gt;topo.plotting.plotgroup.UnitPlotGroup</title>
<path fill="none" stroke="black" stroke-width="0.5" d="M1361.69,-86C1382.47,-86 1403.86,-86 1424.03,-86"/>
<polygon fill="black" stroke="black" points="1424.13,-87.7501 1429.13,-86 1424.13,-84.2501 1424.13,-87.7501"/>
</g>
<!-- topo.plotting.plotgroup.ProjectionSheetPlotGroup&#45;&gt;topo.plotting.plotgroup.ProjectionActivityPlotGroup -->
<g id="edge18" class="edge"><title>topo.plotting.plotgroup.ProjectionSheetPlotGroup&#45;&gt;topo.plotting.plotgroup.ProjectionActivityPlotGroup</title>
<path fill="none" stroke="black" stroke-width="0.5" d="M1315.25,-75.9662C1355.03,-70.6631 1403.87,-64.1509 1444.41,-58.7453"/>
<polygon fill="black" stroke="black" points="1445.09,-60.4196 1449.82,-58.024 1444.63,-56.9503 1445.09,-60.4196"/>
</g>
<!-- topo.plotting.plotgroup.UnitMeasurementCommand -->
<g id="node26" class="node"><title>topo.plotting.plotgroup.UnitMeasurementCommand</title>
<polygon fill="none" stroke="black" stroke-width="0.5" points="1079,-20 825,-20 825,-1.06581e-14 1079,-3.55271e-15 1079,-20"/>
<text text-anchor="middle" x="952" y="-7" font-family="Vera" font-size="10.00">topo.plotting.plotgroup.UnitMeasurementCommand</text>
</g>
<!-- topo.plotting.plotgroup.ProjectionSheetMeasurementCommand&#45;&gt;topo.plotting.plotgroup.UnitMeasurementCommand -->
<g id="edge26" class="edge"><title>topo.plotting.plotgroup.ProjectionSheetMeasurementCommand&#45;&gt;topo.plotting.plotgroup.UnitMeasurementCommand</title>
<path fill="none" stroke="black" stroke-width="0.5" d="M787.877,-10C798.367,-10 808.888,-10 819.255,-10"/>
<polygon fill="black" stroke="black" points="819.331,-11.7501 824.331,-10 819.331,-8.2501 819.331,-11.7501"/>
</g>
</g>
</svg>
