<?xml version="1.0" encoding="UTF-8" standalone="no"?>
<!DOCTYPE svg PUBLIC "-//W3C//DTD SVG 1.1//EN"
 "http://www.w3.org/Graphics/SVG/1.1/DTD/svg11.dtd">
<!-- Generated by graphviz version 2.26.3 (20100126.1600)
 -->
<!-- Title: inheritance09fca71fec Pages: 1 -->
<svg width="1140pt" height="180pt"
 viewBox="0.00 0.00 1140.00 180.00" xmlns="http://www.w3.org/2000/svg" xmlns:xlink="http://www.w3.org/1999/xlink">
<g id="graph1" class="graph" transform="scale(1 1) rotate(0) translate(4 176)">
<title>inheritance09fca71fec</title>
<polygon fill="white" stroke="white" points="-4,5 -4,-176 1137,-176 1137,5 -4,5"/>
<!-- Tkinter.Menu -->
<g id="node1" class="node"><title>Tkinter.Menu</title>
<polygon fill="none" stroke="black" stroke-width="0.5" points="622,-134.5 546,-134.5 546,-113.5 622,-113.5 622,-134.5"/>
<text text-anchor="middle" x="584" y="-121.5" font-family="Vera" font-size="10.00">Tkinter.Menu</text>
</g>
<!-- paramtk.Menu -->
<g id="node5" class="node"><title>paramtk.Menu</title>
<polygon fill="none" stroke="black" stroke-width="0.5" points="846,-134.5 760,-134.5 760,-113.5 846,-113.5 846,-134.5"/>
<text text-anchor="middle" x="803" y="-121.5" font-family="Vera" font-size="10.00">paramtk.Menu</text>
</g>
<!-- Tkinter.Menu&#45;&gt;paramtk.Menu -->
<g id="edge34" class="edge"><title>Tkinter.Menu&#45;&gt;paramtk.Menu</title>
<path fill="none" stroke="black" stroke-width="0.5" d="M622.649,-124C659.432,-124 714.908,-124 754.613,-124"/>
<polygon fill="black" stroke="black" points="754.862,-125.75 759.862,-124 754.862,-122.25 754.862,-125.75"/>
</g>
<!-- Tkinter.Widget -->
<g id="node2" class="node"><title>Tkinter.Widget</title>
<polygon fill="none" stroke="black" stroke-width="0.5" points="390,-134.5 308,-134.5 308,-113.5 390,-113.5 390,-134.5"/>
<text text-anchor="middle" x="349" y="-121.5" font-family="Vera" font-size="10.00">Tkinter.Widget</text>
</g>
<!-- Tkinter.Widget&#45;&gt;Tkinter.Menu -->
<g id="edge2" class="edge"><title>Tkinter.Widget&#45;&gt;Tkinter.Menu</title>
<path fill="none" stroke="black" stroke-width="0.5" d="M390.743,-124C432.821,-124 497.495,-124 540.269,-124"/>
<polygon fill="black" stroke="black" points="540.373,-125.75 545.373,-124 540.373,-122.25 540.373,-125.75"/>
</g>
<!-- paramtk.tilewrapper.Widget -->
<g id="node8" class="node"><title>paramtk.tilewrapper.Widget</title>
<polygon fill="none" stroke="black" stroke-width="0.5" points="657,-172.5 511,-172.5 511,-151.5 657,-151.5 657,-172.5"/>
<text text-anchor="middle" x="584" y="-159.5" font-family="Vera" font-size="10.00">paramtk.tilewrapper.Widget</text>
</g>
<!-- Tkinter.Widget&#45;&gt;paramtk.tilewrapper.Widget -->
<g id="edge8" class="edge"><title>Tkinter.Widget&#45;&gt;paramtk.tilewrapper.Widget</title>
<path fill="none" stroke="black" stroke-width="0.5" d="M390.743,-130.75C425.581,-136.383 475.909,-144.521 516.472,-151.081"/>
<polygon fill="black" stroke="black" points="516.659,-152.884 521.875,-151.954 517.218,-149.428 516.659,-152.884"/>
</g>
<!-- topo.tkgui.topoconsole.ControllableMenu -->
<g id="node4" class="node"><title>topo.tkgui.topoconsole.ControllableMenu</title>
<polygon fill="none" stroke="black" stroke-width="0.5" points="1132,-134.5 920,-134.5 920,-113.5 1132,-113.5 1132,-134.5"/>
<text text-anchor="middle" x="1026" y="-121.5" font-family="Vera" font-size="10.00">topo.tkgui.topoconsole.ControllableMenu</text>
</g>
<!-- paramtk.Menu&#45;&gt;topo.tkgui.topoconsole.ControllableMenu -->
<g id="edge4" class="edge"><title>paramtk.Menu&#45;&gt;topo.tkgui.topoconsole.ControllableMenu</title>
<path fill="none" stroke="black" stroke-width="0.5" d="M846.261,-124C866.009,-124 890.396,-124 914.767,-124"/>
<polygon fill="black" stroke="black" points="914.965,-125.75 919.965,-124 914.965,-122.25 914.965,-125.75"/>
</g>
<!-- paramtk.tilewrapper.Notebook -->
<g id="node7" class="node"><title>paramtk.tilewrapper.Notebook</title>
<polygon fill="none" stroke="black" stroke-width="0.5" points="883,-172.5 723,-172.5 723,-151.5 883,-151.5 883,-172.5"/>
<text text-anchor="middle" x="803" y="-159.5" font-family="Vera" font-size="10.00">paramtk.tilewrapper.Notebook</text>
</g>
<!-- topo.tkgui.topoconsole.DockManager -->
<g id="node42" class="node"><title>topo.tkgui.topoconsole.DockManager</title>
<polygon fill="none" stroke="black" stroke-width="0.5" points="1123,-172.5 929,-172.5 929,-151.5 1123,-151.5 1123,-172.5"/>
<text text-anchor="middle" x="1026" y="-159.5" font-family="Vera" font-size="10.00">topo.tkgui.topoconsole.DockManager</text>
</g>
<!-- paramtk.tilewrapper.Notebook&#45;&gt;topo.tkgui.topoconsole.DockManager -->
<g id="edge42" class="edge"><title>paramtk.tilewrapper.Notebook&#45;&gt;topo.tkgui.topoconsole.DockManager</title>
<path fill="none" stroke="black" stroke-width="0.5" d="M883.508,-162C896.394,-162 909.88,-162 923.2,-162"/>
<polygon fill="black" stroke="black" points="923.493,-163.75 928.493,-162 923.493,-160.25 923.493,-163.75"/>
</g>
<!-- paramtk.tilewrapper.Widget&#45;&gt;paramtk.tilewrapper.Notebook -->
<g id="edge6" class="edge"><title>paramtk.tilewrapper.Widget&#45;&gt;paramtk.tilewrapper.Notebook</title>
<path fill="none" stroke="black" stroke-width="0.5" d="M657.533,-162C676.582,-162 697.265,-162 716.896,-162"/>
<polygon fill="black" stroke="black" points="717.132,-163.75 722.132,-162 717.132,-160.25 717.132,-163.75"/>
</g>
<!-- Tkinter.Wm -->
<g id="node10" class="node"><title>Tkinter.Wm</title>
<polygon fill="none" stroke="black" stroke-width="0.5" points="196,-20.5 128,-20.5 128,0.5 196,0.5 196,-20.5"/>
<text text-anchor="middle" x="162" y="-7.5" font-family="Vera" font-size="10.00">Tkinter.Wm</text>
</g>
<!-- Tkinter.Toplevel -->
<g id="node32" class="node"><title>Tkinter.Toplevel</title>
<polygon fill="none" stroke="black" stroke-width="0.5" points="393,-20.5 305,-20.5 305,0.5 393,0.5 393,-20.5"/>
<text text-anchor="middle" x="349" y="-7.5" font-family="Vera" font-size="10.00">Tkinter.Toplevel</text>
</g>
<!-- Tkinter.Wm&#45;&gt;Tkinter.Toplevel -->
<g id="edge30" class="edge"><title>Tkinter.Wm&#45;&gt;Tkinter.Toplevel</title>
<path fill="none" stroke="black" stroke-width="0.5" d="M196.735,-10C225.509,-10 266.771,-10 299.085,-10"/>
<polygon fill="black" stroke="black" points="299.191,-11.7501 304.191,-10 299.191,-8.2501 299.191,-11.7501"/>
</g>
<!-- param.parameterized.Parameterized -->
<g id="node11" class="node"><title>param.parameterized.Parameterized</title>
<polygon fill="none" stroke="black" stroke-width="0.5" points="446,-77.5 252,-77.5 252,-56.5 446,-56.5 446,-77.5"/>
<text text-anchor="middle" x="349" y="-64.5" font-family="Vera" font-size="10.00">param.parameterized.Parameterized</text>
</g>
<!-- paramtk.TkParameterizedBase -->
<g id="node21" class="node"><title>paramtk.TkParameterizedBase</title>
<polygon fill="none" stroke="black" stroke-width="0.5" points="666,-96.5 502,-96.5 502,-75.5 666,-75.5 666,-96.5"/>
<text text-anchor="middle" x="584" y="-83.5" font-family="Vera" font-size="10.00">paramtk.TkParameterizedBase</text>
</g>
<!-- param.parameterized.Parameterized&#45;&gt;paramtk.TkParameterizedBase -->
<g id="edge14" class="edge"><title>param.parameterized.Parameterized&#45;&gt;paramtk.TkParameterizedBase</title>
<path fill="none" stroke="black" stroke-width="0.5" d="M446.28,-74.8652C462.987,-76.216 480.256,-77.6122 496.682,-78.9402"/>
<polygon fill="black" stroke="black" points="496.626,-80.6913 501.75,-79.35 496.908,-77.2027 496.626,-80.6913"/>
</g>
<!-- topo.tkgui.topoconsole.PlotsMenuEntry -->
<g id="node39" class="node"><title>topo.tkgui.topoconsole.PlotsMenuEntry</title>
<polygon fill="none" stroke="black" stroke-width="0.5" points="685,-58.5 483,-58.5 483,-37.5 685,-37.5 685,-58.5"/>
<text text-anchor="middle" x="584" y="-45.5" font-family="Vera" font-size="10.00">topo.tkgui.topoconsole.PlotsMenuEntry</text>
</g>
<!-- param.parameterized.Parameterized&#45;&gt;topo.tkgui.topoconsole.PlotsMenuEntry -->
<g id="edge38" class="edge"><title>param.parameterized.Parameterized&#45;&gt;topo.tkgui.topoconsole.PlotsMenuEntry</title>
<path fill="none" stroke="black" stroke-width="0.5" d="M446.28,-59.1348C456.48,-58.3101 466.89,-57.4685 477.189,-56.6358"/>
<polygon fill="black" stroke="black" points="477.392,-58.3751 482.235,-56.2278 477.11,-54.8865 477.392,-58.3751"/>
</g>
<!-- Tkinter.Pack -->
<g id="node12" class="node"><title>Tkinter.Pack</title>
<polygon fill="none" stroke="black" stroke-width="0.5" points="198,-172.5 126,-172.5 126,-151.5 198,-151.5 198,-172.5"/>
<text text-anchor="middle" x="162" y="-159.5" font-family="Vera" font-size="10.00">Tkinter.Pack</text>
</g>
<!-- Tkinter.Pack&#45;&gt;Tkinter.Widget -->
<g id="edge18" class="edge"><title>Tkinter.Pack&#45;&gt;Tkinter.Widget</title>
<path fill="none" stroke="black" stroke-width="0.5" d="M198.757,-154.113C215.056,-150.649 234.473,-146.566 252,-143 268.316,-139.68 286.199,-136.147 302.117,-133.04"/>
<polygon fill="black" stroke="black" points="302.862,-134.677 307.435,-132.003 302.193,-131.242 302.862,-134.677"/>
</g>
<!-- Tkinter.Place -->
<g id="node13" class="node"><title>Tkinter.Place</title>
<polygon fill="none" stroke="black" stroke-width="0.5" points="200,-134.5 124,-134.5 124,-113.5 200,-113.5 200,-134.5"/>
<text text-anchor="middle" x="162" y="-121.5" font-family="Vera" font-size="10.00">Tkinter.Place</text>
</g>
<!-- Tkinter.Place&#45;&gt;Tkinter.Widget -->
<g id="edge20" class="edge"><title>Tkinter.Place&#45;&gt;Tkinter.Widget</title>
<path fill="none" stroke="black" stroke-width="0.5" d="M200.747,-124C230.175,-124 270.777,-124 302.051,-124"/>
<polygon fill="black" stroke="black" points="302.381,-125.75 307.381,-124 302.381,-122.25 302.381,-125.75"/>
</g>
<!-- paramtk.tilewrapper.Style -->
<g id="node15" class="node"><title>paramtk.tilewrapper.Style</title>
<polygon fill="none" stroke="black" stroke-width="0.5" points="418,-172.5 280,-172.5 280,-151.5 418,-151.5 418,-172.5"/>
<text text-anchor="middle" x="349" y="-159.5" font-family="Vera" font-size="10.00">paramtk.tilewrapper.Style</text>
</g>
<!-- paramtk.tilewrapper.Style&#45;&gt;paramtk.tilewrapper.Widget -->
<g id="edge10" class="edge"><title>paramtk.tilewrapper.Style&#45;&gt;paramtk.tilewrapper.Widget</title>
<path fill="none" stroke="black" stroke-width="0.5" d="M418.554,-162C445.693,-162 476.951,-162 504.939,-162"/>
<polygon fill="black" stroke="black" points="505.125,-163.75 510.125,-162 505.125,-160.25 505.125,-163.75"/>
</g>
<!-- Tkinter.Grid -->
<g id="node17" class="node"><title>Tkinter.Grid</title>
<polygon fill="none" stroke="black" stroke-width="0.5" points="197,-96.5 127,-96.5 127,-75.5 197,-75.5 197,-96.5"/>
<text text-anchor="middle" x="162" y="-83.5" font-family="Vera" font-size="10.00">Tkinter.Grid</text>
</g>
<!-- Tkinter.Grid&#45;&gt;Tkinter.Widget -->
<g id="edge22" class="edge"><title>Tkinter.Grid&#45;&gt;Tkinter.Widget</title>
<path fill="none" stroke="black" stroke-width="0.5" d="M197.613,-93.237C227.287,-99.2669 269.785,-107.903 302.203,-114.491"/>
<polygon fill="black" stroke="black" points="302.068,-116.249 307.316,-115.53 302.765,-112.819 302.068,-116.249"/>
</g>
<!-- Tkinter.BaseWidget -->
<g id="node18" class="node"><title>Tkinter.BaseWidget</title>
<polygon fill="none" stroke="black" stroke-width="0.5" points="215,-58.5 109,-58.5 109,-37.5 215,-37.5 215,-58.5"/>
<text text-anchor="middle" x="162" y="-45.5" font-family="Vera" font-size="10.00">Tkinter.BaseWidget</text>
</g>
<!-- Tkinter.BaseWidget&#45;&gt;Tkinter.Widget -->
<g id="edge16" class="edge"><title>Tkinter.BaseWidget&#45;&gt;Tkinter.Widget</title>
<path fill="none" stroke="black" stroke-width="0.5" d="M193.145,-58.079C200.709,-60.7671 208.715,-63.8164 216,-67 232.578,-74.2442 235.552,-78.4663 252,-86 272.919,-95.5814 297.002,-105.024 315.938,-112.1"/>
<polygon fill="black" stroke="black" points="315.339,-113.745 320.636,-113.847 316.559,-110.464 315.339,-113.745"/>
</g>
<!-- Tkinter.BaseWidget&#45;&gt;Tkinter.Toplevel -->
<g id="edge28" class="edge"><title>Tkinter.BaseWidget&#45;&gt;Tkinter.Toplevel</title>
<path fill="none" stroke="black" stroke-width="0.5" d="M211.622,-37.9165C238.717,-32.4104 272.17,-25.6124 299.281,-20.1033"/>
<polygon fill="black" stroke="black" points="299.715,-21.801 304.266,-19.0902 299.018,-18.3711 299.715,-21.801"/>
</g>
<!-- Tkinter.Misc -->
<g id="node19" class="node"><title>Tkinter.Misc</title>
<polygon fill="none" stroke="black" stroke-width="0.5" points="72,-58.5 2.84217e-14,-58.5 0,-37.5 72,-37.5 72,-58.5"/>
<text text-anchor="middle" x="36" y="-45.5" font-family="Vera" font-size="10.00">Tkinter.Misc</text>
</g>
<!-- Tkinter.Misc&#45;&gt;Tkinter.BaseWidget -->
<g id="edge12" class="edge"><title>Tkinter.Misc&#45;&gt;Tkinter.BaseWidget</title>
<path fill="none" stroke="black" stroke-width="0.5" d="M72.1065,-48C81.7306,-48 92.3855,-48 102.895,-48"/>
<polygon fill="black" stroke="black" points="103.038,-49.7501 108.038,-48 103.038,-46.2501 103.038,-49.7501"/>
</g>
<!-- paramtk.TkParameterized -->
<g id="node30" class="node"><title>paramtk.TkParameterized</title>
<polygon fill="none" stroke="black" stroke-width="0.5" points="873,-96.5 733,-96.5 733,-75.5 873,-75.5 873,-96.5"/>
<text text-anchor="middle" x="803" y="-83.5" font-family="Vera" font-size="10.00">paramtk.TkParameterized</text>
</g>
<!-- paramtk.TkParameterizedBase&#45;&gt;paramtk.TkParameterized -->
<g id="edge32" class="edge"><title>paramtk.TkParameterizedBase&#45;&gt;paramtk.TkParameterized</title>
<path fill="none" stroke="black" stroke-width="0.5" d="M666.171,-86C686.423,-86 708.007,-86 727.904,-86"/>
<polygon fill="black" stroke="black" points="727.925,-87.7501 732.925,-86 727.925,-84.2501 727.925,-87.7501"/>
</g>
<!-- topo.tkgui.topoconsole.TopoConsole -->
<g id="node27" class="node"><title>topo.tkgui.topoconsole.TopoConsole</title>
<polygon fill="none" stroke="black" stroke-width="0.5" points="1120,-68.5 932,-68.5 932,-47.5 1120,-47.5 1120,-68.5"/>
<text text-anchor="middle" x="1026" y="-55.5" font-family="Vera" font-size="10.00">topo.tkgui.topoconsole.TopoConsole</text>
</g>
<!-- paramtk.AppWindow -->
<g id="node28" class="node"><title>paramtk.AppWindow</title>
<polygon fill="none" stroke="black" stroke-width="0.5" points="860,-39.5 746,-39.5 746,-18.5 860,-18.5 860,-39.5"/>
<text text-anchor="middle" x="803" y="-26.5" font-family="Vera" font-size="10.00">paramtk.AppWindow</text>
</g>
<!-- paramtk.AppWindow&#45;&gt;topo.tkgui.topoconsole.TopoConsole -->
<g id="edge24" class="edge"><title>paramtk.AppWindow&#45;&gt;topo.tkgui.topoconsole.TopoConsole</title>
<path fill="none" stroke="black" stroke-width="0.5" d="M860.138,-36.4306C885.529,-39.7325 915.899,-43.6819 943.671,-47.2935"/>
<polygon fill="black" stroke="black" points="943.641,-49.0543 948.825,-47.9638 944.092,-45.5835 943.641,-49.0543"/>
</g>
<!-- paramtk.TkParameterized&#45;&gt;topo.tkgui.topoconsole.TopoConsole -->
<g id="edge26" class="edge"><title>paramtk.TkParameterized&#45;&gt;topo.tkgui.topoconsole.TopoConsole</title>
<path fill="none" stroke="black" stroke-width="0.5" d="M873.253,-77.1791C894.736,-74.4816 918.597,-71.4856 940.952,-68.6786"/>
<polygon fill="black" stroke="black" points="941.254,-70.4046 945.997,-68.0452 940.818,-66.9319 941.254,-70.4046"/>
</g>
<!-- paramtk.ScrolledWindow -->
<g id="node37" class="node"><title>paramtk.ScrolledWindow</title>
<polygon fill="none" stroke="black" stroke-width="0.5" points="651,-20.5 517,-20.5 517,0.5 651,0.5 651,-20.5"/>
<text text-anchor="middle" x="584" y="-7.5" font-family="Vera" font-size="10.00">paramtk.ScrolledWindow</text>
</g>
<!-- Tkinter.Toplevel&#45;&gt;paramtk.ScrolledWindow -->
<g id="edge36" class="edge"><title>Tkinter.Toplevel&#45;&gt;paramtk.ScrolledWindow</title>
<path fill="none" stroke="black" stroke-width="0.5" d="M393.755,-10C427.019,-10 473.106,-10 511.588,-10"/>
<polygon fill="black" stroke="black" points="511.724,-11.7501 516.724,-10 511.724,-8.2501 511.724,-11.7501"/>
</g>
<!-- paramtk.ScrolledWindow&#45;&gt;paramtk.AppWindow -->
<g id="edge40" class="edge"><title>paramtk.ScrolledWindow&#45;&gt;paramtk.AppWindow</title>
<path fill="none" stroke="black" stroke-width="0.5" d="M651.196,-15.8297C679.722,-18.3046 712.775,-21.1723 740.742,-23.5986"/>
<polygon fill="black" stroke="black" points="740.77,-25.3575 745.902,-24.0463 741.072,-21.8706 740.77,-25.3575"/>
</g>
</g>
</svg>
