<?xml version="1.0" encoding="UTF-8" standalone="no"?>
<!DOCTYPE svg PUBLIC "-//W3C//DTD SVG 1.1//EN"
 "http://www.w3.org/Graphics/SVG/1.1/DTD/svg11.dtd">
<!-- Generated by graphviz version 2.26.3 (20100126.1600)
 -->
<!-- Title: inheritance95afd34832 Pages: 1 -->
<svg width="1474pt" height="588pt"
 viewBox="0.00 0.00 1474.00 588.00" xmlns="http://www.w3.org/2000/svg" xmlns:xlink="http://www.w3.org/1999/xlink">
<g id="graph1" class="graph" transform="scale(1 1) rotate(0) translate(4 584)">
<title>inheritance95afd34832</title>
<polygon fill="white" stroke="white" points="-4,5 -4,-584 1471,-584 1471,5 -4,5"/>
<!-- paramtk.ListWidget -->
<g id="node1" class="node"><title>paramtk.ListWidget</title>
<polygon fill="none" stroke="black" stroke-width="0.5" points="957,-362.5 849,-362.5 849,-341.5 957,-341.5 957,-362.5"/>
<text text-anchor="middle" x="903" y="-349.5" font-family="Vera" font-size="10.00">paramtk.ListWidget</text>
</g>
<!-- Tkinter.Frame -->
<g id="node2" class="node"><title>Tkinter.Frame</title>
<polygon fill="none" stroke="black" stroke-width="0.5" points="757,-267.5 677,-267.5 677,-246.5 757,-246.5 757,-267.5"/>
<text text-anchor="middle" x="717" y="-254.5" font-family="Vera" font-size="10.00">Tkinter.Frame</text>
</g>
<!-- Tkinter.Frame&#45;&gt;paramtk.ListWidget -->
<g id="edge2" class="edge"><title>Tkinter.Frame&#45;&gt;paramtk.ListWidget</title>
<path fill="none" stroke="black" stroke-width="0.5" d="M757.59,-261.466C769.5,-264.246 781.999,-268.742 792,-276 816.25,-293.599 803.75,-315.401 828,-333 832.756,-336.452 838.077,-339.279 843.631,-341.593"/>
<polygon fill="black" stroke="black" points="843.049,-343.245 848.343,-343.42 844.314,-339.981 843.049,-343.245"/>
</g>
<!-- paramtk.ProgressWindow -->
<g id="node7" class="node"><title>paramtk.ProgressWindow</title>
<polygon fill="none" stroke="black" stroke-width="0.5" points="971,-447.5 835,-447.5 835,-426.5 971,-426.5 971,-447.5"/>
<text text-anchor="middle" x="903" y="-434.5" font-family="Vera" font-size="10.00">paramtk.ProgressWindow</text>
</g>
<!-- Tkinter.Frame&#45;&gt;paramtk.ProgressWindow -->
<g id="edge8" class="edge"><title>Tkinter.Frame&#45;&gt;paramtk.ProgressWindow</title>
<path fill="none" stroke="black" stroke-width="0.5" d="M757.888,-259.473C770.231,-262.127 782.904,-267.05 792,-276 835.652,-318.949 786.757,-363.733 828,-409 834.239,-415.848 842.314,-421.028 850.846,-424.945"/>
<polygon fill="black" stroke="black" points="850.339,-426.632 855.624,-426.994 851.718,-423.415 850.339,-426.632"/>
</g>
<!-- paramtk.ListItemCtrlWidget -->
<g id="node11" class="node"><title>paramtk.ListItemCtrlWidget</title>
<polygon fill="none" stroke="black" stroke-width="0.5" points="976,-324.5 830,-324.5 830,-303.5 976,-303.5 976,-324.5"/>
<text text-anchor="middle" x="903" y="-311.5" font-family="Vera" font-size="10.00">paramtk.ListItemCtrlWidget</text>
</g>
<!-- Tkinter.Frame&#45;&gt;paramtk.ListItemCtrlWidget -->
<g id="edge10" class="edge"><title>Tkinter.Frame&#45;&gt;paramtk.ListItemCtrlWidget</title>
<path fill="none" stroke="black" stroke-width="0.5" d="M757.64,-265.428C768.936,-268.271 781.092,-271.808 792,-276 808.888,-282.489 811.112,-288.511 828,-295 835.372,-297.833 843.314,-300.367 851.175,-302.589"/>
<polygon fill="black" stroke="black" points="850.769,-304.293 856.054,-303.933 851.698,-300.918 850.769,-304.293"/>
</g>
<!-- paramtk.HackFileEntry -->
<g id="node13" class="node"><title>paramtk.HackFileEntry</title>
<polygon fill="none" stroke="black" stroke-width="0.5" points="965,-286.5 841,-286.5 841,-265.5 965,-265.5 965,-286.5"/>
<text text-anchor="middle" x="903" y="-273.5" font-family="Vera" font-size="10.00">paramtk.HackFileEntry</text>
</g>
<!-- Tkinter.Frame&#45;&gt;paramtk.HackFileEntry -->
<g id="edge12" class="edge"><title>Tkinter.Frame&#45;&gt;paramtk.HackFileEntry</title>
<path fill="none" stroke="black" stroke-width="0.5" d="M757.818,-261.17C780.576,-263.494 809.498,-266.449 835.527,-269.108"/>
<polygon fill="black" stroke="black" points="835.54,-270.868 840.692,-269.635 835.896,-267.386 835.54,-270.868"/>
</g>
<!-- paramtk.ParametersFrame -->
<g id="node15" class="node"><title>paramtk.ParametersFrame</title>
<polygon fill="none" stroke="black" stroke-width="0.5" points="976,-400.5 830,-400.5 830,-379.5 976,-379.5 976,-400.5"/>
<text text-anchor="middle" x="903" y="-387.5" font-family="Vera" font-size="10.00">paramtk.ParametersFrame</text>
</g>
<!-- Tkinter.Frame&#45;&gt;paramtk.ParametersFrame -->
<g id="edge16" class="edge"><title>Tkinter.Frame&#45;&gt;paramtk.ParametersFrame</title>
<path fill="none" stroke="black" stroke-width="0.5" d="M757.77,-260.099C769.962,-262.801 782.577,-267.596 792,-276 825.696,-306.055 794.304,-340.945 828,-371 830.757,-373.459 833.786,-375.608 836.999,-377.487"/>
<polygon fill="black" stroke="black" points="836.25,-379.071 841.485,-379.885 837.9,-375.984 836.25,-379.071"/>
</g>
<!-- paramtk.StatusBar -->
<g id="node23" class="node"><title>paramtk.StatusBar</title>
<polygon fill="none" stroke="black" stroke-width="0.5" points="957,-248.5 849,-248.5 849,-227.5 957,-227.5 957,-248.5"/>
<text text-anchor="middle" x="903" y="-235.5" font-family="Vera" font-size="10.00">paramtk.StatusBar</text>
</g>
<!-- Tkinter.Frame&#45;&gt;paramtk.StatusBar -->
<g id="edge20" class="edge"><title>Tkinter.Frame&#45;&gt;paramtk.StatusBar</title>
<path fill="none" stroke="black" stroke-width="0.5" d="M757.818,-252.83C782.986,-250.259 815.693,-246.918 843.69,-244.059"/>
<polygon fill="black" stroke="black" points="844.063,-245.78 848.859,-243.53 843.707,-242.298 844.063,-245.78"/>
</g>
<!-- paramtk.TaggedSlider -->
<g id="node59" class="node"><title>paramtk.TaggedSlider</title>
<polygon fill="none" stroke="black" stroke-width="0.5" points="963,-210.5 843,-210.5 843,-189.5 963,-189.5 963,-210.5"/>
<text text-anchor="middle" x="903" y="-197.5" font-family="Vera" font-size="10.00">paramtk.TaggedSlider</text>
</g>
<!-- Tkinter.Frame&#45;&gt;paramtk.TaggedSlider -->
<g id="edge54" class="edge"><title>Tkinter.Frame&#45;&gt;paramtk.TaggedSlider</title>
<path fill="none" stroke="black" stroke-width="0.5" d="M744.624,-246.84C766.96,-238.796 799.299,-227.533 828,-219 836.908,-216.352 846.479,-213.747 855.704,-211.356"/>
<polygon fill="black" stroke="black" points="856.38,-212.989 860.788,-210.051 855.509,-209.599 856.38,-212.989"/>
</g>
<!-- paramtk.ScrolledFrame -->
<g id="node68" class="node"><title>paramtk.ScrolledFrame</title>
<polygon fill="none" stroke="black" stroke-width="0.5" points="967,-172.5 839,-172.5 839,-151.5 967,-151.5 967,-172.5"/>
<text text-anchor="middle" x="903" y="-159.5" font-family="Vera" font-size="10.00">paramtk.ScrolledFrame</text>
</g>
<!-- Tkinter.Frame&#45;&gt;paramtk.ScrolledFrame -->
<g id="edge62" class="edge"><title>Tkinter.Frame&#45;&gt;paramtk.ScrolledFrame</title>
<path fill="none" stroke="black" stroke-width="0.5" d="M728.792,-246.809C748.191,-230.555 788.623,-198.785 828,-181 834.243,-178.18 840.975,-175.73 847.754,-173.614"/>
<polygon fill="black" stroke="black" points="848.652,-175.171 852.939,-172.06 847.648,-171.819 848.652,-175.171"/>
</g>
<!-- paramtk.Balloon -->
<g id="node4" class="node"><title>paramtk.Balloon</title>
<polygon fill="none" stroke="black" stroke-width="0.5" points="764,-172.5 670,-172.5 670,-151.5 764,-151.5 764,-172.5"/>
<text text-anchor="middle" x="717" y="-159.5" font-family="Vera" font-size="10.00">paramtk.Balloon</text>
</g>
<!-- Tkinter.Widget -->
<g id="node5" class="node"><title>Tkinter.Widget</title>
<polygon fill="none" stroke="black" stroke-width="0.5" points="565,-172.5 483,-172.5 483,-151.5 565,-151.5 565,-172.5"/>
<text text-anchor="middle" x="524" y="-159.5" font-family="Vera" font-size="10.00">Tkinter.Widget</text>
</g>
<!-- Tkinter.Widget&#45;&gt;Tkinter.Frame -->
<g id="edge70" class="edge"><title>Tkinter.Widget&#45;&gt;Tkinter.Frame</title>
<path fill="none" stroke="black" stroke-width="0.5" d="M544.654,-172.167C580.35,-189.737 653.45,-225.719 691.973,-244.681"/>
<polygon fill="black" stroke="black" points="691.235,-246.268 696.494,-246.906 692.781,-243.128 691.235,-246.268"/>
</g>
<!-- Tkinter.Widget&#45;&gt;paramtk.Balloon -->
<g id="edge4" class="edge"><title>Tkinter.Widget&#45;&gt;paramtk.Balloon</title>
<path fill="none" stroke="black" stroke-width="0.5" d="M565.878,-162C594.699,-162 633.211,-162 664.144,-162"/>
<polygon fill="black" stroke="black" points="664.433,-163.75 669.433,-162 664.433,-160.25 664.433,-163.75"/>
</g>
<!-- Tkinter.Menu -->
<g id="node25" class="node"><title>Tkinter.Menu</title>
<polygon fill="none" stroke="black" stroke-width="0.5" points="755,-134.5 679,-134.5 679,-113.5 755,-113.5 755,-134.5"/>
<text text-anchor="middle" x="717" y="-121.5" font-family="Vera" font-size="10.00">Tkinter.Menu</text>
</g>
<!-- Tkinter.Widget&#45;&gt;Tkinter.Menu -->
<g id="edge22" class="edge"><title>Tkinter.Widget&#45;&gt;Tkinter.Menu</title>
<path fill="none" stroke="black" stroke-width="0.5" d="M565.878,-153.755C597.659,-147.497 641.226,-138.919 673.418,-132.581"/>
<polygon fill="black" stroke="black" points="673.916,-134.267 678.483,-131.584 673.239,-130.833 673.916,-134.267"/>
</g>
<!-- Tkinter.Button -->
<g id="node65" class="node"><title>Tkinter.Button</title>
<polygon fill="none" stroke="black" stroke-width="0.5" points="758,-96.5 676,-96.5 676,-75.5 758,-75.5 758,-96.5"/>
<text text-anchor="middle" x="717" y="-83.5" font-family="Vera" font-size="10.00">Tkinter.Button</text>
</g>
<!-- Tkinter.Widget&#45;&gt;Tkinter.Button -->
<g id="edge60" class="edge"><title>Tkinter.Widget&#45;&gt;Tkinter.Button</title>
<path fill="none" stroke="black" stroke-width="0.5" d="M541.899,-151.939C564.601,-139.514 605.228,-118.383 642,-105 651.029,-101.714 660.868,-98.7808 670.359,-96.2599"/>
<polygon fill="black" stroke="black" points="670.885,-97.9313 675.284,-94.9796 670.005,-94.5439 670.885,-97.9313"/>
</g>
<!-- paramtk.Scrodget -->
<g id="node76" class="node"><title>paramtk.Scrodget</title>
<polygon fill="none" stroke="black" stroke-width="0.5" points="769,-305.5 665,-305.5 665,-284.5 769,-284.5 769,-305.5"/>
<text text-anchor="middle" x="717" y="-292.5" font-family="Vera" font-size="10.00">paramtk.Scrodget</text>
</g>
<!-- Tkinter.Widget&#45;&gt;paramtk.Scrodget -->
<g id="edge74" class="edge"><title>Tkinter.Widget&#45;&gt;paramtk.Scrodget</title>
<path fill="none" stroke="black" stroke-width="0.5" d="M531.579,-172.336C548.644,-194.832 592.477,-248.42 642,-276 647.611,-279.125 653.742,-281.745 660.003,-283.94"/>
<polygon fill="black" stroke="black" points="659.514,-285.622 664.81,-285.538 660.617,-282.3 659.514,-285.622"/>
</g>
<!-- paramtk.ProgressController -->
<g id="node8" class="node"><title>paramtk.ProgressController</title>
<polygon fill="none" stroke="black" stroke-width="0.5" points="791,-466.5 643,-466.5 643,-445.5 791,-445.5 791,-466.5"/>
<text text-anchor="middle" x="717" y="-453.5" font-family="Vera" font-size="10.00">paramtk.ProgressController</text>
</g>
<!-- paramtk.ProgressController&#45;&gt;paramtk.ProgressWindow -->
<g id="edge6" class="edge"><title>paramtk.ProgressController&#45;&gt;paramtk.ProgressWindow</title>
<path fill="none" stroke="black" stroke-width="0.5" d="M791.582,-448.381C803.962,-447.117 816.797,-445.806 829.159,-444.543"/>
<polygon fill="black" stroke="black" points="829.629,-446.254 834.426,-444.005 829.274,-442.772 829.629,-446.254"/>
</g>
<!-- paramtk.ParametersFrameWithApply -->
<g id="node48" class="node"><title>paramtk.ParametersFrameWithApply</title>
<polygon fill="none" stroke="black" stroke-width="0.5" points="1206,-400.5 1014,-400.5 1014,-379.5 1206,-379.5 1206,-400.5"/>
<text text-anchor="middle" x="1110" y="-387.5" font-family="Vera" font-size="10.00">paramtk.ParametersFrameWithApply</text>
</g>
<!-- paramtk.ParametersFrame&#45;&gt;paramtk.ParametersFrameWithApply -->
<g id="edge64" class="edge"><title>paramtk.ParametersFrame&#45;&gt;paramtk.ParametersFrameWithApply</title>
<path fill="none" stroke="black" stroke-width="0.5" d="M976.272,-390C986.862,-390 997.915,-390 1008.93,-390"/>
<polygon fill="black" stroke="black" points="1008.99,-391.75 1013.99,-390 1008.99,-388.25 1008.99,-391.75"/>
</g>
<!-- paramtk.TkParameterized -->
<g id="node16" class="node"><title>paramtk.TkParameterized</title>
<polygon fill="none" stroke="black" stroke-width="0.5" points="787,-390.5 647,-390.5 647,-369.5 787,-369.5 787,-390.5"/>
<text text-anchor="middle" x="717" y="-377.5" font-family="Vera" font-size="10.00">paramtk.TkParameterized</text>
</g>
<!-- paramtk.TkParameterized&#45;&gt;paramtk.ParametersFrame -->
<g id="edge14" class="edge"><title>paramtk.TkParameterized&#45;&gt;paramtk.ParametersFrame</title>
<path fill="none" stroke="black" stroke-width="0.5" d="M787.054,-383.766C799.308,-384.425 812.13,-385.114 824.593,-385.785"/>
<polygon fill="black" stroke="black" points="824.822,-387.549 829.909,-386.07 825.01,-384.054 824.822,-387.549"/>
</g>
<!-- Tkinter.Wm -->
<g id="node19" class="node"><title>Tkinter.Wm</title>
<polygon fill="none" stroke="black" stroke-width="0.5" points="343,-58.5 275,-58.5 275,-37.5 343,-37.5 343,-58.5"/>
<text text-anchor="middle" x="309" y="-45.5" font-family="Vera" font-size="10.00">Tkinter.Wm</text>
</g>
<!-- Tkinter.Toplevel -->
<g id="node56" class="node"><title>Tkinter.Toplevel</title>
<polygon fill="none" stroke="black" stroke-width="0.5" points="568,-58.5 480,-58.5 480,-37.5 568,-37.5 568,-58.5"/>
<text text-anchor="middle" x="524" y="-45.5" font-family="Vera" font-size="10.00">Tkinter.Toplevel</text>
</g>
<!-- Tkinter.Wm&#45;&gt;Tkinter.Toplevel -->
<g id="edge52" class="edge"><title>Tkinter.Wm&#45;&gt;Tkinter.Toplevel</title>
<path fill="none" stroke="black" stroke-width="0.5" d="M343.543,-48C378.874,-48 434.11,-48 474.169,-48"/>
<polygon fill="black" stroke="black" points="474.47,-49.7501 479.47,-48 474.47,-46.2501 474.47,-49.7501"/>
</g>
<!-- paramtk.CSPTranslator -->
<g id="node20" class="node"><title>paramtk.CSPTranslator</title>
<polygon fill="none" stroke="black" stroke-width="0.5" points="587,-542.5 461,-542.5 461,-521.5 587,-521.5 587,-542.5"/>
<text text-anchor="middle" x="524" y="-529.5" font-family="Vera" font-size="10.00">paramtk.CSPTranslator</text>
</g>
<!-- paramtk.String_ObjectTranslator -->
<g id="node21" class="node"><title>paramtk.String_ObjectTranslator</title>
<polygon fill="none" stroke="black" stroke-width="0.5" points="394,-542.5 224,-542.5 224,-521.5 394,-521.5 394,-542.5"/>
<text text-anchor="middle" x="309" y="-529.5" font-family="Vera" font-size="10.00">paramtk.String_ObjectTranslator</text>
</g>
<!-- paramtk.String_ObjectTranslator&#45;&gt;paramtk.CSPTranslator -->
<g id="edge18" class="edge"><title>paramtk.String_ObjectTranslator&#45;&gt;paramtk.CSPTranslator</title>
<path fill="none" stroke="black" stroke-width="0.5" d="M394.591,-532C414.822,-532 436.133,-532 455.493,-532"/>
<polygon fill="black" stroke="black" points="455.899,-533.75 460.899,-532 455.899,-530.25 455.899,-533.75"/>
</g>
<!-- paramtk.Menu -->
<g id="node40" class="node"><title>paramtk.Menu</title>
<polygon fill="none" stroke="black" stroke-width="0.5" points="946,-134.5 860,-134.5 860,-113.5 946,-113.5 946,-134.5"/>
<text text-anchor="middle" x="903" y="-121.5" font-family="Vera" font-size="10.00">paramtk.Menu</text>
</g>
<!-- Tkinter.Menu&#45;&gt;paramtk.Menu -->
<g id="edge32" class="edge"><title>Tkinter.Menu&#45;&gt;paramtk.Menu</title>
<path fill="none" stroke="black" stroke-width="0.5" d="M755.539,-124C784.308,-124 823.811,-124 854.69,-124"/>
<polygon fill="black" stroke="black" points="854.959,-125.75 859.959,-124 854.959,-122.25 854.959,-125.75"/>
</g>
<!-- paramtk.Eval_ReprTranslator -->
<g id="node27" class="node"><title>paramtk.Eval_ReprTranslator</title>
<polygon fill="none" stroke="black" stroke-width="0.5" points="385,-504.5 233,-504.5 233,-483.5 385,-483.5 385,-504.5"/>
<text text-anchor="middle" x="309" y="-491.5" font-family="Vera" font-size="10.00">paramtk.Eval_ReprTranslator</text>
</g>
<!-- paramtk.Translator -->
<g id="node28" class="node"><title>paramtk.Translator</title>
<polygon fill="none" stroke="black" stroke-width="0.5" points="141,-485.5 35,-485.5 35,-464.5 141,-464.5 141,-485.5"/>
<text text-anchor="middle" x="88" y="-472.5" font-family="Vera" font-size="10.00">paramtk.Translator</text>
</g>
<!-- paramtk.Translator&#45;&gt;paramtk.String_ObjectTranslator -->
<g id="edge34" class="edge"><title>paramtk.Translator&#45;&gt;paramtk.String_ObjectTranslator</title>
<path fill="none" stroke="black" stroke-width="0.5" d="M117.572,-485.012C142.543,-493.236 179.347,-504.822 212,-513 223.434,-515.864 235.715,-518.558 247.566,-520.969"/>
<polygon fill="black" stroke="black" points="247.368,-522.714 252.615,-521.984 248.058,-519.282 247.368,-522.714"/>
</g>
<!-- paramtk.Translator&#45;&gt;paramtk.Eval_ReprTranslator -->
<g id="edge24" class="edge"><title>paramtk.Translator&#45;&gt;paramtk.Eval_ReprTranslator</title>
<path fill="none" stroke="black" stroke-width="0.5" d="M141.78,-479.624C167.52,-481.837 198.894,-484.534 227.482,-486.992"/>
<polygon fill="black" stroke="black" points="227.654,-488.763 232.786,-487.448 227.954,-485.276 227.654,-488.763"/>
</g>
<!-- paramtk.DoNothingTranslator -->
<g id="node61" class="node"><title>paramtk.DoNothingTranslator</title>
<polygon fill="none" stroke="black" stroke-width="0.5" points="388,-466.5 230,-466.5 230,-445.5 388,-445.5 388,-466.5"/>
<text text-anchor="middle" x="309" y="-453.5" font-family="Vera" font-size="10.00">paramtk.DoNothingTranslator</text>
</g>
<!-- paramtk.Translator&#45;&gt;paramtk.DoNothingTranslator -->
<g id="edge56" class="edge"><title>paramtk.Translator&#45;&gt;paramtk.DoNothingTranslator</title>
<path fill="none" stroke="black" stroke-width="0.5" d="M141.78,-470.376C166.678,-468.236 196.847,-465.642 224.668,-463.25"/>
<polygon fill="black" stroke="black" points="225.002,-464.978 229.834,-462.806 224.702,-461.491 225.002,-464.978"/>
</g>
<!-- paramtk.ListTranslator -->
<g id="node71" class="node"><title>paramtk.ListTranslator</title>
<polygon fill="none" stroke="black" stroke-width="0.5" points="370,-428.5 248,-428.5 248,-407.5 370,-407.5 370,-428.5"/>
<text text-anchor="middle" x="309" y="-415.5" font-family="Vera" font-size="10.00">paramtk.ListTranslator</text>
</g>
<!-- paramtk.Translator&#45;&gt;paramtk.ListTranslator -->
<g id="edge66" class="edge"><title>paramtk.Translator&#45;&gt;paramtk.ListTranslator</title>
<path fill="none" stroke="black" stroke-width="0.5" d="M117.572,-464.988C142.543,-456.764 179.347,-445.178 212,-437 223.434,-434.136 235.715,-431.442 247.566,-429.031"/>
<polygon fill="black" stroke="black" points="248.058,-430.718 252.615,-428.016 247.368,-427.286 248.058,-430.718"/>
</g>
<!-- param.parameterized.Parameterized -->
<g id="node30" class="node"><title>param.parameterized.Parameterized</title>
<polygon fill="none" stroke="black" stroke-width="0.5" points="406,-390.5 212,-390.5 212,-369.5 406,-369.5 406,-390.5"/>
<text text-anchor="middle" x="309" y="-377.5" font-family="Vera" font-size="10.00">param.parameterized.Parameterized</text>
</g>
<!-- paramtk.Representer -->
<g id="node38" class="node"><title>paramtk.Representer</title>
<polygon fill="none" stroke="black" stroke-width="0.5" points="583,-428.5 465,-428.5 465,-407.5 583,-407.5 583,-428.5"/>
<text text-anchor="middle" x="524" y="-415.5" font-family="Vera" font-size="10.00">paramtk.Representer</text>
</g>
<!-- param.parameterized.Parameterized&#45;&gt;paramtk.Representer -->
<g id="edge30" class="edge"><title>param.parameterized.Parameterized&#45;&gt;paramtk.Representer</title>
<path fill="none" stroke="black" stroke-width="0.5" d="M365.77,-390.034C395.407,-395.272 431.719,-401.69 462.078,-407.056"/>
<polygon fill="black" stroke="black" points="462.057,-408.829 467.285,-407.976 462.666,-405.382 462.057,-408.829"/>
</g>
<!-- paramtk.TkParameterizedBase -->
<g id="node63" class="node"><title>paramtk.TkParameterizedBase</title>
<polygon fill="none" stroke="black" stroke-width="0.5" points="606,-390.5 442,-390.5 442,-369.5 606,-369.5 606,-390.5"/>
<text text-anchor="middle" x="524" y="-377.5" font-family="Vera" font-size="10.00">paramtk.TkParameterizedBase</text>
</g>
<!-- param.parameterized.Parameterized&#45;&gt;paramtk.TkParameterizedBase -->
<g id="edge82" class="edge"><title>param.parameterized.Parameterized&#45;&gt;paramtk.TkParameterizedBase</title>
<path fill="none" stroke="black" stroke-width="0.5" d="M406.121,-380C416.261,-380 426.525,-380 436.548,-380"/>
<polygon fill="black" stroke="black" points="436.766,-381.75 441.766,-380 436.766,-378.25 436.766,-381.75"/>
</g>
<!-- Tkinter.Pack -->
<g id="node31" class="node"><title>Tkinter.Pack</title>
<polygon fill="none" stroke="black" stroke-width="0.5" points="345,-210.5 273,-210.5 273,-189.5 345,-189.5 345,-210.5"/>
<text text-anchor="middle" x="309" y="-197.5" font-family="Vera" font-size="10.00">Tkinter.Pack</text>
</g>
<!-- Tkinter.Pack&#45;&gt;Tkinter.Widget -->
<g id="edge44" class="edge"><title>Tkinter.Pack&#45;&gt;Tkinter.Widget</title>
<path fill="none" stroke="black" stroke-width="0.5" d="M345.96,-193.468C382.269,-187.05 437.801,-177.235 477.179,-170.275"/>
<polygon fill="black" stroke="black" points="477.764,-171.949 482.383,-169.356 477.154,-168.503 477.764,-171.949"/>
</g>
<!-- param.Callable -->
<g id="node32" class="node"><title>param.Callable</title>
<polygon fill="none" stroke="black" stroke-width="0.5" points="353,-580.5 265,-580.5 265,-559.5 353,-559.5 353,-580.5"/>
<text text-anchor="middle" x="309" y="-567.5" font-family="Vera" font-size="10.00">param.Callable</text>
</g>
<!-- paramtk.Button -->
<g id="node35" class="node"><title>paramtk.Button</title>
<polygon fill="none" stroke="black" stroke-width="0.5" points="570,-580.5 478,-580.5 478,-559.5 570,-559.5 570,-580.5"/>
<text text-anchor="middle" x="524" y="-567.5" font-family="Vera" font-size="10.00">paramtk.Button</text>
</g>
<!-- param.Callable&#45;&gt;paramtk.Button -->
<g id="edge28" class="edge"><title>param.Callable&#45;&gt;paramtk.Button</title>
<path fill="none" stroke="black" stroke-width="0.5" d="M353.548,-570C388.132,-570 436.136,-570 472.391,-570"/>
<polygon fill="black" stroke="black" points="472.652,-571.75 477.652,-570 472.652,-568.25 472.652,-571.75"/>
</g>
<!-- param.parameterized.Parameter -->
<g id="node33" class="node"><title>param.parameterized.Parameter</title>
<polygon fill="none" stroke="black" stroke-width="0.5" points="175,-580.5 1,-580.5 1,-559.5 175,-559.5 175,-580.5"/>
<text text-anchor="middle" x="88" y="-567.5" font-family="Vera" font-size="10.00">param.parameterized.Parameter</text>
</g>
<!-- param.parameterized.Parameter&#45;&gt;param.Callable -->
<g id="edge26" class="edge"><title>param.parameterized.Parameter&#45;&gt;param.Callable</title>
<path fill="none" stroke="black" stroke-width="0.5" d="M175.662,-570C204.015,-570 234.464,-570 259.097,-570"/>
<polygon fill="black" stroke="black" points="259.263,-571.75 264.263,-570 259.263,-568.25 259.263,-571.75"/>
</g>
<!-- Tkinter.Place -->
<g id="node37" class="node"><title>Tkinter.Place</title>
<polygon fill="none" stroke="black" stroke-width="0.5" points="347,-172.5 271,-172.5 271,-151.5 347,-151.5 347,-172.5"/>
<text text-anchor="middle" x="309" y="-159.5" font-family="Vera" font-size="10.00">Tkinter.Place</text>
</g>
<!-- Tkinter.Place&#45;&gt;Tkinter.Widget -->
<g id="edge46" class="edge"><title>Tkinter.Place&#45;&gt;Tkinter.Widget</title>
<path fill="none" stroke="black" stroke-width="0.5" d="M347.935,-162C384.299,-162 438.629,-162 477.308,-162"/>
<polygon fill="black" stroke="black" points="477.42,-163.75 482.42,-162 477.42,-160.25 477.42,-163.75"/>
</g>
<!-- paramtk.ListRepresenter -->
<g id="node50" class="node"><title>paramtk.ListRepresenter</title>
<polygon fill="none" stroke="black" stroke-width="0.5" points="784,-428.5 650,-428.5 650,-407.5 784,-407.5 784,-428.5"/>
<text text-anchor="middle" x="717" y="-415.5" font-family="Vera" font-size="10.00">paramtk.ListRepresenter</text>
</g>
<!-- paramtk.Representer&#45;&gt;paramtk.ListRepresenter -->
<g id="edge40" class="edge"><title>paramtk.Representer&#45;&gt;paramtk.ListRepresenter</title>
<path fill="none" stroke="black" stroke-width="0.5" d="M583.218,-418C602.627,-418 624.413,-418 644.678,-418"/>
<polygon fill="black" stroke="black" points="644.795,-419.75 649.795,-418 644.795,-416.25 644.795,-419.75"/>
</g>
<!-- Tkinter.Grid -->
<g id="node43" class="node"><title>Tkinter.Grid</title>
<polygon fill="none" stroke="black" stroke-width="0.5" points="344,-134.5 274,-134.5 274,-113.5 344,-113.5 344,-134.5"/>
<text text-anchor="middle" x="309" y="-121.5" font-family="Vera" font-size="10.00">Tkinter.Grid</text>
</g>
<!-- Tkinter.Grid&#45;&gt;Tkinter.Widget -->
<g id="edge48" class="edge"><title>Tkinter.Grid&#45;&gt;Tkinter.Widget</title>
<path fill="none" stroke="black" stroke-width="0.5" d="M344.503,-130.275C380.687,-136.67 437.012,-146.625 476.905,-153.676"/>
<polygon fill="black" stroke="black" points="476.947,-155.461 482.175,-154.608 477.556,-152.014 476.947,-155.461"/>
</g>
<!-- Tkinter.BaseWidget -->
<g id="node44" class="node"><title>Tkinter.BaseWidget</title>
<polygon fill="none" stroke="black" stroke-width="0.5" points="362,-96.5 256,-96.5 256,-75.5 362,-75.5 362,-96.5"/>
<text text-anchor="middle" x="309" y="-83.5" font-family="Vera" font-size="10.00">Tkinter.BaseWidget</text>
</g>
<!-- Tkinter.BaseWidget&#45;&gt;Tkinter.Widget -->
<g id="edge42" class="edge"><title>Tkinter.BaseWidget&#45;&gt;Tkinter.Widget</title>
<path fill="none" stroke="black" stroke-width="0.5" d="M362.75,-93.9833C377,-96.7869 392.243,-100.415 406,-105 441.006,-116.667 479.019,-136.43 502.178,-149.347"/>
<polygon fill="black" stroke="black" points="501.39,-150.912 506.607,-151.835 503.105,-147.86 501.39,-150.912"/>
</g>
<!-- Tkinter.BaseWidget&#45;&gt;Tkinter.Toplevel -->
<g id="edge50" class="edge"><title>Tkinter.BaseWidget&#45;&gt;Tkinter.Toplevel</title>
<path fill="none" stroke="black" stroke-width="0.5" d="M362.699,-76.509C396.819,-70.4785 440.681,-62.7261 474.052,-56.8281"/>
<polygon fill="black" stroke="black" points="474.695,-58.4916 479.314,-55.898 474.086,-55.045 474.695,-58.4916"/>
</g>
<!-- Tkinter.Misc -->
<g id="node45" class="node"><title>Tkinter.Misc</title>
<polygon fill="none" stroke="black" stroke-width="0.5" points="124,-96.5 52,-96.5 52,-75.5 124,-75.5 124,-96.5"/>
<text text-anchor="middle" x="88" y="-83.5" font-family="Vera" font-size="10.00">Tkinter.Misc</text>
</g>
<!-- Tkinter.Misc&#45;&gt;Tkinter.BaseWidget -->
<g id="edge36" class="edge"><title>Tkinter.Misc&#45;&gt;Tkinter.BaseWidget</title>
<path fill="none" stroke="black" stroke-width="0.5" d="M124.494,-86C158.637,-86 210.226,-86 250.18,-86"/>
<polygon fill="black" stroke="black" points="250.489,-87.7501 255.489,-86 250.489,-84.2501 250.489,-87.7501"/>
</g>
<!-- paramtk.EditingParametersFrameWithApply -->
<g id="node47" class="node"><title>paramtk.EditingParametersFrameWithApply</title>
<polygon fill="none" stroke="black" stroke-width="0.5" points="1466,-400.5 1242,-400.5 1242,-379.5 1466,-379.5 1466,-400.5"/>
<text text-anchor="middle" x="1354" y="-387.5" font-family="Vera" font-size="10.00">paramtk.EditingParametersFrameWithApply</text>
</g>
<!-- paramtk.ParametersFrameWithApply&#45;&gt;paramtk.EditingParametersFrameWithApply -->
<g id="edge38" class="edge"><title>paramtk.ParametersFrameWithApply&#45;&gt;paramtk.EditingParametersFrameWithApply</title>
<path fill="none" stroke="black" stroke-width="0.5" d="M1206.09,-390C1216.17,-390 1226.5,-390 1236.79,-390"/>
<polygon fill="black" stroke="black" points="1236.84,-391.75 1241.84,-390 1236.84,-388.25 1236.84,-391.75"/>
</g>
<!-- paramtk.ScrolledWindow -->
<g id="node73" class="node"><title>paramtk.ScrolledWindow</title>
<polygon fill="none" stroke="black" stroke-width="0.5" points="784,-58.5 650,-58.5 650,-37.5 784,-37.5 784,-58.5"/>
<text text-anchor="middle" x="717" y="-45.5" font-family="Vera" font-size="10.00">paramtk.ScrolledWindow</text>
</g>
<!-- Tkinter.Toplevel&#45;&gt;paramtk.ScrolledWindow -->
<g id="edge68" class="edge"><title>Tkinter.Toplevel&#45;&gt;paramtk.ScrolledWindow</title>
<path fill="none" stroke="black" stroke-width="0.5" d="M568.763,-48C591.313,-48 619.213,-48 644.705,-48"/>
<polygon fill="black" stroke="black" points="644.769,-49.7501 649.769,-48 644.769,-46.2501 644.769,-49.7501"/>
</g>
<!-- paramtk.ToolTip -->
<g id="node81" class="node"><title>paramtk.ToolTip</title>
<polygon fill="none" stroke="black" stroke-width="0.5" points="763,-20.5 671,-20.5 671,0.5 763,0.5 763,-20.5"/>
<text text-anchor="middle" x="717" y="-7.5" font-family="Vera" font-size="10.00">paramtk.ToolTip</text>
</g>
<!-- Tkinter.Toplevel&#45;&gt;paramtk.ToolTip -->
<g id="edge78" class="edge"><title>Tkinter.Toplevel&#45;&gt;paramtk.ToolTip</title>
<path fill="none" stroke="black" stroke-width="0.5" d="M568.763,-39.1865C597.711,-33.4869 635.478,-26.0509 665.646,-20.1111"/>
<polygon fill="black" stroke="black" points="666.235,-21.7789 670.802,-19.0959 665.558,-18.3449 666.235,-21.7789"/>
</g>
<!-- paramtk.BoolTranslator -->
<g id="node79" class="node"><title>paramtk.BoolTranslator</title>
<polygon fill="none" stroke="black" stroke-width="0.5" points="588,-466.5 460,-466.5 460,-445.5 588,-445.5 588,-466.5"/>
<text text-anchor="middle" x="524" y="-453.5" font-family="Vera" font-size="10.00">paramtk.BoolTranslator</text>
</g>
<!-- paramtk.DoNothingTranslator&#45;&gt;paramtk.BoolTranslator -->
<g id="edge76" class="edge"><title>paramtk.DoNothingTranslator&#45;&gt;paramtk.BoolTranslator</title>
<path fill="none" stroke="black" stroke-width="0.5" d="M388.142,-456C409.979,-456 433.497,-456 454.728,-456"/>
<polygon fill="black" stroke="black" points="454.788,-457.75 459.788,-456 454.788,-454.25 454.788,-457.75"/>
</g>
<!-- paramtk.TkParameterizedBase&#45;&gt;paramtk.TkParameterized -->
<g id="edge58" class="edge"><title>paramtk.TkParameterizedBase&#45;&gt;paramtk.TkParameterized</title>
<path fill="none" stroke="black" stroke-width="0.5" d="M606.129,-380C617.873,-380 629.908,-380 641.516,-380"/>
<polygon fill="black" stroke="black" points="641.817,-381.75 646.817,-380 641.817,-378.25 641.817,-381.75"/>
</g>
<!-- paramtk.FocusTakingButton -->
<g id="node86" class="node"><title>paramtk.FocusTakingButton</title>
<polygon fill="none" stroke="black" stroke-width="0.5" points="977,-96.5 829,-96.5 829,-75.5 977,-75.5 977,-96.5"/>
<text text-anchor="middle" x="903" y="-83.5" font-family="Vera" font-size="10.00">paramtk.FocusTakingButton</text>
</g>
<!-- Tkinter.Button&#45;&gt;paramtk.FocusTakingButton -->
<g id="edge84" class="edge"><title>Tkinter.Button&#45;&gt;paramtk.FocusTakingButton</title>
<path fill="none" stroke="black" stroke-width="0.5" d="M758.742,-86C777.861,-86 801.182,-86 823.453,-86"/>
<polygon fill="black" stroke="black" points="823.485,-87.7501 828.485,-86 823.485,-84.2501 823.485,-87.7501"/>
</g>
<!-- paramtk.ScrodgetWidget -->
<g id="node67" class="node"><title>paramtk.ScrodgetWidget</title>
<polygon fill="none" stroke="black" stroke-width="0.5" points="592,-305.5 456,-305.5 456,-284.5 592,-284.5 592,-305.5"/>
<text text-anchor="middle" x="524" y="-292.5" font-family="Vera" font-size="10.00">paramtk.ScrodgetWidget</text>
</g>
<!-- paramtk.ScrodgetWidget&#45;&gt;paramtk.Scrodget -->
<g id="edge72" class="edge"><title>paramtk.ScrodgetWidget&#45;&gt;paramtk.Scrodget</title>
<path fill="none" stroke="black" stroke-width="0.5" d="M592.045,-295C614.148,-295 638.44,-295 659.681,-295"/>
<polygon fill="black" stroke="black" points="659.728,-296.75 664.728,-295 659.728,-293.25 659.728,-296.75"/>
</g>
<!-- paramtk.AppWindow -->
<g id="node83" class="node"><title>paramtk.AppWindow</title>
<polygon fill="none" stroke="black" stroke-width="0.5" points="960,-58.5 846,-58.5 846,-37.5 960,-37.5 960,-58.5"/>
<text text-anchor="middle" x="903" y="-45.5" font-family="Vera" font-size="10.00">paramtk.AppWindow</text>
</g>
<!-- paramtk.ScrolledWindow&#45;&gt;paramtk.AppWindow -->
<g id="edge80" class="edge"><title>paramtk.ScrolledWindow&#45;&gt;paramtk.AppWindow</title>
<path fill="none" stroke="black" stroke-width="0.5" d="M784.15,-48C802.603,-48 822.53,-48 840.697,-48"/>
<polygon fill="black" stroke="black" points="840.771,-49.7501 845.771,-48 840.771,-46.2501 840.771,-49.7501"/>
</g>
</g>
</svg>
