<?xml version="1.0" encoding="UTF-8" standalone="no"?>
<!DOCTYPE svg PUBLIC "-//W3C//DTD SVG 1.1//EN"
 "http://www.w3.org/Graphics/SVG/1.1/DTD/svg11.dtd">
<!-- Generated by graphviz version 2.26.3 (20100126.1600)
 -->
<!-- Title: inheritanced74a500e8c Pages: 1 -->
<svg width="808pt" height="104pt"
 viewBox="0.00 0.00 808.00 104.00" xmlns="http://www.w3.org/2000/svg" xmlns:xlink="http://www.w3.org/1999/xlink">
<g id="graph1" class="graph" transform="scale(1 1) rotate(0) translate(4 100)">
<title>inheritanced74a500e8c</title>
<polygon fill="white" stroke="white" points="-4,5 -4,-100 805,-100 805,5 -4,5"/>
<!-- imagen.image.PatternSampler -->
<g id="node1" class="node"><title>imagen.image.PatternSampler</title>
<polygon fill="none" stroke="black" stroke-width="0.5" points="629,-96 475,-96 475,-76 629,-76 629,-96"/>
<text text-anchor="middle" x="552" y="-83" font-family="Vera" font-size="10.00">imagen.image.PatternSampler</text>
</g>
<!-- imagen.image.ImageSampler -->
<g id="node2" class="node"><title>imagen.image.ImageSampler</title>
<polygon fill="none" stroke="black" stroke-width="0.5" points="400,-58 252,-58 252,-38 400,-38 400,-58"/>
<text text-anchor="middle" x="326" y="-45" font-family="Vera" font-size="10.00">imagen.image.ImageSampler</text>
</g>
<!-- imagen.image.ImageSampler&#45;&gt;imagen.image.PatternSampler -->
<g id="edge2" class="edge"><title>imagen.image.ImageSampler&#45;&gt;imagen.image.PatternSampler</title>
<path fill="none" stroke="black" stroke-width="0.5" d="M385.674,-58.0338C416.956,-63.2936 455.313,-69.7429 487.305,-75.1221"/>
<polygon fill="black" stroke="black" points="487.162,-76.8726 492.383,-75.976 487.743,-73.421 487.162,-76.8726"/>
</g>
<!-- imagen.image.FastImageSampler -->
<g id="node4" class="node"><title>imagen.image.FastImageSampler</title>
<polygon fill="none" stroke="black" stroke-width="0.5" points="635,-58 469,-58 469,-38 635,-38 635,-58"/>
<text text-anchor="middle" x="552" y="-45" font-family="Vera" font-size="10.00">imagen.image.FastImageSampler</text>
</g>
<!-- imagen.image.ImageSampler&#45;&gt;imagen.image.FastImageSampler -->
<g id="edge4" class="edge"><title>imagen.image.ImageSampler&#45;&gt;imagen.image.FastImageSampler</title>
<path fill="none" stroke="black" stroke-width="0.5" d="M400.627,-48C420.658,-48 442.515,-48 463.231,-48"/>
<polygon fill="black" stroke="black" points="463.472,-49.7501 468.472,-48 463.472,-46.2501 463.472,-49.7501"/>
</g>
<!-- param.parameterized.Parameterized -->
<g id="node6" class="node"><title>param.parameterized.Parameterized</title>
<polygon fill="none" stroke="black" stroke-width="0.5" points="184,-39 8.52651e-14,-39 0,-19 184,-19 184,-39"/>
<text text-anchor="middle" x="92" y="-26" font-family="Vera" font-size="10.00">param.parameterized.Parameterized</text>
</g>
<!-- param.parameterized.Parameterized&#45;&gt;imagen.image.ImageSampler -->
<g id="edge6" class="edge"><title>param.parameterized.Parameterized&#45;&gt;imagen.image.ImageSampler</title>
<path fill="none" stroke="black" stroke-width="0.5" d="M184.147,-36.482C204.662,-38.1478 226.246,-39.9003 246.215,-41.5218"/>
<polygon fill="black" stroke="black" points="246.131,-43.2706 251.256,-41.931 246.414,-39.782 246.131,-43.2706"/>
</g>
<!-- imagen.patterngenerator.PatternGenerator -->
<g id="node11" class="node"><title>imagen.patterngenerator.PatternGenerator</title>
<polygon fill="none" stroke="black" stroke-width="0.5" points="432,-20 220,-20 220,-1.06581e-14 432,-3.55271e-15 432,-20"/>
<text text-anchor="middle" x="326" y="-7" font-family="Vera" font-size="10.00">imagen.patterngenerator.PatternGenerator</text>
</g>
<!-- param.parameterized.Parameterized&#45;&gt;imagen.patterngenerator.PatternGenerator -->
<g id="edge12" class="edge"><title>param.parameterized.Parameterized&#45;&gt;imagen.patterngenerator.PatternGenerator</title>
<path fill="none" stroke="black" stroke-width="0.5" d="M184.147,-21.518C194.259,-20.6969 204.63,-19.8548 214.94,-19.0177"/>
<polygon fill="black" stroke="black" points="215.153,-20.7563 219.994,-18.6073 214.869,-17.2678 215.153,-20.7563"/>
</g>
<!-- imagen.image.FileImage -->
<g id="node8" class="node"><title>imagen.image.FileImage</title>
<polygon fill="none" stroke="black" stroke-width="0.5" points="799,-20 673,-20 673,-1.06581e-14 799,-3.55271e-15 799,-20"/>
<text text-anchor="middle" x="736" y="-7" font-family="Vera" font-size="10.00">imagen.image.FileImage</text>
</g>
<!-- imagen.image.GenericImage -->
<g id="node9" class="node"><title>imagen.image.GenericImage</title>
<polygon fill="none" stroke="black" stroke-width="0.5" points="625,-20 479,-20 479,-1.06581e-14 625,-3.55271e-15 625,-20"/>
<text text-anchor="middle" x="552" y="-7" font-family="Vera" font-size="10.00">imagen.image.GenericImage</text>
</g>
<!-- imagen.image.GenericImage&#45;&gt;imagen.image.FileImage -->
<g id="edge8" class="edge"><title>imagen.image.GenericImage&#45;&gt;imagen.image.FileImage</title>
<path fill="none" stroke="black" stroke-width="0.5" d="M625.25,-10C639.085,-10 653.511,-10 667.203,-10"/>
<polygon fill="black" stroke="black" points="667.212,-11.7501 672.211,-10 667.211,-8.2501 667.212,-11.7501"/>
</g>
<!-- imagen.patterngenerator.PatternGenerator&#45;&gt;imagen.image.GenericImage -->
<g id="edge10" class="edge"><title>imagen.patterngenerator.PatternGenerator&#45;&gt;imagen.image.GenericImage</title>
<path fill="none" stroke="black" stroke-width="0.5" d="M432.052,-10C446.024,-10 460.138,-10 473.535,-10"/>
<polygon fill="black" stroke="black" points="473.83,-11.7501 478.83,-10 473.83,-8.25009 473.83,-11.7501"/>
</g>
</g>
</svg>
