<?xml version="1.0" encoding="UTF-8" standalone="no"?>
<!DOCTYPE svg PUBLIC "-//W3C//DTD SVG 1.1//EN"
 "http://www.w3.org/Graphics/SVG/1.1/DTD/svg11.dtd">
<!-- Generated by graphviz version 2.26.3 (20100126.1600)
 -->
<!-- Title: inheritanceb299c4dd19 Pages: 1 -->
<svg width="950pt" height="142pt"
 viewBox="0.00 0.00 950.00 142.00" xmlns="http://www.w3.org/2000/svg" xmlns:xlink="http://www.w3.org/1999/xlink">
<g id="graph1" class="graph" transform="scale(1 1) rotate(0) translate(4 138)">
<title>inheritanceb299c4dd19</title>
<polygon fill="white" stroke="white" points="-4,5 -4,-138 947,-138 947,5 -4,5"/>
<!-- imagen.Composite -->
<g id="node1" class="node"><title>imagen.Composite</title>
<polygon fill="none" stroke="black" stroke-width="0.5" points="649,-134.5 543,-134.5 543,-113.5 649,-113.5 649,-134.5"/>
<text text-anchor="middle" x="596" y="-121.5" font-family="Vera" font-size="10.00">imagen.Composite</text>
</g>
<!-- imagen.random.GaussianCloud -->
<g id="node11" class="node"><title>imagen.random.GaussianCloud</title>
<polygon fill="none" stroke="black" stroke-width="0.5" points="923,-134.5 757,-134.5 757,-113.5 923,-113.5 923,-134.5"/>
<text text-anchor="middle" x="840" y="-121.5" font-family="Vera" font-size="10.00">imagen.random.GaussianCloud</text>
</g>
<!-- imagen.Composite&#45;&gt;imagen.random.GaussianCloud -->
<g id="edge10" class="edge"><title>imagen.Composite&#45;&gt;imagen.random.GaussianCloud</title>
<path fill="none" stroke="black" stroke-width="0.5" d="M649.547,-124C679.364,-124 717.246,-124 751.359,-124"/>
<polygon fill="black" stroke="black" points="751.364,-125.75 756.364,-124 751.364,-122.25 751.364,-125.75"/>
</g>
<!-- imagen.patterngenerator.PatternGenerator -->
<g id="node2" class="node"><title>imagen.patterngenerator.PatternGenerator</title>
<polygon fill="none" stroke="black" stroke-width="0.5" points="454,-96.5 230,-96.5 230,-75.5 454,-75.5 454,-96.5"/>
<text text-anchor="middle" x="342" y="-83.5" font-family="Vera" font-size="10.00">imagen.patterngenerator.PatternGenerator</text>
</g>
<!-- imagen.patterngenerator.PatternGenerator&#45;&gt;imagen.Composite -->
<g id="edge2" class="edge"><title>imagen.patterngenerator.PatternGenerator&#45;&gt;imagen.Composite</title>
<path fill="none" stroke="black" stroke-width="0.5" d="M409.068,-96.0338C448.875,-101.989 498.876,-109.47 537.146,-115.195"/>
<polygon fill="black" stroke="black" points="537.024,-116.946 542.228,-115.955 537.542,-113.485 537.024,-116.946"/>
</g>
<!-- imagen.random.RandomDotStereogram -->
<g id="node5" class="node"><title>imagen.random.RandomDotStereogram</title>
<polygon fill="none" stroke="black" stroke-width="0.5" points="701,-96.5 491,-96.5 491,-75.5 701,-75.5 701,-96.5"/>
<text text-anchor="middle" x="596" y="-83.5" font-family="Vera" font-size="10.00">imagen.random.RandomDotStereogram</text>
</g>
<!-- imagen.patterngenerator.PatternGenerator&#45;&gt;imagen.random.RandomDotStereogram -->
<g id="edge4" class="edge"><title>imagen.patterngenerator.PatternGenerator&#45;&gt;imagen.random.RandomDotStereogram</title>
<path fill="none" stroke="black" stroke-width="0.5" d="M454.147,-86C464.426,-86 474.837,-86 485.104,-86"/>
<polygon fill="black" stroke="black" points="485.132,-87.7501 490.132,-86 485.132,-84.2501 485.132,-87.7501"/>
</g>
<!-- imagen.random.RandomGenerator -->
<g id="node7" class="node"><title>imagen.random.RandomGenerator</title>
<polygon fill="none" stroke="black" stroke-width="0.5" points="688,-58.5 504,-58.5 504,-37.5 688,-37.5 688,-58.5"/>
<text text-anchor="middle" x="596" y="-45.5" font-family="Vera" font-size="10.00">imagen.random.RandomGenerator</text>
</g>
<!-- imagen.patterngenerator.PatternGenerator&#45;&gt;imagen.random.RandomGenerator -->
<g id="edge6" class="edge"><title>imagen.patterngenerator.PatternGenerator&#45;&gt;imagen.random.RandomGenerator</title>
<path fill="none" stroke="black" stroke-width="0.5" d="M409.068,-75.9662C444.37,-70.6848 487.689,-64.204 523.734,-58.8115"/>
<polygon fill="black" stroke="black" points="524.311,-60.4947 528.997,-58.024 523.793,-57.0332 524.311,-60.4947"/>
</g>
<!-- param.parameterized.Parameterized -->
<g id="node4" class="node"><title>param.parameterized.Parameterized</title>
<polygon fill="none" stroke="black" stroke-width="0.5" points="194,-96.5 5.68434e-14,-96.5 0,-75.5 194,-75.5 194,-96.5"/>
<text text-anchor="middle" x="97" y="-83.5" font-family="Vera" font-size="10.00">param.parameterized.Parameterized</text>
</g>
<!-- param.parameterized.Parameterized&#45;&gt;imagen.patterngenerator.PatternGenerator -->
<g id="edge12" class="edge"><title>param.parameterized.Parameterized&#45;&gt;imagen.patterngenerator.PatternGenerator</title>
<path fill="none" stroke="black" stroke-width="0.5" d="M194.182,-86C204.286,-86 214.629,-86 224.922,-86"/>
<polygon fill="black" stroke="black" points="224.969,-87.7501 229.969,-86 224.969,-84.2501 224.969,-87.7501"/>
</g>
<!-- imagen.random.GaussianRandom -->
<g id="node9" class="node"><title>imagen.random.GaussianRandom</title>
<polygon fill="none" stroke="black" stroke-width="0.5" points="930,-96.5 750,-96.5 750,-75.5 930,-75.5 930,-96.5"/>
<text text-anchor="middle" x="840" y="-83.5" font-family="Vera" font-size="10.00">imagen.random.GaussianRandom</text>
</g>
<!-- imagen.random.RandomGenerator&#45;&gt;imagen.random.GaussianRandom -->
<g id="edge8" class="edge"><title>imagen.random.RandomGenerator&#45;&gt;imagen.random.GaussianRandom</title>
<path fill="none" stroke="black" stroke-width="0.5" d="M660.427,-58.0338C694.34,-63.3152 735.953,-69.796 770.579,-75.1885"/>
<polygon fill="black" stroke="black" points="770.425,-76.9356 775.635,-75.976 770.964,-73.4773 770.425,-76.9356"/>
</g>
<!-- imagen.random.BinaryUniformRandom -->
<g id="node14" class="node"><title>imagen.random.BinaryUniformRandom</title>
<polygon fill="none" stroke="black" stroke-width="0.5" points="942,-58.5 738,-58.5 738,-37.5 942,-37.5 942,-58.5"/>
<text text-anchor="middle" x="840" y="-45.5" font-family="Vera" font-size="10.00">imagen.random.BinaryUniformRandom</text>
</g>
<!-- imagen.random.RandomGenerator&#45;&gt;imagen.random.BinaryUniformRandom -->
<g id="edge14" class="edge"><title>imagen.random.RandomGenerator&#45;&gt;imagen.random.BinaryUniformRandom</title>
<path fill="none" stroke="black" stroke-width="0.5" d="M688.594,-48C702.882,-48 717.743,-48 732.327,-48"/>
<polygon fill="black" stroke="black" points="732.685,-49.7501 737.685,-48 732.685,-46.2501 732.685,-49.7501"/>
</g>
<!-- imagen.random.UniformRandom -->
<g id="node16" class="node"><title>imagen.random.UniformRandom</title>
<polygon fill="none" stroke="black" stroke-width="0.5" points="927,-20.5 753,-20.5 753,0.5 927,0.5 927,-20.5"/>
<text text-anchor="middle" x="840" y="-7.5" font-family="Vera" font-size="10.00">imagen.random.UniformRandom</text>
</g>
<!-- imagen.random.RandomGenerator&#45;&gt;imagen.random.UniformRandom -->
<g id="edge16" class="edge"><title>imagen.random.RandomGenerator&#45;&gt;imagen.random.UniformRandom</title>
<path fill="none" stroke="black" stroke-width="0.5" d="M660.427,-37.9662C694.34,-32.6848 735.953,-26.204 770.579,-20.8115"/>
<polygon fill="black" stroke="black" points="770.964,-22.5227 775.635,-20.024 770.425,-19.0644 770.964,-22.5227"/>
</g>
</g>
</svg>
