<?xml version="1.0" encoding="UTF-8" standalone="no"?>
<!DOCTYPE svg PUBLIC "-//W3C//DTD SVG 1.1//EN"
 "http://www.w3.org/Graphics/SVG/1.1/DTD/svg11.dtd">
<!-- Generated by graphviz version 2.26.3 (20100126.1600)
 -->
<!-- Title: inheritance0bce68b9cf Pages: 1 -->
<svg width="1872pt" height="465pt"
 viewBox="0.00 0.00 1872.00 465.00" xmlns="http://www.w3.org/2000/svg" xmlns:xlink="http://www.w3.org/1999/xlink">
<g id="graph1" class="graph" transform="scale(1 1) rotate(0) translate(4 461)">
<title>inheritance0bce68b9cf</title>
<polygon fill="white" stroke="white" points="-4,5 -4,-461 1869,-461 1869,5 -4,5"/>
<!-- topo.command.analysis.latency_mapper -->
<g id="node1" class="node"><title>topo.command.analysis.latency_mapper</title>
<polygon fill="none" stroke="black" stroke-width="0.5" points="767,-314.5 555,-314.5 555,-293.5 767,-293.5 767,-314.5"/>
<text text-anchor="middle" x="661" y="-301.5" font-family="Vera" font-size="10.00">topo.command.analysis.latency_mapper</text>
</g>
<!-- imagen.patterngenerator.PatternGenerator -->
<g id="node2" class="node"><title>imagen.patterngenerator.PatternGenerator</title>
<polygon fill="none" stroke="black" stroke-width="0.5" points="459,-247.5 235,-247.5 235,-226.5 459,-226.5 459,-247.5"/>
<text text-anchor="middle" x="347" y="-234.5" font-family="Vera" font-size="10.00">imagen.patterngenerator.PatternGenerator</text>
</g>
<!-- imagen.patterngenerator.PatternGenerator&#45;&gt;topo.command.analysis.latency_mapper -->
<g id="edge2" class="edge"><title>imagen.patterngenerator.PatternGenerator&#45;&gt;topo.command.analysis.latency_mapper</title>
<path fill="none" stroke="black" stroke-width="0.5" d="M373.678,-247.042C403.893,-258.02 454.81,-275.333 500,-285 515.963,-288.415 532.957,-291.257 549.696,-293.612"/>
<polygon fill="black" stroke="black" points="549.689,-295.377 554.881,-294.327 550.167,-291.91 549.689,-295.377"/>
</g>
<!-- topo.command.analysis.frequency_mapper -->
<g id="node31" class="node"><title>topo.command.analysis.frequency_mapper</title>
<polygon fill="none" stroke="black" stroke-width="0.5" points="773,-276.5 549,-276.5 549,-255.5 773,-255.5 773,-276.5"/>
<text text-anchor="middle" x="661" y="-263.5" font-family="Vera" font-size="10.00">topo.command.analysis.frequency_mapper</text>
</g>
<!-- imagen.patterngenerator.PatternGenerator&#45;&gt;topo.command.analysis.frequency_mapper -->
<g id="edge28" class="edge"><title>imagen.patterngenerator.PatternGenerator&#45;&gt;topo.command.analysis.frequency_mapper</title>
<path fill="none" stroke="black" stroke-width="0.5" d="M455.501,-247.021C485.161,-249.76 517.382,-252.736 547.323,-255.501"/>
<polygon fill="black" stroke="black" points="547.355,-257.262 552.495,-255.979 547.677,-253.776 547.355,-257.262"/>
</g>
<!-- topo.command.analysis.log_frequency_mapper -->
<g id="node59" class="node"><title>topo.command.analysis.log_frequency_mapper</title>
<polygon fill="none" stroke="black" stroke-width="0.5" points="783,-238.5 539,-238.5 539,-217.5 783,-217.5 783,-238.5"/>
<text text-anchor="middle" x="661" y="-225.5" font-family="Vera" font-size="10.00">topo.command.analysis.log_frequency_mapper</text>
</g>
<!-- imagen.patterngenerator.PatternGenerator&#45;&gt;topo.command.analysis.log_frequency_mapper -->
<g id="edge58" class="edge"><title>imagen.patterngenerator.PatternGenerator&#45;&gt;topo.command.analysis.log_frequency_mapper</title>
<path fill="none" stroke="black" stroke-width="0.5" d="M459.031,-233.789C483.203,-233.096 508.927,-232.359 533.635,-231.651"/>
<polygon fill="black" stroke="black" points="533.943,-233.393 538.891,-231.5 533.843,-229.894 533.943,-233.393"/>
</g>
<!-- topo.command.analysis.measure_sine_pref -->
<g id="node4" class="node"><title>topo.command.analysis.measure_sine_pref</title>
<polygon fill="none" stroke="black" stroke-width="0.5" points="1842,-457.5 1616,-457.5 1616,-436.5 1842,-436.5 1842,-457.5"/>
<text text-anchor="middle" x="1729" y="-444.5" font-family="Vera" font-size="10.00">topo.command.analysis.measure_sine_pref</text>
</g>
<!-- topo.analysis.featureresponses.SinusoidalMeasureResponseCommand -->
<g id="node5" class="node"><title>topo.analysis.featureresponses.SinusoidalMeasureResponseCommand</title>
<polygon fill="none" stroke="black" stroke-width="0.5" points="1558,-324.5 1202,-324.5 1202,-303.5 1558,-303.5 1558,-324.5"/>
<text text-anchor="middle" x="1380" y="-311.5" font-family="Vera" font-size="10.00">topo.analysis.featureresponses.SinusoidalMeasureResponseCommand</text>
</g>
<!-- topo.analysis.featureresponses.SinusoidalMeasureResponseCommand&#45;&gt;topo.command.analysis.measure_sine_pref -->
<g id="edge4" class="edge"><title>topo.analysis.featureresponses.SinusoidalMeasureResponseCommand&#45;&gt;topo.command.analysis.measure_sine_pref</title>
<path fill="none" stroke="black" stroke-width="0.5" d="M1394.75,-324.238C1428.36,-347.021 1513.94,-401.944 1594,-428 1603.57,-431.116 1613.69,-433.721 1623.91,-435.899"/>
<polygon fill="black" stroke="black" points="1623.69,-437.639 1628.94,-436.934 1624.39,-434.211 1623.69,-437.639"/>
</g>
<!-- topo.command.analysis.measure_od_pref -->
<g id="node7" class="node"><title>topo.command.analysis.measure_od_pref</title>
<polygon fill="none" stroke="black" stroke-width="0.5" points="1838,-419.5 1620,-419.5 1620,-398.5 1838,-398.5 1838,-419.5"/>
<text text-anchor="middle" x="1729" y="-406.5" font-family="Vera" font-size="10.00">topo.command.analysis.measure_od_pref</text>
</g>
<!-- topo.analysis.featureresponses.SinusoidalMeasureResponseCommand&#45;&gt;topo.command.analysis.measure_od_pref -->
<g id="edge6" class="edge"><title>topo.analysis.featureresponses.SinusoidalMeasureResponseCommand&#45;&gt;topo.command.analysis.measure_od_pref</title>
<path fill="none" stroke="black" stroke-width="0.5" d="M1403.28,-324.021C1442.08,-340.327 1522.78,-372.531 1594,-390 1606.9,-393.164 1620.63,-395.853 1634.2,-398.125"/>
<polygon fill="black" stroke="black" points="1633.98,-399.861 1639.2,-398.943 1634.55,-396.407 1633.98,-399.861"/>
</g>
<!-- topo.command.analysis.measure_phasedisparity -->
<g id="node17" class="node"><title>topo.command.analysis.measure_phasedisparity</title>
<polygon fill="none" stroke="black" stroke-width="0.5" points="1855,-381.5 1603,-381.5 1603,-360.5 1855,-360.5 1855,-381.5"/>
<text text-anchor="middle" x="1729" y="-368.5" font-family="Vera" font-size="10.00">topo.command.analysis.measure_phasedisparity</text>
</g>
<!-- topo.analysis.featureresponses.SinusoidalMeasureResponseCommand&#45;&gt;topo.command.analysis.measure_phasedisparity -->
<g id="edge14" class="edge"><title>topo.analysis.featureresponses.SinusoidalMeasureResponseCommand&#45;&gt;topo.command.analysis.measure_phasedisparity</title>
<path fill="none" stroke="black" stroke-width="0.5" d="M1433.56,-324.06C1476.79,-332.048 1539.22,-343.284 1594,-352 1611.84,-354.838 1631.04,-357.673 1649.21,-360.254"/>
<polygon fill="black" stroke="black" points="1649.11,-362.007 1654.3,-360.975 1649.6,-358.542 1649.11,-362.007"/>
</g>
<!-- topo.command.analysis.measure_or_pref -->
<g id="node33" class="node"><title>topo.command.analysis.measure_or_pref</title>
<polygon fill="none" stroke="black" stroke-width="0.5" points="1837,-343.5 1621,-343.5 1621,-322.5 1837,-322.5 1837,-343.5"/>
<text text-anchor="middle" x="1729" y="-330.5" font-family="Vera" font-size="10.00">topo.command.analysis.measure_or_pref</text>
</g>
<!-- topo.analysis.featureresponses.SinusoidalMeasureResponseCommand&#45;&gt;topo.command.analysis.measure_or_pref -->
<g id="edge30" class="edge"><title>topo.analysis.featureresponses.SinusoidalMeasureResponseCommand&#45;&gt;topo.command.analysis.measure_or_pref</title>
<path fill="none" stroke="black" stroke-width="0.5" d="M1558.08,-323.695C1577.59,-324.757 1597.03,-325.816 1615.45,-326.818"/>
<polygon fill="black" stroke="black" points="1615.53,-328.575 1620.61,-327.099 1615.72,-325.08 1615.53,-328.575"/>
</g>
<!-- topo.command.analysis.measure_second_or_pref -->
<g id="node40" class="node"><title>topo.command.analysis.measure_second_or_pref</title>
<polygon fill="none" stroke="black" stroke-width="0.5" points="1857,-305.5 1601,-305.5 1601,-284.5 1857,-284.5 1857,-305.5"/>
<text text-anchor="middle" x="1729" y="-292.5" font-family="Vera" font-size="10.00">topo.command.analysis.measure_second_or_pref</text>
</g>
<!-- topo.analysis.featureresponses.SinusoidalMeasureResponseCommand&#45;&gt;topo.command.analysis.measure_second_or_pref -->
<g id="edge36" class="edge"><title>topo.analysis.featureresponses.SinusoidalMeasureResponseCommand&#45;&gt;topo.command.analysis.measure_second_or_pref</title>
<path fill="none" stroke="black" stroke-width="0.5" d="M1558.08,-304.305C1570.72,-303.617 1583.34,-302.93 1595.67,-302.258"/>
<polygon fill="black" stroke="black" points="1596.04,-303.991 1600.94,-301.972 1595.85,-300.496 1596.04,-303.991"/>
</g>
<!-- topo.command.analysis.measure_hue_pref -->
<g id="node46" class="node"><title>topo.command.analysis.measure_hue_pref</title>
<polygon fill="none" stroke="black" stroke-width="0.5" points="1841,-267.5 1617,-267.5 1617,-246.5 1841,-246.5 1841,-267.5"/>
<text text-anchor="middle" x="1729" y="-254.5" font-family="Vera" font-size="10.00">topo.command.analysis.measure_hue_pref</text>
</g>
<!-- topo.analysis.featureresponses.SinusoidalMeasureResponseCommand&#45;&gt;topo.command.analysis.measure_hue_pref -->
<g id="edge42" class="edge"><title>topo.analysis.featureresponses.SinusoidalMeasureResponseCommand&#45;&gt;topo.command.analysis.measure_hue_pref</title>
<path fill="none" stroke="black" stroke-width="0.5" d="M1433.56,-303.94C1476.79,-295.952 1539.22,-284.716 1594,-276 1611.84,-273.162 1631.04,-270.327 1649.21,-267.746"/>
<polygon fill="black" stroke="black" points="1649.6,-269.458 1654.3,-267.025 1649.11,-265.993 1649.6,-269.458"/>
</g>
<!-- topo.command.analysis.measure_dr_pref -->
<g id="node50" class="node"><title>topo.command.analysis.measure_dr_pref</title>
<polygon fill="none" stroke="black" stroke-width="0.5" points="1837,-229.5 1621,-229.5 1621,-208.5 1837,-208.5 1837,-229.5"/>
<text text-anchor="middle" x="1729" y="-216.5" font-family="Vera" font-size="10.00">topo.command.analysis.measure_dr_pref</text>
</g>
<!-- topo.analysis.featureresponses.SinusoidalMeasureResponseCommand&#45;&gt;topo.command.analysis.measure_dr_pref -->
<g id="edge48" class="edge"><title>topo.analysis.featureresponses.SinusoidalMeasureResponseCommand&#45;&gt;topo.command.analysis.measure_dr_pref</title>
<path fill="none" stroke="black" stroke-width="0.5" d="M1417.85,-303.97C1454.37,-293.809 1510.88,-276.797 1558,-257 1574.68,-249.992 1576.79,-243.566 1594,-238 1603.68,-234.871 1613.91,-232.257 1624.24,-230.074"/>
<polygon fill="black" stroke="black" points="1624.76,-231.752 1629.31,-229.036 1624.06,-228.323 1624.76,-231.752"/>
</g>
<!-- topo.command.analysis.save_plotgroup -->
<g id="node9" class="node"><title>topo.command.analysis.save_plotgroup</title>
<polygon fill="none" stroke="black" stroke-width="0.5" points="765,-200.5 557,-200.5 557,-179.5 765,-179.5 765,-200.5"/>
<text text-anchor="middle" x="661" y="-187.5" font-family="Vera" font-size="10.00">topo.command.analysis.save_plotgroup</text>
</g>
<!-- param.parameterized.ParameterizedFunction -->
<g id="node10" class="node"><title>param.parameterized.ParameterizedFunction</title>
<polygon fill="none" stroke="black" stroke-width="0.5" points="464,-190.5 230,-190.5 230,-169.5 464,-169.5 464,-190.5"/>
<text text-anchor="middle" x="347" y="-177.5" font-family="Vera" font-size="10.00">param.parameterized.ParameterizedFunction</text>
</g>
<!-- param.parameterized.ParameterizedFunction&#45;&gt;topo.command.analysis.save_plotgroup -->
<g id="edge8" class="edge"><title>param.parameterized.ParameterizedFunction&#45;&gt;topo.command.analysis.save_plotgroup</title>
<path fill="none" stroke="black" stroke-width="0.5" d="M464.369,-183.738C492.984,-184.649 523.479,-185.62 551.702,-186.519"/>
<polygon fill="black" stroke="black" points="551.891,-188.276 556.945,-186.686 552.003,-184.778 551.891,-188.276"/>
</g>
<!-- topo.analysis.featureresponses.PatternPresentingCommand -->
<g id="node12" class="node"><title>topo.analysis.featureresponses.PatternPresentingCommand</title>
<polygon fill="none" stroke="black" stroke-width="0.5" points="813,-162.5 509,-162.5 509,-141.5 813,-141.5 813,-162.5"/>
<text text-anchor="middle" x="661" y="-149.5" font-family="Vera" font-size="10.00">topo.analysis.featureresponses.PatternPresentingCommand</text>
</g>
<!-- param.parameterized.ParameterizedFunction&#45;&gt;topo.analysis.featureresponses.PatternPresentingCommand -->
<g id="edge10" class="edge"><title>param.parameterized.ParameterizedFunction&#45;&gt;topo.analysis.featureresponses.PatternPresentingCommand</title>
<path fill="none" stroke="black" stroke-width="0.5" d="M459.474,-169.97C486.809,-167.533 516.106,-164.92 543.66,-162.463"/>
<polygon fill="black" stroke="black" points="543.959,-164.194 548.784,-162.007 543.648,-160.708 543.959,-164.194"/>
</g>
<!-- topo.plotting.plotgroup.ProjectionSheetMeasurementCommand -->
<g id="node25" class="node"><title>topo.plotting.plotgroup.ProjectionSheetMeasurementCommand</title>
<polygon fill="none" stroke="black" stroke-width="0.5" points="822,-115.5 500,-115.5 500,-94.5 822,-94.5 822,-115.5"/>
<text text-anchor="middle" x="661" y="-102.5" font-family="Vera" font-size="10.00">topo.plotting.plotgroup.ProjectionSheetMeasurementCommand</text>
</g>
<!-- param.parameterized.ParameterizedFunction&#45;&gt;topo.plotting.plotgroup.ProjectionSheetMeasurementCommand -->
<g id="edge22" class="edge"><title>param.parameterized.ParameterizedFunction&#45;&gt;topo.plotting.plotgroup.ProjectionSheetMeasurementCommand</title>
<path fill="none" stroke="black" stroke-width="0.5" d="M437.742,-169.934C446.796,-167.553 455.7,-164.618 464,-161 482.582,-152.901 481.464,-141.203 500,-133 516.719,-125.602 535.222,-120.154 553.553,-116.143"/>
<polygon fill="black" stroke="black" points="554.188,-117.798 558.717,-115.05 553.462,-114.373 554.188,-117.798"/>
</g>
<!-- topo.analysis.featureresponses.MeasureResponseCommand -->
<g id="node15" class="node"><title>topo.analysis.featureresponses.MeasureResponseCommand</title>
<polygon fill="none" stroke="black" stroke-width="0.5" points="1165,-172.5 859,-172.5 859,-151.5 1165,-151.5 1165,-172.5"/>
<text text-anchor="middle" x="1012" y="-159.5" font-family="Vera" font-size="10.00">topo.analysis.featureresponses.MeasureResponseCommand</text>
</g>
<!-- topo.analysis.featureresponses.PatternPresentingCommand&#45;&gt;topo.analysis.featureresponses.MeasureResponseCommand -->
<g id="edge16" class="edge"><title>topo.analysis.featureresponses.PatternPresentingCommand&#45;&gt;topo.analysis.featureresponses.MeasureResponseCommand</title>
<path fill="none" stroke="black" stroke-width="0.5" d="M813.677,-156.35C826.734,-156.722 839.963,-157.099 853.067,-157.472"/>
<polygon fill="black" stroke="black" points="853.23,-159.227 858.278,-157.62 853.33,-155.729 853.23,-159.227"/>
</g>
<!-- topo.command.analysis.measure_latency_preference -->
<g id="node14" class="node"><title>topo.command.analysis.measure_latency_preference</title>
<polygon fill="none" stroke="black" stroke-width="0.5" points="1517,-248.5 1243,-248.5 1243,-227.5 1517,-227.5 1517,-248.5"/>
<text text-anchor="middle" x="1380" y="-235.5" font-family="Vera" font-size="10.00">topo.command.analysis.measure_latency_preference</text>
</g>
<!-- topo.analysis.featureresponses.MeasureResponseCommand&#45;&gt;topo.analysis.featureresponses.SinusoidalMeasureResponseCommand -->
<g id="edge44" class="edge"><title>topo.analysis.featureresponses.MeasureResponseCommand&#45;&gt;topo.analysis.featureresponses.SinusoidalMeasureResponseCommand</title>
<path fill="none" stroke="black" stroke-width="0.5" d="M1029.91,-172.125C1063.11,-190.625 1136.76,-230.43 1202,-257 1247.4,-275.491 1301.2,-292.008 1337.68,-302.441"/>
<polygon fill="black" stroke="black" points="1337.65,-304.251 1342.94,-303.936 1338.61,-300.884 1337.65,-304.251"/>
</g>
<!-- topo.analysis.featureresponses.MeasureResponseCommand&#45;&gt;topo.command.analysis.measure_latency_preference -->
<g id="edge12" class="edge"><title>topo.analysis.featureresponses.MeasureResponseCommand&#45;&gt;topo.command.analysis.measure_latency_preference</title>
<path fill="none" stroke="black" stroke-width="0.5" d="M1039.6,-172.042C1076.21,-184.955 1143.09,-207.126 1202,-219 1218.29,-222.283 1235.54,-225.024 1252.64,-227.305"/>
<polygon fill="black" stroke="black" points="1252.75,-229.085 1257.94,-227.999 1253.21,-225.615 1252.75,-229.085"/>
</g>
<!-- topo.command.analysis.measure_frequency_preference -->
<g id="node23" class="node"><title>topo.command.analysis.measure_frequency_preference</title>
<polygon fill="none" stroke="black" stroke-width="0.5" points="1523,-210.5 1237,-210.5 1237,-189.5 1523,-189.5 1523,-210.5"/>
<text text-anchor="middle" x="1380" y="-197.5" font-family="Vera" font-size="10.00">topo.command.analysis.measure_frequency_preference</text>
</g>
<!-- topo.analysis.featureresponses.MeasureResponseCommand&#45;&gt;topo.command.analysis.measure_frequency_preference -->
<g id="edge20" class="edge"><title>topo.analysis.featureresponses.MeasureResponseCommand&#45;&gt;topo.command.analysis.measure_frequency_preference</title>
<path fill="none" stroke="black" stroke-width="0.5" d="M1109.17,-172.034C1161.15,-177.402 1225.14,-184.009 1277.86,-189.453"/>
<polygon fill="black" stroke="black" points="1277.77,-191.203 1282.93,-189.976 1278.13,-187.722 1277.77,-191.203"/>
</g>
<!-- topo.analysis.featureresponses.PositionMeasurementCommand -->
<g id="node28" class="node"><title>topo.analysis.featureresponses.PositionMeasurementCommand</title>
<polygon fill="none" stroke="black" stroke-width="0.5" points="1542,-172.5 1218,-172.5 1218,-151.5 1542,-151.5 1542,-172.5"/>
<text text-anchor="middle" x="1380" y="-159.5" font-family="Vera" font-size="10.00">topo.analysis.featureresponses.PositionMeasurementCommand</text>
</g>
<!-- topo.analysis.featureresponses.MeasureResponseCommand&#45;&gt;topo.analysis.featureresponses.PositionMeasurementCommand -->
<g id="edge46" class="edge"><title>topo.analysis.featureresponses.MeasureResponseCommand&#45;&gt;topo.analysis.featureresponses.PositionMeasurementCommand</title>
<path fill="none" stroke="black" stroke-width="0.5" d="M1165.67,-162C1181.16,-162 1196.95,-162 1212.58,-162"/>
<polygon fill="black" stroke="black" points="1212.87,-163.75 1217.87,-162 1212.87,-160.25 1212.87,-163.75"/>
</g>
<!-- topo.analysis.featureresponses.SingleInputResponseCommand -->
<g id="node36" class="node"><title>topo.analysis.featureresponses.SingleInputResponseCommand</title>
<polygon fill="none" stroke="black" stroke-width="0.5" points="1539,-134.5 1221,-134.5 1221,-113.5 1539,-113.5 1539,-134.5"/>
<text text-anchor="middle" x="1380" y="-121.5" font-family="Vera" font-size="10.00">topo.analysis.featureresponses.SingleInputResponseCommand</text>
</g>
<!-- topo.analysis.featureresponses.MeasureResponseCommand&#45;&gt;topo.analysis.featureresponses.SingleInputResponseCommand -->
<g id="edge50" class="edge"><title>topo.analysis.featureresponses.MeasureResponseCommand&#45;&gt;topo.analysis.featureresponses.SingleInputResponseCommand</title>
<path fill="none" stroke="black" stroke-width="0.5" d="M1109.17,-151.966C1161.15,-146.598 1225.14,-139.991 1277.86,-134.547"/>
<polygon fill="black" stroke="black" points="1278.13,-136.278 1282.93,-134.024 1277.77,-132.797 1278.13,-136.278"/>
</g>
<!-- topo.command.analysis.measure_log_frequency_preference -->
<g id="node55" class="node"><title>topo.command.analysis.measure_log_frequency_preference</title>
<polygon fill="none" stroke="black" stroke-width="0.5" points="1533,-96.5 1227,-96.5 1227,-75.5 1533,-75.5 1533,-96.5"/>
<text text-anchor="middle" x="1380" y="-83.5" font-family="Vera" font-size="10.00">topo.command.analysis.measure_log_frequency_preference</text>
</g>
<!-- topo.analysis.featureresponses.MeasureResponseCommand&#45;&gt;topo.command.analysis.measure_log_frequency_preference -->
<g id="edge54" class="edge"><title>topo.analysis.featureresponses.MeasureResponseCommand&#45;&gt;topo.command.analysis.measure_log_frequency_preference</title>
<path fill="none" stroke="black" stroke-width="0.5" d="M1066.43,-151.953C1096.36,-145.595 1133.83,-136.248 1166,-124 1182.91,-117.563 1184.7,-110.277 1202,-105 1212.31,-101.856 1223.1,-99.2145 1234.04,-96.9981"/>
<polygon fill="black" stroke="black" points="1234.51,-98.6897 1239.07,-96.0093 1233.83,-95.2553 1234.51,-98.6897"/>
</g>
<!-- topo.command.analysis.PatternPresenter2 -->
<g id="node20" class="node"><title>topo.command.analysis.PatternPresenter2</title>
<polygon fill="none" stroke="black" stroke-width="0.5" points="457,-152.5 237,-152.5 237,-131.5 457,-131.5 457,-152.5"/>
<text text-anchor="middle" x="347" y="-139.5" font-family="Vera" font-size="10.00">topo.command.analysis.PatternPresenter2</text>
</g>
<!-- param.parameterized.Parameterized -->
<g id="node21" class="node"><title>param.parameterized.Parameterized</title>
<polygon fill="none" stroke="black" stroke-width="0.5" points="194,-190.5 5.68434e-14,-190.5 0,-169.5 194,-169.5 194,-190.5"/>
<text text-anchor="middle" x="97" y="-177.5" font-family="Vera" font-size="10.00">param.parameterized.Parameterized</text>
</g>
<!-- param.parameterized.Parameterized&#45;&gt;imagen.patterngenerator.PatternGenerator -->
<g id="edge60" class="edge"><title>param.parameterized.Parameterized&#45;&gt;imagen.patterngenerator.PatternGenerator</title>
<path fill="none" stroke="black" stroke-width="0.5" d="M141.12,-190.059C185.075,-200.081 252.414,-215.434 298.007,-225.83"/>
<polygon fill="black" stroke="black" points="297.638,-227.54 302.902,-226.946 298.416,-224.128 297.638,-227.54"/>
</g>
<!-- param.parameterized.Parameterized&#45;&gt;param.parameterized.ParameterizedFunction -->
<g id="edge26" class="edge"><title>param.parameterized.Parameterized&#45;&gt;param.parameterized.ParameterizedFunction</title>
<path fill="none" stroke="black" stroke-width="0.5" d="M194.014,-180C204.04,-180 214.319,-180 224.575,-180"/>
<polygon fill="black" stroke="black" points="224.607,-181.75 229.607,-180 224.607,-178.25 224.607,-181.75"/>
</g>
<!-- param.parameterized.Parameterized&#45;&gt;topo.command.analysis.PatternPresenter2 -->
<g id="edge18" class="edge"><title>param.parameterized.Parameterized&#45;&gt;topo.command.analysis.PatternPresenter2</title>
<path fill="none" stroke="black" stroke-width="0.5" d="M163.012,-169.966C197.758,-164.685 240.394,-158.204 275.872,-152.811"/>
<polygon fill="black" stroke="black" points="276.372,-154.506 281.052,-152.024 275.846,-151.045 276.372,-154.506"/>
</g>
<!-- topo.command.analysis.update_projectionactivity -->
<g id="node42" class="node"><title>topo.command.analysis.update_projectionactivity</title>
<polygon fill="none" stroke="black" stroke-width="0.5" points="1139,-115.5 885,-115.5 885,-94.5 1139,-94.5 1139,-115.5"/>
<text text-anchor="middle" x="1012" y="-102.5" font-family="Vera" font-size="10.00">topo.command.analysis.update_projectionactivity</text>
</g>
<!-- topo.plotting.plotgroup.ProjectionSheetMeasurementCommand&#45;&gt;topo.command.analysis.update_projectionactivity -->
<g id="edge38" class="edge"><title>topo.plotting.plotgroup.ProjectionSheetMeasurementCommand&#45;&gt;topo.command.analysis.update_projectionactivity</title>
<path fill="none" stroke="black" stroke-width="0.5" d="M822.118,-105C841.391,-105 860.898,-105 879.699,-105"/>
<polygon fill="black" stroke="black" points="879.982,-106.75 884.982,-105 879.982,-103.25 879.982,-106.75"/>
</g>
<!-- topo.plotting.plotgroup.UnitMeasurementCommand -->
<g id="node44" class="node"><title>topo.plotting.plotgroup.UnitMeasurementCommand</title>
<polygon fill="none" stroke="black" stroke-width="0.5" points="1145,-58.5 879,-58.5 879,-37.5 1145,-37.5 1145,-58.5"/>
<text text-anchor="middle" x="1012" y="-45.5" font-family="Vera" font-size="10.00">topo.plotting.plotgroup.UnitMeasurementCommand</text>
</g>
<!-- topo.plotting.plotgroup.ProjectionSheetMeasurementCommand&#45;&gt;topo.plotting.plotgroup.UnitMeasurementCommand -->
<g id="edge40" class="edge"><title>topo.plotting.plotgroup.ProjectionSheetMeasurementCommand&#45;&gt;topo.plotting.plotgroup.UnitMeasurementCommand</title>
<path fill="none" stroke="black" stroke-width="0.5" d="M722.944,-94.9408C785.378,-84.8019 881.414,-69.2063 945.443,-58.8084"/>
<polygon fill="black" stroke="black" points="945.726,-60.5354 950.381,-58.0065 945.165,-57.0807 945.726,-60.5354"/>
</g>
<!-- topo.command.analysis.measure_corner_angle_pref -->
<g id="node27" class="node"><title>topo.command.analysis.measure_corner_angle_pref</title>
<polygon fill="none" stroke="black" stroke-width="0.5" points="1863,-191.5 1595,-191.5 1595,-170.5 1863,-170.5 1863,-191.5"/>
<text text-anchor="middle" x="1729" y="-178.5" font-family="Vera" font-size="10.00">topo.command.analysis.measure_corner_angle_pref</text>
</g>
<!-- topo.analysis.featureresponses.PositionMeasurementCommand&#45;&gt;topo.command.analysis.measure_corner_angle_pref -->
<g id="edge24" class="edge"><title>topo.analysis.featureresponses.PositionMeasurementCommand&#45;&gt;topo.command.analysis.measure_corner_angle_pref</title>
<path fill="none" stroke="black" stroke-width="0.5" d="M1542.24,-170.833C1557.91,-171.686 1573.72,-172.546 1589.15,-173.386"/>
<polygon fill="black" stroke="black" points="1589.28,-175.146 1594.36,-173.67 1589.47,-171.651 1589.28,-175.146"/>
</g>
<!-- topo.command.analysis.measure_corner_or_pref -->
<g id="node38" class="node"><title>topo.command.analysis.measure_corner_or_pref</title>
<polygon fill="none" stroke="black" stroke-width="0.5" points="1855,-153.5 1603,-153.5 1603,-132.5 1855,-132.5 1855,-153.5"/>
<text text-anchor="middle" x="1729" y="-140.5" font-family="Vera" font-size="10.00">topo.command.analysis.measure_corner_or_pref</text>
</g>
<!-- topo.analysis.featureresponses.PositionMeasurementCommand&#45;&gt;topo.command.analysis.measure_corner_or_pref -->
<g id="edge34" class="edge"><title>topo.analysis.featureresponses.PositionMeasurementCommand&#45;&gt;topo.command.analysis.measure_corner_or_pref</title>
<path fill="none" stroke="black" stroke-width="0.5" d="M1542.24,-153.167C1560.87,-152.153 1579.69,-151.129 1597.84,-150.141"/>
<polygon fill="black" stroke="black" points="1598.04,-151.882 1602.94,-149.863 1597.85,-148.387 1598.04,-151.882"/>
</g>
<!-- topo.command.analysis.measure_rfs -->
<g id="node35" class="node"><title>topo.command.analysis.measure_rfs</title>
<polygon fill="none" stroke="black" stroke-width="0.5" points="1826,-115.5 1632,-115.5 1632,-94.5 1826,-94.5 1826,-115.5"/>
<text text-anchor="middle" x="1729" y="-102.5" font-family="Vera" font-size="10.00">topo.command.analysis.measure_rfs</text>
</g>
<!-- topo.analysis.featureresponses.SingleInputResponseCommand&#45;&gt;topo.command.analysis.measure_rfs -->
<g id="edge32" class="edge"><title>topo.analysis.featureresponses.SingleInputResponseCommand&#45;&gt;topo.command.analysis.measure_rfs</title>
<path fill="none" stroke="black" stroke-width="0.5" d="M1539.69,-115.306C1569.26,-113.696 1599.4,-112.056 1626.68,-110.57"/>
<polygon fill="black" stroke="black" points="1626.85,-112.314 1631.74,-110.295 1626.66,-108.819 1626.85,-112.314"/>
</g>
<!-- topo.command.analysis.update_projection -->
<g id="node53" class="node"><title>topo.command.analysis.update_projection</title>
<polygon fill="none" stroke="black" stroke-width="0.5" points="1490,-58.5 1270,-58.5 1270,-37.5 1490,-37.5 1490,-58.5"/>
<text text-anchor="middle" x="1380" y="-45.5" font-family="Vera" font-size="10.00">topo.command.analysis.update_projection</text>
</g>
<!-- topo.plotting.plotgroup.UnitMeasurementCommand&#45;&gt;topo.command.analysis.update_projection -->
<g id="edge52" class="edge"><title>topo.plotting.plotgroup.UnitMeasurementCommand&#45;&gt;topo.command.analysis.update_projection</title>
<path fill="none" stroke="black" stroke-width="0.5" d="M1145.12,-48C1184.11,-48 1226.42,-48 1264.24,-48"/>
<polygon fill="black" stroke="black" points="1264.3,-49.7501 1269.3,-48 1264.3,-46.2501 1264.3,-49.7501"/>
</g>
<!-- topo.command.analysis.update_connectionfields -->
<g id="node57" class="node"><title>topo.command.analysis.update_connectionfields</title>
<polygon fill="none" stroke="black" stroke-width="0.5" points="1505,-20.5 1255,-20.5 1255,0.5 1505,0.5 1505,-20.5"/>
<text text-anchor="middle" x="1380" y="-7.5" font-family="Vera" font-size="10.00">topo.command.analysis.update_connectionfields</text>
</g>
<!-- topo.plotting.plotgroup.UnitMeasurementCommand&#45;&gt;topo.command.analysis.update_connectionfields -->
<g id="edge56" class="edge"><title>topo.plotting.plotgroup.UnitMeasurementCommand&#45;&gt;topo.command.analysis.update_connectionfields</title>
<path fill="none" stroke="black" stroke-width="0.5" d="M1109.17,-37.9662C1161.15,-32.5982 1225.14,-25.9912 1277.86,-20.5472"/>
<polygon fill="black" stroke="black" points="1278.13,-22.2785 1282.93,-20.024 1277.77,-18.797 1278.13,-22.2785"/>
</g>
</g>
</svg>
