<?xml version="1.0" encoding="UTF-8" standalone="no"?>
<!DOCTYPE svg PUBLIC "-//W3C//DTD SVG 1.1//EN"
 "http://www.w3.org/Graphics/SVG/1.1/DTD/svg11.dtd">
<!-- Generated by graphviz version 2.26.3 (20100126.1600)
 -->
<!-- Title: inheritance95afd34832 Pages: 1 -->
<svg width="1418pt" height="598pt"
 viewBox="0.00 0.00 1418.00 598.00" xmlns="http://www.w3.org/2000/svg" xmlns:xlink="http://www.w3.org/1999/xlink">
<g id="graph1" class="graph" transform="scale(1 1) rotate(0) translate(4 594)">
<title>inheritance95afd34832</title>
<polygon fill="white" stroke="white" points="-4,5 -4,-594 1415,-594 1415,5 -4,5"/>
<!-- paramtk.ParametersFrameWithApply -->
<g id="node1" class="node"><title>paramtk.ParametersFrameWithApply</title>
<polygon fill="none" stroke="black" stroke-width="0.5" points="1157,-58 973,-58 973,-38 1157,-38 1157,-58"/>
<text text-anchor="middle" x="1065" y="-45" font-family="Vera" font-size="10.00">paramtk.ParametersFrameWithApply</text>
</g>
<!-- paramtk.EditingParametersFrameWithApply -->
<g id="node76" class="node"><title>paramtk.EditingParametersFrameWithApply</title>
<polygon fill="none" stroke="black" stroke-width="0.5" points="1410,-58 1194,-58 1194,-38 1410,-38 1410,-58"/>
<text text-anchor="middle" x="1302" y="-45" font-family="Vera" font-size="10.00">paramtk.EditingParametersFrameWithApply</text>
</g>
<!-- paramtk.ParametersFrameWithApply&#45;&gt;paramtk.EditingParametersFrameWithApply -->
<g id="edge72" class="edge"><title>paramtk.ParametersFrameWithApply&#45;&gt;paramtk.EditingParametersFrameWithApply</title>
<path fill="none" stroke="black" stroke-width="0.5" d="M1157.65,-48C1167.8,-48 1178.22,-48 1188.59,-48"/>
<polygon fill="black" stroke="black" points="1188.67,-49.7501 1193.67,-48 1188.67,-46.2501 1188.67,-49.7501"/>
</g>
<!-- paramtk.ParametersFrame -->
<g id="node2" class="node"><title>paramtk.ParametersFrame</title>
<polygon fill="none" stroke="black" stroke-width="0.5" points="933,-58 795,-58 795,-38 933,-38 933,-58"/>
<text text-anchor="middle" x="864" y="-45" font-family="Vera" font-size="10.00">paramtk.ParametersFrame</text>
</g>
<!-- paramtk.ParametersFrame&#45;&gt;paramtk.ParametersFrameWithApply -->
<g id="edge2" class="edge"><title>paramtk.ParametersFrame&#45;&gt;paramtk.ParametersFrameWithApply</title>
<path fill="none" stroke="black" stroke-width="0.5" d="M933.173,-48C944.104,-48 955.584,-48 967.021,-48"/>
<polygon fill="black" stroke="black" points="967.27,-49.7501 972.27,-48 967.27,-46.2501 967.27,-49.7501"/>
</g>
<!-- paramtk.FocusTakingButton -->
<g id="node4" class="node"><title>paramtk.FocusTakingButton</title>
<polygon fill="none" stroke="black" stroke-width="0.5" points="936,-362 792,-362 792,-342 936,-342 936,-362"/>
<text text-anchor="middle" x="864" y="-349" font-family="Vera" font-size="10.00">paramtk.FocusTakingButton</text>
</g>
<!-- Tkinter.Button -->
<g id="node5" class="node"><title>Tkinter.Button</title>
<polygon fill="none" stroke="black" stroke-width="0.5" points="726,-362 644,-362 644,-342 726,-342 726,-362"/>
<text text-anchor="middle" x="685" y="-349" font-family="Vera" font-size="10.00">Tkinter.Button</text>
</g>
<!-- Tkinter.Button&#45;&gt;paramtk.FocusTakingButton -->
<g id="edge4" class="edge"><title>Tkinter.Button&#45;&gt;paramtk.FocusTakingButton</title>
<path fill="none" stroke="black" stroke-width="0.5" d="M726.516,-352C744.416,-352 765.95,-352 786.608,-352"/>
<polygon fill="black" stroke="black" points="786.839,-353.75 791.839,-352 786.839,-350.25 786.839,-353.75"/>
</g>
<!-- paramtk.ListWidget -->
<g id="node7" class="node"><title>paramtk.ListWidget</title>
<polygon fill="none" stroke="black" stroke-width="0.5" points="916,-96 812,-96 812,-76 916,-76 916,-96"/>
<text text-anchor="middle" x="864" y="-83" font-family="Vera" font-size="10.00">paramtk.ListWidget</text>
</g>
<!-- Tkinter.Frame -->
<g id="node8" class="node"><title>Tkinter.Frame</title>
<polygon fill="none" stroke="black" stroke-width="0.5" points="725,-210 645,-210 645,-190 725,-190 725,-210"/>
<text text-anchor="middle" x="685" y="-197" font-family="Vera" font-size="10.00">Tkinter.Frame</text>
</g>
<!-- Tkinter.Frame&#45;&gt;paramtk.ParametersFrame -->
<g id="edge42" class="edge"><title>Tkinter.Frame&#45;&gt;paramtk.ParametersFrame</title>
<path fill="none" stroke="black" stroke-width="0.5" d="M725.746,-196.314C736.712,-193.538 747.793,-188.85 756,-181 794.395,-144.273 753.541,-103.661 792,-67 794.456,-64.6585 797.166,-62.5974 800.051,-60.7839"/>
<polygon fill="black" stroke="black" points="801.235,-62.1241 804.718,-58.133 799.506,-59.0808 801.235,-62.1241"/>
</g>
<!-- Tkinter.Frame&#45;&gt;paramtk.ListWidget -->
<g id="edge6" class="edge"><title>Tkinter.Frame&#45;&gt;paramtk.ListWidget</title>
<path fill="none" stroke="black" stroke-width="0.5" d="M725.825,-195.386C736.542,-192.58 747.473,-188.109 756,-181 784.708,-157.067 763.251,-128.884 792,-105 796.506,-101.257 801.672,-98.2433 807.125,-95.8186"/>
<polygon fill="black" stroke="black" points="807.801,-97.4329 811.763,-93.9173 806.473,-94.1944 807.801,-97.4329"/>
</g>
<!-- paramtk.ScrolledFrame -->
<g id="node10" class="node"><title>paramtk.ScrolledFrame</title>
<polygon fill="none" stroke="black" stroke-width="0.5" points="925,-286 803,-286 803,-266 925,-266 925,-286"/>
<text text-anchor="middle" x="864" y="-273" font-family="Vera" font-size="10.00">paramtk.ScrolledFrame</text>
</g>
<!-- Tkinter.Frame&#45;&gt;paramtk.ScrolledFrame -->
<g id="edge8" class="edge"><title>Tkinter.Frame&#45;&gt;paramtk.ScrolledFrame</title>
<path fill="none" stroke="black" stroke-width="0.5" d="M701.115,-210.114C721.581,-222.595 758.297,-243.783 792,-257 799.041,-259.761 806.623,-262.253 814.133,-264.453"/>
<polygon fill="black" stroke="black" points="814.024,-266.242 819.312,-265.93 814.984,-262.876 814.024,-266.242"/>
</g>
<!-- paramtk.TaggedSlider -->
<g id="node27" class="node"><title>paramtk.TaggedSlider</title>
<polygon fill="none" stroke="black" stroke-width="0.5" points="922,-248 806,-248 806,-228 922,-228 922,-248"/>
<text text-anchor="middle" x="864" y="-235" font-family="Vera" font-size="10.00">paramtk.TaggedSlider</text>
</g>
<!-- Tkinter.Frame&#45;&gt;paramtk.TaggedSlider -->
<g id="edge20" class="edge"><title>Tkinter.Frame&#45;&gt;paramtk.TaggedSlider</title>
<path fill="none" stroke="black" stroke-width="0.5" d="M725.618,-208.623C751.06,-214.024 784.103,-221.039 811.52,-226.859"/>
<polygon fill="black" stroke="black" points="811.316,-228.605 816.571,-227.931 812.043,-225.181 811.316,-228.605"/>
</g>
<!-- paramtk.StatusBar -->
<g id="node31" class="node"><title>paramtk.StatusBar</title>
<polygon fill="none" stroke="black" stroke-width="0.5" points="914,-210 814,-210 814,-190 914,-190 914,-210"/>
<text text-anchor="middle" x="864" y="-197" font-family="Vera" font-size="10.00">paramtk.StatusBar</text>
</g>
<!-- Tkinter.Frame&#45;&gt;paramtk.StatusBar -->
<g id="edge24" class="edge"><title>Tkinter.Frame&#45;&gt;paramtk.StatusBar</title>
<path fill="none" stroke="black" stroke-width="0.5" d="M725.618,-200C749.987,-200 781.33,-200 808.023,-200"/>
<polygon fill="black" stroke="black" points="808.297,-201.75 813.297,-200 808.297,-198.25 808.297,-201.75"/>
</g>
<!-- paramtk.ListItemCtrlWidget -->
<g id="node45" class="node"><title>paramtk.ListItemCtrlWidget</title>
<polygon fill="none" stroke="black" stroke-width="0.5" points="935,-172 793,-172 793,-152 935,-152 935,-172"/>
<text text-anchor="middle" x="864" y="-159" font-family="Vera" font-size="10.00">paramtk.ListItemCtrlWidget</text>
</g>
<!-- Tkinter.Frame&#45;&gt;paramtk.ListItemCtrlWidget -->
<g id="edge32" class="edge"><title>Tkinter.Frame&#45;&gt;paramtk.ListItemCtrlWidget</title>
<path fill="none" stroke="black" stroke-width="0.5" d="M725.618,-191.377C751.06,-185.976 784.103,-178.961 811.52,-173.141"/>
<polygon fill="black" stroke="black" points="812.043,-174.819 816.571,-172.069 811.316,-171.395 812.043,-174.819"/>
</g>
<!-- paramtk.HackFileEntry -->
<g id="node55" class="node"><title>paramtk.HackFileEntry</title>
<polygon fill="none" stroke="black" stroke-width="0.5" points="923,-134 805,-134 805,-114 923,-114 923,-134"/>
<text text-anchor="middle" x="864" y="-121" font-family="Vera" font-size="10.00">paramtk.HackFileEntry</text>
</g>
<!-- Tkinter.Frame&#45;&gt;paramtk.HackFileEntry -->
<g id="edge44" class="edge"><title>Tkinter.Frame&#45;&gt;paramtk.HackFileEntry</title>
<path fill="none" stroke="black" stroke-width="0.5" d="M725.611,-193.219C735.98,-190.413 746.79,-186.483 756,-181 775.991,-169.1 771.989,-154.865 792,-143 796.683,-140.223 801.773,-137.846 807.01,-135.812"/>
<polygon fill="black" stroke="black" points="807.76,-137.401 811.853,-134.039 806.556,-134.115 807.76,-137.401"/>
</g>
<!-- paramtk.ProgressWindow -->
<g id="node60" class="node"><title>paramtk.ProgressWindow</title>
<polygon fill="none" stroke="black" stroke-width="0.5" points="931,-324 797,-324 797,-304 931,-304 931,-324"/>
<text text-anchor="middle" x="864" y="-311" font-family="Vera" font-size="10.00">paramtk.ProgressWindow</text>
</g>
<!-- Tkinter.Frame&#45;&gt;paramtk.ProgressWindow -->
<g id="edge50" class="edge"><title>Tkinter.Frame&#45;&gt;paramtk.ProgressWindow</title>
<path fill="none" stroke="black" stroke-width="0.5" d="M698.8,-210.19C713.448,-221.207 737.05,-239.542 756,-257 773.11,-272.763 771.989,-283.135 792,-295 796.683,-297.777 801.773,-300.154 807.01,-302.188"/>
<polygon fill="black" stroke="black" points="806.556,-303.885 811.853,-303.961 807.76,-300.599 806.556,-303.885"/>
</g>
<!-- param.parameterized.Parameterized -->
<g id="node12" class="node"><title>param.parameterized.Parameterized</title>
<polygon fill="none" stroke="black" stroke-width="0.5" points="386,-77 202,-77 202,-57 386,-57 386,-77"/>
<text text-anchor="middle" x="294" y="-64" font-family="Vera" font-size="10.00">param.parameterized.Parameterized</text>
</g>
<!-- paramtk.TkParameterizedBase -->
<g id="node13" class="node"><title>paramtk.TkParameterizedBase</title>
<polygon fill="none" stroke="black" stroke-width="0.5" points="577,-58 423,-58 423,-38 577,-38 577,-58"/>
<text text-anchor="middle" x="500" y="-45" font-family="Vera" font-size="10.00">paramtk.TkParameterizedBase</text>
</g>
<!-- param.parameterized.Parameterized&#45;&gt;paramtk.TkParameterizedBase -->
<g id="edge10" class="edge"><title>param.parameterized.Parameterized&#45;&gt;paramtk.TkParameterizedBase</title>
<path fill="none" stroke="black" stroke-width="0.5" d="M386.155,-58.5003C396.558,-57.5408 407.11,-56.5675 417.38,-55.6203"/>
<polygon fill="black" stroke="black" points="417.58,-57.3594 422.398,-55.1575 417.258,-53.8742 417.58,-57.3594"/>
</g>
<!-- paramtk.Representer -->
<g id="node58" class="node"><title>paramtk.Representer</title>
<polygon fill="none" stroke="black" stroke-width="0.5" points="556,-96 444,-96 444,-76 556,-76 556,-96"/>
<text text-anchor="middle" x="500" y="-83" font-family="Vera" font-size="10.00">paramtk.Representer</text>
</g>
<!-- param.parameterized.Parameterized&#45;&gt;paramtk.Representer -->
<g id="edge64" class="edge"><title>param.parameterized.Parameterized&#45;&gt;paramtk.Representer</title>
<path fill="none" stroke="black" stroke-width="0.5" d="M386.155,-75.4997C403.824,-77.1294 421.923,-78.7988 438.342,-80.3131"/>
<polygon fill="black" stroke="black" points="438.242,-82.0612 443.382,-80.7779 438.564,-78.576 438.242,-82.0612"/>
</g>
<!-- paramtk.TkParameterized -->
<g id="node15" class="node"><title>paramtk.TkParameterized</title>
<polygon fill="none" stroke="black" stroke-width="0.5" points="752,-58 618,-58 618,-38 752,-38 752,-58"/>
<text text-anchor="middle" x="685" y="-45" font-family="Vera" font-size="10.00">paramtk.TkParameterized</text>
</g>
<!-- paramtk.TkParameterizedBase&#45;&gt;paramtk.TkParameterized -->
<g id="edge12" class="edge"><title>paramtk.TkParameterizedBase&#45;&gt;paramtk.TkParameterized</title>
<path fill="none" stroke="black" stroke-width="0.5" d="M577.653,-48C589.229,-48 601.123,-48 612.586,-48"/>
<polygon fill="black" stroke="black" points="612.819,-49.7501 617.819,-48 612.819,-46.2501 612.819,-49.7501"/>
</g>
<!-- paramtk.TkParameterized&#45;&gt;paramtk.ParametersFrame -->
<g id="edge40" class="edge"><title>paramtk.TkParameterized&#45;&gt;paramtk.ParametersFrame</title>
<path fill="none" stroke="black" stroke-width="0.5" d="M752.162,-48C764.401,-48 777.236,-48 789.668,-48"/>
<polygon fill="black" stroke="black" points="789.969,-49.7501 794.969,-48 789.969,-46.2501 789.969,-49.7501"/>
</g>
<!-- paramtk.ToolTip -->
<g id="node17" class="node"><title>paramtk.ToolTip</title>
<polygon fill="none" stroke="black" stroke-width="0.5" points="730,-172 640,-172 640,-152 730,-152 730,-172"/>
<text text-anchor="middle" x="685" y="-159" font-family="Vera" font-size="10.00">paramtk.ToolTip</text>
</g>
<!-- Tkinter.Toplevel -->
<g id="node18" class="node"><title>Tkinter.Toplevel</title>
<polygon fill="none" stroke="black" stroke-width="0.5" points="545,-172 455,-172 455,-152 545,-152 545,-172"/>
<text text-anchor="middle" x="500" y="-159" font-family="Vera" font-size="10.00">Tkinter.Toplevel</text>
</g>
<!-- Tkinter.Toplevel&#45;&gt;paramtk.ToolTip -->
<g id="edge14" class="edge"><title>Tkinter.Toplevel&#45;&gt;paramtk.ToolTip</title>
<path fill="none" stroke="black" stroke-width="0.5" d="M545.256,-162C572.144,-162 606.311,-162 634.131,-162"/>
<polygon fill="black" stroke="black" points="634.248,-163.75 639.248,-162 634.248,-160.25 634.248,-163.75"/>
</g>
<!-- paramtk.ScrolledWindow -->
<g id="node35" class="node"><title>paramtk.ScrolledWindow</title>
<polygon fill="none" stroke="black" stroke-width="0.5" points="750,-134 620,-134 620,-114 750,-114 750,-134"/>
<text text-anchor="middle" x="685" y="-121" font-family="Vera" font-size="10.00">paramtk.ScrolledWindow</text>
</g>
<!-- Tkinter.Toplevel&#45;&gt;paramtk.ScrolledWindow -->
<g id="edge76" class="edge"><title>Tkinter.Toplevel&#45;&gt;paramtk.ScrolledWindow</title>
<path fill="none" stroke="black" stroke-width="0.5" d="M545.256,-152.704C571.137,-147.388 603.762,-140.687 630.979,-135.096"/>
<polygon fill="black" stroke="black" points="631.45,-136.786 635.995,-134.066 630.745,-133.358 631.45,-136.786"/>
</g>
<!-- paramtk.ScrodgetWidget -->
<g id="node20" class="node"><title>paramtk.ScrodgetWidget</title>
<polygon fill="none" stroke="black" stroke-width="0.5" points="564,-438 436,-438 436,-418 564,-418 564,-438"/>
<text text-anchor="middle" x="500" y="-425" font-family="Vera" font-size="10.00">paramtk.ScrodgetWidget</text>
</g>
<!-- paramtk.Scrodget -->
<g id="node72" class="node"><title>paramtk.Scrodget</title>
<polygon fill="none" stroke="black" stroke-width="0.5" points="733,-438 637,-438 637,-418 733,-418 733,-438"/>
<text text-anchor="middle" x="685" y="-425" font-family="Vera" font-size="10.00">paramtk.Scrodget</text>
</g>
<!-- paramtk.ScrodgetWidget&#45;&gt;paramtk.Scrodget -->
<g id="edge66" class="edge"><title>paramtk.ScrodgetWidget&#45;&gt;paramtk.Scrodget</title>
<path fill="none" stroke="black" stroke-width="0.5" d="M564.185,-428C586.024,-428 610.193,-428 631.14,-428"/>
<polygon fill="black" stroke="black" points="631.393,-429.75 636.392,-428 631.392,-426.25 631.393,-429.75"/>
</g>
<!-- paramtk.CSPTranslator -->
<g id="node21" class="node"><title>paramtk.CSPTranslator</title>
<polygon fill="none" stroke="black" stroke-width="0.5" points="560,-552 440,-552 440,-532 560,-532 560,-552"/>
<text text-anchor="middle" x="500" y="-539" font-family="Vera" font-size="10.00">paramtk.CSPTranslator</text>
</g>
<!-- paramtk.String_ObjectTranslator -->
<g id="node22" class="node"><title>paramtk.String_ObjectTranslator</title>
<polygon fill="none" stroke="black" stroke-width="0.5" points="376,-552 212,-552 212,-532 376,-532 376,-552"/>
<text text-anchor="middle" x="294" y="-539" font-family="Vera" font-size="10.00">paramtk.String_ObjectTranslator</text>
</g>
<!-- paramtk.String_ObjectTranslator&#45;&gt;paramtk.CSPTranslator -->
<g id="edge16" class="edge"><title>paramtk.String_ObjectTranslator&#45;&gt;paramtk.CSPTranslator</title>
<path fill="none" stroke="black" stroke-width="0.5" d="M376.009,-542C395.29,-542 415.595,-542 434.066,-542"/>
<polygon fill="black" stroke="black" points="434.225,-543.75 439.225,-542 434.225,-540.25 434.225,-543.75"/>
</g>
<!-- paramtk.Eval_ReprTranslator -->
<g id="node24" class="node"><title>paramtk.Eval_ReprTranslator</title>
<polygon fill="none" stroke="black" stroke-width="0.5" points="367,-514 221,-514 221,-494 367,-494 367,-514"/>
<text text-anchor="middle" x="294" y="-501" font-family="Vera" font-size="10.00">paramtk.Eval_ReprTranslator</text>
</g>
<!-- paramtk.Translator -->
<g id="node25" class="node"><title>paramtk.Translator</title>
<polygon fill="none" stroke="black" stroke-width="0.5" points="135,-495 31,-495 31,-475 135,-475 135,-495"/>
<text text-anchor="middle" x="83" y="-482" font-family="Vera" font-size="10.00">paramtk.Translator</text>
</g>
<!-- paramtk.Translator&#45;&gt;paramtk.String_ObjectTranslator -->
<g id="edge70" class="edge"><title>paramtk.Translator&#45;&gt;paramtk.String_ObjectTranslator</title>
<path fill="none" stroke="black" stroke-width="0.5" d="M111.607,-495.072C135.558,-503.277 170.742,-514.806 202,-523 212.808,-525.833 224.42,-528.511 235.631,-530.913"/>
<polygon fill="black" stroke="black" points="235.496,-532.673 240.75,-531.997 236.221,-529.249 235.496,-532.673"/>
</g>
<!-- paramtk.Translator&#45;&gt;paramtk.Eval_ReprTranslator -->
<g id="edge18" class="edge"><title>paramtk.Translator&#45;&gt;paramtk.Eval_ReprTranslator</title>
<path fill="none" stroke="black" stroke-width="0.5" d="M135.157,-489.697C159.183,-491.86 188.218,-494.475 214.858,-496.873"/>
<polygon fill="black" stroke="black" points="215.015,-498.645 220.152,-497.35 215.329,-495.159 215.015,-498.645"/>
</g>
<!-- paramtk.DoNothingTranslator -->
<g id="node29" class="node"><title>paramtk.DoNothingTranslator</title>
<polygon fill="none" stroke="black" stroke-width="0.5" points="370,-476 218,-476 218,-456 370,-456 370,-476"/>
<text text-anchor="middle" x="294" y="-463" font-family="Vera" font-size="10.00">paramtk.DoNothingTranslator</text>
</g>
<!-- paramtk.Translator&#45;&gt;paramtk.DoNothingTranslator -->
<g id="edge22" class="edge"><title>paramtk.Translator&#45;&gt;paramtk.DoNothingTranslator</title>
<path fill="none" stroke="black" stroke-width="0.5" d="M135.157,-480.303C158.383,-478.212 186.288,-475.699 212.186,-473.367"/>
<polygon fill="black" stroke="black" points="212.514,-475.095 217.337,-472.903 212.2,-471.609 212.514,-475.095"/>
</g>
<!-- paramtk.ListTranslator -->
<g id="node68" class="node"><title>paramtk.ListTranslator</title>
<polygon fill="none" stroke="black" stroke-width="0.5" points="353,-438 235,-438 235,-418 353,-418 353,-438"/>
<text text-anchor="middle" x="294" y="-425" font-family="Vera" font-size="10.00">paramtk.ListTranslator</text>
</g>
<!-- paramtk.Translator&#45;&gt;paramtk.ListTranslator -->
<g id="edge60" class="edge"><title>paramtk.Translator&#45;&gt;paramtk.ListTranslator</title>
<path fill="none" stroke="black" stroke-width="0.5" d="M111.607,-474.928C135.558,-466.723 170.742,-455.194 202,-447 212.808,-444.167 224.42,-441.489 235.631,-439.087"/>
<polygon fill="black" stroke="black" points="236.221,-440.751 240.75,-438.003 235.496,-437.327 236.221,-440.751"/>
</g>
<!-- paramtk.BoolTranslator -->
<g id="node83" class="node"><title>paramtk.BoolTranslator</title>
<polygon fill="none" stroke="black" stroke-width="0.5" points="562,-476 438,-476 438,-456 562,-456 562,-476"/>
<text text-anchor="middle" x="500" y="-463" font-family="Vera" font-size="10.00">paramtk.BoolTranslator</text>
</g>
<!-- paramtk.DoNothingTranslator&#45;&gt;paramtk.BoolTranslator -->
<g id="edge80" class="edge"><title>paramtk.DoNothingTranslator&#45;&gt;paramtk.BoolTranslator</title>
<path fill="none" stroke="black" stroke-width="0.5" d="M370.707,-466C390.973,-466 412.696,-466 432.439,-466"/>
<polygon fill="black" stroke="black" points="432.682,-467.75 437.682,-466 432.682,-464.25 432.682,-467.75"/>
</g>
<!-- Tkinter.Pack -->
<g id="node33" class="node"><title>Tkinter.Pack</title>
<polygon fill="none" stroke="black" stroke-width="0.5" points="330,-381 258,-381 258,-361 330,-361 330,-381"/>
<text text-anchor="middle" x="294" y="-368" font-family="Vera" font-size="10.00">Tkinter.Pack</text>
</g>
<!-- Tkinter.Widget -->
<g id="node39" class="node"><title>Tkinter.Widget</title>
<polygon fill="none" stroke="black" stroke-width="0.5" points="541,-343 459,-343 459,-323 541,-323 541,-343"/>
<text text-anchor="middle" x="500" y="-330" font-family="Vera" font-size="10.00">Tkinter.Widget</text>
</g>
<!-- Tkinter.Pack&#45;&gt;Tkinter.Widget -->
<g id="edge54" class="edge"><title>Tkinter.Pack&#45;&gt;Tkinter.Widget</title>
<path fill="none" stroke="black" stroke-width="0.5" d="M330.829,-364.206C364.912,-357.919 415.761,-348.539 452.809,-341.705"/>
<polygon fill="black" stroke="black" points="453.572,-343.344 458.171,-340.716 452.937,-339.902 453.572,-343.344"/>
</g>
<!-- paramtk.AppWindow -->
<g id="node34" class="node"><title>paramtk.AppWindow</title>
<polygon fill="none" stroke="black" stroke-width="0.5" points="920,-20 808,-20 808,-1.06581e-14 920,-3.55271e-15 920,-20"/>
<text text-anchor="middle" x="864" y="-7" font-family="Vera" font-size="10.00">paramtk.AppWindow</text>
</g>
<!-- paramtk.ScrolledWindow&#45;&gt;paramtk.AppWindow -->
<g id="edge26" class="edge"><title>paramtk.ScrolledWindow&#45;&gt;paramtk.AppWindow</title>
<path fill="none" stroke="black" stroke-width="0.5" d="M741.557,-113.888C746.76,-111.516 751.688,-108.595 756,-105 784.708,-81.0666 763.251,-52.8835 792,-29 795.359,-26.2093 799.086,-23.8243 803.024,-21.7864"/>
<polygon fill="black" stroke="black" points="803.968,-23.2753 807.735,-19.5502 802.467,-20.1134 803.968,-23.2753"/>
</g>
<!-- Tkinter.Place -->
<g id="node37" class="node"><title>Tkinter.Place</title>
<polygon fill="none" stroke="black" stroke-width="0.5" points="331,-343 257,-343 257,-323 331,-323 331,-343"/>
<text text-anchor="middle" x="294" y="-330" font-family="Vera" font-size="10.00">Tkinter.Place</text>
</g>
<!-- Tkinter.Place&#45;&gt;Tkinter.Widget -->
<g id="edge56" class="edge"><title>Tkinter.Place&#45;&gt;Tkinter.Widget</title>
<path fill="none" stroke="black" stroke-width="0.5" d="M331.784,-333C365.882,-333 416.179,-333 452.89,-333"/>
<polygon fill="black" stroke="black" points="453.204,-334.75 458.204,-333 453.204,-331.25 453.204,-334.75"/>
</g>
<!-- Tkinter.Menu -->
<g id="node38" class="node"><title>Tkinter.Menu</title>
<polygon fill="none" stroke="black" stroke-width="0.5" points="724,-400 646,-400 646,-380 724,-380 724,-400"/>
<text text-anchor="middle" x="685" y="-387" font-family="Vera" font-size="10.00">Tkinter.Menu</text>
</g>
<!-- paramtk.Menu -->
<g id="node81" class="node"><title>paramtk.Menu</title>
<polygon fill="none" stroke="black" stroke-width="0.5" points="906,-400 822,-400 822,-380 906,-380 906,-400"/>
<text text-anchor="middle" x="864" y="-387" font-family="Vera" font-size="10.00">paramtk.Menu</text>
</g>
<!-- Tkinter.Menu&#45;&gt;paramtk.Menu -->
<g id="edge78" class="edge"><title>Tkinter.Menu&#45;&gt;paramtk.Menu</title>
<path fill="none" stroke="black" stroke-width="0.5" d="M724.282,-390C751.41,-390 787.637,-390 816.405,-390"/>
<polygon fill="black" stroke="black" points="816.686,-391.75 821.686,-390 816.686,-388.25 816.686,-391.75"/>
</g>
<!-- Tkinter.Widget&#45;&gt;Tkinter.Button -->
<g id="edge62" class="edge"><title>Tkinter.Widget&#45;&gt;Tkinter.Button</title>
<path fill="none" stroke="black" stroke-width="0.5" d="M541.518,-337.264C570.219,-340.212 608.443,-344.137 638.221,-347.196"/>
<polygon fill="black" stroke="black" points="638.149,-348.947 643.301,-347.717 638.506,-345.466 638.149,-348.947"/>
</g>
<!-- Tkinter.Widget&#45;&gt;Tkinter.Frame -->
<g id="edge82" class="edge"><title>Tkinter.Widget&#45;&gt;Tkinter.Frame</title>
<path fill="none" stroke="black" stroke-width="0.5" d="M514.209,-322.785C547.382,-298.936 629.897,-239.615 666.736,-213.131"/>
<polygon fill="black" stroke="black" points="667.957,-214.408 670.995,-210.068 665.914,-211.566 667.957,-214.408"/>
</g>
<!-- Tkinter.Widget&#45;&gt;Tkinter.Menu -->
<g id="edge28" class="edge"><title>Tkinter.Widget&#45;&gt;Tkinter.Menu</title>
<path fill="none" stroke="black" stroke-width="0.5" d="M528.427,-343.005C551.398,-350.962 584.627,-362.183 614,-371 622.662,-373.6 631.97,-376.217 640.902,-378.642"/>
<polygon fill="black" stroke="black" points="640.536,-380.355 645.819,-379.968 641.447,-376.976 640.536,-380.355"/>
</g>
<!-- Tkinter.Widget&#45;&gt;paramtk.Scrodget -->
<g id="edge68" class="edge"><title>Tkinter.Widget&#45;&gt;paramtk.Scrodget</title>
<path fill="none" stroke="black" stroke-width="0.5" d="M512.19,-343.11C532.225,-359.252 573.905,-390.866 614,-409 620.207,-411.807 626.914,-414.27 633.641,-416.41"/>
<polygon fill="black" stroke="black" points="633.488,-418.193 638.782,-417.984 634.513,-414.847 633.488,-418.193"/>
</g>
<!-- paramtk.Balloon -->
<g id="node78" class="node"><title>paramtk.Balloon</title>
<polygon fill="none" stroke="black" stroke-width="0.5" points="731,-286 639,-286 639,-266 731,-266 731,-286"/>
<text text-anchor="middle" x="685" y="-273" font-family="Vera" font-size="10.00">paramtk.Balloon</text>
</g>
<!-- Tkinter.Widget&#45;&gt;paramtk.Balloon -->
<g id="edge74" class="edge"><title>Tkinter.Widget&#45;&gt;paramtk.Balloon</title>
<path fill="none" stroke="black" stroke-width="0.5" d="M528.427,-322.995C551.398,-315.038 584.627,-303.817 614,-295 622.662,-292.4 631.97,-289.783 640.902,-287.358"/>
<polygon fill="black" stroke="black" points="641.447,-289.024 645.819,-286.032 640.536,-285.645 641.447,-289.024"/>
</g>
<!-- param.Callable -->
<g id="node41" class="node"><title>param.Callable</title>
<polygon fill="none" stroke="black" stroke-width="0.5" points="336,-590 252,-590 252,-570 336,-570 336,-590"/>
<text text-anchor="middle" x="294" y="-577" font-family="Vera" font-size="10.00">param.Callable</text>
</g>
<!-- paramtk.Button -->
<g id="node51" class="node"><title>paramtk.Button</title>
<polygon fill="none" stroke="black" stroke-width="0.5" points="544,-590 456,-590 456,-570 544,-570 544,-590"/>
<text text-anchor="middle" x="500" y="-577" font-family="Vera" font-size="10.00">paramtk.Button</text>
</g>
<!-- param.Callable&#45;&gt;paramtk.Button -->
<g id="edge38" class="edge"><title>param.Callable&#45;&gt;paramtk.Button</title>
<path fill="none" stroke="black" stroke-width="0.5" d="M336.683,-580C369.931,-580 416.126,-580 450.905,-580"/>
<polygon fill="black" stroke="black" points="450.95,-581.75 455.95,-580 450.95,-578.25 450.95,-581.75"/>
</g>
<!-- param.parameterized.Parameter -->
<g id="node42" class="node"><title>param.parameterized.Parameter</title>
<polygon fill="none" stroke="black" stroke-width="0.5" points="165,-590 1,-590 1,-570 165,-570 165,-590"/>
<text text-anchor="middle" x="83" y="-577" font-family="Vera" font-size="10.00">param.parameterized.Parameter</text>
</g>
<!-- param.parameterized.Parameter&#45;&gt;param.Callable -->
<g id="edge30" class="edge"><title>param.parameterized.Parameter&#45;&gt;param.Callable</title>
<path fill="none" stroke="black" stroke-width="0.5" d="M165.787,-580C193.051,-580 222.439,-580 246.192,-580"/>
<polygon fill="black" stroke="black" points="246.482,-581.75 251.482,-580 246.481,-578.25 246.482,-581.75"/>
</g>
<!-- Tkinter.Grid -->
<g id="node44" class="node"><title>Tkinter.Grid</title>
<polygon fill="none" stroke="black" stroke-width="0.5" points="330,-305 258,-305 258,-285 330,-285 330,-305"/>
<text text-anchor="middle" x="294" y="-292" font-family="Vera" font-size="10.00">Tkinter.Grid</text>
</g>
<!-- Tkinter.Grid&#45;&gt;Tkinter.Widget -->
<g id="edge58" class="edge"><title>Tkinter.Grid&#45;&gt;Tkinter.Widget</title>
<path fill="none" stroke="black" stroke-width="0.5" d="M330.354,-301.706C364.622,-308.027 416.138,-317.53 453.407,-324.405"/>
<polygon fill="black" stroke="black" points="453.103,-326.129 458.338,-325.315 453.738,-322.687 453.103,-326.129"/>
</g>
<!-- Tkinter.BaseWidget -->
<g id="node47" class="node"><title>Tkinter.BaseWidget</title>
<polygon fill="none" stroke="black" stroke-width="0.5" points="346,-229 242,-229 242,-209 346,-209 346,-229"/>
<text text-anchor="middle" x="294" y="-216" font-family="Vera" font-size="10.00">Tkinter.BaseWidget</text>
</g>
<!-- Tkinter.BaseWidget&#45;&gt;Tkinter.Toplevel -->
<g id="edge34" class="edge"><title>Tkinter.BaseWidget&#45;&gt;Tkinter.Toplevel</title>
<path fill="none" stroke="black" stroke-width="0.5" d="M330.354,-208.941C366.281,-199 421.164,-183.814 458.713,-173.424"/>
<polygon fill="black" stroke="black" points="459.311,-175.074 463.663,-172.054 458.377,-171.701 459.311,-175.074"/>
</g>
<!-- Tkinter.BaseWidget&#45;&gt;Tkinter.Widget -->
<g id="edge52" class="edge"><title>Tkinter.BaseWidget&#45;&gt;Tkinter.Widget</title>
<path fill="none" stroke="black" stroke-width="0.5" d="M312.281,-229.117C349.922,-249.947 435.998,-297.581 477.201,-320.383"/>
<polygon fill="black" stroke="black" points="476.538,-322.016 481.76,-322.906 478.232,-318.954 476.538,-322.016"/>
</g>
<!-- Tkinter.Wm -->
<g id="node49" class="node"><title>Tkinter.Wm</title>
<polygon fill="none" stroke="black" stroke-width="0.5" points="329,-172 259,-172 259,-152 329,-152 329,-172"/>
<text text-anchor="middle" x="294" y="-159" font-family="Vera" font-size="10.00">Tkinter.Wm</text>
</g>
<!-- Tkinter.Wm&#45;&gt;Tkinter.Toplevel -->
<g id="edge36" class="edge"><title>Tkinter.Wm&#45;&gt;Tkinter.Toplevel</title>
<path fill="none" stroke="black" stroke-width="0.5" d="M329.413,-162C362.525,-162 412.323,-162 449.579,-162"/>
<polygon fill="black" stroke="black" points="449.981,-163.75 454.981,-162 449.981,-160.25 449.981,-163.75"/>
</g>
<!-- paramtk.ListRepresenter -->
<g id="node57" class="node"><title>paramtk.ListRepresenter</title>
<polygon fill="none" stroke="black" stroke-width="0.5" points="749,-96 621,-96 621,-76 749,-76 749,-96"/>
<text text-anchor="middle" x="685" y="-83" font-family="Vera" font-size="10.00">paramtk.ListRepresenter</text>
</g>
<!-- paramtk.Representer&#45;&gt;paramtk.ListRepresenter -->
<g id="edge46" class="edge"><title>paramtk.Representer&#45;&gt;paramtk.ListRepresenter</title>
<path fill="none" stroke="black" stroke-width="0.5" d="M556.511,-86C575.063,-86 595.902,-86 615.313,-86"/>
<polygon fill="black" stroke="black" points="615.746,-87.7501 620.746,-86 615.746,-84.2501 615.746,-87.7501"/>
</g>
<!-- paramtk.ProgressController -->
<g id="node61" class="node"><title>paramtk.ProgressController</title>
<polygon fill="none" stroke="black" stroke-width="0.5" points="756,-324 614,-324 614,-304 756,-304 756,-324"/>
<text text-anchor="middle" x="685" y="-311" font-family="Vera" font-size="10.00">paramtk.ProgressController</text>
</g>
<!-- paramtk.ProgressController&#45;&gt;paramtk.ProgressWindow -->
<g id="edge48" class="edge"><title>paramtk.ProgressController&#45;&gt;paramtk.ProgressWindow</title>
<path fill="none" stroke="black" stroke-width="0.5" d="M756.003,-314C767.789,-314 780.023,-314 791.837,-314"/>
<polygon fill="black" stroke="black" points="791.873,-315.75 796.873,-314 791.873,-312.25 791.873,-315.75"/>
</g>
<!-- Tkinter.Misc -->
<g id="node86" class="node"><title>Tkinter.Misc</title>
<polygon fill="none" stroke="black" stroke-width="0.5" points="119,-229 47,-229 47,-209 119,-209 119,-229"/>
<text text-anchor="middle" x="83" y="-216" font-family="Vera" font-size="10.00">Tkinter.Misc</text>
</g>
<!-- Tkinter.Misc&#45;&gt;Tkinter.BaseWidget -->
<g id="edge84" class="edge"><title>Tkinter.Misc&#45;&gt;Tkinter.BaseWidget</title>
<path fill="none" stroke="black" stroke-width="0.5" d="M119.753,-219C151.827,-219 198.914,-219 236.056,-219"/>
<polygon fill="black" stroke="black" points="236.461,-220.75 241.461,-219 236.461,-217.25 236.461,-220.75"/>
</g>
</g>
</svg>
