<?xml version="1.0" encoding="UTF-8" standalone="no"?>
<!DOCTYPE svg PUBLIC "-//W3C//DTD SVG 1.1//EN"
 "http://www.w3.org/Graphics/SVG/1.1/DTD/svg11.dtd">
<!-- Generated by graphviz version 2.26.3 (20100126.1600)
 -->
<!-- Title: inheritance3f61a81af3 Pages: 1 -->
<svg width="632pt" height="66pt"
 viewBox="0.00 0.00 632.00 66.00" xmlns="http://www.w3.org/2000/svg" xmlns:xlink="http://www.w3.org/1999/xlink">
<g id="graph1" class="graph" transform="scale(1 1) rotate(0) translate(4 62)">
<title>inheritance3f61a81af3</title>
<polygon fill="white" stroke="white" points="-4,5 -4,-62 629,-62 629,5 -4,5"/>
<!-- topo.tests.unit.testcfsom.TestCFSom -->
<g id="node1" class="node"><title>topo.tests.unit.testcfsom.TestCFSom</title>
<polygon fill="none" stroke="black" stroke-width="0.5" points="402,-20 222,-20 222,-1.06581e-14 402,-3.55271e-15 402,-20"/>
<text text-anchor="middle" x="312" y="-7" font-family="Vera" font-size="10.00">topo.tests.unit.testcfsom.TestCFSom</text>
</g>
<!-- unittest.case.TestCase -->
<g id="node2" class="node"><title>unittest.case.TestCase</title>
<polygon fill="none" stroke="black" stroke-width="0.5" points="150,-20 34,-20 34,-1.06581e-14 150,-3.55271e-15 150,-20"/>
<text text-anchor="middle" x="92" y="-7" font-family="Vera" font-size="10.00">unittest.case.TestCase</text>
</g>
<!-- unittest.case.TestCase&#45;&gt;topo.tests.unit.testcfsom.TestCFSom -->
<g id="edge2" class="edge"><title>unittest.case.TestCase&#45;&gt;topo.tests.unit.testcfsom.TestCFSom</title>
<path fill="none" stroke="black" stroke-width="0.5" d="M150.09,-10C170.329,-10 193.609,-10 216.09,-10"/>
<polygon fill="black" stroke="black" points="216.176,-11.7501 221.176,-10 216.176,-8.2501 216.176,-11.7501"/>
</g>
<!-- topo.base.simulation.EventProcessor -->
<g id="node4" class="node"><title>topo.base.simulation.EventProcessor</title>
<polygon fill="none" stroke="black" stroke-width="0.5" points="404,-58 220,-58 220,-38 404,-38 404,-58"/>
<text text-anchor="middle" x="312" y="-45" font-family="Vera" font-size="10.00">topo.base.simulation.EventProcessor</text>
</g>
<!-- topo.tests.unit.testcfsom.ImageSaver -->
<g id="node7" class="node"><title>topo.tests.unit.testcfsom.ImageSaver</title>
<polygon fill="none" stroke="black" stroke-width="0.5" points="624,-58 440,-58 440,-38 624,-38 624,-58"/>
<text text-anchor="middle" x="532" y="-45" font-family="Vera" font-size="10.00">topo.tests.unit.testcfsom.ImageSaver</text>
</g>
<!-- topo.base.simulation.EventProcessor&#45;&gt;topo.tests.unit.testcfsom.ImageSaver -->
<g id="edge6" class="edge"><title>topo.base.simulation.EventProcessor&#45;&gt;topo.tests.unit.testcfsom.ImageSaver</title>
<path fill="none" stroke="black" stroke-width="0.5" d="M404.025,-48C414.245,-48 424.678,-48 434.957,-48"/>
<polygon fill="black" stroke="black" points="434.99,-49.7501 439.99,-48 434.99,-46.2501 434.99,-49.7501"/>
</g>
<!-- param.parameterized.Parameterized -->
<g id="node5" class="node"><title>param.parameterized.Parameterized</title>
<polygon fill="none" stroke="black" stroke-width="0.5" points="184,-58 8.52651e-14,-58 0,-38 184,-38 184,-58"/>
<text text-anchor="middle" x="92" y="-45" font-family="Vera" font-size="10.00">param.parameterized.Parameterized</text>
</g>
<!-- param.parameterized.Parameterized&#45;&gt;topo.base.simulation.EventProcessor -->
<g id="edge4" class="edge"><title>param.parameterized.Parameterized&#45;&gt;topo.base.simulation.EventProcessor</title>
<path fill="none" stroke="black" stroke-width="0.5" d="M184.025,-48C194.245,-48 204.678,-48 214.957,-48"/>
<polygon fill="black" stroke="black" points="214.99,-49.7501 219.99,-48 214.99,-46.2501 214.99,-49.7501"/>
</g>
</g>
</svg>
