<?xml version="1.0" encoding="UTF-8" standalone="no"?>
<!DOCTYPE svg PUBLIC "-//W3C//DTD SVG 1.1//EN"
 "http://www.w3.org/Graphics/SVG/1.1/DTD/svg11.dtd">
<!-- Generated by graphviz version 2.26.3 (20100126.1600)
 -->
<!-- Title: inheritance273a80740e Pages: 1 -->
<svg width="876pt" height="940pt"
 viewBox="0.00 0.00 876.00 940.00" xmlns="http://www.w3.org/2000/svg" xmlns:xlink="http://www.w3.org/1999/xlink">
<g id="graph1" class="graph" transform="scale(1 1) rotate(0) translate(4 936)">
<title>inheritance273a80740e</title>
<polygon fill="white" stroke="white" points="-4,5 -4,-936 873,-936 873,5 -4,5"/>
<!-- imagen.SineGrating -->
<g id="node1" class="node"><title>imagen.SineGrating</title>
<polygon fill="none" stroke="black" stroke-width="0.5" points="638,-894.5 526,-894.5 526,-873.5 638,-873.5 638,-894.5"/>
<text text-anchor="middle" x="582" y="-881.5" font-family="Vera" font-size="10.00">imagen.SineGrating</text>
</g>
<!-- imagen.OrientationContrast -->
<g id="node54" class="node"><title>imagen.OrientationContrast</title>
<polygon fill="none" stroke="black" stroke-width="0.5" points="864,-894.5 714,-894.5 714,-873.5 864,-873.5 864,-894.5"/>
<text text-anchor="middle" x="789" y="-881.5" font-family="Vera" font-size="10.00">imagen.OrientationContrast</text>
</g>
<!-- imagen.SineGrating&#45;&gt;imagen.OrientationContrast -->
<g id="edge50" class="edge"><title>imagen.SineGrating&#45;&gt;imagen.OrientationContrast</title>
<path fill="none" stroke="black" stroke-width="0.5" d="M638.017,-884C659.815,-884 685.2,-884 708.866,-884"/>
<polygon fill="black" stroke="black" points="708.888,-885.75 713.888,-884 708.887,-882.25 708.888,-885.75"/>
</g>
<!-- imagen.patterngenerator.PatternGenerator -->
<g id="node2" class="node"><title>imagen.patterngenerator.PatternGenerator</title>
<polygon fill="none" stroke="black" stroke-width="0.5" points="454,-457.5 230,-457.5 230,-436.5 454,-436.5 454,-457.5"/>
<text text-anchor="middle" x="342" y="-444.5" font-family="Vera" font-size="10.00">imagen.patterngenerator.PatternGenerator</text>
</g>
<!-- imagen.patterngenerator.PatternGenerator&#45;&gt;imagen.SineGrating -->
<g id="edge2" class="edge"><title>imagen.patterngenerator.PatternGenerator&#45;&gt;imagen.SineGrating</title>
<path fill="none" stroke="black" stroke-width="0.5" d="M344.205,-457.259C356.982,-515.776 423.271,-806.818 490,-865 498.635,-872.529 509.457,-877.356 520.617,-880.398"/>
<polygon fill="black" stroke="black" points="520.487,-882.169 525.762,-881.674 521.33,-878.772 520.487,-882.169"/>
</g>
<!-- imagen.RawRectangle -->
<g id="node7" class="node"><title>imagen.RawRectangle</title>
<polygon fill="none" stroke="black" stroke-width="0.5" points="642,-856.5 522,-856.5 522,-835.5 642,-835.5 642,-856.5"/>
<text text-anchor="middle" x="582" y="-843.5" font-family="Vera" font-size="10.00">imagen.RawRectangle</text>
</g>
<!-- imagen.patterngenerator.PatternGenerator&#45;&gt;imagen.RawRectangle -->
<g id="edge6" class="edge"><title>imagen.patterngenerator.PatternGenerator&#45;&gt;imagen.RawRectangle</title>
<path fill="none" stroke="black" stroke-width="0.5" d="M342.586,-457.178C346.009,-506.641 367.778,-723.734 490,-827 497.532,-833.364 506.638,-837.782 516.155,-840.818"/>
<polygon fill="black" stroke="black" points="515.872,-842.558 521.162,-842.282 516.854,-839.199 515.872,-842.558"/>
</g>
<!-- imagen.SquareGrating -->
<g id="node11" class="node"><title>imagen.SquareGrating</title>
<polygon fill="none" stroke="black" stroke-width="0.5" points="644,-818.5 520,-818.5 520,-797.5 644,-797.5 644,-818.5"/>
<text text-anchor="middle" x="582" y="-805.5" font-family="Vera" font-size="10.00">imagen.SquareGrating</text>
</g>
<!-- imagen.patterngenerator.PatternGenerator&#45;&gt;imagen.SquareGrating -->
<g id="edge10" class="edge"><title>imagen.patterngenerator.PatternGenerator&#45;&gt;imagen.SquareGrating</title>
<path fill="none" stroke="black" stroke-width="0.5" d="M343.054,-457.096C348.456,-503.427 377.339,-697.332 490,-789 497.152,-794.819 505.631,-798.995 514.503,-801.969"/>
<polygon fill="black" stroke="black" points="514.172,-803.698 519.466,-803.5 515.204,-800.354 514.172,-803.698"/>
</g>
<!-- imagen.Sweeper -->
<g id="node13" class="node"><title>imagen.Sweeper</title>
<polygon fill="none" stroke="black" stroke-width="0.5" points="630,-780.5 534,-780.5 534,-759.5 630,-759.5 630,-780.5"/>
<text text-anchor="middle" x="582" y="-767.5" font-family="Vera" font-size="10.00">imagen.Sweeper</text>
</g>
<!-- imagen.patterngenerator.PatternGenerator&#45;&gt;imagen.Sweeper -->
<g id="edge12" class="edge"><title>imagen.patterngenerator.PatternGenerator&#45;&gt;imagen.Sweeper</title>
<path fill="none" stroke="black" stroke-width="0.5" d="M343.642,-457.137C351.211,-500.38 386.877,-670.851 490,-751 500.895,-759.468 514.638,-764.414 528.156,-767.241"/>
<polygon fill="black" stroke="black" points="527.881,-768.97 533.121,-768.189 528.538,-765.532 527.881,-768.97"/>
</g>
<!-- imagen.PowerSpectrum -->
<g id="node15" class="node"><title>imagen.PowerSpectrum</title>
<polygon fill="none" stroke="black" stroke-width="0.5" points="647,-742.5 517,-742.5 517,-721.5 647,-721.5 647,-742.5"/>
<text text-anchor="middle" x="582" y="-729.5" font-family="Vera" font-size="10.00">imagen.PowerSpectrum</text>
</g>
<!-- imagen.patterngenerator.PatternGenerator&#45;&gt;imagen.PowerSpectrum -->
<g id="edge14" class="edge"><title>imagen.patterngenerator.PatternGenerator&#45;&gt;imagen.PowerSpectrum</title>
<path fill="none" stroke="black" stroke-width="0.5" d="M344.397,-457.219C354.341,-497.199 396.286,-644.188 490,-713 496.423,-717.716 503.746,-721.324 511.39,-724.076"/>
<polygon fill="black" stroke="black" points="510.89,-725.753 516.187,-725.68 512,-722.434 510.89,-725.753"/>
</g>
<!-- imagen.Translator -->
<g id="node17" class="node"><title>imagen.Translator</title>
<polygon fill="none" stroke="black" stroke-width="0.5" points="633,-704.5 531,-704.5 531,-683.5 633,-683.5 633,-704.5"/>
<text text-anchor="middle" x="582" y="-691.5" font-family="Vera" font-size="10.00">imagen.Translator</text>
</g>
<!-- imagen.patterngenerator.PatternGenerator&#45;&gt;imagen.Translator -->
<g id="edge16" class="edge"><title>imagen.patterngenerator.PatternGenerator&#45;&gt;imagen.Translator</title>
<path fill="none" stroke="black" stroke-width="0.5" d="M345.371,-457.24C357.895,-493.576 405.443,-617.232 490,-675 500.581,-682.229 513.333,-686.81 525.927,-689.688"/>
<polygon fill="black" stroke="black" points="525.674,-691.423 530.928,-690.746 526.399,-687.999 525.674,-691.423"/>
</g>
<!-- imagen.DifferenceOfGaussians -->
<g id="node19" class="node"><title>imagen.DifferenceOfGaussians</title>
<polygon fill="none" stroke="black" stroke-width="0.5" points="664,-666.5 500,-666.5 500,-645.5 664,-645.5 664,-666.5"/>
<text text-anchor="middle" x="582" y="-653.5" font-family="Vera" font-size="10.00">imagen.DifferenceOfGaussians</text>
</g>
<!-- imagen.patterngenerator.PatternGenerator&#45;&gt;imagen.DifferenceOfGaussians -->
<g id="edge18" class="edge"><title>imagen.patterngenerator.PatternGenerator&#45;&gt;imagen.DifferenceOfGaussians</title>
<path fill="none" stroke="black" stroke-width="0.5" d="M346.723,-457.3C362.136,-489.668 414.37,-589.969 490,-637 494.363,-639.713 499.045,-642.046 503.901,-644.051"/>
<polygon fill="black" stroke="black" points="503.516,-645.779 508.811,-645.95 504.778,-642.514 503.516,-645.779"/>
</g>
<!-- imagen.LogGaussian -->
<g id="node21" class="node"><title>imagen.LogGaussian</title>
<polygon fill="none" stroke="black" stroke-width="0.5" points="640,-628.5 524,-628.5 524,-607.5 640,-607.5 640,-628.5"/>
<text text-anchor="middle" x="582" y="-615.5" font-family="Vera" font-size="10.00">imagen.LogGaussian</text>
</g>
<!-- imagen.patterngenerator.PatternGenerator&#45;&gt;imagen.LogGaussian -->
<g id="edge20" class="edge"><title>imagen.patterngenerator.PatternGenerator&#45;&gt;imagen.LogGaussian</title>
<path fill="none" stroke="black" stroke-width="0.5" d="M348.572,-457.145C367.101,-484.853 422.812,-562.191 490,-599 498.648,-603.738 508.343,-607.298 518.107,-609.971"/>
<polygon fill="black" stroke="black" points="517.936,-611.734 523.215,-611.29 518.811,-608.346 517.936,-611.734"/>
</g>
<!-- imagen.SigmoidedDoG -->
<g id="node23" class="node"><title>imagen.SigmoidedDoG</title>
<polygon fill="none" stroke="black" stroke-width="0.5" points="646,-590.5 518,-590.5 518,-569.5 646,-569.5 646,-590.5"/>
<text text-anchor="middle" x="582" y="-577.5" font-family="Vera" font-size="10.00">imagen.SigmoidedDoG</text>
</g>
<!-- imagen.patterngenerator.PatternGenerator&#45;&gt;imagen.SigmoidedDoG -->
<g id="edge22" class="edge"><title>imagen.patterngenerator.PatternGenerator&#45;&gt;imagen.SigmoidedDoG</title>
<path fill="none" stroke="black" stroke-width="0.5" d="M351.684,-457.097C373.872,-479.589 431.039,-533.959 490,-561 497.243,-564.322 505.073,-567.068 513.001,-569.337"/>
<polygon fill="black" stroke="black" points="512.661,-571.058 517.946,-570.689 513.585,-567.682 512.661,-571.058"/>
</g>
<!-- imagen.Arc -->
<g id="node26" class="node"><title>imagen.Arc</title>
<polygon fill="none" stroke="black" stroke-width="0.5" points="617,-552.5 547,-552.5 547,-531.5 617,-531.5 617,-552.5"/>
<text text-anchor="middle" x="582" y="-539.5" font-family="Vera" font-size="10.00">imagen.Arc</text>
</g>
<!-- imagen.patterngenerator.PatternGenerator&#45;&gt;imagen.Arc -->
<g id="edge64" class="edge"><title>imagen.patterngenerator.PatternGenerator&#45;&gt;imagen.Arc</title>
<path fill="none" stroke="black" stroke-width="0.5" d="M358.209,-457.194C384.757,-473.453 439.606,-505.229 490,-523 506.448,-528.8 525.208,-533.07 541.478,-536.076"/>
<polygon fill="black" stroke="black" points="541.212,-537.806 546.442,-536.969 541.831,-534.361 541.212,-537.806"/>
</g>
<!-- imagen.Gaussian -->
<g id="node28" class="node"><title>imagen.Gaussian</title>
<polygon fill="none" stroke="black" stroke-width="0.5" points="632,-514.5 532,-514.5 532,-493.5 632,-493.5 632,-514.5"/>
<text text-anchor="middle" x="582" y="-501.5" font-family="Vera" font-size="10.00">imagen.Gaussian</text>
</g>
<!-- imagen.patterngenerator.PatternGenerator&#45;&gt;imagen.Gaussian -->
<g id="edge26" class="edge"><title>imagen.patterngenerator.PatternGenerator&#45;&gt;imagen.Gaussian</title>
<path fill="none" stroke="black" stroke-width="0.5" d="M378.982,-457.017C408.848,-464.981 452.009,-476.205 490,-485 501.817,-487.736 514.534,-490.486 526.629,-493.01"/>
<polygon fill="black" stroke="black" points="526.519,-494.775 531.77,-494.078 527.231,-491.348 526.519,-494.775"/>
</g>
<!-- imagen.Disk -->
<g id="node30" class="node"><title>imagen.Disk</title>
<polygon fill="none" stroke="black" stroke-width="0.5" points="620,-476.5 544,-476.5 544,-455.5 620,-455.5 620,-476.5"/>
<text text-anchor="middle" x="582" y="-463.5" font-family="Vera" font-size="10.00">imagen.Disk</text>
</g>
<!-- imagen.patterngenerator.PatternGenerator&#45;&gt;imagen.Disk -->
<g id="edge28" class="edge"><title>imagen.patterngenerator.PatternGenerator&#45;&gt;imagen.Disk</title>
<path fill="none" stroke="black" stroke-width="0.5" d="M454.27,-455.888C484.213,-458.259 514.8,-460.68 538.533,-462.559"/>
<polygon fill="black" stroke="black" points="538.675,-464.325 543.797,-462.976 538.951,-460.836 538.675,-464.325"/>
</g>
<!-- imagen.Gabor -->
<g id="node32" class="node"><title>imagen.Gabor</title>
<polygon fill="none" stroke="black" stroke-width="0.5" points="624,-438.5 540,-438.5 540,-417.5 624,-417.5 624,-438.5"/>
<text text-anchor="middle" x="582" y="-425.5" font-family="Vera" font-size="10.00">imagen.Gabor</text>
</g>
<!-- imagen.patterngenerator.PatternGenerator&#45;&gt;imagen.Gabor -->
<g id="edge30" class="edge"><title>imagen.patterngenerator.PatternGenerator&#45;&gt;imagen.Gabor</title>
<path fill="none" stroke="black" stroke-width="0.5" d="M454.27,-438.112C482.398,-435.885 511.095,-433.613 534.144,-431.789"/>
<polygon fill="black" stroke="black" points="534.428,-433.522 539.274,-431.382 534.152,-430.033 534.428,-433.522"/>
</g>
<!-- imagen.SigmoidedDoLG -->
<g id="node34" class="node"><title>imagen.SigmoidedDoLG</title>
<polygon fill="none" stroke="black" stroke-width="0.5" points="648,-400.5 516,-400.5 516,-379.5 648,-379.5 648,-400.5"/>
<text text-anchor="middle" x="582" y="-387.5" font-family="Vera" font-size="10.00">imagen.SigmoidedDoLG</text>
</g>
<!-- imagen.patterngenerator.PatternGenerator&#45;&gt;imagen.SigmoidedDoLG -->
<g id="edge32" class="edge"><title>imagen.patterngenerator.PatternGenerator&#45;&gt;imagen.SigmoidedDoLG</title>
<path fill="none" stroke="black" stroke-width="0.5" d="M420.515,-436.949C431.895,-434.553 443.353,-431.609 454,-428 471.134,-422.192 472.972,-415.112 490,-409 498.289,-406.024 507.175,-403.459 516.037,-401.263"/>
<polygon fill="black" stroke="black" points="516.501,-402.951 520.953,-400.08 515.683,-399.548 516.501,-402.951"/>
</g>
<!-- imagen.GaussiansCorner -->
<g id="node36" class="node"><title>imagen.GaussiansCorner</title>
<polygon fill="none" stroke="black" stroke-width="0.5" points="650,-362.5 514,-362.5 514,-341.5 650,-341.5 650,-362.5"/>
<text text-anchor="middle" x="582" y="-349.5" font-family="Vera" font-size="10.00">imagen.GaussiansCorner</text>
</g>
<!-- imagen.patterngenerator.PatternGenerator&#45;&gt;imagen.GaussiansCorner -->
<g id="edge34" class="edge"><title>imagen.patterngenerator.PatternGenerator&#45;&gt;imagen.GaussiansCorner</title>
<path fill="none" stroke="black" stroke-width="0.5" d="M436.846,-436.968C442.881,-434.512 448.666,-431.554 454,-428 478.935,-411.386 465.365,-388.056 490,-371 495.556,-367.153 501.724,-364.054 508.161,-361.561"/>
<polygon fill="black" stroke="black" points="509.018,-363.112 513.129,-359.77 507.832,-359.819 509.018,-363.112"/>
</g>
<!-- imagen.patterngenerator.Constant -->
<g id="node38" class="node"><title>imagen.patterngenerator.Constant</title>
<polygon fill="none" stroke="black" stroke-width="0.5" points="674,-324.5 490,-324.5 490,-303.5 674,-303.5 674,-324.5"/>
<text text-anchor="middle" x="582" y="-311.5" font-family="Vera" font-size="10.00">imagen.patterngenerator.Constant</text>
</g>
<!-- imagen.patterngenerator.PatternGenerator&#45;&gt;imagen.patterngenerator.Constant -->
<g id="edge36" class="edge"><title>imagen.patterngenerator.PatternGenerator&#45;&gt;imagen.patterngenerator.Constant</title>
<path fill="none" stroke="black" stroke-width="0.5" d="M440.125,-436.98C445.063,-434.476 449.735,-431.508 454,-428 488.872,-399.318 455.644,-362.298 490,-333 492.815,-330.599 495.854,-328.474 499.055,-326.596"/>
<polygon fill="black" stroke="black" points="499.949,-328.102 503.514,-324.184 498.284,-325.024 499.949,-328.102"/>
</g>
<!-- imagen.Rectangle -->
<g id="node41" class="node"><title>imagen.Rectangle</title>
<polygon fill="none" stroke="black" stroke-width="0.5" points="633,-286.5 531,-286.5 531,-265.5 633,-265.5 633,-286.5"/>
<text text-anchor="middle" x="582" y="-273.5" font-family="Vera" font-size="10.00">imagen.Rectangle</text>
</g>
<!-- imagen.patterngenerator.PatternGenerator&#45;&gt;imagen.Rectangle -->
<g id="edge44" class="edge"><title>imagen.patterngenerator.PatternGenerator&#45;&gt;imagen.Rectangle</title>
<path fill="none" stroke="black" stroke-width="0.5" d="M441.576,-436.896C446.023,-434.39 450.204,-431.447 454,-428 499.336,-386.832 445.404,-336.968 490,-295 499.646,-285.922 512.432,-280.692 525.394,-277.782"/>
<polygon fill="black" stroke="black" points="526.002,-279.444 530.559,-276.742 525.311,-276.013 526.002,-279.444"/>
</g>
<!-- imagen.Composite -->
<g id="node46" class="node"><title>imagen.Composite</title>
<polygon fill="none" stroke="black" stroke-width="0.5" points="635,-248.5 529,-248.5 529,-227.5 635,-227.5 635,-248.5"/>
<text text-anchor="middle" x="582" y="-235.5" font-family="Vera" font-size="10.00">imagen.Composite</text>
</g>
<!-- imagen.patterngenerator.PatternGenerator&#45;&gt;imagen.Composite -->
<g id="edge56" class="edge"><title>imagen.patterngenerator.PatternGenerator&#45;&gt;imagen.Composite</title>
<path fill="none" stroke="black" stroke-width="0.5" d="M442.322,-436.855C446.517,-434.348 450.445,-431.417 454,-428 509.991,-374.176 434.977,-311.813 490,-257 498.976,-248.058 510.977,-242.793 523.34,-239.798"/>
<polygon fill="black" stroke="black" points="523.764,-241.497 528.276,-238.722 523.018,-238.077 523.764,-241.497"/>
</g>
<!-- imagen.Ring -->
<g id="node49" class="node"><title>imagen.Ring</title>
<polygon fill="none" stroke="black" stroke-width="0.5" points="620,-210.5 544,-210.5 544,-189.5 620,-189.5 620,-210.5"/>
<text text-anchor="middle" x="582" y="-197.5" font-family="Vera" font-size="10.00">imagen.Ring</text>
</g>
<!-- imagen.patterngenerator.PatternGenerator&#45;&gt;imagen.Ring -->
<g id="edge46" class="edge"><title>imagen.patterngenerator.PatternGenerator&#45;&gt;imagen.Ring</title>
<path fill="none" stroke="black" stroke-width="0.5" d="M442.975,-436.706C446.942,-434.226 450.649,-431.343 454,-428 520.734,-361.435 424.462,-286.743 490,-219 502.435,-206.147 521.097,-200.818 538.37,-198.927"/>
<polygon fill="black" stroke="black" points="538.856,-200.64 543.678,-198.446 538.54,-197.155 538.856,-200.64"/>
</g>
<!-- imagen.Sigmoid -->
<g id="node56" class="node"><title>imagen.Sigmoid</title>
<polygon fill="none" stroke="black" stroke-width="0.5" points="629,-172.5 535,-172.5 535,-151.5 629,-151.5 629,-172.5"/>
<text text-anchor="middle" x="582" y="-159.5" font-family="Vera" font-size="10.00">imagen.Sigmoid</text>
</g>
<!-- imagen.patterngenerator.PatternGenerator&#45;&gt;imagen.Sigmoid -->
<g id="edge52" class="edge"><title>imagen.patterngenerator.PatternGenerator&#45;&gt;imagen.Sigmoid</title>
<path fill="none" stroke="black" stroke-width="0.5" d="M443.082,-436.812C447.02,-434.304 450.692,-431.386 454,-428 531.525,-348.646 413.9,-261.722 490,-181 500.064,-170.325 514.414,-164.806 528.796,-162.138"/>
<polygon fill="black" stroke="black" points="529.433,-163.808 534.088,-161.28 528.872,-160.353 529.433,-163.808"/>
</g>
<!-- imagen.ExponentialDecay -->
<g id="node64" class="node"><title>imagen.ExponentialDecay</title>
<polygon fill="none" stroke="black" stroke-width="0.5" points="652,-134.5 512,-134.5 512,-113.5 652,-113.5 652,-134.5"/>
<text text-anchor="middle" x="582" y="-121.5" font-family="Vera" font-size="10.00">imagen.ExponentialDecay</text>
</g>
<!-- imagen.patterngenerator.PatternGenerator&#45;&gt;imagen.ExponentialDecay -->
<g id="edge62" class="edge"><title>imagen.patterngenerator.PatternGenerator&#45;&gt;imagen.ExponentialDecay</title>
<path fill="none" stroke="black" stroke-width="0.5" d="M443.162,-436.889C447.079,-434.361 450.725,-431.417 454,-428 542.345,-335.828 403.31,-236.73 490,-143 494.677,-137.943 500.315,-134.038 506.469,-131.041"/>
<polygon fill="black" stroke="black" points="507.401,-132.543 511.269,-128.923 505.988,-129.341 507.401,-132.543"/>
</g>
<!-- imagen.Line -->
<g id="node67" class="node"><title>imagen.Line</title>
<polygon fill="none" stroke="black" stroke-width="0.5" points="619,-96.5 545,-96.5 545,-75.5 619,-75.5 619,-96.5"/>
<text text-anchor="middle" x="582" y="-83.5" font-family="Vera" font-size="10.00">imagen.Line</text>
</g>
<!-- imagen.patterngenerator.PatternGenerator&#45;&gt;imagen.Line -->
<g id="edge66" class="edge"><title>imagen.patterngenerator.PatternGenerator&#45;&gt;imagen.Line</title>
<path fill="none" stroke="black" stroke-width="0.5" d="M443.223,-436.948C447.125,-434.404 450.75,-431.441 454,-428 553.183,-322.991 392.702,-211.758 490,-105 502.246,-91.5634 521.27,-86.2258 538.848,-84.4816"/>
<polygon fill="black" stroke="black" points="539.403,-86.193 544.248,-84.0507 539.124,-82.7041 539.403,-86.193"/>
</g>
<!-- imagen.HalfPlane -->
<g id="node69" class="node"><title>imagen.HalfPlane</title>
<polygon fill="none" stroke="black" stroke-width="0.5" points="632,-58.5 532,-58.5 532,-37.5 632,-37.5 632,-58.5"/>
<text text-anchor="middle" x="582" y="-45.5" font-family="Vera" font-size="10.00">imagen.HalfPlane</text>
</g>
<!-- imagen.patterngenerator.PatternGenerator&#45;&gt;imagen.HalfPlane -->
<g id="edge68" class="edge"><title>imagen.patterngenerator.PatternGenerator&#45;&gt;imagen.HalfPlane</title>
<path fill="none" stroke="black" stroke-width="0.5" d="M443.273,-436.994C447.161,-434.438 450.77,-431.46 454,-428 509.017,-369.07 436.041,-126.9 490,-67 499.333,-56.6394 512.694,-51.08 526.351,-48.2704"/>
<polygon fill="black" stroke="black" points="526.783,-49.9708 531.39,-47.3559 526.157,-46.5271 526.783,-49.9708"/>
</g>
<!-- imagen.Selector -->
<g id="node71" class="node"><title>imagen.Selector</title>
<polygon fill="none" stroke="black" stroke-width="0.5" points="629,-20.5 535,-20.5 535,0.5 629,0.5 629,-20.5"/>
<text text-anchor="middle" x="582" y="-7.5" font-family="Vera" font-size="10.00">imagen.Selector</text>
</g>
<!-- imagen.patterngenerator.PatternGenerator&#45;&gt;imagen.Selector -->
<g id="edge70" class="edge"><title>imagen.patterngenerator.PatternGenerator&#45;&gt;imagen.Selector</title>
<path fill="none" stroke="black" stroke-width="0.5" d="M443.796,-436.709C447.49,-434.215 450.92,-431.33 454,-428 514.447,-362.64 430.726,-95.426 490,-29 499.951,-17.8483 514.567,-12.2459 529.233,-9.64877"/>
<polygon fill="black" stroke="black" points="529.528,-11.374 534.201,-8.87954 528.993,-7.91516 529.528,-11.374"/>
</g>
<!-- param.Selector -->
<g id="node4" class="node"><title>param.Selector</title>
<polygon fill="none" stroke="black" stroke-width="0.5" points="387,-932.5 297,-932.5 297,-911.5 387,-911.5 387,-932.5"/>
<text text-anchor="middle" x="342" y="-919.5" font-family="Vera" font-size="10.00">param.Selector</text>
</g>
<!-- param.ClassSelector -->
<g id="node52" class="node"><title>param.ClassSelector</title>
<polygon fill="none" stroke="black" stroke-width="0.5" points="640,-932.5 524,-932.5 524,-911.5 640,-911.5 640,-932.5"/>
<text text-anchor="middle" x="582" y="-919.5" font-family="Vera" font-size="10.00">param.ClassSelector</text>
</g>
<!-- param.Selector&#45;&gt;param.ClassSelector -->
<g id="edge54" class="edge"><title>param.Selector&#45;&gt;param.ClassSelector</title>
<path fill="none" stroke="black" stroke-width="0.5" d="M387.707,-922C424.748,-922 477.358,-922 518.494,-922"/>
<polygon fill="black" stroke="black" points="518.706,-923.75 523.706,-922 518.706,-920.25 518.706,-923.75"/>
</g>
<!-- param.parameterized.Parameter -->
<g id="node5" class="node"><title>param.parameterized.Parameter</title>
<polygon fill="none" stroke="black" stroke-width="0.5" points="184,-932.5 10,-932.5 10,-911.5 184,-911.5 184,-932.5"/>
<text text-anchor="middle" x="97" y="-919.5" font-family="Vera" font-size="10.00">param.parameterized.Parameter</text>
</g>
<!-- param.parameterized.Parameter&#45;&gt;param.Selector -->
<g id="edge4" class="edge"><title>param.parameterized.Parameter&#45;&gt;param.Selector</title>
<path fill="none" stroke="black" stroke-width="0.5" d="M184.759,-922C220.453,-922 260.436,-922 291.152,-922"/>
<polygon fill="black" stroke="black" points="291.387,-923.75 296.387,-922 291.387,-920.25 291.387,-923.75"/>
</g>
<!-- param.parameterized.Parameterized -->
<g id="node9" class="node"><title>param.parameterized.Parameterized</title>
<polygon fill="none" stroke="black" stroke-width="0.5" points="194,-438.5 5.68434e-14,-438.5 0,-417.5 194,-417.5 194,-438.5"/>
<text text-anchor="middle" x="97" y="-425.5" font-family="Vera" font-size="10.00">param.parameterized.Parameterized</text>
</g>
<!-- param.parameterized.Parameterized&#45;&gt;imagen.patterngenerator.PatternGenerator -->
<g id="edge8" class="edge"><title>param.parameterized.Parameterized&#45;&gt;imagen.patterngenerator.PatternGenerator</title>
<path fill="none" stroke="black" stroke-width="0.5" d="M194.182,-435.537C204.286,-436.32 214.629,-437.122 224.922,-437.92"/>
<polygon fill="black" stroke="black" points="224.849,-439.67 229.969,-438.312 225.12,-436.18 224.849,-439.67"/>
</g>
<!-- imagen.TimeSeries -->
<g id="node62" class="node"><title>imagen.TimeSeries</title>
<polygon fill="none" stroke="black" stroke-width="0.5" points="396,-419.5 288,-419.5 288,-398.5 396,-398.5 396,-419.5"/>
<text text-anchor="middle" x="342" y="-406.5" font-family="Vera" font-size="10.00">imagen.TimeSeries</text>
</g>
<!-- param.parameterized.Parameterized&#45;&gt;imagen.TimeSeries -->
<g id="edge60" class="edge"><title>param.parameterized.Parameterized&#45;&gt;imagen.TimeSeries</title>
<path fill="none" stroke="black" stroke-width="0.5" d="M194.182,-420.463C223.866,-418.161 255.624,-415.699 282.066,-413.648"/>
<polygon fill="black" stroke="black" points="282.431,-415.375 287.281,-413.244 282.161,-411.885 282.431,-415.375"/>
</g>
<!-- imagen.Spectrogram -->
<g id="node60" class="node"><title>imagen.Spectrogram</title>
<polygon fill="none" stroke="black" stroke-width="0.5" points="848,-742.5 730,-742.5 730,-721.5 848,-721.5 848,-742.5"/>
<text text-anchor="middle" x="789" y="-729.5" font-family="Vera" font-size="10.00">imagen.Spectrogram</text>
</g>
<!-- imagen.PowerSpectrum&#45;&gt;imagen.Spectrogram -->
<g id="edge58" class="edge"><title>imagen.PowerSpectrum&#45;&gt;imagen.Spectrogram</title>
<path fill="none" stroke="black" stroke-width="0.5" d="M647.781,-732C672.206,-732 699.878,-732 724.214,-732"/>
<polygon fill="black" stroke="black" points="724.354,-733.75 729.354,-732 724.354,-730.25 724.354,-733.75"/>
</g>
<!-- imagen.Curve -->
<g id="node25" class="node"><title>imagen.Curve</title>
<polygon fill="none" stroke="black" stroke-width="0.5" points="830,-552.5 748,-552.5 748,-531.5 830,-531.5 830,-552.5"/>
<text text-anchor="middle" x="789" y="-539.5" font-family="Vera" font-size="10.00">imagen.Curve</text>
</g>
<!-- imagen.Arc&#45;&gt;imagen.Curve -->
<g id="edge24" class="edge"><title>imagen.Arc&#45;&gt;imagen.Curve</title>
<path fill="none" stroke="black" stroke-width="0.5" d="M617.585,-542C652.1,-542 704.658,-542 742.474,-542"/>
<polygon fill="black" stroke="black" points="742.476,-543.75 747.476,-542 742.476,-540.25 742.476,-543.75"/>
</g>
<!-- imagen.Null -->
<g id="node43" class="node"><title>imagen.Null</title>
<polygon fill="none" stroke="black" stroke-width="0.5" points="826,-324.5 752,-324.5 752,-303.5 826,-303.5 826,-324.5"/>
<text text-anchor="middle" x="789" y="-311.5" font-family="Vera" font-size="10.00">imagen.Null</text>
</g>
<!-- imagen.patterngenerator.Constant&#45;&gt;imagen.Null -->
<g id="edge40" class="edge"><title>imagen.patterngenerator.Constant&#45;&gt;imagen.Null</title>
<path fill="none" stroke="black" stroke-width="0.5" d="M674.3,-314C699.545,-314 725.69,-314 746.63,-314"/>
<polygon fill="black" stroke="black" points="746.839,-315.75 751.839,-314 746.838,-312.25 746.839,-315.75"/>
</g>
<!-- imagen.TwoRectangles -->
<g id="node40" class="node"><title>imagen.TwoRectangles</title>
<polygon fill="none" stroke="black" stroke-width="0.5" points="851,-286.5 727,-286.5 727,-265.5 851,-265.5 851,-286.5"/>
<text text-anchor="middle" x="789" y="-273.5" font-family="Vera" font-size="10.00">imagen.TwoRectangles</text>
</g>
<!-- imagen.Rectangle&#45;&gt;imagen.TwoRectangles -->
<g id="edge38" class="edge"><title>imagen.Rectangle&#45;&gt;imagen.TwoRectangles</title>
<path fill="none" stroke="black" stroke-width="0.5" d="M633.169,-276C659.881,-276 692.903,-276 721.665,-276"/>
<polygon fill="black" stroke="black" points="721.983,-277.75 726.983,-276 721.983,-274.25 721.983,-277.75"/>
</g>
<!-- imagen.SeparatedComposite -->
<g id="node45" class="node"><title>imagen.SeparatedComposite</title>
<polygon fill="none" stroke="black" stroke-width="0.5" points="868,-248.5 710,-248.5 710,-227.5 868,-227.5 868,-248.5"/>
<text text-anchor="middle" x="789" y="-235.5" font-family="Vera" font-size="10.00">imagen.SeparatedComposite</text>
</g>
<!-- imagen.Composite&#45;&gt;imagen.SeparatedComposite -->
<g id="edge42" class="edge"><title>imagen.Composite&#45;&gt;imagen.SeparatedComposite</title>
<path fill="none" stroke="black" stroke-width="0.5" d="M635.577,-238C656.626,-238 681.297,-238 704.625,-238"/>
<polygon fill="black" stroke="black" points="704.893,-239.75 709.893,-238 704.892,-236.25 704.893,-239.75"/>
</g>
<!-- imagen.TimeSeriesParam -->
<g id="node51" class="node"><title>imagen.TimeSeriesParam</title>
<polygon fill="none" stroke="black" stroke-width="0.5" points="859,-932.5 719,-932.5 719,-911.5 859,-911.5 859,-932.5"/>
<text text-anchor="middle" x="789" y="-919.5" font-family="Vera" font-size="10.00">imagen.TimeSeriesParam</text>
</g>
<!-- param.ClassSelector&#45;&gt;imagen.TimeSeriesParam -->
<g id="edge48" class="edge"><title>param.ClassSelector&#45;&gt;imagen.TimeSeriesParam</title>
<path fill="none" stroke="black" stroke-width="0.5" d="M640.212,-922C662.986,-922 689.405,-922 713.606,-922"/>
<polygon fill="black" stroke="black" points="713.734,-923.75 718.734,-922 713.734,-920.25 713.734,-923.75"/>
</g>
</g>
</svg>
