<?xml version="1.0" encoding="UTF-8" standalone="no"?>
<!DOCTYPE svg PUBLIC "-//W3C//DTD SVG 1.1//EN"
 "http://www.w3.org/Graphics/SVG/1.1/DTD/svg11.dtd">
<!-- Generated by graphviz version 2.26.3 (20100126.1600)
 -->
<!-- Title: inheritance23f6c59ef5 Pages: 1 -->
<svg width="318pt" height="28pt"
 viewBox="0.00 0.00 318.00 28.00" xmlns="http://www.w3.org/2000/svg" xmlns:xlink="http://www.w3.org/1999/xlink">
<g id="graph1" class="graph" transform="scale(1 1) rotate(0) translate(4 24)">
<title>inheritance23f6c59ef5</title>
<polygon fill="white" stroke="white" points="-4,5 -4,-24 315,-24 315,5 -4,5"/>
<!-- unittest.case.TestCase -->
<g id="node1" class="node"><title>unittest.case.TestCase</title>
<polygon fill="none" stroke="black" stroke-width="0.5" points="116,-20 4.9738e-14,-20 0,-1.06581e-14 116,-3.55271e-15 116,-20"/>
<text text-anchor="middle" x="58" y="-7" font-family="Vera" font-size="10.00">unittest.case.TestCase</text>
</g>
<!-- topo.tests.unit.testplot.TestPlot -->
<g id="node2" class="node"><title>topo.tests.unit.testplot.TestPlot</title>
<polygon fill="none" stroke="black" stroke-width="0.5" points="310,-20 152,-20 152,-1.06581e-14 310,-3.55271e-15 310,-20"/>
<text text-anchor="middle" x="231" y="-7" font-family="Vera" font-size="10.00">topo.tests.unit.testplot.TestPlot</text>
</g>
<!-- unittest.case.TestCase&#45;&gt;topo.tests.unit.testplot.TestPlot -->
<g id="edge2" class="edge"><title>unittest.case.TestCase&#45;&gt;topo.tests.unit.testplot.TestPlot</title>
<path fill="none" stroke="black" stroke-width="0.5" d="M116.088,-10C125.958,-10 136.382,-10 146.764,-10"/>
<polygon fill="black" stroke="black" points="146.854,-11.7501 151.854,-10 146.854,-8.2501 146.854,-11.7501"/>
</g>
</g>
</svg>
