<?xml version="1.0" encoding="UTF-8" standalone="no"?>
<!DOCTYPE svg PUBLIC "-//W3C//DTD SVG 1.1//EN"
 "http://www.w3.org/Graphics/SVG/1.1/DTD/svg11.dtd">
<!-- Generated by graphviz version 2.26.3 (20100126.1600)
 -->
<!-- Title: inheritance95afd34832 Pages: 1 -->
<svg width="1474pt" height="484pt"
 viewBox="0.00 0.00 1474.00 484.00" xmlns="http://www.w3.org/2000/svg" xmlns:xlink="http://www.w3.org/1999/xlink">
<g id="graph1" class="graph" transform="scale(1 1) rotate(0) translate(4 480)">
<title>inheritance95afd34832</title>
<polygon fill="white" stroke="white" points="-4,5 -4,-480 1471,-480 1471,5 -4,5"/>
<!-- Tkinter.Menu -->
<g id="node1" class="node"><title>Tkinter.Menu</title>
<polygon fill="none" stroke="black" stroke-width="0.5" points="755,-324.5 679,-324.5 679,-303.5 755,-303.5 755,-324.5"/>
<text text-anchor="middle" x="717" y="-311.5" font-family="Vera" font-size="10.00">Tkinter.Menu</text>
</g>
<!-- paramtk.Menu -->
<g id="node49" class="node"><title>paramtk.Menu</title>
<polygon fill="none" stroke="black" stroke-width="0.5" points="946,-362.5 860,-362.5 860,-341.5 946,-341.5 946,-362.5"/>
<text text-anchor="middle" x="903" y="-349.5" font-family="Vera" font-size="10.00">paramtk.Menu</text>
</g>
<!-- Tkinter.Menu&#45;&gt;paramtk.Menu -->
<g id="edge44" class="edge"><title>Tkinter.Menu&#45;&gt;paramtk.Menu</title>
<path fill="none" stroke="black" stroke-width="0.5" d="M755.539,-321.874C784.308,-327.751 823.811,-335.822 854.69,-342.13"/>
<polygon fill="black" stroke="black" points="854.71,-343.92 859.959,-343.207 855.411,-340.491 854.71,-343.92"/>
</g>
<!-- Tkinter.Widget -->
<g id="node2" class="node"><title>Tkinter.Widget</title>
<polygon fill="none" stroke="black" stroke-width="0.5" points="565,-248.5 483,-248.5 483,-227.5 565,-227.5 565,-248.5"/>
<text text-anchor="middle" x="524" y="-235.5" font-family="Vera" font-size="10.00">Tkinter.Widget</text>
</g>
<!-- Tkinter.Widget&#45;&gt;Tkinter.Menu -->
<g id="edge2" class="edge"><title>Tkinter.Widget&#45;&gt;Tkinter.Menu</title>
<path fill="none" stroke="black" stroke-width="0.5" d="M541.899,-248.061C564.601,-260.486 605.228,-281.617 642,-295 651.979,-298.632 662.948,-301.833 673.344,-304.523"/>
<polygon fill="black" stroke="black" points="673.117,-306.27 678.394,-305.801 673.977,-302.877 673.117,-306.27"/>
</g>
<!-- Tkinter.Frame -->
<g id="node5" class="node"><title>Tkinter.Frame</title>
<polygon fill="none" stroke="black" stroke-width="0.5" points="757,-210.5 677,-210.5 677,-189.5 757,-189.5 757,-210.5"/>
<text text-anchor="middle" x="717" y="-197.5" font-family="Vera" font-size="10.00">Tkinter.Frame</text>
</g>
<!-- Tkinter.Widget&#45;&gt;Tkinter.Frame -->
<g id="edge66" class="edge"><title>Tkinter.Widget&#45;&gt;Tkinter.Frame</title>
<path fill="none" stroke="black" stroke-width="0.5" d="M565.878,-229.755C596.922,-223.642 639.212,-215.316 671.161,-209.025"/>
<polygon fill="black" stroke="black" points="671.629,-210.717 676.197,-208.034 670.953,-207.283 671.629,-210.717"/>
</g>
<!-- paramtk.Balloon -->
<g id="node7" class="node"><title>paramtk.Balloon</title>
<polygon fill="none" stroke="black" stroke-width="0.5" points="764,-400.5 670,-400.5 670,-379.5 764,-379.5 764,-400.5"/>
<text text-anchor="middle" x="717" y="-387.5" font-family="Vera" font-size="10.00">paramtk.Balloon</text>
</g>
<!-- Tkinter.Widget&#45;&gt;paramtk.Balloon -->
<g id="edge6" class="edge"><title>Tkinter.Widget&#45;&gt;paramtk.Balloon</title>
<path fill="none" stroke="black" stroke-width="0.5" d="M529.969,-248.182C545.214,-273.247 588.204,-338.269 642,-371 648.842,-375.163 656.565,-378.417 664.388,-380.961"/>
<polygon fill="black" stroke="black" points="663.972,-382.663 669.265,-382.454 664.997,-379.317 663.972,-382.663"/>
</g>
<!-- Tkinter.Button -->
<g id="node58" class="node"><title>Tkinter.Button</title>
<polygon fill="none" stroke="black" stroke-width="0.5" points="758,-362.5 676,-362.5 676,-341.5 758,-341.5 758,-362.5"/>
<text text-anchor="middle" x="717" y="-349.5" font-family="Vera" font-size="10.00">Tkinter.Button</text>
</g>
<!-- Tkinter.Widget&#45;&gt;Tkinter.Button -->
<g id="edge54" class="edge"><title>Tkinter.Widget&#45;&gt;Tkinter.Button</title>
<path fill="none" stroke="black" stroke-width="0.5" d="M533.378,-248.008C552.123,-267.406 596.349,-310.213 642,-333 650.801,-337.393 660.705,-340.828 670.36,-343.493"/>
<polygon fill="black" stroke="black" points="670.098,-345.233 675.379,-344.817 670.991,-341.849 670.098,-345.233"/>
</g>
<!-- paramtk.Scrodget -->
<g id="node73" class="node"><title>paramtk.Scrodget</title>
<polygon fill="none" stroke="black" stroke-width="0.5" points="769,-172.5 665,-172.5 665,-151.5 769,-151.5 769,-172.5"/>
<text text-anchor="middle" x="717" y="-159.5" font-family="Vera" font-size="10.00">paramtk.Scrodget</text>
</g>
<!-- Tkinter.Widget&#45;&gt;paramtk.Scrodget -->
<g id="edge70" class="edge"><title>Tkinter.Widget&#45;&gt;paramtk.Scrodget</title>
<path fill="none" stroke="black" stroke-width="0.5" d="M541.899,-227.939C564.601,-215.514 605.228,-194.383 642,-181 649.735,-178.185 658.065,-175.629 666.261,-173.369"/>
<polygon fill="black" stroke="black" points="666.968,-174.991 671.34,-172 666.057,-171.611 666.968,-174.991"/>
</g>
<!-- paramtk.ListWidget -->
<g id="node4" class="node"><title>paramtk.ListWidget</title>
<polygon fill="none" stroke="black" stroke-width="0.5" points="957,-210.5 849,-210.5 849,-189.5 957,-189.5 957,-210.5"/>
<text text-anchor="middle" x="903" y="-197.5" font-family="Vera" font-size="10.00">paramtk.ListWidget</text>
</g>
<!-- Tkinter.Frame&#45;&gt;paramtk.ListWidget -->
<g id="edge4" class="edge"><title>Tkinter.Frame&#45;&gt;paramtk.ListWidget</title>
<path fill="none" stroke="black" stroke-width="0.5" d="M757.818,-200C782.785,-200 815.17,-200 843.017,-200"/>
<polygon fill="black" stroke="black" points="843.161,-201.75 848.161,-200 843.161,-198.25 843.161,-201.75"/>
</g>
<!-- paramtk.ListItemCtrlWidget -->
<g id="node12" class="node"><title>paramtk.ListItemCtrlWidget</title>
<polygon fill="none" stroke="black" stroke-width="0.5" points="976,-172.5 830,-172.5 830,-151.5 976,-151.5 976,-172.5"/>
<text text-anchor="middle" x="903" y="-159.5" font-family="Vera" font-size="10.00">paramtk.ListItemCtrlWidget</text>
</g>
<!-- Tkinter.Frame&#45;&gt;paramtk.ListItemCtrlWidget -->
<g id="edge10" class="edge"><title>Tkinter.Frame&#45;&gt;paramtk.ListItemCtrlWidget</title>
<path fill="none" stroke="black" stroke-width="0.5" d="M757.818,-191.661C784.607,-186.188 819.937,-178.97 849.036,-173.025"/>
<polygon fill="black" stroke="black" points="849.473,-174.722 854.021,-172.006 848.772,-171.293 849.473,-174.722"/>
</g>
<!-- paramtk.HackFileEntry -->
<g id="node14" class="node"><title>paramtk.HackFileEntry</title>
<polygon fill="none" stroke="black" stroke-width="0.5" points="965,-134.5 841,-134.5 841,-113.5 965,-113.5 965,-134.5"/>
<text text-anchor="middle" x="903" y="-121.5" font-family="Vera" font-size="10.00">paramtk.HackFileEntry</text>
</g>
<!-- Tkinter.Frame&#45;&gt;paramtk.HackFileEntry -->
<g id="edge12" class="edge"><title>Tkinter.Frame&#45;&gt;paramtk.HackFileEntry</title>
<path fill="none" stroke="black" stroke-width="0.5" d="M757.554,-194.106C769.205,-191.278 781.571,-187.114 792,-181 812.07,-169.234 807.93,-154.766 828,-143 832.702,-140.243 837.798,-137.883 843.044,-135.863"/>
<polygon fill="black" stroke="black" points="843.795,-137.453 847.898,-134.102 842.601,-134.162 843.795,-137.453"/>
</g>
<!-- paramtk.ParametersFrame -->
<g id="node22" class="node"><title>paramtk.ParametersFrame</title>
<polygon fill="none" stroke="black" stroke-width="0.5" points="976,-58.5 830,-58.5 830,-37.5 976,-37.5 976,-58.5"/>
<text text-anchor="middle" x="903" y="-45.5" font-family="Vera" font-size="10.00">paramtk.ParametersFrame</text>
</g>
<!-- Tkinter.Frame&#45;&gt;paramtk.ParametersFrame -->
<g id="edge20" class="edge"><title>Tkinter.Frame&#45;&gt;paramtk.ParametersFrame</title>
<path fill="none" stroke="black" stroke-width="0.5" d="M757.669,-197.3C769.999,-194.633 782.72,-189.759 792,-181 830.64,-144.53 789.36,-103.47 828,-67 830.5,-64.6403 833.25,-62.5626 836.175,-60.7339"/>
<polygon fill="black" stroke="black" points="837.412,-62.0447 840.903,-58.0607 835.69,-58.9978 837.412,-62.0447"/>
</g>
<!-- paramtk.ScrolledFrame -->
<g id="node67" class="node"><title>paramtk.ScrolledFrame</title>
<polygon fill="none" stroke="black" stroke-width="0.5" points="967,-96.5 839,-96.5 839,-75.5 967,-75.5 967,-96.5"/>
<text text-anchor="middle" x="903" y="-83.5" font-family="Vera" font-size="10.00">paramtk.ScrolledFrame</text>
</g>
<!-- Tkinter.Frame&#45;&gt;paramtk.ScrolledFrame -->
<g id="edge62" class="edge"><title>Tkinter.Frame&#45;&gt;paramtk.ScrolledFrame</title>
<path fill="none" stroke="black" stroke-width="0.5" d="M757.763,-196.351C769.816,-193.612 782.352,-188.935 792,-181 820.867,-157.259 799.133,-128.741 828,-105 830.996,-102.536 834.27,-100.387 837.721,-98.5117"/>
<polygon fill="black" stroke="black" points="838.83,-99.9145 842.528,-96.1212 837.272,-96.7806 838.83,-99.9145"/>
</g>
<!-- paramtk.StatusBar -->
<g id="node76" class="node"><title>paramtk.StatusBar</title>
<polygon fill="none" stroke="black" stroke-width="0.5" points="957,-286.5 849,-286.5 849,-265.5 957,-265.5 957,-286.5"/>
<text text-anchor="middle" x="903" y="-273.5" font-family="Vera" font-size="10.00">paramtk.StatusBar</text>
</g>
<!-- Tkinter.Frame&#45;&gt;paramtk.StatusBar -->
<g id="edge72" class="edge"><title>Tkinter.Frame&#45;&gt;paramtk.StatusBar</title>
<path fill="none" stroke="black" stroke-width="0.5" d="M733.752,-210.13C755.019,-222.627 793.144,-243.83 828,-257 835.492,-259.831 843.563,-262.374 851.536,-264.609"/>
<polygon fill="black" stroke="black" points="851.197,-266.331 856.482,-265.961 852.12,-262.954 851.197,-266.331"/>
</g>
<!-- paramtk.TaggedSlider -->
<g id="node83" class="node"><title>paramtk.TaggedSlider</title>
<polygon fill="none" stroke="black" stroke-width="0.5" points="963,-248.5 843,-248.5 843,-227.5 963,-227.5 963,-248.5"/>
<text text-anchor="middle" x="903" y="-235.5" font-family="Vera" font-size="10.00">paramtk.TaggedSlider</text>
</g>
<!-- Tkinter.Frame&#45;&gt;paramtk.TaggedSlider -->
<g id="edge80" class="edge"><title>Tkinter.Frame&#45;&gt;paramtk.TaggedSlider</title>
<path fill="none" stroke="black" stroke-width="0.5" d="M757.818,-208.339C784.607,-213.812 819.937,-221.03 849.036,-226.975"/>
<polygon fill="black" stroke="black" points="848.772,-228.707 854.021,-227.994 849.473,-225.278 848.772,-228.707"/>
</g>
<!-- paramtk.ProgressWindow -->
<g id="node85" class="node"><title>paramtk.ProgressWindow</title>
<polygon fill="none" stroke="black" stroke-width="0.5" points="971,-324.5 835,-324.5 835,-303.5 971,-303.5 971,-324.5"/>
<text text-anchor="middle" x="903" y="-311.5" font-family="Vera" font-size="10.00">paramtk.ProgressWindow</text>
</g>
<!-- Tkinter.Frame&#45;&gt;paramtk.ProgressWindow -->
<g id="edge84" class="edge"><title>Tkinter.Frame&#45;&gt;paramtk.ProgressWindow</title>
<path fill="none" stroke="black" stroke-width="0.5" d="M731.646,-210.054C747.176,-220.959 772.156,-239.2 792,-257 809.318,-272.534 807.93,-283.234 828,-295 832.702,-297.757 837.798,-300.117 843.044,-302.137"/>
<polygon fill="black" stroke="black" points="842.601,-303.838 847.898,-303.898 843.795,-300.547 842.601,-303.838"/>
</g>
<!-- paramtk.Representer -->
<g id="node9" class="node"><title>paramtk.Representer</title>
<polygon fill="none" stroke="black" stroke-width="0.5" points="583,-134.5 465,-134.5 465,-113.5 583,-113.5 583,-134.5"/>
<text text-anchor="middle" x="524" y="-121.5" font-family="Vera" font-size="10.00">paramtk.Representer</text>
</g>
<!-- paramtk.ListRepresenter -->
<g id="node16" class="node"><title>paramtk.ListRepresenter</title>
<polygon fill="none" stroke="black" stroke-width="0.5" points="784,-134.5 650,-134.5 650,-113.5 784,-113.5 784,-134.5"/>
<text text-anchor="middle" x="717" y="-121.5" font-family="Vera" font-size="10.00">paramtk.ListRepresenter</text>
</g>
<!-- paramtk.Representer&#45;&gt;paramtk.ListRepresenter -->
<g id="edge14" class="edge"><title>paramtk.Representer&#45;&gt;paramtk.ListRepresenter</title>
<path fill="none" stroke="black" stroke-width="0.5" d="M583.218,-124C602.627,-124 624.413,-124 644.678,-124"/>
<polygon fill="black" stroke="black" points="644.795,-125.75 649.795,-124 644.795,-122.25 644.795,-125.75"/>
</g>
<!-- param.parameterized.Parameterized -->
<g id="node10" class="node"><title>param.parameterized.Parameterized</title>
<polygon fill="none" stroke="black" stroke-width="0.5" points="406,-134.5 212,-134.5 212,-113.5 406,-113.5 406,-134.5"/>
<text text-anchor="middle" x="309" y="-121.5" font-family="Vera" font-size="10.00">param.parameterized.Parameterized</text>
</g>
<!-- param.parameterized.Parameterized&#45;&gt;paramtk.Representer -->
<g id="edge8" class="edge"><title>param.parameterized.Parameterized&#45;&gt;paramtk.Representer</title>
<path fill="none" stroke="black" stroke-width="0.5" d="M406.121,-124C424.274,-124 442.826,-124 459.679,-124"/>
<polygon fill="black" stroke="black" points="459.853,-125.75 464.853,-124 459.852,-122.25 459.853,-125.75"/>
</g>
<!-- paramtk.TkParameterizedBase -->
<g id="node62" class="node"><title>paramtk.TkParameterizedBase</title>
<polygon fill="none" stroke="black" stroke-width="0.5" points="606,-96.5 442,-96.5 442,-75.5 606,-75.5 606,-96.5"/>
<text text-anchor="middle" x="524" y="-83.5" font-family="Vera" font-size="10.00">paramtk.TkParameterizedBase</text>
</g>
<!-- param.parameterized.Parameterized&#45;&gt;paramtk.TkParameterizedBase -->
<g id="edge76" class="edge"><title>param.parameterized.Parameterized&#45;&gt;paramtk.TkParameterizedBase</title>
<path fill="none" stroke="black" stroke-width="0.5" d="M365.77,-113.966C395.407,-108.728 431.719,-102.31 462.078,-96.9443"/>
<polygon fill="black" stroke="black" points="462.666,-98.6176 467.285,-96.024 462.057,-95.1711 462.666,-98.6176"/>
</g>
<!-- Tkinter.Wm -->
<g id="node18" class="node"><title>Tkinter.Wm</title>
<polygon fill="none" stroke="black" stroke-width="0.5" points="343,-58.5 275,-58.5 275,-37.5 343,-37.5 343,-58.5"/>
<text text-anchor="middle" x="309" y="-45.5" font-family="Vera" font-size="10.00">Tkinter.Wm</text>
</g>
<!-- Tkinter.Toplevel -->
<g id="node53" class="node"><title>Tkinter.Toplevel</title>
<polygon fill="none" stroke="black" stroke-width="0.5" points="568,-58.5 480,-58.5 480,-37.5 568,-37.5 568,-58.5"/>
<text text-anchor="middle" x="524" y="-45.5" font-family="Vera" font-size="10.00">Tkinter.Toplevel</text>
</g>
<!-- Tkinter.Wm&#45;&gt;Tkinter.Toplevel -->
<g id="edge50" class="edge"><title>Tkinter.Wm&#45;&gt;Tkinter.Toplevel</title>
<path fill="none" stroke="black" stroke-width="0.5" d="M343.543,-48C378.874,-48 434.11,-48 474.169,-48"/>
<polygon fill="black" stroke="black" points="474.47,-49.7501 479.47,-48 474.47,-46.2501 474.47,-49.7501"/>
</g>
<!-- paramtk.String_ObjectTranslator -->
<g id="node19" class="node"><title>paramtk.String_ObjectTranslator</title>
<polygon fill="none" stroke="black" stroke-width="0.5" points="394,-438.5 224,-438.5 224,-417.5 394,-417.5 394,-438.5"/>
<text text-anchor="middle" x="309" y="-425.5" font-family="Vera" font-size="10.00">paramtk.String_ObjectTranslator</text>
</g>
<!-- paramtk.CSPTranslator -->
<g id="node64" class="node"><title>paramtk.CSPTranslator</title>
<polygon fill="none" stroke="black" stroke-width="0.5" points="587,-438.5 461,-438.5 461,-417.5 587,-417.5 587,-438.5"/>
<text text-anchor="middle" x="524" y="-425.5" font-family="Vera" font-size="10.00">paramtk.CSPTranslator</text>
</g>
<!-- paramtk.String_ObjectTranslator&#45;&gt;paramtk.CSPTranslator -->
<g id="edge60" class="edge"><title>paramtk.String_ObjectTranslator&#45;&gt;paramtk.CSPTranslator</title>
<path fill="none" stroke="black" stroke-width="0.5" d="M394.591,-428C414.822,-428 436.133,-428 455.493,-428"/>
<polygon fill="black" stroke="black" points="455.899,-429.75 460.899,-428 455.899,-426.25 455.899,-429.75"/>
</g>
<!-- paramtk.Translator -->
<g id="node20" class="node"><title>paramtk.Translator</title>
<polygon fill="none" stroke="black" stroke-width="0.5" points="141,-381.5 35,-381.5 35,-360.5 141,-360.5 141,-381.5"/>
<text text-anchor="middle" x="88" y="-368.5" font-family="Vera" font-size="10.00">paramtk.Translator</text>
</g>
<!-- paramtk.Translator&#45;&gt;paramtk.String_ObjectTranslator -->
<g id="edge16" class="edge"><title>paramtk.Translator&#45;&gt;paramtk.String_ObjectTranslator</title>
<path fill="none" stroke="black" stroke-width="0.5" d="M117.572,-381.012C142.543,-389.236 179.347,-400.822 212,-409 223.434,-411.864 235.715,-414.558 247.566,-416.969"/>
<polygon fill="black" stroke="black" points="247.368,-418.714 252.615,-417.984 248.058,-415.282 247.368,-418.714"/>
</g>
<!-- paramtk.DoNothingTranslator -->
<g id="node37" class="node"><title>paramtk.DoNothingTranslator</title>
<polygon fill="none" stroke="black" stroke-width="0.5" points="388,-400.5 230,-400.5 230,-379.5 388,-379.5 388,-400.5"/>
<text text-anchor="middle" x="309" y="-387.5" font-family="Vera" font-size="10.00">paramtk.DoNothingTranslator</text>
</g>
<!-- paramtk.Translator&#45;&gt;paramtk.DoNothingTranslator -->
<g id="edge30" class="edge"><title>paramtk.Translator&#45;&gt;paramtk.DoNothingTranslator</title>
<path fill="none" stroke="black" stroke-width="0.5" d="M141.78,-375.624C166.678,-377.764 196.847,-380.358 224.668,-382.75"/>
<polygon fill="black" stroke="black" points="224.702,-384.509 229.834,-383.194 225.002,-381.022 224.702,-384.509"/>
</g>
<!-- paramtk.Eval_ReprTranslator -->
<g id="node40" class="node"><title>paramtk.Eval_ReprTranslator</title>
<polygon fill="none" stroke="black" stroke-width="0.5" points="385,-362.5 233,-362.5 233,-341.5 385,-341.5 385,-362.5"/>
<text text-anchor="middle" x="309" y="-349.5" font-family="Vera" font-size="10.00">paramtk.Eval_ReprTranslator</text>
</g>
<!-- paramtk.Translator&#45;&gt;paramtk.Eval_ReprTranslator -->
<g id="edge32" class="edge"><title>paramtk.Translator&#45;&gt;paramtk.Eval_ReprTranslator</title>
<path fill="none" stroke="black" stroke-width="0.5" d="M141.78,-366.376C167.52,-364.163 198.894,-361.466 227.482,-359.008"/>
<polygon fill="black" stroke="black" points="227.954,-360.724 232.786,-358.552 227.654,-357.237 227.954,-360.724"/>
</g>
<!-- paramtk.ListTranslator -->
<g id="node51" class="node"><title>paramtk.ListTranslator</title>
<polygon fill="none" stroke="black" stroke-width="0.5" points="370,-324.5 248,-324.5 248,-303.5 370,-303.5 370,-324.5"/>
<text text-anchor="middle" x="309" y="-311.5" font-family="Vera" font-size="10.00">paramtk.ListTranslator</text>
</g>
<!-- paramtk.Translator&#45;&gt;paramtk.ListTranslator -->
<g id="edge46" class="edge"><title>paramtk.Translator&#45;&gt;paramtk.ListTranslator</title>
<path fill="none" stroke="black" stroke-width="0.5" d="M117.572,-360.988C142.543,-352.764 179.347,-341.178 212,-333 223.434,-330.136 235.715,-327.442 247.566,-325.031"/>
<polygon fill="black" stroke="black" points="248.058,-326.718 252.615,-324.016 247.368,-323.286 248.058,-326.718"/>
</g>
<!-- paramtk.ParametersFrameWithApply -->
<g id="node27" class="node"><title>paramtk.ParametersFrameWithApply</title>
<polygon fill="none" stroke="black" stroke-width="0.5" points="1206,-58.5 1014,-58.5 1014,-37.5 1206,-37.5 1206,-58.5"/>
<text text-anchor="middle" x="1110" y="-45.5" font-family="Vera" font-size="10.00">paramtk.ParametersFrameWithApply</text>
</g>
<!-- paramtk.ParametersFrame&#45;&gt;paramtk.ParametersFrameWithApply -->
<g id="edge24" class="edge"><title>paramtk.ParametersFrame&#45;&gt;paramtk.ParametersFrameWithApply</title>
<path fill="none" stroke="black" stroke-width="0.5" d="M976.272,-48C986.862,-48 997.915,-48 1008.93,-48"/>
<polygon fill="black" stroke="black" points="1008.99,-49.7501 1013.99,-48 1008.99,-46.2501 1008.99,-49.7501"/>
</g>
<!-- paramtk.TkParameterized -->
<g id="node23" class="node"><title>paramtk.TkParameterized</title>
<polygon fill="none" stroke="black" stroke-width="0.5" points="787,-96.5 647,-96.5 647,-75.5 787,-75.5 787,-96.5"/>
<text text-anchor="middle" x="717" y="-83.5" font-family="Vera" font-size="10.00">paramtk.TkParameterized</text>
</g>
<!-- paramtk.TkParameterized&#45;&gt;paramtk.ParametersFrame -->
<g id="edge18" class="edge"><title>paramtk.TkParameterized&#45;&gt;paramtk.ParametersFrame</title>
<path fill="none" stroke="black" stroke-width="0.5" d="M766.356,-75.9165C791.681,-70.7425 822.591,-64.4277 848.602,-59.1135"/>
<polygon fill="black" stroke="black" points="849.188,-60.7802 853.736,-58.0647 848.487,-57.351 849.188,-60.7802"/>
</g>
<!-- paramtk.EditingParametersFrameWithApply -->
<g id="node26" class="node"><title>paramtk.EditingParametersFrameWithApply</title>
<polygon fill="none" stroke="black" stroke-width="0.5" points="1466,-58.5 1242,-58.5 1242,-37.5 1466,-37.5 1466,-58.5"/>
<text text-anchor="middle" x="1354" y="-45.5" font-family="Vera" font-size="10.00">paramtk.EditingParametersFrameWithApply</text>
</g>
<!-- paramtk.ParametersFrameWithApply&#45;&gt;paramtk.EditingParametersFrameWithApply -->
<g id="edge22" class="edge"><title>paramtk.ParametersFrameWithApply&#45;&gt;paramtk.EditingParametersFrameWithApply</title>
<path fill="none" stroke="black" stroke-width="0.5" d="M1206.09,-48C1216.17,-48 1226.5,-48 1236.79,-48"/>
<polygon fill="black" stroke="black" points="1236.84,-49.7501 1241.84,-48 1236.84,-46.2501 1236.84,-49.7501"/>
</g>
<!-- Tkinter.Pack -->
<g id="node29" class="node"><title>Tkinter.Pack</title>
<polygon fill="none" stroke="black" stroke-width="0.5" points="345,-286.5 273,-286.5 273,-265.5 345,-265.5 345,-286.5"/>
<text text-anchor="middle" x="309" y="-273.5" font-family="Vera" font-size="10.00">Tkinter.Pack</text>
</g>
<!-- Tkinter.Pack&#45;&gt;Tkinter.Widget -->
<g id="edge38" class="edge"><title>Tkinter.Pack&#45;&gt;Tkinter.Widget</title>
<path fill="none" stroke="black" stroke-width="0.5" d="M345.96,-269.468C382.269,-263.05 437.801,-253.235 477.179,-246.275"/>
<polygon fill="black" stroke="black" points="477.764,-247.949 482.383,-245.356 477.154,-244.503 477.764,-247.949"/>
</g>
<!-- paramtk.Button -->
<g id="node31" class="node"><title>paramtk.Button</title>
<polygon fill="none" stroke="black" stroke-width="0.5" points="570,-476.5 478,-476.5 478,-455.5 570,-455.5 570,-476.5"/>
<text text-anchor="middle" x="524" y="-463.5" font-family="Vera" font-size="10.00">paramtk.Button</text>
</g>
<!-- param.Callable -->
<g id="node32" class="node"><title>param.Callable</title>
<polygon fill="none" stroke="black" stroke-width="0.5" points="353,-476.5 265,-476.5 265,-455.5 353,-455.5 353,-476.5"/>
<text text-anchor="middle" x="309" y="-463.5" font-family="Vera" font-size="10.00">param.Callable</text>
</g>
<!-- param.Callable&#45;&gt;paramtk.Button -->
<g id="edge26" class="edge"><title>param.Callable&#45;&gt;paramtk.Button</title>
<path fill="none" stroke="black" stroke-width="0.5" d="M353.548,-466C388.132,-466 436.136,-466 472.391,-466"/>
<polygon fill="black" stroke="black" points="472.652,-467.75 477.652,-466 472.652,-464.25 472.652,-467.75"/>
</g>
<!-- param.parameterized.Parameter -->
<g id="node34" class="node"><title>param.parameterized.Parameter</title>
<polygon fill="none" stroke="black" stroke-width="0.5" points="175,-476.5 1,-476.5 1,-455.5 175,-455.5 175,-476.5"/>
<text text-anchor="middle" x="88" y="-463.5" font-family="Vera" font-size="10.00">param.parameterized.Parameter</text>
</g>
<!-- param.parameterized.Parameter&#45;&gt;param.Callable -->
<g id="edge28" class="edge"><title>param.parameterized.Parameter&#45;&gt;param.Callable</title>
<path fill="none" stroke="black" stroke-width="0.5" d="M175.662,-466C204.015,-466 234.464,-466 259.097,-466"/>
<polygon fill="black" stroke="black" points="259.263,-467.75 264.263,-466 259.263,-464.25 259.263,-467.75"/>
</g>
<!-- Tkinter.Place -->
<g id="node36" class="node"><title>Tkinter.Place</title>
<polygon fill="none" stroke="black" stroke-width="0.5" points="347,-248.5 271,-248.5 271,-227.5 347,-227.5 347,-248.5"/>
<text text-anchor="middle" x="309" y="-235.5" font-family="Vera" font-size="10.00">Tkinter.Place</text>
</g>
<!-- Tkinter.Place&#45;&gt;Tkinter.Widget -->
<g id="edge40" class="edge"><title>Tkinter.Place&#45;&gt;Tkinter.Widget</title>
<path fill="none" stroke="black" stroke-width="0.5" d="M347.935,-238C384.299,-238 438.629,-238 477.308,-238"/>
<polygon fill="black" stroke="black" points="477.42,-239.75 482.42,-238 477.42,-236.25 477.42,-239.75"/>
</g>
<!-- paramtk.BoolTranslator -->
<g id="node56" class="node"><title>paramtk.BoolTranslator</title>
<polygon fill="none" stroke="black" stroke-width="0.5" points="588,-400.5 460,-400.5 460,-379.5 588,-379.5 588,-400.5"/>
<text text-anchor="middle" x="524" y="-387.5" font-family="Vera" font-size="10.00">paramtk.BoolTranslator</text>
</g>
<!-- paramtk.DoNothingTranslator&#45;&gt;paramtk.BoolTranslator -->
<g id="edge52" class="edge"><title>paramtk.DoNothingTranslator&#45;&gt;paramtk.BoolTranslator</title>
<path fill="none" stroke="black" stroke-width="0.5" d="M388.142,-390C409.979,-390 433.497,-390 454.728,-390"/>
<polygon fill="black" stroke="black" points="454.788,-391.75 459.788,-390 454.788,-388.25 454.788,-391.75"/>
</g>
<!-- Tkinter.Grid -->
<g id="node39" class="node"><title>Tkinter.Grid</title>
<polygon fill="none" stroke="black" stroke-width="0.5" points="344,-210.5 274,-210.5 274,-189.5 344,-189.5 344,-210.5"/>
<text text-anchor="middle" x="309" y="-197.5" font-family="Vera" font-size="10.00">Tkinter.Grid</text>
</g>
<!-- Tkinter.Grid&#45;&gt;Tkinter.Widget -->
<g id="edge42" class="edge"><title>Tkinter.Grid&#45;&gt;Tkinter.Widget</title>
<path fill="none" stroke="black" stroke-width="0.5" d="M344.503,-206.275C380.687,-212.67 437.012,-222.625 476.905,-229.676"/>
<polygon fill="black" stroke="black" points="476.947,-231.461 482.175,-230.608 477.556,-228.014 476.947,-231.461"/>
</g>
<!-- Tkinter.BaseWidget -->
<g id="node42" class="node"><title>Tkinter.BaseWidget</title>
<polygon fill="none" stroke="black" stroke-width="0.5" points="362,-96.5 256,-96.5 256,-75.5 362,-75.5 362,-96.5"/>
<text text-anchor="middle" x="309" y="-83.5" font-family="Vera" font-size="10.00">Tkinter.BaseWidget</text>
</g>
<!-- Tkinter.BaseWidget&#45;&gt;Tkinter.Widget -->
<g id="edge36" class="edge"><title>Tkinter.BaseWidget&#45;&gt;Tkinter.Widget</title>
<path fill="none" stroke="black" stroke-width="0.5" d="M362.58,-87.5581C377.852,-90.2426 393.672,-95.4142 406,-105 435.505,-127.943 417.84,-152.483 442,-181 458.014,-199.902 481.698,-215.462 499.501,-225.521"/>
<polygon fill="black" stroke="black" points="498.671,-227.062 503.892,-227.959 500.37,-224.002 498.671,-227.062"/>
</g>
<!-- Tkinter.BaseWidget&#45;&gt;Tkinter.Toplevel -->
<g id="edge48" class="edge"><title>Tkinter.BaseWidget&#45;&gt;Tkinter.Toplevel</title>
<path fill="none" stroke="black" stroke-width="0.5" d="M362.699,-76.509C396.819,-70.4785 440.681,-62.7261 474.052,-56.8281"/>
<polygon fill="black" stroke="black" points="474.695,-58.4916 479.314,-55.898 474.086,-55.045 474.695,-58.4916"/>
</g>
<!-- Tkinter.Misc -->
<g id="node43" class="node"><title>Tkinter.Misc</title>
<polygon fill="none" stroke="black" stroke-width="0.5" points="124,-96.5 52,-96.5 52,-75.5 124,-75.5 124,-96.5"/>
<text text-anchor="middle" x="88" y="-83.5" font-family="Vera" font-size="10.00">Tkinter.Misc</text>
</g>
<!-- Tkinter.Misc&#45;&gt;Tkinter.BaseWidget -->
<g id="edge34" class="edge"><title>Tkinter.Misc&#45;&gt;Tkinter.BaseWidget</title>
<path fill="none" stroke="black" stroke-width="0.5" d="M124.494,-86C158.637,-86 210.226,-86 250.18,-86"/>
<polygon fill="black" stroke="black" points="250.489,-87.7501 255.489,-86 250.489,-84.2501 250.489,-87.7501"/>
</g>
<!-- paramtk.ScrolledWindow -->
<g id="node70" class="node"><title>paramtk.ScrolledWindow</title>
<polygon fill="none" stroke="black" stroke-width="0.5" points="784,-20.5 650,-20.5 650,0.5 784,0.5 784,-20.5"/>
<text text-anchor="middle" x="717" y="-7.5" font-family="Vera" font-size="10.00">paramtk.ScrolledWindow</text>
</g>
<!-- Tkinter.Toplevel&#45;&gt;paramtk.ScrolledWindow -->
<g id="edge64" class="edge"><title>Tkinter.Toplevel&#45;&gt;paramtk.ScrolledWindow</title>
<path fill="none" stroke="black" stroke-width="0.5" d="M568.763,-39.1865C596.238,-33.7771 631.656,-26.8035 660.982,-21.0295"/>
<polygon fill="black" stroke="black" points="661.44,-22.723 666.007,-20.04 660.764,-19.2889 661.44,-22.723"/>
</g>
<!-- paramtk.ToolTip -->
<g id="node78" class="node"><title>paramtk.ToolTip</title>
<polygon fill="none" stroke="black" stroke-width="0.5" points="763,-58.5 671,-58.5 671,-37.5 763,-37.5 763,-58.5"/>
<text text-anchor="middle" x="717" y="-45.5" font-family="Vera" font-size="10.00">paramtk.ToolTip</text>
</g>
<!-- Tkinter.Toplevel&#45;&gt;paramtk.ToolTip -->
<g id="edge74" class="edge"><title>Tkinter.Toplevel&#45;&gt;paramtk.ToolTip</title>
<path fill="none" stroke="black" stroke-width="0.5" d="M568.763,-48C597.711,-48 635.478,-48 665.646,-48"/>
<polygon fill="black" stroke="black" points="665.802,-49.7501 670.802,-48 665.802,-46.2501 665.802,-49.7501"/>
</g>
<!-- paramtk.FocusTakingButton -->
<g id="node60" class="node"><title>paramtk.FocusTakingButton</title>
<polygon fill="none" stroke="black" stroke-width="0.5" points="977,-400.5 829,-400.5 829,-379.5 977,-379.5 977,-400.5"/>
<text text-anchor="middle" x="903" y="-387.5" font-family="Vera" font-size="10.00">paramtk.FocusTakingButton</text>
</g>
<!-- Tkinter.Button&#45;&gt;paramtk.FocusTakingButton -->
<g id="edge56" class="edge"><title>Tkinter.Button&#45;&gt;paramtk.FocusTakingButton</title>
<path fill="none" stroke="black" stroke-width="0.5" d="M758.742,-360.528C785.371,-365.968 820.153,-373.074 848.892,-378.946"/>
<polygon fill="black" stroke="black" points="848.567,-380.665 853.816,-379.952 849.268,-377.236 848.567,-380.665"/>
</g>
<!-- paramtk.TkParameterizedBase&#45;&gt;paramtk.TkParameterized -->
<g id="edge58" class="edge"><title>paramtk.TkParameterizedBase&#45;&gt;paramtk.TkParameterized</title>
<path fill="none" stroke="black" stroke-width="0.5" d="M606.129,-86C617.873,-86 629.908,-86 641.516,-86"/>
<polygon fill="black" stroke="black" points="641.817,-87.7501 646.817,-86 641.817,-84.2501 641.817,-87.7501"/>
</g>
<!-- paramtk.ScrodgetWidget -->
<g id="node66" class="node"><title>paramtk.ScrodgetWidget</title>
<polygon fill="none" stroke="black" stroke-width="0.5" points="592,-172.5 456,-172.5 456,-151.5 592,-151.5 592,-172.5"/>
<text text-anchor="middle" x="524" y="-159.5" font-family="Vera" font-size="10.00">paramtk.ScrodgetWidget</text>
</g>
<!-- paramtk.ScrodgetWidget&#45;&gt;paramtk.Scrodget -->
<g id="edge68" class="edge"><title>paramtk.ScrodgetWidget&#45;&gt;paramtk.Scrodget</title>
<path fill="none" stroke="black" stroke-width="0.5" d="M592.045,-162C614.148,-162 638.44,-162 659.681,-162"/>
<polygon fill="black" stroke="black" points="659.728,-163.75 664.728,-162 659.728,-160.25 659.728,-163.75"/>
</g>
<!-- paramtk.ProgressController -->
<g id="node69" class="node"><title>paramtk.ProgressController</title>
<polygon fill="none" stroke="black" stroke-width="0.5" points="791,-286.5 643,-286.5 643,-265.5 791,-265.5 791,-286.5"/>
<text text-anchor="middle" x="717" y="-273.5" font-family="Vera" font-size="10.00">paramtk.ProgressController</text>
</g>
<!-- paramtk.ProgressController&#45;&gt;paramtk.ProgressWindow -->
<g id="edge82" class="edge"><title>paramtk.ProgressController&#45;&gt;paramtk.ProgressWindow</title>
<path fill="none" stroke="black" stroke-width="0.5" d="M766.356,-286.084C791.681,-291.258 822.591,-297.572 848.602,-302.886"/>
<polygon fill="black" stroke="black" points="848.487,-304.649 853.736,-303.935 849.188,-301.22 848.487,-304.649"/>
</g>
<!-- paramtk.AppWindow -->
<g id="node81" class="node"><title>paramtk.AppWindow</title>
<polygon fill="none" stroke="black" stroke-width="0.5" points="960,-20.5 846,-20.5 846,0.5 960,0.5 960,-20.5"/>
<text text-anchor="middle" x="903" y="-7.5" font-family="Vera" font-size="10.00">paramtk.AppWindow</text>
</g>
<!-- paramtk.ScrolledWindow&#45;&gt;paramtk.AppWindow -->
<g id="edge78" class="edge"><title>paramtk.ScrolledWindow&#45;&gt;paramtk.AppWindow</title>
<path fill="none" stroke="black" stroke-width="0.5" d="M784.15,-10C802.603,-10 822.53,-10 840.697,-10"/>
<polygon fill="black" stroke="black" points="840.771,-11.7501 845.771,-10 840.771,-8.2501 840.771,-11.7501"/>
</g>
</g>
</svg>
