<?xml version="1.0" encoding="UTF-8" standalone="no"?>
<!DOCTYPE svg PUBLIC "-//W3C//DTD SVG 1.1//EN"
 "http://www.w3.org/Graphics/SVG/1.1/DTD/svg11.dtd">
<!-- Generated by graphviz version 2.26.3 (20100126.1600)
 -->
<!-- Title: inheritance0bce68b9cf Pages: 1 -->
<svg width="1458pt" height="484pt"
 viewBox="0.00 0.00 1458.00 484.00" xmlns="http://www.w3.org/2000/svg" xmlns:xlink="http://www.w3.org/1999/xlink">
<g id="graph1" class="graph" transform="scale(1 1) rotate(0) translate(4 480)">
<title>inheritance0bce68b9cf</title>
<polygon fill="white" stroke="white" points="-4,5 -4,-480 1455,-480 1455,5 -4,5"/>
<!-- topo.command.analysis.log_frequency_mapper -->
<g id="node1" class="node"><title>topo.command.analysis.log_frequency_mapper</title>
<polygon fill="none" stroke="black" stroke-width="0.5" points="749,-324 519,-324 519,-304 749,-304 749,-324"/>
<text text-anchor="middle" x="634" y="-311" font-family="Vera" font-size="10.00">topo.command.analysis.log_frequency_mapper</text>
</g>
<!-- imagen.patterngenerator.PatternGenerator -->
<g id="node2" class="node"><title>imagen.patterngenerator.PatternGenerator</title>
<polygon fill="none" stroke="black" stroke-width="0.5" points="438,-257 226,-257 226,-237 438,-237 438,-257"/>
<text text-anchor="middle" x="332" y="-244" font-family="Vera" font-size="10.00">imagen.patterngenerator.PatternGenerator</text>
</g>
<!-- imagen.patterngenerator.PatternGenerator&#45;&gt;topo.command.analysis.log_frequency_mapper -->
<g id="edge2" class="edge"><title>imagen.patterngenerator.PatternGenerator&#45;&gt;topo.command.analysis.log_frequency_mapper</title>
<path fill="none" stroke="black" stroke-width="0.5" d="M357.783,-257.028C386.99,-267.993 436.223,-285.294 480,-295 494.532,-298.222 509.965,-300.938 525.233,-303.217"/>
<polygon fill="black" stroke="black" points="525.202,-304.981 530.403,-303.973 525.709,-301.518 525.202,-304.981"/>
</g>
<!-- topo.command.analysis.frequency_mapper -->
<g id="node29" class="node"><title>topo.command.analysis.frequency_mapper</title>
<polygon fill="none" stroke="black" stroke-width="0.5" points="740,-286 528,-286 528,-266 740,-266 740,-286"/>
<text text-anchor="middle" x="634" y="-273" font-family="Vera" font-size="10.00">topo.command.analysis.frequency_mapper</text>
</g>
<!-- imagen.patterngenerator.PatternGenerator&#45;&gt;topo.command.analysis.frequency_mapper -->
<g id="edge24" class="edge"><title>imagen.patterngenerator.PatternGenerator&#45;&gt;topo.command.analysis.frequency_mapper</title>
<path fill="none" stroke="black" stroke-width="0.5" d="M436.354,-257.021C464.763,-259.749 495.615,-262.711 524.31,-265.467"/>
<polygon fill="black" stroke="black" points="524.497,-267.243 529.642,-265.979 524.832,-263.759 524.497,-267.243"/>
</g>
<!-- topo.command.analysis.latency_mapper -->
<g id="node55" class="node"><title>topo.command.analysis.latency_mapper</title>
<polygon fill="none" stroke="black" stroke-width="0.5" points="733,-248 535,-248 535,-228 733,-228 733,-248"/>
<text text-anchor="middle" x="634" y="-235" font-family="Vera" font-size="10.00">topo.command.analysis.latency_mapper</text>
</g>
<!-- imagen.patterngenerator.PatternGenerator&#45;&gt;topo.command.analysis.latency_mapper -->
<g id="edge52" class="edge"><title>imagen.patterngenerator.PatternGenerator&#45;&gt;topo.command.analysis.latency_mapper</title>
<path fill="none" stroke="black" stroke-width="0.5" d="M438.049,-243.84C467.611,-242.959 499.702,-242.002 529.192,-241.123"/>
<polygon fill="black" stroke="black" points="529.338,-242.87 534.283,-240.972 529.234,-239.371 529.338,-242.87"/>
</g>
<!-- topo.command.analysis.measure_sine_pref -->
<g id="node4" class="node"><title>topo.command.analysis.measure_sine_pref</title>
<polygon fill="none" stroke="black" stroke-width="0.5" points="1430,-476 1218,-476 1218,-456 1430,-456 1430,-476"/>
<text text-anchor="middle" x="1324" y="-463" font-family="Vera" font-size="10.00">topo.command.analysis.measure_sine_pref</text>
</g>
<!-- topo.analysis.featureresponses.SinusoidalMeasureResponseCommand -->
<g id="node5" class="node"><title>topo.analysis.featureresponses.SinusoidalMeasureResponseCommand</title>
<polygon fill="none" stroke="black" stroke-width="0.5" points="1161,-343 825,-343 825,-323 1161,-323 1161,-343"/>
<text text-anchor="middle" x="993" y="-330" font-family="Vera" font-size="10.00">topo.analysis.featureresponses.SinusoidalMeasureResponseCommand</text>
</g>
<!-- topo.analysis.featureresponses.SinusoidalMeasureResponseCommand&#45;&gt;topo.command.analysis.measure_sine_pref -->
<g id="edge4" class="edge"><title>topo.analysis.featureresponses.SinusoidalMeasureResponseCommand&#45;&gt;topo.command.analysis.measure_sine_pref</title>
<path fill="none" stroke="black" stroke-width="0.5" d="M1007.07,-343.206C1039.15,-365.921 1120.91,-420.717 1198,-447 1207.09,-450.1 1216.73,-452.696 1226.46,-454.868"/>
<polygon fill="black" stroke="black" points="1226.3,-456.623 1231.55,-455.966 1227.03,-453.202 1226.3,-456.623"/>
</g>
<!-- topo.command.analysis.measure_hue_pref -->
<g id="node21" class="node"><title>topo.command.analysis.measure_hue_pref</title>
<polygon fill="none" stroke="black" stroke-width="0.5" points="1429,-438 1219,-438 1219,-418 1429,-418 1429,-438"/>
<text text-anchor="middle" x="1324" y="-425" font-family="Vera" font-size="10.00">topo.command.analysis.measure_hue_pref</text>
</g>
<!-- topo.analysis.featureresponses.SinusoidalMeasureResponseCommand&#45;&gt;topo.command.analysis.measure_hue_pref -->
<g id="edge16" class="edge"><title>topo.analysis.featureresponses.SinusoidalMeasureResponseCommand&#45;&gt;topo.command.analysis.measure_hue_pref</title>
<path fill="none" stroke="black" stroke-width="0.5" d="M1015.57,-343.117C1052.81,-359.413 1129.82,-391.42 1198,-409 1210.2,-412.145 1223.2,-414.831 1236.05,-417.107"/>
<polygon fill="black" stroke="black" points="1235.93,-418.862 1241.16,-417.991 1236.53,-415.413 1235.93,-418.862"/>
</g>
<!-- topo.command.analysis.measure_phasedisparity -->
<g id="node38" class="node"><title>topo.command.analysis.measure_phasedisparity</title>
<polygon fill="none" stroke="black" stroke-width="0.5" points="1443,-400 1205,-400 1205,-380 1443,-380 1443,-400"/>
<text text-anchor="middle" x="1324" y="-387" font-family="Vera" font-size="10.00">topo.command.analysis.measure_phasedisparity</text>
</g>
<!-- topo.analysis.featureresponses.SinusoidalMeasureResponseCommand&#45;&gt;topo.command.analysis.measure_phasedisparity -->
<g id="edge32" class="edge"><title>topo.analysis.featureresponses.SinusoidalMeasureResponseCommand&#45;&gt;topo.command.analysis.measure_phasedisparity</title>
<path fill="none" stroke="black" stroke-width="0.5" d="M1044.31,-343.005C1085.72,-350.962 1145.53,-362.183 1198,-371 1214.61,-373.791 1232.48,-376.602 1249.4,-379.174"/>
<polygon fill="black" stroke="black" points="1249.41,-380.946 1254.61,-379.965 1249.93,-377.485 1249.41,-380.946"/>
</g>
<!-- topo.command.analysis.measure_or_pref -->
<g id="node40" class="node"><title>topo.command.analysis.measure_or_pref</title>
<polygon fill="none" stroke="black" stroke-width="0.5" points="1426,-362 1222,-362 1222,-342 1426,-342 1426,-362"/>
<text text-anchor="middle" x="1324" y="-349" font-family="Vera" font-size="10.00">topo.command.analysis.measure_or_pref</text>
</g>
<!-- topo.analysis.featureresponses.SinusoidalMeasureResponseCommand&#45;&gt;topo.command.analysis.measure_or_pref -->
<g id="edge34" class="edge"><title>topo.analysis.featureresponses.SinusoidalMeasureResponseCommand&#45;&gt;topo.command.analysis.measure_or_pref</title>
<path fill="none" stroke="black" stroke-width="0.5" d="M1161.89,-342.695C1180.38,-343.756 1198.81,-344.814 1216.27,-345.816"/>
<polygon fill="black" stroke="black" points="1216.56,-347.585 1221.65,-346.125 1216.76,-344.091 1216.56,-347.585"/>
</g>
<!-- topo.command.analysis.measure_dr_pref -->
<g id="node42" class="node"><title>topo.command.analysis.measure_dr_pref</title>
<polygon fill="none" stroke="black" stroke-width="0.5" points="1426,-324 1222,-324 1222,-304 1426,-304 1426,-324"/>
<text text-anchor="middle" x="1324" y="-311" font-family="Vera" font-size="10.00">topo.command.analysis.measure_dr_pref</text>
</g>
<!-- topo.analysis.featureresponses.SinusoidalMeasureResponseCommand&#45;&gt;topo.command.analysis.measure_dr_pref -->
<g id="edge36" class="edge"><title>topo.analysis.featureresponses.SinusoidalMeasureResponseCommand&#45;&gt;topo.command.analysis.measure_dr_pref</title>
<path fill="none" stroke="black" stroke-width="0.5" d="M1161.89,-323.305C1180.38,-322.244 1198.81,-321.186 1216.27,-320.184"/>
<polygon fill="black" stroke="black" points="1216.76,-321.909 1221.65,-319.875 1216.56,-318.415 1216.76,-321.909"/>
</g>
<!-- topo.command.analysis.measure_second_or_pref -->
<g id="node48" class="node"><title>topo.command.analysis.measure_second_or_pref</title>
<polygon fill="none" stroke="black" stroke-width="0.5" points="1444,-286 1204,-286 1204,-266 1444,-266 1444,-286"/>
<text text-anchor="middle" x="1324" y="-273" font-family="Vera" font-size="10.00">topo.command.analysis.measure_second_or_pref</text>
</g>
<!-- topo.analysis.featureresponses.SinusoidalMeasureResponseCommand&#45;&gt;topo.command.analysis.measure_second_or_pref -->
<g id="edge44" class="edge"><title>topo.analysis.featureresponses.SinusoidalMeasureResponseCommand&#45;&gt;topo.command.analysis.measure_second_or_pref</title>
<path fill="none" stroke="black" stroke-width="0.5" d="M1044.31,-322.995C1085.72,-315.038 1145.53,-303.817 1198,-295 1214.61,-292.209 1232.48,-289.398 1249.4,-286.826"/>
<polygon fill="black" stroke="black" points="1249.93,-288.515 1254.61,-286.035 1249.41,-285.054 1249.93,-288.515"/>
</g>
<!-- topo.command.analysis.measure_od_pref -->
<g id="node52" class="node"><title>topo.command.analysis.measure_od_pref</title>
<polygon fill="none" stroke="black" stroke-width="0.5" points="1427,-248 1221,-248 1221,-228 1427,-228 1427,-248"/>
<text text-anchor="middle" x="1324" y="-235" font-family="Vera" font-size="10.00">topo.command.analysis.measure_od_pref</text>
</g>
<!-- topo.analysis.featureresponses.SinusoidalMeasureResponseCommand&#45;&gt;topo.command.analysis.measure_od_pref -->
<g id="edge48" class="edge"><title>topo.analysis.featureresponses.SinusoidalMeasureResponseCommand&#45;&gt;topo.command.analysis.measure_od_pref</title>
<path fill="none" stroke="black" stroke-width="0.5" d="M1015.57,-322.883C1052.81,-306.587 1129.82,-274.58 1198,-257 1210.2,-253.855 1223.2,-251.169 1236.05,-248.893"/>
<polygon fill="black" stroke="black" points="1236.53,-250.587 1241.16,-248.009 1235.93,-247.138 1236.53,-250.587"/>
</g>
<!-- topo.command.analysis.save_plotgroup -->
<g id="node7" class="node"><title>topo.command.analysis.save_plotgroup</title>
<polygon fill="none" stroke="black" stroke-width="0.5" points="732,-210 536,-210 536,-190 732,-190 732,-210"/>
<text text-anchor="middle" x="634" y="-197" font-family="Vera" font-size="10.00">topo.command.analysis.save_plotgroup</text>
</g>
<!-- param.parameterized.ParameterizedFunction -->
<g id="node8" class="node"><title>param.parameterized.ParameterizedFunction</title>
<polygon fill="none" stroke="black" stroke-width="0.5" points="443,-200 221,-200 221,-180 443,-180 443,-200"/>
<text text-anchor="middle" x="332" y="-187" font-family="Vera" font-size="10.00">param.parameterized.ParameterizedFunction</text>
</g>
<!-- param.parameterized.ParameterizedFunction&#45;&gt;topo.command.analysis.save_plotgroup -->
<g id="edge6" class="edge"><title>param.parameterized.ParameterizedFunction&#45;&gt;topo.command.analysis.save_plotgroup</title>
<path fill="none" stroke="black" stroke-width="0.5" d="M443.596,-193.695C472.068,-194.638 502.55,-195.647 530.593,-196.576"/>
<polygon fill="black" stroke="black" points="530.744,-198.332 535.799,-196.748 530.86,-194.834 530.744,-198.332"/>
</g>
<!-- topo.analysis.featureresponses.MeasureResponseCommand -->
<g id="node11" class="node"><title>topo.analysis.featureresponses.MeasureResponseCommand</title>
<polygon fill="none" stroke="black" stroke-width="0.5" points="779,-172 489,-172 489,-152 779,-152 779,-172"/>
<text text-anchor="middle" x="634" y="-159" font-family="Vera" font-size="10.00">topo.analysis.featureresponses.MeasureResponseCommand</text>
</g>
<!-- param.parameterized.ParameterizedFunction&#45;&gt;topo.analysis.featureresponses.MeasureResponseCommand -->
<g id="edge40" class="edge"><title>param.parameterized.ParameterizedFunction&#45;&gt;topo.analysis.featureresponses.MeasureResponseCommand</title>
<path fill="none" stroke="black" stroke-width="0.5" d="M440.176,-179.97C466.357,-177.543 494.41,-174.942 520.814,-172.494"/>
<polygon fill="black" stroke="black" points="521.255,-174.211 526.072,-172.007 520.932,-170.726 521.255,-174.211"/>
</g>
<!-- topo.plotting.plotgroup.ProjectionSheetMeasurementCommand -->
<g id="node15" class="node"><title>topo.plotting.plotgroup.ProjectionSheetMeasurementCommand</title>
<polygon fill="none" stroke="black" stroke-width="0.5" points="787,-58 481,-58 481,-38 787,-38 787,-58"/>
<text text-anchor="middle" x="634" y="-45" font-family="Vera" font-size="10.00">topo.plotting.plotgroup.ProjectionSheetMeasurementCommand</text>
</g>
<!-- param.parameterized.ParameterizedFunction&#45;&gt;topo.plotting.plotgroup.ProjectionSheetMeasurementCommand -->
<g id="edge54" class="edge"><title>param.parameterized.ParameterizedFunction&#45;&gt;topo.plotting.plotgroup.ProjectionSheetMeasurementCommand</title>
<path fill="none" stroke="black" stroke-width="0.5" d="M417.688,-179.996C426.76,-177.608 435.696,-174.654 444,-171 462.553,-162.836 463.35,-154.56 480,-143 525.314,-111.539 580.924,-78.5384 611.383,-60.9143"/>
<polygon fill="black" stroke="black" points="612.594,-62.2357 616.05,-58.2204 610.844,-59.2044 612.594,-62.2357"/>
</g>
<!-- topo.command.analysis.measure_latency_preference -->
<g id="node10" class="node"><title>topo.command.analysis.measure_latency_preference</title>
<polygon fill="none" stroke="black" stroke-width="0.5" points="1121,-248 865,-248 865,-228 1121,-228 1121,-248"/>
<text text-anchor="middle" x="993" y="-235" font-family="Vera" font-size="10.00">topo.command.analysis.measure_latency_preference</text>
</g>
<!-- topo.analysis.featureresponses.MeasureResponseCommand&#45;&gt;topo.analysis.featureresponses.SinusoidalMeasureResponseCommand -->
<g id="edge50" class="edge"><title>topo.analysis.featureresponses.MeasureResponseCommand&#45;&gt;topo.analysis.featureresponses.SinusoidalMeasureResponseCommand</title>
<path fill="none" stroke="black" stroke-width="0.5" d="M773.105,-172.083C778.312,-174.653 783.305,-177.608 788,-181 818.297,-202.886 797.312,-230.834 824,-257 857.856,-290.194 908.744,-310.357 945.831,-321.492"/>
<polygon fill="black" stroke="black" points="945.45,-323.204 950.74,-322.937 946.438,-319.846 945.45,-323.204"/>
</g>
<!-- topo.analysis.featureresponses.MeasureResponseCommand&#45;&gt;topo.command.analysis.measure_latency_preference -->
<g id="edge8" class="edge"><title>topo.analysis.featureresponses.MeasureResponseCommand&#45;&gt;topo.command.analysis.measure_latency_preference</title>
<path fill="none" stroke="black" stroke-width="0.5" d="M766.069,-172.018C773.656,-174.511 781.026,-177.479 788,-181 808.767,-191.486 803.176,-208.626 824,-219 835.199,-224.579 847.32,-228.831 859.753,-232.044"/>
<polygon fill="black" stroke="black" points="859.445,-233.77 864.719,-233.269 860.283,-230.372 859.445,-233.77"/>
</g>
<!-- topo.analysis.featureresponses.PositionMeasurementCommand -->
<g id="node24" class="node"><title>topo.analysis.featureresponses.PositionMeasurementCommand</title>
<polygon fill="none" stroke="black" stroke-width="0.5" points="1146,-210 840,-210 840,-190 1146,-190 1146,-210"/>
<text text-anchor="middle" x="993" y="-197" font-family="Vera" font-size="10.00">topo.analysis.featureresponses.PositionMeasurementCommand</text>
</g>
<!-- topo.analysis.featureresponses.MeasureResponseCommand&#45;&gt;topo.analysis.featureresponses.PositionMeasurementCommand -->
<g id="edge56" class="edge"><title>topo.analysis.featureresponses.MeasureResponseCommand&#45;&gt;topo.analysis.featureresponses.PositionMeasurementCommand</title>
<path fill="none" stroke="black" stroke-width="0.5" d="M728.793,-172.034C779.404,-177.391 841.673,-183.982 893.046,-189.42"/>
<polygon fill="black" stroke="black" points="893.143,-191.19 898.299,-189.976 893.511,-187.709 893.143,-191.19"/>
</g>
<!-- topo.command.analysis.measure_frequency_preference -->
<g id="node27" class="node"><title>topo.command.analysis.measure_frequency_preference</title>
<polygon fill="none" stroke="black" stroke-width="0.5" points="1128,-172 858,-172 858,-152 1128,-152 1128,-172"/>
<text text-anchor="middle" x="993" y="-159" font-family="Vera" font-size="10.00">topo.command.analysis.measure_frequency_preference</text>
</g>
<!-- topo.analysis.featureresponses.MeasureResponseCommand&#45;&gt;topo.command.analysis.measure_frequency_preference -->
<g id="edge22" class="edge"><title>topo.analysis.featureresponses.MeasureResponseCommand&#45;&gt;topo.command.analysis.measure_frequency_preference</title>
<path fill="none" stroke="black" stroke-width="0.5" d="M779.243,-162C803.482,-162 828.587,-162 852.7,-162"/>
<polygon fill="black" stroke="black" points="852.829,-163.75 857.829,-162 852.829,-160.25 852.829,-163.75"/>
</g>
<!-- topo.command.analysis.measure_log_frequency_preference -->
<g id="node31" class="node"><title>topo.command.analysis.measure_log_frequency_preference</title>
<polygon fill="none" stroke="black" stroke-width="0.5" points="1137,-134 849,-134 849,-114 1137,-114 1137,-134"/>
<text text-anchor="middle" x="993" y="-121" font-family="Vera" font-size="10.00">topo.command.analysis.measure_log_frequency_preference</text>
</g>
<!-- topo.analysis.featureresponses.MeasureResponseCommand&#45;&gt;topo.command.analysis.measure_log_frequency_preference -->
<g id="edge26" class="edge"><title>topo.analysis.featureresponses.MeasureResponseCommand&#45;&gt;topo.command.analysis.measure_log_frequency_preference</title>
<path fill="none" stroke="black" stroke-width="0.5" d="M728.793,-151.966C779.404,-146.609 841.673,-140.018 893.046,-134.58"/>
<polygon fill="black" stroke="black" points="893.511,-136.291 898.299,-134.024 893.143,-132.81 893.511,-136.291"/>
</g>
<!-- topo.analysis.featureresponses.SingleInputResponseCommand -->
<g id="node36" class="node"><title>topo.analysis.featureresponses.SingleInputResponseCommand</title>
<polygon fill="none" stroke="black" stroke-width="0.5" points="1144,-96 842,-96 842,-76 1144,-76 1144,-96"/>
<text text-anchor="middle" x="993" y="-83" font-family="Vera" font-size="10.00">topo.analysis.featureresponses.SingleInputResponseCommand</text>
</g>
<!-- topo.analysis.featureresponses.MeasureResponseCommand&#45;&gt;topo.analysis.featureresponses.SingleInputResponseCommand -->
<g id="edge42" class="edge"><title>topo.analysis.featureresponses.MeasureResponseCommand&#45;&gt;topo.analysis.featureresponses.SingleInputResponseCommand</title>
<path fill="none" stroke="black" stroke-width="0.5" d="M661.923,-151.897C698.615,-139.023 765.292,-117.005 824,-105 839.86,-101.757 856.678,-99.0314 873.317,-96.7506"/>
<polygon fill="black" stroke="black" points="873.752,-98.4579 878.474,-96.0569 873.285,-94.9892 873.752,-98.4579"/>
</g>
<!-- param.parameterized.Parameterized -->
<g id="node13" class="node"><title>param.parameterized.Parameterized</title>
<polygon fill="none" stroke="black" stroke-width="0.5" points="184,-200 8.52651e-14,-200 0,-180 184,-180 184,-200"/>
<text text-anchor="middle" x="92" y="-187" font-family="Vera" font-size="10.00">param.parameterized.Parameterized</text>
</g>
<!-- param.parameterized.Parameterized&#45;&gt;imagen.patterngenerator.PatternGenerator -->
<g id="edge58" class="edge"><title>param.parameterized.Parameterized&#45;&gt;imagen.patterngenerator.PatternGenerator</title>
<path fill="none" stroke="black" stroke-width="0.5" d="M134.355,-200.059C176.467,-210.061 240.936,-225.372 284.7,-235.766"/>
<polygon fill="black" stroke="black" points="284.397,-237.493 289.666,-236.946 285.205,-234.088 284.397,-237.493"/>
</g>
<!-- param.parameterized.Parameterized&#45;&gt;param.parameterized.ParameterizedFunction -->
<g id="edge20" class="edge"><title>param.parameterized.Parameterized&#45;&gt;param.parameterized.ParameterizedFunction</title>
<path fill="none" stroke="black" stroke-width="0.5" d="M184.104,-190C194.328,-190 204.838,-190 215.314,-190"/>
<polygon fill="black" stroke="black" points="215.453,-191.75 220.453,-190 215.453,-188.25 215.453,-191.75"/>
</g>
<!-- topo.command.analysis.PatternPresenter2 -->
<g id="node17" class="node"><title>topo.command.analysis.PatternPresenter2</title>
<polygon fill="none" stroke="black" stroke-width="0.5" points="437,-162 227,-162 227,-142 437,-142 437,-162"/>
<text text-anchor="middle" x="332" y="-149" font-family="Vera" font-size="10.00">topo.command.analysis.PatternPresenter2</text>
</g>
<!-- param.parameterized.Parameterized&#45;&gt;topo.command.analysis.PatternPresenter2 -->
<g id="edge12" class="edge"><title>param.parameterized.Parameterized&#45;&gt;topo.command.analysis.PatternPresenter2</title>
<path fill="none" stroke="black" stroke-width="0.5" d="M155.371,-179.966C188.728,-174.685 229.659,-168.204 263.717,-162.811"/>
<polygon fill="black" stroke="black" points="264.025,-164.535 268.69,-162.024 263.478,-161.078 264.025,-164.535"/>
</g>
<!-- topo.plotting.plotgroup.UnitMeasurementCommand -->
<g id="node14" class="node"><title>topo.plotting.plotgroup.UnitMeasurementCommand</title>
<polygon fill="none" stroke="black" stroke-width="0.5" points="1120,-58 866,-58 866,-38 1120,-38 1120,-58"/>
<text text-anchor="middle" x="993" y="-45" font-family="Vera" font-size="10.00">topo.plotting.plotgroup.UnitMeasurementCommand</text>
</g>
<!-- topo.command.analysis.update_connectionfields -->
<g id="node44" class="node"><title>topo.command.analysis.update_connectionfields</title>
<polygon fill="none" stroke="black" stroke-width="0.5" points="1443,-58 1205,-58 1205,-38 1443,-38 1443,-58"/>
<text text-anchor="middle" x="1324" y="-45" font-family="Vera" font-size="10.00">topo.command.analysis.update_connectionfields</text>
</g>
<!-- topo.plotting.plotgroup.UnitMeasurementCommand&#45;&gt;topo.command.analysis.update_connectionfields -->
<g id="edge38" class="edge"><title>topo.plotting.plotgroup.UnitMeasurementCommand&#45;&gt;topo.command.analysis.update_connectionfields</title>
<path fill="none" stroke="black" stroke-width="0.5" d="M1120.97,-48C1146.81,-48 1173.94,-48 1199.65,-48"/>
<polygon fill="black" stroke="black" points="1199.77,-49.7501 1204.77,-48 1199.77,-46.2501 1199.77,-49.7501"/>
</g>
<!-- topo.command.analysis.update_projection -->
<g id="node50" class="node"><title>topo.command.analysis.update_projection</title>
<polygon fill="none" stroke="black" stroke-width="0.5" points="1428,-20 1220,-20 1220,-1.06581e-14 1428,-3.55271e-15 1428,-20"/>
<text text-anchor="middle" x="1324" y="-7" font-family="Vera" font-size="10.00">topo.command.analysis.update_projection</text>
</g>
<!-- topo.plotting.plotgroup.UnitMeasurementCommand&#45;&gt;topo.command.analysis.update_projection -->
<g id="edge46" class="edge"><title>topo.plotting.plotgroup.UnitMeasurementCommand&#45;&gt;topo.command.analysis.update_projection</title>
<path fill="none" stroke="black" stroke-width="0.5" d="M1082.91,-37.9729C1108.47,-35.1002 1136.33,-31.9478 1162,-29 1185.38,-26.3152 1210.64,-23.3717 1234.11,-20.6202"/>
<polygon fill="black" stroke="black" points="1234.33,-22.3568 1239.09,-20.0361 1233.92,-18.8806 1234.33,-22.3568"/>
</g>
<!-- topo.plotting.plotgroup.ProjectionSheetMeasurementCommand&#45;&gt;topo.plotting.plotgroup.UnitMeasurementCommand -->
<g id="edge10" class="edge"><title>topo.plotting.plotgroup.ProjectionSheetMeasurementCommand&#45;&gt;topo.plotting.plotgroup.UnitMeasurementCommand</title>
<path fill="none" stroke="black" stroke-width="0.5" d="M787.55,-48C811.73,-48 836.553,-48 860.211,-48"/>
<polygon fill="black" stroke="black" points="860.241,-49.7501 865.241,-48 860.241,-46.2501 860.241,-49.7501"/>
</g>
<!-- topo.command.analysis.update_projectionactivity -->
<g id="node19" class="node"><title>topo.command.analysis.update_projectionactivity</title>
<polygon fill="none" stroke="black" stroke-width="0.5" points="1113,-20 873,-20 873,-1.06581e-14 1113,-3.55271e-15 1113,-20"/>
<text text-anchor="middle" x="993" y="-7" font-family="Vera" font-size="10.00">topo.command.analysis.update_projectionactivity</text>
</g>
<!-- topo.plotting.plotgroup.ProjectionSheetMeasurementCommand&#45;&gt;topo.command.analysis.update_projectionactivity -->
<g id="edge14" class="edge"><title>topo.plotting.plotgroup.ProjectionSheetMeasurementCommand&#45;&gt;topo.command.analysis.update_projectionactivity</title>
<path fill="none" stroke="black" stroke-width="0.5" d="M728.793,-37.9662C779.404,-32.609 841.673,-26.0179 893.046,-20.5801"/>
<polygon fill="black" stroke="black" points="893.511,-22.2907 898.299,-20.024 893.143,-18.8102 893.511,-22.2907"/>
</g>
<!-- topo.command.analysis.measure_corner_angle_pref -->
<g id="node23" class="node"><title>topo.command.analysis.measure_corner_angle_pref</title>
<polygon fill="none" stroke="black" stroke-width="0.5" points="1450,-210 1198,-210 1198,-190 1450,-190 1450,-210"/>
<text text-anchor="middle" x="1324" y="-197" font-family="Vera" font-size="10.00">topo.command.analysis.measure_corner_angle_pref</text>
</g>
<!-- topo.analysis.featureresponses.PositionMeasurementCommand&#45;&gt;topo.command.analysis.measure_corner_angle_pref -->
<g id="edge18" class="edge"><title>topo.analysis.featureresponses.PositionMeasurementCommand&#45;&gt;topo.command.analysis.measure_corner_angle_pref</title>
<path fill="none" stroke="black" stroke-width="0.5" d="M1146.87,-200C1162.19,-200 1177.64,-200 1192.7,-200"/>
<polygon fill="black" stroke="black" points="1192.79,-201.75 1197.79,-200 1192.79,-198.25 1192.79,-201.75"/>
</g>
<!-- topo.command.analysis.measure_corner_or_pref -->
<g id="node33" class="node"><title>topo.command.analysis.measure_corner_or_pref</title>
<polygon fill="none" stroke="black" stroke-width="0.5" points="1442,-172 1206,-172 1206,-152 1442,-152 1442,-172"/>
<text text-anchor="middle" x="1324" y="-159" font-family="Vera" font-size="10.00">topo.command.analysis.measure_corner_or_pref</text>
</g>
<!-- topo.analysis.featureresponses.PositionMeasurementCommand&#45;&gt;topo.command.analysis.measure_corner_or_pref -->
<g id="edge28" class="edge"><title>topo.analysis.featureresponses.PositionMeasurementCommand&#45;&gt;topo.command.analysis.measure_corner_or_pref</title>
<path fill="none" stroke="black" stroke-width="0.5" d="M1082.91,-189.973C1108.47,-187.1 1136.33,-183.948 1162,-181 1185.38,-178.315 1210.64,-175.372 1234.11,-172.62"/>
<polygon fill="black" stroke="black" points="1234.33,-174.357 1239.09,-172.036 1233.92,-170.881 1234.33,-174.357"/>
</g>
<!-- topo.command.analysis.measure_rfs -->
<g id="node35" class="node"><title>topo.command.analysis.measure_rfs</title>
<polygon fill="none" stroke="black" stroke-width="0.5" points="1415,-96 1233,-96 1233,-76 1415,-76 1415,-96"/>
<text text-anchor="middle" x="1324" y="-83" font-family="Vera" font-size="10.00">topo.command.analysis.measure_rfs</text>
</g>
<!-- topo.analysis.featureresponses.SingleInputResponseCommand&#45;&gt;topo.command.analysis.measure_rfs -->
<g id="edge30" class="edge"><title>topo.analysis.featureresponses.SingleInputResponseCommand&#45;&gt;topo.command.analysis.measure_rfs</title>
<path fill="none" stroke="black" stroke-width="0.5" d="M1144.94,-86C1172.82,-86 1201.22,-86 1226.94,-86"/>
<polygon fill="black" stroke="black" points="1227.05,-87.7501 1232.05,-86 1227.05,-84.2501 1227.05,-87.7501"/>
</g>
</g>
</svg>
