<?xml version="1.0" encoding="UTF-8" standalone="no"?>
<!DOCTYPE svg PUBLIC "-//W3C//DTD SVG 1.1//EN"
 "http://www.w3.org/Graphics/SVG/1.1/DTD/svg11.dtd">
<!-- Generated by graphviz version 2.26.3 (20100126.1600)
 -->
<!-- Title: inheritancee08cba1177 Pages: 1 -->
<svg width="1638pt" height="104pt"
 viewBox="0.00 0.00 1638.00 104.00" xmlns="http://www.w3.org/2000/svg" xmlns:xlink="http://www.w3.org/1999/xlink">
<g id="graph1" class="graph" transform="scale(1 1) rotate(0) translate(4 100)">
<title>inheritancee08cba1177</title>
<polygon fill="white" stroke="white" points="-4,5 -4,-100 1635,-100 1635,5 -4,5"/>
<!-- topo.base.simulation.EventProcessor -->
<g id="node1" class="node"><title>topo.base.simulation.EventProcessor</title>
<polygon fill="none" stroke="black" stroke-width="0.5" points="445,-39.5 251,-39.5 251,-18.5 445,-18.5 445,-39.5"/>
<text text-anchor="middle" x="348" y="-26.5" font-family="Vera" font-size="10.00">topo.base.simulation.EventProcessor</text>
</g>
<!-- topo.base.sheet.Sheet -->
<g id="node5" class="node"><title>topo.base.sheet.Sheet</title>
<polygon fill="none" stroke="black" stroke-width="0.5" points="628,-58.5 502,-58.5 502,-37.5 628,-37.5 628,-58.5"/>
<text text-anchor="middle" x="565" y="-45.5" font-family="Vera" font-size="10.00">topo.base.sheet.Sheet</text>
</g>
<!-- topo.base.simulation.EventProcessor&#45;&gt;topo.base.sheet.Sheet -->
<g id="edge6" class="edge"><title>topo.base.simulation.EventProcessor&#45;&gt;topo.base.sheet.Sheet</title>
<path fill="none" stroke="black" stroke-width="0.5" d="M445.075,-37.4997C462.563,-39.0309 480.451,-40.5971 496.895,-42.0369"/>
<polygon fill="black" stroke="black" points="496.816,-43.7866 501.95,-42.4795 497.122,-40.2999 496.816,-43.7866"/>
</g>
<!-- param.parameterized.Parameterized -->
<g id="node2" class="node"><title>param.parameterized.Parameterized</title>
<polygon fill="none" stroke="black" stroke-width="0.5" points="194,-39.5 5.68434e-14,-39.5 0,-18.5 194,-18.5 194,-39.5"/>
<text text-anchor="middle" x="97" y="-26.5" font-family="Vera" font-size="10.00">param.parameterized.Parameterized</text>
</g>
<!-- param.parameterized.Parameterized&#45;&gt;topo.base.simulation.EventProcessor -->
<g id="edge2" class="edge"><title>param.parameterized.Parameterized&#45;&gt;topo.base.simulation.EventProcessor</title>
<path fill="none" stroke="black" stroke-width="0.5" d="M194.043,-29C210.921,-29 228.523,-29 245.54,-29"/>
<polygon fill="black" stroke="black" points="245.801,-30.7501 250.801,-29 245.801,-27.2501 245.801,-30.7501"/>
</g>
<!-- topo.sheet.ActivityCopy -->
<g id="node4" class="node"><title>topo.sheet.ActivityCopy</title>
<polygon fill="none" stroke="black" stroke-width="0.5" points="840,-96.5 710,-96.5 710,-75.5 840,-75.5 840,-96.5"/>
<text text-anchor="middle" x="775" y="-83.5" font-family="Vera" font-size="10.00">topo.sheet.ActivityCopy</text>
</g>
<!-- topo.base.sheet.Sheet&#45;&gt;topo.sheet.ActivityCopy -->
<g id="edge4" class="edge"><title>topo.base.sheet.Sheet&#45;&gt;topo.sheet.ActivityCopy</title>
<path fill="none" stroke="black" stroke-width="0.5" d="M616.091,-58.0084C631.478,-60.9678 648.416,-64.1711 664,-67 678.863,-69.6981 694.866,-72.4983 709.967,-75.0932"/>
<polygon fill="black" stroke="black" points="709.826,-76.8446 715.05,-75.9649 710.418,-73.395 709.826,-76.8446"/>
</g>
<!-- topo.base.projection.ProjectionSheet -->
<g id="node15" class="node"><title>topo.base.projection.ProjectionSheet</title>
<polygon fill="none" stroke="black" stroke-width="0.5" points="872,-58.5 678,-58.5 678,-37.5 872,-37.5 872,-58.5"/>
<text text-anchor="middle" x="775" y="-45.5" font-family="Vera" font-size="10.00">topo.base.projection.ProjectionSheet</text>
</g>
<!-- topo.base.sheet.Sheet&#45;&gt;topo.base.projection.ProjectionSheet -->
<g id="edge14" class="edge"><title>topo.base.sheet.Sheet&#45;&gt;topo.base.projection.ProjectionSheet</title>
<path fill="none" stroke="black" stroke-width="0.5" d="M628.007,-48C642.118,-48 657.44,-48 672.686,-48"/>
<polygon fill="black" stroke="black" points="672.852,-49.7501 677.852,-48 672.852,-46.2501 672.852,-49.7501"/>
</g>
<!-- topo.misc.generatorsheet.GeneratorSheet -->
<g id="node20" class="node"><title>topo.misc.generatorsheet.GeneratorSheet</title>
<polygon fill="none" stroke="black" stroke-width="0.5" points="885,-20.5 665,-20.5 665,0.5 885,0.5 885,-20.5"/>
<text text-anchor="middle" x="775" y="-7.5" font-family="Vera" font-size="10.00">topo.misc.generatorsheet.GeneratorSheet</text>
</g>
<!-- topo.base.sheet.Sheet&#45;&gt;topo.misc.generatorsheet.GeneratorSheet -->
<g id="edge20" class="edge"><title>topo.base.sheet.Sheet&#45;&gt;topo.misc.generatorsheet.GeneratorSheet</title>
<path fill="none" stroke="black" stroke-width="0.5" d="M616.091,-37.9916C631.478,-35.0322 648.416,-31.8289 664,-29 678.863,-26.3019 694.866,-23.5017 709.967,-20.9068"/>
<polygon fill="black" stroke="black" points="710.418,-22.605 715.05,-20.0351 709.826,-19.1554 710.418,-22.605"/>
</g>
<!-- imagen.sheetcoords.SheetCoordinateSystem -->
<g id="node7" class="node"><title>imagen.sheetcoords.SheetCoordinateSystem</title>
<polygon fill="none" stroke="black" stroke-width="0.5" points="466,-77.5 230,-77.5 230,-56.5 466,-56.5 466,-77.5"/>
<text text-anchor="middle" x="348" y="-64.5" font-family="Vera" font-size="10.00">imagen.sheetcoords.SheetCoordinateSystem</text>
</g>
<!-- imagen.sheetcoords.SheetCoordinateSystem&#45;&gt;topo.base.sheet.Sheet -->
<g id="edge8" class="edge"><title>imagen.sheetcoords.SheetCoordinateSystem&#45;&gt;topo.base.sheet.Sheet</title>
<path fill="none" stroke="black" stroke-width="0.5" d="M462.219,-56.9992C473.996,-55.9681 485.682,-54.9449 496.721,-53.9783"/>
<polygon fill="black" stroke="black" points="496.918,-55.7179 501.746,-53.5384 496.612,-52.2313 496.918,-55.7179"/>
</g>
<!-- topo.sheet.SettlingCFSheet -->
<g id="node10" class="node"><title>topo.sheet.SettlingCFSheet</title>
<polygon fill="none" stroke="black" stroke-width="0.5" points="1580,-77.5 1432,-77.5 1432,-56.5 1580,-56.5 1580,-77.5"/>
<text text-anchor="middle" x="1506" y="-64.5" font-family="Vera" font-size="10.00">topo.sheet.SettlingCFSheet</text>
</g>
<!-- topo.sheet.JointNormalizingCFSheet -->
<g id="node11" class="node"><title>topo.sheet.JointNormalizingCFSheet</title>
<polygon fill="none" stroke="black" stroke-width="0.5" points="1345,-58.5 1157,-58.5 1157,-37.5 1345,-37.5 1345,-58.5"/>
<text text-anchor="middle" x="1251" y="-45.5" font-family="Vera" font-size="10.00">topo.sheet.JointNormalizingCFSheet</text>
</g>
<!-- topo.sheet.JointNormalizingCFSheet&#45;&gt;topo.sheet.SettlingCFSheet -->
<g id="edge10" class="edge"><title>topo.sheet.JointNormalizingCFSheet&#45;&gt;topo.sheet.SettlingCFSheet</title>
<path fill="none" stroke="black" stroke-width="0.5" d="M1345.59,-55.0479C1372.17,-57.0281 1400.79,-59.1608 1426.4,-61.0688"/>
<polygon fill="black" stroke="black" points="1426.36,-62.8209 1431.48,-61.4473 1426.62,-59.3306 1426.36,-62.8209"/>
</g>
<!-- topo.sheet.JointNormalizingCFSheet_Continuous -->
<g id="node18" class="node"><title>topo.sheet.JointNormalizingCFSheet_Continuous</title>
<polygon fill="none" stroke="black" stroke-width="0.5" points="1630,-39.5 1382,-39.5 1382,-18.5 1630,-18.5 1630,-39.5"/>
<text text-anchor="middle" x="1506" y="-26.5" font-family="Vera" font-size="10.00">topo.sheet.JointNormalizingCFSheet_Continuous</text>
</g>
<!-- topo.sheet.JointNormalizingCFSheet&#45;&gt;topo.sheet.JointNormalizingCFSheet_Continuous -->
<g id="edge18" class="edge"><title>topo.sheet.JointNormalizingCFSheet&#45;&gt;topo.sheet.JointNormalizingCFSheet_Continuous</title>
<path fill="none" stroke="black" stroke-width="0.5" d="M1345.59,-40.9521C1355.7,-40.1988 1366.11,-39.4234 1376.53,-38.6468"/>
<polygon fill="black" stroke="black" points="1376.79,-40.3822 1381.65,-38.2655 1376.53,-36.8919 1376.79,-40.3822"/>
</g>
<!-- topo.base.cf.CFSheet -->
<g id="node13" class="node"><title>topo.base.cf.CFSheet</title>
<polygon fill="none" stroke="black" stroke-width="0.5" points="1080,-58.5 962,-58.5 962,-37.5 1080,-37.5 1080,-58.5"/>
<text text-anchor="middle" x="1021" y="-45.5" font-family="Vera" font-size="10.00">topo.base.cf.CFSheet</text>
</g>
<!-- topo.base.cf.CFSheet&#45;&gt;topo.sheet.JointNormalizingCFSheet -->
<g id="edge12" class="edge"><title>topo.base.cf.CFSheet&#45;&gt;topo.sheet.JointNormalizingCFSheet</title>
<path fill="none" stroke="black" stroke-width="0.5" d="M1080.53,-48C1102.15,-48 1127.21,-48 1151.36,-48"/>
<polygon fill="black" stroke="black" points="1151.49,-49.7501 1156.49,-48 1151.49,-46.2501 1151.49,-49.7501"/>
</g>
<!-- topo.base.projection.ProjectionSheet&#45;&gt;topo.base.cf.CFSheet -->
<g id="edge16" class="edge"><title>topo.base.projection.ProjectionSheet&#45;&gt;topo.base.cf.CFSheet</title>
<path fill="none" stroke="black" stroke-width="0.5" d="M872.226,-48C900.429,-48 930.524,-48 956.216,-48"/>
<polygon fill="black" stroke="black" points="956.293,-49.7501 961.293,-48 956.293,-46.2501 956.293,-49.7501"/>
</g>
<!-- topo.sheet.SequenceGeneratorSheet -->
<g id="node22" class="node"><title>topo.sheet.SequenceGeneratorSheet</title>
<polygon fill="none" stroke="black" stroke-width="0.5" points="1119,-20.5 923,-20.5 923,0.5 1119,0.5 1119,-20.5"/>
<text text-anchor="middle" x="1021" y="-7.5" font-family="Vera" font-size="10.00">topo.sheet.SequenceGeneratorSheet</text>
</g>
<!-- topo.misc.generatorsheet.GeneratorSheet&#45;&gt;topo.sheet.SequenceGeneratorSheet -->
<g id="edge22" class="edge"><title>topo.misc.generatorsheet.GeneratorSheet&#45;&gt;topo.sheet.SequenceGeneratorSheet</title>
<path fill="none" stroke="black" stroke-width="0.5" d="M885.766,-10C896.287,-10 906.929,-10 917.379,-10"/>
<polygon fill="black" stroke="black" points="917.493,-11.7501 922.493,-10 917.493,-8.2501 917.493,-11.7501"/>
</g>
</g>
</svg>
