<?xml version="1.0" encoding="UTF-8" standalone="no"?>
<!DOCTYPE svg PUBLIC "-//W3C//DTD SVG 1.1//EN"
 "http://www.w3.org/Graphics/SVG/1.1/DTD/svg11.dtd">
<!-- Generated by graphviz version 2.26.3 (20100126.1600)
 -->
<!-- Title: inheritance0bce68b9cf Pages: 1 -->
<svg width="1872pt" height="446pt"
 viewBox="0.00 0.00 1872.00 446.00" xmlns="http://www.w3.org/2000/svg" xmlns:xlink="http://www.w3.org/1999/xlink">
<g id="graph1" class="graph" transform="scale(1 1) rotate(0) translate(4 442)">
<title>inheritance0bce68b9cf</title>
<polygon fill="white" stroke="white" points="-4,5 -4,-442 1869,-442 1869,5 -4,5"/>
<!-- imagen.patterngenerator.PatternGenerator -->
<g id="node1" class="node"><title>imagen.patterngenerator.PatternGenerator</title>
<polygon fill="none" stroke="black" stroke-width="0.5" points="459,-371.5 235,-371.5 235,-350.5 459,-350.5 459,-371.5"/>
<text text-anchor="middle" x="347" y="-358.5" font-family="Vera" font-size="10.00">imagen.patterngenerator.PatternGenerator</text>
</g>
<!-- topo.command.analysis.log_frequency_mapper -->
<g id="node31" class="node"><title>topo.command.analysis.log_frequency_mapper</title>
<polygon fill="none" stroke="black" stroke-width="0.5" points="783,-438.5 539,-438.5 539,-417.5 783,-417.5 783,-438.5"/>
<text text-anchor="middle" x="661" y="-425.5" font-family="Vera" font-size="10.00">topo.command.analysis.log_frequency_mapper</text>
</g>
<!-- imagen.patterngenerator.PatternGenerator&#45;&gt;topo.command.analysis.log_frequency_mapper -->
<g id="edge28" class="edge"><title>imagen.patterngenerator.PatternGenerator&#45;&gt;topo.command.analysis.log_frequency_mapper</title>
<path fill="none" stroke="black" stroke-width="0.5" d="M373.678,-371.042C403.893,-382.02 454.81,-399.333 500,-409 515.084,-412.227 531.088,-414.942 546.927,-417.218"/>
<polygon fill="black" stroke="black" points="547.096,-419.009 552.291,-417.973 547.584,-415.543 547.096,-419.009"/>
</g>
<!-- topo.command.analysis.latency_mapper -->
<g id="node33" class="node"><title>topo.command.analysis.latency_mapper</title>
<polygon fill="none" stroke="black" stroke-width="0.5" points="767,-400.5 555,-400.5 555,-379.5 767,-379.5 767,-400.5"/>
<text text-anchor="middle" x="661" y="-387.5" font-family="Vera" font-size="10.00">topo.command.analysis.latency_mapper</text>
</g>
<!-- imagen.patterngenerator.PatternGenerator&#45;&gt;topo.command.analysis.latency_mapper -->
<g id="edge30" class="edge"><title>imagen.patterngenerator.PatternGenerator&#45;&gt;topo.command.analysis.latency_mapper</title>
<path fill="none" stroke="black" stroke-width="0.5" d="M455.501,-371.021C485.915,-373.83 519.022,-376.887 549.602,-379.712"/>
<polygon fill="black" stroke="black" points="549.743,-381.482 554.882,-380.199 550.065,-377.997 549.743,-381.482"/>
</g>
<!-- topo.command.analysis.frequency_mapper -->
<g id="node38" class="node"><title>topo.command.analysis.frequency_mapper</title>
<polygon fill="none" stroke="black" stroke-width="0.5" points="773,-362.5 549,-362.5 549,-341.5 773,-341.5 773,-362.5"/>
<text text-anchor="middle" x="661" y="-349.5" font-family="Vera" font-size="10.00">topo.command.analysis.frequency_mapper</text>
</g>
<!-- imagen.patterngenerator.PatternGenerator&#45;&gt;topo.command.analysis.frequency_mapper -->
<g id="edge34" class="edge"><title>imagen.patterngenerator.PatternGenerator&#45;&gt;topo.command.analysis.frequency_mapper</title>
<path fill="none" stroke="black" stroke-width="0.5" d="M459.031,-357.789C486.472,-357.002 515.915,-356.158 543.6,-355.365"/>
<polygon fill="black" stroke="black" points="543.8,-357.11 548.748,-355.217 543.7,-353.611 543.8,-357.11"/>
</g>
<!-- param.parameterized.Parameterized -->
<g id="node2" class="node"><title>param.parameterized.Parameterized</title>
<polygon fill="none" stroke="black" stroke-width="0.5" points="194,-314.5 5.68434e-14,-314.5 0,-293.5 194,-293.5 194,-314.5"/>
<text text-anchor="middle" x="97" y="-301.5" font-family="Vera" font-size="10.00">param.parameterized.Parameterized</text>
</g>
<!-- param.parameterized.Parameterized&#45;&gt;imagen.patterngenerator.PatternGenerator -->
<g id="edge2" class="edge"><title>param.parameterized.Parameterized&#45;&gt;imagen.patterngenerator.PatternGenerator</title>
<path fill="none" stroke="black" stroke-width="0.5" d="M141.12,-314.059C185.075,-324.081 252.414,-339.434 298.007,-349.83"/>
<polygon fill="black" stroke="black" points="297.638,-351.54 302.902,-350.946 298.416,-348.128 297.638,-351.54"/>
</g>
<!-- param.parameterized.ParameterizedFunction -->
<g id="node29" class="node"><title>param.parameterized.ParameterizedFunction</title>
<polygon fill="none" stroke="black" stroke-width="0.5" points="464,-314.5 230,-314.5 230,-293.5 464,-293.5 464,-314.5"/>
<text text-anchor="middle" x="347" y="-301.5" font-family="Vera" font-size="10.00">param.parameterized.ParameterizedFunction</text>
</g>
<!-- param.parameterized.Parameterized&#45;&gt;param.parameterized.ParameterizedFunction -->
<g id="edge26" class="edge"><title>param.parameterized.Parameterized&#45;&gt;param.parameterized.ParameterizedFunction</title>
<path fill="none" stroke="black" stroke-width="0.5" d="M194.014,-304C204.04,-304 214.319,-304 224.575,-304"/>
<polygon fill="black" stroke="black" points="224.607,-305.75 229.607,-304 224.607,-302.25 224.607,-305.75"/>
</g>
<!-- topo.command.analysis.PatternPresenter2 -->
<g id="node46" class="node"><title>topo.command.analysis.PatternPresenter2</title>
<polygon fill="none" stroke="black" stroke-width="0.5" points="457,-276.5 237,-276.5 237,-255.5 457,-255.5 457,-276.5"/>
<text text-anchor="middle" x="347" y="-263.5" font-family="Vera" font-size="10.00">topo.command.analysis.PatternPresenter2</text>
</g>
<!-- param.parameterized.Parameterized&#45;&gt;topo.command.analysis.PatternPresenter2 -->
<g id="edge44" class="edge"><title>param.parameterized.Parameterized&#45;&gt;topo.command.analysis.PatternPresenter2</title>
<path fill="none" stroke="black" stroke-width="0.5" d="M163.012,-293.966C197.758,-288.685 240.394,-282.204 275.872,-276.811"/>
<polygon fill="black" stroke="black" points="276.372,-278.506 281.052,-276.024 275.846,-275.045 276.372,-278.506"/>
</g>
<!-- topo.command.analysis.measure_hue_pref -->
<g id="node4" class="node"><title>topo.command.analysis.measure_hue_pref</title>
<polygon fill="none" stroke="black" stroke-width="0.5" points="1841,-438.5 1617,-438.5 1617,-417.5 1841,-417.5 1841,-438.5"/>
<text text-anchor="middle" x="1729" y="-425.5" font-family="Vera" font-size="10.00">topo.command.analysis.measure_hue_pref</text>
</g>
<!-- topo.analysis.featureresponses.SinusoidalMeasureResponseCommand -->
<g id="node5" class="node"><title>topo.analysis.featureresponses.SinusoidalMeasureResponseCommand</title>
<polygon fill="none" stroke="black" stroke-width="0.5" points="1558,-286.5 1202,-286.5 1202,-265.5 1558,-265.5 1558,-286.5"/>
<text text-anchor="middle" x="1380" y="-273.5" font-family="Vera" font-size="10.00">topo.analysis.featureresponses.SinusoidalMeasureResponseCommand</text>
</g>
<!-- topo.analysis.featureresponses.SinusoidalMeasureResponseCommand&#45;&gt;topo.command.analysis.measure_hue_pref -->
<g id="edge4" class="edge"><title>topo.analysis.featureresponses.SinusoidalMeasureResponseCommand&#45;&gt;topo.command.analysis.measure_hue_pref</title>
<path fill="none" stroke="black" stroke-width="0.5" d="M1545.06,-286.013C1549.58,-288.67 1553.91,-291.655 1558,-295 1599.13,-328.642 1553.44,-374.675 1594,-409 1599.58,-413.721 1605.77,-417.58 1612.36,-420.715"/>
<polygon fill="black" stroke="black" points="1611.7,-422.336 1616.98,-422.772 1613.12,-419.139 1611.7,-422.336"/>
</g>
<!-- topo.command.analysis.measure_or_pref -->
<g id="node13" class="node"><title>topo.command.analysis.measure_or_pref</title>
<polygon fill="none" stroke="black" stroke-width="0.5" points="1837,-400.5 1621,-400.5 1621,-379.5 1837,-379.5 1837,-400.5"/>
<text text-anchor="middle" x="1729" y="-387.5" font-family="Vera" font-size="10.00">topo.command.analysis.measure_or_pref</text>
</g>
<!-- topo.analysis.featureresponses.SinusoidalMeasureResponseCommand&#45;&gt;topo.command.analysis.measure_or_pref -->
<g id="edge10" class="edge"><title>topo.analysis.featureresponses.SinusoidalMeasureResponseCommand&#45;&gt;topo.command.analysis.measure_or_pref</title>
<path fill="none" stroke="black" stroke-width="0.5" d="M1543.24,-286.123C1548.37,-288.725 1553.31,-291.672 1558,-295 1588.48,-316.637 1563.89,-348.856 1594,-371 1600.71,-375.935 1608.13,-379.873 1615.93,-382.994"/>
<polygon fill="black" stroke="black" points="1615.54,-384.716 1620.84,-384.833 1616.77,-381.439 1615.54,-384.716"/>
</g>
<!-- topo.command.analysis.measure_second_or_pref -->
<g id="node15" class="node"><title>topo.command.analysis.measure_second_or_pref</title>
<polygon fill="none" stroke="black" stroke-width="0.5" points="1857,-362.5 1601,-362.5 1601,-341.5 1857,-341.5 1857,-362.5"/>
<text text-anchor="middle" x="1729" y="-349.5" font-family="Vera" font-size="10.00">topo.command.analysis.measure_second_or_pref</text>
</g>
<!-- topo.analysis.featureresponses.SinusoidalMeasureResponseCommand&#45;&gt;topo.command.analysis.measure_second_or_pref -->
<g id="edge12" class="edge"><title>topo.analysis.featureresponses.SinusoidalMeasureResponseCommand&#45;&gt;topo.command.analysis.measure_second_or_pref</title>
<path fill="none" stroke="black" stroke-width="0.5" d="M1536.23,-286.077C1543.73,-288.602 1551.04,-291.555 1558,-295 1578.85,-305.315 1573.32,-322.337 1594,-333 1599.34,-335.754 1604.95,-338.149 1610.72,-340.229"/>
<polygon fill="black" stroke="black" points="1610.31,-341.937 1615.61,-341.903 1611.45,-338.626 1610.31,-341.937"/>
</g>
<!-- topo.command.analysis.measure_sine_pref -->
<g id="node17" class="node"><title>topo.command.analysis.measure_sine_pref</title>
<polygon fill="none" stroke="black" stroke-width="0.5" points="1842,-324.5 1616,-324.5 1616,-303.5 1842,-303.5 1842,-324.5"/>
<text text-anchor="middle" x="1729" y="-311.5" font-family="Vera" font-size="10.00">topo.command.analysis.measure_sine_pref</text>
</g>
<!-- topo.analysis.featureresponses.SinusoidalMeasureResponseCommand&#45;&gt;topo.command.analysis.measure_sine_pref -->
<g id="edge14" class="edge"><title>topo.analysis.featureresponses.SinusoidalMeasureResponseCommand&#45;&gt;topo.command.analysis.measure_sine_pref</title>
<path fill="none" stroke="black" stroke-width="0.5" d="M1474.7,-286.031C1501.62,-288.904 1530.97,-292.055 1558,-295 1582.67,-297.688 1609.34,-300.632 1634.12,-303.384"/>
<polygon fill="black" stroke="black" points="1634.21,-305.155 1639.37,-303.968 1634.6,-301.676 1634.21,-305.155"/>
</g>
<!-- topo.command.analysis.measure_dr_pref -->
<g id="node24" class="node"><title>topo.command.analysis.measure_dr_pref</title>
<polygon fill="none" stroke="black" stroke-width="0.5" points="1837,-286.5 1621,-286.5 1621,-265.5 1837,-265.5 1837,-286.5"/>
<text text-anchor="middle" x="1729" y="-273.5" font-family="Vera" font-size="10.00">topo.command.analysis.measure_dr_pref</text>
</g>
<!-- topo.analysis.featureresponses.SinusoidalMeasureResponseCommand&#45;&gt;topo.command.analysis.measure_dr_pref -->
<g id="edge20" class="edge"><title>topo.analysis.featureresponses.SinusoidalMeasureResponseCommand&#45;&gt;topo.command.analysis.measure_dr_pref</title>
<path fill="none" stroke="black" stroke-width="0.5" d="M1558.08,-276C1577.59,-276 1597.03,-276 1615.45,-276"/>
<polygon fill="black" stroke="black" points="1615.61,-277.75 1620.61,-276 1615.61,-274.25 1615.61,-277.75"/>
</g>
<!-- topo.command.analysis.measure_phasedisparity -->
<g id="node52" class="node"><title>topo.command.analysis.measure_phasedisparity</title>
<polygon fill="none" stroke="black" stroke-width="0.5" points="1855,-248.5 1603,-248.5 1603,-227.5 1855,-227.5 1855,-248.5"/>
<text text-anchor="middle" x="1729" y="-235.5" font-family="Vera" font-size="10.00">topo.command.analysis.measure_phasedisparity</text>
</g>
<!-- topo.analysis.featureresponses.SinusoidalMeasureResponseCommand&#45;&gt;topo.command.analysis.measure_phasedisparity -->
<g id="edge50" class="edge"><title>topo.analysis.featureresponses.SinusoidalMeasureResponseCommand&#45;&gt;topo.command.analysis.measure_phasedisparity</title>
<path fill="none" stroke="black" stroke-width="0.5" d="M1472.15,-265.966C1521.35,-260.609 1581.89,-254.018 1631.83,-248.58"/>
<polygon fill="black" stroke="black" points="1632.16,-250.305 1636.94,-248.024 1631.78,-246.826 1632.16,-250.305"/>
</g>
<!-- topo.command.analysis.measure_od_pref -->
<g id="node60" class="node"><title>topo.command.analysis.measure_od_pref</title>
<polygon fill="none" stroke="black" stroke-width="0.5" points="1838,-210.5 1620,-210.5 1620,-189.5 1838,-189.5 1838,-210.5"/>
<text text-anchor="middle" x="1729" y="-197.5" font-family="Vera" font-size="10.00">topo.command.analysis.measure_od_pref</text>
</g>
<!-- topo.analysis.featureresponses.SinusoidalMeasureResponseCommand&#45;&gt;topo.command.analysis.measure_od_pref -->
<g id="edge60" class="edge"><title>topo.analysis.featureresponses.SinusoidalMeasureResponseCommand&#45;&gt;topo.command.analysis.measure_od_pref</title>
<path fill="none" stroke="black" stroke-width="0.5" d="M1412.7,-265.97C1454.43,-253.479 1529,-232.181 1594,-219 1609.11,-215.936 1625.27,-213.201 1640.97,-210.827"/>
<polygon fill="black" stroke="black" points="1641.59,-212.504 1646.27,-210.035 1641.07,-209.042 1641.59,-212.504"/>
</g>
<!-- topo.command.analysis.measure_rfs -->
<g id="node7" class="node"><title>topo.command.analysis.measure_rfs</title>
<polygon fill="none" stroke="black" stroke-width="0.5" points="1826,-172.5 1632,-172.5 1632,-151.5 1826,-151.5 1826,-172.5"/>
<text text-anchor="middle" x="1729" y="-159.5" font-family="Vera" font-size="10.00">topo.command.analysis.measure_rfs</text>
</g>
<!-- topo.analysis.featureresponses.SingleInputResponseCommand -->
<g id="node8" class="node"><title>topo.analysis.featureresponses.SingleInputResponseCommand</title>
<polygon fill="none" stroke="black" stroke-width="0.5" points="1539,-172.5 1221,-172.5 1221,-151.5 1539,-151.5 1539,-172.5"/>
<text text-anchor="middle" x="1380" y="-159.5" font-family="Vera" font-size="10.00">topo.analysis.featureresponses.SingleInputResponseCommand</text>
</g>
<!-- topo.analysis.featureresponses.SingleInputResponseCommand&#45;&gt;topo.command.analysis.measure_rfs -->
<g id="edge6" class="edge"><title>topo.analysis.featureresponses.SingleInputResponseCommand&#45;&gt;topo.command.analysis.measure_rfs</title>
<path fill="none" stroke="black" stroke-width="0.5" d="M1539.69,-162C1569.26,-162 1599.4,-162 1626.68,-162"/>
<polygon fill="black" stroke="black" points="1626.74,-163.75 1631.74,-162 1626.74,-160.25 1626.74,-163.75"/>
</g>
<!-- topo.command.analysis.measure_corner_angle_pref -->
<g id="node10" class="node"><title>topo.command.analysis.measure_corner_angle_pref</title>
<polygon fill="none" stroke="black" stroke-width="0.5" points="1863,-134.5 1595,-134.5 1595,-113.5 1863,-113.5 1863,-134.5"/>
<text text-anchor="middle" x="1729" y="-121.5" font-family="Vera" font-size="10.00">topo.command.analysis.measure_corner_angle_pref</text>
</g>
<!-- topo.analysis.featureresponses.PositionMeasurementCommand -->
<g id="node11" class="node"><title>topo.analysis.featureresponses.PositionMeasurementCommand</title>
<polygon fill="none" stroke="black" stroke-width="0.5" points="1542,-134.5 1218,-134.5 1218,-113.5 1542,-113.5 1542,-134.5"/>
<text text-anchor="middle" x="1380" y="-121.5" font-family="Vera" font-size="10.00">topo.analysis.featureresponses.PositionMeasurementCommand</text>
</g>
<!-- topo.analysis.featureresponses.PositionMeasurementCommand&#45;&gt;topo.command.analysis.measure_corner_angle_pref -->
<g id="edge8" class="edge"><title>topo.analysis.featureresponses.PositionMeasurementCommand&#45;&gt;topo.command.analysis.measure_corner_angle_pref</title>
<path fill="none" stroke="black" stroke-width="0.5" d="M1542.24,-124C1557.91,-124 1573.72,-124 1589.15,-124"/>
<polygon fill="black" stroke="black" points="1589.36,-125.75 1594.36,-124 1589.36,-122.25 1589.36,-125.75"/>
</g>
<!-- topo.command.analysis.measure_corner_or_pref -->
<g id="node50" class="node"><title>topo.command.analysis.measure_corner_or_pref</title>
<polygon fill="none" stroke="black" stroke-width="0.5" points="1855,-96.5 1603,-96.5 1603,-75.5 1855,-75.5 1855,-96.5"/>
<text text-anchor="middle" x="1729" y="-83.5" font-family="Vera" font-size="10.00">topo.command.analysis.measure_corner_or_pref</text>
</g>
<!-- topo.analysis.featureresponses.PositionMeasurementCommand&#45;&gt;topo.command.analysis.measure_corner_or_pref -->
<g id="edge48" class="edge"><title>topo.analysis.featureresponses.PositionMeasurementCommand&#45;&gt;topo.command.analysis.measure_corner_or_pref</title>
<path fill="none" stroke="black" stroke-width="0.5" d="M1474.7,-113.969C1501.62,-111.096 1530.97,-107.945 1558,-105 1582.67,-102.312 1609.34,-99.3679 1634.12,-96.6164"/>
<polygon fill="black" stroke="black" points="1634.6,-98.3239 1639.37,-96.0323 1634.21,-94.8453 1634.6,-98.3239"/>
</g>
<!-- topo.command.analysis.update_projectionactivity -->
<g id="node19" class="node"><title>topo.command.analysis.update_projectionactivity</title>
<polygon fill="none" stroke="black" stroke-width="0.5" points="1139,-362.5 885,-362.5 885,-341.5 1139,-341.5 1139,-362.5"/>
<text text-anchor="middle" x="1012" y="-349.5" font-family="Vera" font-size="10.00">topo.command.analysis.update_projectionactivity</text>
</g>
<!-- topo.plotting.plotgroup.ProjectionSheetMeasurementCommand -->
<g id="node20" class="node"><title>topo.plotting.plotgroup.ProjectionSheetMeasurementCommand</title>
<polygon fill="none" stroke="black" stroke-width="0.5" points="822,-324.5 500,-324.5 500,-303.5 822,-303.5 822,-324.5"/>
<text text-anchor="middle" x="661" y="-311.5" font-family="Vera" font-size="10.00">topo.plotting.plotgroup.ProjectionSheetMeasurementCommand</text>
</g>
<!-- topo.plotting.plotgroup.ProjectionSheetMeasurementCommand&#45;&gt;topo.command.analysis.update_projectionactivity -->
<g id="edge16" class="edge"><title>topo.plotting.plotgroup.ProjectionSheetMeasurementCommand&#45;&gt;topo.command.analysis.update_projectionactivity</title>
<path fill="none" stroke="black" stroke-width="0.5" d="M753.68,-324.034C803.164,-329.391 864.045,-335.982 914.273,-341.42"/>
<polygon fill="black" stroke="black" points="914.25,-343.178 919.409,-341.976 914.627,-339.698 914.25,-343.178"/>
</g>
<!-- topo.plotting.plotgroup.UnitMeasurementCommand -->
<g id="node36" class="node"><title>topo.plotting.plotgroup.UnitMeasurementCommand</title>
<polygon fill="none" stroke="black" stroke-width="0.5" points="1145,-324.5 879,-324.5 879,-303.5 1145,-303.5 1145,-324.5"/>
<text text-anchor="middle" x="1012" y="-311.5" font-family="Vera" font-size="10.00">topo.plotting.plotgroup.UnitMeasurementCommand</text>
</g>
<!-- topo.plotting.plotgroup.ProjectionSheetMeasurementCommand&#45;&gt;topo.plotting.plotgroup.UnitMeasurementCommand -->
<g id="edge56" class="edge"><title>topo.plotting.plotgroup.ProjectionSheetMeasurementCommand&#45;&gt;topo.plotting.plotgroup.UnitMeasurementCommand</title>
<path fill="none" stroke="black" stroke-width="0.5" d="M822.118,-314C839.348,-314 856.765,-314 873.698,-314"/>
<polygon fill="black" stroke="black" points="873.936,-315.75 878.936,-314 873.936,-312.25 873.936,-315.75"/>
</g>
<!-- topo.analysis.featureresponses.MeasureResponseCommand -->
<g id="node22" class="node"><title>topo.analysis.featureresponses.MeasureResponseCommand</title>
<polygon fill="none" stroke="black" stroke-width="0.5" points="1165,-134.5 859,-134.5 859,-113.5 1165,-113.5 1165,-134.5"/>
<text text-anchor="middle" x="1012" y="-121.5" font-family="Vera" font-size="10.00">topo.analysis.featureresponses.MeasureResponseCommand</text>
</g>
<!-- topo.analysis.featureresponses.MeasureResponseCommand&#45;&gt;topo.analysis.featureresponses.SinusoidalMeasureResponseCommand -->
<g id="edge18" class="edge"><title>topo.analysis.featureresponses.MeasureResponseCommand&#45;&gt;topo.analysis.featureresponses.SinusoidalMeasureResponseCommand</title>
<path fill="none" stroke="black" stroke-width="0.5" d="M1036.43,-134.091C1101.65,-161.028 1279.67,-234.56 1350.43,-263.787"/>
<polygon fill="black" stroke="black" points="1350.05,-265.522 1355.34,-265.813 1351.38,-262.287 1350.05,-265.522"/>
</g>
<!-- topo.analysis.featureresponses.MeasureResponseCommand&#45;&gt;topo.analysis.featureresponses.SingleInputResponseCommand -->
<g id="edge52" class="edge"><title>topo.analysis.featureresponses.MeasureResponseCommand&#45;&gt;topo.analysis.featureresponses.SingleInputResponseCommand</title>
<path fill="none" stroke="black" stroke-width="0.5" d="M1109.17,-134.034C1161.15,-139.402 1225.14,-146.009 1277.86,-151.453"/>
<polygon fill="black" stroke="black" points="1277.77,-153.203 1282.93,-151.976 1278.13,-149.722 1277.77,-153.203"/>
</g>
<!-- topo.analysis.featureresponses.MeasureResponseCommand&#45;&gt;topo.analysis.featureresponses.PositionMeasurementCommand -->
<g id="edge24" class="edge"><title>topo.analysis.featureresponses.MeasureResponseCommand&#45;&gt;topo.analysis.featureresponses.PositionMeasurementCommand</title>
<path fill="none" stroke="black" stroke-width="0.5" d="M1165.67,-124C1181.16,-124 1196.95,-124 1212.58,-124"/>
<polygon fill="black" stroke="black" points="1212.87,-125.75 1217.87,-124 1212.87,-122.25 1212.87,-125.75"/>
</g>
<!-- topo.command.analysis.measure_log_frequency_preference -->
<g id="node26" class="node"><title>topo.command.analysis.measure_log_frequency_preference</title>
<polygon fill="none" stroke="black" stroke-width="0.5" points="1533,-96.5 1227,-96.5 1227,-75.5 1533,-75.5 1533,-96.5"/>
<text text-anchor="middle" x="1380" y="-83.5" font-family="Vera" font-size="10.00">topo.command.analysis.measure_log_frequency_preference</text>
</g>
<!-- topo.analysis.featureresponses.MeasureResponseCommand&#45;&gt;topo.command.analysis.measure_log_frequency_preference -->
<g id="edge22" class="edge"><title>topo.analysis.featureresponses.MeasureResponseCommand&#45;&gt;topo.command.analysis.measure_log_frequency_preference</title>
<path fill="none" stroke="black" stroke-width="0.5" d="M1109.17,-113.966C1161.15,-108.598 1225.14,-101.991 1277.86,-96.5472"/>
<polygon fill="black" stroke="black" points="1278.13,-98.2785 1282.93,-96.024 1277.77,-94.797 1278.13,-98.2785"/>
</g>
<!-- topo.command.analysis.measure_frequency_preference -->
<g id="node48" class="node"><title>topo.command.analysis.measure_frequency_preference</title>
<polygon fill="none" stroke="black" stroke-width="0.5" points="1523,-58.5 1237,-58.5 1237,-37.5 1523,-37.5 1523,-58.5"/>
<text text-anchor="middle" x="1380" y="-45.5" font-family="Vera" font-size="10.00">topo.command.analysis.measure_frequency_preference</text>
</g>
<!-- topo.analysis.featureresponses.MeasureResponseCommand&#45;&gt;topo.command.analysis.measure_frequency_preference -->
<g id="edge46" class="edge"><title>topo.analysis.featureresponses.MeasureResponseCommand&#45;&gt;topo.command.analysis.measure_frequency_preference</title>
<path fill="none" stroke="black" stroke-width="0.5" d="M1039.6,-113.958C1076.21,-101.045 1143.09,-78.8742 1202,-67 1218.29,-63.7166 1235.54,-60.976 1252.64,-58.6945"/>
<polygon fill="black" stroke="black" points="1253.21,-60.385 1257.94,-58.0011 1252.75,-56.9146 1253.21,-60.385"/>
</g>
<!-- topo.command.analysis.measure_latency_preference -->
<g id="node58" class="node"><title>topo.command.analysis.measure_latency_preference</title>
<polygon fill="none" stroke="black" stroke-width="0.5" points="1517,-20.5 1243,-20.5 1243,0.5 1517,0.5 1517,-20.5"/>
<text text-anchor="middle" x="1380" y="-7.5" font-family="Vera" font-size="10.00">topo.command.analysis.measure_latency_preference</text>
</g>
<!-- topo.analysis.featureresponses.MeasureResponseCommand&#45;&gt;topo.command.analysis.measure_latency_preference -->
<g id="edge58" class="edge"><title>topo.analysis.featureresponses.MeasureResponseCommand&#45;&gt;topo.command.analysis.measure_latency_preference</title>
<path fill="none" stroke="black" stroke-width="0.5" d="M1027.47,-113.833C1058.87,-93.7561 1132.99,-49.219 1202,-29 1213.48,-25.636 1225.54,-22.8541 1237.73,-20.5553"/>
<polygon fill="black" stroke="black" points="1238.36,-22.2193 1242.97,-19.5993 1237.73,-18.7763 1238.36,-22.2193"/>
</g>
<!-- param.parameterized.ParameterizedFunction&#45;&gt;topo.plotting.plotgroup.ProjectionSheetMeasurementCommand -->
<g id="edge38" class="edge"><title>param.parameterized.ParameterizedFunction&#45;&gt;topo.plotting.plotgroup.ProjectionSheetMeasurementCommand</title>
<path fill="none" stroke="black" stroke-width="0.5" d="M464.369,-307.738C474.323,-308.055 484.506,-308.379 494.741,-308.705"/>
<polygon fill="black" stroke="black" points="494.716,-310.455 499.769,-308.865 494.827,-306.957 494.716,-310.455"/>
</g>
<!-- topo.analysis.featureresponses.PatternPresentingCommand -->
<g id="node40" class="node"><title>topo.analysis.featureresponses.PatternPresentingCommand</title>
<polygon fill="none" stroke="black" stroke-width="0.5" points="813,-286.5 509,-286.5 509,-265.5 813,-265.5 813,-286.5"/>
<text text-anchor="middle" x="661" y="-273.5" font-family="Vera" font-size="10.00">topo.analysis.featureresponses.PatternPresentingCommand</text>
</g>
<!-- param.parameterized.ParameterizedFunction&#45;&gt;topo.analysis.featureresponses.PatternPresentingCommand -->
<g id="edge42" class="edge"><title>param.parameterized.ParameterizedFunction&#45;&gt;topo.analysis.featureresponses.PatternPresentingCommand</title>
<path fill="none" stroke="black" stroke-width="0.5" d="M459.474,-293.97C486.809,-291.533 516.106,-288.92 543.66,-286.463"/>
<polygon fill="black" stroke="black" points="543.959,-288.194 548.784,-286.007 543.648,-284.708 543.959,-288.194"/>
</g>
<!-- topo.command.analysis.save_plotgroup -->
<g id="node55" class="node"><title>topo.command.analysis.save_plotgroup</title>
<polygon fill="none" stroke="black" stroke-width="0.5" points="765,-248.5 557,-248.5 557,-227.5 765,-227.5 765,-248.5"/>
<text text-anchor="middle" x="661" y="-235.5" font-family="Vera" font-size="10.00">topo.command.analysis.save_plotgroup</text>
</g>
<!-- param.parameterized.ParameterizedFunction&#45;&gt;topo.command.analysis.save_plotgroup -->
<g id="edge54" class="edge"><title>param.parameterized.ParameterizedFunction&#45;&gt;topo.command.analysis.save_plotgroup</title>
<path fill="none" stroke="black" stroke-width="0.5" d="M437.742,-293.934C446.796,-291.553 455.7,-288.618 464,-285 482.582,-276.901 481.247,-264.692 500,-257 516.185,-250.361 534.002,-245.826 551.704,-242.764"/>
<polygon fill="black" stroke="black" points="552.045,-244.482 556.693,-241.939 551.474,-241.029 552.045,-244.482"/>
</g>
<!-- topo.command.analysis.update_projection -->
<g id="node35" class="node"><title>topo.command.analysis.update_projection</title>
<polygon fill="none" stroke="black" stroke-width="0.5" points="1490,-362.5 1270,-362.5 1270,-341.5 1490,-341.5 1490,-362.5"/>
<text text-anchor="middle" x="1380" y="-349.5" font-family="Vera" font-size="10.00">topo.command.analysis.update_projection</text>
</g>
<!-- topo.plotting.plotgroup.UnitMeasurementCommand&#45;&gt;topo.command.analysis.update_projection -->
<g id="edge32" class="edge"><title>topo.plotting.plotgroup.UnitMeasurementCommand&#45;&gt;topo.command.analysis.update_projection</title>
<path fill="none" stroke="black" stroke-width="0.5" d="M1109.17,-324.034C1161.15,-329.402 1225.14,-336.009 1277.86,-341.453"/>
<polygon fill="black" stroke="black" points="1277.77,-343.203 1282.93,-341.976 1278.13,-339.722 1277.77,-343.203"/>
</g>
<!-- topo.command.analysis.update_connectionfields -->
<g id="node43" class="node"><title>topo.command.analysis.update_connectionfields</title>
<polygon fill="none" stroke="black" stroke-width="0.5" points="1505,-324.5 1255,-324.5 1255,-303.5 1505,-303.5 1505,-324.5"/>
<text text-anchor="middle" x="1380" y="-311.5" font-family="Vera" font-size="10.00">topo.command.analysis.update_connectionfields</text>
</g>
<!-- topo.plotting.plotgroup.UnitMeasurementCommand&#45;&gt;topo.command.analysis.update_connectionfields -->
<g id="edge40" class="edge"><title>topo.plotting.plotgroup.UnitMeasurementCommand&#45;&gt;topo.command.analysis.update_connectionfields</title>
<path fill="none" stroke="black" stroke-width="0.5" d="M1145.12,-314C1178.91,-314 1215.19,-314 1248.88,-314"/>
<polygon fill="black" stroke="black" points="1249.27,-315.75 1254.27,-314 1249.27,-312.25 1249.27,-315.75"/>
</g>
<!-- topo.analysis.featureresponses.PatternPresentingCommand&#45;&gt;topo.analysis.featureresponses.MeasureResponseCommand -->
<g id="edge36" class="edge"><title>topo.analysis.featureresponses.PatternPresentingCommand&#45;&gt;topo.analysis.featureresponses.MeasureResponseCommand</title>
<path fill="none" stroke="black" stroke-width="0.5" d="M792.791,-265.914C802.82,-263.495 812.663,-260.558 822,-257 895.817,-228.869 968.084,-165.741 997.821,-137.78"/>
<polygon fill="black" stroke="black" points="999.139,-138.942 1001.57,-134.233 996.732,-136.401 999.139,-138.942"/>
</g>
</g>
</svg>
