<?xml version="1.0" encoding="UTF-8" standalone="no"?>
<!DOCTYPE svg PUBLIC "-//W3C//DTD SVG 1.1//EN"
 "http://www.w3.org/Graphics/SVG/1.1/DTD/svg11.dtd">
<!-- Generated by graphviz version 2.26.3 (20100126.1600)
 -->
<!-- Title: inheritance0c0d2b112e Pages: 1 -->
<svg width="772pt" height="417pt"
 viewBox="0.00 0.00 772.00 417.00" xmlns="http://www.w3.org/2000/svg" xmlns:xlink="http://www.w3.org/1999/xlink">
<g id="graph1" class="graph" transform="scale(1 1) rotate(0) translate(4 413)">
<title>inheritance0c0d2b112e</title>
<polygon fill="white" stroke="white" points="-4,5 -4,-413 769,-413 769,5 -4,5"/>
<!-- param.HookList -->
<g id="node1" class="node"><title>param.HookList</title>
<polygon fill="none" stroke="black" stroke-width="0.5" points="609,-324.5 517,-324.5 517,-303.5 609,-303.5 609,-324.5"/>
<text text-anchor="middle" x="563" y="-311.5" font-family="Vera" font-size="10.00">param.HookList</text>
</g>
<!-- param.List -->
<g id="node2" class="node"><title>param.List</title>
<polygon fill="none" stroke="black" stroke-width="0.5" points="381,-324.5 313,-324.5 313,-303.5 381,-303.5 381,-324.5"/>
<text text-anchor="middle" x="347" y="-311.5" font-family="Vera" font-size="10.00">param.List</text>
</g>
<!-- param.List&#45;&gt;param.HookList -->
<g id="edge2" class="edge"><title>param.List&#45;&gt;param.HookList</title>
<path fill="none" stroke="black" stroke-width="0.5" d="M381.226,-314C416.29,-314 471.229,-314 511.536,-314"/>
<polygon fill="black" stroke="black" points="511.874,-315.75 516.874,-314 511.874,-312.25 511.874,-315.75"/>
</g>
<!-- param.Dynamic -->
<g id="node4" class="node"><title>param.Dynamic</title>
<polygon fill="none" stroke="black" stroke-width="0.5" points="393,-286.5 301,-286.5 301,-265.5 393,-265.5 393,-286.5"/>
<text text-anchor="middle" x="347" y="-273.5" font-family="Vera" font-size="10.00">param.Dynamic</text>
</g>
<!-- param.Number -->
<g id="node14" class="node"><title>param.Number</title>
<polygon fill="none" stroke="black" stroke-width="0.5" points="608,-286.5 518,-286.5 518,-265.5 608,-265.5 608,-286.5"/>
<text text-anchor="middle" x="563" y="-273.5" font-family="Vera" font-size="10.00">param.Number</text>
</g>
<!-- param.Dynamic&#45;&gt;param.Number -->
<g id="edge14" class="edge"><title>param.Dynamic&#45;&gt;param.Number</title>
<path fill="none" stroke="black" stroke-width="0.5" d="M393.603,-276C428.71,-276 476.779,-276 512.745,-276"/>
<polygon fill="black" stroke="black" points="512.96,-277.75 517.96,-276 512.96,-274.25 512.96,-277.75"/>
</g>
<!-- param.parameterized.Parameter -->
<g id="node5" class="node"><title>param.parameterized.Parameter</title>
<polygon fill="none" stroke="black" stroke-width="0.5" points="184,-191.5 10,-191.5 10,-170.5 184,-170.5 184,-191.5"/>
<text text-anchor="middle" x="97" y="-178.5" font-family="Vera" font-size="10.00">param.parameterized.Parameter</text>
</g>
<!-- param.parameterized.Parameter&#45;&gt;param.List -->
<g id="edge10" class="edge"><title>param.parameterized.Parameter&#45;&gt;param.List</title>
<path fill="none" stroke="black" stroke-width="0.5" d="M105.389,-191.301C124.689,-214.211 174.836,-269.379 230,-295 254.292,-306.283 284.127,-311.004 307.588,-312.919"/>
<polygon fill="black" stroke="black" points="307.681,-314.681 312.797,-313.307 307.941,-311.191 307.681,-314.681"/>
</g>
<!-- param.parameterized.Parameter&#45;&gt;param.Dynamic -->
<g id="edge4" class="edge"><title>param.parameterized.Parameter&#45;&gt;param.Dynamic</title>
<path fill="none" stroke="black" stroke-width="0.5" d="M110.934,-191.239C134.288,-207.857 183.367,-240.501 230,-257 250.746,-264.34 274.576,-268.863 295.292,-271.642"/>
<polygon fill="black" stroke="black" points="295.306,-273.408 300.489,-272.312 295.753,-269.937 295.306,-273.408"/>
</g>
<!-- param.Boolean -->
<g id="node7" class="node"><title>param.Boolean</title>
<polygon fill="none" stroke="black" stroke-width="0.5" points="392,-248.5 302,-248.5 302,-227.5 392,-227.5 392,-248.5"/>
<text text-anchor="middle" x="347" y="-235.5" font-family="Vera" font-size="10.00">param.Boolean</text>
</g>
<!-- param.parameterized.Parameter&#45;&gt;param.Boolean -->
<g id="edge6" class="edge"><title>param.parameterized.Parameter&#45;&gt;param.Boolean</title>
<path fill="none" stroke="black" stroke-width="0.5" d="M128.175,-191.03C154.96,-199.376 194.727,-211.125 230,-219 251.663,-223.836 275.841,-227.97 296.569,-231.135"/>
<polygon fill="black" stroke="black" points="296.555,-232.902 301.761,-231.918 297.078,-229.442 296.555,-232.902"/>
</g>
<!-- param.Callable -->
<g id="node18" class="node"><title>param.Callable</title>
<polygon fill="none" stroke="black" stroke-width="0.5" points="391,-210.5 303,-210.5 303,-189.5 391,-189.5 391,-210.5"/>
<text text-anchor="middle" x="347" y="-197.5" font-family="Vera" font-size="10.00">param.Callable</text>
</g>
<!-- param.parameterized.Parameter&#45;&gt;param.Callable -->
<g id="edge16" class="edge"><title>param.parameterized.Parameter&#45;&gt;param.Callable</title>
<path fill="none" stroke="black" stroke-width="0.5" d="M184.789,-187.672C222.45,-190.534 265.069,-193.773 297.168,-196.213"/>
<polygon fill="black" stroke="black" points="297.109,-197.963 302.227,-196.597 297.374,-194.473 297.109,-197.963"/>
</g>
<!-- param.Composite -->
<g id="node22" class="node"><title>param.Composite</title>
<polygon fill="none" stroke="black" stroke-width="0.5" points="398,-172.5 296,-172.5 296,-151.5 398,-151.5 398,-172.5"/>
<text text-anchor="middle" x="347" y="-159.5" font-family="Vera" font-size="10.00">param.Composite</text>
</g>
<!-- param.parameterized.Parameter&#45;&gt;param.Composite -->
<g id="edge20" class="edge"><title>param.parameterized.Parameter&#45;&gt;param.Composite</title>
<path fill="none" stroke="black" stroke-width="0.5" d="M184.789,-174.328C219.768,-171.67 259.024,-168.686 290.156,-166.32"/>
<polygon fill="black" stroke="black" points="290.622,-168.04 295.475,-165.916 290.357,-164.55 290.622,-168.04"/>
</g>
<!-- param.Path -->
<g id="node25" class="node"><title>param.Path</title>
<polygon fill="none" stroke="black" stroke-width="0.5" points="383,-134.5 311,-134.5 311,-113.5 383,-113.5 383,-134.5"/>
<text text-anchor="middle" x="347" y="-121.5" font-family="Vera" font-size="10.00">param.Path</text>
</g>
<!-- param.parameterized.Parameter&#45;&gt;param.Path -->
<g id="edge42" class="edge"><title>param.parameterized.Parameter&#45;&gt;param.Path</title>
<path fill="none" stroke="black" stroke-width="0.5" d="M128.175,-170.97C154.96,-162.624 194.727,-150.875 230,-143 255.021,-137.414 283.396,-132.766 305.937,-129.465"/>
<polygon fill="black" stroke="black" points="306.249,-131.188 310.947,-128.739 305.748,-127.724 306.249,-131.188"/>
</g>
<!-- param.Selector -->
<g id="node29" class="node"><title>param.Selector</title>
<polygon fill="none" stroke="black" stroke-width="0.5" points="392,-96.5 302,-96.5 302,-75.5 392,-75.5 392,-96.5"/>
<text text-anchor="middle" x="347" y="-83.5" font-family="Vera" font-size="10.00">param.Selector</text>
</g>
<!-- param.parameterized.Parameter&#45;&gt;param.Selector -->
<g id="edge26" class="edge"><title>param.parameterized.Parameter&#45;&gt;param.Selector</title>
<path fill="none" stroke="black" stroke-width="0.5" d="M110.934,-170.761C134.288,-154.143 183.367,-121.499 230,-105 251.103,-97.5334 275.397,-92.9816 296.36,-90.2157"/>
<polygon fill="black" stroke="black" points="296.594,-91.9501 301.334,-89.5843 296.154,-88.478 296.594,-91.9501"/>
</g>
<!-- param.NumericTuple -->
<g id="node34" class="node"><title>param.NumericTuple</title>
<polygon fill="none" stroke="black" stroke-width="0.5" points="405,-39.5 289,-39.5 289,-18.5 405,-18.5 405,-39.5"/>
<text text-anchor="middle" x="347" y="-26.5" font-family="Vera" font-size="10.00">param.NumericTuple</text>
</g>
<!-- param.parameterized.Parameter&#45;&gt;param.NumericTuple -->
<g id="edge44" class="edge"><title>param.parameterized.Parameter&#45;&gt;param.NumericTuple</title>
<path fill="none" stroke="black" stroke-width="0.5" d="M105.995,-170.966C126.13,-149.074 177.222,-96.6145 230,-67 250.952,-55.2436 276.082,-46.4818 297.673,-40.3528"/>
<polygon fill="black" stroke="black" points="298.16,-42.0339 302.508,-39.0072 297.221,-38.662 298.16,-42.0339"/>
</g>
<!-- param.Dict -->
<g id="node9" class="node"><title>param.Dict</title>
<polygon fill="none" stroke="black" stroke-width="0.5" points="748,-115.5 678,-115.5 678,-94.5 748,-94.5 748,-115.5"/>
<text text-anchor="middle" x="713" y="-102.5" font-family="Vera" font-size="10.00">param.Dict</text>
</g>
<!-- param.ClassSelector -->
<g id="node10" class="node"><title>param.ClassSelector</title>
<polygon fill="none" stroke="black" stroke-width="0.5" points="621,-96.5 505,-96.5 505,-75.5 621,-75.5 621,-96.5"/>
<text text-anchor="middle" x="563" y="-83.5" font-family="Vera" font-size="10.00">param.ClassSelector</text>
</g>
<!-- param.ClassSelector&#45;&gt;param.Dict -->
<g id="edge8" class="edge"><title>param.ClassSelector&#45;&gt;param.Dict</title>
<path fill="none" stroke="black" stroke-width="0.5" d="M621.423,-93.4003C638.57,-95.5722 656.933,-97.8981 672.68,-99.8928"/>
<polygon fill="black" stroke="black" points="672.734,-101.664 677.915,-100.556 673.174,-98.1913 672.734,-101.664"/>
</g>
<!-- param.Array -->
<g id="node36" class="node"><title>param.Array</title>
<polygon fill="none" stroke="black" stroke-width="0.5" points="751,-77.5 675,-77.5 675,-56.5 751,-56.5 751,-77.5"/>
<text text-anchor="middle" x="713" y="-64.5" font-family="Vera" font-size="10.00">param.Array</text>
</g>
<!-- param.ClassSelector&#45;&gt;param.Array -->
<g id="edge32" class="edge"><title>param.ClassSelector&#45;&gt;param.Array</title>
<path fill="none" stroke="black" stroke-width="0.5" d="M621.423,-78.5997C637.387,-76.5776 654.406,-74.422 669.386,-72.5245"/>
<polygon fill="black" stroke="black" points="669.643,-74.256 674.383,-71.8914 669.203,-70.7837 669.643,-74.256"/>
</g>
<!-- param.Magnitude -->
<g id="node13" class="node"><title>param.Magnitude</title>
<polygon fill="none" stroke="black" stroke-width="0.5" points="763,-305.5 663,-305.5 663,-284.5 763,-284.5 763,-305.5"/>
<text text-anchor="middle" x="713" y="-292.5" font-family="Vera" font-size="10.00">param.Magnitude</text>
</g>
<!-- param.Number&#45;&gt;param.Magnitude -->
<g id="edge12" class="edge"><title>param.Number&#45;&gt;param.Magnitude</title>
<path fill="none" stroke="black" stroke-width="0.5" d="M608.005,-281.701C623.49,-283.662 641.017,-285.882 657.253,-287.939"/>
<polygon fill="black" stroke="black" points="657.066,-289.679 662.246,-288.571 657.506,-286.207 657.066,-289.679"/>
</g>
<!-- param.Integer -->
<g id="node38" class="node"><title>param.Integer</title>
<polygon fill="none" stroke="black" stroke-width="0.5" points="755,-267.5 671,-267.5 671,-246.5 755,-246.5 755,-267.5"/>
<text text-anchor="middle" x="713" y="-254.5" font-family="Vera" font-size="10.00">param.Integer</text>
</g>
<!-- param.Number&#45;&gt;param.Integer -->
<g id="edge34" class="edge"><title>param.Number&#45;&gt;param.Integer</title>
<path fill="none" stroke="black" stroke-width="0.5" d="M608.005,-270.299C626.068,-268.011 646.911,-265.371 665.241,-263.049"/>
<polygon fill="black" stroke="black" points="665.6,-264.768 670.341,-262.404 665.16,-261.296 665.6,-264.768"/>
</g>
<!-- param.parameterized.Parameterized -->
<g id="node16" class="node"><title>param.parameterized.Parameterized</title>
<polygon fill="none" stroke="black" stroke-width="0.5" points="194,-381.5 5.68434e-14,-381.5 0,-360.5 194,-360.5 194,-381.5"/>
<text text-anchor="middle" x="97" y="-368.5" font-family="Vera" font-size="10.00">param.parameterized.Parameterized</text>
</g>
<!-- param.parameterized.ParameterizedFunction -->
<g id="node20" class="node"><title>param.parameterized.ParameterizedFunction</title>
<polygon fill="none" stroke="black" stroke-width="0.5" points="464,-381.5 230,-381.5 230,-360.5 464,-360.5 464,-381.5"/>
<text text-anchor="middle" x="347" y="-368.5" font-family="Vera" font-size="10.00">param.parameterized.ParameterizedFunction</text>
</g>
<!-- param.parameterized.Parameterized&#45;&gt;param.parameterized.ParameterizedFunction -->
<g id="edge18" class="edge"><title>param.parameterized.Parameterized&#45;&gt;param.parameterized.ParameterizedFunction</title>
<path fill="none" stroke="black" stroke-width="0.5" d="M194.014,-371C204.04,-371 214.319,-371 224.575,-371"/>
<polygon fill="black" stroke="black" points="224.607,-372.75 229.607,-371 224.607,-369.25 224.607,-372.75"/>
</g>
<!-- param.resolve_path -->
<g id="node27" class="node"><title>param.resolve_path</title>
<polygon fill="none" stroke="black" stroke-width="0.5" points="619,-409.5 507,-409.5 507,-388.5 619,-388.5 619,-409.5"/>
<text text-anchor="middle" x="563" y="-396.5" font-family="Vera" font-size="10.00">param.resolve_path</text>
</g>
<!-- param.parameterized.ParameterizedFunction&#45;&gt;param.resolve_path -->
<g id="edge24" class="edge"><title>param.parameterized.ParameterizedFunction&#45;&gt;param.resolve_path</title>
<path fill="none" stroke="black" stroke-width="0.5" d="M424.371,-381.03C449.686,-384.311 477.449,-387.91 501.436,-391.02"/>
<polygon fill="black" stroke="black" points="501.312,-392.768 506.495,-391.675 501.762,-389.297 501.312,-392.768"/>
</g>
<!-- param.normalize_path -->
<g id="node43" class="node"><title>param.normalize_path</title>
<polygon fill="none" stroke="black" stroke-width="0.5" points="625,-371.5 501,-371.5 501,-350.5 625,-350.5 625,-371.5"/>
<text text-anchor="middle" x="563" y="-358.5" font-family="Vera" font-size="10.00">param.normalize_path</text>
</g>
<!-- param.parameterized.ParameterizedFunction&#45;&gt;param.normalize_path -->
<g id="edge40" class="edge"><title>param.parameterized.ParameterizedFunction&#45;&gt;param.normalize_path</title>
<path fill="none" stroke="black" stroke-width="0.5" d="M464.166,-365.576C474.807,-365.083 485.329,-364.596 495.314,-364.134"/>
<polygon fill="black" stroke="black" points="495.571,-365.874 500.484,-363.894 495.409,-362.377 495.571,-365.874"/>
</g>
<!-- param.Foldername -->
<g id="node24" class="node"><title>param.Foldername</title>
<polygon fill="none" stroke="black" stroke-width="0.5" points="617,-172.5 509,-172.5 509,-151.5 617,-151.5 617,-172.5"/>
<text text-anchor="middle" x="563" y="-159.5" font-family="Vera" font-size="10.00">param.Foldername</text>
</g>
<!-- param.Path&#45;&gt;param.Foldername -->
<g id="edge22" class="edge"><title>param.Path&#45;&gt;param.Foldername</title>
<path fill="none" stroke="black" stroke-width="0.5" d="M383.149,-129.597C406.293,-133.248 436.949,-138.209 464,-143 477.967,-145.474 493.013,-148.286 507.055,-150.973"/>
<polygon fill="black" stroke="black" points="506.938,-152.733 512.179,-151.957 507.598,-149.296 506.938,-152.733"/>
</g>
<!-- param.Filename -->
<g id="node40" class="node"><title>param.Filename</title>
<polygon fill="none" stroke="black" stroke-width="0.5" points="610,-134.5 516,-134.5 516,-113.5 610,-113.5 610,-134.5"/>
<text text-anchor="middle" x="563" y="-121.5" font-family="Vera" font-size="10.00">param.Filename</text>
</g>
<!-- param.Path&#45;&gt;param.Filename -->
<g id="edge36" class="edge"><title>param.Path&#45;&gt;param.Filename</title>
<path fill="none" stroke="black" stroke-width="0.5" d="M383.154,-124C417.979,-124 471.047,-124 510.521,-124"/>
<polygon fill="black" stroke="black" points="510.753,-125.75 515.753,-124 510.753,-122.25 510.753,-125.75"/>
</g>
<!-- param.Selector&#45;&gt;param.ClassSelector -->
<g id="edge38" class="edge"><title>param.Selector&#45;&gt;param.ClassSelector</title>
<path fill="none" stroke="black" stroke-width="0.5" d="M392.544,-86C423.689,-86 465.391,-86 499.751,-86"/>
<polygon fill="black" stroke="black" points="499.765,-87.7501 504.765,-86 499.765,-84.2501 499.765,-87.7501"/>
</g>
<!-- param.ObjectSelector -->
<g id="node31" class="node"><title>param.ObjectSelector</title>
<polygon fill="none" stroke="black" stroke-width="0.5" points="624,-58.5 502,-58.5 502,-37.5 624,-37.5 624,-58.5"/>
<text text-anchor="middle" x="563" y="-45.5" font-family="Vera" font-size="10.00">param.ObjectSelector</text>
</g>
<!-- param.Selector&#45;&gt;param.ObjectSelector -->
<g id="edge28" class="edge"><title>param.Selector&#45;&gt;param.ObjectSelector</title>
<path fill="none" stroke="black" stroke-width="0.5" d="M392.544,-77.9876C424.042,-72.4462 466.34,-65.005 500.92,-58.9216"/>
<polygon fill="black" stroke="black" points="501.342,-60.6242 505.963,-58.0342 500.736,-57.1771 501.342,-60.6242"/>
</g>
<!-- param.XYCoordinates -->
<g id="node33" class="node"><title>param.XYCoordinates</title>
<polygon fill="none" stroke="black" stroke-width="0.5" points="622,-20.5 504,-20.5 504,0.5 622,0.5 622,-20.5"/>
<text text-anchor="middle" x="563" y="-7.5" font-family="Vera" font-size="10.00">param.XYCoordinates</text>
</g>
<!-- param.NumericTuple&#45;&gt;param.XYCoordinates -->
<g id="edge30" class="edge"><title>param.NumericTuple&#45;&gt;param.XYCoordinates</title>
<path fill="none" stroke="black" stroke-width="0.5" d="M405.168,-23.8834C433.871,-21.3585 468.589,-18.3047 498.146,-15.7047"/>
<polygon fill="black" stroke="black" points="498.395,-17.4397 503.222,-15.2582 498.088,-13.9532 498.395,-17.4397"/>
</g>
</g>
</svg>
