<?xml version="1.0" encoding="UTF-8" standalone="no"?>
<!DOCTYPE svg PUBLIC "-//W3C//DTD SVG 1.1//EN"
 "http://www.w3.org/Graphics/SVG/1.1/DTD/svg11.dtd">
<!-- Generated by graphviz version 2.26.3 (20100126.1600)
 -->
<!-- Title: inheritance1a184a655e Pages: 1 -->
<svg width="1070pt" height="237pt"
 viewBox="0.00 0.00 1070.00 237.00" xmlns="http://www.w3.org/2000/svg" xmlns:xlink="http://www.w3.org/1999/xlink">
<g id="graph1" class="graph" transform="scale(1 1) rotate(0) translate(4 233)">
<title>inheritance1a184a655e</title>
<polygon fill="white" stroke="white" points="-4,5 -4,-233 1067,-233 1067,5 -4,5"/>
<!-- param.parameterized.Parameterized -->
<g id="node1" class="node"><title>param.parameterized.Parameterized</title>
<polygon fill="none" stroke="black" stroke-width="0.5" points="262,-77.5 68,-77.5 68,-56.5 262,-56.5 262,-77.5"/>
<text text-anchor="middle" x="165" y="-64.5" font-family="Vera" font-size="10.00">param.parameterized.Parameterized</text>
</g>
<!-- topo.tests.unit.testparameterizedobject.TestPO -->
<g id="node2" class="node"><title>topo.tests.unit.testparameterizedobject.TestPO</title>
<polygon fill="none" stroke="black" stroke-width="0.5" points="657,-134.5 415,-134.5 415,-113.5 657,-113.5 657,-134.5"/>
<text text-anchor="middle" x="536" y="-121.5" font-family="Vera" font-size="10.00">topo.tests.unit.testparameterizedobject.TestPO</text>
</g>
<!-- param.parameterized.Parameterized&#45;&gt;topo.tests.unit.testparameterizedobject.TestPO -->
<g id="edge2" class="edge"><title>param.parameterized.Parameterized&#45;&gt;topo.tests.unit.testparameterizedobject.TestPO</title>
<path fill="none" stroke="black" stroke-width="0.5" d="M212.749,-77.0803C253.366,-85.4016 313.32,-97.088 366,-105 386.527,-108.083 408.518,-110.899 429.644,-113.364"/>
<polygon fill="black" stroke="black" points="429.538,-115.113 434.707,-113.95 429.941,-111.636 429.538,-115.113"/>
</g>
<!-- topo.tests.unit.testparameterizedobject.AnotherTestPO -->
<g id="node4" class="node"><title>topo.tests.unit.testparameterizedobject.AnotherTestPO</title>
<polygon fill="none" stroke="black" stroke-width="0.5" points="676,-96.5 396,-96.5 396,-75.5 676,-75.5 676,-96.5"/>
<text text-anchor="middle" x="536" y="-83.5" font-family="Vera" font-size="10.00">topo.tests.unit.testparameterizedobject.AnotherTestPO</text>
</g>
<!-- param.parameterized.Parameterized&#45;&gt;topo.tests.unit.testparameterizedobject.AnotherTestPO -->
<g id="edge4" class="edge"><title>param.parameterized.Parameterized&#45;&gt;topo.tests.unit.testparameterizedobject.AnotherTestPO</title>
<path fill="none" stroke="black" stroke-width="0.5" d="M262.476,-71.992C301.467,-73.9889 347.213,-76.3317 390.016,-78.5237"/>
<polygon fill="black" stroke="black" points="390.137,-80.2821 395.22,-78.7902 390.316,-76.7867 390.137,-80.2821"/>
</g>
<!-- param.parameterized.ParameterizedFunction -->
<g id="node9" class="node"><title>param.parameterized.ParameterizedFunction</title>
<polygon fill="none" stroke="black" stroke-width="0.5" points="653,-58.5 419,-58.5 419,-37.5 653,-37.5 653,-58.5"/>
<text text-anchor="middle" x="536" y="-45.5" font-family="Vera" font-size="10.00">param.parameterized.ParameterizedFunction</text>
</g>
<!-- param.parameterized.Parameterized&#45;&gt;param.parameterized.ParameterizedFunction -->
<g id="edge8" class="edge"><title>param.parameterized.Parameterized&#45;&gt;param.parameterized.ParameterizedFunction</title>
<path fill="none" stroke="black" stroke-width="0.5" d="M262.476,-62.008C308.762,-59.6375 364.567,-56.7796 413.666,-54.2651"/>
<polygon fill="black" stroke="black" points="413.797,-56.0108 418.701,-54.0072 413.618,-52.5153 413.797,-56.0108"/>
</g>
<!-- topo.tests.unit.testparameterizedobject.TestAbstractPO -->
<g id="node14" class="node"><title>topo.tests.unit.testparameterizedobject.TestAbstractPO</title>
<polygon fill="none" stroke="black" stroke-width="0.5" points="678,-20.5 394,-20.5 394,0.5 678,0.5 678,-20.5"/>
<text text-anchor="middle" x="536" y="-7.5" font-family="Vera" font-size="10.00">topo.tests.unit.testparameterizedobject.TestAbstractPO</text>
</g>
<!-- param.parameterized.Parameterized&#45;&gt;topo.tests.unit.testparameterizedobject.TestAbstractPO -->
<g id="edge12" class="edge"><title>param.parameterized.Parameterized&#45;&gt;topo.tests.unit.testparameterizedobject.TestAbstractPO</title>
<path fill="none" stroke="black" stroke-width="0.5" d="M212.749,-56.9197C253.366,-48.5984 313.32,-36.912 366,-29 386.527,-25.917 408.518,-23.1011 429.644,-20.6363"/>
<polygon fill="black" stroke="black" points="429.941,-22.3637 434.707,-20.0503 429.538,-18.8869 429.941,-22.3637"/>
</g>
<!-- topo.tests.unit.testparameterizedobject.TestParamInstantiation -->
<g id="node7" class="node"><title>topo.tests.unit.testparameterizedobject.TestParamInstantiation</title>
<polygon fill="none" stroke="black" stroke-width="0.5" points="1062,-96.5 742,-96.5 742,-75.5 1062,-75.5 1062,-96.5"/>
<text text-anchor="middle" x="902" y="-83.5" font-family="Vera" font-size="10.00">topo.tests.unit.testparameterizedobject.TestParamInstantiation</text>
</g>
<!-- topo.tests.unit.testparameterizedobject.AnotherTestPO&#45;&gt;topo.tests.unit.testparameterizedobject.TestParamInstantiation -->
<g id="edge6" class="edge"><title>topo.tests.unit.testparameterizedobject.AnotherTestPO&#45;&gt;topo.tests.unit.testparameterizedobject.TestParamInstantiation</title>
<path fill="none" stroke="black" stroke-width="0.5" d="M676.72,-86C696.409,-86 716.788,-86 736.877,-86"/>
<polygon fill="black" stroke="black" points="736.978,-87.7501 741.978,-86 736.978,-84.2501 736.978,-87.7501"/>
</g>
<!-- unittest.case.TestCase -->
<g id="node6" class="node"><title>unittest.case.TestCase</title>
<polygon fill="none" stroke="black" stroke-width="0.5" points="227,-191.5 103,-191.5 103,-170.5 227,-170.5 227,-191.5"/>
<text text-anchor="middle" x="165" y="-178.5" font-family="Vera" font-size="10.00">unittest.case.TestCase</text>
</g>
<!-- topo.tests.unit.testparameterizedobject.TestParameterized -->
<g id="node12" class="node"><title>topo.tests.unit.testparameterizedobject.TestParameterized</title>
<polygon fill="none" stroke="black" stroke-width="0.5" points="685,-210.5 387,-210.5 387,-189.5 685,-189.5 685,-210.5"/>
<text text-anchor="middle" x="536" y="-197.5" font-family="Vera" font-size="10.00">topo.tests.unit.testparameterizedobject.TestParameterized</text>
</g>
<!-- unittest.case.TestCase&#45;&gt;topo.tests.unit.testparameterizedobject.TestParameterized -->
<g id="edge10" class="edge"><title>unittest.case.TestCase&#45;&gt;topo.tests.unit.testparameterizedobject.TestParameterized</title>
<path fill="none" stroke="black" stroke-width="0.5" d="M227.516,-184.202C269.627,-186.358 327.129,-189.303 381.082,-192.066"/>
<polygon fill="black" stroke="black" points="381.208,-193.825 386.291,-192.333 381.387,-190.329 381.208,-193.825"/>
</g>
<!-- topo.tests.unit.testparameterizedobject.TestParameterizedFunction -->
<g id="node18" class="node"><title>topo.tests.unit.testparameterizedobject.TestParameterizedFunction</title>
<polygon fill="none" stroke="black" stroke-width="0.5" points="705,-172.5 367,-172.5 367,-151.5 705,-151.5 705,-172.5"/>
<text text-anchor="middle" x="536" y="-159.5" font-family="Vera" font-size="10.00">topo.tests.unit.testparameterizedobject.TestParameterizedFunction</text>
</g>
<!-- unittest.case.TestCase&#45;&gt;topo.tests.unit.testparameterizedobject.TestParameterizedFunction -->
<g id="edge16" class="edge"><title>unittest.case.TestCase&#45;&gt;topo.tests.unit.testparameterizedobject.TestParameterizedFunction</title>
<path fill="none" stroke="black" stroke-width="0.5" d="M227.516,-177.798C264.476,-175.906 313.292,-173.406 361.159,-170.954"/>
<polygon fill="black" stroke="black" points="361.483,-172.69 366.387,-170.686 361.304,-169.195 361.483,-172.69"/>
</g>
<!-- topo.tests.unit.testparameterizedobject.some_fn -->
<g id="node16" class="node"><title>topo.tests.unit.testparameterizedobject.some_fn</title>
<polygon fill="none" stroke="black" stroke-width="0.5" points="1028,-58.5 776,-58.5 776,-37.5 1028,-37.5 1028,-58.5"/>
<text text-anchor="middle" x="902" y="-45.5" font-family="Vera" font-size="10.00">topo.tests.unit.testparameterizedobject.some_fn</text>
</g>
<!-- param.parameterized.ParameterizedFunction&#45;&gt;topo.tests.unit.testparameterizedobject.some_fn -->
<g id="edge14" class="edge"><title>param.parameterized.ParameterizedFunction&#45;&gt;topo.tests.unit.testparameterizedobject.some_fn</title>
<path fill="none" stroke="black" stroke-width="0.5" d="M653.063,-48C690.493,-48 732.171,-48 770.554,-48"/>
<polygon fill="black" stroke="black" points="770.704,-49.7501 775.704,-48 770.704,-46.2501 770.704,-49.7501"/>
</g>
<!-- topo.tests.unit.testparameterizedobject._SomeRandomNumbers -->
<g id="node11" class="node"><title>topo.tests.unit.testparameterizedobject._SomeRandomNumbers</title>
<polygon fill="none" stroke="black" stroke-width="0.5" points="329,-229.5 1,-229.5 1,-208.5 329,-208.5 329,-229.5"/>
<text text-anchor="middle" x="165" y="-216.5" font-family="Vera" font-size="10.00">topo.tests.unit.testparameterizedobject._SomeRandomNumbers</text>
</g>
</g>
</svg>
