<?xml version="1.0" encoding="UTF-8" standalone="no"?>
<!DOCTYPE svg PUBLIC "-//W3C//DTD SVG 1.1//EN"
 "http://www.w3.org/Graphics/SVG/1.1/DTD/svg11.dtd">
<!-- Generated by graphviz version 2.26.3 (20100126.1600)
 -->
<!-- Title: inheritance49aa83dbeb Pages: 1 -->
<svg width="726pt" height="142pt"
 viewBox="0.00 0.00 726.00 142.00" xmlns="http://www.w3.org/2000/svg" xmlns:xlink="http://www.w3.org/1999/xlink">
<g id="graph1" class="graph" transform="scale(1 1) rotate(0) translate(4 138)">
<title>inheritance49aa83dbeb</title>
<polygon fill="white" stroke="white" points="-4,5 -4,-138 723,-138 723,5 -4,5"/>
<!-- topo.plotting.plot.MultiOrPlot -->
<g id="node1" class="node"><title>topo.plotting.plot.MultiOrPlot</title>
<polygon fill="none" stroke="black" stroke-width="0.5" points="717,-134 567,-134 567,-114 717,-114 717,-134"/>
<text text-anchor="middle" x="642" y="-121" font-family="Vera" font-size="10.00">topo.plotting.plot.MultiOrPlot</text>
</g>
<!-- topo.plotting.plot.TemplatePlot -->
<g id="node2" class="node"><title>topo.plotting.plot.TemplatePlot</title>
<polygon fill="none" stroke="black" stroke-width="0.5" points="530,-77 372,-77 372,-57 530,-57 530,-77"/>
<text text-anchor="middle" x="451" y="-64" font-family="Vera" font-size="10.00">topo.plotting.plot.TemplatePlot</text>
</g>
<!-- topo.plotting.plot.TemplatePlot&#45;&gt;topo.plotting.plot.MultiOrPlot -->
<g id="edge2" class="edge"><title>topo.plotting.plot.TemplatePlot&#45;&gt;topo.plotting.plot.MultiOrPlot</title>
<path fill="none" stroke="black" stroke-width="0.5" d="M479.645,-77.1216C502.8,-85.1442 536.312,-96.3968 566,-105 575.122,-107.643 584.922,-110.258 594.351,-112.664"/>
<polygon fill="black" stroke="black" points="593.967,-114.371 599.243,-113.901 594.825,-110.978 593.967,-114.371"/>
</g>
<!-- topo.plotting.plot.PalettePlot -->
<g id="node4" class="node"><title>topo.plotting.plot.PalettePlot</title>
<polygon fill="none" stroke="black" stroke-width="0.5" points="715,-96 569,-96 569,-76 715,-76 715,-96"/>
<text text-anchor="middle" x="642" y="-83" font-family="Vera" font-size="10.00">topo.plotting.plot.PalettePlot</text>
</g>
<!-- topo.plotting.plot.TemplatePlot&#45;&gt;topo.plotting.plot.PalettePlot -->
<g id="edge4" class="edge"><title>topo.plotting.plot.TemplatePlot&#45;&gt;topo.plotting.plot.PalettePlot</title>
<path fill="none" stroke="black" stroke-width="0.5" d="M530.066,-74.8652C541.012,-75.9541 552.256,-77.0726 563.198,-78.1611"/>
<polygon fill="black" stroke="black" points="563.053,-79.9052 568.202,-78.6588 563.4,-76.4224 563.053,-79.9052"/>
</g>
<!-- topo.plotting.plot.RGBPlot -->
<g id="node6" class="node"><title>topo.plotting.plot.RGBPlot</title>
<polygon fill="none" stroke="black" stroke-width="0.5" points="709,-58 575,-58 575,-38 709,-38 709,-58"/>
<text text-anchor="middle" x="642" y="-45" font-family="Vera" font-size="10.00">topo.plotting.plot.RGBPlot</text>
</g>
<!-- topo.plotting.plot.TemplatePlot&#45;&gt;topo.plotting.plot.RGBPlot -->
<g id="edge6" class="edge"><title>topo.plotting.plot.TemplatePlot&#45;&gt;topo.plotting.plot.RGBPlot</title>
<path fill="none" stroke="black" stroke-width="0.5" d="M530.066,-59.1348C543.022,-57.846 556.394,-56.5158 569.189,-55.243"/>
<polygon fill="black" stroke="black" points="569.449,-56.9758 574.252,-54.7394 569.103,-53.493 569.449,-56.9758"/>
</g>
<!-- topo.plotting.plot.SHCPlot -->
<g id="node11" class="node"><title>topo.plotting.plot.SHCPlot</title>
<polygon fill="none" stroke="black" stroke-width="0.5" points="709,-20 575,-20 575,-1.06581e-14 709,-3.55271e-15 709,-20"/>
<text text-anchor="middle" x="642" y="-7" font-family="Vera" font-size="10.00">topo.plotting.plot.SHCPlot</text>
</g>
<!-- topo.plotting.plot.TemplatePlot&#45;&gt;topo.plotting.plot.SHCPlot -->
<g id="edge10" class="edge"><title>topo.plotting.plot.TemplatePlot&#45;&gt;topo.plotting.plot.SHCPlot</title>
<path fill="none" stroke="black" stroke-width="0.5" d="M479.645,-56.8784C502.8,-48.8558 536.312,-37.6032 566,-29 575.122,-26.3567 584.922,-23.7417 594.351,-21.3364"/>
<polygon fill="black" stroke="black" points="594.825,-23.0217 599.243,-20.0986 593.967,-19.6286 594.825,-23.0217"/>
</g>
<!-- topo.plotting.plot.Plot -->
<g id="node8" class="node"><title>topo.plotting.plot.Plot</title>
<polygon fill="none" stroke="black" stroke-width="0.5" points="336,-77 220,-77 220,-57 336,-57 336,-77"/>
<text text-anchor="middle" x="278" y="-64" font-family="Vera" font-size="10.00">topo.plotting.plot.Plot</text>
</g>
<!-- topo.plotting.plot.Plot&#45;&gt;topo.plotting.plot.TemplatePlot -->
<g id="edge12" class="edge"><title>topo.plotting.plot.Plot&#45;&gt;topo.plotting.plot.TemplatePlot</title>
<path fill="none" stroke="black" stroke-width="0.5" d="M336.088,-67C345.958,-67 356.382,-67 366.764,-67"/>
<polygon fill="black" stroke="black" points="366.854,-68.7501 371.854,-67 366.854,-65.2501 366.854,-68.7501"/>
</g>
<!-- param.parameterized.Parameterized -->
<g id="node9" class="node"><title>param.parameterized.Parameterized</title>
<polygon fill="none" stroke="black" stroke-width="0.5" points="184,-77 8.52651e-14,-77 0,-57 184,-57 184,-77"/>
<text text-anchor="middle" x="92" y="-64" font-family="Vera" font-size="10.00">param.parameterized.Parameterized</text>
</g>
<!-- param.parameterized.Parameterized&#45;&gt;topo.plotting.plot.Plot -->
<g id="edge8" class="edge"><title>param.parameterized.Parameterized&#45;&gt;topo.plotting.plot.Plot</title>
<path fill="none" stroke="black" stroke-width="0.5" d="M184.183,-67C194.529,-67 204.888,-67 214.749,-67"/>
<polygon fill="black" stroke="black" points="214.857,-68.7501 219.857,-67 214.857,-65.2501 214.857,-68.7501"/>
</g>
</g>
</svg>
