<?xml version="1.0" encoding="UTF-8" standalone="no"?>
<!DOCTYPE svg PUBLIC "-//W3C//DTD SVG 1.1//EN"
 "http://www.w3.org/Graphics/SVG/1.1/DTD/svg11.dtd">
<!-- Generated by graphviz version 2.26.3 (20100126.1600)
 -->
<!-- Title: inheritance52647f6470 Pages: 1 -->
<svg width="1528pt" height="66pt"
 viewBox="0.00 0.00 1528.00 66.00" xmlns="http://www.w3.org/2000/svg" xmlns:xlink="http://www.w3.org/1999/xlink">
<g id="graph1" class="graph" transform="scale(1 1) rotate(0) translate(4 62)">
<title>inheritance52647f6470</title>
<polygon fill="white" stroke="white" points="-4,5 -4,-62 1525,-62 1525,5 -4,5"/>
<!-- topo.sheet.JointNormalizingCFSheet -->
<g id="node1" class="node"><title>topo.sheet.JointNormalizingCFSheet</title>
<polygon fill="none" stroke="black" stroke-width="0.5" points="1175,-39 997,-39 997,-19 1175,-19 1175,-39"/>
<text text-anchor="middle" x="1086" y="-26" font-family="Vera" font-size="10.00">topo.sheet.JointNormalizingCFSheet</text>
</g>
<!-- topo.sheet.SettlingCFSheet -->
<g id="node8" class="node"><title>topo.sheet.SettlingCFSheet</title>
<polygon fill="none" stroke="black" stroke-width="0.5" points="1349,-39 1213,-39 1213,-19 1349,-19 1349,-39"/>
<text text-anchor="middle" x="1281" y="-26" font-family="Vera" font-size="10.00">topo.sheet.SettlingCFSheet</text>
</g>
<!-- topo.sheet.JointNormalizingCFSheet&#45;&gt;topo.sheet.SettlingCFSheet -->
<g id="edge6" class="edge"><title>topo.sheet.JointNormalizingCFSheet&#45;&gt;topo.sheet.SettlingCFSheet</title>
<path fill="none" stroke="black" stroke-width="0.5" d="M1175.51,-29C1186.18,-29 1196.98,-29 1207.39,-29"/>
<polygon fill="black" stroke="black" points="1207.46,-30.7501 1212.46,-29 1207.46,-27.2501 1207.46,-30.7501"/>
</g>
<!-- topo.base.cf.CFSheet -->
<g id="node2" class="node"><title>topo.base.cf.CFSheet</title>
<polygon fill="none" stroke="black" stroke-width="0.5" points="959,-39 849,-39 849,-19 959,-19 959,-39"/>
<text text-anchor="middle" x="904" y="-26" font-family="Vera" font-size="10.00">topo.base.cf.CFSheet</text>
</g>
<!-- topo.base.cf.CFSheet&#45;&gt;topo.sheet.JointNormalizingCFSheet -->
<g id="edge2" class="edge"><title>topo.base.cf.CFSheet&#45;&gt;topo.sheet.JointNormalizingCFSheet</title>
<path fill="none" stroke="black" stroke-width="0.5" d="M959.595,-29C969.567,-29 980.211,-29 990.93,-29"/>
<polygon fill="black" stroke="black" points="991.196,-30.7501 996.196,-29 991.195,-27.2501 991.196,-30.7501"/>
</g>
<!-- topo.base.projection.ProjectionSheet -->
<g id="node4" class="node"><title>topo.base.projection.ProjectionSheet</title>
<polygon fill="none" stroke="black" stroke-width="0.5" points="812,-39 628,-39 628,-19 812,-19 812,-39"/>
<text text-anchor="middle" x="720" y="-26" font-family="Vera" font-size="10.00">topo.base.projection.ProjectionSheet</text>
</g>
<!-- topo.base.projection.ProjectionSheet&#45;&gt;topo.base.cf.CFSheet -->
<g id="edge16" class="edge"><title>topo.base.projection.ProjectionSheet&#45;&gt;topo.base.cf.CFSheet</title>
<path fill="none" stroke="black" stroke-width="0.5" d="M812,-29C822.558,-29 833.116,-29 843.118,-29"/>
<polygon fill="black" stroke="black" points="843.295,-30.7501 848.295,-29 843.295,-27.2501 843.295,-30.7501"/>
</g>
<!-- topo.base.sheet.Sheet -->
<g id="node5" class="node"><title>topo.base.sheet.Sheet</title>
<polygon fill="none" stroke="black" stroke-width="0.5" points="592,-39 476,-39 476,-19 592,-19 592,-39"/>
<text text-anchor="middle" x="534" y="-26" font-family="Vera" font-size="10.00">topo.base.sheet.Sheet</text>
</g>
<!-- topo.base.sheet.Sheet&#45;&gt;topo.base.projection.ProjectionSheet -->
<g id="edge4" class="edge"><title>topo.base.sheet.Sheet&#45;&gt;topo.base.projection.ProjectionSheet</title>
<path fill="none" stroke="black" stroke-width="0.5" d="M592.086,-29C601.888,-29 612.294,-29 622.773,-29"/>
<polygon fill="black" stroke="black" points="622.92,-30.7501 627.92,-29 622.92,-27.2501 622.92,-30.7501"/>
</g>
<!-- param.parameterized.Parameterized -->
<g id="node7" class="node"><title>param.parameterized.Parameterized</title>
<polygon fill="none" stroke="black" stroke-width="0.5" points="184,-58 8.52651e-14,-58 0,-38 184,-38 184,-58"/>
<text text-anchor="middle" x="92" y="-45" font-family="Vera" font-size="10.00">param.parameterized.Parameterized</text>
</g>
<!-- topo.base.simulation.EventProcessor -->
<g id="node10" class="node"><title>topo.base.simulation.EventProcessor</title>
<polygon fill="none" stroke="black" stroke-width="0.5" points="422,-58 238,-58 238,-38 422,-38 422,-58"/>
<text text-anchor="middle" x="330" y="-45" font-family="Vera" font-size="10.00">topo.base.simulation.EventProcessor</text>
</g>
<!-- param.parameterized.Parameterized&#45;&gt;topo.base.simulation.EventProcessor -->
<g id="edge8" class="edge"><title>param.parameterized.Parameterized&#45;&gt;topo.base.simulation.EventProcessor</title>
<path fill="none" stroke="black" stroke-width="0.5" d="M184.017,-48C199.882,-48 216.423,-48 232.429,-48"/>
<polygon fill="black" stroke="black" points="232.835,-49.7501 237.835,-48 232.835,-46.2501 232.835,-49.7501"/>
</g>
<!-- topo.sheet.lissom.LISSOM -->
<g id="node12" class="node"><title>topo.sheet.lissom.LISSOM</title>
<polygon fill="none" stroke="black" stroke-width="0.5" points="1520,-39 1386,-39 1386,-19 1520,-19 1520,-39"/>
<text text-anchor="middle" x="1453" y="-26" font-family="Vera" font-size="10.00">topo.sheet.lissom.LISSOM</text>
</g>
<!-- topo.sheet.SettlingCFSheet&#45;&gt;topo.sheet.lissom.LISSOM -->
<g id="edge10" class="edge"><title>topo.sheet.SettlingCFSheet&#45;&gt;topo.sheet.lissom.LISSOM</title>
<path fill="none" stroke="black" stroke-width="0.5" d="M1349.97,-29C1360.17,-29 1370.7,-29 1380.96,-29"/>
<polygon fill="black" stroke="black" points="1380.98,-30.7501 1385.98,-29 1380.98,-27.2501 1380.98,-30.7501"/>
</g>
<!-- topo.base.simulation.EventProcessor&#45;&gt;topo.base.sheet.Sheet -->
<g id="edge12" class="edge"><title>topo.base.simulation.EventProcessor&#45;&gt;topo.base.sheet.Sheet</title>
<path fill="none" stroke="black" stroke-width="0.5" d="M422.152,-39.4172C438.564,-37.8886 455.319,-36.3281 470.696,-34.8959"/>
<polygon fill="black" stroke="black" points="471.04,-36.6216 475.856,-34.4154 470.715,-33.1367 471.04,-36.6216"/>
</g>
<!-- imagen.sheetcoords.SheetCoordinateSystem -->
<g id="node14" class="node"><title>imagen.sheetcoords.SheetCoordinateSystem</title>
<polygon fill="none" stroke="black" stroke-width="0.5" points="439,-20 221,-20 221,-1.06581e-14 439,-3.55271e-15 439,-20"/>
<text text-anchor="middle" x="330" y="-7" font-family="Vera" font-size="10.00">imagen.sheetcoords.SheetCoordinateSystem</text>
</g>
<!-- imagen.sheetcoords.SheetCoordinateSystem&#45;&gt;topo.base.sheet.Sheet -->
<g id="edge14" class="edge"><title>imagen.sheetcoords.SheetCoordinateSystem&#45;&gt;topo.base.sheet.Sheet</title>
<path fill="none" stroke="black" stroke-width="0.5" d="M437.377,-20.0008C448.76,-21.061 460.054,-22.1129 470.69,-23.1035"/>
<polygon fill="black" stroke="black" points="470.715,-24.8633 475.855,-23.5846 471.039,-21.3783 470.715,-24.8633"/>
</g>
</g>
</svg>
