<?xml version="1.0" encoding="UTF-8" standalone="no"?>
<!DOCTYPE svg PUBLIC "-//W3C//DTD SVG 1.1//EN"
 "http://www.w3.org/Graphics/SVG/1.1/DTD/svg11.dtd">
<!-- Generated by graphviz version 2.26.3 (20100126.1600)
 -->
<!-- Title: inheritance814dd881d7 Pages: 1 -->
<svg width="838pt" height="161pt"
 viewBox="0.00 0.00 838.00 161.00" xmlns="http://www.w3.org/2000/svg" xmlns:xlink="http://www.w3.org/1999/xlink">
<g id="graph1" class="graph" transform="scale(1 1) rotate(0) translate(4 157)">
<title>inheritance814dd881d7</title>
<polygon fill="white" stroke="white" points="-4,5 -4,-157 835,-157 835,5 -4,5"/>
<!-- topo.misc.trace.TraceGroup -->
<g id="node1" class="node"><title>topo.misc.trace.TraceGroup</title>
<polygon fill="none" stroke="black" stroke-width="0.5" points="383,-134 241,-134 241,-114 383,-114 383,-134"/>
<text text-anchor="middle" x="312" y="-121" font-family="Vera" font-size="10.00">topo.misc.trace.TraceGroup</text>
</g>
<!-- param.parameterized.Parameterized -->
<g id="node2" class="node"><title>param.parameterized.Parameterized</title>
<polygon fill="none" stroke="black" stroke-width="0.5" points="184,-77 8.52651e-14,-77 0,-57 184,-57 184,-77"/>
<text text-anchor="middle" x="92" y="-64" font-family="Vera" font-size="10.00">param.parameterized.Parameterized</text>
</g>
<!-- param.parameterized.Parameterized&#45;&gt;topo.misc.trace.TraceGroup -->
<g id="edge2" class="edge"><title>param.parameterized.Parameterized&#45;&gt;topo.misc.trace.TraceGroup</title>
<path fill="none" stroke="black" stroke-width="0.5" d="M123.095,-77.0378C148.89,-85.1695 186.614,-96.6129 220,-105 230.974,-107.757 242.756,-110.415 254.103,-112.825"/>
<polygon fill="black" stroke="black" points="254.028,-114.597 259.281,-113.914 254.749,-111.172 254.028,-114.597"/>
</g>
<!-- topo.misc.trace.Trace -->
<g id="node4" class="node"><title>topo.misc.trace.Trace</title>
<polygon fill="none" stroke="black" stroke-width="0.5" points="368,-96 256,-96 256,-76 368,-76 368,-96"/>
<text text-anchor="middle" x="312" y="-83" font-family="Vera" font-size="10.00">topo.misc.trace.Trace</text>
</g>
<!-- param.parameterized.Parameterized&#45;&gt;topo.misc.trace.Trace -->
<g id="edge4" class="edge"><title>param.parameterized.Parameterized&#45;&gt;topo.misc.trace.Trace</title>
<path fill="none" stroke="black" stroke-width="0.5" d="M184.025,-74.9476C206.386,-76.8788 229.765,-78.8979 250.331,-80.674"/>
<polygon fill="black" stroke="black" points="250.364,-82.4333 255.496,-81.1201 250.666,-78.9463 250.364,-82.4333"/>
</g>
<!-- topo.base.simulation.EventProcessor -->
<g id="node6" class="node"><title>topo.base.simulation.EventProcessor</title>
<polygon fill="none" stroke="black" stroke-width="0.5" points="404,-58 220,-58 220,-38 404,-38 404,-58"/>
<text text-anchor="middle" x="312" y="-45" font-family="Vera" font-size="10.00">topo.base.simulation.EventProcessor</text>
</g>
<!-- param.parameterized.Parameterized&#45;&gt;topo.base.simulation.EventProcessor -->
<g id="edge6" class="edge"><title>param.parameterized.Parameterized&#45;&gt;topo.base.simulation.EventProcessor</title>
<path fill="none" stroke="black" stroke-width="0.5" d="M184.025,-59.0524C194.245,-58.1697 204.678,-57.2687 214.957,-56.381"/>
<polygon fill="black" stroke="black" points="215.159,-58.1201 219.99,-55.9463 214.858,-54.6331 215.159,-58.1201"/>
</g>
<!-- topo.misc.trace.ActivityMovie -->
<g id="node8" class="node"><title>topo.misc.trace.ActivityMovie</title>
<polygon fill="none" stroke="black" stroke-width="0.5" points="386,-20 238,-20 238,-1.06581e-14 386,-3.55271e-15 386,-20"/>
<text text-anchor="middle" x="312" y="-7" font-family="Vera" font-size="10.00">topo.misc.trace.ActivityMovie</text>
</g>
<!-- param.parameterized.Parameterized&#45;&gt;topo.misc.trace.ActivityMovie -->
<g id="edge8" class="edge"><title>param.parameterized.Parameterized&#45;&gt;topo.misc.trace.ActivityMovie</title>
<path fill="none" stroke="black" stroke-width="0.5" d="M123.095,-56.9622C148.89,-48.8305 186.614,-37.3871 220,-29 230.974,-26.2433 242.756,-23.5853 254.103,-21.1751"/>
<polygon fill="black" stroke="black" points="254.749,-22.8276 259.281,-20.0856 254.028,-19.4026 254.749,-22.8276"/>
</g>
<!-- topo.misc.trace.SheetPositionTrace -->
<g id="node10" class="node"><title>topo.misc.trace.SheetPositionTrace</title>
<polygon fill="none" stroke="black" stroke-width="0.5" points="615,-153 441,-153 441,-133 615,-133 615,-153"/>
<text text-anchor="middle" x="528" y="-140" font-family="Vera" font-size="10.00">topo.misc.trace.SheetPositionTrace</text>
</g>
<!-- topo.misc.trace.Trace&#45;&gt;topo.misc.trace.SheetPositionTrace -->
<g id="edge10" class="edge"><title>topo.misc.trace.Trace&#45;&gt;topo.misc.trace.SheetPositionTrace</title>
<path fill="none" stroke="black" stroke-width="0.5" d="M368.645,-95.0798C380.498,-97.7042 392.794,-100.978 404,-105 421.028,-111.112 423,-117.811 440,-124 448.027,-126.922 456.638,-129.463 465.218,-131.651"/>
<polygon fill="black" stroke="black" points="465.276,-133.468 470.55,-132.969 466.116,-130.071 465.276,-133.468"/>
</g>
<!-- topo.misc.trace.IndexTrace -->
<g id="node12" class="node"><title>topo.misc.trace.IndexTrace</title>
<polygon fill="none" stroke="black" stroke-width="0.5" points="597,-115 459,-115 459,-95 597,-95 597,-115"/>
<text text-anchor="middle" x="528" y="-102" font-family="Vera" font-size="10.00">topo.misc.trace.IndexTrace</text>
</g>
<!-- topo.misc.trace.Trace&#45;&gt;topo.misc.trace.IndexTrace -->
<g id="edge12" class="edge"><title>topo.misc.trace.Trace&#45;&gt;topo.misc.trace.IndexTrace</title>
<path fill="none" stroke="black" stroke-width="0.5" d="M368.751,-90.992C394.521,-93.2588 425.359,-95.9714 453.004,-98.4032"/>
<polygon fill="black" stroke="black" points="452.993,-100.159 458.127,-98.8538 453.3,-96.6723 452.993,-100.159"/>
</g>
<!-- topo.misc.trace.IdentityTrace -->
<g id="node18" class="node"><title>topo.misc.trace.IdentityTrace</title>
<polygon fill="none" stroke="black" stroke-width="0.5" points="602,-77 454,-77 454,-57 602,-57 602,-77"/>
<text text-anchor="middle" x="528" y="-64" font-family="Vera" font-size="10.00">topo.misc.trace.IdentityTrace</text>
</g>
<!-- topo.misc.trace.Trace&#45;&gt;topo.misc.trace.IdentityTrace -->
<g id="edge18" class="edge"><title>topo.misc.trace.Trace&#45;&gt;topo.misc.trace.IdentityTrace</title>
<path fill="none" stroke="black" stroke-width="0.5" d="M368.751,-81.008C393.125,-78.864 422.033,-76.3212 448.485,-73.9944"/>
<polygon fill="black" stroke="black" points="448.913,-75.7136 453.741,-73.5321 448.606,-72.227 448.913,-75.7136"/>
</g>
<!-- topo.misc.trace.DataRecorder -->
<g id="node15" class="node"><title>topo.misc.trace.DataRecorder</title>
<polygon fill="none" stroke="black" stroke-width="0.5" points="603,-39 453,-39 453,-19 603,-19 603,-39"/>
<text text-anchor="middle" x="528" y="-26" font-family="Vera" font-size="10.00">topo.misc.trace.DataRecorder</text>
</g>
<!-- topo.base.simulation.EventProcessor&#45;&gt;topo.misc.trace.DataRecorder -->
<g id="edge16" class="edge"><title>topo.base.simulation.EventProcessor&#45;&gt;topo.misc.trace.DataRecorder</title>
<path fill="none" stroke="black" stroke-width="0.5" d="M404.23,-39.8872C418.527,-38.6296 433.201,-37.3388 447.221,-36.1056"/>
<polygon fill="black" stroke="black" points="447.527,-37.8355 452.354,-35.654 447.22,-34.349 447.527,-37.8355"/>
</g>
<!-- topo.misc.trace.InMemoryRecorder -->
<g id="node14" class="node"><title>topo.misc.trace.InMemoryRecorder</title>
<polygon fill="none" stroke="black" stroke-width="0.5" points="829,-39 653,-39 653,-19 829,-19 829,-39"/>
<text text-anchor="middle" x="741" y="-26" font-family="Vera" font-size="10.00">topo.misc.trace.InMemoryRecorder</text>
</g>
<!-- topo.misc.trace.DataRecorder&#45;&gt;topo.misc.trace.InMemoryRecorder -->
<g id="edge14" class="edge"><title>topo.misc.trace.DataRecorder&#45;&gt;topo.misc.trace.InMemoryRecorder</title>
<path fill="none" stroke="black" stroke-width="0.5" d="M603.696,-29C617.753,-29 632.594,-29 647.118,-29"/>
<polygon fill="black" stroke="black" points="647.452,-30.7501 652.452,-29 647.452,-27.2501 647.452,-30.7501"/>
</g>
</g>
</svg>
