<?xml version="1.0" encoding="UTF-8" standalone="no"?>
<!DOCTYPE svg PUBLIC "-//W3C//DTD SVG 1.1//EN"
 "http://www.w3.org/Graphics/SVG/1.1/DTD/svg11.dtd">
<!-- Generated by graphviz version 2.26.3 (20100126.1600)
 -->
<!-- Title: inheritance95afd34832 Pages: 1 -->
<svg width="1474pt" height="598pt"
 viewBox="0.00 0.00 1474.00 598.00" xmlns="http://www.w3.org/2000/svg" xmlns:xlink="http://www.w3.org/1999/xlink">
<g id="graph1" class="graph" transform="scale(1 1) rotate(0) translate(4 594)">
<title>inheritance95afd34832</title>
<polygon fill="white" stroke="white" points="-4,5 -4,-594 1471,-594 1471,5 -4,5"/>
<!-- paramtk.Eval_ReprTranslator -->
<g id="node1" class="node"><title>paramtk.Eval_ReprTranslator</title>
<polygon fill="none" stroke="black" stroke-width="0.5" points="385,-134.5 233,-134.5 233,-113.5 385,-113.5 385,-134.5"/>
<text text-anchor="middle" x="309" y="-121.5" font-family="Vera" font-size="10.00">paramtk.Eval_ReprTranslator</text>
</g>
<!-- paramtk.Translator -->
<g id="node2" class="node"><title>paramtk.Translator</title>
<polygon fill="none" stroke="black" stroke-width="0.5" points="141,-77.5 35,-77.5 35,-56.5 141,-56.5 141,-77.5"/>
<text text-anchor="middle" x="88" y="-64.5" font-family="Vera" font-size="10.00">paramtk.Translator</text>
</g>
<!-- paramtk.Translator&#45;&gt;paramtk.Eval_ReprTranslator -->
<g id="edge2" class="edge"><title>paramtk.Translator&#45;&gt;paramtk.Eval_ReprTranslator</title>
<path fill="none" stroke="black" stroke-width="0.5" d="M117.572,-77.012C142.543,-85.2365 179.347,-96.8223 212,-105 223.434,-107.864 235.715,-110.558 247.566,-112.969"/>
<polygon fill="black" stroke="black" points="247.368,-114.714 252.615,-113.984 248.058,-111.282 247.368,-114.714"/>
</g>
<!-- paramtk.DoNothingTranslator -->
<g id="node5" class="node"><title>paramtk.DoNothingTranslator</title>
<polygon fill="none" stroke="black" stroke-width="0.5" points="388,-96.5 230,-96.5 230,-75.5 388,-75.5 388,-96.5"/>
<text text-anchor="middle" x="309" y="-83.5" font-family="Vera" font-size="10.00">paramtk.DoNothingTranslator</text>
</g>
<!-- paramtk.Translator&#45;&gt;paramtk.DoNothingTranslator -->
<g id="edge24" class="edge"><title>paramtk.Translator&#45;&gt;paramtk.DoNothingTranslator</title>
<path fill="none" stroke="black" stroke-width="0.5" d="M141.78,-71.6236C166.678,-73.7642 196.847,-76.3579 224.668,-78.7498"/>
<polygon fill="black" stroke="black" points="224.702,-80.5091 229.834,-79.1939 225.002,-77.0219 224.702,-80.5091"/>
</g>
<!-- paramtk.ListTranslator -->
<g id="node16" class="node"><title>paramtk.ListTranslator</title>
<polygon fill="none" stroke="black" stroke-width="0.5" points="370,-58.5 248,-58.5 248,-37.5 370,-37.5 370,-58.5"/>
<text text-anchor="middle" x="309" y="-45.5" font-family="Vera" font-size="10.00">paramtk.ListTranslator</text>
</g>
<!-- paramtk.Translator&#45;&gt;paramtk.ListTranslator -->
<g id="edge12" class="edge"><title>paramtk.Translator&#45;&gt;paramtk.ListTranslator</title>
<path fill="none" stroke="black" stroke-width="0.5" d="M141.78,-62.3764C171.978,-59.7801 209.931,-56.5172 242.043,-53.7565"/>
<polygon fill="black" stroke="black" points="242.313,-55.4898 247.145,-53.3179 242.013,-52.0027 242.313,-55.4898"/>
</g>
<!-- paramtk.String_ObjectTranslator -->
<g id="node29" class="node"><title>paramtk.String_ObjectTranslator</title>
<polygon fill="none" stroke="black" stroke-width="0.5" points="394,-20.5 224,-20.5 224,0.5 394,0.5 394,-20.5"/>
<text text-anchor="middle" x="309" y="-7.5" font-family="Vera" font-size="10.00">paramtk.String_ObjectTranslator</text>
</g>
<!-- paramtk.Translator&#45;&gt;paramtk.String_ObjectTranslator -->
<g id="edge26" class="edge"><title>paramtk.Translator&#45;&gt;paramtk.String_ObjectTranslator</title>
<path fill="none" stroke="black" stroke-width="0.5" d="M117.572,-56.988C142.543,-48.7635 179.347,-37.1777 212,-29 223.434,-26.1365 235.715,-23.4417 247.566,-21.0314"/>
<polygon fill="black" stroke="black" points="248.058,-22.7176 252.615,-20.0161 247.368,-19.2863 248.058,-22.7176"/>
</g>
<!-- paramtk.BoolTranslator -->
<g id="node4" class="node"><title>paramtk.BoolTranslator</title>
<polygon fill="none" stroke="black" stroke-width="0.5" points="588,-96.5 460,-96.5 460,-75.5 588,-75.5 588,-96.5"/>
<text text-anchor="middle" x="524" y="-83.5" font-family="Vera" font-size="10.00">paramtk.BoolTranslator</text>
</g>
<!-- paramtk.DoNothingTranslator&#45;&gt;paramtk.BoolTranslator -->
<g id="edge4" class="edge"><title>paramtk.DoNothingTranslator&#45;&gt;paramtk.BoolTranslator</title>
<path fill="none" stroke="black" stroke-width="0.5" d="M388.142,-86C409.979,-86 433.497,-86 454.728,-86"/>
<polygon fill="black" stroke="black" points="454.788,-87.7501 459.788,-86 454.788,-84.2501 454.788,-87.7501"/>
</g>
<!-- paramtk.Button -->
<g id="node7" class="node"><title>paramtk.Button</title>
<polygon fill="none" stroke="black" stroke-width="0.5" points="570,-172.5 478,-172.5 478,-151.5 570,-151.5 570,-172.5"/>
<text text-anchor="middle" x="524" y="-159.5" font-family="Vera" font-size="10.00">paramtk.Button</text>
</g>
<!-- param.Callable -->
<g id="node8" class="node"><title>param.Callable</title>
<polygon fill="none" stroke="black" stroke-width="0.5" points="353,-172.5 265,-172.5 265,-151.5 353,-151.5 353,-172.5"/>
<text text-anchor="middle" x="309" y="-159.5" font-family="Vera" font-size="10.00">param.Callable</text>
</g>
<!-- param.Callable&#45;&gt;paramtk.Button -->
<g id="edge6" class="edge"><title>param.Callable&#45;&gt;paramtk.Button</title>
<path fill="none" stroke="black" stroke-width="0.5" d="M353.548,-162C388.132,-162 436.136,-162 472.391,-162"/>
<polygon fill="black" stroke="black" points="472.652,-163.75 477.652,-162 472.652,-160.25 472.652,-163.75"/>
</g>
<!-- paramtk.ListWidget -->
<g id="node10" class="node"><title>paramtk.ListWidget</title>
<polygon fill="none" stroke="black" stroke-width="0.5" points="957,-476.5 849,-476.5 849,-455.5 957,-455.5 957,-476.5"/>
<text text-anchor="middle" x="903" y="-463.5" font-family="Vera" font-size="10.00">paramtk.ListWidget</text>
</g>
<!-- Tkinter.Frame -->
<g id="node11" class="node"><title>Tkinter.Frame</title>
<polygon fill="none" stroke="black" stroke-width="0.5" points="757,-419.5 677,-419.5 677,-398.5 757,-398.5 757,-419.5"/>
<text text-anchor="middle" x="717" y="-406.5" font-family="Vera" font-size="10.00">Tkinter.Frame</text>
</g>
<!-- Tkinter.Frame&#45;&gt;paramtk.ListWidget -->
<g id="edge8" class="edge"><title>Tkinter.Frame&#45;&gt;paramtk.ListWidget</title>
<path fill="none" stroke="black" stroke-width="0.5" d="M757.64,-417.428C768.936,-420.271 781.092,-423.808 792,-428 808.888,-434.489 811.112,-440.511 828,-447 835.372,-449.833 843.314,-452.367 851.175,-454.589"/>
<polygon fill="black" stroke="black" points="850.769,-456.293 856.054,-455.933 851.698,-452.918 850.769,-456.293"/>
</g>
<!-- paramtk.ListItemCtrlWidget -->
<g id="node18" class="node"><title>paramtk.ListItemCtrlWidget</title>
<polygon fill="none" stroke="black" stroke-width="0.5" points="976,-438.5 830,-438.5 830,-417.5 976,-417.5 976,-438.5"/>
<text text-anchor="middle" x="903" y="-425.5" font-family="Vera" font-size="10.00">paramtk.ListItemCtrlWidget</text>
</g>
<!-- Tkinter.Frame&#45;&gt;paramtk.ListItemCtrlWidget -->
<g id="edge14" class="edge"><title>Tkinter.Frame&#45;&gt;paramtk.ListItemCtrlWidget</title>
<path fill="none" stroke="black" stroke-width="0.5" d="M757.818,-413.17C777.305,-415.16 801.31,-417.612 824.149,-419.945"/>
<polygon fill="black" stroke="black" points="824.156,-421.705 829.308,-420.472 824.512,-418.223 824.156,-421.705"/>
</g>
<!-- paramtk.HackFileEntry -->
<g id="node20" class="node"><title>paramtk.HackFileEntry</title>
<polygon fill="none" stroke="black" stroke-width="0.5" points="965,-400.5 841,-400.5 841,-379.5 965,-379.5 965,-400.5"/>
<text text-anchor="middle" x="903" y="-387.5" font-family="Vera" font-size="10.00">paramtk.HackFileEntry</text>
</g>
<!-- Tkinter.Frame&#45;&gt;paramtk.HackFileEntry -->
<g id="edge16" class="edge"><title>Tkinter.Frame&#45;&gt;paramtk.HackFileEntry</title>
<path fill="none" stroke="black" stroke-width="0.5" d="M757.818,-404.83C780.576,-402.506 809.498,-399.551 835.527,-396.892"/>
<polygon fill="black" stroke="black" points="835.896,-398.614 840.692,-396.365 835.54,-395.132 835.896,-398.614"/>
</g>
<!-- paramtk.TaggedSlider -->
<g id="node59" class="node"><title>paramtk.TaggedSlider</title>
<polygon fill="none" stroke="black" stroke-width="0.5" points="963,-362.5 843,-362.5 843,-341.5 963,-341.5 963,-362.5"/>
<text text-anchor="middle" x="903" y="-349.5" font-family="Vera" font-size="10.00">paramtk.TaggedSlider</text>
</g>
<!-- Tkinter.Frame&#45;&gt;paramtk.TaggedSlider -->
<g id="edge52" class="edge"><title>Tkinter.Frame&#45;&gt;paramtk.TaggedSlider</title>
<path fill="none" stroke="black" stroke-width="0.5" d="M744.624,-398.84C766.96,-390.796 799.299,-379.533 828,-371 836.908,-368.352 846.479,-365.747 855.704,-363.356"/>
<polygon fill="black" stroke="black" points="856.38,-364.989 860.788,-362.051 855.509,-361.599 856.38,-364.989"/>
</g>
<!-- paramtk.ScrolledFrame -->
<g id="node65" class="node"><title>paramtk.ScrolledFrame</title>
<polygon fill="none" stroke="black" stroke-width="0.5" points="967,-552.5 839,-552.5 839,-531.5 967,-531.5 967,-552.5"/>
<text text-anchor="middle" x="903" y="-539.5" font-family="Vera" font-size="10.00">paramtk.ScrolledFrame</text>
</g>
<!-- Tkinter.Frame&#45;&gt;paramtk.ScrolledFrame -->
<g id="edge58" class="edge"><title>Tkinter.Frame&#45;&gt;paramtk.ScrolledFrame</title>
<path fill="none" stroke="black" stroke-width="0.5" d="M757.77,-412.099C769.962,-414.801 782.577,-419.596 792,-428 825.696,-458.055 794.304,-492.945 828,-523 830.757,-525.459 833.786,-527.608 836.999,-529.487"/>
<polygon fill="black" stroke="black" points="836.25,-531.071 841.485,-531.885 837.9,-527.984 836.25,-531.071"/>
</g>
<!-- paramtk.ParametersFrame -->
<g id="node69" class="node"><title>paramtk.ParametersFrame</title>
<polygon fill="none" stroke="black" stroke-width="0.5" points="976,-590.5 830,-590.5 830,-569.5 976,-569.5 976,-590.5"/>
<text text-anchor="middle" x="903" y="-577.5" font-family="Vera" font-size="10.00">paramtk.ParametersFrame</text>
</g>
<!-- Tkinter.Frame&#45;&gt;paramtk.ParametersFrame -->
<g id="edge64" class="edge"><title>Tkinter.Frame&#45;&gt;paramtk.ParametersFrame</title>
<path fill="none" stroke="black" stroke-width="0.5" d="M757.888,-411.473C770.231,-414.127 782.904,-419.05 792,-428 835.652,-470.949 784.348,-518.051 828,-561 830.388,-563.349 833.022,-565.421 835.832,-567.247"/>
<polygon fill="black" stroke="black" points="835.184,-568.897 840.382,-569.919 836.957,-565.878 835.184,-568.897"/>
</g>
<!-- paramtk.StatusBar -->
<g id="node77" class="node"><title>paramtk.StatusBar</title>
<polygon fill="none" stroke="black" stroke-width="0.5" points="957,-514.5 849,-514.5 849,-493.5 957,-493.5 957,-514.5"/>
<text text-anchor="middle" x="903" y="-501.5" font-family="Vera" font-size="10.00">paramtk.StatusBar</text>
</g>
<!-- Tkinter.Frame&#45;&gt;paramtk.StatusBar -->
<g id="edge72" class="edge"><title>Tkinter.Frame&#45;&gt;paramtk.StatusBar</title>
<path fill="none" stroke="black" stroke-width="0.5" d="M757.59,-413.466C769.5,-416.246 781.999,-420.742 792,-428 816.25,-445.599 803.75,-467.401 828,-485 832.841,-488.513 838.267,-491.379 843.929,-493.717"/>
<polygon fill="black" stroke="black" points="843.437,-495.402 848.732,-495.559 844.69,-492.134 843.437,-495.402"/>
</g>
<!-- paramtk.ProgressWindow -->
<g id="node83" class="node"><title>paramtk.ProgressWindow</title>
<polygon fill="none" stroke="black" stroke-width="0.5" points="971,-324.5 835,-324.5 835,-303.5 971,-303.5 971,-324.5"/>
<text text-anchor="middle" x="903" y="-311.5" font-family="Vera" font-size="10.00">paramtk.ProgressWindow</text>
</g>
<!-- Tkinter.Frame&#45;&gt;paramtk.ProgressWindow -->
<g id="edge82" class="edge"><title>Tkinter.Frame&#45;&gt;paramtk.ProgressWindow</title>
<path fill="none" stroke="black" stroke-width="0.5" d="M741.871,-398.997C757.096,-392.26 776.553,-382.517 792,-371 810.651,-357.094 807.93,-344.766 828,-333 832.702,-330.243 837.798,-327.883 843.044,-325.863"/>
<polygon fill="black" stroke="black" points="843.795,-327.453 847.898,-324.102 842.601,-324.162 843.795,-327.453"/>
</g>
<!-- paramtk.Balloon -->
<g id="node13" class="node"><title>paramtk.Balloon</title>
<polygon fill="none" stroke="black" stroke-width="0.5" points="764,-362.5 670,-362.5 670,-341.5 764,-341.5 764,-362.5"/>
<text text-anchor="middle" x="717" y="-349.5" font-family="Vera" font-size="10.00">paramtk.Balloon</text>
</g>
<!-- Tkinter.Widget -->
<g id="node14" class="node"><title>Tkinter.Widget</title>
<polygon fill="none" stroke="black" stroke-width="0.5" points="565,-352.5 483,-352.5 483,-331.5 565,-331.5 565,-352.5"/>
<text text-anchor="middle" x="524" y="-339.5" font-family="Vera" font-size="10.00">Tkinter.Widget</text>
</g>
<!-- Tkinter.Widget&#45;&gt;Tkinter.Frame -->
<g id="edge66" class="edge"><title>Tkinter.Widget&#45;&gt;Tkinter.Frame</title>
<path fill="none" stroke="black" stroke-width="0.5" d="M552.894,-352.031C587.715,-364.119 646.137,-384.4 683.068,-397.221"/>
<polygon fill="black" stroke="black" points="682.611,-398.914 687.908,-398.901 683.759,-395.608 682.611,-398.914"/>
</g>
<!-- Tkinter.Widget&#45;&gt;paramtk.Balloon -->
<g id="edge10" class="edge"><title>Tkinter.Widget&#45;&gt;paramtk.Balloon</title>
<path fill="none" stroke="black" stroke-width="0.5" d="M565.878,-344.17C594.699,-345.663 633.211,-347.659 664.144,-349.261"/>
<polygon fill="black" stroke="black" points="664.349,-351.024 669.433,-349.535 664.531,-347.529 664.349,-351.024"/>
</g>
<!-- Tkinter.Menu -->
<g id="node26" class="node"><title>Tkinter.Menu</title>
<polygon fill="none" stroke="black" stroke-width="0.5" points="755,-286.5 679,-286.5 679,-265.5 755,-265.5 755,-286.5"/>
<text text-anchor="middle" x="717" y="-273.5" font-family="Vera" font-size="10.00">Tkinter.Menu</text>
</g>
<!-- Tkinter.Widget&#45;&gt;Tkinter.Menu -->
<g id="edge20" class="edge"><title>Tkinter.Widget&#45;&gt;Tkinter.Menu</title>
<path fill="none" stroke="black" stroke-width="0.5" d="M546.737,-331.911C570.264,-321.718 608.229,-305.951 642,-295 651.992,-291.76 662.878,-288.726 673.18,-286.075"/>
<polygon fill="black" stroke="black" points="673.768,-287.732 678.184,-284.805 672.907,-284.339 673.768,-287.732"/>
</g>
<!-- Tkinter.Button -->
<g id="node61" class="node"><title>Tkinter.Button</title>
<polygon fill="none" stroke="black" stroke-width="0.5" points="758,-248.5 676,-248.5 676,-227.5 758,-227.5 758,-248.5"/>
<text text-anchor="middle" x="717" y="-235.5" font-family="Vera" font-size="10.00">Tkinter.Button</text>
</g>
<!-- Tkinter.Widget&#45;&gt;Tkinter.Button -->
<g id="edge54" class="edge"><title>Tkinter.Widget&#45;&gt;Tkinter.Button</title>
<path fill="none" stroke="black" stroke-width="0.5" d="M535.13,-331.724C555.044,-313.883 598.75,-277.16 642,-257 650.812,-252.892 660.637,-249.589 670.198,-246.963"/>
<polygon fill="black" stroke="black" points="670.779,-248.619 675.166,-245.65 669.885,-245.235 670.779,-248.619"/>
</g>
<!-- paramtk.Scrodget -->
<g id="node74" class="node"><title>paramtk.Scrodget</title>
<polygon fill="none" stroke="black" stroke-width="0.5" points="769,-457.5 665,-457.5 665,-436.5 769,-436.5 769,-457.5"/>
<text text-anchor="middle" x="717" y="-444.5" font-family="Vera" font-size="10.00">paramtk.Scrodget</text>
</g>
<!-- Tkinter.Widget&#45;&gt;paramtk.Scrodget -->
<g id="edge70" class="edge"><title>Tkinter.Widget&#45;&gt;paramtk.Scrodget</title>
<path fill="none" stroke="black" stroke-width="0.5" d="M534.792,-352.119C554.52,-370.073 598.402,-407.53 642,-428 648.007,-430.82 654.489,-433.26 661.039,-435.36"/>
<polygon fill="black" stroke="black" points="660.76,-437.106 666.054,-436.901 661.788,-433.76 660.76,-437.106"/>
</g>
<!-- paramtk.TkParameterizedBase -->
<g id="node22" class="node"><title>paramtk.TkParameterizedBase</title>
<polygon fill="none" stroke="black" stroke-width="0.5" points="606,-590.5 442,-590.5 442,-569.5 606,-569.5 606,-590.5"/>
<text text-anchor="middle" x="524" y="-577.5" font-family="Vera" font-size="10.00">paramtk.TkParameterizedBase</text>
</g>
<!-- paramtk.TkParameterized -->
<g id="node70" class="node"><title>paramtk.TkParameterized</title>
<polygon fill="none" stroke="black" stroke-width="0.5" points="787,-590.5 647,-590.5 647,-569.5 787,-569.5 787,-590.5"/>
<text text-anchor="middle" x="717" y="-577.5" font-family="Vera" font-size="10.00">paramtk.TkParameterized</text>
</g>
<!-- paramtk.TkParameterizedBase&#45;&gt;paramtk.TkParameterized -->
<g id="edge78" class="edge"><title>paramtk.TkParameterizedBase&#45;&gt;paramtk.TkParameterized</title>
<path fill="none" stroke="black" stroke-width="0.5" d="M606.129,-580C617.873,-580 629.908,-580 641.516,-580"/>
<polygon fill="black" stroke="black" points="641.817,-581.75 646.817,-580 641.817,-578.25 641.817,-581.75"/>
</g>
<!-- param.parameterized.Parameterized -->
<g id="node23" class="node"><title>param.parameterized.Parameterized</title>
<polygon fill="none" stroke="black" stroke-width="0.5" points="406,-571.5 212,-571.5 212,-550.5 406,-550.5 406,-571.5"/>
<text text-anchor="middle" x="309" y="-558.5" font-family="Vera" font-size="10.00">param.parameterized.Parameterized</text>
</g>
<!-- param.parameterized.Parameterized&#45;&gt;paramtk.TkParameterizedBase -->
<g id="edge18" class="edge"><title>param.parameterized.Parameterized&#45;&gt;paramtk.TkParameterizedBase</title>
<path fill="none" stroke="black" stroke-width="0.5" d="M406.121,-569.583C416.261,-570.479 426.525,-571.386 436.548,-572.272"/>
<polygon fill="black" stroke="black" points="436.631,-574.036 441.766,-572.733 436.939,-570.549 436.631,-574.036"/>
</g>
<!-- paramtk.Representer -->
<g id="node54" class="node"><title>paramtk.Representer</title>
<polygon fill="none" stroke="black" stroke-width="0.5" points="583,-552.5 465,-552.5 465,-531.5 583,-531.5 583,-552.5"/>
<text text-anchor="middle" x="524" y="-539.5" font-family="Vera" font-size="10.00">paramtk.Representer</text>
</g>
<!-- param.parameterized.Parameterized&#45;&gt;paramtk.Representer -->
<g id="edge56" class="edge"><title>param.parameterized.Parameterized&#45;&gt;paramtk.Representer</title>
<path fill="none" stroke="black" stroke-width="0.5" d="M406.121,-552.417C424.274,-550.813 442.826,-549.174 459.679,-547.684"/>
<polygon fill="black" stroke="black" points="460.026,-549.41 464.853,-547.227 459.718,-545.924 460.026,-549.41"/>
</g>
<!-- Tkinter.Wm -->
<g id="node25" class="node"><title>Tkinter.Wm</title>
<polygon fill="none" stroke="black" stroke-width="0.5" points="343,-210.5 275,-210.5 275,-189.5 343,-189.5 343,-210.5"/>
<text text-anchor="middle" x="309" y="-197.5" font-family="Vera" font-size="10.00">Tkinter.Wm</text>
</g>
<!-- Tkinter.Toplevel -->
<g id="node38" class="node"><title>Tkinter.Toplevel</title>
<polygon fill="none" stroke="black" stroke-width="0.5" points="568,-210.5 480,-210.5 480,-189.5 568,-189.5 568,-210.5"/>
<text text-anchor="middle" x="524" y="-197.5" font-family="Vera" font-size="10.00">Tkinter.Toplevel</text>
</g>
<!-- Tkinter.Wm&#45;&gt;Tkinter.Toplevel -->
<g id="edge50" class="edge"><title>Tkinter.Wm&#45;&gt;Tkinter.Toplevel</title>
<path fill="none" stroke="black" stroke-width="0.5" d="M343.543,-200C378.874,-200 434.11,-200 474.169,-200"/>
<polygon fill="black" stroke="black" points="474.47,-201.75 479.47,-200 474.47,-198.25 474.47,-201.75"/>
</g>
<!-- paramtk.Menu -->
<g id="node40" class="node"><title>paramtk.Menu</title>
<polygon fill="none" stroke="black" stroke-width="0.5" points="946,-286.5 860,-286.5 860,-265.5 946,-265.5 946,-286.5"/>
<text text-anchor="middle" x="903" y="-273.5" font-family="Vera" font-size="10.00">paramtk.Menu</text>
</g>
<!-- Tkinter.Menu&#45;&gt;paramtk.Menu -->
<g id="edge32" class="edge"><title>Tkinter.Menu&#45;&gt;paramtk.Menu</title>
<path fill="none" stroke="black" stroke-width="0.5" d="M755.539,-276C784.308,-276 823.811,-276 854.69,-276"/>
<polygon fill="black" stroke="black" points="854.959,-277.75 859.959,-276 854.959,-274.25 854.959,-277.75"/>
</g>
<!-- paramtk.CSPTranslator -->
<g id="node28" class="node"><title>paramtk.CSPTranslator</title>
<polygon fill="none" stroke="black" stroke-width="0.5" points="587,-20.5 461,-20.5 461,0.5 587,0.5 587,-20.5"/>
<text text-anchor="middle" x="524" y="-7.5" font-family="Vera" font-size="10.00">paramtk.CSPTranslator</text>
</g>
<!-- paramtk.String_ObjectTranslator&#45;&gt;paramtk.CSPTranslator -->
<g id="edge22" class="edge"><title>paramtk.String_ObjectTranslator&#45;&gt;paramtk.CSPTranslator</title>
<path fill="none" stroke="black" stroke-width="0.5" d="M394.591,-10C414.822,-10 436.133,-10 455.493,-10"/>
<polygon fill="black" stroke="black" points="455.899,-11.7501 460.899,-10 455.899,-8.25009 455.899,-11.7501"/>
</g>
<!-- Tkinter.Pack -->
<g id="node32" class="node"><title>Tkinter.Pack</title>
<polygon fill="none" stroke="black" stroke-width="0.5" points="345,-390.5 273,-390.5 273,-369.5 345,-369.5 345,-390.5"/>
<text text-anchor="middle" x="309" y="-377.5" font-family="Vera" font-size="10.00">Tkinter.Pack</text>
</g>
<!-- Tkinter.Pack&#45;&gt;Tkinter.Widget -->
<g id="edge40" class="edge"><title>Tkinter.Pack&#45;&gt;Tkinter.Widget</title>
<path fill="none" stroke="black" stroke-width="0.5" d="M345.96,-373.468C382.269,-367.05 437.801,-357.235 477.179,-350.275"/>
<polygon fill="black" stroke="black" points="477.764,-351.949 482.383,-349.356 477.154,-348.503 477.764,-351.949"/>
</g>
<!-- param.parameterized.Parameter -->
<g id="node34" class="node"><title>param.parameterized.Parameter</title>
<polygon fill="none" stroke="black" stroke-width="0.5" points="175,-172.5 1,-172.5 1,-151.5 175,-151.5 175,-172.5"/>
<text text-anchor="middle" x="88" y="-159.5" font-family="Vera" font-size="10.00">param.parameterized.Parameter</text>
</g>
<!-- param.parameterized.Parameter&#45;&gt;param.Callable -->
<g id="edge28" class="edge"><title>param.parameterized.Parameter&#45;&gt;param.Callable</title>
<path fill="none" stroke="black" stroke-width="0.5" d="M175.662,-162C204.015,-162 234.464,-162 259.097,-162"/>
<polygon fill="black" stroke="black" points="259.263,-163.75 264.263,-162 259.263,-160.25 259.263,-163.75"/>
</g>
<!-- Tkinter.Place -->
<g id="node36" class="node"><title>Tkinter.Place</title>
<polygon fill="none" stroke="black" stroke-width="0.5" points="347,-352.5 271,-352.5 271,-331.5 347,-331.5 347,-352.5"/>
<text text-anchor="middle" x="309" y="-339.5" font-family="Vera" font-size="10.00">Tkinter.Place</text>
</g>
<!-- Tkinter.Place&#45;&gt;Tkinter.Widget -->
<g id="edge42" class="edge"><title>Tkinter.Place&#45;&gt;Tkinter.Widget</title>
<path fill="none" stroke="black" stroke-width="0.5" d="M347.935,-342C384.299,-342 438.629,-342 477.308,-342"/>
<polygon fill="black" stroke="black" points="477.42,-343.75 482.42,-342 477.42,-340.25 477.42,-343.75"/>
</g>
<!-- paramtk.ToolTip -->
<g id="node37" class="node"><title>paramtk.ToolTip</title>
<polygon fill="none" stroke="black" stroke-width="0.5" points="763,-210.5 671,-210.5 671,-189.5 763,-189.5 763,-210.5"/>
<text text-anchor="middle" x="717" y="-197.5" font-family="Vera" font-size="10.00">paramtk.ToolTip</text>
</g>
<!-- Tkinter.Toplevel&#45;&gt;paramtk.ToolTip -->
<g id="edge30" class="edge"><title>Tkinter.Toplevel&#45;&gt;paramtk.ToolTip</title>
<path fill="none" stroke="black" stroke-width="0.5" d="M568.763,-200C597.711,-200 635.478,-200 665.646,-200"/>
<polygon fill="black" stroke="black" points="665.802,-201.75 670.802,-200 665.802,-198.25 665.802,-201.75"/>
</g>
<!-- paramtk.ScrolledWindow -->
<g id="node67" class="node"><title>paramtk.ScrolledWindow</title>
<polygon fill="none" stroke="black" stroke-width="0.5" points="784,-172.5 650,-172.5 650,-151.5 784,-151.5 784,-172.5"/>
<text text-anchor="middle" x="717" y="-159.5" font-family="Vera" font-size="10.00">paramtk.ScrolledWindow</text>
</g>
<!-- Tkinter.Toplevel&#45;&gt;paramtk.ScrolledWindow -->
<g id="edge60" class="edge"><title>Tkinter.Toplevel&#45;&gt;paramtk.ScrolledWindow</title>
<path fill="none" stroke="black" stroke-width="0.5" d="M568.763,-191.187C596.238,-185.777 631.656,-178.804 660.982,-173.03"/>
<polygon fill="black" stroke="black" points="661.44,-174.723 666.007,-172.04 660.764,-171.289 661.44,-174.723"/>
</g>
<!-- Tkinter.Grid -->
<g id="node42" class="node"><title>Tkinter.Grid</title>
<polygon fill="none" stroke="black" stroke-width="0.5" points="344,-314.5 274,-314.5 274,-293.5 344,-293.5 344,-314.5"/>
<text text-anchor="middle" x="309" y="-301.5" font-family="Vera" font-size="10.00">Tkinter.Grid</text>
</g>
<!-- Tkinter.Grid&#45;&gt;Tkinter.Widget -->
<g id="edge44" class="edge"><title>Tkinter.Grid&#45;&gt;Tkinter.Widget</title>
<path fill="none" stroke="black" stroke-width="0.5" d="M344.503,-310.275C380.687,-316.67 437.012,-326.625 476.905,-333.676"/>
<polygon fill="black" stroke="black" points="476.947,-335.461 482.175,-334.608 477.556,-332.014 476.947,-335.461"/>
</g>
<!-- Tkinter.BaseWidget -->
<g id="node43" class="node"><title>Tkinter.BaseWidget</title>
<polygon fill="none" stroke="black" stroke-width="0.5" points="362,-267.5 256,-267.5 256,-246.5 362,-246.5 362,-267.5"/>
<text text-anchor="middle" x="309" y="-254.5" font-family="Vera" font-size="10.00">Tkinter.BaseWidget</text>
</g>
<!-- Tkinter.BaseWidget&#45;&gt;Tkinter.Widget -->
<g id="edge38" class="edge"><title>Tkinter.BaseWidget&#45;&gt;Tkinter.Widget</title>
<path fill="none" stroke="black" stroke-width="0.5" d="M349.617,-267.08C367.18,-271.858 387.829,-278.046 406,-285 440.063,-298.036 477.738,-317.098 501.144,-329.527"/>
<polygon fill="black" stroke="black" points="500.394,-331.11 505.629,-331.92 502.042,-328.022 500.394,-331.11"/>
</g>
<!-- Tkinter.BaseWidget&#45;&gt;Tkinter.Toplevel -->
<g id="edge48" class="edge"><title>Tkinter.BaseWidget&#45;&gt;Tkinter.Toplevel</title>
<path fill="none" stroke="black" stroke-width="0.5" d="M346.943,-246.941C384.438,-237 441.72,-221.814 480.91,-211.424"/>
<polygon fill="black" stroke="black" points="481.691,-213.027 486.076,-210.054 480.794,-209.644 481.691,-213.027"/>
</g>
<!-- Tkinter.Misc -->
<g id="node44" class="node"><title>Tkinter.Misc</title>
<polygon fill="none" stroke="black" stroke-width="0.5" points="124,-267.5 52,-267.5 52,-246.5 124,-246.5 124,-267.5"/>
<text text-anchor="middle" x="88" y="-254.5" font-family="Vera" font-size="10.00">Tkinter.Misc</text>
</g>
<!-- Tkinter.Misc&#45;&gt;Tkinter.BaseWidget -->
<g id="edge34" class="edge"><title>Tkinter.Misc&#45;&gt;Tkinter.BaseWidget</title>
<path fill="none" stroke="black" stroke-width="0.5" d="M124.494,-257C158.637,-257 210.226,-257 250.18,-257"/>
<polygon fill="black" stroke="black" points="250.489,-258.75 255.489,-257 250.489,-255.25 250.489,-258.75"/>
</g>
<!-- paramtk.EditingParametersFrameWithApply -->
<g id="node46" class="node"><title>paramtk.EditingParametersFrameWithApply</title>
<polygon fill="none" stroke="black" stroke-width="0.5" points="1466,-590.5 1242,-590.5 1242,-569.5 1466,-569.5 1466,-590.5"/>
<text text-anchor="middle" x="1354" y="-577.5" font-family="Vera" font-size="10.00">paramtk.EditingParametersFrameWithApply</text>
</g>
<!-- paramtk.ParametersFrameWithApply -->
<g id="node47" class="node"><title>paramtk.ParametersFrameWithApply</title>
<polygon fill="none" stroke="black" stroke-width="0.5" points="1206,-590.5 1014,-590.5 1014,-569.5 1206,-569.5 1206,-590.5"/>
<text text-anchor="middle" x="1110" y="-577.5" font-family="Vera" font-size="10.00">paramtk.ParametersFrameWithApply</text>
</g>
<!-- paramtk.ParametersFrameWithApply&#45;&gt;paramtk.EditingParametersFrameWithApply -->
<g id="edge36" class="edge"><title>paramtk.ParametersFrameWithApply&#45;&gt;paramtk.EditingParametersFrameWithApply</title>
<path fill="none" stroke="black" stroke-width="0.5" d="M1206.09,-580C1216.17,-580 1226.5,-580 1236.79,-580"/>
<polygon fill="black" stroke="black" points="1236.84,-581.75 1241.84,-580 1236.84,-578.25 1236.84,-581.75"/>
</g>
<!-- paramtk.ListRepresenter -->
<g id="node53" class="node"><title>paramtk.ListRepresenter</title>
<polygon fill="none" stroke="black" stroke-width="0.5" points="784,-552.5 650,-552.5 650,-531.5 784,-531.5 784,-552.5"/>
<text text-anchor="middle" x="717" y="-539.5" font-family="Vera" font-size="10.00">paramtk.ListRepresenter</text>
</g>
<!-- paramtk.Representer&#45;&gt;paramtk.ListRepresenter -->
<g id="edge46" class="edge"><title>paramtk.Representer&#45;&gt;paramtk.ListRepresenter</title>
<path fill="none" stroke="black" stroke-width="0.5" d="M583.218,-542C602.627,-542 624.413,-542 644.678,-542"/>
<polygon fill="black" stroke="black" points="644.795,-543.75 649.795,-542 644.795,-540.25 644.795,-543.75"/>
</g>
<!-- paramtk.ProgressController -->
<g id="node58" class="node"><title>paramtk.ProgressController</title>
<polygon fill="none" stroke="black" stroke-width="0.5" points="791,-324.5 643,-324.5 643,-303.5 791,-303.5 791,-324.5"/>
<text text-anchor="middle" x="717" y="-311.5" font-family="Vera" font-size="10.00">paramtk.ProgressController</text>
</g>
<!-- paramtk.ProgressController&#45;&gt;paramtk.ProgressWindow -->
<g id="edge80" class="edge"><title>paramtk.ProgressController&#45;&gt;paramtk.ProgressWindow</title>
<path fill="none" stroke="black" stroke-width="0.5" d="M791.582,-314C803.962,-314 816.797,-314 829.159,-314"/>
<polygon fill="black" stroke="black" points="829.426,-315.75 834.426,-314 829.426,-312.25 829.426,-315.75"/>
</g>
<!-- paramtk.FocusTakingButton -->
<g id="node86" class="node"><title>paramtk.FocusTakingButton</title>
<polygon fill="none" stroke="black" stroke-width="0.5" points="977,-248.5 829,-248.5 829,-227.5 977,-227.5 977,-248.5"/>
<text text-anchor="middle" x="903" y="-235.5" font-family="Vera" font-size="10.00">paramtk.FocusTakingButton</text>
</g>
<!-- Tkinter.Button&#45;&gt;paramtk.FocusTakingButton -->
<g id="edge84" class="edge"><title>Tkinter.Button&#45;&gt;paramtk.FocusTakingButton</title>
<path fill="none" stroke="black" stroke-width="0.5" d="M758.742,-238C777.861,-238 801.182,-238 823.453,-238"/>
<polygon fill="black" stroke="black" points="823.485,-239.75 828.485,-238 823.485,-236.25 823.485,-239.75"/>
</g>
<!-- paramtk.ScrodgetWidget -->
<g id="node64" class="node"><title>paramtk.ScrodgetWidget</title>
<polygon fill="none" stroke="black" stroke-width="0.5" points="592,-457.5 456,-457.5 456,-436.5 592,-436.5 592,-457.5"/>
<text text-anchor="middle" x="524" y="-444.5" font-family="Vera" font-size="10.00">paramtk.ScrodgetWidget</text>
</g>
<!-- paramtk.ScrodgetWidget&#45;&gt;paramtk.Scrodget -->
<g id="edge68" class="edge"><title>paramtk.ScrodgetWidget&#45;&gt;paramtk.Scrodget</title>
<path fill="none" stroke="black" stroke-width="0.5" d="M592.045,-447C614.148,-447 638.44,-447 659.681,-447"/>
<polygon fill="black" stroke="black" points="659.728,-448.75 664.728,-447 659.728,-445.25 659.728,-448.75"/>
</g>
<!-- paramtk.AppWindow -->
<g id="node80" class="node"><title>paramtk.AppWindow</title>
<polygon fill="none" stroke="black" stroke-width="0.5" points="960,-172.5 846,-172.5 846,-151.5 960,-151.5 960,-172.5"/>
<text text-anchor="middle" x="903" y="-159.5" font-family="Vera" font-size="10.00">paramtk.AppWindow</text>
</g>
<!-- paramtk.ScrolledWindow&#45;&gt;paramtk.AppWindow -->
<g id="edge76" class="edge"><title>paramtk.ScrolledWindow&#45;&gt;paramtk.AppWindow</title>
<path fill="none" stroke="black" stroke-width="0.5" d="M784.15,-162C802.603,-162 822.53,-162 840.697,-162"/>
<polygon fill="black" stroke="black" points="840.771,-163.75 845.771,-162 840.771,-160.25 840.771,-163.75"/>
</g>
<!-- paramtk.ParametersFrame&#45;&gt;paramtk.ParametersFrameWithApply -->
<g id="edge74" class="edge"><title>paramtk.ParametersFrame&#45;&gt;paramtk.ParametersFrameWithApply</title>
<path fill="none" stroke="black" stroke-width="0.5" d="M976.272,-580C986.862,-580 997.915,-580 1008.93,-580"/>
<polygon fill="black" stroke="black" points="1008.99,-581.75 1013.99,-580 1008.99,-578.25 1008.99,-581.75"/>
</g>
<!-- paramtk.TkParameterized&#45;&gt;paramtk.ParametersFrame -->
<g id="edge62" class="edge"><title>paramtk.TkParameterized&#45;&gt;paramtk.ParametersFrame</title>
<path fill="none" stroke="black" stroke-width="0.5" d="M787.054,-580C799.308,-580 812.13,-580 824.593,-580"/>
<polygon fill="black" stroke="black" points="824.909,-581.75 829.909,-580 824.909,-578.25 824.909,-581.75"/>
</g>
</g>
</svg>
