<?xml version="1.0" encoding="UTF-8" standalone="no"?>
<!DOCTYPE svg PUBLIC "-//W3C//DTD SVG 1.1//EN"
 "http://www.w3.org/Graphics/SVG/1.1/DTD/svg11.dtd">
<!-- Generated by graphviz version 2.26.3 (20100126.1600)
 -->
<!-- Title: inheritancef1ac05fc54 Pages: 1 -->
<svg width="834pt" height="294pt"
 viewBox="0.00 0.00 834.00 294.00" xmlns="http://www.w3.org/2000/svg" xmlns:xlink="http://www.w3.org/1999/xlink">
<g id="graph1" class="graph" transform="scale(1 1) rotate(0) translate(4 290)">
<title>inheritancef1ac05fc54</title>
<polygon fill="white" stroke="white" points="-4,5 -4,-290 831,-290 831,5 -4,5"/>
<!-- numbergen.BoxCar -->
<g id="node1" class="node"><title>numbergen.BoxCar</title>
<polygon fill="none" stroke="black" stroke-width="0.5" points="790,-286.5 680,-286.5 680,-265.5 790,-265.5 790,-286.5"/>
<text text-anchor="middle" x="735" y="-273.5" font-family="Vera" font-size="10.00">numbergen.BoxCar</text>
</g>
<!-- numbergen.TimeDependentValue -->
<g id="node2" class="node"><title>numbergen.TimeDependentValue</title>
<polygon fill="none" stroke="black" stroke-width="0.5" points="608,-248.5 430,-248.5 430,-227.5 608,-227.5 608,-248.5"/>
<text text-anchor="middle" x="519" y="-235.5" font-family="Vera" font-size="10.00">numbergen.TimeDependentValue</text>
</g>
<!-- numbergen.TimeDependentValue&#45;&gt;numbergen.BoxCar -->
<g id="edge2" class="edge"><title>numbergen.TimeDependentValue&#45;&gt;numbergen.BoxCar</title>
<path fill="none" stroke="black" stroke-width="0.5" d="M576.034,-248.034C606.4,-253.376 643.74,-259.945 674.599,-265.374"/>
<polygon fill="black" stroke="black" points="674.659,-267.161 679.887,-266.304 675.265,-263.714 674.659,-267.161"/>
</g>
<!-- numbergen.ExponentialDecay -->
<g id="node26" class="node"><title>numbergen.ExponentialDecay</title>
<polygon fill="none" stroke="black" stroke-width="0.5" points="815,-248.5 655,-248.5 655,-227.5 815,-227.5 815,-248.5"/>
<text text-anchor="middle" x="735" y="-235.5" font-family="Vera" font-size="10.00">numbergen.ExponentialDecay</text>
</g>
<!-- numbergen.TimeDependentValue&#45;&gt;numbergen.ExponentialDecay -->
<g id="edge26" class="edge"><title>numbergen.TimeDependentValue&#45;&gt;numbergen.ExponentialDecay</title>
<path fill="none" stroke="black" stroke-width="0.5" d="M608.103,-238C621.645,-238 635.596,-238 649.069,-238"/>
<polygon fill="black" stroke="black" points="649.406,-239.75 654.406,-238 649.406,-236.25 649.406,-239.75"/>
</g>
<!-- param.parameterized.Parameterized -->
<g id="node4" class="node"><title>param.parameterized.Parameterized</title>
<polygon fill="none" stroke="black" stroke-width="0.5" points="194,-96.5 5.68434e-14,-96.5 0,-75.5 194,-75.5 194,-96.5"/>
<text text-anchor="middle" x="97" y="-83.5" font-family="Vera" font-size="10.00">param.parameterized.Parameterized</text>
</g>
<!-- numbergen.NumberGenerator -->
<g id="node5" class="node"><title>numbergen.NumberGenerator</title>
<polygon fill="none" stroke="black" stroke-width="0.5" points="393,-96.5 231,-96.5 231,-75.5 393,-75.5 393,-96.5"/>
<text text-anchor="middle" x="312" y="-83.5" font-family="Vera" font-size="10.00">numbergen.NumberGenerator</text>
</g>
<!-- param.parameterized.Parameterized&#45;&gt;numbergen.NumberGenerator -->
<g id="edge12" class="edge"><title>param.parameterized.Parameterized&#45;&gt;numbergen.NumberGenerator</title>
<path fill="none" stroke="black" stroke-width="0.5" d="M194.121,-86C204.545,-86 215.101,-86 225.391,-86"/>
<polygon fill="black" stroke="black" points="225.419,-87.7501 230.419,-86 225.419,-84.2501 225.419,-87.7501"/>
</g>
<!-- numbergen.NumberGenerator&#45;&gt;numbergen.TimeDependentValue -->
<g id="edge4" class="edge"><title>numbergen.NumberGenerator&#45;&gt;numbergen.TimeDependentValue</title>
<path fill="none" stroke="black" stroke-width="0.5" d="M325.903,-96.2092C362.287,-122.926 460.294,-194.893 500.948,-224.744"/>
<polygon fill="black" stroke="black" points="500.091,-226.286 505.157,-227.835 502.163,-223.465 500.091,-226.286"/>
</g>
<!-- numbergen.RandomDistribution -->
<g id="node8" class="node"><title>numbergen.RandomDistribution</title>
<polygon fill="none" stroke="black" stroke-width="0.5" points="604,-134.5 434,-134.5 434,-113.5 604,-113.5 604,-134.5"/>
<text text-anchor="middle" x="519" y="-121.5" font-family="Vera" font-size="10.00">numbergen.RandomDistribution</text>
</g>
<!-- numbergen.NumberGenerator&#45;&gt;numbergen.RandomDistribution -->
<g id="edge8" class="edge"><title>numbergen.NumberGenerator&#45;&gt;numbergen.RandomDistribution</title>
<path fill="none" stroke="black" stroke-width="0.5" d="M366.658,-96.0338C395.192,-101.272 430.152,-107.69 459.382,-113.056"/>
<polygon fill="black" stroke="black" points="459.162,-114.794 464.395,-113.976 459.794,-111.352 459.162,-114.794"/>
</g>
<!-- numbergen.UnaryOperator -->
<g id="node16" class="node"><title>numbergen.UnaryOperator</title>
<polygon fill="none" stroke="black" stroke-width="0.5" points="592,-96.5 446,-96.5 446,-75.5 592,-75.5 592,-96.5"/>
<text text-anchor="middle" x="519" y="-83.5" font-family="Vera" font-size="10.00">numbergen.UnaryOperator</text>
</g>
<!-- numbergen.NumberGenerator&#45;&gt;numbergen.UnaryOperator -->
<g id="edge16" class="edge"><title>numbergen.NumberGenerator&#45;&gt;numbergen.UnaryOperator</title>
<path fill="none" stroke="black" stroke-width="0.5" d="M393.515,-86C409.067,-86 425.313,-86 440.76,-86"/>
<polygon fill="black" stroke="black" points="440.966,-87.7501 445.966,-86 440.965,-84.2501 440.966,-87.7501"/>
</g>
<!-- numbergen.BinaryOperator -->
<g id="node20" class="node"><title>numbergen.BinaryOperator</title>
<polygon fill="none" stroke="black" stroke-width="0.5" points="593,-58.5 445,-58.5 445,-37.5 593,-37.5 593,-58.5"/>
<text text-anchor="middle" x="519" y="-45.5" font-family="Vera" font-size="10.00">numbergen.BinaryOperator</text>
</g>
<!-- numbergen.NumberGenerator&#45;&gt;numbergen.BinaryOperator -->
<g id="edge20" class="edge"><title>numbergen.NumberGenerator&#45;&gt;numbergen.BinaryOperator</title>
<path fill="none" stroke="black" stroke-width="0.5" d="M366.658,-75.9662C395.192,-70.7281 430.152,-64.3102 459.382,-58.9443"/>
<polygon fill="black" stroke="black" points="459.794,-60.6482 464.395,-58.024 459.162,-57.2057 459.794,-60.6482"/>
</g>
<!-- numbergen.BoundedNumber -->
<g id="node24" class="node"><title>numbergen.BoundedNumber</title>
<polygon fill="none" stroke="black" stroke-width="0.5" points="597,-20.5 441,-20.5 441,0.5 597,0.5 597,-20.5"/>
<text text-anchor="middle" x="519" y="-7.5" font-family="Vera" font-size="10.00">numbergen.BoundedNumber</text>
</g>
<!-- numbergen.NumberGenerator&#45;&gt;numbergen.BoundedNumber -->
<g id="edge24" class="edge"><title>numbergen.NumberGenerator&#45;&gt;numbergen.BoundedNumber</title>
<path fill="none" stroke="black" stroke-width="0.5" d="M329.427,-75.934C351.968,-63.3049 392.767,-41.7601 430,-29 438.575,-26.0612 447.777,-23.4853 456.894,-21.2572"/>
<polygon fill="black" stroke="black" points="457.487,-22.9151 461.946,-20.0551 456.677,-19.5102 457.487,-22.9151"/>
</g>
<!-- numbergen.NormalRandom -->
<g id="node7" class="node"><title>numbergen.NormalRandom</title>
<polygon fill="none" stroke="black" stroke-width="0.5" points="810,-210.5 660,-210.5 660,-189.5 810,-189.5 810,-210.5"/>
<text text-anchor="middle" x="735" y="-197.5" font-family="Vera" font-size="10.00">numbergen.NormalRandom</text>
</g>
<!-- numbergen.RandomDistribution&#45;&gt;numbergen.NormalRandom -->
<g id="edge6" class="edge"><title>numbergen.RandomDistribution&#45;&gt;numbergen.NormalRandom</title>
<path fill="none" stroke="black" stroke-width="0.5" d="M537.534,-134.036C561.491,-146.633 604.791,-168.144 644,-181 653.011,-183.955 662.68,-186.554 672.229,-188.805"/>
<polygon fill="black" stroke="black" points="671.943,-190.535 677.208,-189.951 672.728,-187.124 671.943,-190.535"/>
</g>
<!-- numbergen.Choice -->
<g id="node11" class="node"><title>numbergen.Choice</title>
<polygon fill="none" stroke="black" stroke-width="0.5" points="788,-172.5 682,-172.5 682,-151.5 788,-151.5 788,-172.5"/>
<text text-anchor="middle" x="735" y="-159.5" font-family="Vera" font-size="10.00">numbergen.Choice</text>
</g>
<!-- numbergen.RandomDistribution&#45;&gt;numbergen.Choice -->
<g id="edge10" class="edge"><title>numbergen.RandomDistribution&#45;&gt;numbergen.Choice</title>
<path fill="none" stroke="black" stroke-width="0.5" d="M576.034,-134.034C607,-139.481 645.218,-146.205 676.42,-151.694"/>
<polygon fill="black" stroke="black" points="676.138,-153.421 681.366,-152.564 676.744,-149.974 676.138,-153.421"/>
</g>
<!-- numbergen.UniformRandomInt -->
<g id="node14" class="node"><title>numbergen.UniformRandomInt</title>
<polygon fill="none" stroke="black" stroke-width="0.5" points="817,-134.5 653,-134.5 653,-113.5 817,-113.5 817,-134.5"/>
<text text-anchor="middle" x="735" y="-121.5" font-family="Vera" font-size="10.00">numbergen.UniformRandomInt</text>
</g>
<!-- numbergen.RandomDistribution&#45;&gt;numbergen.UniformRandomInt -->
<g id="edge14" class="edge"><title>numbergen.RandomDistribution&#45;&gt;numbergen.UniformRandomInt</title>
<path fill="none" stroke="black" stroke-width="0.5" d="M604.059,-124C618.253,-124 633.002,-124 647.262,-124"/>
<polygon fill="black" stroke="black" points="647.492,-125.75 652.492,-124 647.492,-122.25 647.492,-125.75"/>
</g>
<!-- numbergen.UniformRandom -->
<g id="node18" class="node"><title>numbergen.UniformRandom</title>
<polygon fill="none" stroke="black" stroke-width="0.5" points="811,-96.5 659,-96.5 659,-75.5 811,-75.5 811,-96.5"/>
<text text-anchor="middle" x="735" y="-83.5" font-family="Vera" font-size="10.00">numbergen.UniformRandom</text>
</g>
<!-- numbergen.RandomDistribution&#45;&gt;numbergen.UniformRandom -->
<g id="edge18" class="edge"><title>numbergen.RandomDistribution&#45;&gt;numbergen.UniformRandom</title>
<path fill="none" stroke="black" stroke-width="0.5" d="M576.034,-113.966C605.809,-108.728 642.289,-102.31 672.79,-96.9443"/>
<polygon fill="black" stroke="black" points="673.4,-98.614 678.021,-96.024 672.794,-95.1669 673.4,-98.614"/>
</g>
<!-- numbergen.UniformRandomOffset -->
<g id="node22" class="node"><title>numbergen.UniformRandomOffset</title>
<polygon fill="none" stroke="black" stroke-width="0.5" points="826,-58.5 644,-58.5 644,-37.5 826,-37.5 826,-58.5"/>
<text text-anchor="middle" x="735" y="-45.5" font-family="Vera" font-size="10.00">numbergen.UniformRandomOffset</text>
</g>
<!-- numbergen.RandomDistribution&#45;&gt;numbergen.UniformRandomOffset -->
<g id="edge22" class="edge"><title>numbergen.RandomDistribution&#45;&gt;numbergen.UniformRandomOffset</title>
<path fill="none" stroke="black" stroke-width="0.5" d="M587.153,-113.953C594.426,-111.574 601.524,-108.634 608,-105 628.288,-93.615 623.686,-78.3394 644,-67 649.064,-64.173 654.5,-61.7652 660.103,-59.7148"/>
<polygon fill="black" stroke="black" points="660.692,-61.3632 664.845,-58.0751 659.548,-58.0554 660.692,-61.3632"/>
</g>
<!-- numbergen.VonMisesRandom -->
<g id="node28" class="node"><title>numbergen.VonMisesRandom</title>
<polygon fill="none" stroke="black" stroke-width="0.5" points="815,-20.5 655,-20.5 655,0.5 815,0.5 815,-20.5"/>
<text text-anchor="middle" x="735" y="-7.5" font-family="Vera" font-size="10.00">numbergen.VonMisesRandom</text>
</g>
<!-- numbergen.RandomDistribution&#45;&gt;numbergen.VonMisesRandom -->
<g id="edge28" class="edge"><title>numbergen.RandomDistribution&#45;&gt;numbergen.VonMisesRandom</title>
<path fill="none" stroke="black" stroke-width="0.5" d="M593.332,-113.841C598.574,-111.442 603.54,-108.529 608,-105 637.31,-81.8086 614.638,-52.1255 644,-29 647.138,-26.5285 650.52,-24.3573 654.069,-22.4514"/>
<polygon fill="black" stroke="black" points="655.297,-23.7967 659.005,-20.0136 653.747,-20.6585 655.297,-23.7967"/>
</g>
</g>
</svg>
