<?xml version="1.0" encoding="UTF-8" standalone="no"?>
<!DOCTYPE svg PUBLIC "-//W3C//DTD SVG 1.1//EN"
 "http://www.w3.org/Graphics/SVG/1.1/DTD/svg11.dtd">
<!-- Generated by graphviz version 2.26.3 (20100126.1600)
 -->
<!-- Title: inheritance07d1eff978 Pages: 1 -->
<svg width="1696pt" height="28pt"
 viewBox="0.00 0.00 1696.00 28.00" xmlns="http://www.w3.org/2000/svg" xmlns:xlink="http://www.w3.org/1999/xlink">
<g id="graph1" class="graph" transform="scale(1 1) rotate(0) translate(4 24)">
<title>inheritance07d1eff978</title>
<polygon fill="white" stroke="white" points="-4,5 -4,-24 1693,-24 1693,5 -4,5"/>
<!-- topo.command.analysis.measure_sine_pref -->
<g id="node1" class="node"><title>topo.command.analysis.measure_sine_pref</title>
<polygon fill="none" stroke="black" stroke-width="0.5" points="1392,-20 1180,-20 1180,-1.06581e-14 1392,-3.55271e-15 1392,-20"/>
<text text-anchor="middle" x="1286" y="-7" font-family="Vera" font-size="10.00">topo.command.analysis.measure_sine_pref</text>
</g>
<!-- topo.analysis.vision.measure_and_analyze_complexity -->
<g id="node4" class="node"><title>topo.analysis.vision.measure_and_analyze_complexity</title>
<polygon fill="none" stroke="black" stroke-width="0.5" points="1688,-20 1428,-20 1428,-1.06581e-14 1688,-3.55271e-15 1688,-20"/>
<text text-anchor="middle" x="1558" y="-7" font-family="Vera" font-size="10.00">topo.analysis.vision.measure_and_analyze_complexity</text>
</g>
<!-- topo.command.analysis.measure_sine_pref&#45;&gt;topo.analysis.vision.measure_and_analyze_complexity -->
<g id="edge4" class="edge"><title>topo.command.analysis.measure_sine_pref&#45;&gt;topo.analysis.vision.measure_and_analyze_complexity</title>
<path fill="none" stroke="black" stroke-width="0.5" d="M1392.33,-10C1402.32,-10 1412.53,-10 1422.74,-10"/>
<polygon fill="black" stroke="black" points="1422.75,-11.7501 1427.75,-10 1422.75,-8.2501 1422.75,-11.7501"/>
</g>
<!-- topo.analysis.featureresponses.SinusoidalMeasureResponseCommand -->
<g id="node2" class="node"><title>topo.analysis.featureresponses.SinusoidalMeasureResponseCommand</title>
<polygon fill="none" stroke="black" stroke-width="0.5" points="1143,-20 807,-20 807,-1.06581e-14 1143,-3.55271e-15 1143,-20"/>
<text text-anchor="middle" x="975" y="-7" font-family="Vera" font-size="10.00">topo.analysis.featureresponses.SinusoidalMeasureResponseCommand</text>
</g>
<!-- topo.analysis.featureresponses.SinusoidalMeasureResponseCommand&#45;&gt;topo.command.analysis.measure_sine_pref -->
<g id="edge2" class="edge"><title>topo.analysis.featureresponses.SinusoidalMeasureResponseCommand&#45;&gt;topo.command.analysis.measure_sine_pref</title>
<path fill="none" stroke="black" stroke-width="0.5" d="M1143.7,-10C1154.15,-10 1164.53,-10 1174.64,-10"/>
<polygon fill="black" stroke="black" points="1174.9,-11.7501 1179.9,-10 1174.9,-8.2501 1174.9,-11.7501"/>
</g>
<!-- param.parameterized.ParameterizedFunction -->
<g id="node6" class="node"><title>param.parameterized.ParameterizedFunction</title>
<polygon fill="none" stroke="black" stroke-width="0.5" points="443,-20 221,-20 221,-1.06581e-14 443,-3.55271e-15 443,-20"/>
<text text-anchor="middle" x="332" y="-7" font-family="Vera" font-size="10.00">param.parameterized.ParameterizedFunction</text>
</g>
<!-- topo.analysis.featureresponses.MeasureResponseCommand -->
<g id="node9" class="node"><title>topo.analysis.featureresponses.MeasureResponseCommand</title>
<polygon fill="none" stroke="black" stroke-width="0.5" points="770,-20 480,-20 480,-1.06581e-14 770,-3.55271e-15 770,-20"/>
<text text-anchor="middle" x="625" y="-7" font-family="Vera" font-size="10.00">topo.analysis.featureresponses.MeasureResponseCommand</text>
</g>
<!-- param.parameterized.ParameterizedFunction&#45;&gt;topo.analysis.featureresponses.MeasureResponseCommand -->
<g id="edge8" class="edge"><title>param.parameterized.ParameterizedFunction&#45;&gt;topo.analysis.featureresponses.MeasureResponseCommand</title>
<path fill="none" stroke="black" stroke-width="0.5" d="M443.607,-10C453.752,-10 464.135,-10 474.544,-10"/>
<polygon fill="black" stroke="black" points="474.655,-11.7501 479.655,-10 474.655,-8.2501 474.655,-11.7501"/>
</g>
<!-- param.parameterized.Parameterized -->
<g id="node7" class="node"><title>param.parameterized.Parameterized</title>
<polygon fill="none" stroke="black" stroke-width="0.5" points="184,-20 8.52651e-14,-20 0,-1.06581e-14 184,-3.55271e-15 184,-20"/>
<text text-anchor="middle" x="92" y="-7" font-family="Vera" font-size="10.00">param.parameterized.Parameterized</text>
</g>
<!-- param.parameterized.Parameterized&#45;&gt;param.parameterized.ParameterizedFunction -->
<g id="edge6" class="edge"><title>param.parameterized.Parameterized&#45;&gt;param.parameterized.ParameterizedFunction</title>
<path fill="none" stroke="black" stroke-width="0.5" d="M184.104,-10C194.328,-10 204.838,-10 215.314,-10"/>
<polygon fill="black" stroke="black" points="215.453,-11.7501 220.453,-10 215.453,-8.2501 215.453,-11.7501"/>
</g>
<!-- topo.analysis.featureresponses.MeasureResponseCommand&#45;&gt;topo.analysis.featureresponses.SinusoidalMeasureResponseCommand -->
<g id="edge10" class="edge"><title>topo.analysis.featureresponses.MeasureResponseCommand&#45;&gt;topo.analysis.featureresponses.SinusoidalMeasureResponseCommand</title>
<path fill="none" stroke="black" stroke-width="0.5" d="M770.138,-10C780.394,-10 790.791,-10 801.182,-10"/>
<polygon fill="black" stroke="black" points="801.282,-11.7501 806.282,-10 801.282,-8.2501 801.282,-11.7501"/>
</g>
</g>
</svg>
