<?xml version="1.0" encoding="UTF-8" standalone="no"?>
<!DOCTYPE svg PUBLIC "-//W3C//DTD SVG 1.1//EN"
 "http://www.w3.org/Graphics/SVG/1.1/DTD/svg11.dtd">
<!-- Generated by graphviz version 2.26.3 (20100126.1600)
 -->
<!-- Title: inheritancef4cea304dd Pages: 1 -->
<svg width="1124pt" height="256pt"
 viewBox="0.00 0.00 1124.00 256.00" xmlns="http://www.w3.org/2000/svg" xmlns:xlink="http://www.w3.org/1999/xlink">
<g id="graph1" class="graph" transform="scale(1 1) rotate(0) translate(4 252)">
<title>inheritancef4cea304dd</title>
<polygon fill="white" stroke="white" points="-4,5 -4,-252 1121,-252 1121,5 -4,5"/>
<!-- topo.base.cf.CFIter -->
<g id="node1" class="node"><title>topo.base.cf.CFIter</title>
<polygon fill="none" stroke="black" stroke-width="0.5" points="150,-96.5 44,-96.5 44,-75.5 150,-75.5 150,-96.5"/>
<text text-anchor="middle" x="97" y="-83.5" font-family="Vera" font-size="10.00">topo.base.cf.CFIter</text>
</g>
<!-- topo.base.cf.CFPRF_Plugin -->
<g id="node2" class="node"><title>topo.base.cf.CFPRF_Plugin</title>
<polygon fill="none" stroke="black" stroke-width="0.5" points="655,-248.5 515,-248.5 515,-227.5 655,-227.5 655,-248.5"/>
<text text-anchor="middle" x="585" y="-235.5" font-family="Vera" font-size="10.00">topo.base.cf.CFPRF_Plugin</text>
</g>
<!-- topo.base.cf.CFPResponseFn -->
<g id="node3" class="node"><title>topo.base.cf.CFPResponseFn</title>
<polygon fill="none" stroke="black" stroke-width="0.5" points="424,-229.5 272,-229.5 272,-208.5 424,-208.5 424,-229.5"/>
<text text-anchor="middle" x="348" y="-216.5" font-family="Vera" font-size="10.00">topo.base.cf.CFPResponseFn</text>
</g>
<!-- topo.base.cf.CFPResponseFn&#45;&gt;topo.base.cf.CFPRF_Plugin -->
<g id="edge2" class="edge"><title>topo.base.cf.CFPResponseFn&#45;&gt;topo.base.cf.CFPRF_Plugin</title>
<path fill="none" stroke="black" stroke-width="0.5" d="M424.62,-225.143C451.738,-227.317 482.215,-229.76 509.259,-231.928"/>
<polygon fill="black" stroke="black" points="509.144,-233.674 514.268,-232.329 509.424,-230.185 509.144,-233.674"/>
</g>
<!-- topo.base.cf.CFSheet -->
<g id="node5" class="node"><title>topo.base.cf.CFSheet</title>
<polygon fill="none" stroke="black" stroke-width="0.5" points="1084,-58.5 966,-58.5 966,-37.5 1084,-37.5 1084,-58.5"/>
<text text-anchor="middle" x="1025" y="-45.5" font-family="Vera" font-size="10.00">topo.base.cf.CFSheet</text>
</g>
<!-- topo.base.projection.ProjectionSheet -->
<g id="node6" class="node"><title>topo.base.projection.ProjectionSheet</title>
<polygon fill="none" stroke="black" stroke-width="0.5" points="898,-58.5 704,-58.5 704,-37.5 898,-37.5 898,-58.5"/>
<text text-anchor="middle" x="801" y="-45.5" font-family="Vera" font-size="10.00">topo.base.projection.ProjectionSheet</text>
</g>
<!-- topo.base.projection.ProjectionSheet&#45;&gt;topo.base.cf.CFSheet -->
<g id="edge4" class="edge"><title>topo.base.projection.ProjectionSheet&#45;&gt;topo.base.cf.CFSheet</title>
<path fill="none" stroke="black" stroke-width="0.5" d="M898.272,-48C919.101,-48 940.622,-48 959.885,-48"/>
<polygon fill="black" stroke="black" points="960.255,-49.7501 965.255,-48 960.255,-46.2501 960.255,-49.7501"/>
</g>
<!-- topo.base.cf.CFPLF_Identity -->
<g id="node8" class="node"><title>topo.base.cf.CFPLF_Identity</title>
<polygon fill="none" stroke="black" stroke-width="0.5" points="658,-210.5 512,-210.5 512,-189.5 658,-189.5 658,-210.5"/>
<text text-anchor="middle" x="585" y="-197.5" font-family="Vera" font-size="10.00">topo.base.cf.CFPLF_Identity</text>
</g>
<!-- topo.base.cf.CFPLearningFn -->
<g id="node9" class="node"><title>topo.base.cf.CFPLearningFn</title>
<polygon fill="none" stroke="black" stroke-width="0.5" points="422,-172.5 274,-172.5 274,-151.5 422,-151.5 422,-172.5"/>
<text text-anchor="middle" x="348" y="-159.5" font-family="Vera" font-size="10.00">topo.base.cf.CFPLearningFn</text>
</g>
<!-- topo.base.cf.CFPLearningFn&#45;&gt;topo.base.cf.CFPLF_Identity -->
<g id="edge6" class="edge"><title>topo.base.cf.CFPLearningFn&#45;&gt;topo.base.cf.CFPLF_Identity</title>
<path fill="none" stroke="black" stroke-width="0.5" d="M410.579,-172.034C443.384,-177.294 483.607,-183.743 517.157,-189.122"/>
<polygon fill="black" stroke="black" points="517.268,-190.912 522.482,-189.976 517.822,-187.456 517.268,-190.912"/>
</g>
<!-- topo.base.cf.CFPLF_Plugin -->
<g id="node18" class="node"><title>topo.base.cf.CFPLF_Plugin</title>
<polygon fill="none" stroke="black" stroke-width="0.5" points="655,-172.5 515,-172.5 515,-151.5 655,-151.5 655,-172.5"/>
<text text-anchor="middle" x="585" y="-159.5" font-family="Vera" font-size="10.00">topo.base.cf.CFPLF_Plugin</text>
</g>
<!-- topo.base.cf.CFPLearningFn&#45;&gt;topo.base.cf.CFPLF_Plugin -->
<g id="edge14" class="edge"><title>topo.base.cf.CFPLearningFn&#45;&gt;topo.base.cf.CFPLF_Plugin</title>
<path fill="none" stroke="black" stroke-width="0.5" d="M422.663,-162C450.381,-162 481.824,-162 509.606,-162"/>
<polygon fill="black" stroke="black" points="509.75,-163.75 514.75,-162 509.75,-160.25 509.75,-163.75"/>
</g>
<!-- topo.base.cf.CFPOF_Identity -->
<g id="node11" class="node"><title>topo.base.cf.CFPOF_Identity</title>
<polygon fill="none" stroke="black" stroke-width="0.5" points="659,-134.5 511,-134.5 511,-113.5 659,-113.5 659,-134.5"/>
<text text-anchor="middle" x="585" y="-121.5" font-family="Vera" font-size="10.00">topo.base.cf.CFPOF_Identity</text>
</g>
<!-- topo.base.cf.CFPOutputFn -->
<g id="node12" class="node"><title>topo.base.cf.CFPOutputFn</title>
<polygon fill="none" stroke="black" stroke-width="0.5" points="418,-134.5 278,-134.5 278,-113.5 418,-113.5 418,-134.5"/>
<text text-anchor="middle" x="348" y="-121.5" font-family="Vera" font-size="10.00">topo.base.cf.CFPOutputFn</text>
</g>
<!-- topo.base.cf.CFPOutputFn&#45;&gt;topo.base.cf.CFPOF_Identity -->
<g id="edge8" class="edge"><title>topo.base.cf.CFPOutputFn&#45;&gt;topo.base.cf.CFPOF_Identity</title>
<path fill="none" stroke="black" stroke-width="0.5" d="M418.146,-124C445.516,-124 477.04,-124 505.266,-124"/>
<polygon fill="black" stroke="black" points="505.496,-125.75 510.496,-124 505.496,-122.25 505.496,-125.75"/>
</g>
<!-- topo.base.cf.CFPOF_Plugin -->
<g id="node32" class="node"><title>topo.base.cf.CFPOF_Plugin</title>
<polygon fill="none" stroke="black" stroke-width="0.5" points="656,-96.5 514,-96.5 514,-75.5 656,-75.5 656,-96.5"/>
<text text-anchor="middle" x="585" y="-83.5" font-family="Vera" font-size="10.00">topo.base.cf.CFPOF_Plugin</text>
</g>
<!-- topo.base.cf.CFPOutputFn&#45;&gt;topo.base.cf.CFPOF_Plugin -->
<g id="edge26" class="edge"><title>topo.base.cf.CFPOutputFn&#45;&gt;topo.base.cf.CFPOF_Plugin</title>
<path fill="none" stroke="black" stroke-width="0.5" d="M410.579,-113.966C443.384,-108.706 483.607,-102.257 517.157,-96.8779"/>
<polygon fill="black" stroke="black" points="517.822,-98.5436 522.482,-96.024 517.268,-95.0878 517.822,-98.5436"/>
</g>
<!-- topo.base.sheet.Sheet -->
<g id="node14" class="node"><title>topo.base.sheet.Sheet</title>
<polygon fill="none" stroke="black" stroke-width="0.5" points="648,-58.5 522,-58.5 522,-37.5 648,-37.5 648,-58.5"/>
<text text-anchor="middle" x="585" y="-45.5" font-family="Vera" font-size="10.00">topo.base.sheet.Sheet</text>
</g>
<!-- topo.base.sheet.Sheet&#45;&gt;topo.base.projection.ProjectionSheet -->
<g id="edge10" class="edge"><title>topo.base.sheet.Sheet&#45;&gt;topo.base.projection.ProjectionSheet</title>
<path fill="none" stroke="black" stroke-width="0.5" d="M648.057,-48C663.856,-48 681.216,-48 698.394,-48"/>
<polygon fill="black" stroke="black" points="698.717,-49.7501 703.717,-48 698.717,-46.2501 698.717,-49.7501"/>
</g>
<!-- param.parameterized.Parameterized -->
<g id="node16" class="node"><title>param.parameterized.Parameterized</title>
<polygon fill="none" stroke="black" stroke-width="0.5" points="194,-134.5 5.68434e-14,-134.5 0,-113.5 194,-113.5 194,-134.5"/>
<text text-anchor="middle" x="97" y="-121.5" font-family="Vera" font-size="10.00">param.parameterized.Parameterized</text>
</g>
<!-- param.parameterized.Parameterized&#45;&gt;topo.base.cf.CFPResponseFn -->
<g id="edge34" class="edge"><title>param.parameterized.Parameterized&#45;&gt;topo.base.cf.CFPResponseFn</title>
<path fill="none" stroke="black" stroke-width="0.5" d="M172.778,-134.022C180.177,-136.411 187.384,-139.361 194,-143 214.384,-154.213 210.314,-168.603 230,-181 249.221,-193.104 272.649,-201.686 293.548,-207.593"/>
<polygon fill="black" stroke="black" points="293.238,-209.323 298.523,-208.963 294.167,-205.948 293.238,-209.323"/>
</g>
<!-- param.parameterized.Parameterized&#45;&gt;topo.base.cf.CFPLearningFn -->
<g id="edge12" class="edge"><title>param.parameterized.Parameterized&#45;&gt;topo.base.cf.CFPLearningFn</title>
<path fill="none" stroke="black" stroke-width="0.5" d="M163.276,-134.034C198.161,-139.315 240.968,-145.796 276.587,-151.189"/>
<polygon fill="black" stroke="black" points="276.583,-152.958 281.789,-151.976 277.107,-149.497 276.583,-152.958"/>
</g>
<!-- param.parameterized.Parameterized&#45;&gt;topo.base.cf.CFPOutputFn -->
<g id="edge16" class="edge"><title>param.parameterized.Parameterized&#45;&gt;topo.base.cf.CFPOutputFn</title>
<path fill="none" stroke="black" stroke-width="0.5" d="M194.043,-124C220.059,-124 247.797,-124 272.459,-124"/>
<polygon fill="black" stroke="black" points="272.673,-125.75 277.673,-124 272.673,-122.25 272.673,-125.75"/>
</g>
<!-- topo.base.simulation.EventProcessor -->
<g id="node26" class="node"><title>topo.base.simulation.EventProcessor</title>
<polygon fill="none" stroke="black" stroke-width="0.5" points="445,-96.5 251,-96.5 251,-75.5 445,-75.5 445,-96.5"/>
<text text-anchor="middle" x="348" y="-83.5" font-family="Vera" font-size="10.00">topo.base.simulation.EventProcessor</text>
</g>
<!-- param.parameterized.Parameterized&#45;&gt;topo.base.simulation.EventProcessor -->
<g id="edge20" class="edge"><title>param.parameterized.Parameterized&#45;&gt;topo.base.simulation.EventProcessor</title>
<path fill="none" stroke="black" stroke-width="0.5" d="M163.276,-113.966C198.161,-108.685 240.968,-102.204 276.587,-96.8115"/>
<polygon fill="black" stroke="black" points="277.107,-98.5029 281.789,-96.024 276.583,-95.0423 277.107,-98.5029"/>
</g>
<!-- topo.base.simulation.EPConnection -->
<g id="node28" class="node"><title>topo.base.simulation.EPConnection</title>
<polygon fill="none" stroke="black" stroke-width="0.5" points="441,-20.5 255,-20.5 255,0.5 441,0.5 441,-20.5"/>
<text text-anchor="middle" x="348" y="-7.5" font-family="Vera" font-size="10.00">topo.base.simulation.EPConnection</text>
</g>
<!-- param.parameterized.Parameterized&#45;&gt;topo.base.simulation.EPConnection -->
<g id="edge28" class="edge"><title>param.parameterized.Parameterized&#45;&gt;topo.base.simulation.EPConnection</title>
<path fill="none" stroke="black" stroke-width="0.5" d="M178.93,-113.996C184.301,-111.547 189.394,-108.581 194,-105 223.505,-82.0571 200.111,-51.4413 230,-29 236.067,-24.4447 242.808,-20.8031 249.907,-17.907"/>
<polygon fill="black" stroke="black" points="250.822,-19.4313 254.874,-16.0191 249.579,-16.1596 250.822,-19.4313"/>
</g>
<!-- topo.base.cf.ConnectionField -->
<g id="node20" class="node"><title>topo.base.cf.ConnectionField</title>
<polygon fill="none" stroke="black" stroke-width="0.5" points="173,-172.5 21,-172.5 21,-151.5 173,-151.5 173,-172.5"/>
<text text-anchor="middle" x="97" y="-159.5" font-family="Vera" font-size="10.00">topo.base.cf.ConnectionField</text>
</g>
<!-- imagen.sheetcoords.SheetCoordinateSystem -->
<g id="node22" class="node"><title>imagen.sheetcoords.SheetCoordinateSystem</title>
<polygon fill="none" stroke="black" stroke-width="0.5" points="466,-58.5 230,-58.5 230,-37.5 466,-37.5 466,-58.5"/>
<text text-anchor="middle" x="348" y="-45.5" font-family="Vera" font-size="10.00">imagen.sheetcoords.SheetCoordinateSystem</text>
</g>
<!-- imagen.sheetcoords.SheetCoordinateSystem&#45;&gt;topo.base.sheet.Sheet -->
<g id="edge32" class="edge"><title>imagen.sheetcoords.SheetCoordinateSystem&#45;&gt;topo.base.sheet.Sheet</title>
<path fill="none" stroke="black" stroke-width="0.5" d="M466.153,-48C483.445,-48 500.748,-48 516.587,-48"/>
<polygon fill="black" stroke="black" points="516.901,-49.7501 521.901,-48 516.9,-46.2501 516.901,-49.7501"/>
</g>
<!-- topo.base.cf.CFProjection -->
<g id="node23" class="node"><title>topo.base.cf.CFProjection</title>
<polygon fill="none" stroke="black" stroke-width="0.5" points="869,-20.5 733,-20.5 733,0.5 869,0.5 869,-20.5"/>
<text text-anchor="middle" x="801" y="-7.5" font-family="Vera" font-size="10.00">topo.base.cf.CFProjection</text>
</g>
<!-- topo.base.cf.ResizableCFProjection -->
<g id="node30" class="node"><title>topo.base.cf.ResizableCFProjection</title>
<polygon fill="none" stroke="black" stroke-width="0.5" points="1116,-20.5 934,-20.5 934,0.5 1116,0.5 1116,-20.5"/>
<text text-anchor="middle" x="1025" y="-7.5" font-family="Vera" font-size="10.00">topo.base.cf.ResizableCFProjection</text>
</g>
<!-- topo.base.cf.CFProjection&#45;&gt;topo.base.cf.ResizableCFProjection -->
<g id="edge24" class="edge"><title>topo.base.cf.CFProjection&#45;&gt;topo.base.cf.ResizableCFProjection</title>
<path fill="none" stroke="black" stroke-width="0.5" d="M869.73,-10C888.343,-10 908.841,-10 928.67,-10"/>
<polygon fill="black" stroke="black" points="928.696,-11.7501 933.696,-10 928.696,-8.2501 928.696,-11.7501"/>
</g>
<!-- topo.base.projection.Projection -->
<g id="node24" class="node"><title>topo.base.projection.Projection</title>
<polygon fill="none" stroke="black" stroke-width="0.5" points="667,-20.5 503,-20.5 503,0.5 667,0.5 667,-20.5"/>
<text text-anchor="middle" x="585" y="-7.5" font-family="Vera" font-size="10.00">topo.base.projection.Projection</text>
</g>
<!-- topo.base.projection.Projection&#45;&gt;topo.base.cf.CFProjection -->
<g id="edge18" class="edge"><title>topo.base.projection.Projection&#45;&gt;topo.base.cf.CFProjection</title>
<path fill="none" stroke="black" stroke-width="0.5" d="M667.585,-10C687.071,-10 707.728,-10 726.817,-10"/>
<polygon fill="black" stroke="black" points="727.157,-11.7501 732.157,-10 727.157,-8.25009 727.157,-11.7501"/>
</g>
<!-- topo.base.simulation.EventProcessor&#45;&gt;topo.base.sheet.Sheet -->
<g id="edge30" class="edge"><title>topo.base.simulation.EventProcessor&#45;&gt;topo.base.sheet.Sheet</title>
<path fill="none" stroke="black" stroke-width="0.5" d="M410.579,-75.9662C443.384,-70.7064 483.607,-64.2571 517.157,-58.8779"/>
<polygon fill="black" stroke="black" points="517.822,-60.5436 522.482,-58.024 517.268,-57.0878 517.822,-60.5436"/>
</g>
<!-- topo.base.simulation.EPConnection&#45;&gt;topo.base.projection.Projection -->
<g id="edge22" class="edge"><title>topo.base.simulation.EPConnection&#45;&gt;topo.base.projection.Projection</title>
<path fill="none" stroke="black" stroke-width="0.5" d="M441.328,-10C459.681,-10 478.878,-10 497.046,-10"/>
<polygon fill="black" stroke="black" points="497.142,-11.7501 502.142,-10 497.142,-8.2501 497.142,-11.7501"/>
</g>
<!-- topo.base.cf.NullCFError -->
<g id="node37" class="node"><title>topo.base.cf.NullCFError</title>
<polygon fill="none" stroke="black" stroke-width="0.5" points="162,-210.5 32,-210.5 32,-189.5 162,-189.5 162,-210.5"/>
<text text-anchor="middle" x="97" y="-197.5" font-family="Vera" font-size="10.00">topo.base.cf.NullCFError</text>
</g>
</g>
</svg>
