<?xml version="1.0" encoding="UTF-8" standalone="no"?>
<!DOCTYPE svg PUBLIC "-//W3C//DTD SVG 1.1//EN"
 "http://www.w3.org/Graphics/SVG/1.1/DTD/svg11.dtd">
<!-- Generated by graphviz version 2.26.3 (20100126.1600)
 -->
<!-- Title: inheritancef4cea304dd Pages: 1 -->
<svg width="1124pt" height="284pt"
 viewBox="0.00 0.00 1124.00 284.00" xmlns="http://www.w3.org/2000/svg" xmlns:xlink="http://www.w3.org/1999/xlink">
<g id="graph1" class="graph" transform="scale(1 1) rotate(0) translate(4 280)">
<title>inheritancef4cea304dd</title>
<polygon fill="white" stroke="white" points="-4,5 -4,-280 1121,-280 1121,5 -4,5"/>
<!-- topo.base.cf.CFPOF_Plugin -->
<g id="node1" class="node"><title>topo.base.cf.CFPOF_Plugin</title>
<polygon fill="none" stroke="black" stroke-width="0.5" points="656,-276.5 514,-276.5 514,-255.5 656,-255.5 656,-276.5"/>
<text text-anchor="middle" x="585" y="-263.5" font-family="Vera" font-size="10.00">topo.base.cf.CFPOF_Plugin</text>
</g>
<!-- topo.base.cf.CFPOutputFn -->
<g id="node2" class="node"><title>topo.base.cf.CFPOutputFn</title>
<polygon fill="none" stroke="black" stroke-width="0.5" points="418,-238.5 278,-238.5 278,-217.5 418,-217.5 418,-238.5"/>
<text text-anchor="middle" x="348" y="-225.5" font-family="Vera" font-size="10.00">topo.base.cf.CFPOutputFn</text>
</g>
<!-- topo.base.cf.CFPOutputFn&#45;&gt;topo.base.cf.CFPOF_Plugin -->
<g id="edge2" class="edge"><title>topo.base.cf.CFPOutputFn&#45;&gt;topo.base.cf.CFPOF_Plugin</title>
<path fill="none" stroke="black" stroke-width="0.5" d="M410.579,-238.034C443.384,-243.294 483.607,-249.743 517.157,-255.122"/>
<polygon fill="black" stroke="black" points="517.268,-256.912 522.482,-255.976 517.822,-253.456 517.268,-256.912"/>
</g>
<!-- topo.base.cf.CFPOF_Identity -->
<g id="node16" class="node"><title>topo.base.cf.CFPOF_Identity</title>
<polygon fill="none" stroke="black" stroke-width="0.5" points="659,-238.5 511,-238.5 511,-217.5 659,-217.5 659,-238.5"/>
<text text-anchor="middle" x="585" y="-225.5" font-family="Vera" font-size="10.00">topo.base.cf.CFPOF_Identity</text>
</g>
<!-- topo.base.cf.CFPOutputFn&#45;&gt;topo.base.cf.CFPOF_Identity -->
<g id="edge14" class="edge"><title>topo.base.cf.CFPOutputFn&#45;&gt;topo.base.cf.CFPOF_Identity</title>
<path fill="none" stroke="black" stroke-width="0.5" d="M418.146,-228C445.516,-228 477.04,-228 505.266,-228"/>
<polygon fill="black" stroke="black" points="505.496,-229.75 510.496,-228 505.496,-226.25 505.496,-229.75"/>
</g>
<!-- topo.base.cf.CFPLearningFn -->
<g id="node4" class="node"><title>topo.base.cf.CFPLearningFn</title>
<polygon fill="none" stroke="black" stroke-width="0.5" points="422,-172.5 274,-172.5 274,-151.5 422,-151.5 422,-172.5"/>
<text text-anchor="middle" x="348" y="-159.5" font-family="Vera" font-size="10.00">topo.base.cf.CFPLearningFn</text>
</g>
<!-- topo.base.cf.CFPLF_Identity -->
<g id="node7" class="node"><title>topo.base.cf.CFPLF_Identity</title>
<polygon fill="none" stroke="black" stroke-width="0.5" points="658,-200.5 512,-200.5 512,-179.5 658,-179.5 658,-200.5"/>
<text text-anchor="middle" x="585" y="-187.5" font-family="Vera" font-size="10.00">topo.base.cf.CFPLF_Identity</text>
</g>
<!-- topo.base.cf.CFPLearningFn&#45;&gt;topo.base.cf.CFPLF_Identity -->
<g id="edge6" class="edge"><title>topo.base.cf.CFPLearningFn&#45;&gt;topo.base.cf.CFPLF_Identity</title>
<path fill="none" stroke="black" stroke-width="0.5" d="M422.663,-170.821C449.231,-173.96 479.222,-177.503 506.131,-180.682"/>
<polygon fill="black" stroke="black" points="505.948,-182.423 511.118,-181.271 506.358,-178.947 505.948,-182.423"/>
</g>
<!-- topo.base.cf.CFPLF_Plugin -->
<g id="node37" class="node"><title>topo.base.cf.CFPLF_Plugin</title>
<polygon fill="none" stroke="black" stroke-width="0.5" points="655,-162.5 515,-162.5 515,-141.5 655,-141.5 655,-162.5"/>
<text text-anchor="middle" x="585" y="-149.5" font-family="Vera" font-size="10.00">topo.base.cf.CFPLF_Plugin</text>
</g>
<!-- topo.base.cf.CFPLearningFn&#45;&gt;topo.base.cf.CFPLF_Plugin -->
<g id="edge34" class="edge"><title>topo.base.cf.CFPLearningFn&#45;&gt;topo.base.cf.CFPLF_Plugin</title>
<path fill="none" stroke="black" stroke-width="0.5" d="M422.663,-158.85C450.381,-157.68 481.824,-156.353 509.606,-155.181"/>
<polygon fill="black" stroke="black" points="509.828,-156.923 514.75,-154.964 509.68,-153.427 509.828,-156.923"/>
</g>
<!-- param.parameterized.Parameterized -->
<g id="node5" class="node"><title>param.parameterized.Parameterized</title>
<polygon fill="none" stroke="black" stroke-width="0.5" points="194,-134.5 5.68434e-14,-134.5 0,-113.5 194,-113.5 194,-134.5"/>
<text text-anchor="middle" x="97" y="-121.5" font-family="Vera" font-size="10.00">param.parameterized.Parameterized</text>
</g>
<!-- param.parameterized.Parameterized&#45;&gt;topo.base.cf.CFPOutputFn -->
<g id="edge30" class="edge"><title>param.parameterized.Parameterized&#45;&gt;topo.base.cf.CFPOutputFn</title>
<path fill="none" stroke="black" stroke-width="0.5" d="M172.778,-134.022C180.177,-136.411 187.384,-139.361 194,-143 214.384,-154.213 210.743,-167.946 230,-181 253.346,-196.826 282.818,-208.57 306.468,-216.361"/>
<polygon fill="black" stroke="black" points="306.127,-218.089 311.422,-217.963 307.204,-214.759 306.127,-218.089"/>
</g>
<!-- param.parameterized.Parameterized&#45;&gt;topo.base.cf.CFPLearningFn -->
<g id="edge4" class="edge"><title>param.parameterized.Parameterized&#45;&gt;topo.base.cf.CFPLearningFn</title>
<path fill="none" stroke="black" stroke-width="0.5" d="M163.276,-134.034C198.161,-139.315 240.968,-145.796 276.587,-151.189"/>
<polygon fill="black" stroke="black" points="276.583,-152.958 281.789,-151.976 277.107,-149.497 276.583,-152.958"/>
</g>
<!-- topo.base.simulation.EPConnection -->
<g id="node12" class="node"><title>topo.base.simulation.EPConnection</title>
<polygon fill="none" stroke="black" stroke-width="0.5" points="441,-134.5 255,-134.5 255,-113.5 441,-113.5 441,-134.5"/>
<text text-anchor="middle" x="348" y="-121.5" font-family="Vera" font-size="10.00">topo.base.simulation.EPConnection</text>
</g>
<!-- param.parameterized.Parameterized&#45;&gt;topo.base.simulation.EPConnection -->
<g id="edge10" class="edge"><title>param.parameterized.Parameterized&#45;&gt;topo.base.simulation.EPConnection</title>
<path fill="none" stroke="black" stroke-width="0.5" d="M194.043,-124C212.327,-124 231.462,-124 249.781,-124"/>
<polygon fill="black" stroke="black" points="249.926,-125.75 254.926,-124 249.926,-122.25 249.926,-125.75"/>
</g>
<!-- topo.base.simulation.EventProcessor -->
<g id="node14" class="node"><title>topo.base.simulation.EventProcessor</title>
<polygon fill="none" stroke="black" stroke-width="0.5" points="445,-96.5 251,-96.5 251,-75.5 445,-75.5 445,-96.5"/>
<text text-anchor="middle" x="348" y="-83.5" font-family="Vera" font-size="10.00">topo.base.simulation.EventProcessor</text>
</g>
<!-- param.parameterized.Parameterized&#45;&gt;topo.base.simulation.EventProcessor -->
<g id="edge12" class="edge"><title>param.parameterized.Parameterized&#45;&gt;topo.base.simulation.EventProcessor</title>
<path fill="none" stroke="black" stroke-width="0.5" d="M163.276,-113.966C198.161,-108.685 240.968,-102.204 276.587,-96.8115"/>
<polygon fill="black" stroke="black" points="277.107,-98.5029 281.789,-96.024 276.583,-95.0423 277.107,-98.5029"/>
</g>
<!-- topo.base.cf.CFPResponseFn -->
<g id="node24" class="node"><title>topo.base.cf.CFPResponseFn</title>
<polygon fill="none" stroke="black" stroke-width="0.5" points="424,-20.5 272,-20.5 272,0.5 424,0.5 424,-20.5"/>
<text text-anchor="middle" x="348" y="-7.5" font-family="Vera" font-size="10.00">topo.base.cf.CFPResponseFn</text>
</g>
<!-- param.parameterized.Parameterized&#45;&gt;topo.base.cf.CFPResponseFn -->
<g id="edge26" class="edge"><title>param.parameterized.Parameterized&#45;&gt;topo.base.cf.CFPResponseFn</title>
<path fill="none" stroke="black" stroke-width="0.5" d="M107.338,-113.972C128.441,-94.1446 178.821,-50.0342 230,-29 241.437,-24.2996 253.943,-20.758 266.4,-18.0904"/>
<polygon fill="black" stroke="black" points="266.81,-19.7928 271.356,-17.0736 266.107,-16.3642 266.81,-19.7928"/>
</g>
<!-- topo.base.cf.CFProjection -->
<g id="node9" class="node"><title>topo.base.cf.CFProjection</title>
<polygon fill="none" stroke="black" stroke-width="0.5" points="869,-124.5 733,-124.5 733,-103.5 869,-103.5 869,-124.5"/>
<text text-anchor="middle" x="801" y="-111.5" font-family="Vera" font-size="10.00">topo.base.cf.CFProjection</text>
</g>
<!-- topo.base.cf.ResizableCFProjection -->
<g id="node33" class="node"><title>topo.base.cf.ResizableCFProjection</title>
<polygon fill="none" stroke="black" stroke-width="0.5" points="1116,-124.5 934,-124.5 934,-103.5 1116,-103.5 1116,-124.5"/>
<text text-anchor="middle" x="1025" y="-111.5" font-family="Vera" font-size="10.00">topo.base.cf.ResizableCFProjection</text>
</g>
<!-- topo.base.cf.CFProjection&#45;&gt;topo.base.cf.ResizableCFProjection -->
<g id="edge28" class="edge"><title>topo.base.cf.CFProjection&#45;&gt;topo.base.cf.ResizableCFProjection</title>
<path fill="none" stroke="black" stroke-width="0.5" d="M869.73,-114C888.343,-114 908.841,-114 928.67,-114"/>
<polygon fill="black" stroke="black" points="928.696,-115.75 933.696,-114 928.696,-112.25 928.696,-115.75"/>
</g>
<!-- topo.base.projection.Projection -->
<g id="node10" class="node"><title>topo.base.projection.Projection</title>
<polygon fill="none" stroke="black" stroke-width="0.5" points="667,-124.5 503,-124.5 503,-103.5 667,-103.5 667,-124.5"/>
<text text-anchor="middle" x="585" y="-111.5" font-family="Vera" font-size="10.00">topo.base.projection.Projection</text>
</g>
<!-- topo.base.projection.Projection&#45;&gt;topo.base.cf.CFProjection -->
<g id="edge8" class="edge"><title>topo.base.projection.Projection&#45;&gt;topo.base.cf.CFProjection</title>
<path fill="none" stroke="black" stroke-width="0.5" d="M667.585,-114C687.071,-114 707.728,-114 726.817,-114"/>
<polygon fill="black" stroke="black" points="727.157,-115.75 732.157,-114 727.157,-112.25 727.157,-115.75"/>
</g>
<!-- topo.base.simulation.EPConnection&#45;&gt;topo.base.projection.Projection -->
<g id="edge32" class="edge"><title>topo.base.simulation.EPConnection&#45;&gt;topo.base.projection.Projection</title>
<path fill="none" stroke="black" stroke-width="0.5" d="M441.328,-120.062C459.681,-119.288 478.878,-118.478 497.046,-117.711"/>
<polygon fill="black" stroke="black" points="497.22,-119.455 502.142,-117.496 497.073,-115.959 497.22,-119.455"/>
</g>
<!-- topo.base.sheet.Sheet -->
<g id="node26" class="node"><title>topo.base.sheet.Sheet</title>
<polygon fill="none" stroke="black" stroke-width="0.5" points="648,-67.5 522,-67.5 522,-46.5 648,-46.5 648,-67.5"/>
<text text-anchor="middle" x="585" y="-54.5" font-family="Vera" font-size="10.00">topo.base.sheet.Sheet</text>
</g>
<!-- topo.base.simulation.EventProcessor&#45;&gt;topo.base.sheet.Sheet -->
<g id="edge22" class="edge"><title>topo.base.simulation.EventProcessor&#45;&gt;topo.base.sheet.Sheet</title>
<path fill="none" stroke="black" stroke-width="0.5" d="M429.894,-75.9792C458.234,-72.5114 489.672,-68.6646 516.794,-65.3459"/>
<polygon fill="black" stroke="black" points="517.056,-67.077 521.806,-64.7326 516.631,-63.6029 517.056,-67.077"/>
</g>
<!-- topo.base.cf.NullCFError -->
<g id="node18" class="node"><title>topo.base.cf.NullCFError</title>
<polygon fill="none" stroke="black" stroke-width="0.5" points="162,-172.5 32,-172.5 32,-151.5 162,-151.5 162,-172.5"/>
<text text-anchor="middle" x="97" y="-159.5" font-family="Vera" font-size="10.00">topo.base.cf.NullCFError</text>
</g>
<!-- topo.base.cf.ConnectionField -->
<g id="node19" class="node"><title>topo.base.cf.ConnectionField</title>
<polygon fill="none" stroke="black" stroke-width="0.5" points="173,-210.5 21,-210.5 21,-189.5 173,-189.5 173,-210.5"/>
<text text-anchor="middle" x="97" y="-197.5" font-family="Vera" font-size="10.00">topo.base.cf.ConnectionField</text>
</g>
<!-- topo.base.cf.CFSheet -->
<g id="node20" class="node"><title>topo.base.cf.CFSheet</title>
<polygon fill="none" stroke="black" stroke-width="0.5" points="1084,-67.5 966,-67.5 966,-46.5 1084,-46.5 1084,-67.5"/>
<text text-anchor="middle" x="1025" y="-54.5" font-family="Vera" font-size="10.00">topo.base.cf.CFSheet</text>
</g>
<!-- topo.base.projection.ProjectionSheet -->
<g id="node21" class="node"><title>topo.base.projection.ProjectionSheet</title>
<polygon fill="none" stroke="black" stroke-width="0.5" points="898,-67.5 704,-67.5 704,-46.5 898,-46.5 898,-67.5"/>
<text text-anchor="middle" x="801" y="-54.5" font-family="Vera" font-size="10.00">topo.base.projection.ProjectionSheet</text>
</g>
<!-- topo.base.projection.ProjectionSheet&#45;&gt;topo.base.cf.CFSheet -->
<g id="edge16" class="edge"><title>topo.base.projection.ProjectionSheet&#45;&gt;topo.base.cf.CFSheet</title>
<path fill="none" stroke="black" stroke-width="0.5" d="M898.272,-57C919.101,-57 940.622,-57 959.885,-57"/>
<polygon fill="black" stroke="black" points="960.255,-58.7501 965.255,-57 960.255,-55.2501 960.255,-58.7501"/>
</g>
<!-- topo.base.cf.CFPRF_Plugin -->
<g id="node23" class="node"><title>topo.base.cf.CFPRF_Plugin</title>
<polygon fill="none" stroke="black" stroke-width="0.5" points="655,-20.5 515,-20.5 515,0.5 655,0.5 655,-20.5"/>
<text text-anchor="middle" x="585" y="-7.5" font-family="Vera" font-size="10.00">topo.base.cf.CFPRF_Plugin</text>
</g>
<!-- topo.base.cf.CFPResponseFn&#45;&gt;topo.base.cf.CFPRF_Plugin -->
<g id="edge18" class="edge"><title>topo.base.cf.CFPResponseFn&#45;&gt;topo.base.cf.CFPRF_Plugin</title>
<path fill="none" stroke="black" stroke-width="0.5" d="M424.62,-10C451.738,-10 482.215,-10 509.259,-10"/>
<polygon fill="black" stroke="black" points="509.268,-11.7501 514.268,-10 509.268,-8.2501 509.268,-11.7501"/>
</g>
<!-- topo.base.sheet.Sheet&#45;&gt;topo.base.projection.ProjectionSheet -->
<g id="edge20" class="edge"><title>topo.base.sheet.Sheet&#45;&gt;topo.base.projection.ProjectionSheet</title>
<path fill="none" stroke="black" stroke-width="0.5" d="M648.057,-57C663.856,-57 681.216,-57 698.394,-57"/>
<polygon fill="black" stroke="black" points="698.717,-58.7501 703.717,-57 698.717,-55.2501 698.717,-58.7501"/>
</g>
<!-- topo.base.cf.CFIter -->
<g id="node28" class="node"><title>topo.base.cf.CFIter</title>
<polygon fill="none" stroke="black" stroke-width="0.5" points="150,-248.5 44,-248.5 44,-227.5 150,-227.5 150,-248.5"/>
<text text-anchor="middle" x="97" y="-235.5" font-family="Vera" font-size="10.00">topo.base.cf.CFIter</text>
</g>
<!-- imagen.sheetcoords.SheetCoordinateSystem -->
<g id="node30" class="node"><title>imagen.sheetcoords.SheetCoordinateSystem</title>
<polygon fill="none" stroke="black" stroke-width="0.5" points="466,-58.5 230,-58.5 230,-37.5 466,-37.5 466,-58.5"/>
<text text-anchor="middle" x="348" y="-45.5" font-family="Vera" font-size="10.00">imagen.sheetcoords.SheetCoordinateSystem</text>
</g>
<!-- imagen.sheetcoords.SheetCoordinateSystem&#45;&gt;topo.base.sheet.Sheet -->
<g id="edge24" class="edge"><title>imagen.sheetcoords.SheetCoordinateSystem&#45;&gt;topo.base.sheet.Sheet</title>
<path fill="none" stroke="black" stroke-width="0.5" d="M466.153,-52.4868C483.445,-53.1435 500.748,-53.8006 516.587,-54.402"/>
<polygon fill="black" stroke="black" points="516.838,-56.1627 521.901,-54.6038 516.971,-52.6653 516.838,-56.1627"/>
</g>
</g>
</svg>
