<?xml version="1.0" encoding="UTF-8" standalone="no"?>
<!DOCTYPE svg PUBLIC "-//W3C//DTD SVG 1.1//EN"
 "http://www.w3.org/Graphics/SVG/1.1/DTD/svg11.dtd">
<!-- Generated by graphviz version 2.26.3 (20100126.1600)
 -->
<!-- Title: inheritance2526eec81b Pages: 1 -->
<svg width="772pt" height="66pt"
 viewBox="0.00 0.00 772.00 66.00" xmlns="http://www.w3.org/2000/svg" xmlns:xlink="http://www.w3.org/1999/xlink">
<g id="graph1" class="graph" transform="scale(1 1) rotate(0) translate(4 62)">
<title>inheritance2526eec81b</title>
<polygon fill="white" stroke="white" points="-4,5 -4,-62 769,-62 769,5 -4,5"/>
<!-- topo.tests.unit.testplotfilesaver.TestPlotGroupSaverBase -->
<g id="node1" class="node"><title>topo.tests.unit.testplotfilesaver.TestPlotGroupSaverBase</title>
<polygon fill="none" stroke="black" stroke-width="0.5" points="422,-39 152,-39 152,-19 422,-19 422,-39"/>
<text text-anchor="middle" x="287" y="-26" font-family="Vera" font-size="10.00">topo.tests.unit.testplotfilesaver.TestPlotGroupSaverBase</text>
</g>
<!-- topo.tests.unit.testplotfilesaver.TestPlotGroupSaver -->
<g id="node4" class="node"><title>topo.tests.unit.testplotfilesaver.TestPlotGroupSaver</title>
<polygon fill="none" stroke="black" stroke-width="0.5" points="735,-58 487,-58 487,-38 735,-38 735,-58"/>
<text text-anchor="middle" x="611" y="-45" font-family="Vera" font-size="10.00">topo.tests.unit.testplotfilesaver.TestPlotGroupSaver</text>
</g>
<!-- topo.tests.unit.testplotfilesaver.TestPlotGroupSaverBase&#45;&gt;topo.tests.unit.testplotfilesaver.TestPlotGroupSaver -->
<g id="edge4" class="edge"><title>topo.tests.unit.testplotfilesaver.TestPlotGroupSaverBase&#45;&gt;topo.tests.unit.testplotfilesaver.TestPlotGroupSaver</title>
<path fill="none" stroke="black" stroke-width="0.5" d="M422.059,-36.9201C441.502,-38.0603 461.477,-39.2317 480.822,-40.3661"/>
<polygon fill="black" stroke="black" points="481.166,-42.1392 486.26,-40.685 481.371,-38.6452 481.166,-42.1392"/>
</g>
<!-- topo.tests.unit.testplotfilesaver.TestCFProjectionPlotGroupSaver -->
<g id="node6" class="node"><title>topo.tests.unit.testplotfilesaver.TestCFProjectionPlotGroupSaver</title>
<polygon fill="none" stroke="black" stroke-width="0.5" points="764,-20 458,-20 458,-1.06581e-14 764,-3.55271e-15 764,-20"/>
<text text-anchor="middle" x="611" y="-7" font-family="Vera" font-size="10.00">topo.tests.unit.testplotfilesaver.TestCFProjectionPlotGroupSaver</text>
</g>
<!-- topo.tests.unit.testplotfilesaver.TestPlotGroupSaverBase&#45;&gt;topo.tests.unit.testplotfilesaver.TestCFProjectionPlotGroupSaver -->
<g id="edge6" class="edge"><title>topo.tests.unit.testplotfilesaver.TestPlotGroupSaverBase&#45;&gt;topo.tests.unit.testplotfilesaver.TestCFProjectionPlotGroupSaver</title>
<path fill="none" stroke="black" stroke-width="0.5" d="M422.059,-21.0799C432.206,-20.4848 442.498,-19.8813 452.77,-19.2789"/>
<polygon fill="black" stroke="black" points="452.921,-21.0232 457.81,-18.9834 452.716,-17.5292 452.921,-21.0232"/>
</g>
<!-- unittest.case.TestCase -->
<g id="node2" class="node"><title>unittest.case.TestCase</title>
<polygon fill="none" stroke="black" stroke-width="0.5" points="116,-39 4.9738e-14,-39 0,-19 116,-19 116,-39"/>
<text text-anchor="middle" x="58" y="-26" font-family="Vera" font-size="10.00">unittest.case.TestCase</text>
</g>
<!-- unittest.case.TestCase&#45;&gt;topo.tests.unit.testplotfilesaver.TestPlotGroupSaverBase -->
<g id="edge2" class="edge"><title>unittest.case.TestCase&#45;&gt;topo.tests.unit.testplotfilesaver.TestPlotGroupSaverBase</title>
<path fill="none" stroke="black" stroke-width="0.5" d="M116.082,-29C125.648,-29 135.913,-29 146.492,-29"/>
<polygon fill="black" stroke="black" points="146.708,-30.7501 151.708,-29 146.708,-27.2501 146.708,-30.7501"/>
</g>
</g>
</svg>
