<?xml version="1.0" encoding="UTF-8" standalone="no"?>
<!DOCTYPE svg PUBLIC "-//W3C//DTD SVG 1.1//EN"
 "http://www.w3.org/Graphics/SVG/1.1/DTD/svg11.dtd">
<!-- Generated by graphviz version 2.26.3 (20100126.1600)
 -->
<!-- Title: inheritance814dd881d7 Pages: 1 -->
<svg width="874pt" height="161pt"
 viewBox="0.00 0.00 874.00 161.00" xmlns="http://www.w3.org/2000/svg" xmlns:xlink="http://www.w3.org/1999/xlink">
<g id="graph1" class="graph" transform="scale(1 1) rotate(0) translate(4 157)">
<title>inheritance814dd881d7</title>
<polygon fill="white" stroke="white" points="-4,5 -4,-157 871,-157 871,5 -4,5"/>
<!-- topo.misc.trace.InMemoryRecorder -->
<g id="node1" class="node"><title>topo.misc.trace.InMemoryRecorder</title>
<polygon fill="none" stroke="black" stroke-width="0.5" points="866,-39.5 682,-39.5 682,-18.5 866,-18.5 866,-39.5"/>
<text text-anchor="middle" x="774" y="-26.5" font-family="Vera" font-size="10.00">topo.misc.trace.InMemoryRecorder</text>
</g>
<!-- topo.misc.trace.DataRecorder -->
<g id="node2" class="node"><title>topo.misc.trace.DataRecorder</title>
<polygon fill="none" stroke="black" stroke-width="0.5" points="633,-39.5 473,-39.5 473,-18.5 633,-18.5 633,-39.5"/>
<text text-anchor="middle" x="553" y="-26.5" font-family="Vera" font-size="10.00">topo.misc.trace.DataRecorder</text>
</g>
<!-- topo.misc.trace.DataRecorder&#45;&gt;topo.misc.trace.InMemoryRecorder -->
<g id="edge2" class="edge"><title>topo.misc.trace.DataRecorder&#45;&gt;topo.misc.trace.InMemoryRecorder</title>
<path fill="none" stroke="black" stroke-width="0.5" d="M633.099,-29C647.181,-29 661.977,-29 676.472,-29"/>
<polygon fill="black" stroke="black" points="676.797,-30.7501 681.796,-29 676.796,-27.2501 676.797,-30.7501"/>
</g>
<!-- topo.misc.trace.TraceGroup -->
<g id="node4" class="node"><title>topo.misc.trace.TraceGroup</title>
<polygon fill="none" stroke="black" stroke-width="0.5" points="401,-134.5 253,-134.5 253,-113.5 401,-113.5 401,-134.5"/>
<text text-anchor="middle" x="327" y="-121.5" font-family="Vera" font-size="10.00">topo.misc.trace.TraceGroup</text>
</g>
<!-- param.parameterized.Parameterized -->
<g id="node5" class="node"><title>param.parameterized.Parameterized</title>
<polygon fill="none" stroke="black" stroke-width="0.5" points="194,-77.5 5.68434e-14,-77.5 0,-56.5 194,-56.5 194,-77.5"/>
<text text-anchor="middle" x="97" y="-64.5" font-family="Vera" font-size="10.00">param.parameterized.Parameterized</text>
</g>
<!-- param.parameterized.Parameterized&#45;&gt;topo.misc.trace.TraceGroup -->
<g id="edge4" class="edge"><title>param.parameterized.Parameterized&#45;&gt;topo.misc.trace.TraceGroup</title>
<path fill="none" stroke="black" stroke-width="0.5" d="M129.318,-77.0662C156.126,-85.2146 195.326,-96.6666 230,-105 241.68,-107.807 254.224,-110.5 266.288,-112.93"/>
<polygon fill="black" stroke="black" points="266.179,-114.693 271.425,-113.956 266.864,-111.261 266.179,-114.693"/>
</g>
<!-- topo.misc.trace.Trace -->
<g id="node8" class="node"><title>topo.misc.trace.Trace</title>
<polygon fill="none" stroke="black" stroke-width="0.5" points="386,-96.5 268,-96.5 268,-75.5 386,-75.5 386,-96.5"/>
<text text-anchor="middle" x="327" y="-83.5" font-family="Vera" font-size="10.00">topo.misc.trace.Trace</text>
</g>
<!-- param.parameterized.Parameterized&#45;&gt;topo.misc.trace.Trace -->
<g id="edge8" class="edge"><title>param.parameterized.Parameterized&#45;&gt;topo.misc.trace.Trace</title>
<path fill="none" stroke="black" stroke-width="0.5" d="M194.207,-75.0302C217.248,-76.9336 241.266,-78.9176 262.439,-80.6667"/>
<polygon fill="black" stroke="black" points="262.347,-82.415 267.474,-81.0827 262.635,-78.9269 262.347,-82.415"/>
</g>
<!-- topo.base.simulation.EventProcessor -->
<g id="node11" class="node"><title>topo.base.simulation.EventProcessor</title>
<polygon fill="none" stroke="black" stroke-width="0.5" points="424,-58.5 230,-58.5 230,-37.5 424,-37.5 424,-58.5"/>
<text text-anchor="middle" x="327" y="-45.5" font-family="Vera" font-size="10.00">topo.base.simulation.EventProcessor</text>
</g>
<!-- param.parameterized.Parameterized&#45;&gt;topo.base.simulation.EventProcessor -->
<g id="edge18" class="edge"><title>param.parameterized.Parameterized&#45;&gt;topo.base.simulation.EventProcessor</title>
<path fill="none" stroke="black" stroke-width="0.5" d="M194.207,-58.9698C204.23,-58.1419 214.438,-57.2986 224.515,-56.4661"/>
<polygon fill="black" stroke="black" points="224.933,-58.1877 229.772,-56.0319 224.645,-54.6996 224.933,-58.1877"/>
</g>
<!-- topo.misc.trace.ActivityMovie -->
<g id="node15" class="node"><title>topo.misc.trace.ActivityMovie</title>
<polygon fill="none" stroke="black" stroke-width="0.5" points="405,-20.5 249,-20.5 249,0.5 405,0.5 405,-20.5"/>
<text text-anchor="middle" x="327" y="-7.5" font-family="Vera" font-size="10.00">topo.misc.trace.ActivityMovie</text>
</g>
<!-- param.parameterized.Parameterized&#45;&gt;topo.misc.trace.ActivityMovie -->
<g id="edge14" class="edge"><title>param.parameterized.Parameterized&#45;&gt;topo.misc.trace.ActivityMovie</title>
<path fill="none" stroke="black" stroke-width="0.5" d="M129.318,-56.9338C156.126,-48.7854 195.326,-37.3334 230,-29 241.68,-26.193 254.224,-23.5004 266.288,-21.0696"/>
<polygon fill="black" stroke="black" points="266.864,-22.7393 271.425,-20.0443 266.179,-19.307 266.864,-22.7393"/>
</g>
<!-- topo.misc.trace.IdentityTrace -->
<g id="node7" class="node"><title>topo.misc.trace.IdentityTrace</title>
<polygon fill="none" stroke="black" stroke-width="0.5" points="630,-153.5 476,-153.5 476,-132.5 630,-132.5 630,-153.5"/>
<text text-anchor="middle" x="553" y="-140.5" font-family="Vera" font-size="10.00">topo.misc.trace.IdentityTrace</text>
</g>
<!-- topo.misc.trace.Trace&#45;&gt;topo.misc.trace.IdentityTrace -->
<g id="edge6" class="edge"><title>topo.misc.trace.Trace&#45;&gt;topo.misc.trace.IdentityTrace</title>
<path fill="none" stroke="black" stroke-width="0.5" d="M386.728,-94.8505C399.225,-97.4904 412.188,-100.828 424,-105 441.059,-111.025 442.966,-117.906 460,-124 468.379,-126.998 477.361,-129.576 486.319,-131.779"/>
<polygon fill="black" stroke="black" points="486.019,-133.506 491.289,-132.964 486.831,-130.102 486.019,-133.506"/>
</g>
<!-- topo.misc.trace.IndexTrace -->
<g id="node13" class="node"><title>topo.misc.trace.IndexTrace</title>
<polygon fill="none" stroke="black" stroke-width="0.5" points="625,-115.5 481,-115.5 481,-94.5 625,-94.5 625,-115.5"/>
<text text-anchor="middle" x="553" y="-102.5" font-family="Vera" font-size="10.00">topo.misc.trace.IndexTrace</text>
</g>
<!-- topo.misc.trace.Trace&#45;&gt;topo.misc.trace.IndexTrace -->
<g id="edge12" class="edge"><title>topo.misc.trace.Trace&#45;&gt;topo.misc.trace.IndexTrace</title>
<path fill="none" stroke="black" stroke-width="0.5" d="M386.674,-91.0169C413.872,-93.3034 446.417,-96.0394 475.477,-98.4826"/>
<polygon fill="black" stroke="black" points="475.355,-100.228 480.484,-98.9035 475.648,-96.7407 475.355,-100.228"/>
</g>
<!-- topo.misc.trace.SheetPositionTrace -->
<g id="node17" class="node"><title>topo.misc.trace.SheetPositionTrace</title>
<polygon fill="none" stroke="black" stroke-width="0.5" points="645,-77.5 461,-77.5 461,-56.5 645,-56.5 645,-77.5"/>
<text text-anchor="middle" x="553" y="-64.5" font-family="Vera" font-size="10.00">topo.misc.trace.SheetPositionTrace</text>
</g>
<!-- topo.misc.trace.Trace&#45;&gt;topo.misc.trace.SheetPositionTrace -->
<g id="edge16" class="edge"><title>topo.misc.trace.Trace&#45;&gt;topo.misc.trace.SheetPositionTrace</title>
<path fill="none" stroke="black" stroke-width="0.5" d="M386.674,-80.9831C407.586,-79.225 431.66,-77.2012 454.88,-75.249"/>
<polygon fill="black" stroke="black" points="455.296,-76.9703 460.132,-74.8075 455.003,-73.4826 455.296,-76.9703"/>
</g>
<!-- topo.base.simulation.EventProcessor&#45;&gt;topo.misc.trace.DataRecorder -->
<g id="edge10" class="edge"><title>topo.base.simulation.EventProcessor&#45;&gt;topo.misc.trace.DataRecorder</title>
<path fill="none" stroke="black" stroke-width="0.5" d="M424.156,-39.832C438.647,-38.6138 453.492,-37.3657 467.714,-36.1701"/>
<polygon fill="black" stroke="black" points="468.087,-37.8949 472.923,-35.7321 467.794,-34.4072 468.087,-37.8949"/>
</g>
</g>
</svg>
