<?xml version="1.0" encoding="UTF-8" standalone="no"?>
<!DOCTYPE svg PUBLIC "-//W3C//DTD SVG 1.1//EN"
 "http://www.w3.org/Graphics/SVG/1.1/DTD/svg11.dtd">
<!-- Generated by graphviz version 2.26.3 (20100126.1600)
 -->
<!-- Title: inheritancee1b2df4fe6 Pages: 1 -->
<svg width="694pt" height="161pt"
 viewBox="0.00 0.00 694.00 161.00" xmlns="http://www.w3.org/2000/svg" xmlns:xlink="http://www.w3.org/1999/xlink">
<g id="graph1" class="graph" transform="scale(1 1) rotate(0) translate(4 157)">
<title>inheritancee1b2df4fe6</title>
<polygon fill="white" stroke="white" points="-4,5 -4,-157 691,-157 691,5 -4,5"/>
<!-- topo.sparse.sparsecf.CFSPOF_SproutRetract -->
<g id="node1" class="node"><title>topo.sparse.sparsecf.CFSPOF_SproutRetract</title>
<polygon fill="none" stroke="black" stroke-width="0.5" points="686,-153 472,-153 472,-133 686,-133 686,-153"/>
<text text-anchor="middle" x="579" y="-140" font-family="Vera" font-size="10.00">topo.sparse.sparsecf.CFSPOF_SproutRetract</text>
</g>
<!-- topo.sparse.sparsecf.CFSPOF_Plugin -->
<g id="node2" class="node"><title>topo.sparse.sparsecf.CFSPOF_Plugin</title>
<polygon fill="none" stroke="black" stroke-width="0.5" points="418,-134 238,-134 238,-114 418,-114 418,-134"/>
<text text-anchor="middle" x="328" y="-121" font-family="Vera" font-size="10.00">topo.sparse.sparsecf.CFSPOF_Plugin</text>
</g>
<!-- topo.sparse.sparsecf.CFSPOF_Plugin&#45;&gt;topo.sparse.sparsecf.CFSPOF_SproutRetract -->
<g id="edge2" class="edge"><title>topo.sparse.sparsecf.CFSPOF_Plugin&#45;&gt;topo.sparse.sparsecf.CFSPOF_SproutRetract</title>
<path fill="none" stroke="black" stroke-width="0.5" d="M418.262,-130.833C433.929,-132.018 450.392,-133.265 466.563,-134.489"/>
<polygon fill="black" stroke="black" points="466.454,-136.235 471.571,-134.868 466.718,-132.745 466.454,-136.235"/>
</g>
<!-- topo.sparse.sparsecf.CFSPOF_Prune -->
<g id="node9" class="node"><title>topo.sparse.sparsecf.CFSPOF_Prune</title>
<polygon fill="none" stroke="black" stroke-width="0.5" points="668,-115 490,-115 490,-95 668,-95 668,-115"/>
<text text-anchor="middle" x="579" y="-102" font-family="Vera" font-size="10.00">topo.sparse.sparsecf.CFSPOF_Prune</text>
</g>
<!-- topo.sparse.sparsecf.CFSPOF_Plugin&#45;&gt;topo.sparse.sparsecf.CFSPOF_Prune -->
<g id="edge8" class="edge"><title>topo.sparse.sparsecf.CFSPOF_Plugin&#45;&gt;topo.sparse.sparsecf.CFSPOF_Prune</title>
<path fill="none" stroke="black" stroke-width="0.5" d="M418.262,-117.167C439.601,-115.552 462.419,-113.825 483.962,-112.194"/>
<polygon fill="black" stroke="black" points="484.263,-113.926 489.117,-111.804 483.999,-110.436 484.263,-113.926"/>
</g>
<!-- param.parameterized.Parameterized -->
<g id="node4" class="node"><title>param.parameterized.Parameterized</title>
<polygon fill="none" stroke="black" stroke-width="0.5" points="184,-77 8.52651e-14,-77 0,-57 184,-57 184,-77"/>
<text text-anchor="middle" x="92" y="-64" font-family="Vera" font-size="10.00">param.parameterized.Parameterized</text>
</g>
<!-- param.parameterized.Parameterized&#45;&gt;topo.sparse.sparsecf.CFSPOF_Plugin -->
<g id="edge12" class="edge"><title>param.parameterized.Parameterized&#45;&gt;topo.sparse.sparsecf.CFSPOF_Plugin</title>
<path fill="none" stroke="black" stroke-width="0.5" d="M122.255,-77.0488C148.027,-85.3509 186.155,-97.0267 220,-105 232.433,-107.929 245.767,-110.628 258.676,-113.016"/>
<polygon fill="black" stroke="black" points="258.559,-114.773 263.792,-113.95 259.188,-111.33 258.559,-114.773"/>
</g>
<!-- topo.sparse.sparsecf.CFSPLF_Plugin -->
<g id="node5" class="node"><title>topo.sparse.sparsecf.CFSPLF_Plugin</title>
<polygon fill="none" stroke="black" stroke-width="0.5" points="416,-96 240,-96 240,-76 416,-76 416,-96"/>
<text text-anchor="middle" x="328" y="-83" font-family="Vera" font-size="10.00">topo.sparse.sparsecf.CFSPLF_Plugin</text>
</g>
<!-- param.parameterized.Parameterized&#45;&gt;topo.sparse.sparsecf.CFSPLF_Plugin -->
<g id="edge4" class="edge"><title>param.parameterized.Parameterized&#45;&gt;topo.sparse.sparsecf.CFSPLF_Plugin</title>
<path fill="none" stroke="black" stroke-width="0.5" d="M184.258,-74.4275C200.66,-75.7481 217.76,-77.1247 234.205,-78.4487"/>
<polygon fill="black" stroke="black" points="234.161,-80.2008 239.285,-78.8577 234.442,-76.712 234.161,-80.2008"/>
</g>
<!-- topo.sparse.sparsecf.CFSPRF_Plugin -->
<g id="node7" class="node"><title>topo.sparse.sparsecf.CFSPRF_Plugin</title>
<polygon fill="none" stroke="black" stroke-width="0.5" points="417,-58 239,-58 239,-38 417,-38 417,-58"/>
<text text-anchor="middle" x="328" y="-45" font-family="Vera" font-size="10.00">topo.sparse.sparsecf.CFSPRF_Plugin</text>
</g>
<!-- param.parameterized.Parameterized&#45;&gt;topo.sparse.sparsecf.CFSPRF_Plugin -->
<g id="edge6" class="edge"><title>param.parameterized.Parameterized&#45;&gt;topo.sparse.sparsecf.CFSPRF_Plugin</title>
<path fill="none" stroke="black" stroke-width="0.5" d="M184.258,-59.5725C200.543,-58.2614 217.516,-56.8949 233.852,-55.5797"/>
<polygon fill="black" stroke="black" points="234.057,-57.319 238.9,-55.1733 233.776,-53.8303 234.057,-57.319"/>
</g>
<!-- topo.sparse.sparsecf.SparseConnectionField -->
<g id="node11" class="node"><title>topo.sparse.sparsecf.SparseConnectionField</title>
<polygon fill="none" stroke="black" stroke-width="0.5" points="436,-20 220,-20 220,-1.06581e-14 436,-3.55271e-15 436,-20"/>
<text text-anchor="middle" x="328" y="-7" font-family="Vera" font-size="10.00">topo.sparse.sparsecf.SparseConnectionField</text>
</g>
<!-- param.parameterized.Parameterized&#45;&gt;topo.sparse.sparsecf.SparseConnectionField -->
<g id="edge10" class="edge"><title>param.parameterized.Parameterized&#45;&gt;topo.sparse.sparsecf.SparseConnectionField</title>
<path fill="none" stroke="black" stroke-width="0.5" d="M122.255,-56.9512C148.027,-48.6491 186.155,-36.9733 220,-29 232.433,-26.071 245.767,-23.3722 258.676,-20.9842"/>
<polygon fill="black" stroke="black" points="259.188,-22.6698 263.792,-20.0498 258.559,-19.2268 259.188,-22.6698"/>
</g>
</g>
</svg>
