<?xml version="1.0" encoding="UTF-8" standalone="no"?>
<!DOCTYPE svg PUBLIC "-//W3C//DTD SVG 1.1//EN"
 "http://www.w3.org/Graphics/SVG/1.1/DTD/svg11.dtd">
<!-- Generated by graphviz version 2.26.3 (20100126.1600)
 -->
<!-- Title: inheritance3835fd925f Pages: 1 -->
<svg width="516pt" height="142pt"
 viewBox="0.00 0.00 516.00 142.00" xmlns="http://www.w3.org/2000/svg" xmlns:xlink="http://www.w3.org/1999/xlink">
<g id="graph1" class="graph" transform="scale(1 1) rotate(0) translate(4 138)">
<title>inheritance3835fd925f</title>
<polygon fill="white" stroke="white" points="-4,5 -4,-138 513,-138 513,5 -4,5"/>
<!-- topo.misc.commandline.GlobalParams -->
<g id="node1" class="node"><title>topo.misc.commandline.GlobalParams</title>
<polygon fill="none" stroke="black" stroke-width="0.5" points="496,-20 304,-20 304,-1.06581e-14 496,-3.55271e-15 496,-20"/>
<text text-anchor="middle" x="400" y="-7" font-family="Vera" font-size="10.00">topo.misc.commandline.GlobalParams</text>
</g>
<!-- param.parameterized.Parameterized -->
<g id="node2" class="node"><title>param.parameterized.Parameterized</title>
<polygon fill="none" stroke="black" stroke-width="0.5" points="220,-58 36,-58 36,-38 220,-38 220,-58"/>
<text text-anchor="middle" x="128" y="-45" font-family="Vera" font-size="10.00">param.parameterized.Parameterized</text>
</g>
<!-- param.parameterized.Parameterized&#45;&gt;topo.misc.commandline.GlobalParams -->
<g id="edge2" class="edge"><title>param.parameterized.Parameterized&#45;&gt;topo.misc.commandline.GlobalParams</title>
<path fill="none" stroke="black" stroke-width="0.5" d="M199.821,-37.9662C237.78,-32.6631 284.394,-26.1509 323.087,-20.7453"/>
<polygon fill="black" stroke="black" points="323.539,-22.4491 328.249,-20.024 323.055,-18.9828 323.539,-22.4491"/>
</g>
<!-- topo.base.simulation.OptionalSingleton -->
<g id="node4" class="node"><title>topo.base.simulation.OptionalSingleton</title>
<polygon fill="none" stroke="black" stroke-width="0.5" points="226,-20 30,-20 30,-1.06581e-14 226,-3.55271e-15 226,-20"/>
<text text-anchor="middle" x="128" y="-7" font-family="Vera" font-size="10.00">topo.base.simulation.OptionalSingleton</text>
</g>
<!-- topo.base.simulation.OptionalSingleton&#45;&gt;topo.misc.commandline.GlobalParams -->
<g id="edge4" class="edge"><title>topo.base.simulation.OptionalSingleton&#45;&gt;topo.misc.commandline.GlobalParams</title>
<path fill="none" stroke="black" stroke-width="0.5" d="M226.198,-10C249.781,-10 275.011,-10 298.731,-10"/>
<polygon fill="black" stroke="black" points="298.768,-11.7501 303.768,-10 298.768,-8.2501 298.768,-11.7501"/>
</g>
<!-- topo.misc.commandline.IPCommandPromptHandler -->
<g id="node6" class="node"><title>topo.misc.commandline.IPCommandPromptHandler</title>
<polygon fill="none" stroke="black" stroke-width="0.5" points="255,-96 1,-96 1,-76 255,-76 255,-96"/>
<text text-anchor="middle" x="128" y="-83" font-family="Vera" font-size="10.00">topo.misc.commandline.IPCommandPromptHandler</text>
</g>
<!-- topo.misc.commandline.CommandPrompt2 -->
<g id="node7" class="node"><title>topo.misc.commandline.CommandPrompt2</title>
<polygon fill="none" stroke="black" stroke-width="0.5" points="508,-134 292,-134 292,-114 508,-114 508,-134"/>
<text text-anchor="middle" x="400" y="-121" font-family="Vera" font-size="10.00">topo.misc.commandline.CommandPrompt2</text>
</g>
<!-- topo.misc.commandline.IPCommandPromptHandler&#45;&gt;topo.misc.commandline.CommandPrompt2 -->
<g id="edge6" class="edge"><title>topo.misc.commandline.IPCommandPromptHandler&#45;&gt;topo.misc.commandline.CommandPrompt2</title>
<path fill="none" stroke="black" stroke-width="0.5" d="M199.821,-96.0338C237.78,-101.337 284.394,-107.849 323.087,-113.255"/>
<polygon fill="black" stroke="black" points="323.055,-115.017 328.249,-113.976 323.539,-111.551 323.055,-115.017"/>
</g>
<!-- topo.misc.commandline.OutputPrompt -->
<g id="node9" class="node"><title>topo.misc.commandline.OutputPrompt</title>
<polygon fill="none" stroke="black" stroke-width="0.5" points="497,-96 303,-96 303,-76 497,-76 497,-96"/>
<text text-anchor="middle" x="400" y="-83" font-family="Vera" font-size="10.00">topo.misc.commandline.OutputPrompt</text>
</g>
<!-- topo.misc.commandline.IPCommandPromptHandler&#45;&gt;topo.misc.commandline.OutputPrompt -->
<g id="edge8" class="edge"><title>topo.misc.commandline.IPCommandPromptHandler&#45;&gt;topo.misc.commandline.OutputPrompt</title>
<path fill="none" stroke="black" stroke-width="0.5" d="M255.638,-86C269.652,-86 283.785,-86 297.438,-86"/>
<polygon fill="black" stroke="black" points="297.446,-87.7501 302.446,-86 297.446,-84.2501 297.446,-87.7501"/>
</g>
<!-- topo.misc.commandline.CommandPrompt -->
<g id="node11" class="node"><title>topo.misc.commandline.CommandPrompt</title>
<polygon fill="none" stroke="black" stroke-width="0.5" points="505,-58 295,-58 295,-38 505,-38 505,-58"/>
<text text-anchor="middle" x="400" y="-45" font-family="Vera" font-size="10.00">topo.misc.commandline.CommandPrompt</text>
</g>
<!-- topo.misc.commandline.IPCommandPromptHandler&#45;&gt;topo.misc.commandline.CommandPrompt -->
<g id="edge10" class="edge"><title>topo.misc.commandline.IPCommandPromptHandler&#45;&gt;topo.misc.commandline.CommandPrompt</title>
<path fill="none" stroke="black" stroke-width="0.5" d="M199.821,-75.9662C237.78,-70.6631 284.394,-64.1509 323.087,-58.7453"/>
<polygon fill="black" stroke="black" points="323.539,-60.4491 328.249,-58.024 323.055,-56.9828 323.539,-60.4491"/>
</g>
</g>
</svg>
