<?xml version="1.0" encoding="UTF-8" standalone="no"?>
<!DOCTYPE svg PUBLIC "-//W3C//DTD SVG 1.1//EN"
 "http://www.w3.org/Graphics/SVG/1.1/DTD/svg11.dtd">
<!-- Generated by graphviz version 2.26.3 (20100126.1600)
 -->
<!-- Title: inheritancebe3ab90ace Pages: 1 -->
<svg width="984pt" height="370pt"
 viewBox="0.00 0.00 984.00 370.00" xmlns="http://www.w3.org/2000/svg" xmlns:xlink="http://www.w3.org/1999/xlink">
<g id="graph1" class="graph" transform="scale(1 1) rotate(0) translate(4 366)">
<title>inheritancebe3ab90ace</title>
<polygon fill="white" stroke="white" points="-4,5 -4,-366 981,-366 981,5 -4,5"/>
<!-- topo.coordmapper.Cartesian2Polar -->
<g id="node1" class="node"><title>topo.coordmapper.Cartesian2Polar</title>
<polygon fill="none" stroke="black" stroke-width="0.5" points="706,-362.5 522,-362.5 522,-341.5 706,-341.5 706,-362.5"/>
<text text-anchor="middle" x="614" y="-349.5" font-family="Vera" font-size="10.00">topo.coordmapper.Cartesian2Polar</text>
</g>
<!-- topo.base.functionfamily.CoordinateMapperFn -->
<g id="node2" class="node"><title>topo.base.functionfamily.CoordinateMapperFn</title>
<polygon fill="none" stroke="black" stroke-width="0.5" points="466,-191.5 230,-191.5 230,-170.5 466,-170.5 466,-191.5"/>
<text text-anchor="middle" x="348" y="-178.5" font-family="Vera" font-size="10.00">topo.base.functionfamily.CoordinateMapperFn</text>
</g>
<!-- topo.base.functionfamily.CoordinateMapperFn&#45;&gt;topo.coordmapper.Cartesian2Polar -->
<g id="edge2" class="edge"><title>topo.base.functionfamily.CoordinateMapperFn&#45;&gt;topo.coordmapper.Cartesian2Polar</title>
<path fill="none" stroke="black" stroke-width="0.5" d="M354.877,-191.27C374.258,-219.296 432.458,-297.373 502,-333 507.485,-335.81 513.3,-338.217 519.283,-340.278"/>
<polygon fill="black" stroke="black" points="519.048,-342.042 524.344,-341.929 520.133,-338.715 519.048,-342.042"/>
</g>
<!-- topo.coordmapper.Jitter -->
<g id="node5" class="node"><title>topo.coordmapper.Jitter</title>
<polygon fill="none" stroke="black" stroke-width="0.5" points="679,-324.5 549,-324.5 549,-303.5 679,-303.5 679,-324.5"/>
<text text-anchor="middle" x="614" y="-311.5" font-family="Vera" font-size="10.00">topo.coordmapper.Jitter</text>
</g>
<!-- topo.base.functionfamily.CoordinateMapperFn&#45;&gt;topo.coordmapper.Jitter -->
<g id="edge4" class="edge"><title>topo.base.functionfamily.CoordinateMapperFn&#45;&gt;topo.coordmapper.Jitter</title>
<path fill="none" stroke="black" stroke-width="0.5" d="M358.097,-191.236C381.227,-214.015 440.791,-268.931 502,-295 515.009,-300.541 529.516,-304.468 543.662,-307.251"/>
<polygon fill="black" stroke="black" points="543.616,-309.023 548.853,-308.226 544.262,-305.584 543.616,-309.023"/>
</g>
<!-- topo.coordmapper.Grid -->
<g id="node7" class="node"><title>topo.coordmapper.Grid</title>
<polygon fill="none" stroke="black" stroke-width="0.5" points="678,-286.5 550,-286.5 550,-265.5 678,-265.5 678,-286.5"/>
<text text-anchor="middle" x="614" y="-273.5" font-family="Vera" font-size="10.00">topo.coordmapper.Grid</text>
</g>
<!-- topo.base.functionfamily.CoordinateMapperFn&#45;&gt;topo.coordmapper.Grid -->
<g id="edge6" class="edge"><title>topo.base.functionfamily.CoordinateMapperFn&#45;&gt;topo.coordmapper.Grid</title>
<path fill="none" stroke="black" stroke-width="0.5" d="M364.412,-191.107C391.853,-207.535 449.243,-239.912 502,-257 515.535,-261.384 530.336,-264.806 544.615,-267.46"/>
<polygon fill="black" stroke="black" points="544.617,-269.239 549.848,-268.404 545.238,-265.794 544.617,-269.239"/>
</g>
<!-- topo.coordmapper.SingleDimensionMapper -->
<g id="node9" class="node"><title>topo.coordmapper.SingleDimensionMapper</title>
<polygon fill="none" stroke="black" stroke-width="0.5" points="726,-248.5 502,-248.5 502,-227.5 726,-227.5 726,-248.5"/>
<text text-anchor="middle" x="614" y="-235.5" font-family="Vera" font-size="10.00">topo.coordmapper.SingleDimensionMapper</text>
</g>
<!-- topo.base.functionfamily.CoordinateMapperFn&#45;&gt;topo.coordmapper.SingleDimensionMapper -->
<g id="edge8" class="edge"><title>topo.base.functionfamily.CoordinateMapperFn&#45;&gt;topo.coordmapper.SingleDimensionMapper</title>
<path fill="none" stroke="black" stroke-width="0.5" d="M385.48,-191.071C416.555,-199.223 461.962,-210.676 502,-219 515.758,-221.86 530.533,-224.6 544.694,-227.065"/>
<polygon fill="black" stroke="black" points="544.656,-228.834 549.881,-227.961 545.251,-225.385 544.656,-228.834"/>
</g>
<!-- topo.coordmapper.OttesSCMapper -->
<g id="node12" class="node"><title>topo.coordmapper.OttesSCMapper</title>
<polygon fill="none" stroke="black" stroke-width="0.5" points="706,-210.5 522,-210.5 522,-189.5 706,-189.5 706,-210.5"/>
<text text-anchor="middle" x="614" y="-197.5" font-family="Vera" font-size="10.00">topo.coordmapper.OttesSCMapper</text>
</g>
<!-- topo.base.functionfamily.CoordinateMapperFn&#45;&gt;topo.coordmapper.OttesSCMapper -->
<g id="edge16" class="edge"><title>topo.base.functionfamily.CoordinateMapperFn&#45;&gt;topo.coordmapper.OttesSCMapper</title>
<path fill="none" stroke="black" stroke-width="0.5" d="M466.221,-189.444C483.07,-190.648 500.241,-191.874 516.632,-193.045"/>
<polygon fill="black" stroke="black" points="516.58,-194.796 521.692,-193.407 516.83,-191.305 516.58,-194.796"/>
</g>
<!-- topo.coordmapper.AffineTransform -->
<g id="node14" class="node"><title>topo.coordmapper.AffineTransform</title>
<polygon fill="none" stroke="black" stroke-width="0.5" points="705,-172.5 523,-172.5 523,-151.5 705,-151.5 705,-172.5"/>
<text text-anchor="middle" x="614" y="-159.5" font-family="Vera" font-size="10.00">topo.coordmapper.AffineTransform</text>
</g>
<!-- topo.base.functionfamily.CoordinateMapperFn&#45;&gt;topo.coordmapper.AffineTransform -->
<g id="edge12" class="edge"><title>topo.base.functionfamily.CoordinateMapperFn&#45;&gt;topo.coordmapper.AffineTransform</title>
<path fill="none" stroke="black" stroke-width="0.5" d="M466.221,-172.556C483.448,-171.325 501.01,-170.071 517.731,-168.876"/>
<polygon fill="black" stroke="black" points="518.03,-170.61 522.893,-168.508 517.781,-167.118 518.03,-170.61"/>
</g>
<!-- topo.coordmapper.Pipeline -->
<g id="node16" class="node"><title>topo.coordmapper.Pipeline</title>
<polygon fill="none" stroke="black" stroke-width="0.5" points="686,-134.5 542,-134.5 542,-113.5 686,-113.5 686,-134.5"/>
<text text-anchor="middle" x="614" y="-121.5" font-family="Vera" font-size="10.00">topo.coordmapper.Pipeline</text>
</g>
<!-- topo.base.functionfamily.CoordinateMapperFn&#45;&gt;topo.coordmapper.Pipeline -->
<g id="edge14" class="edge"><title>topo.base.functionfamily.CoordinateMapperFn&#45;&gt;topo.coordmapper.Pipeline</title>
<path fill="none" stroke="black" stroke-width="0.5" d="M385.48,-170.929C416.555,-162.777 461.962,-151.324 502,-143 515.758,-140.14 530.533,-137.4 544.694,-134.935"/>
<polygon fill="black" stroke="black" points="545.251,-136.615 549.881,-134.039 544.656,-133.166 545.251,-136.615"/>
</g>
<!-- topo.coordmapper.Polar2Cartesian -->
<g id="node19" class="node"><title>topo.coordmapper.Polar2Cartesian</title>
<polygon fill="none" stroke="black" stroke-width="0.5" points="706,-96.5 522,-96.5 522,-75.5 706,-75.5 706,-96.5"/>
<text text-anchor="middle" x="614" y="-83.5" font-family="Vera" font-size="10.00">topo.coordmapper.Polar2Cartesian</text>
</g>
<!-- topo.base.functionfamily.CoordinateMapperFn&#45;&gt;topo.coordmapper.Polar2Cartesian -->
<g id="edge18" class="edge"><title>topo.base.functionfamily.CoordinateMapperFn&#45;&gt;topo.coordmapper.Polar2Cartesian</title>
<path fill="none" stroke="black" stroke-width="0.5" d="M364.412,-170.893C391.853,-154.465 449.243,-122.088 502,-105 511.594,-101.893 521.823,-99.2684 532.052,-97.0585"/>
<polygon fill="black" stroke="black" points="532.536,-98.7452 537.07,-96.0066 531.818,-95.3196 532.536,-98.7452"/>
</g>
<!-- topo.coordmapper.ConstantMapper -->
<g id="node28" class="node"><title>topo.coordmapper.ConstantMapper</title>
<polygon fill="none" stroke="black" stroke-width="0.5" points="708,-58.5 520,-58.5 520,-37.5 708,-37.5 708,-58.5"/>
<text text-anchor="middle" x="614" y="-45.5" font-family="Vera" font-size="10.00">topo.coordmapper.ConstantMapper</text>
</g>
<!-- topo.base.functionfamily.CoordinateMapperFn&#45;&gt;topo.coordmapper.ConstantMapper -->
<g id="edge28" class="edge"><title>topo.base.functionfamily.CoordinateMapperFn&#45;&gt;topo.coordmapper.ConstantMapper</title>
<path fill="none" stroke="black" stroke-width="0.5" d="M358.097,-170.764C381.227,-147.985 440.791,-93.0694 502,-67 508.929,-64.0488 516.283,-61.5553 523.781,-59.4486"/>
<polygon fill="black" stroke="black" points="524.616,-61.0367 528.992,-58.051 523.709,-57.6562 524.616,-61.0367"/>
</g>
<!-- topo.coordmapper.NormalJitter -->
<g id="node32" class="node"><title>topo.coordmapper.NormalJitter</title>
<polygon fill="none" stroke="black" stroke-width="0.5" points="696,-20.5 532,-20.5 532,0.5 696,0.5 696,-20.5"/>
<text text-anchor="middle" x="614" y="-7.5" font-family="Vera" font-size="10.00">topo.coordmapper.NormalJitter</text>
</g>
<!-- topo.base.functionfamily.CoordinateMapperFn&#45;&gt;topo.coordmapper.NormalJitter -->
<g id="edge32" class="edge"><title>topo.base.functionfamily.CoordinateMapperFn&#45;&gt;topo.coordmapper.NormalJitter</title>
<path fill="none" stroke="black" stroke-width="0.5" d="M354.877,-170.73C374.258,-142.704 432.458,-64.6275 502,-29 509.559,-25.1276 517.744,-22.0203 526.13,-19.5304"/>
<polygon fill="black" stroke="black" points="527.033,-21.0946 531.374,-18.0585 526.087,-17.7248 527.033,-21.0946"/>
</g>
<!-- param.parameterized.Parameterized -->
<g id="node4" class="node"><title>param.parameterized.Parameterized</title>
<polygon fill="none" stroke="black" stroke-width="0.5" points="194,-191.5 5.68434e-14,-191.5 0,-170.5 194,-170.5 194,-191.5"/>
<text text-anchor="middle" x="97" y="-178.5" font-family="Vera" font-size="10.00">param.parameterized.Parameterized</text>
</g>
<!-- param.parameterized.Parameterized&#45;&gt;topo.base.functionfamily.CoordinateMapperFn -->
<g id="edge20" class="edge"><title>param.parameterized.Parameterized&#45;&gt;topo.base.functionfamily.CoordinateMapperFn</title>
<path fill="none" stroke="black" stroke-width="0.5" d="M194.043,-181C204.12,-181 214.455,-181 224.77,-181"/>
<polygon fill="black" stroke="black" points="224.831,-182.75 229.831,-181 224.831,-179.25 224.831,-182.75"/>
</g>
<!-- topo.coordmapper.ReducingMapper -->
<g id="node22" class="node"><title>topo.coordmapper.ReducingMapper</title>
<polygon fill="none" stroke="black" stroke-width="0.5" points="962,-324.5 776,-324.5 776,-303.5 962,-303.5 962,-324.5"/>
<text text-anchor="middle" x="869" y="-311.5" font-family="Vera" font-size="10.00">topo.coordmapper.ReducingMapper</text>
</g>
<!-- topo.coordmapper.SingleDimensionMapper&#45;&gt;topo.coordmapper.ReducingMapper -->
<g id="edge22" class="edge"><title>topo.coordmapper.SingleDimensionMapper&#45;&gt;topo.coordmapper.ReducingMapper</title>
<path fill="none" stroke="black" stroke-width="0.5" d="M704.367,-248.005C711.897,-250.42 719.214,-253.379 726,-257 746.524,-267.954 741.518,-283.968 762,-295 767.256,-297.831 772.847,-300.252 778.61,-302.322"/>
<polygon fill="black" stroke="black" points="778.191,-304.028 783.488,-303.979 779.317,-300.714 778.191,-304.028"/>
</g>
<!-- topo.coordmapper.MagnifyingMapper -->
<g id="node24" class="node"><title>topo.coordmapper.MagnifyingMapper</title>
<polygon fill="none" stroke="black" stroke-width="0.5" points="966,-286.5 772,-286.5 772,-265.5 966,-265.5 966,-286.5"/>
<text text-anchor="middle" x="869" y="-273.5" font-family="Vera" font-size="10.00">topo.coordmapper.MagnifyingMapper</text>
</g>
<!-- topo.coordmapper.SingleDimensionMapper&#45;&gt;topo.coordmapper.MagnifyingMapper -->
<g id="edge24" class="edge"><title>topo.coordmapper.SingleDimensionMapper&#45;&gt;topo.coordmapper.MagnifyingMapper</title>
<path fill="none" stroke="black" stroke-width="0.5" d="M681.332,-248.034C716.773,-253.315 760.262,-259.796 796.449,-265.189"/>
<polygon fill="black" stroke="black" points="796.53,-266.97 801.733,-265.976 797.046,-263.508 796.53,-266.97"/>
</g>
<!-- topo.coordmapper.OttesSCSenseMapper -->
<g id="node11" class="node"><title>topo.coordmapper.OttesSCSenseMapper</title>
<polygon fill="none" stroke="black" stroke-width="0.5" points="976,-248.5 762,-248.5 762,-227.5 976,-227.5 976,-248.5"/>
<text text-anchor="middle" x="869" y="-235.5" font-family="Vera" font-size="10.00">topo.coordmapper.OttesSCSenseMapper</text>
</g>
<!-- topo.coordmapper.OttesSCMapper&#45;&gt;topo.coordmapper.OttesSCSenseMapper -->
<g id="edge10" class="edge"><title>topo.coordmapper.OttesSCMapper&#45;&gt;topo.coordmapper.OttesSCSenseMapper</title>
<path fill="none" stroke="black" stroke-width="0.5" d="M681.332,-210.034C716.773,-215.315 760.262,-221.796 796.449,-227.189"/>
<polygon fill="black" stroke="black" points="796.53,-228.97 801.733,-227.976 797.046,-225.508 796.53,-228.97"/>
</g>
<!-- topo.coordmapper.OttesSCMotorMapper -->
<g id="node26" class="node"><title>topo.coordmapper.OttesSCMotorMapper</title>
<polygon fill="none" stroke="black" stroke-width="0.5" points="975,-210.5 763,-210.5 763,-189.5 975,-189.5 975,-210.5"/>
<text text-anchor="middle" x="869" y="-197.5" font-family="Vera" font-size="10.00">topo.coordmapper.OttesSCMotorMapper</text>
</g>
<!-- topo.coordmapper.OttesSCMapper&#45;&gt;topo.coordmapper.OttesSCMotorMapper -->
<g id="edge26" class="edge"><title>topo.coordmapper.OttesSCMapper&#45;&gt;topo.coordmapper.OttesSCMotorMapper</title>
<path fill="none" stroke="black" stroke-width="0.5" d="M706.061,-200C722.739,-200 740.295,-200 757.46,-200"/>
<polygon fill="black" stroke="black" points="757.773,-201.75 762.773,-200 757.773,-198.25 757.773,-201.75"/>
</g>
<!-- topo.coordmapper.Scale2d -->
<g id="node30" class="node"><title>topo.coordmapper.Scale2d</title>
<polygon fill="none" stroke="black" stroke-width="0.5" points="942,-172.5 796,-172.5 796,-151.5 942,-151.5 942,-172.5"/>
<text text-anchor="middle" x="869" y="-159.5" font-family="Vera" font-size="10.00">topo.coordmapper.Scale2d</text>
</g>
<!-- topo.coordmapper.AffineTransform&#45;&gt;topo.coordmapper.Scale2d -->
<g id="edge30" class="edge"><title>topo.coordmapper.AffineTransform&#45;&gt;topo.coordmapper.Scale2d</title>
<path fill="none" stroke="black" stroke-width="0.5" d="M705.341,-162C733.324,-162 763.841,-162 790.86,-162"/>
<polygon fill="black" stroke="black" points="790.863,-163.75 795.863,-162 790.863,-160.25 790.863,-163.75"/>
</g>
<!-- topo.coordmapper.Rotate2d -->
<g id="node34" class="node"><title>topo.coordmapper.Rotate2d</title>
<polygon fill="none" stroke="black" stroke-width="0.5" points="944,-134.5 794,-134.5 794,-113.5 944,-113.5 944,-134.5"/>
<text text-anchor="middle" x="869" y="-121.5" font-family="Vera" font-size="10.00">topo.coordmapper.Rotate2d</text>
</g>
<!-- topo.coordmapper.AffineTransform&#45;&gt;topo.coordmapper.Rotate2d -->
<g id="edge34" class="edge"><title>topo.coordmapper.AffineTransform&#45;&gt;topo.coordmapper.Rotate2d</title>
<path fill="none" stroke="black" stroke-width="0.5" d="M681.332,-151.966C716.773,-146.685 760.262,-140.204 796.449,-134.811"/>
<polygon fill="black" stroke="black" points="797.046,-136.492 801.733,-134.024 796.53,-133.03 797.046,-136.492"/>
</g>
<!-- topo.coordmapper.Translate2d -->
<g id="node36" class="node"><title>topo.coordmapper.Translate2d</title>
<polygon fill="none" stroke="black" stroke-width="0.5" points="950,-96.5 788,-96.5 788,-75.5 950,-75.5 950,-96.5"/>
<text text-anchor="middle" x="869" y="-83.5" font-family="Vera" font-size="10.00">topo.coordmapper.Translate2d</text>
</g>
<!-- topo.coordmapper.AffineTransform&#45;&gt;topo.coordmapper.Translate2d -->
<g id="edge36" class="edge"><title>topo.coordmapper.AffineTransform&#45;&gt;topo.coordmapper.Translate2d</title>
<path fill="none" stroke="black" stroke-width="0.5" d="M704.367,-151.995C711.897,-149.58 719.214,-146.621 726,-143 746.524,-132.046 741.518,-116.032 762,-105 768.411,-101.547 775.32,-98.7033 782.433,-96.3636"/>
<polygon fill="black" stroke="black" points="783.131,-97.9792 787.385,-94.8231 782.091,-94.6372 783.131,-97.9792"/>
</g>
</g>
</svg>
