<?xml version="1.0" encoding="UTF-8" standalone="no"?>
<!DOCTYPE svg PUBLIC "-//W3C//DTD SVG 1.1//EN"
 "http://www.w3.org/Graphics/SVG/1.1/DTD/svg11.dtd">
<!-- Generated by graphviz version 2.26.3 (20100126.1600)
 -->
<!-- Title: inheritancee98780f367 Pages: 1 -->
<svg width="572pt" height="104pt"
 viewBox="0.00 0.00 572.00 104.00" xmlns="http://www.w3.org/2000/svg" xmlns:xlink="http://www.w3.org/1999/xlink">
<g id="graph1" class="graph" transform="scale(1 1) rotate(0) translate(4 100)">
<title>inheritancee98780f367</title>
<polygon fill="white" stroke="white" points="-4,5 -4,-100 569,-100 569,5 -4,5"/>
<!-- topo.ep.SumUnit -->
<g id="node1" class="node"><title>topo.ep.SumUnit</title>
<polygon fill="none" stroke="black" stroke-width="0.5" points="548,-96 456,-96 456,-76 548,-76 548,-96"/>
<text text-anchor="middle" x="502" y="-83" font-family="Vera" font-size="10.00">topo.ep.SumUnit</text>
</g>
<!-- topo.base.simulation.EventProcessor -->
<g id="node2" class="node"><title>topo.base.simulation.EventProcessor</title>
<polygon fill="none" stroke="black" stroke-width="0.5" points="404,-58 220,-58 220,-38 404,-38 404,-58"/>
<text text-anchor="middle" x="312" y="-45" font-family="Vera" font-size="10.00">topo.base.simulation.EventProcessor</text>
</g>
<!-- topo.base.simulation.EventProcessor&#45;&gt;topo.ep.SumUnit -->
<g id="edge2" class="edge"><title>topo.base.simulation.EventProcessor&#45;&gt;topo.ep.SumUnit</title>
<path fill="none" stroke="black" stroke-width="0.5" d="M362.418,-58.0835C389.534,-63.5068 422.917,-70.1834 450.236,-75.6473"/>
<polygon fill="black" stroke="black" points="450.018,-77.3882 455.264,-76.6528 450.704,-73.9561 450.018,-77.3882"/>
</g>
<!-- topo.ep.ThresholdUnit -->
<g id="node6" class="node"><title>topo.ep.ThresholdUnit</title>
<polygon fill="none" stroke="black" stroke-width="0.5" points="561,-58 443,-58 443,-38 561,-38 561,-58"/>
<text text-anchor="middle" x="502" y="-45" font-family="Vera" font-size="10.00">topo.ep.ThresholdUnit</text>
</g>
<!-- topo.base.simulation.EventProcessor&#45;&gt;topo.ep.ThresholdUnit -->
<g id="edge6" class="edge"><title>topo.base.simulation.EventProcessor&#45;&gt;topo.ep.ThresholdUnit</title>
<path fill="none" stroke="black" stroke-width="0.5" d="M404.217,-48C415.349,-48 426.532,-48 437.153,-48"/>
<polygon fill="black" stroke="black" points="437.32,-49.7501 442.32,-48 437.32,-46.2501 437.32,-49.7501"/>
</g>
<!-- topo.ep.PulseGenerator -->
<g id="node8" class="node"><title>topo.ep.PulseGenerator</title>
<polygon fill="none" stroke="black" stroke-width="0.5" points="564,-20 440,-20 440,-1.06581e-14 564,-3.55271e-15 564,-20"/>
<text text-anchor="middle" x="502" y="-7" font-family="Vera" font-size="10.00">topo.ep.PulseGenerator</text>
</g>
<!-- topo.base.simulation.EventProcessor&#45;&gt;topo.ep.PulseGenerator -->
<g id="edge8" class="edge"><title>topo.base.simulation.EventProcessor&#45;&gt;topo.ep.PulseGenerator</title>
<path fill="none" stroke="black" stroke-width="0.5" d="M362.418,-37.9165C388.395,-32.7209 420.125,-26.375 446.764,-21.0471"/>
<polygon fill="black" stroke="black" points="447.117,-22.7613 451.677,-20.0647 446.431,-19.3293 447.117,-22.7613"/>
</g>
<!-- param.parameterized.Parameterized -->
<g id="node4" class="node"><title>param.parameterized.Parameterized</title>
<polygon fill="none" stroke="black" stroke-width="0.5" points="184,-58 8.52651e-14,-58 0,-38 184,-38 184,-58"/>
<text text-anchor="middle" x="92" y="-45" font-family="Vera" font-size="10.00">param.parameterized.Parameterized</text>
</g>
<!-- param.parameterized.Parameterized&#45;&gt;topo.base.simulation.EventProcessor -->
<g id="edge4" class="edge"><title>param.parameterized.Parameterized&#45;&gt;topo.base.simulation.EventProcessor</title>
<path fill="none" stroke="black" stroke-width="0.5" d="M184.025,-48C194.245,-48 204.678,-48 214.957,-48"/>
<polygon fill="black" stroke="black" points="214.99,-49.7501 219.99,-48 214.99,-46.2501 214.99,-49.7501"/>
</g>
</g>
</svg>
