<?xml version="1.0" encoding="UTF-8" standalone="no"?>
<!DOCTYPE svg PUBLIC "-//W3C//DTD SVG 1.1//EN"
 "http://www.w3.org/Graphics/SVG/1.1/DTD/svg11.dtd">
<!-- Generated by graphviz version 2.26.3 (20100126.1600)
 -->
<!-- Title: inheritance67133f51a2 Pages: 1 -->
<svg width="668pt" height="142pt"
 viewBox="0.00 0.00 668.00 142.00" xmlns="http://www.w3.org/2000/svg" xmlns:xlink="http://www.w3.org/1999/xlink">
<g id="graph1" class="graph" transform="scale(1 1) rotate(0) translate(4 138)">
<title>inheritance67133f51a2</title>
<polygon fill="white" stroke="white" points="-4,5 -4,-138 665,-138 665,5 -4,5"/>
<!-- topo.tests.unit.sheetmask_setup.RightColMask -->
<g id="node1" class="node"><title>topo.tests.unit.sheetmask_setup.RightColMask</title>
<polygon fill="none" stroke="black" stroke-width="0.5" points="652,-134 426,-134 426,-114 652,-114 652,-134"/>
<text text-anchor="middle" x="539" y="-121" font-family="Vera" font-size="10.00">topo.tests.unit.sheetmask_setup.RightColMask</text>
</g>
<!-- topo.base.projection.SheetMask -->
<g id="node2" class="node"><title>topo.base.projection.SheetMask</title>
<polygon fill="none" stroke="black" stroke-width="0.5" points="382,-77 220,-77 220,-57 382,-57 382,-77"/>
<text text-anchor="middle" x="301" y="-64" font-family="Vera" font-size="10.00">topo.base.projection.SheetMask</text>
</g>
<!-- topo.base.projection.SheetMask&#45;&gt;topo.tests.unit.sheetmask_setup.RightColMask -->
<g id="edge2" class="edge"><title>topo.base.projection.SheetMask&#45;&gt;topo.tests.unit.sheetmask_setup.RightColMask</title>
<path fill="none" stroke="black" stroke-width="0.5" d="M328.073,-77.146C351.566,-85.6222 386.637,-97.4943 418,-105 430.893,-108.085 444.682,-110.795 458.167,-113.129"/>
<polygon fill="black" stroke="black" points="457.896,-114.858 463.119,-113.971 458.484,-111.407 457.896,-114.858"/>
</g>
<!-- topo.tests.unit.sheetmask_setup.BottomRowMask -->
<g id="node5" class="node"><title>topo.tests.unit.sheetmask_setup.BottomRowMask</title>
<polygon fill="none" stroke="black" stroke-width="0.5" points="660,-96 418,-96 418,-76 660,-76 660,-96"/>
<text text-anchor="middle" x="539" y="-83" font-family="Vera" font-size="10.00">topo.tests.unit.sheetmask_setup.BottomRowMask</text>
</g>
<!-- topo.base.projection.SheetMask&#45;&gt;topo.tests.unit.sheetmask_setup.BottomRowMask -->
<g id="edge4" class="edge"><title>topo.base.projection.SheetMask&#45;&gt;topo.tests.unit.sheetmask_setup.BottomRowMask</title>
<path fill="none" stroke="black" stroke-width="0.5" d="M382.24,-73.4856C392.077,-74.2709 402.298,-75.0868 412.593,-75.9086"/>
<polygon fill="black" stroke="black" points="412.528,-77.6589 417.651,-76.3125 412.806,-74.17 412.528,-77.6589"/>
</g>
<!-- topo.tests.unit.sheetmask_setup.TopRowMask -->
<g id="node7" class="node"><title>topo.tests.unit.sheetmask_setup.TopRowMask</title>
<polygon fill="none" stroke="black" stroke-width="0.5" points="651,-58 427,-58 427,-38 651,-38 651,-58"/>
<text text-anchor="middle" x="539" y="-45" font-family="Vera" font-size="10.00">topo.tests.unit.sheetmask_setup.TopRowMask</text>
</g>
<!-- topo.base.projection.SheetMask&#45;&gt;topo.tests.unit.sheetmask_setup.TopRowMask -->
<g id="edge6" class="edge"><title>topo.base.projection.SheetMask&#45;&gt;topo.tests.unit.sheetmask_setup.TopRowMask</title>
<path fill="none" stroke="black" stroke-width="0.5" d="M382.24,-60.5144C394.723,-59.5179 407.824,-58.472 420.91,-57.4274"/>
<polygon fill="black" stroke="black" points="421.274,-59.1539 426.119,-57.0115 420.996,-55.665 421.274,-59.1539"/>
</g>
<!-- topo.tests.unit.sheetmask_setup.LeftColMask -->
<g id="node9" class="node"><title>topo.tests.unit.sheetmask_setup.LeftColMask</title>
<polygon fill="none" stroke="black" stroke-width="0.5" points="649,-20 429,-20 429,-1.06581e-14 649,-3.55271e-15 649,-20"/>
<text text-anchor="middle" x="539" y="-7" font-family="Vera" font-size="10.00">topo.tests.unit.sheetmask_setup.LeftColMask</text>
</g>
<!-- topo.base.projection.SheetMask&#45;&gt;topo.tests.unit.sheetmask_setup.LeftColMask -->
<g id="edge8" class="edge"><title>topo.base.projection.SheetMask&#45;&gt;topo.tests.unit.sheetmask_setup.LeftColMask</title>
<path fill="none" stroke="black" stroke-width="0.5" d="M328.073,-56.854C351.566,-48.3778 386.637,-36.5057 418,-29 430.893,-25.9145 444.682,-23.2051 458.167,-20.8714"/>
<polygon fill="black" stroke="black" points="458.484,-22.5928 463.119,-20.0287 457.896,-19.1424 458.484,-22.5928"/>
</g>
<!-- param.parameterized.Parameterized -->
<g id="node4" class="node"><title>param.parameterized.Parameterized</title>
<polygon fill="none" stroke="black" stroke-width="0.5" points="184,-77 8.52651e-14,-77 0,-57 184,-57 184,-77"/>
<text text-anchor="middle" x="92" y="-64" font-family="Vera" font-size="10.00">param.parameterized.Parameterized</text>
</g>
<!-- param.parameterized.Parameterized&#45;&gt;topo.base.projection.SheetMask -->
<g id="edge10" class="edge"><title>param.parameterized.Parameterized&#45;&gt;topo.base.projection.SheetMask</title>
<path fill="none" stroke="black" stroke-width="0.5" d="M184.279,-67C194.336,-67 204.546,-67 214.529,-67"/>
<polygon fill="black" stroke="black" points="214.728,-68.7501 219.728,-67 214.728,-65.2501 214.728,-68.7501"/>
</g>
</g>
</svg>
