<?xml version="1.0" encoding="UTF-8" standalone="no"?>
<!DOCTYPE svg PUBLIC "-//W3C//DTD SVG 1.1//EN"
 "http://www.w3.org/Graphics/SVG/1.1/DTD/svg11.dtd">
<!-- Generated by graphviz version 2.26.3 (20100126.1600)
 -->
<!-- Title: inheritancea9586fb404 Pages: 1 -->
<svg width="614pt" height="256pt"
 viewBox="0.00 0.00 614.00 256.00" xmlns="http://www.w3.org/2000/svg" xmlns:xlink="http://www.w3.org/1999/xlink">
<g id="graph1" class="graph" transform="scale(1 1) rotate(0) translate(4 252)">
<title>inheritancea9586fb404</title>
<polygon fill="white" stroke="white" points="-4,5 -4,-252 611,-252 611,5 -4,5"/>
<!-- imagen.transferfn.DivisiveNormalizeL2 -->
<g id="node1" class="node"><title>imagen.transferfn.DivisiveNormalizeL2</title>
<polygon fill="none" stroke="black" stroke-width="0.5" points="602,-248 410,-248 410,-228 602,-228 602,-248"/>
<text text-anchor="middle" x="506" y="-235" font-family="Vera" font-size="10.00">imagen.transferfn.DivisiveNormalizeL2</text>
</g>
<!-- imagen.transferfn.TransferFn -->
<g id="node2" class="node"><title>imagen.transferfn.TransferFn</title>
<polygon fill="none" stroke="black" stroke-width="0.5" points="370,-134 220,-134 220,-114 370,-114 370,-134"/>
<text text-anchor="middle" x="295" y="-121" font-family="Vera" font-size="10.00">imagen.transferfn.TransferFn</text>
</g>
<!-- imagen.transferfn.TransferFn&#45;&gt;imagen.transferfn.DivisiveNormalizeL2 -->
<g id="edge2" class="edge"><title>imagen.transferfn.TransferFn&#45;&gt;imagen.transferfn.DivisiveNormalizeL2</title>
<path fill="none" stroke="black" stroke-width="0.5" d="M303.573,-134.268C320.77,-154.123 361.644,-197.693 406,-219 412.029,-221.896 418.462,-224.352 425.047,-226.433"/>
<polygon fill="black" stroke="black" points="424.816,-228.191 430.108,-227.953 425.822,-224.838 424.816,-228.191"/>
</g>
<!-- imagen.transferfn.IdentityTF -->
<g id="node4" class="node"><title>imagen.transferfn.IdentityTF</title>
<polygon fill="none" stroke="black" stroke-width="0.5" points="579,-210 433,-210 433,-190 579,-190 579,-210"/>
<text text-anchor="middle" x="506" y="-197" font-family="Vera" font-size="10.00">imagen.transferfn.IdentityTF</text>
</g>
<!-- imagen.transferfn.TransferFn&#45;&gt;imagen.transferfn.IdentityTF -->
<g id="edge4" class="edge"><title>imagen.transferfn.TransferFn&#45;&gt;imagen.transferfn.IdentityTF</title>
<path fill="none" stroke="black" stroke-width="0.5" d="M310.898,-134.027C331.885,-146.818 370.353,-168.747 406,-181 414.895,-184.057 424.413,-186.665 433.912,-188.877"/>
<polygon fill="black" stroke="black" points="433.611,-190.603 438.873,-189.998 434.382,-187.189 433.611,-190.603"/>
</g>
<!-- imagen.transferfn.DivisiveNormalizeL1 -->
<g id="node6" class="node"><title>imagen.transferfn.DivisiveNormalizeL1</title>
<polygon fill="none" stroke="black" stroke-width="0.5" points="602,-172 410,-172 410,-152 602,-152 602,-172"/>
<text text-anchor="middle" x="506" y="-159" font-family="Vera" font-size="10.00">imagen.transferfn.DivisiveNormalizeL1</text>
</g>
<!-- imagen.transferfn.TransferFn&#45;&gt;imagen.transferfn.DivisiveNormalizeL1 -->
<g id="edge6" class="edge"><title>imagen.transferfn.TransferFn&#45;&gt;imagen.transferfn.DivisiveNormalizeL1</title>
<path fill="none" stroke="black" stroke-width="0.5" d="M350.714,-134.034C379.799,-139.272 415.435,-145.69 445.23,-151.056"/>
<polygon fill="black" stroke="black" points="445.109,-152.812 450.34,-151.976 445.73,-149.367 445.109,-152.812"/>
</g>
<!-- imagen.transferfn.DivisiveNormalizeLp -->
<g id="node9" class="node"><title>imagen.transferfn.DivisiveNormalizeLp</title>
<polygon fill="none" stroke="black" stroke-width="0.5" points="602,-134 410,-134 410,-114 602,-114 602,-134"/>
<text text-anchor="middle" x="506" y="-121" font-family="Vera" font-size="10.00">imagen.transferfn.DivisiveNormalizeLp</text>
</g>
<!-- imagen.transferfn.TransferFn&#45;&gt;imagen.transferfn.DivisiveNormalizeLp -->
<g id="edge8" class="edge"><title>imagen.transferfn.TransferFn&#45;&gt;imagen.transferfn.DivisiveNormalizeLp</title>
<path fill="none" stroke="black" stroke-width="0.5" d="M370.282,-124C381.264,-124 392.723,-124 404.125,-124"/>
<polygon fill="black" stroke="black" points="404.358,-125.75 409.358,-124 404.358,-122.25 404.358,-125.75"/>
</g>
<!-- imagen.transferfn.BinaryThreshold -->
<g id="node12" class="node"><title>imagen.transferfn.BinaryThreshold</title>
<polygon fill="none" stroke="black" stroke-width="0.5" points="594,-96 418,-96 418,-76 594,-76 594,-96"/>
<text text-anchor="middle" x="506" y="-83" font-family="Vera" font-size="10.00">imagen.transferfn.BinaryThreshold</text>
</g>
<!-- imagen.transferfn.TransferFn&#45;&gt;imagen.transferfn.BinaryThreshold -->
<g id="edge12" class="edge"><title>imagen.transferfn.TransferFn&#45;&gt;imagen.transferfn.BinaryThreshold</title>
<path fill="none" stroke="black" stroke-width="0.5" d="M350.714,-113.966C379.799,-108.728 415.435,-102.31 445.23,-96.9443"/>
<polygon fill="black" stroke="black" points="445.73,-98.6326 450.34,-96.024 445.109,-95.188 445.73,-98.6326"/>
</g>
<!-- imagen.transferfn.DivisiveNormalizeLinf -->
<g id="node14" class="node"><title>imagen.transferfn.DivisiveNormalizeLinf</title>
<polygon fill="none" stroke="black" stroke-width="0.5" points="605,-58 407,-58 407,-38 605,-38 605,-58"/>
<text text-anchor="middle" x="506" y="-45" font-family="Vera" font-size="10.00">imagen.transferfn.DivisiveNormalizeLinf</text>
</g>
<!-- imagen.transferfn.TransferFn&#45;&gt;imagen.transferfn.DivisiveNormalizeLinf -->
<g id="edge14" class="edge"><title>imagen.transferfn.TransferFn&#45;&gt;imagen.transferfn.DivisiveNormalizeLinf</title>
<path fill="none" stroke="black" stroke-width="0.5" d="M310.898,-113.973C331.885,-101.182 370.353,-79.253 406,-67 414.895,-63.9426 424.413,-61.3353 433.912,-59.123"/>
<polygon fill="black" stroke="black" points="434.382,-60.8109 438.873,-58.0019 433.611,-57.397 434.382,-60.8109"/>
</g>
<!-- imagen.transferfn.Threshold -->
<g id="node16" class="node"><title>imagen.transferfn.Threshold</title>
<polygon fill="none" stroke="black" stroke-width="0.5" points="579,-20 433,-20 433,-1.06581e-14 579,-3.55271e-15 579,-20"/>
<text text-anchor="middle" x="506" y="-7" font-family="Vera" font-size="10.00">imagen.transferfn.Threshold</text>
</g>
<!-- imagen.transferfn.TransferFn&#45;&gt;imagen.transferfn.Threshold -->
<g id="edge16" class="edge"><title>imagen.transferfn.TransferFn&#45;&gt;imagen.transferfn.Threshold</title>
<path fill="none" stroke="black" stroke-width="0.5" d="M303.573,-113.732C320.77,-93.8773 361.644,-50.3074 406,-29 412.795,-25.736 420.102,-23.0322 427.561,-20.7925"/>
<polygon fill="black" stroke="black" points="428.417,-22.3685 432.745,-19.315 427.457,-19.0025 428.417,-22.3685"/>
</g>
<!-- param.parameterized.Parameterized -->
<g id="node8" class="node"><title>param.parameterized.Parameterized</title>
<polygon fill="none" stroke="black" stroke-width="0.5" points="184,-134 8.52651e-14,-134 0,-114 184,-114 184,-134"/>
<text text-anchor="middle" x="92" y="-121" font-family="Vera" font-size="10.00">param.parameterized.Parameterized</text>
</g>
<!-- param.parameterized.Parameterized&#45;&gt;imagen.transferfn.TransferFn -->
<g id="edge10" class="edge"><title>param.parameterized.Parameterized&#45;&gt;imagen.transferfn.TransferFn</title>
<path fill="none" stroke="black" stroke-width="0.5" d="M184.293,-124C194.461,-124 204.753,-124 214.756,-124"/>
<polygon fill="black" stroke="black" points="214.959,-125.75 219.959,-124 214.959,-122.25 214.959,-125.75"/>
</g>
</g>
</svg>
