<?xml version="1.0" encoding="UTF-8" standalone="no"?>
<!DOCTYPE svg PUBLIC "-//W3C//DTD SVG 1.1//EN"
 "http://www.w3.org/Graphics/SVG/1.1/DTD/svg11.dtd">
<!-- Generated by graphviz version 2.26.3 (20100126.1600)
 -->
<!-- Title: inheritance8c61d587de Pages: 1 -->
<svg width="166pt" height="294pt"
 viewBox="0.00 0.00 166.00 294.00" xmlns="http://www.w3.org/2000/svg" xmlns:xlink="http://www.w3.org/1999/xlink">
<g id="graph1" class="graph" transform="scale(1 1) rotate(0) translate(4 290)">
<title>inheritance8c61d587de</title>
<polygon fill="white" stroke="white" points="-4,5 -4,-290 163,-290 163,5 -4,5"/>
<!-- topo.misc.asizeof._Claskey -->
<g id="node1" class="node"><title>topo.misc.asizeof._Claskey</title>
<polygon fill="none" stroke="black" stroke-width="0.5" points="151,-20.5 7,-20.5 7,0.5 151,0.5 151,-20.5"/>
<text text-anchor="middle" x="79" y="-7.5" font-family="Vera" font-size="10.00">topo.misc.asizeof._Claskey</text>
</g>
<!-- topo.misc.asizeof._Instkey -->
<g id="node2" class="node"><title>topo.misc.asizeof._Instkey</title>
<polygon fill="none" stroke="black" stroke-width="0.5" points="150,-58.5 8,-58.5 8,-37.5 150,-37.5 150,-58.5"/>
<text text-anchor="middle" x="79" y="-45.5" font-family="Vera" font-size="10.00">topo.misc.asizeof._Instkey</text>
</g>
<!-- topo.misc.asizeof._Prof -->
<g id="node3" class="node"><title>topo.misc.asizeof._Prof</title>
<polygon fill="none" stroke="black" stroke-width="0.5" points="142,-96.5 16,-96.5 16,-75.5 142,-75.5 142,-96.5"/>
<text text-anchor="middle" x="79" y="-83.5" font-family="Vera" font-size="10.00">topo.misc.asizeof._Prof</text>
</g>
<!-- topo.misc.asizeof._NamedRef -->
<g id="node4" class="node"><title>topo.misc.asizeof._NamedRef</title>
<polygon fill="none" stroke="black" stroke-width="0.5" points="158,-134.5 7.10543e-14,-134.5 0,-113.5 158,-113.5 158,-134.5"/>
<text text-anchor="middle" x="79" y="-121.5" font-family="Vera" font-size="10.00">topo.misc.asizeof._NamedRef</text>
</g>
<!-- topo.misc.asizeof.Asizer -->
<g id="node5" class="node"><title>topo.misc.asizeof.Asizer</title>
<polygon fill="none" stroke="black" stroke-width="0.5" points="145,-172.5 13,-172.5 13,-151.5 145,-151.5 145,-172.5"/>
<text text-anchor="middle" x="79" y="-159.5" font-family="Vera" font-size="10.00">topo.misc.asizeof.Asizer</text>
</g>
<!-- topo.misc.asizeof._Slots -->
<g id="node6" class="node"><title>topo.misc.asizeof._Slots</title>
<polygon fill="none" stroke="black" stroke-width="0.5" points="145,-210.5 13,-210.5 13,-189.5 145,-189.5 145,-210.5"/>
<text text-anchor="middle" x="79" y="-197.5" font-family="Vera" font-size="10.00">topo.misc.asizeof._Slots</text>
</g>
<!-- topo.misc.asizeof._Typedef -->
<g id="node7" class="node"><title>topo.misc.asizeof._Typedef</title>
<polygon fill="none" stroke="black" stroke-width="0.5" points="151,-248.5 7,-248.5 7,-227.5 151,-227.5 151,-248.5"/>
<text text-anchor="middle" x="79" y="-235.5" font-family="Vera" font-size="10.00">topo.misc.asizeof._Typedef</text>
</g>
<!-- topo.misc.asizeof.Asized -->
<g id="node8" class="node"><title>topo.misc.asizeof.Asized</title>
<polygon fill="none" stroke="black" stroke-width="0.5" points="146,-286.5 12,-286.5 12,-265.5 146,-265.5 146,-286.5"/>
<text text-anchor="middle" x="79" y="-273.5" font-family="Vera" font-size="10.00">topo.misc.asizeof.Asized</text>
</g>
</g>
</svg>
