<?xml version="1.0" encoding="UTF-8" standalone="no"?>
<!DOCTYPE svg PUBLIC "-//W3C//DTD SVG 1.1//EN"
 "http://www.w3.org/Graphics/SVG/1.1/DTD/svg11.dtd">
<!-- Generated by graphviz version 2.26.3 (20100126.1600)
 -->
<!-- Title: inheritance6b99715b23 Pages: 1 -->
<svg width="1302pt" height="161pt"
 viewBox="0.00 0.00 1302.00 161.00" xmlns="http://www.w3.org/2000/svg" xmlns:xlink="http://www.w3.org/1999/xlink">
<g id="graph1" class="graph" transform="scale(1 1) rotate(0) translate(4 157)">
<title>inheritance6b99715b23</title>
<polygon fill="white" stroke="white" points="-4,5 -4,-157 1299,-157 1299,5 -4,5"/>
<!-- topo.projection.OneToOneProjection -->
<g id="node1" class="node"><title>topo.projection.OneToOneProjection</title>
<polygon fill="none" stroke="black" stroke-width="0.5" points="839,-96 657,-96 657,-76 839,-76 839,-96"/>
<text text-anchor="middle" x="748" y="-83" font-family="Vera" font-size="10.00">topo.projection.OneToOneProjection</text>
</g>
<!-- topo.base.projection.Projection -->
<g id="node2" class="node"><title>topo.base.projection.Projection</title>
<polygon fill="none" stroke="black" stroke-width="0.5" points="606,-77 448,-77 448,-57 606,-57 606,-77"/>
<text text-anchor="middle" x="527" y="-64" font-family="Vera" font-size="10.00">topo.base.projection.Projection</text>
</g>
<!-- topo.base.projection.Projection&#45;&gt;topo.projection.OneToOneProjection -->
<g id="edge2" class="edge"><title>topo.base.projection.Projection&#45;&gt;topo.projection.OneToOneProjection</title>
<path fill="none" stroke="black" stroke-width="0.5" d="M606.162,-73.8058C620.739,-75.059 636.109,-76.3804 651.138,-77.6725"/>
<polygon fill="black" stroke="black" points="651.088,-79.4246 656.22,-78.1094 651.388,-75.9374 651.088,-79.4246"/>
</g>
<!-- topo.base.cf.CFProjection -->
<g id="node12" class="node"><title>topo.base.cf.CFProjection</title>
<polygon fill="none" stroke="black" stroke-width="0.5" points="813,-58 683,-58 683,-38 813,-38 813,-58"/>
<text text-anchor="middle" x="748" y="-45" font-family="Vera" font-size="10.00">topo.base.cf.CFProjection</text>
</g>
<!-- topo.base.projection.Projection&#45;&gt;topo.base.cf.CFProjection -->
<g id="edge20" class="edge"><title>topo.base.projection.Projection&#45;&gt;topo.base.cf.CFProjection</title>
<path fill="none" stroke="black" stroke-width="0.5" d="M606.162,-60.1942C629.421,-58.1945 654.7,-56.0212 677.388,-54.0707"/>
<polygon fill="black" stroke="black" points="677.658,-55.8041 682.489,-53.6321 677.358,-52.3169 677.658,-55.8041"/>
</g>
<!-- topo.projection.LeakyCFProjection -->
<g id="node4" class="node"><title>topo.projection.LeakyCFProjection</title>
<polygon fill="none" stroke="black" stroke-width="0.5" points="1293,-96 1123,-96 1123,-76 1293,-76 1293,-96"/>
<text text-anchor="middle" x="1208" y="-83" font-family="Vera" font-size="10.00">topo.projection.LeakyCFProjection</text>
</g>
<!-- topo.base.cf.ResizableCFProjection -->
<g id="node5" class="node"><title>topo.base.cf.ResizableCFProjection</title>
<polygon fill="none" stroke="black" stroke-width="0.5" points="1068,-96 894,-96 894,-76 1068,-76 1068,-96"/>
<text text-anchor="middle" x="981" y="-83" font-family="Vera" font-size="10.00">topo.base.cf.ResizableCFProjection</text>
</g>
<!-- topo.base.cf.ResizableCFProjection&#45;&gt;topo.projection.LeakyCFProjection -->
<g id="edge4" class="edge"><title>topo.base.cf.ResizableCFProjection&#45;&gt;topo.projection.LeakyCFProjection</title>
<path fill="none" stroke="black" stroke-width="0.5" d="M1068.11,-86C1084.2,-86 1101.04,-86 1117.24,-86"/>
<polygon fill="black" stroke="black" points="1117.24,-87.7501 1122.24,-86 1117.24,-84.2501 1117.24,-87.7501"/>
</g>
<!-- topo.base.cf.ConnectionField -->
<g id="node7" class="node"><title>topo.base.cf.ConnectionField</title>
<polygon fill="none" stroke="black" stroke-width="0.5" points="165,-153 19,-153 19,-133 165,-133 165,-153"/>
<text text-anchor="middle" x="92" y="-140" font-family="Vera" font-size="10.00">topo.base.cf.ConnectionField</text>
</g>
<!-- topo.projection.SharedWeightCF -->
<g id="node8" class="node"><title>topo.projection.SharedWeightCF</title>
<polygon fill="none" stroke="black" stroke-width="0.5" points="390,-153 228,-153 228,-133 390,-133 390,-153"/>
<text text-anchor="middle" x="309" y="-140" font-family="Vera" font-size="10.00">topo.projection.SharedWeightCF</text>
</g>
<!-- topo.base.cf.ConnectionField&#45;&gt;topo.projection.SharedWeightCF -->
<g id="edge6" class="edge"><title>topo.base.cf.ConnectionField&#45;&gt;topo.projection.SharedWeightCF</title>
<path fill="none" stroke="black" stroke-width="0.5" d="M165.769,-143C183.851,-143 203.371,-143 222.01,-143"/>
<polygon fill="black" stroke="black" points="222.241,-144.75 227.241,-143 222.241,-141.25 222.241,-144.75"/>
</g>
<!-- param.parameterized.Parameterized -->
<g id="node10" class="node"><title>param.parameterized.Parameterized</title>
<polygon fill="none" stroke="black" stroke-width="0.5" points="184,-96 8.52651e-14,-96 0,-76 184,-76 184,-96"/>
<text text-anchor="middle" x="92" y="-83" font-family="Vera" font-size="10.00">param.parameterized.Parameterized</text>
</g>
<!-- topo.base.cf.CFPOutputFn -->
<g id="node16" class="node"><title>topo.base.cf.CFPOutputFn</title>
<polygon fill="none" stroke="black" stroke-width="0.5" points="376,-115 242,-115 242,-95 376,-95 376,-115"/>
<text text-anchor="middle" x="309" y="-102" font-family="Vera" font-size="10.00">topo.base.cf.CFPOutputFn</text>
</g>
<!-- param.parameterized.Parameterized&#45;&gt;topo.base.cf.CFPOutputFn -->
<g id="edge12" class="edge"><title>param.parameterized.Parameterized&#45;&gt;topo.base.cf.CFPOutputFn</title>
<path fill="none" stroke="black" stroke-width="0.5" d="M184.028,-94.0577C201.615,-95.5976 219.793,-97.1892 236.656,-98.6657"/>
<polygon fill="black" stroke="black" points="236.711,-100.427 241.844,-99.12 237.016,-96.9405 236.711,-100.427"/>
</g>
<!-- topo.base.simulation.EPConnection -->
<g id="node18" class="node"><title>topo.base.simulation.EPConnection</title>
<polygon fill="none" stroke="black" stroke-width="0.5" points="397,-77 221,-77 221,-57 397,-57 397,-77"/>
<text text-anchor="middle" x="309" y="-64" font-family="Vera" font-size="10.00">topo.base.simulation.EPConnection</text>
</g>
<!-- param.parameterized.Parameterized&#45;&gt;topo.base.simulation.EPConnection -->
<g id="edge16" class="edge"><title>param.parameterized.Parameterized&#45;&gt;topo.base.simulation.EPConnection</title>
<path fill="none" stroke="black" stroke-width="0.5" d="M184.028,-77.9423C194.352,-77.0383 204.879,-76.1165 215.225,-75.2107"/>
<polygon fill="black" stroke="black" points="215.46,-76.947 220.288,-74.7674 215.154,-73.4603 215.46,-76.947"/>
</g>
<!-- topo.projection.SharedWeightCFProjection -->
<g id="node11" class="node"><title>topo.projection.SharedWeightCFProjection</title>
<polygon fill="none" stroke="black" stroke-width="0.5" points="1085,-58 877,-58 877,-38 1085,-38 1085,-58"/>
<text text-anchor="middle" x="981" y="-45" font-family="Vera" font-size="10.00">topo.projection.SharedWeightCFProjection</text>
</g>
<!-- topo.base.cf.CFProjection&#45;&gt;topo.base.cf.ResizableCFProjection -->
<g id="edge18" class="edge"><title>topo.base.cf.CFProjection&#45;&gt;topo.base.cf.ResizableCFProjection</title>
<path fill="none" stroke="black" stroke-width="0.5" d="M809.523,-58.0338C841.774,-63.2936 881.318,-69.7429 914.302,-75.1221"/>
<polygon fill="black" stroke="black" points="914.32,-76.8982 919.537,-75.976 914.884,-73.4439 914.32,-76.8982"/>
</g>
<!-- topo.base.cf.CFProjection&#45;&gt;topo.projection.SharedWeightCFProjection -->
<g id="edge8" class="edge"><title>topo.base.cf.CFProjection&#45;&gt;topo.projection.SharedWeightCFProjection</title>
<path fill="none" stroke="black" stroke-width="0.5" d="M813.524,-48C831.516,-48 851.529,-48 871.281,-48"/>
<polygon fill="black" stroke="black" points="871.296,-49.7501 876.296,-48 871.296,-46.2501 871.296,-49.7501"/>
</g>
<!-- topo.projection.ScaledCFProjection -->
<g id="node14" class="node"><title>topo.projection.ScaledCFProjection</title>
<polygon fill="none" stroke="black" stroke-width="0.5" points="1068,-20 894,-20 894,-1.06581e-14 1068,-3.55271e-15 1068,-20"/>
<text text-anchor="middle" x="981" y="-7" font-family="Vera" font-size="10.00">topo.projection.ScaledCFProjection</text>
</g>
<!-- topo.base.cf.CFProjection&#45;&gt;topo.projection.ScaledCFProjection -->
<g id="edge10" class="edge"><title>topo.base.cf.CFProjection&#45;&gt;topo.projection.ScaledCFProjection</title>
<path fill="none" stroke="black" stroke-width="0.5" d="M809.523,-37.9662C841.774,-32.7064 881.318,-26.2571 914.302,-20.8779"/>
<polygon fill="black" stroke="black" points="914.884,-22.5561 919.537,-20.024 914.32,-19.1018 914.884,-22.5561"/>
</g>
<!-- topo.projection.CFPOF_SharedWeight -->
<g id="node23" class="node"><title>topo.projection.CFPOF_SharedWeight</title>
<polygon fill="none" stroke="black" stroke-width="0.5" points="620,-115 434,-115 434,-95 620,-95 620,-115"/>
<text text-anchor="middle" x="527" y="-102" font-family="Vera" font-size="10.00">topo.projection.CFPOF_SharedWeight</text>
</g>
<!-- topo.base.cf.CFPOutputFn&#45;&gt;topo.projection.CFPOF_SharedWeight -->
<g id="edge22" class="edge"><title>topo.base.cf.CFPOutputFn&#45;&gt;topo.projection.CFPOF_SharedWeight</title>
<path fill="none" stroke="black" stroke-width="0.5" d="M376.186,-105C392.882,-105 411.12,-105 428.962,-105"/>
<polygon fill="black" stroke="black" points="428.983,-106.75 433.983,-105 428.983,-103.25 428.983,-106.75"/>
</g>
<!-- topo.base.simulation.EPConnection&#45;&gt;topo.base.projection.Projection -->
<g id="edge14" class="edge"><title>topo.base.simulation.EPConnection&#45;&gt;topo.base.projection.Projection</title>
<path fill="none" stroke="black" stroke-width="0.5" d="M397.669,-67C412.472,-67 427.794,-67 442.489,-67"/>
<polygon fill="black" stroke="black" points="442.873,-68.7501 447.873,-67 442.873,-65.2501 442.873,-68.7501"/>
</g>
</g>
</svg>
