<?xml version="1.0" encoding="UTF-8" standalone="no"?>
<!DOCTYPE svg PUBLIC "-//W3C//DTD SVG 1.1//EN"
 "http://www.w3.org/Graphics/SVG/1.1/DTD/svg11.dtd">
<!-- Generated by graphviz version 2.26.3 (20100126.1600)
 -->
<!-- Title: inheritance1f1dc666b6 Pages: 1 -->
<svg width="914pt" height="199pt"
 viewBox="0.00 0.00 914.00 199.00" xmlns="http://www.w3.org/2000/svg" xmlns:xlink="http://www.w3.org/1999/xlink">
<g id="graph1" class="graph" transform="scale(1 1) rotate(0) translate(4 195)">
<title>inheritance1f1dc666b6</title>
<polygon fill="white" stroke="white" points="-4,5 -4,-195 911,-195 911,5 -4,5"/>
<!-- topo.base.projection.OrMask -->
<g id="node1" class="node"><title>topo.base.projection.OrMask</title>
<polygon fill="none" stroke="black" stroke-width="0.5" points="888,-191 740,-191 740,-171 888,-171 888,-191"/>
<text text-anchor="middle" x="814" y="-178" font-family="Vera" font-size="10.00">topo.base.projection.OrMask</text>
</g>
<!-- topo.base.projection.CompositeSheetMask -->
<g id="node2" class="node"><title>topo.base.projection.CompositeSheetMask</title>
<polygon fill="none" stroke="black" stroke-width="0.5" points="686,-172 476,-172 476,-152 686,-152 686,-172"/>
<text text-anchor="middle" x="581" y="-159" font-family="Vera" font-size="10.00">topo.base.projection.CompositeSheetMask</text>
</g>
<!-- topo.base.projection.CompositeSheetMask&#45;&gt;topo.base.projection.OrMask -->
<g id="edge2" class="edge"><title>topo.base.projection.CompositeSheetMask&#45;&gt;topo.base.projection.OrMask</title>
<path fill="none" stroke="black" stroke-width="0.5" d="M686.252,-170.583C702.505,-171.908 719.052,-173.257 734.613,-174.526"/>
<polygon fill="black" stroke="black" points="734.725,-176.291 739.851,-174.954 735.01,-172.803 734.725,-176.291"/>
</g>
<!-- topo.base.projection.AndMask -->
<g id="node17" class="node"><title>topo.base.projection.AndMask</title>
<polygon fill="none" stroke="black" stroke-width="0.5" points="891,-153 737,-153 737,-133 891,-133 891,-153"/>
<text text-anchor="middle" x="814" y="-140" font-family="Vera" font-size="10.00">topo.base.projection.AndMask</text>
</g>
<!-- topo.base.projection.CompositeSheetMask&#45;&gt;topo.base.projection.AndMask -->
<g id="edge14" class="edge"><title>topo.base.projection.CompositeSheetMask&#45;&gt;topo.base.projection.AndMask</title>
<path fill="none" stroke="black" stroke-width="0.5" d="M686.252,-153.417C701.29,-152.191 716.579,-150.944 731.106,-149.76"/>
<polygon fill="black" stroke="black" points="731.581,-151.477 736.422,-149.326 731.296,-147.988 731.581,-151.477"/>
</g>
<!-- param.parameterized.Parameterized -->
<g id="node4" class="node"><title>param.parameterized.Parameterized</title>
<polygon fill="none" stroke="black" stroke-width="0.5" points="184,-96 8.52651e-14,-96 0,-76 184,-76 184,-96"/>
<text text-anchor="middle" x="92" y="-83" font-family="Vera" font-size="10.00">param.parameterized.Parameterized</text>
</g>
<!-- topo.base.projection.SheetMask -->
<g id="node9" class="node"><title>topo.base.projection.SheetMask</title>
<polygon fill="none" stroke="black" stroke-width="0.5" points="411,-134 249,-134 249,-114 411,-114 411,-134"/>
<text text-anchor="middle" x="330" y="-121" font-family="Vera" font-size="10.00">topo.base.projection.SheetMask</text>
</g>
<!-- param.parameterized.Parameterized&#45;&gt;topo.base.projection.SheetMask -->
<g id="edge22" class="edge"><title>param.parameterized.Parameterized&#45;&gt;topo.base.projection.SheetMask</title>
<path fill="none" stroke="black" stroke-width="0.5" d="M154.843,-96.0338C187.786,-101.294 228.179,-107.743 261.87,-113.122"/>
<polygon fill="black" stroke="black" points="262.004,-114.916 267.218,-113.976 262.556,-111.459 262.004,-114.916"/>
</g>
<!-- topo.base.simulation.EPConnection -->
<g id="node12" class="node"><title>topo.base.simulation.EPConnection</title>
<polygon fill="none" stroke="black" stroke-width="0.5" points="418,-96 242,-96 242,-76 418,-76 418,-96"/>
<text text-anchor="middle" x="330" y="-83" font-family="Vera" font-size="10.00">topo.base.simulation.EPConnection</text>
</g>
<!-- param.parameterized.Parameterized&#45;&gt;topo.base.simulation.EPConnection -->
<g id="edge12" class="edge"><title>param.parameterized.Parameterized&#45;&gt;topo.base.simulation.EPConnection</title>
<path fill="none" stroke="black" stroke-width="0.5" d="M184.017,-86C201.087,-86 218.94,-86 236.066,-86"/>
<polygon fill="black" stroke="black" points="236.356,-87.7501 241.356,-86 236.356,-84.2501 236.356,-87.7501"/>
</g>
<!-- topo.base.simulation.EventProcessor -->
<g id="node14" class="node"><title>topo.base.simulation.EventProcessor</title>
<polygon fill="none" stroke="black" stroke-width="0.5" points="422,-58 238,-58 238,-38 422,-38 422,-58"/>
<text text-anchor="middle" x="330" y="-45" font-family="Vera" font-size="10.00">topo.base.simulation.EventProcessor</text>
</g>
<!-- param.parameterized.Parameterized&#45;&gt;topo.base.simulation.EventProcessor -->
<g id="edge10" class="edge"><title>param.parameterized.Parameterized&#45;&gt;topo.base.simulation.EventProcessor</title>
<path fill="none" stroke="black" stroke-width="0.5" d="M154.843,-75.9662C187.786,-70.7064 228.179,-64.2571 261.87,-58.8779"/>
<polygon fill="black" stroke="black" points="262.556,-60.5406 267.218,-58.024 262.004,-57.0843 262.556,-60.5406"/>
</g>
<!-- topo.base.projection.ProjectionSheet -->
<g id="node5" class="node"><title>topo.base.projection.ProjectionSheet</title>
<polygon fill="none" stroke="black" stroke-width="0.5" points="906,-39 722,-39 722,-19 906,-19 906,-39"/>
<text text-anchor="middle" x="814" y="-26" font-family="Vera" font-size="10.00">topo.base.projection.ProjectionSheet</text>
</g>
<!-- topo.base.sheet.Sheet -->
<g id="node6" class="node"><title>topo.base.sheet.Sheet</title>
<polygon fill="none" stroke="black" stroke-width="0.5" points="639,-39 523,-39 523,-19 639,-19 639,-39"/>
<text text-anchor="middle" x="581" y="-26" font-family="Vera" font-size="10.00">topo.base.sheet.Sheet</text>
</g>
<!-- topo.base.sheet.Sheet&#45;&gt;topo.base.projection.ProjectionSheet -->
<g id="edge4" class="edge"><title>topo.base.sheet.Sheet&#45;&gt;topo.base.projection.ProjectionSheet</title>
<path fill="none" stroke="black" stroke-width="0.5" d="M639.195,-29C662.573,-29 690.171,-29 716.447,-29"/>
<polygon fill="black" stroke="black" points="716.684,-30.7501 721.683,-29 716.683,-27.2501 716.684,-30.7501"/>
</g>
<!-- topo.base.projection.NeighborhoodMask -->
<g id="node8" class="node"><title>topo.base.projection.NeighborhoodMask</title>
<polygon fill="none" stroke="black" stroke-width="0.5" points="682,-134 480,-134 480,-114 682,-114 682,-134"/>
<text text-anchor="middle" x="581" y="-121" font-family="Vera" font-size="10.00">topo.base.projection.NeighborhoodMask</text>
</g>
<!-- topo.base.projection.SheetMask&#45;&gt;topo.base.projection.CompositeSheetMask -->
<g id="edge16" class="edge"><title>topo.base.projection.SheetMask&#45;&gt;topo.base.projection.CompositeSheetMask</title>
<path fill="none" stroke="black" stroke-width="0.5" d="M396.276,-134.034C431.161,-139.315 473.968,-145.796 509.587,-151.189"/>
<polygon fill="black" stroke="black" points="509.583,-152.958 514.789,-151.976 510.107,-149.497 509.583,-152.958"/>
</g>
<!-- topo.base.projection.SheetMask&#45;&gt;topo.base.projection.NeighborhoodMask -->
<g id="edge6" class="edge"><title>topo.base.projection.SheetMask&#45;&gt;topo.base.projection.NeighborhoodMask</title>
<path fill="none" stroke="black" stroke-width="0.5" d="M411.146,-124C431.433,-124 453.496,-124 474.798,-124"/>
<polygon fill="black" stroke="black" points="474.905,-125.75 479.905,-124 474.905,-122.25 474.905,-125.75"/>
</g>
<!-- topo.base.projection.Projection -->
<g id="node11" class="node"><title>topo.base.projection.Projection</title>
<polygon fill="none" stroke="black" stroke-width="0.5" points="660,-96 502,-96 502,-76 660,-76 660,-96"/>
<text text-anchor="middle" x="581" y="-83" font-family="Vera" font-size="10.00">topo.base.projection.Projection</text>
</g>
<!-- topo.base.simulation.EPConnection&#45;&gt;topo.base.projection.Projection -->
<g id="edge8" class="edge"><title>topo.base.simulation.EPConnection&#45;&gt;topo.base.projection.Projection</title>
<path fill="none" stroke="black" stroke-width="0.5" d="M418.846,-86C444.125,-86 471.579,-86 496.586,-86"/>
<polygon fill="black" stroke="black" points="496.884,-87.7501 501.884,-86 496.883,-84.2501 496.884,-87.7501"/>
</g>
<!-- topo.base.simulation.EventProcessor&#45;&gt;topo.base.sheet.Sheet -->
<g id="edge18" class="edge"><title>topo.base.simulation.EventProcessor&#45;&gt;topo.base.sheet.Sheet</title>
<path fill="none" stroke="black" stroke-width="0.5" d="M422.038,-41.033C453.781,-38.6301 488.606,-35.994 517.547,-33.8032"/>
<polygon fill="black" stroke="black" points="518.027,-35.522 522.881,-33.3995 517.763,-32.0319 518.027,-35.522"/>
</g>
<!-- imagen.sheetcoords.SheetCoordinateSystem -->
<g id="node20" class="node"><title>imagen.sheetcoords.SheetCoordinateSystem</title>
<polygon fill="none" stroke="black" stroke-width="0.5" points="439,-20 221,-20 221,-1.06581e-14 439,-3.55271e-15 439,-20"/>
<text text-anchor="middle" x="330" y="-7" font-family="Vera" font-size="10.00">imagen.sheetcoords.SheetCoordinateSystem</text>
</g>
<!-- imagen.sheetcoords.SheetCoordinateSystem&#45;&gt;topo.base.sheet.Sheet -->
<g id="edge20" class="edge"><title>imagen.sheetcoords.SheetCoordinateSystem&#45;&gt;topo.base.sheet.Sheet</title>
<path fill="none" stroke="black" stroke-width="0.5" d="M439.727,-18.306C466.452,-20.329 494.146,-22.4254 517.858,-24.2203"/>
<polygon fill="black" stroke="black" points="517.738,-25.9661 522.856,-24.5986 518.002,-22.4761 517.738,-25.9661"/>
</g>
</g>
</svg>
