<?xml version="1.0" encoding="UTF-8" standalone="no"?>
<!DOCTYPE svg PUBLIC "-//W3C//DTD SVG 1.1//EN"
 "http://www.w3.org/Graphics/SVG/1.1/DTD/svg11.dtd">
<!-- Generated by graphviz version 2.26.3 (20100126.1600)
 -->
<!-- Title: inheritance1d39487c30 Pages: 1 -->
<svg width="1064pt" height="303pt"
 viewBox="0.00 0.00 1064.00 303.00" xmlns="http://www.w3.org/2000/svg" xmlns:xlink="http://www.w3.org/1999/xlink">
<g id="graph1" class="graph" transform="scale(1 1) rotate(0) translate(4 299)">
<title>inheritance1d39487c30</title>
<polygon fill="white" stroke="white" points="-4,5 -4,-299 1061,-299 1061,5 -4,5"/>
<!-- topo.tkgui.editor.ArrowTool -->
<g id="node1" class="node"><title>topo.tkgui.editor.ArrowTool</title>
<polygon fill="none" stroke="black" stroke-width="0.5" points="1041,-134.5 899,-134.5 899,-113.5 1041,-113.5 1041,-134.5"/>
<text text-anchor="middle" x="970" y="-121.5" font-family="Vera" font-size="10.00">topo.tkgui.editor.ArrowTool</text>
</g>
<!-- Tkinter.Frame -->
<g id="node2" class="node"><title>Tkinter.Frame</title>
<polygon fill="none" stroke="black" stroke-width="0.5" points="801,-96.5 721,-96.5 721,-75.5 801,-75.5 801,-96.5"/>
<text text-anchor="middle" x="761" y="-83.5" font-family="Vera" font-size="10.00">Tkinter.Frame</text>
</g>
<!-- Tkinter.Frame&#45;&gt;topo.tkgui.editor.ArrowTool -->
<g id="edge2" class="edge"><title>Tkinter.Frame&#45;&gt;topo.tkgui.editor.ArrowTool</title>
<path fill="none" stroke="black" stroke-width="0.5" d="M801.793,-93.417C832.478,-98.9959 875.012,-106.729 909.631,-113.024"/>
<polygon fill="black" stroke="black" points="909.446,-114.769 914.679,-113.942 910.072,-111.325 909.446,-114.769"/>
</g>
<!-- topo.tkgui.editor.ParametersTool -->
<g id="node20" class="node"><title>topo.tkgui.editor.ParametersTool</title>
<polygon fill="none" stroke="black" stroke-width="0.5" points="1055,-96.5 885,-96.5 885,-75.5 1055,-75.5 1055,-96.5"/>
<text text-anchor="middle" x="970" y="-83.5" font-family="Vera" font-size="10.00">topo.tkgui.editor.ParametersTool</text>
</g>
<!-- Tkinter.Frame&#45;&gt;topo.tkgui.editor.ParametersTool -->
<g id="edge12" class="edge"><title>Tkinter.Frame&#45;&gt;topo.tkgui.editor.ParametersTool</title>
<path fill="none" stroke="black" stroke-width="0.5" d="M801.793,-86C823.937,-86 852.251,-86 879.308,-86"/>
<polygon fill="black" stroke="black" points="879.344,-87.7501 884.344,-86 879.344,-84.2501 879.344,-87.7501"/>
</g>
<!-- topo.tkgui.editor.NodeTool -->
<g id="node41" class="node"><title>topo.tkgui.editor.NodeTool</title>
<polygon fill="none" stroke="black" stroke-width="0.5" points="1040,-58.5 900,-58.5 900,-37.5 1040,-37.5 1040,-58.5"/>
<text text-anchor="middle" x="970" y="-45.5" font-family="Vera" font-size="10.00">topo.tkgui.editor.NodeTool</text>
</g>
<!-- Tkinter.Frame&#45;&gt;topo.tkgui.editor.NodeTool -->
<g id="edge38" class="edge"><title>Tkinter.Frame&#45;&gt;topo.tkgui.editor.NodeTool</title>
<path fill="none" stroke="black" stroke-width="0.5" d="M801.793,-78.583C832.478,-73.0041 875.012,-65.2705 909.631,-58.9762"/>
<polygon fill="black" stroke="black" points="910.072,-60.6747 914.679,-58.0584 909.446,-57.2312 910.072,-60.6747"/>
</g>
<!-- topo.tkgui.editor.ConnectionTool -->
<g id="node44" class="node"><title>topo.tkgui.editor.ConnectionTool</title>
<polygon fill="none" stroke="black" stroke-width="0.5" points="1055,-20.5 885,-20.5 885,0.5 1055,0.5 1055,-20.5"/>
<text text-anchor="middle" x="970" y="-7.5" font-family="Vera" font-size="10.00">topo.tkgui.editor.ConnectionTool</text>
</g>
<!-- Tkinter.Frame&#45;&gt;topo.tkgui.editor.ConnectionTool -->
<g id="edge42" class="edge"><title>Tkinter.Frame&#45;&gt;topo.tkgui.editor.ConnectionTool</title>
<path fill="none" stroke="black" stroke-width="0.5" d="M779.65,-75.8002C803.307,-63.2309 845.647,-41.9527 884,-29 892.556,-26.1104 901.742,-23.5427 910.811,-21.3024"/>
<polygon fill="black" stroke="black" points="911.383,-22.9648 915.833,-20.0914 910.562,-19.5623 911.383,-22.9648"/>
</g>
<!-- Tkinter.XView -->
<g id="node4" class="node"><title>Tkinter.XView</title>
<polygon fill="none" stroke="black" stroke-width="0.5" points="581,-200.5 503,-200.5 503,-179.5 581,-179.5 581,-200.5"/>
<text text-anchor="middle" x="542" y="-187.5" font-family="Vera" font-size="10.00">Tkinter.XView</text>
</g>
<!-- Tkinter.Canvas -->
<g id="node30" class="node"><title>Tkinter.Canvas</title>
<polygon fill="none" stroke="black" stroke-width="0.5" points="804,-162.5 718,-162.5 718,-141.5 804,-141.5 804,-162.5"/>
<text text-anchor="middle" x="761" y="-149.5" font-family="Vera" font-size="10.00">Tkinter.Canvas</text>
</g>
<!-- Tkinter.XView&#45;&gt;Tkinter.Canvas -->
<g id="edge26" class="edge"><title>Tkinter.XView&#45;&gt;Tkinter.Canvas</title>
<path fill="none" stroke="black" stroke-width="0.5" d="M581.659,-183.118C618.464,-176.732 673.336,-167.211 712.685,-160.383"/>
<polygon fill="black" stroke="black" points="713.261,-162.06 717.888,-159.481 712.662,-158.611 713.261,-162.06"/>
</g>
<!-- Tkinter.YView -->
<g id="node5" class="node"><title>Tkinter.YView</title>
<polygon fill="none" stroke="black" stroke-width="0.5" points="581,-162.5 503,-162.5 503,-141.5 581,-141.5 581,-162.5"/>
<text text-anchor="middle" x="542" y="-149.5" font-family="Vera" font-size="10.00">Tkinter.YView</text>
</g>
<!-- Tkinter.YView&#45;&gt;Tkinter.Canvas -->
<g id="edge28" class="edge"><title>Tkinter.YView&#45;&gt;Tkinter.Canvas</title>
<path fill="none" stroke="black" stroke-width="0.5" d="M581.153,-152C617.889,-152 672.945,-152 712.458,-152"/>
<polygon fill="black" stroke="black" points="712.684,-153.75 717.684,-152 712.684,-150.25 712.684,-153.75"/>
</g>
<!-- topo.tkgui.editor.ModelEditor -->
<g id="node6" class="node"><title>topo.tkgui.editor.ModelEditor</title>
<polygon fill="none" stroke="black" stroke-width="0.5" points="397,-215.5 243,-215.5 243,-194.5 397,-194.5 397,-215.5"/>
<text text-anchor="middle" x="320" y="-202.5" font-family="Vera" font-size="10.00">topo.tkgui.editor.ModelEditor</text>
</g>
<!-- param.parameterized.Parameterized -->
<g id="node7" class="node"><title>param.parameterized.Parameterized</title>
<polygon fill="none" stroke="black" stroke-width="0.5" points="194,-215.5 5.68434e-14,-215.5 0,-194.5 194,-194.5 194,-215.5"/>
<text text-anchor="middle" x="97" y="-202.5" font-family="Vera" font-size="10.00">param.parameterized.Parameterized</text>
</g>
<!-- param.parameterized.Parameterized&#45;&gt;topo.tkgui.editor.ModelEditor -->
<g id="edge4" class="edge"><title>param.parameterized.Parameterized&#45;&gt;topo.tkgui.editor.ModelEditor</title>
<path fill="none" stroke="black" stroke-width="0.5" d="M194.162,-205C208.692,-205 223.553,-205 237.735,-205"/>
<polygon fill="black" stroke="black" points="237.927,-206.75 242.927,-205 237.927,-203.25 237.927,-206.75"/>
</g>
<!-- topo.tkgui.editor.EditorEPConnection -->
<g id="node9" class="node"><title>topo.tkgui.editor.EditorEPConnection</title>
<polygon fill="none" stroke="black" stroke-width="0.5" points="637,-295.5 447,-295.5 447,-274.5 637,-274.5 637,-295.5"/>
<text text-anchor="middle" x="542" y="-282.5" font-family="Vera" font-size="10.00">topo.tkgui.editor.EditorEPConnection</text>
</g>
<!-- topo.tkgui.editor.EditorProjection -->
<g id="node22" class="node"><title>topo.tkgui.editor.EditorProjection</title>
<polygon fill="none" stroke="black" stroke-width="0.5" points="847,-295.5 675,-295.5 675,-274.5 847,-274.5 847,-295.5"/>
<text text-anchor="middle" x="761" y="-282.5" font-family="Vera" font-size="10.00">topo.tkgui.editor.EditorProjection</text>
</g>
<!-- topo.tkgui.editor.EditorEPConnection&#45;&gt;topo.tkgui.editor.EditorProjection -->
<g id="edge14" class="edge"><title>topo.tkgui.editor.EditorEPConnection&#45;&gt;topo.tkgui.editor.EditorProjection</title>
<path fill="none" stroke="black" stroke-width="0.5" d="M637.738,-285C648.223,-285 658.878,-285 669.312,-285"/>
<polygon fill="black" stroke="black" points="669.415,-286.75 674.415,-285 669.415,-283.25 669.415,-286.75"/>
</g>
<!-- topo.tkgui.editor.EditorConnection -->
<g id="node10" class="node"><title>topo.tkgui.editor.EditorConnection</title>
<polygon fill="none" stroke="black" stroke-width="0.5" points="409,-295.5 231,-295.5 231,-274.5 409,-274.5 409,-295.5"/>
<text text-anchor="middle" x="320" y="-282.5" font-family="Vera" font-size="10.00">topo.tkgui.editor.EditorConnection</text>
</g>
<!-- topo.tkgui.editor.EditorConnection&#45;&gt;topo.tkgui.editor.EditorEPConnection -->
<g id="edge6" class="edge"><title>topo.tkgui.editor.EditorConnection&#45;&gt;topo.tkgui.editor.EditorEPConnection</title>
<path fill="none" stroke="black" stroke-width="0.5" d="M409.656,-285C419.998,-285 430.596,-285 441.074,-285"/>
<polygon fill="black" stroke="black" points="441.206,-286.75 446.206,-285 441.206,-283.25 441.206,-286.75"/>
</g>
<!-- Tkinter.Pack -->
<g id="node12" class="node"><title>Tkinter.Pack</title>
<polygon fill="none" stroke="black" stroke-width="0.5" points="356,-163.5 284,-163.5 284,-142.5 356,-142.5 356,-163.5"/>
<text text-anchor="middle" x="320" y="-150.5" font-family="Vera" font-size="10.00">Tkinter.Pack</text>
</g>
<!-- Tkinter.Widget -->
<g id="node24" class="node"><title>Tkinter.Widget</title>
<polygon fill="none" stroke="black" stroke-width="0.5" points="583,-96.5 501,-96.5 501,-75.5 583,-75.5 583,-96.5"/>
<text text-anchor="middle" x="542" y="-83.5" font-family="Vera" font-size="10.00">Tkinter.Widget</text>
</g>
<!-- Tkinter.Pack&#45;&gt;Tkinter.Widget -->
<g id="edge18" class="edge"><title>Tkinter.Pack&#45;&gt;Tkinter.Widget</title>
<path fill="none" stroke="black" stroke-width="0.5" d="M356.632,-146.48C373.081,-143.243 392.649,-138.959 410,-134 445.977,-123.716 486.251,-108.515 512.744,-97.986"/>
<polygon fill="black" stroke="black" points="513.532,-99.5559 517.526,-96.0767 512.234,-96.3054 513.532,-99.5559"/>
</g>
<!-- Tkinter.Place -->
<g id="node13" class="node"><title>Tkinter.Place</title>
<polygon fill="none" stroke="black" stroke-width="0.5" points="358,-125.5 282,-125.5 282,-104.5 358,-104.5 358,-125.5"/>
<text text-anchor="middle" x="320" y="-112.5" font-family="Vera" font-size="10.00">Tkinter.Place</text>
</g>
<!-- Tkinter.Place&#45;&gt;Tkinter.Widget -->
<g id="edge20" class="edge"><title>Tkinter.Place&#45;&gt;Tkinter.Widget</title>
<path fill="none" stroke="black" stroke-width="0.5" d="M358.669,-109.949C396.595,-104.994 454.475,-97.4335 495.028,-92.136"/>
<polygon fill="black" stroke="black" points="495.651,-93.8196 500.382,-91.4366 495.197,-90.3491 495.651,-93.8196"/>
</g>
<!-- topo.tkgui.editor.EditorSheet -->
<g id="node14" class="node"><title>topo.tkgui.editor.EditorSheet</title>
<polygon fill="none" stroke="black" stroke-width="0.5" points="838,-257.5 684,-257.5 684,-236.5 838,-236.5 838,-257.5"/>
<text text-anchor="middle" x="761" y="-244.5" font-family="Vera" font-size="10.00">topo.tkgui.editor.EditorSheet</text>
</g>
<!-- topo.tkgui.editor.EditorEP -->
<g id="node15" class="node"><title>topo.tkgui.editor.EditorEP</title>
<polygon fill="none" stroke="black" stroke-width="0.5" points="610,-257.5 474,-257.5 474,-236.5 610,-236.5 610,-257.5"/>
<text text-anchor="middle" x="542" y="-244.5" font-family="Vera" font-size="10.00">topo.tkgui.editor.EditorEP</text>
</g>
<!-- topo.tkgui.editor.EditorEP&#45;&gt;topo.tkgui.editor.EditorSheet -->
<g id="edge8" class="edge"><title>topo.tkgui.editor.EditorEP&#45;&gt;topo.tkgui.editor.EditorSheet</title>
<path fill="none" stroke="black" stroke-width="0.5" d="M610.692,-247C632.267,-247 656.308,-247 678.724,-247"/>
<polygon fill="black" stroke="black" points="678.78,-248.75 683.78,-247 678.78,-245.25 678.78,-248.75"/>
</g>
<!-- topo.tkgui.editor.EditorObject -->
<g id="node17" class="node"><title>topo.tkgui.editor.EditorObject</title>
<polygon fill="none" stroke="black" stroke-width="0.5" points="175,-260.5 19,-260.5 19,-239.5 175,-239.5 175,-260.5"/>
<text text-anchor="middle" x="97" y="-247.5" font-family="Vera" font-size="10.00">topo.tkgui.editor.EditorObject</text>
</g>
<!-- topo.tkgui.editor.EditorObject&#45;&gt;topo.tkgui.editor.EditorConnection -->
<g id="edge10" class="edge"><title>topo.tkgui.editor.EditorObject&#45;&gt;topo.tkgui.editor.EditorConnection</title>
<path fill="none" stroke="black" stroke-width="0.5" d="M160.903,-260.03C189.129,-264.46 222.365,-269.676 251.14,-274.192"/>
<polygon fill="black" stroke="black" points="250.877,-275.922 256.088,-274.969 251.42,-272.465 250.877,-275.922"/>
</g>
<!-- topo.tkgui.editor.EditorNode -->
<g id="node36" class="node"><title>topo.tkgui.editor.EditorNode</title>
<polygon fill="none" stroke="black" stroke-width="0.5" points="395,-257.5 245,-257.5 245,-236.5 395,-236.5 395,-257.5"/>
<text text-anchor="middle" x="320" y="-244.5" font-family="Vera" font-size="10.00">topo.tkgui.editor.EditorNode</text>
</g>
<!-- topo.tkgui.editor.EditorObject&#45;&gt;topo.tkgui.editor.EditorNode -->
<g id="edge32" class="edge"><title>topo.tkgui.editor.EditorObject&#45;&gt;topo.tkgui.editor.EditorNode</title>
<path fill="none" stroke="black" stroke-width="0.5" d="M175.308,-248.947C195.901,-248.669 218.157,-248.37 238.894,-248.091"/>
<polygon fill="black" stroke="black" points="239.156,-249.838 244.132,-248.021 239.108,-246.338 239.156,-249.838"/>
</g>
<!-- Tkinter.Grid -->
<g id="node19" class="node"><title>Tkinter.Grid</title>
<polygon fill="none" stroke="black" stroke-width="0.5" points="355,-87.5 285,-87.5 285,-66.5 355,-66.5 355,-87.5"/>
<text text-anchor="middle" x="320" y="-74.5" font-family="Vera" font-size="10.00">Tkinter.Grid</text>
</g>
<!-- Tkinter.Grid&#45;&gt;Tkinter.Widget -->
<g id="edge22" class="edge"><title>Tkinter.Grid&#45;&gt;Tkinter.Widget</title>
<path fill="none" stroke="black" stroke-width="0.5" d="M355.668,-78.446C393.516,-79.9804 453.488,-82.4117 495.13,-84.0999"/>
<polygon fill="black" stroke="black" points="495.303,-85.8582 500.37,-84.3123 495.445,-82.3611 495.303,-85.8582"/>
</g>
<!-- Tkinter.Widget&#45;&gt;Tkinter.Frame -->
<g id="edge40" class="edge"><title>Tkinter.Widget&#45;&gt;Tkinter.Frame</title>
<path fill="none" stroke="black" stroke-width="0.5" d="M583.708,-86C621.239,-86 676.289,-86 715.067,-86"/>
<polygon fill="black" stroke="black" points="715.189,-87.7501 720.189,-86 715.189,-84.2501 715.189,-87.7501"/>
</g>
<!-- Tkinter.Widget&#45;&gt;Tkinter.Canvas -->
<g id="edge24" class="edge"><title>Tkinter.Widget&#45;&gt;Tkinter.Canvas</title>
<path fill="none" stroke="black" stroke-width="0.5" d="M575.261,-96.024C614.931,-107.979 681.101,-127.921 722.822,-140.494"/>
<polygon fill="black" stroke="black" points="722.493,-142.223 727.785,-141.99 723.503,-138.872 722.493,-142.223"/>
</g>
<!-- Tkinter.BaseWidget -->
<g id="node25" class="node"><title>Tkinter.BaseWidget</title>
<polygon fill="none" stroke="black" stroke-width="0.5" points="373,-49.5 267,-49.5 267,-28.5 373,-28.5 373,-49.5"/>
<text text-anchor="middle" x="320" y="-36.5" font-family="Vera" font-size="10.00">Tkinter.BaseWidget</text>
</g>
<!-- Tkinter.BaseWidget&#45;&gt;Tkinter.Widget -->
<g id="edge16" class="edge"><title>Tkinter.BaseWidget&#45;&gt;Tkinter.Widget</title>
<path fill="none" stroke="black" stroke-width="0.5" d="M367.644,-49.0492C381.32,-51.9363 396.251,-55.0906 410,-58 438.362,-64.0019 470.149,-70.7441 495.422,-76.1083"/>
<polygon fill="black" stroke="black" points="495.132,-77.8357 500.387,-77.1622 495.859,-74.412 495.132,-77.8357"/>
</g>
<!-- topo.tkgui.editor.EditorCanvas -->
<g id="node34" class="node"><title>topo.tkgui.editor.EditorCanvas</title>
<polygon fill="none" stroke="black" stroke-width="0.5" points="1050,-172.5 890,-172.5 890,-151.5 1050,-151.5 1050,-172.5"/>
<text text-anchor="middle" x="970" y="-159.5" font-family="Vera" font-size="10.00">topo.tkgui.editor.EditorCanvas</text>
</g>
<!-- Tkinter.Canvas&#45;&gt;topo.tkgui.editor.EditorCanvas -->
<g id="edge30" class="edge"><title>Tkinter.Canvas&#45;&gt;topo.tkgui.editor.EditorCanvas</title>
<path fill="none" stroke="black" stroke-width="0.5" d="M804.052,-154.06C827.225,-155.169 856.652,-156.577 884.27,-157.898"/>
<polygon fill="black" stroke="black" points="884.326,-159.653 889.404,-158.144 884.494,-156.157 884.326,-159.653"/>
</g>
<!-- topo.tkgui.editor.EditorNode&#45;&gt;topo.tkgui.editor.EditorEP -->
<g id="edge34" class="edge"><title>topo.tkgui.editor.EditorNode&#45;&gt;topo.tkgui.editor.EditorEP</title>
<path fill="none" stroke="black" stroke-width="0.5" d="M395.779,-247C419.134,-247 444.811,-247 468.042,-247"/>
<polygon fill="black" stroke="black" points="468.269,-248.75 473.269,-247 468.269,-245.25 468.269,-248.75"/>
</g>
<!-- Tkinter.Misc -->
<g id="node39" class="node"><title>Tkinter.Misc</title>
<polygon fill="none" stroke="black" stroke-width="0.5" points="133,-49.5 61,-49.5 61,-28.5 133,-28.5 133,-49.5"/>
<text text-anchor="middle" x="97" y="-36.5" font-family="Vera" font-size="10.00">Tkinter.Misc</text>
</g>
<!-- Tkinter.Misc&#45;&gt;Tkinter.BaseWidget -->
<g id="edge36" class="edge"><title>Tkinter.Misc&#45;&gt;Tkinter.BaseWidget</title>
<path fill="none" stroke="black" stroke-width="0.5" d="M133.325,-39C167.814,-39 220.266,-39 260.798,-39"/>
<polygon fill="black" stroke="black" points="261.182,-40.7501 266.182,-39 261.182,-37.2501 261.182,-40.7501"/>
</g>
</g>
</svg>
