<?xml version="1.0" encoding="UTF-8" standalone="no"?>
<!DOCTYPE svg PUBLIC "-//W3C//DTD SVG 1.1//EN"
 "http://www.w3.org/Graphics/SVG/1.1/DTD/svg11.dtd">
<!-- Generated by graphviz version 2.26.3 (20100126.1600)
 -->
<!-- Title: inheritance0bce68b9cf Pages: 1 -->
<svg width="1872pt" height="370pt"
 viewBox="0.00 0.00 1872.00 370.00" xmlns="http://www.w3.org/2000/svg" xmlns:xlink="http://www.w3.org/1999/xlink">
<g id="graph1" class="graph" transform="scale(1 1) rotate(0) translate(4 366)">
<title>inheritance0bce68b9cf</title>
<polygon fill="white" stroke="white" points="-4,5 -4,-366 1869,-366 1869,5 -4,5"/>
<!-- imagen.patterngenerator.PatternGenerator -->
<g id="node1" class="node"><title>imagen.patterngenerator.PatternGenerator</title>
<polygon fill="none" stroke="black" stroke-width="0.5" points="459,-257.5 235,-257.5 235,-236.5 459,-236.5 459,-257.5"/>
<text text-anchor="middle" x="347" y="-244.5" font-family="Vera" font-size="10.00">imagen.patterngenerator.PatternGenerator</text>
</g>
<!-- topo.command.analysis.log_frequency_mapper -->
<g id="node7" class="node"><title>topo.command.analysis.log_frequency_mapper</title>
<polygon fill="none" stroke="black" stroke-width="0.5" points="783,-324.5 539,-324.5 539,-303.5 783,-303.5 783,-324.5"/>
<text text-anchor="middle" x="661" y="-311.5" font-family="Vera" font-size="10.00">topo.command.analysis.log_frequency_mapper</text>
</g>
<!-- imagen.patterngenerator.PatternGenerator&#45;&gt;topo.command.analysis.log_frequency_mapper -->
<g id="edge6" class="edge"><title>imagen.patterngenerator.PatternGenerator&#45;&gt;topo.command.analysis.log_frequency_mapper</title>
<path fill="none" stroke="black" stroke-width="0.5" d="M373.678,-257.042C403.893,-268.02 454.81,-285.333 500,-295 515.084,-298.227 531.088,-300.942 546.927,-303.218"/>
<polygon fill="black" stroke="black" points="547.096,-305.009 552.291,-303.973 547.584,-301.543 547.096,-305.009"/>
</g>
<!-- topo.command.analysis.latency_mapper -->
<g id="node17" class="node"><title>topo.command.analysis.latency_mapper</title>
<polygon fill="none" stroke="black" stroke-width="0.5" points="767,-286.5 555,-286.5 555,-265.5 767,-265.5 767,-286.5"/>
<text text-anchor="middle" x="661" y="-273.5" font-family="Vera" font-size="10.00">topo.command.analysis.latency_mapper</text>
</g>
<!-- imagen.patterngenerator.PatternGenerator&#45;&gt;topo.command.analysis.latency_mapper -->
<g id="edge14" class="edge"><title>imagen.patterngenerator.PatternGenerator&#45;&gt;topo.command.analysis.latency_mapper</title>
<path fill="none" stroke="black" stroke-width="0.5" d="M455.501,-257.021C485.915,-259.83 519.022,-262.887 549.602,-265.712"/>
<polygon fill="black" stroke="black" points="549.743,-267.482 554.882,-266.199 550.065,-263.997 549.743,-267.482"/>
</g>
<!-- topo.command.analysis.frequency_mapper -->
<g id="node60" class="node"><title>topo.command.analysis.frequency_mapper</title>
<polygon fill="none" stroke="black" stroke-width="0.5" points="773,-248.5 549,-248.5 549,-227.5 773,-227.5 773,-248.5"/>
<text text-anchor="middle" x="661" y="-235.5" font-family="Vera" font-size="10.00">topo.command.analysis.frequency_mapper</text>
</g>
<!-- imagen.patterngenerator.PatternGenerator&#45;&gt;topo.command.analysis.frequency_mapper -->
<g id="edge60" class="edge"><title>imagen.patterngenerator.PatternGenerator&#45;&gt;topo.command.analysis.frequency_mapper</title>
<path fill="none" stroke="black" stroke-width="0.5" d="M459.031,-243.789C486.472,-243.002 515.915,-242.158 543.6,-241.365"/>
<polygon fill="black" stroke="black" points="543.8,-243.11 548.748,-241.217 543.7,-239.611 543.8,-243.11"/>
</g>
<!-- param.parameterized.Parameterized -->
<g id="node2" class="node"><title>param.parameterized.Parameterized</title>
<polygon fill="none" stroke="black" stroke-width="0.5" points="194,-200.5 5.68434e-14,-200.5 0,-179.5 194,-179.5 194,-200.5"/>
<text text-anchor="middle" x="97" y="-187.5" font-family="Vera" font-size="10.00">param.parameterized.Parameterized</text>
</g>
<!-- param.parameterized.Parameterized&#45;&gt;imagen.patterngenerator.PatternGenerator -->
<g id="edge2" class="edge"><title>param.parameterized.Parameterized&#45;&gt;imagen.patterngenerator.PatternGenerator</title>
<path fill="none" stroke="black" stroke-width="0.5" d="M141.12,-200.059C185.075,-210.081 252.414,-225.434 298.007,-235.83"/>
<polygon fill="black" stroke="black" points="297.638,-237.54 302.902,-236.946 298.416,-234.128 297.638,-237.54"/>
</g>
<!-- param.parameterized.ParameterizedFunction -->
<g id="node27" class="node"><title>param.parameterized.ParameterizedFunction</title>
<polygon fill="none" stroke="black" stroke-width="0.5" points="464,-200.5 230,-200.5 230,-179.5 464,-179.5 464,-200.5"/>
<text text-anchor="middle" x="347" y="-187.5" font-family="Vera" font-size="10.00">param.parameterized.ParameterizedFunction</text>
</g>
<!-- param.parameterized.Parameterized&#45;&gt;param.parameterized.ParameterizedFunction -->
<g id="edge24" class="edge"><title>param.parameterized.Parameterized&#45;&gt;param.parameterized.ParameterizedFunction</title>
<path fill="none" stroke="black" stroke-width="0.5" d="M194.014,-190C204.04,-190 214.319,-190 224.575,-190"/>
<polygon fill="black" stroke="black" points="224.607,-191.75 229.607,-190 224.607,-188.25 224.607,-191.75"/>
</g>
<!-- topo.command.analysis.PatternPresenter2 -->
<g id="node51" class="node"><title>topo.command.analysis.PatternPresenter2</title>
<polygon fill="none" stroke="black" stroke-width="0.5" points="457,-162.5 237,-162.5 237,-141.5 457,-141.5 457,-162.5"/>
<text text-anchor="middle" x="347" y="-149.5" font-family="Vera" font-size="10.00">topo.command.analysis.PatternPresenter2</text>
</g>
<!-- param.parameterized.Parameterized&#45;&gt;topo.command.analysis.PatternPresenter2 -->
<g id="edge48" class="edge"><title>param.parameterized.Parameterized&#45;&gt;topo.command.analysis.PatternPresenter2</title>
<path fill="none" stroke="black" stroke-width="0.5" d="M163.012,-179.966C197.758,-174.685 240.394,-168.204 275.872,-162.811"/>
<polygon fill="black" stroke="black" points="276.372,-164.506 281.052,-162.024 275.846,-161.045 276.372,-164.506"/>
</g>
<!-- topo.command.analysis.measure_second_or_pref -->
<g id="node4" class="node"><title>topo.command.analysis.measure_second_or_pref</title>
<polygon fill="none" stroke="black" stroke-width="0.5" points="1857,-362.5 1601,-362.5 1601,-341.5 1857,-341.5 1857,-362.5"/>
<text text-anchor="middle" x="1729" y="-349.5" font-family="Vera" font-size="10.00">topo.command.analysis.measure_second_or_pref</text>
</g>
<!-- topo.analysis.featureresponses.SinusoidalMeasureResponseCommand -->
<g id="node5" class="node"><title>topo.analysis.featureresponses.SinusoidalMeasureResponseCommand</title>
<polygon fill="none" stroke="black" stroke-width="0.5" points="1558,-210.5 1202,-210.5 1202,-189.5 1558,-189.5 1558,-210.5"/>
<text text-anchor="middle" x="1380" y="-197.5" font-family="Vera" font-size="10.00">topo.analysis.featureresponses.SinusoidalMeasureResponseCommand</text>
</g>
<!-- topo.analysis.featureresponses.SinusoidalMeasureResponseCommand&#45;&gt;topo.command.analysis.measure_second_or_pref -->
<g id="edge4" class="edge"><title>topo.analysis.featureresponses.SinusoidalMeasureResponseCommand&#45;&gt;topo.command.analysis.measure_second_or_pref</title>
<path fill="none" stroke="black" stroke-width="0.5" d="M1545.06,-210.013C1549.58,-212.67 1553.91,-215.655 1558,-219 1599.13,-252.642 1553.44,-298.675 1594,-333 1596.61,-335.208 1599.35,-337.227 1602.21,-339.071"/>
<polygon fill="black" stroke="black" points="1601.6,-340.746 1606.78,-341.829 1603.4,-337.749 1601.6,-340.746"/>
</g>
<!-- topo.command.analysis.measure_od_pref -->
<g id="node15" class="node"><title>topo.command.analysis.measure_od_pref</title>
<polygon fill="none" stroke="black" stroke-width="0.5" points="1838,-324.5 1620,-324.5 1620,-303.5 1838,-303.5 1838,-324.5"/>
<text text-anchor="middle" x="1729" y="-311.5" font-family="Vera" font-size="10.00">topo.command.analysis.measure_od_pref</text>
</g>
<!-- topo.analysis.featureresponses.SinusoidalMeasureResponseCommand&#45;&gt;topo.command.analysis.measure_od_pref -->
<g id="edge12" class="edge"><title>topo.analysis.featureresponses.SinusoidalMeasureResponseCommand&#45;&gt;topo.command.analysis.measure_od_pref</title>
<path fill="none" stroke="black" stroke-width="0.5" d="M1543.24,-210.123C1548.37,-212.725 1553.31,-215.672 1558,-219 1588.48,-240.637 1563.89,-272.856 1594,-295 1600.47,-299.761 1607.61,-303.594 1615.11,-306.66"/>
<polygon fill="black" stroke="black" points="1614.53,-308.312 1619.82,-308.472 1615.78,-305.045 1614.53,-308.312"/>
</g>
<!-- topo.command.analysis.measure_phasedisparity -->
<g id="node20" class="node"><title>topo.command.analysis.measure_phasedisparity</title>
<polygon fill="none" stroke="black" stroke-width="0.5" points="1855,-286.5 1603,-286.5 1603,-265.5 1855,-265.5 1855,-286.5"/>
<text text-anchor="middle" x="1729" y="-273.5" font-family="Vera" font-size="10.00">topo.command.analysis.measure_phasedisparity</text>
</g>
<!-- topo.analysis.featureresponses.SinusoidalMeasureResponseCommand&#45;&gt;topo.command.analysis.measure_phasedisparity -->
<g id="edge18" class="edge"><title>topo.analysis.featureresponses.SinusoidalMeasureResponseCommand&#45;&gt;topo.command.analysis.measure_phasedisparity</title>
<path fill="none" stroke="black" stroke-width="0.5" d="M1536.23,-210.077C1543.73,-212.602 1551.04,-215.555 1558,-219 1578.85,-229.315 1573.32,-246.337 1594,-257 1599.34,-259.754 1604.95,-262.149 1610.72,-264.229"/>
<polygon fill="black" stroke="black" points="1610.31,-265.937 1615.61,-265.903 1611.45,-262.626 1610.31,-265.937"/>
</g>
<!-- topo.command.analysis.measure_hue_pref -->
<g id="node35" class="node"><title>topo.command.analysis.measure_hue_pref</title>
<polygon fill="none" stroke="black" stroke-width="0.5" points="1841,-248.5 1617,-248.5 1617,-227.5 1841,-227.5 1841,-248.5"/>
<text text-anchor="middle" x="1729" y="-235.5" font-family="Vera" font-size="10.00">topo.command.analysis.measure_hue_pref</text>
</g>
<!-- topo.analysis.featureresponses.SinusoidalMeasureResponseCommand&#45;&gt;topo.command.analysis.measure_hue_pref -->
<g id="edge32" class="edge"><title>topo.analysis.featureresponses.SinusoidalMeasureResponseCommand&#45;&gt;topo.command.analysis.measure_hue_pref</title>
<path fill="none" stroke="black" stroke-width="0.5" d="M1474.7,-210.031C1501.62,-212.904 1530.97,-216.055 1558,-219 1582.67,-221.688 1609.34,-224.632 1634.12,-227.384"/>
<polygon fill="black" stroke="black" points="1634.21,-229.155 1639.37,-227.968 1634.6,-225.676 1634.21,-229.155"/>
</g>
<!-- topo.command.analysis.measure_dr_pref -->
<g id="node40" class="node"><title>topo.command.analysis.measure_dr_pref</title>
<polygon fill="none" stroke="black" stroke-width="0.5" points="1837,-210.5 1621,-210.5 1621,-189.5 1837,-189.5 1837,-210.5"/>
<text text-anchor="middle" x="1729" y="-197.5" font-family="Vera" font-size="10.00">topo.command.analysis.measure_dr_pref</text>
</g>
<!-- topo.analysis.featureresponses.SinusoidalMeasureResponseCommand&#45;&gt;topo.command.analysis.measure_dr_pref -->
<g id="edge38" class="edge"><title>topo.analysis.featureresponses.SinusoidalMeasureResponseCommand&#45;&gt;topo.command.analysis.measure_dr_pref</title>
<path fill="none" stroke="black" stroke-width="0.5" d="M1558.08,-200C1577.59,-200 1597.03,-200 1615.45,-200"/>
<polygon fill="black" stroke="black" points="1615.61,-201.75 1620.61,-200 1615.61,-198.25 1615.61,-201.75"/>
</g>
<!-- topo.command.analysis.measure_or_pref -->
<g id="node44" class="node"><title>topo.command.analysis.measure_or_pref</title>
<polygon fill="none" stroke="black" stroke-width="0.5" points="1837,-172.5 1621,-172.5 1621,-151.5 1837,-151.5 1837,-172.5"/>
<text text-anchor="middle" x="1729" y="-159.5" font-family="Vera" font-size="10.00">topo.command.analysis.measure_or_pref</text>
</g>
<!-- topo.analysis.featureresponses.SinusoidalMeasureResponseCommand&#45;&gt;topo.command.analysis.measure_or_pref -->
<g id="edge42" class="edge"><title>topo.analysis.featureresponses.SinusoidalMeasureResponseCommand&#45;&gt;topo.command.analysis.measure_or_pref</title>
<path fill="none" stroke="black" stroke-width="0.5" d="M1474.7,-189.969C1501.62,-187.096 1530.97,-183.945 1558,-181 1582.67,-178.312 1609.34,-175.368 1634.12,-172.616"/>
<polygon fill="black" stroke="black" points="1634.6,-174.324 1639.37,-172.032 1634.21,-170.845 1634.6,-174.324"/>
</g>
<!-- topo.command.analysis.measure_sine_pref -->
<g id="node49" class="node"><title>topo.command.analysis.measure_sine_pref</title>
<polygon fill="none" stroke="black" stroke-width="0.5" points="1842,-134.5 1616,-134.5 1616,-113.5 1842,-113.5 1842,-134.5"/>
<text text-anchor="middle" x="1729" y="-121.5" font-family="Vera" font-size="10.00">topo.command.analysis.measure_sine_pref</text>
</g>
<!-- topo.analysis.featureresponses.SinusoidalMeasureResponseCommand&#45;&gt;topo.command.analysis.measure_sine_pref -->
<g id="edge46" class="edge"><title>topo.analysis.featureresponses.SinusoidalMeasureResponseCommand&#45;&gt;topo.command.analysis.measure_sine_pref</title>
<path fill="none" stroke="black" stroke-width="0.5" d="M1536.23,-189.923C1543.73,-187.398 1551.04,-184.445 1558,-181 1578.85,-170.685 1573.32,-153.663 1594,-143 1599.42,-140.203 1605.12,-137.777 1610.99,-135.675"/>
<polygon fill="black" stroke="black" points="1611.79,-137.253 1615.95,-133.985 1610.66,-133.94 1611.79,-137.253"/>
</g>
<!-- topo.command.analysis.measure_rfs -->
<g id="node9" class="node"><title>topo.command.analysis.measure_rfs</title>
<polygon fill="none" stroke="black" stroke-width="0.5" points="1826,-96.5 1632,-96.5 1632,-75.5 1826,-75.5 1826,-96.5"/>
<text text-anchor="middle" x="1729" y="-83.5" font-family="Vera" font-size="10.00">topo.command.analysis.measure_rfs</text>
</g>
<!-- topo.analysis.featureresponses.SingleInputResponseCommand -->
<g id="node10" class="node"><title>topo.analysis.featureresponses.SingleInputResponseCommand</title>
<polygon fill="none" stroke="black" stroke-width="0.5" points="1539,-172.5 1221,-172.5 1221,-151.5 1539,-151.5 1539,-172.5"/>
<text text-anchor="middle" x="1380" y="-159.5" font-family="Vera" font-size="10.00">topo.analysis.featureresponses.SingleInputResponseCommand</text>
</g>
<!-- topo.analysis.featureresponses.SingleInputResponseCommand&#45;&gt;topo.command.analysis.measure_rfs -->
<g id="edge8" class="edge"><title>topo.analysis.featureresponses.SingleInputResponseCommand&#45;&gt;topo.command.analysis.measure_rfs</title>
<path fill="none" stroke="black" stroke-width="0.5" d="M1536.23,-151.923C1543.73,-149.398 1551.04,-146.445 1558,-143 1578.85,-132.685 1573.32,-115.663 1594,-105 1604.22,-99.7319 1615.41,-95.7788 1626.85,-92.8313"/>
<polygon fill="black" stroke="black" points="1627.33,-94.5169 1631.77,-91.6288 1626.5,-91.1171 1627.33,-94.5169"/>
</g>
<!-- topo.command.analysis.measure_frequency_preference -->
<g id="node12" class="node"><title>topo.command.analysis.measure_frequency_preference</title>
<polygon fill="none" stroke="black" stroke-width="0.5" points="1523,-134.5 1237,-134.5 1237,-113.5 1523,-113.5 1523,-134.5"/>
<text text-anchor="middle" x="1380" y="-121.5" font-family="Vera" font-size="10.00">topo.command.analysis.measure_frequency_preference</text>
</g>
<!-- topo.analysis.featureresponses.MeasureResponseCommand -->
<g id="node13" class="node"><title>topo.analysis.featureresponses.MeasureResponseCommand</title>
<polygon fill="none" stroke="black" stroke-width="0.5" points="1165,-134.5 859,-134.5 859,-113.5 1165,-113.5 1165,-134.5"/>
<text text-anchor="middle" x="1012" y="-121.5" font-family="Vera" font-size="10.00">topo.analysis.featureresponses.MeasureResponseCommand</text>
</g>
<!-- topo.analysis.featureresponses.MeasureResponseCommand&#45;&gt;topo.analysis.featureresponses.SinusoidalMeasureResponseCommand -->
<g id="edge52" class="edge"><title>topo.analysis.featureresponses.MeasureResponseCommand&#45;&gt;topo.analysis.featureresponses.SinusoidalMeasureResponseCommand</title>
<path fill="none" stroke="black" stroke-width="0.5" d="M1039.6,-134.042C1076.21,-146.955 1143.09,-169.126 1202,-181 1218.29,-184.283 1235.54,-187.024 1252.64,-189.305"/>
<polygon fill="black" stroke="black" points="1252.75,-191.085 1257.94,-189.999 1253.21,-187.615 1252.75,-191.085"/>
</g>
<!-- topo.analysis.featureresponses.MeasureResponseCommand&#45;&gt;topo.analysis.featureresponses.SingleInputResponseCommand -->
<g id="edge16" class="edge"><title>topo.analysis.featureresponses.MeasureResponseCommand&#45;&gt;topo.analysis.featureresponses.SingleInputResponseCommand</title>
<path fill="none" stroke="black" stroke-width="0.5" d="M1109.17,-134.034C1161.15,-139.402 1225.14,-146.009 1277.86,-151.453"/>
<polygon fill="black" stroke="black" points="1277.77,-153.203 1282.93,-151.976 1278.13,-149.722 1277.77,-153.203"/>
</g>
<!-- topo.analysis.featureresponses.MeasureResponseCommand&#45;&gt;topo.command.analysis.measure_frequency_preference -->
<g id="edge10" class="edge"><title>topo.analysis.featureresponses.MeasureResponseCommand&#45;&gt;topo.command.analysis.measure_frequency_preference</title>
<path fill="none" stroke="black" stroke-width="0.5" d="M1165.67,-124C1187.38,-124 1209.67,-124 1231.29,-124"/>
<polygon fill="black" stroke="black" points="1231.47,-125.75 1236.47,-124 1231.47,-122.25 1231.47,-125.75"/>
</g>
<!-- topo.command.analysis.measure_latency_preference -->
<g id="node22" class="node"><title>topo.command.analysis.measure_latency_preference</title>
<polygon fill="none" stroke="black" stroke-width="0.5" points="1517,-96.5 1243,-96.5 1243,-75.5 1517,-75.5 1517,-96.5"/>
<text text-anchor="middle" x="1380" y="-83.5" font-family="Vera" font-size="10.00">topo.command.analysis.measure_latency_preference</text>
</g>
<!-- topo.analysis.featureresponses.MeasureResponseCommand&#45;&gt;topo.command.analysis.measure_latency_preference -->
<g id="edge20" class="edge"><title>topo.analysis.featureresponses.MeasureResponseCommand&#45;&gt;topo.command.analysis.measure_latency_preference</title>
<path fill="none" stroke="black" stroke-width="0.5" d="M1109.17,-113.966C1161.15,-108.598 1225.14,-101.991 1277.86,-96.5472"/>
<polygon fill="black" stroke="black" points="1278.13,-98.2785 1282.93,-96.024 1277.77,-94.797 1278.13,-98.2785"/>
</g>
<!-- topo.analysis.featureresponses.PositionMeasurementCommand -->
<g id="node47" class="node"><title>topo.analysis.featureresponses.PositionMeasurementCommand</title>
<polygon fill="none" stroke="black" stroke-width="0.5" points="1542,-58.5 1218,-58.5 1218,-37.5 1542,-37.5 1542,-58.5"/>
<text text-anchor="middle" x="1380" y="-45.5" font-family="Vera" font-size="10.00">topo.analysis.featureresponses.PositionMeasurementCommand</text>
</g>
<!-- topo.analysis.featureresponses.MeasureResponseCommand&#45;&gt;topo.analysis.featureresponses.PositionMeasurementCommand -->
<g id="edge50" class="edge"><title>topo.analysis.featureresponses.MeasureResponseCommand&#45;&gt;topo.analysis.featureresponses.PositionMeasurementCommand</title>
<path fill="none" stroke="black" stroke-width="0.5" d="M1039.6,-113.958C1076.21,-101.045 1143.09,-78.8742 1202,-67 1218.29,-63.7166 1235.54,-60.976 1252.64,-58.6945"/>
<polygon fill="black" stroke="black" points="1253.21,-60.385 1257.94,-58.0011 1252.75,-56.9146 1253.21,-60.385"/>
</g>
<!-- topo.command.analysis.measure_log_frequency_preference -->
<g id="node57" class="node"><title>topo.command.analysis.measure_log_frequency_preference</title>
<polygon fill="none" stroke="black" stroke-width="0.5" points="1533,-20.5 1227,-20.5 1227,0.5 1533,0.5 1533,-20.5"/>
<text text-anchor="middle" x="1380" y="-7.5" font-family="Vera" font-size="10.00">topo.command.analysis.measure_log_frequency_preference</text>
</g>
<!-- topo.analysis.featureresponses.MeasureResponseCommand&#45;&gt;topo.command.analysis.measure_log_frequency_preference -->
<g id="edge56" class="edge"><title>topo.analysis.featureresponses.MeasureResponseCommand&#45;&gt;topo.command.analysis.measure_log_frequency_preference</title>
<path fill="none" stroke="black" stroke-width="0.5" d="M1027.47,-113.833C1058.87,-93.7561 1132.99,-49.219 1202,-29 1212.83,-25.8271 1224.17,-23.1721 1235.65,-20.9518"/>
<polygon fill="black" stroke="black" points="1235.99,-22.6688 1240.59,-20.0266 1235.35,-19.2289 1235.99,-22.6688"/>
</g>
<!-- topo.command.analysis.update_connectionfields -->
<g id="node24" class="node"><title>topo.command.analysis.update_connectionfields</title>
<polygon fill="none" stroke="black" stroke-width="0.5" points="1505,-286.5 1255,-286.5 1255,-265.5 1505,-265.5 1505,-286.5"/>
<text text-anchor="middle" x="1380" y="-273.5" font-family="Vera" font-size="10.00">topo.command.analysis.update_connectionfields</text>
</g>
<!-- topo.plotting.plotgroup.UnitMeasurementCommand -->
<g id="node25" class="node"><title>topo.plotting.plotgroup.UnitMeasurementCommand</title>
<polygon fill="none" stroke="black" stroke-width="0.5" points="1145,-248.5 879,-248.5 879,-227.5 1145,-227.5 1145,-248.5"/>
<text text-anchor="middle" x="1012" y="-235.5" font-family="Vera" font-size="10.00">topo.plotting.plotgroup.UnitMeasurementCommand</text>
</g>
<!-- topo.plotting.plotgroup.UnitMeasurementCommand&#45;&gt;topo.command.analysis.update_connectionfields -->
<g id="edge22" class="edge"><title>topo.plotting.plotgroup.UnitMeasurementCommand&#45;&gt;topo.command.analysis.update_connectionfields</title>
<path fill="none" stroke="black" stroke-width="0.5" d="M1109.17,-248.034C1161.15,-253.402 1225.14,-260.009 1277.86,-265.453"/>
<polygon fill="black" stroke="black" points="1277.77,-267.203 1282.93,-265.976 1278.13,-263.722 1277.77,-267.203"/>
</g>
<!-- topo.command.analysis.update_projection -->
<g id="node31" class="node"><title>topo.command.analysis.update_projection</title>
<polygon fill="none" stroke="black" stroke-width="0.5" points="1490,-248.5 1270,-248.5 1270,-227.5 1490,-227.5 1490,-248.5"/>
<text text-anchor="middle" x="1380" y="-235.5" font-family="Vera" font-size="10.00">topo.command.analysis.update_projection</text>
</g>
<!-- topo.plotting.plotgroup.UnitMeasurementCommand&#45;&gt;topo.command.analysis.update_projection -->
<g id="edge28" class="edge"><title>topo.plotting.plotgroup.UnitMeasurementCommand&#45;&gt;topo.command.analysis.update_projection</title>
<path fill="none" stroke="black" stroke-width="0.5" d="M1145.12,-238C1184.11,-238 1226.42,-238 1264.24,-238"/>
<polygon fill="black" stroke="black" points="1264.3,-239.75 1269.3,-238 1264.3,-236.25 1264.3,-239.75"/>
</g>
<!-- topo.plotting.plotgroup.ProjectionSheetMeasurementCommand -->
<g id="node29" class="node"><title>topo.plotting.plotgroup.ProjectionSheetMeasurementCommand</title>
<polygon fill="none" stroke="black" stroke-width="0.5" points="822,-210.5 500,-210.5 500,-189.5 822,-189.5 822,-210.5"/>
<text text-anchor="middle" x="661" y="-197.5" font-family="Vera" font-size="10.00">topo.plotting.plotgroup.ProjectionSheetMeasurementCommand</text>
</g>
<!-- param.parameterized.ParameterizedFunction&#45;&gt;topo.plotting.plotgroup.ProjectionSheetMeasurementCommand -->
<g id="edge26" class="edge"><title>param.parameterized.ParameterizedFunction&#45;&gt;topo.plotting.plotgroup.ProjectionSheetMeasurementCommand</title>
<path fill="none" stroke="black" stroke-width="0.5" d="M464.369,-193.738C474.323,-194.055 484.506,-194.379 494.741,-194.705"/>
<polygon fill="black" stroke="black" points="494.716,-196.455 499.769,-194.865 494.827,-192.957 494.716,-196.455"/>
</g>
<!-- topo.command.analysis.save_plotgroup -->
<g id="node33" class="node"><title>topo.command.analysis.save_plotgroup</title>
<polygon fill="none" stroke="black" stroke-width="0.5" points="765,-172.5 557,-172.5 557,-151.5 765,-151.5 765,-172.5"/>
<text text-anchor="middle" x="661" y="-159.5" font-family="Vera" font-size="10.00">topo.command.analysis.save_plotgroup</text>
</g>
<!-- param.parameterized.ParameterizedFunction&#45;&gt;topo.command.analysis.save_plotgroup -->
<g id="edge30" class="edge"><title>param.parameterized.ParameterizedFunction&#45;&gt;topo.command.analysis.save_plotgroup</title>
<path fill="none" stroke="black" stroke-width="0.5" d="M459.474,-179.97C489.501,-177.293 521.896,-174.404 551.746,-171.742"/>
<polygon fill="black" stroke="black" points="552.075,-173.47 556.9,-171.283 551.764,-169.984 552.075,-173.47"/>
</g>
<!-- topo.analysis.featureresponses.PatternPresentingCommand -->
<g id="node37" class="node"><title>topo.analysis.featureresponses.PatternPresentingCommand</title>
<polygon fill="none" stroke="black" stroke-width="0.5" points="813,-134.5 509,-134.5 509,-113.5 813,-113.5 813,-134.5"/>
<text text-anchor="middle" x="661" y="-121.5" font-family="Vera" font-size="10.00">topo.analysis.featureresponses.PatternPresentingCommand</text>
</g>
<!-- param.parameterized.ParameterizedFunction&#45;&gt;topo.analysis.featureresponses.PatternPresentingCommand -->
<g id="edge36" class="edge"><title>param.parameterized.ParameterizedFunction&#45;&gt;topo.analysis.featureresponses.PatternPresentingCommand</title>
<path fill="none" stroke="black" stroke-width="0.5" d="M437.742,-179.934C446.796,-177.553 455.7,-174.618 464,-171 482.582,-162.901 481.247,-150.692 500,-143 507.224,-140.037 514.773,-137.493 522.492,-135.312"/>
<polygon fill="black" stroke="black" points="522.952,-137 527.318,-134 522.034,-133.623 522.952,-137"/>
</g>
<!-- topo.plotting.plotgroup.ProjectionSheetMeasurementCommand&#45;&gt;topo.plotting.plotgroup.UnitMeasurementCommand -->
<g id="edge58" class="edge"><title>topo.plotting.plotgroup.ProjectionSheetMeasurementCommand&#45;&gt;topo.plotting.plotgroup.UnitMeasurementCommand</title>
<path fill="none" stroke="black" stroke-width="0.5" d="M753.68,-210.034C803.164,-215.391 864.045,-221.982 914.273,-227.42"/>
<polygon fill="black" stroke="black" points="914.25,-229.178 919.409,-227.976 914.627,-225.698 914.25,-229.178"/>
</g>
<!-- topo.command.analysis.update_projectionactivity -->
<g id="node42" class="node"><title>topo.command.analysis.update_projectionactivity</title>
<polygon fill="none" stroke="black" stroke-width="0.5" points="1139,-210.5 885,-210.5 885,-189.5 1139,-189.5 1139,-210.5"/>
<text text-anchor="middle" x="1012" y="-197.5" font-family="Vera" font-size="10.00">topo.command.analysis.update_projectionactivity</text>
</g>
<!-- topo.plotting.plotgroup.ProjectionSheetMeasurementCommand&#45;&gt;topo.command.analysis.update_projectionactivity -->
<g id="edge40" class="edge"><title>topo.plotting.plotgroup.ProjectionSheetMeasurementCommand&#45;&gt;topo.command.analysis.update_projectionactivity</title>
<path fill="none" stroke="black" stroke-width="0.5" d="M822.118,-200C841.391,-200 860.898,-200 879.699,-200"/>
<polygon fill="black" stroke="black" points="879.982,-201.75 884.982,-200 879.982,-198.25 879.982,-201.75"/>
</g>
<!-- topo.analysis.featureresponses.PatternPresentingCommand&#45;&gt;topo.analysis.featureresponses.MeasureResponseCommand -->
<g id="edge34" class="edge"><title>topo.analysis.featureresponses.PatternPresentingCommand&#45;&gt;topo.analysis.featureresponses.MeasureResponseCommand</title>
<path fill="none" stroke="black" stroke-width="0.5" d="M813.677,-124C826.734,-124 839.963,-124 853.067,-124"/>
<polygon fill="black" stroke="black" points="853.278,-125.75 858.278,-124 853.278,-122.25 853.278,-125.75"/>
</g>
<!-- topo.command.analysis.measure_corner_or_pref -->
<g id="node46" class="node"><title>topo.command.analysis.measure_corner_or_pref</title>
<polygon fill="none" stroke="black" stroke-width="0.5" points="1855,-58.5 1603,-58.5 1603,-37.5 1855,-37.5 1855,-58.5"/>
<text text-anchor="middle" x="1729" y="-45.5" font-family="Vera" font-size="10.00">topo.command.analysis.measure_corner_or_pref</text>
</g>
<!-- topo.analysis.featureresponses.PositionMeasurementCommand&#45;&gt;topo.command.analysis.measure_corner_or_pref -->
<g id="edge44" class="edge"><title>topo.analysis.featureresponses.PositionMeasurementCommand&#45;&gt;topo.command.analysis.measure_corner_or_pref</title>
<path fill="none" stroke="black" stroke-width="0.5" d="M1542.24,-48C1560.87,-48 1579.69,-48 1597.84,-48"/>
<polygon fill="black" stroke="black" points="1597.94,-49.7501 1602.94,-48 1597.94,-46.2501 1597.94,-49.7501"/>
</g>
<!-- topo.command.analysis.measure_corner_angle_pref -->
<g id="node55" class="node"><title>topo.command.analysis.measure_corner_angle_pref</title>
<polygon fill="none" stroke="black" stroke-width="0.5" points="1863,-20.5 1595,-20.5 1595,0.5 1863,0.5 1863,-20.5"/>
<text text-anchor="middle" x="1729" y="-7.5" font-family="Vera" font-size="10.00">topo.command.analysis.measure_corner_angle_pref</text>
</g>
<!-- topo.analysis.featureresponses.PositionMeasurementCommand&#45;&gt;topo.command.analysis.measure_corner_angle_pref -->
<g id="edge54" class="edge"><title>topo.analysis.featureresponses.PositionMeasurementCommand&#45;&gt;topo.command.analysis.measure_corner_angle_pref</title>
<path fill="none" stroke="black" stroke-width="0.5" d="M1474.7,-37.9688C1501.62,-35.096 1530.97,-31.9447 1558,-29 1582.67,-26.3125 1609.34,-23.3679 1634.12,-20.6164"/>
<polygon fill="black" stroke="black" points="1634.6,-22.3239 1639.37,-20.0323 1634.21,-18.8453 1634.6,-22.3239"/>
</g>
</g>
</svg>
