<?xml version="1.0" encoding="UTF-8" standalone="no"?>
<!DOCTYPE svg PUBLIC "-//W3C//DTD SVG 1.1//EN"
 "http://www.w3.org/Graphics/SVG/1.1/DTD/svg11.dtd">
<!-- Generated by graphviz version 2.26.3 (20100126.1600)
 -->
<!-- Title: inheritance50a093cced Pages: 1 -->
<svg width="440pt" height="66pt"
 viewBox="0.00 0.00 440.00 66.00" xmlns="http://www.w3.org/2000/svg" xmlns:xlink="http://www.w3.org/1999/xlink">
<g id="graph1" class="graph" transform="scale(1 1) rotate(0) translate(4 62)">
<title>inheritance50a093cced</title>
<polygon fill="white" stroke="white" points="-4,5 -4,-62 437,-62 437,5 -4,5"/>
<!-- unittest.case.TestCase -->
<g id="node1" class="node"><title>unittest.case.TestCase</title>
<polygon fill="none" stroke="black" stroke-width="0.5" points="116,-39 4.9738e-14,-39 0,-19 116,-19 116,-39"/>
<text text-anchor="middle" x="58" y="-26" font-family="Vera" font-size="10.00">unittest.case.TestCase</text>
</g>
<!-- topo.tests.unit.testpatterngenerator.TestPatternGenerator -->
<g id="node2" class="node"><title>topo.tests.unit.testpatterngenerator.TestPatternGenerator</title>
<polygon fill="none" stroke="black" stroke-width="0.5" points="431,-58 153,-58 153,-38 431,-38 431,-58"/>
<text text-anchor="middle" x="292" y="-45" font-family="Vera" font-size="10.00">topo.tests.unit.testpatterngenerator.TestPatternGenerator</text>
</g>
<!-- unittest.case.TestCase&#45;&gt;topo.tests.unit.testpatterngenerator.TestPatternGenerator -->
<g id="edge2" class="edge"><title>unittest.case.TestCase&#45;&gt;topo.tests.unit.testpatterngenerator.TestPatternGenerator</title>
<path fill="none" stroke="black" stroke-width="0.5" d="M116.143,-33.721C130.741,-34.9063 146.991,-36.2257 163.549,-37.5703"/>
<polygon fill="black" stroke="black" points="163.572,-39.3277 168.697,-37.9882 163.855,-35.8392 163.572,-39.3277"/>
</g>
<!-- topo.tests.unit.testpatterngenerator.TestSelector -->
<g id="node4" class="node"><title>topo.tests.unit.testpatterngenerator.TestSelector</title>
<polygon fill="none" stroke="black" stroke-width="0.5" points="410,-20 174,-20 174,-1.06581e-14 410,-3.55271e-15 410,-20"/>
<text text-anchor="middle" x="292" y="-7" font-family="Vera" font-size="10.00">topo.tests.unit.testpatterngenerator.TestSelector</text>
</g>
<!-- unittest.case.TestCase&#45;&gt;topo.tests.unit.testpatterngenerator.TestSelector -->
<g id="edge4" class="edge"><title>unittest.case.TestCase&#45;&gt;topo.tests.unit.testpatterngenerator.TestSelector</title>
<path fill="none" stroke="black" stroke-width="0.5" d="M116.143,-24.279C132.227,-22.973 150.318,-21.5041 168.617,-20.0182"/>
<polygon fill="black" stroke="black" points="168.941,-21.7478 173.783,-19.5988 168.658,-18.2593 168.941,-21.7478"/>
</g>
</g>
</svg>
