<?xml version="1.0" encoding="UTF-8" standalone="no"?>
<!DOCTYPE svg PUBLIC "-//W3C//DTD SVG 1.1//EN"
 "http://www.w3.org/Graphics/SVG/1.1/DTD/svg11.dtd">
<!-- Generated by graphviz version 2.26.3 (20100126.1600)
 -->
<!-- Title: inheritance8c61d587de Pages: 1 -->
<svg width="158pt" height="294pt"
 viewBox="0.00 0.00 158.00 294.00" xmlns="http://www.w3.org/2000/svg" xmlns:xlink="http://www.w3.org/1999/xlink">
<g id="graph1" class="graph" transform="scale(1 1) rotate(0) translate(4 290)">
<title>inheritance8c61d587de</title>
<polygon fill="white" stroke="white" points="-4,5 -4,-290 155,-290 155,5 -4,5"/>
<!-- topo.misc.asizeof._Slots -->
<g id="node1" class="node"><title>topo.misc.asizeof._Slots</title>
<polygon fill="none" stroke="black" stroke-width="0.5" points="136,-20 14,-20 14,-1.06581e-14 136,-3.55271e-15 136,-20"/>
<text text-anchor="middle" x="75" y="-7" font-family="Vera" font-size="10.00">topo.misc.asizeof._Slots</text>
</g>
<!-- topo.misc.asizeof._Prof -->
<g id="node2" class="node"><title>topo.misc.asizeof._Prof</title>
<polygon fill="none" stroke="black" stroke-width="0.5" points="135,-58 15,-58 15,-38 135,-38 135,-58"/>
<text text-anchor="middle" x="75" y="-45" font-family="Vera" font-size="10.00">topo.misc.asizeof._Prof</text>
</g>
<!-- topo.misc.asizeof._Instkey -->
<g id="node3" class="node"><title>topo.misc.asizeof._Instkey</title>
<polygon fill="none" stroke="black" stroke-width="0.5" points="142,-96 8,-96 8,-76 142,-76 142,-96"/>
<text text-anchor="middle" x="75" y="-83" font-family="Vera" font-size="10.00">topo.misc.asizeof._Instkey</text>
</g>
<!-- topo.misc.asizeof.Asizer -->
<g id="node4" class="node"><title>topo.misc.asizeof.Asizer</title>
<polygon fill="none" stroke="black" stroke-width="0.5" points="137,-134 13,-134 13,-114 137,-114 137,-134"/>
<text text-anchor="middle" x="75" y="-121" font-family="Vera" font-size="10.00">topo.misc.asizeof.Asizer</text>
</g>
<!-- topo.misc.asizeof._NamedRef -->
<g id="node5" class="node"><title>topo.misc.asizeof._NamedRef</title>
<polygon fill="none" stroke="black" stroke-width="0.5" points="150,-172 7.10543e-14,-172 0,-152 150,-152 150,-172"/>
<text text-anchor="middle" x="75" y="-159" font-family="Vera" font-size="10.00">topo.misc.asizeof._NamedRef</text>
</g>
<!-- topo.misc.asizeof.Asized -->
<g id="node6" class="node"><title>topo.misc.asizeof.Asized</title>
<polygon fill="none" stroke="black" stroke-width="0.5" points="138,-210 12,-210 12,-190 138,-190 138,-210"/>
<text text-anchor="middle" x="75" y="-197" font-family="Vera" font-size="10.00">topo.misc.asizeof.Asized</text>
</g>
<!-- topo.misc.asizeof._Claskey -->
<g id="node7" class="node"><title>topo.misc.asizeof._Claskey</title>
<polygon fill="none" stroke="black" stroke-width="0.5" points="143,-248 7,-248 7,-228 143,-228 143,-248"/>
<text text-anchor="middle" x="75" y="-235" font-family="Vera" font-size="10.00">topo.misc.asizeof._Claskey</text>
</g>
<!-- topo.misc.asizeof._Typedef -->
<g id="node8" class="node"><title>topo.misc.asizeof._Typedef</title>
<polygon fill="none" stroke="black" stroke-width="0.5" points="144,-286 6,-286 6,-266 144,-266 144,-286"/>
<text text-anchor="middle" x="75" y="-273" font-family="Vera" font-size="10.00">topo.misc.asizeof._Typedef</text>
</g>
</g>
</svg>
