<?xml version="1.0" encoding="UTF-8" standalone="no"?>
<!DOCTYPE svg PUBLIC "-//W3C//DTD SVG 1.1//EN"
 "http://www.w3.org/Graphics/SVG/1.1/DTD/svg11.dtd">
<!-- Generated by graphviz version 2.26.3 (20100126.1600)
 -->
<!-- Title: inheritance97c36bc686 Pages: 1 -->
<svg width="2280pt" height="151pt"
 viewBox="0.00 0.00 2280.00 151.00" xmlns="http://www.w3.org/2000/svg" xmlns:xlink="http://www.w3.org/1999/xlink">
<g id="graph1" class="graph" transform="scale(1 1) rotate(0) translate(4 147)">
<title>inheritance97c36bc686</title>
<polygon fill="white" stroke="white" points="-4,5 -4,-147 2277,-147 2277,5 -4,5"/>
<!-- topo.plotting.plotgroup.RetinotopyPlotGroup -->
<g id="node1" class="node"><title>topo.plotting.plotgroup.RetinotopyPlotGroup</title>
<polygon fill="none" stroke="black" stroke-width="0.5" points="1399,-124.5 1173,-124.5 1173,-103.5 1399,-103.5 1399,-124.5"/>
<text text-anchor="middle" x="1286" y="-111.5" font-family="Vera" font-size="10.00">topo.plotting.plotgroup.RetinotopyPlotGroup</text>
</g>
<!-- topo.plotting.plotgroup.TemplatePlotGroup -->
<g id="node2" class="node"><title>topo.plotting.plotgroup.TemplatePlotGroup</title>
<polygon fill="none" stroke="black" stroke-width="0.5" points="1101,-86.5 881,-86.5 881,-65.5 1101,-65.5 1101,-86.5"/>
<text text-anchor="middle" x="991" y="-73.5" font-family="Vera" font-size="10.00">topo.plotting.plotgroup.TemplatePlotGroup</text>
</g>
<!-- topo.plotting.plotgroup.TemplatePlotGroup&#45;&gt;topo.plotting.plotgroup.RetinotopyPlotGroup -->
<g id="edge2" class="edge"><title>topo.plotting.plotgroup.TemplatePlotGroup&#45;&gt;topo.plotting.plotgroup.RetinotopyPlotGroup</title>
<path fill="none" stroke="black" stroke-width="0.5" d="M1068.89,-86.0338C1110.23,-91.3585 1161.03,-97.9023 1203.1,-103.321"/>
<polygon fill="black" stroke="black" points="1203,-105.073 1208.18,-103.976 1203.45,-101.601 1203,-105.073"/>
</g>
<!-- topo.plotting.plotgroup.ProjectionSheetPlotGroup -->
<g id="node5" class="node"><title>topo.plotting.plotgroup.ProjectionSheetPlotGroup</title>
<polygon fill="none" stroke="black" stroke-width="0.5" points="1412,-86.5 1160,-86.5 1160,-65.5 1412,-65.5 1412,-86.5"/>
<text text-anchor="middle" x="1286" y="-73.5" font-family="Vera" font-size="10.00">topo.plotting.plotgroup.ProjectionSheetPlotGroup</text>
</g>
<!-- topo.plotting.plotgroup.TemplatePlotGroup&#45;&gt;topo.plotting.plotgroup.ProjectionSheetPlotGroup -->
<g id="edge28" class="edge"><title>topo.plotting.plotgroup.TemplatePlotGroup&#45;&gt;topo.plotting.plotgroup.ProjectionSheetPlotGroup</title>
<path fill="none" stroke="black" stroke-width="0.5" d="M1101.27,-76C1118.77,-76 1137.02,-76 1154.94,-76"/>
<polygon fill="black" stroke="black" points="1154.99,-77.7501 1159.99,-76 1154.99,-74.2501 1154.99,-77.7501"/>
</g>
<!-- topo.plotting.plotgroup.TwoOrientationsPlotGroup -->
<g id="node29" class="node"><title>topo.plotting.plotgroup.TwoOrientationsPlotGroup</title>
<polygon fill="none" stroke="black" stroke-width="0.5" points="1411,-48.5 1161,-48.5 1161,-27.5 1411,-27.5 1411,-48.5"/>
<text text-anchor="middle" x="1286" y="-35.5" font-family="Vera" font-size="10.00">topo.plotting.plotgroup.TwoOrientationsPlotGroup</text>
</g>
<!-- topo.plotting.plotgroup.TemplatePlotGroup&#45;&gt;topo.plotting.plotgroup.TwoOrientationsPlotGroup -->
<g id="edge26" class="edge"><title>topo.plotting.plotgroup.TemplatePlotGroup&#45;&gt;topo.plotting.plotgroup.TwoOrientationsPlotGroup</title>
<path fill="none" stroke="black" stroke-width="0.5" d="M1068.89,-65.9662C1110.23,-60.6415 1161.03,-54.0977 1203.1,-48.6791"/>
<polygon fill="black" stroke="black" points="1203.45,-50.3986 1208.18,-48.024 1203,-46.9273 1203.45,-50.3986"/>
</g>
<!-- topo.plotting.plotgroup.UnitPlotGroup -->
<g id="node4" class="node"><title>topo.plotting.plotgroup.UnitPlotGroup</title>
<polygon fill="none" stroke="black" stroke-width="0.5" points="1675,-124.5 1479,-124.5 1479,-103.5 1675,-103.5 1675,-124.5"/>
<text text-anchor="middle" x="1577" y="-111.5" font-family="Vera" font-size="10.00">topo.plotting.plotgroup.UnitPlotGroup</text>
</g>
<!-- topo.plotting.plotgroup.ConnectionFieldsPlotGroup -->
<g id="node20" class="node"><title>topo.plotting.plotgroup.ConnectionFieldsPlotGroup</title>
<polygon fill="none" stroke="black" stroke-width="0.5" points="1999,-143.5 1743,-143.5 1743,-122.5 1999,-122.5 1999,-143.5"/>
<text text-anchor="middle" x="1871" y="-130.5" font-family="Vera" font-size="10.00">topo.plotting.plotgroup.ConnectionFieldsPlotGroup</text>
</g>
<!-- topo.plotting.plotgroup.UnitPlotGroup&#45;&gt;topo.plotting.plotgroup.ConnectionFieldsPlotGroup -->
<g id="edge18" class="edge"><title>topo.plotting.plotgroup.UnitPlotGroup&#45;&gt;topo.plotting.plotgroup.ConnectionFieldsPlotGroup</title>
<path fill="none" stroke="black" stroke-width="0.5" d="M1675.31,-120.353C1695.24,-121.642 1716.52,-123.017 1737.44,-124.369"/>
<polygon fill="black" stroke="black" points="1737.36,-126.117 1742.46,-124.693 1737.59,-122.624 1737.36,-126.117"/>
</g>
<!-- topo.plotting.plotgroup.FeatureCurvePlotGroup -->
<g id="node22" class="node"><title>topo.plotting.plotgroup.FeatureCurvePlotGroup</title>
<polygon fill="none" stroke="black" stroke-width="0.5" points="1991,-105.5 1751,-105.5 1751,-84.5 1991,-84.5 1991,-105.5"/>
<text text-anchor="middle" x="1871" y="-92.5" font-family="Vera" font-size="10.00">topo.plotting.plotgroup.FeatureCurvePlotGroup</text>
</g>
<!-- topo.plotting.plotgroup.UnitPlotGroup&#45;&gt;topo.plotting.plotgroup.FeatureCurvePlotGroup -->
<g id="edge20" class="edge"><title>topo.plotting.plotgroup.UnitPlotGroup&#45;&gt;topo.plotting.plotgroup.FeatureCurvePlotGroup</title>
<path fill="none" stroke="black" stroke-width="0.5" d="M1675.31,-107.647C1697.9,-106.186 1722.23,-104.614 1745.8,-103.091"/>
<polygon fill="black" stroke="black" points="1745.94,-104.836 1750.81,-102.767 1745.71,-101.343 1745.94,-104.836"/>
</g>
<!-- topo.plotting.plotgroup.ProjectionSheetPlotGroup&#45;&gt;topo.plotting.plotgroup.UnitPlotGroup -->
<g id="edge4" class="edge"><title>topo.plotting.plotgroup.ProjectionSheetPlotGroup&#45;&gt;topo.plotting.plotgroup.UnitPlotGroup</title>
<path fill="none" stroke="black" stroke-width="0.5" d="M1362.84,-86.0338C1403.61,-91.3585 1453.73,-97.9023 1495.22,-103.321"/>
<polygon fill="black" stroke="black" points="1495.05,-105.064 1500.24,-103.976 1495.51,-101.593 1495.05,-105.064"/>
</g>
<!-- topo.plotting.plotgroup.ProjectionActivityPlotGroup -->
<g id="node11" class="node"><title>topo.plotting.plotgroup.ProjectionActivityPlotGroup</title>
<polygon fill="none" stroke="black" stroke-width="0.5" points="1706,-86.5 1448,-86.5 1448,-65.5 1706,-65.5 1706,-86.5"/>
<text text-anchor="middle" x="1577" y="-73.5" font-family="Vera" font-size="10.00">topo.plotting.plotgroup.ProjectionActivityPlotGroup</text>
</g>
<!-- topo.plotting.plotgroup.ProjectionSheetPlotGroup&#45;&gt;topo.plotting.plotgroup.ProjectionActivityPlotGroup -->
<g id="edge8" class="edge"><title>topo.plotting.plotgroup.ProjectionSheetPlotGroup&#45;&gt;topo.plotting.plotgroup.ProjectionActivityPlotGroup</title>
<path fill="none" stroke="black" stroke-width="0.5" d="M1412.37,-76C1422.52,-76 1432.79,-76 1442.99,-76"/>
<polygon fill="black" stroke="black" points="1442.99,-77.7501 1447.99,-76 1442.99,-74.2501 1442.99,-77.7501"/>
</g>
<!-- topo.plotting.plotgroup.GridPlotGroup -->
<g id="node27" class="node"><title>topo.plotting.plotgroup.GridPlotGroup</title>
<polygon fill="none" stroke="black" stroke-width="0.5" points="1675,-48.5 1479,-48.5 1479,-27.5 1675,-27.5 1675,-48.5"/>
<text text-anchor="middle" x="1577" y="-35.5" font-family="Vera" font-size="10.00">topo.plotting.plotgroup.GridPlotGroup</text>
</g>
<!-- topo.plotting.plotgroup.ProjectionSheetPlotGroup&#45;&gt;topo.plotting.plotgroup.GridPlotGroup -->
<g id="edge30" class="edge"><title>topo.plotting.plotgroup.ProjectionSheetPlotGroup&#45;&gt;topo.plotting.plotgroup.GridPlotGroup</title>
<path fill="none" stroke="black" stroke-width="0.5" d="M1362.84,-65.9662C1403.61,-60.6415 1453.73,-54.0977 1495.22,-48.6791"/>
<polygon fill="black" stroke="black" points="1495.51,-50.4068 1500.24,-48.024 1495.05,-46.9363 1495.51,-50.4068"/>
</g>
<!-- topo.plotting.plotgroup.CFProjectionPlotGroup -->
<g id="node7" class="node"><title>topo.plotting.plotgroup.CFProjectionPlotGroup</title>
<polygon fill="none" stroke="black" stroke-width="0.5" points="2272,-58.5 2036,-58.5 2036,-37.5 2272,-37.5 2272,-58.5"/>
<text text-anchor="middle" x="2154" y="-45.5" font-family="Vera" font-size="10.00">topo.plotting.plotgroup.CFProjectionPlotGroup</text>
</g>
<!-- topo.plotting.plotgroup.ProjectionPlotGroup -->
<g id="node8" class="node"><title>topo.plotting.plotgroup.ProjectionPlotGroup</title>
<polygon fill="none" stroke="black" stroke-width="0.5" points="1983,-58.5 1759,-58.5 1759,-37.5 1983,-37.5 1983,-58.5"/>
<text text-anchor="middle" x="1871" y="-45.5" font-family="Vera" font-size="10.00">topo.plotting.plotgroup.ProjectionPlotGroup</text>
</g>
<!-- topo.plotting.plotgroup.ProjectionPlotGroup&#45;&gt;topo.plotting.plotgroup.CFProjectionPlotGroup -->
<g id="edge6" class="edge"><title>topo.plotting.plotgroup.ProjectionPlotGroup&#45;&gt;topo.plotting.plotgroup.CFProjectionPlotGroup</title>
<path fill="none" stroke="black" stroke-width="0.5" d="M1983.26,-48C1998.78,-48 2014.8,-48 2030.52,-48"/>
<polygon fill="black" stroke="black" points="2030.84,-49.7501 2035.84,-48 2030.84,-46.2501 2030.84,-49.7501"/>
</g>
<!-- param.parameterized.Parameterized -->
<g id="node10" class="node"><title>param.parameterized.Parameterized</title>
<polygon fill="none" stroke="black" stroke-width="0.5" points="194,-67.5 5.68434e-14,-67.5 0,-46.5 194,-46.5 194,-67.5"/>
<text text-anchor="middle" x="97" y="-54.5" font-family="Vera" font-size="10.00">param.parameterized.Parameterized</text>
</g>
<!-- topo.plotting.plotgroup.PlotGroup -->
<g id="node15" class="node"><title>topo.plotting.plotgroup.PlotGroup</title>
<polygon fill="none" stroke="black" stroke-width="0.5" points="435,-86.5 259,-86.5 259,-65.5 435,-65.5 435,-86.5"/>
<text text-anchor="middle" x="347" y="-73.5" font-family="Vera" font-size="10.00">topo.plotting.plotgroup.PlotGroup</text>
</g>
<!-- param.parameterized.Parameterized&#45;&gt;topo.plotting.plotgroup.PlotGroup -->
<g id="edge14" class="edge"><title>param.parameterized.Parameterized&#45;&gt;topo.plotting.plotgroup.PlotGroup</title>
<path fill="none" stroke="black" stroke-width="0.5" d="M194.014,-64.3731C213.46,-65.851 233.859,-67.4013 253.193,-68.8707"/>
<polygon fill="black" stroke="black" points="253.499,-70.6489 258.617,-69.2829 253.764,-67.1589 253.499,-70.6489"/>
</g>
<!-- param.parameterized.ParameterizedFunction -->
<g id="node18" class="node"><title>param.parameterized.ParameterizedFunction</title>
<polygon fill="none" stroke="black" stroke-width="0.5" points="464,-48.5 230,-48.5 230,-27.5 464,-27.5 464,-48.5"/>
<text text-anchor="middle" x="347" y="-35.5" font-family="Vera" font-size="10.00">param.parameterized.ParameterizedFunction</text>
</g>
<!-- param.parameterized.Parameterized&#45;&gt;param.parameterized.ParameterizedFunction -->
<g id="edge16" class="edge"><title>param.parameterized.Parameterized&#45;&gt;param.parameterized.ParameterizedFunction</title>
<path fill="none" stroke="black" stroke-width="0.5" d="M194.014,-49.6269C204.04,-48.8649 214.319,-48.0837 224.575,-47.3043"/>
<polygon fill="black" stroke="black" points="224.754,-49.0458 229.607,-46.9219 224.489,-45.5559 224.754,-49.0458"/>
</g>
<!-- topo.plotting.plotgroup.SheetPlotGroup -->
<g id="node13" class="node"><title>topo.plotting.plotgroup.SheetPlotGroup</title>
<polygon fill="none" stroke="black" stroke-width="0.5" points="763,-86.5 559,-86.5 559,-65.5 763,-65.5 763,-86.5"/>
<text text-anchor="middle" x="661" y="-73.5" font-family="Vera" font-size="10.00">topo.plotting.plotgroup.SheetPlotGroup</text>
</g>
<!-- topo.plotting.plotgroup.SheetPlotGroup&#45;&gt;topo.plotting.plotgroup.TemplatePlotGroup -->
<g id="edge10" class="edge"><title>topo.plotting.plotgroup.SheetPlotGroup&#45;&gt;topo.plotting.plotgroup.TemplatePlotGroup</title>
<path fill="none" stroke="black" stroke-width="0.5" d="M763.605,-76C799.041,-76 838.979,-76 875.385,-76"/>
<polygon fill="black" stroke="black" points="875.73,-77.7501 880.729,-76 875.729,-74.2501 875.73,-77.7501"/>
</g>
<!-- topo.plotting.plotgroup.PlotGroup&#45;&gt;topo.plotting.plotgroup.SheetPlotGroup -->
<g id="edge12" class="edge"><title>topo.plotting.plotgroup.PlotGroup&#45;&gt;topo.plotting.plotgroup.SheetPlotGroup</title>
<path fill="none" stroke="black" stroke-width="0.5" d="M435.302,-76C471.932,-76 514.775,-76 553.234,-76"/>
<polygon fill="black" stroke="black" points="553.387,-77.7501 558.387,-76 553.387,-74.2501 553.387,-77.7501"/>
</g>
<!-- topo.plotting.plotgroup.ProjectionSheetMeasurementCommand -->
<g id="node24" class="node"><title>topo.plotting.plotgroup.ProjectionSheetMeasurementCommand</title>
<polygon fill="none" stroke="black" stroke-width="0.5" points="822,-48.5 500,-48.5 500,-27.5 822,-27.5 822,-48.5"/>
<text text-anchor="middle" x="661" y="-35.5" font-family="Vera" font-size="10.00">topo.plotting.plotgroup.ProjectionSheetMeasurementCommand</text>
</g>
<!-- param.parameterized.ParameterizedFunction&#45;&gt;topo.plotting.plotgroup.ProjectionSheetMeasurementCommand -->
<g id="edge22" class="edge"><title>param.parameterized.ParameterizedFunction&#45;&gt;topo.plotting.plotgroup.ProjectionSheetMeasurementCommand</title>
<path fill="none" stroke="black" stroke-width="0.5" d="M464.369,-38C474.323,-38 484.506,-38 494.741,-38"/>
<polygon fill="black" stroke="black" points="494.769,-39.7501 499.769,-38 494.769,-36.2501 494.769,-39.7501"/>
</g>
<!-- topo.plotting.plotgroup.UnitMeasurementCommand -->
<g id="node33" class="node"><title>topo.plotting.plotgroup.UnitMeasurementCommand</title>
<polygon fill="none" stroke="black" stroke-width="0.5" points="1124,-48.5 858,-48.5 858,-27.5 1124,-27.5 1124,-48.5"/>
<text text-anchor="middle" x="991" y="-35.5" font-family="Vera" font-size="10.00">topo.plotting.plotgroup.UnitMeasurementCommand</text>
</g>
<!-- topo.plotting.plotgroup.ProjectionSheetMeasurementCommand&#45;&gt;topo.plotting.plotgroup.UnitMeasurementCommand -->
<g id="edge32" class="edge"><title>topo.plotting.plotgroup.ProjectionSheetMeasurementCommand&#45;&gt;topo.plotting.plotgroup.UnitMeasurementCommand</title>
<path fill="none" stroke="black" stroke-width="0.5" d="M822.133,-38C832.304,-38 842.494,-38 852.549,-38"/>
<polygon fill="black" stroke="black" points="852.794,-39.7501 857.794,-38 852.794,-36.2501 852.794,-39.7501"/>
</g>
<!-- topo.plotting.plotgroup.RFProjectionPlotGroup -->
<g id="node26" class="node"><title>topo.plotting.plotgroup.RFProjectionPlotGroup</title>
<polygon fill="none" stroke="black" stroke-width="0.5" points="1988,-20.5 1754,-20.5 1754,0.5 1988,0.5 1988,-20.5"/>
<text text-anchor="middle" x="1871" y="-7.5" font-family="Vera" font-size="10.00">topo.plotting.plotgroup.RFProjectionPlotGroup</text>
</g>
<!-- topo.plotting.plotgroup.GridPlotGroup&#45;&gt;topo.plotting.plotgroup.ProjectionPlotGroup -->
<g id="edge34" class="edge"><title>topo.plotting.plotgroup.GridPlotGroup&#45;&gt;topo.plotting.plotgroup.ProjectionPlotGroup</title>
<path fill="none" stroke="black" stroke-width="0.5" d="M1675.31,-41.3438C1700.42,-42.1981 1727.68,-43.1252 1753.65,-44.0084"/>
<polygon fill="black" stroke="black" points="1753.77,-45.7634 1758.82,-44.1845 1753.89,-42.2654 1753.77,-45.7634"/>
</g>
<!-- topo.plotting.plotgroup.GridPlotGroup&#45;&gt;topo.plotting.plotgroup.RFProjectionPlotGroup -->
<g id="edge24" class="edge"><title>topo.plotting.plotgroup.GridPlotGroup&#45;&gt;topo.plotting.plotgroup.RFProjectionPlotGroup</title>
<path fill="none" stroke="black" stroke-width="0.5" d="M1675.31,-28.6375C1702.73,-26.0258 1732.7,-23.1714 1760.76,-20.4989"/>
<polygon fill="black" stroke="black" points="1761.17,-22.2184 1765.98,-20.0021 1760.83,-18.7341 1761.17,-22.2184"/>
</g>
</g>
</svg>
