<?xml version="1.0" encoding="UTF-8" standalone="no"?>
<!DOCTYPE svg PUBLIC "-//W3C//DTD SVG 1.1//EN"
 "http://www.w3.org/Graphics/SVG/1.1/DTD/svg11.dtd">
<!-- Generated by graphviz version 2.26.3 (20100126.1600)
 -->
<!-- Title: inheritance380e6ccf80 Pages: 1 -->
<svg width="780pt" height="199pt"
 viewBox="0.00 0.00 780.00 199.00" xmlns="http://www.w3.org/2000/svg" xmlns:xlink="http://www.w3.org/1999/xlink">
<g id="graph1" class="graph" transform="scale(1 1) rotate(0) translate(4 195)">
<title>inheritance380e6ccf80</title>
<polygon fill="white" stroke="white" points="-4,5 -4,-195 777,-195 777,5 -4,5"/>
<!-- imagen.boundingregion.BoundingRegionParameter -->
<g id="node1" class="node"><title>imagen.boundingregion.BoundingRegionParameter</title>
<polygon fill="none" stroke="black" stroke-width="0.5" points="491,-58 241,-58 241,-38 491,-38 491,-58"/>
<text text-anchor="middle" x="366" y="-45" font-family="Vera" font-size="10.00">imagen.boundingregion.BoundingRegionParameter</text>
</g>
<!-- param.parameterized.Parameter -->
<g id="node2" class="node"><title>param.parameterized.Parameter</title>
<polygon fill="none" stroke="black" stroke-width="0.5" points="184,-39 20,-39 20,-19 184,-19 184,-39"/>
<text text-anchor="middle" x="102" y="-26" font-family="Vera" font-size="10.00">param.parameterized.Parameter</text>
</g>
<!-- param.parameterized.Parameter&#45;&gt;imagen.boundingregion.BoundingRegionParameter -->
<g id="edge2" class="edge"><title>param.parameterized.Parameter&#45;&gt;imagen.boundingregion.BoundingRegionParameter</title>
<path fill="none" stroke="black" stroke-width="0.5" d="M184.807,-34.9596C200.841,-36.1135 218.004,-37.3488 235.142,-38.5822"/>
<polygon fill="black" stroke="black" points="235.346,-40.3513 240.459,-38.9648 235.597,-36.8603 235.346,-40.3513"/>
</g>
<!-- imagen.boundingregion.Cartesian2DPoint -->
<g id="node9" class="node"><title>imagen.boundingregion.Cartesian2DPoint</title>
<polygon fill="none" stroke="black" stroke-width="0.5" points="469,-20 263,-20 263,-1.06581e-14 469,-3.55271e-15 469,-20"/>
<text text-anchor="middle" x="366" y="-7" font-family="Vera" font-size="10.00">imagen.boundingregion.Cartesian2DPoint</text>
</g>
<!-- param.parameterized.Parameter&#45;&gt;imagen.boundingregion.Cartesian2DPoint -->
<g id="edge8" class="edge"><title>param.parameterized.Parameter&#45;&gt;imagen.boundingregion.Cartesian2DPoint</title>
<path fill="none" stroke="black" stroke-width="0.5" d="M184.807,-23.0404C207.677,-21.3944 232.846,-19.583 256.961,-17.8475"/>
<polygon fill="black" stroke="black" points="257.228,-19.5829 262.089,-17.4784 256.977,-16.0919 257.228,-19.5829"/>
</g>
<!-- imagen.boundingregion.BoundingBox -->
<g id="node4" class="node"><title>imagen.boundingregion.BoundingBox</title>
<polygon fill="none" stroke="black" stroke-width="0.5" points="460,-172 272,-172 272,-152 460,-152 460,-172"/>
<text text-anchor="middle" x="366" y="-159" font-family="Vera" font-size="10.00">imagen.boundingregion.BoundingBox</text>
</g>
<!-- imagen.boundingregion.BoundingBoxIntersection -->
<g id="node7" class="node"><title>imagen.boundingregion.BoundingBoxIntersection</title>
<polygon fill="none" stroke="black" stroke-width="0.5" points="771,-191 529,-191 529,-171 771,-171 771,-191"/>
<text text-anchor="middle" x="650" y="-178" font-family="Vera" font-size="10.00">imagen.boundingregion.BoundingBoxIntersection</text>
</g>
<!-- imagen.boundingregion.BoundingBox&#45;&gt;imagen.boundingregion.BoundingBoxIntersection -->
<g id="edge6" class="edge"><title>imagen.boundingregion.BoundingBox&#45;&gt;imagen.boundingregion.BoundingBoxIntersection</title>
<path fill="none" stroke="black" stroke-width="0.5" d="M460.568,-168.327C480.66,-169.671 502.183,-171.111 523.253,-172.52"/>
<polygon fill="black" stroke="black" points="523.206,-174.271 528.311,-172.859 523.439,-170.779 523.206,-174.271"/>
</g>
<!-- imagen.boundingregion.BoundingEllipse -->
<g id="node14" class="node"><title>imagen.boundingregion.BoundingEllipse</title>
<polygon fill="none" stroke="black" stroke-width="0.5" points="750,-153 550,-153 550,-133 750,-133 750,-153"/>
<text text-anchor="middle" x="650" y="-140" font-family="Vera" font-size="10.00">imagen.boundingregion.BoundingEllipse</text>
</g>
<!-- imagen.boundingregion.BoundingBox&#45;&gt;imagen.boundingregion.BoundingEllipse -->
<g id="edge12" class="edge"><title>imagen.boundingregion.BoundingBox&#45;&gt;imagen.boundingregion.BoundingEllipse</title>
<path fill="none" stroke="black" stroke-width="0.5" d="M460.568,-155.673C487.303,-153.885 516.573,-151.926 543.936,-150.096"/>
<polygon fill="black" stroke="black" points="544.151,-151.835 549.023,-149.756 543.917,-148.343 544.151,-151.835"/>
</g>
<!-- imagen.boundingregion.BoundingRegion -->
<g id="node5" class="node"><title>imagen.boundingregion.BoundingRegion</title>
<polygon fill="none" stroke="black" stroke-width="0.5" points="203,-134 1,-134 1,-114 203,-114 203,-134"/>
<text text-anchor="middle" x="102" y="-121" font-family="Vera" font-size="10.00">imagen.boundingregion.BoundingRegion</text>
</g>
<!-- imagen.boundingregion.BoundingRegion&#45;&gt;imagen.boundingregion.BoundingBox -->
<g id="edge4" class="edge"><title>imagen.boundingregion.BoundingRegion&#45;&gt;imagen.boundingregion.BoundingBox</title>
<path fill="none" stroke="black" stroke-width="0.5" d="M171.708,-134.034C208.551,-139.337 253.794,-145.849 291.349,-151.255"/>
<polygon fill="black" stroke="black" points="291.161,-152.996 296.359,-151.976 291.66,-149.531 291.161,-152.996"/>
</g>
<!-- imagen.boundingregion.BoundingCircle -->
<g id="node12" class="node"><title>imagen.boundingregion.BoundingCircle</title>
<polygon fill="none" stroke="black" stroke-width="0.5" points="464,-134 268,-134 268,-114 464,-114 464,-134"/>
<text text-anchor="middle" x="366" y="-121" font-family="Vera" font-size="10.00">imagen.boundingregion.BoundingCircle</text>
</g>
<!-- imagen.boundingregion.BoundingRegion&#45;&gt;imagen.boundingregion.BoundingCircle -->
<g id="edge10" class="edge"><title>imagen.boundingregion.BoundingRegion&#45;&gt;imagen.boundingregion.BoundingCircle</title>
<path fill="none" stroke="black" stroke-width="0.5" d="M203.692,-124C222.811,-124 242.826,-124 262.014,-124"/>
<polygon fill="black" stroke="black" points="262.403,-125.75 267.403,-124 262.403,-122.25 262.403,-125.75"/>
</g>
<!-- imagen.boundingregion.Unbounded -->
<g id="node16" class="node"><title>imagen.boundingregion.Unbounded</title>
<polygon fill="none" stroke="black" stroke-width="0.5" points="457,-96 275,-96 275,-76 457,-76 457,-96"/>
<text text-anchor="middle" x="366" y="-83" font-family="Vera" font-size="10.00">imagen.boundingregion.Unbounded</text>
</g>
<!-- imagen.boundingregion.BoundingRegion&#45;&gt;imagen.boundingregion.Unbounded -->
<g id="edge14" class="edge"><title>imagen.boundingregion.BoundingRegion&#45;&gt;imagen.boundingregion.Unbounded</title>
<path fill="none" stroke="black" stroke-width="0.5" d="M171.708,-113.966C208.551,-108.663 253.794,-102.151 291.349,-96.7453"/>
<polygon fill="black" stroke="black" points="291.66,-98.4686 296.359,-96.024 291.161,-95.0043 291.66,-98.4686"/>
</g>
<!-- imagen.boundingregion.AARectangle -->
<g id="node11" class="node"><title>imagen.boundingregion.AARectangle</title>
<polygon fill="none" stroke="black" stroke-width="0.5" points="194,-172 10,-172 10,-152 194,-152 194,-172"/>
<text text-anchor="middle" x="102" y="-159" font-family="Vera" font-size="10.00">imagen.boundingregion.AARectangle</text>
</g>
</g>
</svg>
