<?xml version="1.0" encoding="UTF-8" standalone="no"?>
<!DOCTYPE svg PUBLIC "-//W3C//DTD SVG 1.1//EN"
 "http://www.w3.org/Graphics/SVG/1.1/DTD/svg11.dtd">
<!-- Generated by graphviz version 2.26.3 (20100126.1600)
 -->
<!-- Title: inheritance66b1f728c9 Pages: 1 -->
<svg width="396pt" height="66pt"
 viewBox="0.00 0.00 396.00 66.00" xmlns="http://www.w3.org/2000/svg" xmlns:xlink="http://www.w3.org/1999/xlink">
<g id="graph1" class="graph" transform="scale(1 1) rotate(0) translate(4 62)">
<title>inheritance66b1f728c9</title>
<polygon fill="white" stroke="white" points="-4,5 -4,-62 393,-62 393,5 -4,5"/>
<!-- numpy.ndarray -->
<g id="node1" class="node"><title>numpy.ndarray</title>
<polygon fill="none" stroke="black" stroke-width="0.5" points="153,-20 67,-20 67,-1.06581e-14 153,-3.55271e-15 153,-20"/>
<text text-anchor="middle" x="110" y="-7" font-family="Vera" font-size="10.00">numpy.ndarray</text>
</g>
<!-- imagen.sheetcoords.Slice -->
<g id="node3" class="node"><title>imagen.sheetcoords.Slice</title>
<polygon fill="none" stroke="black" stroke-width="0.5" points="387,-20 257,-20 257,-1.06581e-14 387,-3.55271e-15 387,-20"/>
<text text-anchor="middle" x="322" y="-7" font-family="Vera" font-size="10.00">imagen.sheetcoords.Slice</text>
</g>
<!-- numpy.ndarray&#45;&gt;imagen.sheetcoords.Slice -->
<g id="edge2" class="edge"><title>numpy.ndarray&#45;&gt;imagen.sheetcoords.Slice</title>
<path fill="none" stroke="black" stroke-width="0.5" d="M153.669,-10C181.743,-10 218.864,-10 251.101,-10"/>
<polygon fill="black" stroke="black" points="251.231,-11.7501 256.231,-10 251.231,-8.2501 251.231,-11.7501"/>
</g>
<!-- imagen.sheetcoords.SheetCoordinateSystem -->
<g id="node2" class="node"><title>imagen.sheetcoords.SheetCoordinateSystem</title>
<polygon fill="none" stroke="black" stroke-width="0.5" points="219,-58 1,-58 1,-38 219,-38 219,-58"/>
<text text-anchor="middle" x="110" y="-45" font-family="Vera" font-size="10.00">imagen.sheetcoords.SheetCoordinateSystem</text>
</g>
</g>
</svg>
