<?xml version="1.0" encoding="UTF-8" standalone="no"?>
<!DOCTYPE svg PUBLIC "-//W3C//DTD SVG 1.1//EN"
 "http://www.w3.org/Graphics/SVG/1.1/DTD/svg11.dtd">
<!-- Generated by graphviz version 2.26.3 (20100126.1600)
 -->
<!-- Title: inheritancece7b6403e7 Pages: 1 -->
<svg width="496pt" height="256pt"
 viewBox="0.00 0.00 496.00 256.00" xmlns="http://www.w3.org/2000/svg" xmlns:xlink="http://www.w3.org/1999/xlink">
<g id="graph1" class="graph" transform="scale(1 1) rotate(0) translate(4 252)">
<title>inheritancece7b6403e7</title>
<polygon fill="white" stroke="white" points="-4,5 -4,-252 493,-252 493,5 -4,5"/>
<!-- param.parameterized.overridable_property -->
<g id="node1" class="node"><title>param.parameterized.overridable_property</title>
<polygon fill="none" stroke="black" stroke-width="0.5" points="220,-20 8,-20 8,-1.06581e-14 220,-3.55271e-15 220,-20"/>
<text text-anchor="middle" x="114" y="-7" font-family="Vera" font-size="10.00">param.parameterized.overridable_property</text>
</g>
<!-- param.parameterized.ParameterMetaclass -->
<g id="node2" class="node"><title>param.parameterized.ParameterMetaclass</title>
<polygon fill="none" stroke="black" stroke-width="0.5" points="219,-58 9,-58 9,-38 219,-38 219,-58"/>
<text text-anchor="middle" x="114" y="-45" font-family="Vera" font-size="10.00">param.parameterized.ParameterMetaclass</text>
</g>
<!-- param.parameterized.ParameterizedFunction -->
<g id="node3" class="node"><title>param.parameterized.ParameterizedFunction</title>
<polygon fill="none" stroke="black" stroke-width="0.5" points="487,-96 265,-96 265,-76 487,-76 487,-96"/>
<text text-anchor="middle" x="376" y="-83" font-family="Vera" font-size="10.00">param.parameterized.ParameterizedFunction</text>
</g>
<!-- param.parameterized.Parameterized -->
<g id="node4" class="node"><title>param.parameterized.Parameterized</title>
<polygon fill="none" stroke="black" stroke-width="0.5" points="206,-96 22,-96 22,-76 206,-76 206,-96"/>
<text text-anchor="middle" x="114" y="-83" font-family="Vera" font-size="10.00">param.parameterized.Parameterized</text>
</g>
<!-- param.parameterized.Parameterized&#45;&gt;param.parameterized.ParameterizedFunction -->
<g id="edge2" class="edge"><title>param.parameterized.Parameterized&#45;&gt;param.parameterized.ParameterizedFunction</title>
<path fill="none" stroke="black" stroke-width="0.5" d="M206.003,-86C223.254,-86 241.498,-86 259.381,-86"/>
<polygon fill="black" stroke="black" points="259.414,-87.7501 264.414,-86 259.413,-84.2501 259.414,-87.7501"/>
</g>
<!-- param.parameterized.bothmethod -->
<g id="node6" class="node"><title>param.parameterized.bothmethod</title>
<polygon fill="none" stroke="black" stroke-width="0.5" points="201,-134 27,-134 27,-114 201,-114 201,-134"/>
<text text-anchor="middle" x="114" y="-121" font-family="Vera" font-size="10.00">param.parameterized.bothmethod</text>
</g>
<!-- param.parameterized.Parameter -->
<g id="node7" class="node"><title>param.parameterized.Parameter</title>
<polygon fill="none" stroke="black" stroke-width="0.5" points="196,-172 32,-172 32,-152 196,-152 196,-172"/>
<text text-anchor="middle" x="114" y="-159" font-family="Vera" font-size="10.00">param.parameterized.Parameter</text>
</g>
<!-- param.parameterized.String -->
<g id="node8" class="node"><title>param.parameterized.String</title>
<polygon fill="none" stroke="black" stroke-width="0.5" points="448,-172 304,-172 304,-152 448,-152 448,-172"/>
<text text-anchor="middle" x="376" y="-159" font-family="Vera" font-size="10.00">param.parameterized.String</text>
</g>
<!-- param.parameterized.Parameter&#45;&gt;param.parameterized.String -->
<g id="edge4" class="edge"><title>param.parameterized.Parameter&#45;&gt;param.parameterized.String</title>
<path fill="none" stroke="black" stroke-width="0.5" d="M196.539,-162C229.001,-162 266.085,-162 298.083,-162"/>
<polygon fill="black" stroke="black" points="298.173,-163.75 303.173,-162 298.173,-160.25 298.173,-163.75"/>
</g>
<!-- param.parameterized.ParamOverrides -->
<g id="node10" class="node"><title>param.parameterized.ParamOverrides</title>
<polygon fill="none" stroke="black" stroke-width="0.5" points="210,-210 18,-210 18,-190 210,-190 210,-210"/>
<text text-anchor="middle" x="114" y="-197" font-family="Vera" font-size="10.00">param.parameterized.ParamOverrides</text>
</g>
<!-- param.parameterized.ParameterizedMetaclass -->
<g id="node11" class="node"><title>param.parameterized.ParameterizedMetaclass</title>
<polygon fill="none" stroke="black" stroke-width="0.5" points="228,-248 9.9476e-14,-248 0,-228 228,-228 228,-248"/>
<text text-anchor="middle" x="114" y="-235" font-family="Vera" font-size="10.00">param.parameterized.ParameterizedMetaclass</text>
</g>
</g>
</svg>
