<?xml version="1.0" encoding="UTF-8" standalone="no"?>
<!DOCTYPE svg PUBLIC "-//W3C//DTD SVG 1.1//EN"
 "http://www.w3.org/Graphics/SVG/1.1/DTD/svg11.dtd">
<!-- Generated by graphviz version 2.26.3 (20100126.1600)
 -->
<!-- Title: inheritance8ed98380c7 Pages: 1 -->
<svg width="704pt" height="180pt"
 viewBox="0.00 0.00 704.00 180.00" xmlns="http://www.w3.org/2000/svg" xmlns:xlink="http://www.w3.org/1999/xlink">
<g id="graph1" class="graph" transform="scale(1 1) rotate(0) translate(4 176)">
<title>inheritance8ed98380c7</title>
<polygon fill="white" stroke="white" points="-4,5 -4,-176 701,-176 701,5 -4,5"/>
<!-- param.parameterized.Parameterized -->
<g id="node1" class="node"><title>param.parameterized.Parameterized</title>
<polygon fill="none" stroke="black" stroke-width="0.5" points="194,-77.5 5.68434e-14,-77.5 0,-56.5 194,-56.5 194,-77.5"/>
<text text-anchor="middle" x="97" y="-64.5" font-family="Vera" font-size="10.00">param.parameterized.Parameterized</text>
</g>
<!-- topo.base.functionfamily.LearningFn -->
<g id="node3" class="node"><title>topo.base.functionfamily.LearningFn</title>
<polygon fill="none" stroke="black" stroke-width="0.5" points="444,-134.5 256,-134.5 256,-113.5 444,-113.5 444,-134.5"/>
<text text-anchor="middle" x="350" y="-121.5" font-family="Vera" font-size="10.00">topo.base.functionfamily.LearningFn</text>
</g>
<!-- param.parameterized.Parameterized&#45;&gt;topo.base.functionfamily.LearningFn -->
<g id="edge16" class="edge"><title>param.parameterized.Parameterized&#45;&gt;topo.base.functionfamily.LearningFn</title>
<path fill="none" stroke="black" stroke-width="0.5" d="M128.167,-77.0653C154.948,-85.4338 194.711,-97.1953 230,-105 243.573,-108.002 258.112,-110.718 272.218,-113.095"/>
<polygon fill="black" stroke="black" points="272.173,-114.862 277.393,-113.956 272.748,-111.409 272.173,-114.862"/>
</g>
<!-- topo.base.functionfamily.CoordinateMapperFn -->
<g id="node5" class="node"><title>topo.base.functionfamily.CoordinateMapperFn</title>
<polygon fill="none" stroke="black" stroke-width="0.5" points="468,-96.5 232,-96.5 232,-75.5 468,-75.5 468,-96.5"/>
<text text-anchor="middle" x="350" y="-83.5" font-family="Vera" font-size="10.00">topo.base.functionfamily.CoordinateMapperFn</text>
</g>
<!-- param.parameterized.Parameterized&#45;&gt;topo.base.functionfamily.CoordinateMapperFn -->
<g id="edge4" class="edge"><title>param.parameterized.Parameterized&#45;&gt;topo.base.functionfamily.CoordinateMapperFn</title>
<path fill="none" stroke="black" stroke-width="0.5" d="M194.093,-74.2916C204.848,-75.0992 215.903,-75.9295 226.924,-76.7571"/>
<polygon fill="black" stroke="black" points="226.866,-78.5077 231.984,-77.1371 227.129,-75.0175 226.866,-78.5077"/>
</g>
<!-- topo.base.functionfamily.ResponseFn -->
<g id="node8" class="node"><title>topo.base.functionfamily.ResponseFn</title>
<polygon fill="none" stroke="black" stroke-width="0.5" points="446,-58.5 254,-58.5 254,-37.5 446,-37.5 446,-58.5"/>
<text text-anchor="middle" x="350" y="-45.5" font-family="Vera" font-size="10.00">topo.base.functionfamily.ResponseFn</text>
</g>
<!-- param.parameterized.Parameterized&#45;&gt;topo.base.functionfamily.ResponseFn -->
<g id="edge14" class="edge"><title>param.parameterized.Parameterized&#45;&gt;topo.base.functionfamily.ResponseFn</title>
<path fill="none" stroke="black" stroke-width="0.5" d="M194.093,-59.7084C211.798,-58.3788 230.317,-56.9881 248.155,-55.6484"/>
<polygon fill="black" stroke="black" points="248.312,-57.3917 253.167,-55.272 248.05,-53.9015 248.312,-57.3917"/>
</g>
<!-- topo.base.functionfamily.PatternDrivenAnalysis -->
<g id="node10" class="node"><title>topo.base.functionfamily.PatternDrivenAnalysis</title>
<polygon fill="none" stroke="black" stroke-width="0.5" points="470,-20.5 230,-20.5 230,0.5 470,0.5 470,-20.5"/>
<text text-anchor="middle" x="350" y="-7.5" font-family="Vera" font-size="10.00">topo.base.functionfamily.PatternDrivenAnalysis</text>
</g>
<!-- param.parameterized.Parameterized&#45;&gt;topo.base.functionfamily.PatternDrivenAnalysis -->
<g id="edge8" class="edge"><title>param.parameterized.Parameterized&#45;&gt;topo.base.functionfamily.PatternDrivenAnalysis</title>
<path fill="none" stroke="black" stroke-width="0.5" d="M128.167,-56.9347C154.948,-48.5662 194.711,-36.8047 230,-29 243.573,-25.998 258.112,-23.2824 272.218,-20.9047"/>
<polygon fill="black" stroke="black" points="272.748,-22.5907 277.393,-20.0441 272.173,-19.1381 272.748,-22.5907"/>
</g>
<!-- topo.base.functionfamily.IdentityLF -->
<g id="node2" class="node"><title>topo.base.functionfamily.IdentityLF</title>
<polygon fill="none" stroke="black" stroke-width="0.5" points="692,-172.5 510,-172.5 510,-151.5 692,-151.5 692,-172.5"/>
<text text-anchor="middle" x="601" y="-159.5" font-family="Vera" font-size="10.00">topo.base.functionfamily.IdentityLF</text>
</g>
<!-- topo.base.functionfamily.LearningFn&#45;&gt;topo.base.functionfamily.IdentityLF -->
<g id="edge2" class="edge"><title>topo.base.functionfamily.LearningFn&#45;&gt;topo.base.functionfamily.IdentityLF</title>
<path fill="none" stroke="black" stroke-width="0.5" d="M416.276,-134.034C451.161,-139.315 493.968,-145.796 529.587,-151.189"/>
<polygon fill="black" stroke="black" points="529.583,-152.958 534.789,-151.976 530.107,-149.497 529.583,-152.958"/>
</g>
<!-- topo.base.functionfamily.Hebbian -->
<g id="node14" class="node"><title>topo.base.functionfamily.Hebbian</title>
<polygon fill="none" stroke="black" stroke-width="0.5" points="689,-134.5 513,-134.5 513,-113.5 689,-113.5 689,-134.5"/>
<text text-anchor="middle" x="601" y="-121.5" font-family="Vera" font-size="10.00">topo.base.functionfamily.Hebbian</text>
</g>
<!-- topo.base.functionfamily.LearningFn&#45;&gt;topo.base.functionfamily.Hebbian -->
<g id="edge12" class="edge"><title>topo.base.functionfamily.LearningFn&#45;&gt;topo.base.functionfamily.Hebbian</title>
<path fill="none" stroke="black" stroke-width="0.5" d="M444.177,-124C464.952,-124 486.95,-124 507.69,-124"/>
<polygon fill="black" stroke="black" points="507.934,-125.75 512.934,-124 507.934,-122.25 507.934,-125.75"/>
</g>
<!-- topo.base.functionfamily.IdentityMF -->
<g id="node12" class="node"><title>topo.base.functionfamily.IdentityMF</title>
<polygon fill="none" stroke="black" stroke-width="0.5" points="693,-96.5 509,-96.5 509,-75.5 693,-75.5 693,-96.5"/>
<text text-anchor="middle" x="601" y="-83.5" font-family="Vera" font-size="10.00">topo.base.functionfamily.IdentityMF</text>
</g>
<!-- topo.base.functionfamily.CoordinateMapperFn&#45;&gt;topo.base.functionfamily.IdentityMF -->
<g id="edge10" class="edge"><title>topo.base.functionfamily.CoordinateMapperFn&#45;&gt;topo.base.functionfamily.IdentityMF</title>
<path fill="none" stroke="black" stroke-width="0.5" d="M468.15,-86C479.838,-86 491.612,-86 503.063,-86"/>
<polygon fill="black" stroke="black" points="503.3,-87.7501 508.3,-86 503.3,-84.2501 503.3,-87.7501"/>
</g>
<!-- topo.base.functionfamily.DotProduct -->
<g id="node7" class="node"><title>topo.base.functionfamily.DotProduct</title>
<polygon fill="none" stroke="black" stroke-width="0.5" points="696,-58.5 506,-58.5 506,-37.5 696,-37.5 696,-58.5"/>
<text text-anchor="middle" x="601" y="-45.5" font-family="Vera" font-size="10.00">topo.base.functionfamily.DotProduct</text>
</g>
<!-- topo.base.functionfamily.ResponseFn&#45;&gt;topo.base.functionfamily.DotProduct -->
<g id="edge6" class="edge"><title>topo.base.functionfamily.ResponseFn&#45;&gt;topo.base.functionfamily.DotProduct</title>
<path fill="none" stroke="black" stroke-width="0.5" d="M446.684,-48C464.206,-48 482.519,-48 500.157,-48"/>
<polygon fill="black" stroke="black" points="500.607,-49.7501 505.607,-48 500.607,-46.2501 500.607,-49.7501"/>
</g>
</g>
</svg>
