<?xml version="1.0" encoding="UTF-8" standalone="no"?>
<!DOCTYPE svg PUBLIC "-//W3C//DTD SVG 1.1//EN"
 "http://www.w3.org/Graphics/SVG/1.1/DTD/svg11.dtd">
<!-- Generated by graphviz version 2.26.3 (20100126.1600)
 -->
<!-- Title: inheritanceb299c4dd19 Pages: 1 -->
<svg width="910pt" height="142pt"
 viewBox="0.00 0.00 910.00 142.00" xmlns="http://www.w3.org/2000/svg" xmlns:xlink="http://www.w3.org/1999/xlink">
<g id="graph1" class="graph" transform="scale(1 1) rotate(0) translate(4 138)">
<title>inheritanceb299c4dd19</title>
<polygon fill="white" stroke="white" points="-4,5 -4,-138 907,-138 907,5 -4,5"/>
<!-- imagen.random.GaussianCloud -->
<g id="node1" class="node"><title>imagen.random.GaussianCloud</title>
<polygon fill="none" stroke="black" stroke-width="0.5" points="882,-134 724,-134 724,-114 882,-114 882,-134"/>
<text text-anchor="middle" x="803" y="-121" font-family="Vera" font-size="10.00">imagen.random.GaussianCloud</text>
</g>
<!-- imagen.Composite -->
<g id="node2" class="node"><title>imagen.Composite</title>
<polygon fill="none" stroke="black" stroke-width="0.5" points="618,-124 518,-124 518,-104 618,-104 618,-124"/>
<text text-anchor="middle" x="568" y="-111" font-family="Vera" font-size="10.00">imagen.Composite</text>
</g>
<!-- imagen.Composite&#45;&gt;imagen.random.GaussianCloud -->
<g id="edge2" class="edge"><title>imagen.Composite&#45;&gt;imagen.random.GaussianCloud</title>
<path fill="none" stroke="black" stroke-width="0.5" d="M618.702,-116.158C647.648,-117.389 684.691,-118.966 717.966,-120.382"/>
<polygon fill="black" stroke="black" points="718.202,-122.143 723.272,-120.607 718.351,-118.646 718.202,-122.143"/>
</g>
<!-- imagen.random.UniformRandom -->
<g id="node4" class="node"><title>imagen.random.UniformRandom</title>
<polygon fill="none" stroke="black" stroke-width="0.5" points="887,-96 719,-96 719,-76 887,-76 887,-96"/>
<text text-anchor="middle" x="803" y="-83" font-family="Vera" font-size="10.00">imagen.random.UniformRandom</text>
</g>
<!-- imagen.random.RandomGenerator -->
<g id="node5" class="node"><title>imagen.random.RandomGenerator</title>
<polygon fill="none" stroke="black" stroke-width="0.5" points="656,-67 480,-67 480,-47 656,-47 656,-67"/>
<text text-anchor="middle" x="568" y="-54" font-family="Vera" font-size="10.00">imagen.random.RandomGenerator</text>
</g>
<!-- imagen.random.RandomGenerator&#45;&gt;imagen.random.UniformRandom -->
<g id="edge4" class="edge"><title>imagen.random.RandomGenerator&#45;&gt;imagen.random.UniformRandom</title>
<path fill="none" stroke="black" stroke-width="0.5" d="M649.203,-67.0208C671.034,-69.7148 694.719,-72.6376 716.81,-75.3638"/>
<polygon fill="black" stroke="black" points="716.617,-77.1032 721.794,-75.9788 717.046,-73.6296 716.617,-77.1032"/>
</g>
<!-- imagen.random.GaussianRandom -->
<g id="node10" class="node"><title>imagen.random.GaussianRandom</title>
<polygon fill="none" stroke="black" stroke-width="0.5" points="888,-58 718,-58 718,-38 888,-38 888,-58"/>
<text text-anchor="middle" x="803" y="-45" font-family="Vera" font-size="10.00">imagen.random.GaussianRandom</text>
</g>
<!-- imagen.random.RandomGenerator&#45;&gt;imagen.random.GaussianRandom -->
<g id="edge8" class="edge"><title>imagen.random.RandomGenerator&#45;&gt;imagen.random.GaussianRandom</title>
<path fill="none" stroke="black" stroke-width="0.5" d="M656.174,-53.6231C674.507,-52.921 693.858,-52.1799 712.281,-51.4744"/>
<polygon fill="black" stroke="black" points="712.521,-53.2165 717.451,-51.2764 712.387,-49.7191 712.521,-53.2165"/>
</g>
<!-- imagen.random.BinaryUniformRandom -->
<g id="node12" class="node"><title>imagen.random.BinaryUniformRandom</title>
<polygon fill="none" stroke="black" stroke-width="0.5" points="901,-20 705,-20 705,-1.06581e-14 901,-3.55271e-15 901,-20"/>
<text text-anchor="middle" x="803" y="-7" font-family="Vera" font-size="10.00">imagen.random.BinaryUniformRandom</text>
</g>
<!-- imagen.random.RandomGenerator&#45;&gt;imagen.random.BinaryUniformRandom -->
<g id="edge10" class="edge"><title>imagen.random.RandomGenerator&#45;&gt;imagen.random.BinaryUniformRandom</title>
<path fill="none" stroke="black" stroke-width="0.5" d="M623.916,-46.9609C638.314,-44.2158 653.761,-41.1299 668,-38 684.108,-34.4593 687.895,-32.5556 704,-29 716.522,-26.2353 729.987,-23.4967 742.828,-20.9958"/>
<polygon fill="black" stroke="black" points="743.329,-22.6814 747.905,-20.0129 742.664,-19.2452 743.329,-22.6814"/>
</g>
<!-- imagen.patterngenerator.PatternGenerator -->
<g id="node7" class="node"><title>imagen.patterngenerator.PatternGenerator</title>
<polygon fill="none" stroke="black" stroke-width="0.5" points="432,-67 220,-67 220,-47 432,-47 432,-67"/>
<text text-anchor="middle" x="326" y="-54" font-family="Vera" font-size="10.00">imagen.patterngenerator.PatternGenerator</text>
</g>
<!-- imagen.patterngenerator.PatternGenerator&#45;&gt;imagen.Composite -->
<g id="edge14" class="edge"><title>imagen.patterngenerator.PatternGenerator&#45;&gt;imagen.Composite</title>
<path fill="none" stroke="black" stroke-width="0.5" d="M368.708,-67.0592C411.171,-77.0608 476.177,-92.3723 520.306,-102.766"/>
<polygon fill="black" stroke="black" points="520.045,-104.503 525.313,-103.946 520.847,-101.096 520.045,-104.503"/>
</g>
<!-- imagen.patterngenerator.PatternGenerator&#45;&gt;imagen.random.RandomGenerator -->
<g id="edge6" class="edge"><title>imagen.patterngenerator.PatternGenerator&#45;&gt;imagen.random.RandomGenerator</title>
<path fill="none" stroke="black" stroke-width="0.5" d="M432.145,-57C446.283,-57 460.696,-57 474.596,-57"/>
<polygon fill="black" stroke="black" points="474.692,-58.7501 479.692,-57 474.692,-55.2501 474.692,-58.7501"/>
</g>
<!-- imagen.random.RandomDotStereogram -->
<g id="node14" class="node"><title>imagen.random.RandomDotStereogram</title>
<polygon fill="none" stroke="black" stroke-width="0.5" points="667,-29 469,-29 469,-9 667,-9 667,-29"/>
<text text-anchor="middle" x="568" y="-16" font-family="Vera" font-size="10.00">imagen.random.RandomDotStereogram</text>
</g>
<!-- imagen.patterngenerator.PatternGenerator&#45;&gt;imagen.random.RandomDotStereogram -->
<g id="edge12" class="edge"><title>imagen.patterngenerator.PatternGenerator&#45;&gt;imagen.random.RandomDotStereogram</title>
<path fill="none" stroke="black" stroke-width="0.5" d="M389.899,-46.9662C423.534,-41.6848 464.806,-35.204 499.148,-29.8115"/>
<polygon fill="black" stroke="black" points="499.495,-31.5286 504.163,-29.024 498.952,-28.0709 499.495,-31.5286"/>
</g>
<!-- param.parameterized.Parameterized -->
<g id="node9" class="node"><title>param.parameterized.Parameterized</title>
<polygon fill="none" stroke="black" stroke-width="0.5" points="184,-67 8.52651e-14,-67 0,-47 184,-47 184,-67"/>
<text text-anchor="middle" x="92" y="-54" font-family="Vera" font-size="10.00">param.parameterized.Parameterized</text>
</g>
<!-- param.parameterized.Parameterized&#45;&gt;imagen.patterngenerator.PatternGenerator -->
<g id="edge16" class="edge"><title>param.parameterized.Parameterized&#45;&gt;imagen.patterngenerator.PatternGenerator</title>
<path fill="none" stroke="black" stroke-width="0.5" d="M184.147,-57C194.259,-57 204.63,-57 214.94,-57"/>
<polygon fill="black" stroke="black" points="214.995,-58.7501 219.994,-57 214.994,-55.2501 214.995,-58.7501"/>
</g>
</g>
</svg>
