<?xml version="1.0" encoding="UTF-8" standalone="no"?>
<!DOCTYPE svg PUBLIC "-//W3C//DTD SVG 1.1//EN"
 "http://www.w3.org/Graphics/SVG/1.1/DTD/svg11.dtd">
<!-- Generated by graphviz version 2.26.3 (20100126.1600)
 -->
<!-- Title: inheritance0509d66467 Pages: 1 -->
<svg width="1108pt" height="370pt"
 viewBox="0.00 0.00 1108.00 370.00" xmlns="http://www.w3.org/2000/svg" xmlns:xlink="http://www.w3.org/1999/xlink">
<g id="graph1" class="graph" transform="scale(1 1) rotate(0) translate(4 366)">
<title>inheritance0509d66467</title>
<polygon fill="white" stroke="white" points="-4,5 -4,-366 1105,-366 1105,5 -4,5"/>
<!-- topo.transferfn.GeneralizedLogistic -->
<g id="node1" class="node"><title>topo.transferfn.GeneralizedLogistic</title>
<polygon fill="none" stroke="black" stroke-width="0.5" points="609,-324.5 425,-324.5 425,-303.5 609,-303.5 609,-324.5"/>
<text text-anchor="middle" x="517" y="-311.5" font-family="Vera" font-size="10.00">topo.transferfn.GeneralizedLogistic</text>
</g>
<!-- imagen.transferfn.TransferFn -->
<g id="node2" class="node"><title>imagen.transferfn.TransferFn</title>
<polygon fill="none" stroke="black" stroke-width="0.5" points="384,-172.5 230,-172.5 230,-151.5 384,-151.5 384,-172.5"/>
<text text-anchor="middle" x="307" y="-159.5" font-family="Vera" font-size="10.00">imagen.transferfn.TransferFn</text>
</g>
<!-- imagen.transferfn.TransferFn&#45;&gt;topo.transferfn.GeneralizedLogistic -->
<g id="edge2" class="edge"><title>imagen.transferfn.TransferFn&#45;&gt;topo.transferfn.GeneralizedLogistic</title>
<path fill="none" stroke="black" stroke-width="0.5" d="M312.492,-172.366C326.578,-197.85 366.669,-263.754 420,-295 424.648,-297.723 429.614,-300.064 434.751,-302.076"/>
<polygon fill="black" stroke="black" points="434.216,-303.743 439.513,-303.832 435.427,-300.46 434.216,-303.743"/>
</g>
<!-- topo.transferfn.TransferFnWithState -->
<g id="node5" class="node"><title>topo.transferfn.TransferFnWithState</title>
<polygon fill="none" stroke="black" stroke-width="0.5" points="610,-286.5 424,-286.5 424,-265.5 610,-265.5 610,-286.5"/>
<text text-anchor="middle" x="517" y="-273.5" font-family="Vera" font-size="10.00">topo.transferfn.TransferFnWithState</text>
</g>
<!-- imagen.transferfn.TransferFn&#45;&gt;topo.transferfn.TransferFnWithState -->
<g id="edge26" class="edge"><title>imagen.transferfn.TransferFn&#45;&gt;topo.transferfn.TransferFnWithState</title>
<path fill="none" stroke="black" stroke-width="0.5" d="M315.781,-172.242C333.381,-192.049 375.147,-235.541 420,-257 426.044,-259.892 432.502,-262.344 439.105,-264.422"/>
<polygon fill="black" stroke="black" points="438.887,-266.183 444.179,-265.94 439.89,-262.83 438.887,-266.183"/>
</g>
<!-- topo.transferfn.PiecewiseLinear -->
<g id="node10" class="node"><title>topo.transferfn.PiecewiseLinear</title>
<polygon fill="none" stroke="black" stroke-width="0.5" points="600,-248.5 434,-248.5 434,-227.5 600,-227.5 600,-248.5"/>
<text text-anchor="middle" x="517" y="-235.5" font-family="Vera" font-size="10.00">topo.transferfn.PiecewiseLinear</text>
</g>
<!-- imagen.transferfn.TransferFn&#45;&gt;topo.transferfn.PiecewiseLinear -->
<g id="edge8" class="edge"><title>imagen.transferfn.TransferFn&#45;&gt;topo.transferfn.PiecewiseLinear</title>
<path fill="none" stroke="black" stroke-width="0.5" d="M323.593,-172.202C345.079,-184.975 384.042,-206.671 420,-219 428.847,-222.033 438.323,-224.636 447.76,-226.854"/>
<polygon fill="black" stroke="black" points="447.423,-228.573 452.688,-227.98 448.203,-225.16 447.423,-228.573"/>
</g>
<!-- topo.transferfn.HalfRectifyAndSquare -->
<g id="node12" class="node"><title>topo.transferfn.HalfRectifyAndSquare</title>
<polygon fill="none" stroke="black" stroke-width="0.5" points="614,-210.5 420,-210.5 420,-189.5 614,-189.5 614,-210.5"/>
<text text-anchor="middle" x="517" y="-197.5" font-family="Vera" font-size="10.00">topo.transferfn.HalfRectifyAndSquare</text>
</g>
<!-- imagen.transferfn.TransferFn&#45;&gt;topo.transferfn.HalfRectifyAndSquare -->
<g id="edge10" class="edge"><title>imagen.transferfn.TransferFn&#45;&gt;topo.transferfn.HalfRectifyAndSquare</title>
<path fill="none" stroke="black" stroke-width="0.5" d="M362.45,-172.034C391.397,-177.272 426.865,-183.69 456.518,-189.056"/>
<polygon fill="black" stroke="black" points="456.372,-190.808 461.604,-189.976 456.995,-187.364 456.372,-190.808"/>
</g>
<!-- topo.transferfn.ExpLinear -->
<g id="node14" class="node"><title>topo.transferfn.ExpLinear</title>
<polygon fill="none" stroke="black" stroke-width="0.5" points="585,-172.5 449,-172.5 449,-151.5 585,-151.5 585,-172.5"/>
<text text-anchor="middle" x="517" y="-159.5" font-family="Vera" font-size="10.00">topo.transferfn.ExpLinear</text>
</g>
<!-- imagen.transferfn.TransferFn&#45;&gt;topo.transferfn.ExpLinear -->
<g id="edge12" class="edge"><title>imagen.transferfn.TransferFn&#45;&gt;topo.transferfn.ExpLinear</title>
<path fill="none" stroke="black" stroke-width="0.5" d="M384.004,-162C403.264,-162 423.879,-162 442.99,-162"/>
<polygon fill="black" stroke="black" points="443.338,-163.75 448.338,-162 443.338,-160.25 443.338,-163.75"/>
</g>
<!-- topo.transferfn.NakaRushton -->
<g id="node18" class="node"><title>topo.transferfn.NakaRushton</title>
<polygon fill="none" stroke="black" stroke-width="0.5" points="594,-134.5 440,-134.5 440,-113.5 594,-113.5 594,-134.5"/>
<text text-anchor="middle" x="517" y="-121.5" font-family="Vera" font-size="10.00">topo.transferfn.NakaRushton</text>
</g>
<!-- imagen.transferfn.TransferFn&#45;&gt;topo.transferfn.NakaRushton -->
<g id="edge16" class="edge"><title>imagen.transferfn.TransferFn&#45;&gt;topo.transferfn.NakaRushton</title>
<path fill="none" stroke="black" stroke-width="0.5" d="M362.45,-151.966C391.397,-146.728 426.865,-140.31 456.518,-134.944"/>
<polygon fill="black" stroke="black" points="456.995,-136.636 461.604,-134.024 456.372,-133.192 456.995,-136.636"/>
</g>
<!-- topo.transferfn.Square -->
<g id="node20" class="node"><title>topo.transferfn.Square</title>
<polygon fill="none" stroke="black" stroke-width="0.5" points="579,-96.5 455,-96.5 455,-75.5 579,-75.5 579,-96.5"/>
<text text-anchor="middle" x="517" y="-83.5" font-family="Vera" font-size="10.00">topo.transferfn.Square</text>
</g>
<!-- imagen.transferfn.TransferFn&#45;&gt;topo.transferfn.Square -->
<g id="edge18" class="edge"><title>imagen.transferfn.TransferFn&#45;&gt;topo.transferfn.Square</title>
<path fill="none" stroke="black" stroke-width="0.5" d="M323.593,-151.798C345.079,-139.025 384.042,-117.329 420,-105 429.416,-101.772 439.546,-99.0306 449.581,-96.722"/>
<polygon fill="black" stroke="black" points="449.999,-98.4219 454.497,-95.6232 449.236,-95.0062 449.999,-98.4219"/>
</g>
<!-- topo.transferfn.HalfRectifyAndPower -->
<g id="node25" class="node"><title>topo.transferfn.HalfRectifyAndPower</title>
<polygon fill="none" stroke="black" stroke-width="0.5" points="611,-58.5 423,-58.5 423,-37.5 611,-37.5 611,-58.5"/>
<text text-anchor="middle" x="517" y="-45.5" font-family="Vera" font-size="10.00">topo.transferfn.HalfRectifyAndPower</text>
</g>
<!-- imagen.transferfn.TransferFn&#45;&gt;topo.transferfn.HalfRectifyAndPower -->
<g id="edge24" class="edge"><title>imagen.transferfn.TransferFn&#45;&gt;topo.transferfn.HalfRectifyAndPower</title>
<path fill="none" stroke="black" stroke-width="0.5" d="M315.781,-151.758C333.381,-131.951 375.147,-88.4593 420,-67 426.044,-64.1081 432.502,-61.6564 439.105,-59.5778"/>
<polygon fill="black" stroke="black" points="439.89,-61.1697 444.179,-58.06 438.887,-57.8165 439.89,-61.1697"/>
</g>
<!-- topo.transferfn.Sigmoid -->
<g id="node30" class="node"><title>topo.transferfn.Sigmoid</title>
<polygon fill="none" stroke="black" stroke-width="0.5" points="582,-20.5 452,-20.5 452,0.5 582,0.5 582,-20.5"/>
<text text-anchor="middle" x="517" y="-7.5" font-family="Vera" font-size="10.00">topo.transferfn.Sigmoid</text>
</g>
<!-- imagen.transferfn.TransferFn&#45;&gt;topo.transferfn.Sigmoid -->
<g id="edge30" class="edge"><title>imagen.transferfn.TransferFn&#45;&gt;topo.transferfn.Sigmoid</title>
<path fill="none" stroke="black" stroke-width="0.5" d="M312.492,-151.634C326.578,-126.15 366.669,-60.2456 420,-29 428.259,-24.1615 437.523,-20.5294 446.963,-17.8078"/>
<polygon fill="black" stroke="black" points="447.544,-19.4637 451.911,-16.466 446.628,-16.0857 447.544,-19.4637"/>
</g>
<!-- topo.transferfn.TransferFnWithRandomState -->
<g id="node4" class="node"><title>topo.transferfn.TransferFnWithRandomState</title>
<polygon fill="none" stroke="black" stroke-width="0.5" points="876,-343.5 650,-343.5 650,-322.5 876,-322.5 876,-343.5"/>
<text text-anchor="middle" x="763" y="-330.5" font-family="Vera" font-size="10.00">topo.transferfn.TransferFnWithRandomState</text>
</g>
<!-- topo.transferfn.PoissonSample -->
<g id="node22" class="node"><title>topo.transferfn.PoissonSample</title>
<polygon fill="none" stroke="black" stroke-width="0.5" points="1088,-362.5 924,-362.5 924,-341.5 1088,-341.5 1088,-362.5"/>
<text text-anchor="middle" x="1006" y="-349.5" font-family="Vera" font-size="10.00">topo.transferfn.PoissonSample</text>
</g>
<!-- topo.transferfn.TransferFnWithRandomState&#45;&gt;topo.transferfn.PoissonSample -->
<g id="edge20" class="edge"><title>topo.transferfn.TransferFnWithRandomState&#45;&gt;topo.transferfn.PoissonSample</title>
<path fill="none" stroke="black" stroke-width="0.5" d="M876.318,-341.86C890.534,-342.972 904.9,-344.095 918.632,-345.169"/>
<polygon fill="black" stroke="black" points="918.541,-346.917 923.662,-345.562 918.813,-343.428 918.541,-346.917"/>
</g>
<!-- topo.transferfn.HomeostaticMaxEnt -->
<g id="node32" class="node"><title>topo.transferfn.HomeostaticMaxEnt</title>
<polygon fill="none" stroke="black" stroke-width="0.5" points="1100,-324.5 912,-324.5 912,-303.5 1100,-303.5 1100,-324.5"/>
<text text-anchor="middle" x="1006" y="-311.5" font-family="Vera" font-size="10.00">topo.transferfn.HomeostaticMaxEnt</text>
</g>
<!-- topo.transferfn.TransferFnWithRandomState&#45;&gt;topo.transferfn.HomeostaticMaxEnt -->
<g id="edge32" class="edge"><title>topo.transferfn.TransferFnWithRandomState&#45;&gt;topo.transferfn.HomeostaticMaxEnt</title>
<path fill="none" stroke="black" stroke-width="0.5" d="M876.318,-324.14C886.434,-323.349 896.625,-322.552 906.61,-321.771"/>
<polygon fill="black" stroke="black" points="906.962,-323.499 911.811,-321.365 906.69,-320.01 906.962,-323.499"/>
</g>
<!-- topo.transferfn.TransferFnWithState&#45;&gt;topo.transferfn.TransferFnWithRandomState -->
<g id="edge4" class="edge"><title>topo.transferfn.TransferFnWithState&#45;&gt;topo.transferfn.TransferFnWithRandomState</title>
<path fill="none" stroke="black" stroke-width="0.5" d="M582.145,-286.033C592.93,-288.468 603.887,-291.428 614,-295 631.059,-301.025 632.862,-308.204 650,-314 659.147,-317.093 668.888,-319.697 678.669,-321.885"/>
<polygon fill="black" stroke="black" points="678.527,-323.644 683.784,-322.991 679.267,-320.224 678.527,-323.644"/>
</g>
<!-- topo.transferfn.ScalingTF -->
<g id="node8" class="node"><title>topo.transferfn.ScalingTF</title>
<polygon fill="none" stroke="black" stroke-width="0.5" points="831,-305.5 695,-305.5 695,-284.5 831,-284.5 831,-305.5"/>
<text text-anchor="middle" x="763" y="-292.5" font-family="Vera" font-size="10.00">topo.transferfn.ScalingTF</text>
</g>
<!-- topo.transferfn.TransferFnWithState&#45;&gt;topo.transferfn.ScalingTF -->
<g id="edge6" class="edge"><title>topo.transferfn.TransferFnWithState&#45;&gt;topo.transferfn.ScalingTF</title>
<path fill="none" stroke="black" stroke-width="0.5" d="M610.002,-283.183C636.296,-285.214 664.538,-287.395 689.512,-289.324"/>
<polygon fill="black" stroke="black" points="689.669,-291.091 694.789,-289.732 689.939,-287.602 689.669,-291.091"/>
</g>
<!-- topo.transferfn.Hysteresis -->
<g id="node16" class="node"><title>topo.transferfn.Hysteresis</title>
<polygon fill="none" stroke="black" stroke-width="0.5" points="833,-267.5 693,-267.5 693,-246.5 833,-246.5 833,-267.5"/>
<text text-anchor="middle" x="763" y="-254.5" font-family="Vera" font-size="10.00">topo.transferfn.Hysteresis</text>
</g>
<!-- topo.transferfn.TransferFnWithState&#45;&gt;topo.transferfn.Hysteresis -->
<g id="edge14" class="edge"><title>topo.transferfn.TransferFnWithState&#45;&gt;topo.transferfn.Hysteresis</title>
<path fill="none" stroke="black" stroke-width="0.5" d="M610.002,-268.817C635.534,-266.845 662.903,-264.731 687.332,-262.844"/>
<polygon fill="black" stroke="black" points="687.648,-264.575 692.499,-262.445 687.379,-261.086 687.648,-264.575"/>
</g>
<!-- topo.transferfn.ActivityAveragingTF -->
<g id="node28" class="node"><title>topo.transferfn.ActivityAveragingTF</title>
<polygon fill="none" stroke="black" stroke-width="0.5" points="854,-229.5 672,-229.5 672,-208.5 854,-208.5 854,-229.5"/>
<text text-anchor="middle" x="763" y="-216.5" font-family="Vera" font-size="10.00">topo.transferfn.ActivityAveragingTF</text>
</g>
<!-- topo.transferfn.TransferFnWithState&#45;&gt;topo.transferfn.ActivityAveragingTF -->
<g id="edge28" class="edge"><title>topo.transferfn.TransferFnWithState&#45;&gt;topo.transferfn.ActivityAveragingTF</title>
<path fill="none" stroke="black" stroke-width="0.5" d="M582.145,-265.967C592.93,-263.532 603.887,-260.572 614,-257 631.059,-250.975 632.862,-243.796 650,-238 659.147,-234.907 668.888,-232.303 678.669,-230.115"/>
<polygon fill="black" stroke="black" points="679.267,-231.776 683.784,-229.009 678.527,-228.356 679.267,-231.776"/>
</g>
<!-- param.parameterized.Parameterized -->
<g id="node7" class="node"><title>param.parameterized.Parameterized</title>
<polygon fill="none" stroke="black" stroke-width="0.5" points="194,-172.5 5.68434e-14,-172.5 0,-151.5 194,-151.5 194,-172.5"/>
<text text-anchor="middle" x="97" y="-159.5" font-family="Vera" font-size="10.00">param.parameterized.Parameterized</text>
</g>
<!-- param.parameterized.Parameterized&#45;&gt;imagen.transferfn.TransferFn -->
<g id="edge22" class="edge"><title>param.parameterized.Parameterized&#45;&gt;imagen.transferfn.TransferFn</title>
<path fill="none" stroke="black" stroke-width="0.5" d="M194.009,-162C204.259,-162 214.611,-162 224.671,-162"/>
<polygon fill="black" stroke="black" points="224.903,-163.75 229.903,-162 224.903,-160.25 224.903,-163.75"/>
</g>
</g>
</svg>
