<?xml version="1.0" encoding="UTF-8" standalone="no"?>
<!DOCTYPE svg PUBLIC "-//W3C//DTD SVG 1.1//EN"
 "http://www.w3.org/Graphics/SVG/1.1/DTD/svg11.dtd">
<!-- Generated by graphviz version 2.26.3 (20100126.1600)
 -->
<!-- Title: inheritance2ef9206f2c Pages: 1 -->
<svg width="636pt" height="104pt"
 viewBox="0.00 0.00 636.00 104.00" xmlns="http://www.w3.org/2000/svg" xmlns:xlink="http://www.w3.org/1999/xlink">
<g id="graph1" class="graph" transform="scale(1 1) rotate(0) translate(4 100)">
<title>inheritance2ef9206f2c</title>
<polygon fill="white" stroke="white" points="-4,5 -4,-100 633,-100 633,5 -4,5"/>
<!-- topo.base.sheet.AttrDict -->
<g id="node1" class="node"><title>topo.base.sheet.AttrDict</title>
<polygon fill="none" stroke="black" stroke-width="0.5" points="164,-20.5 30,-20.5 30,0.5 164,0.5 164,-20.5"/>
<text text-anchor="middle" x="97" y="-7.5" font-family="Vera" font-size="10.00">topo.base.sheet.AttrDict</text>
</g>
<!-- imagen.sheetcoords.SheetCoordinateSystem -->
<g id="node2" class="node"><title>imagen.sheetcoords.SheetCoordinateSystem</title>
<polygon fill="none" stroke="black" stroke-width="0.5" points="466,-96.5 230,-96.5 230,-75.5 466,-75.5 466,-96.5"/>
<text text-anchor="middle" x="348" y="-83.5" font-family="Vera" font-size="10.00">imagen.sheetcoords.SheetCoordinateSystem</text>
</g>
<!-- topo.base.sheet.Sheet -->
<g id="node6" class="node"><title>topo.base.sheet.Sheet</title>
<polygon fill="none" stroke="black" stroke-width="0.5" points="628,-77.5 502,-77.5 502,-56.5 628,-56.5 628,-77.5"/>
<text text-anchor="middle" x="565" y="-64.5" font-family="Vera" font-size="10.00">topo.base.sheet.Sheet</text>
</g>
<!-- imagen.sheetcoords.SheetCoordinateSystem&#45;&gt;topo.base.sheet.Sheet -->
<g id="edge6" class="edge"><title>imagen.sheetcoords.SheetCoordinateSystem&#45;&gt;topo.base.sheet.Sheet</title>
<path fill="none" stroke="black" stroke-width="0.5" d="M462.219,-75.9992C473.996,-74.9681 485.682,-73.9449 496.721,-72.9783"/>
<polygon fill="black" stroke="black" points="496.918,-74.7179 501.746,-72.5384 496.612,-71.2313 496.918,-74.7179"/>
</g>
<!-- param.parameterized.Parameterized -->
<g id="node3" class="node"><title>param.parameterized.Parameterized</title>
<polygon fill="none" stroke="black" stroke-width="0.5" points="194,-58.5 5.68434e-14,-58.5 0,-37.5 194,-37.5 194,-58.5"/>
<text text-anchor="middle" x="97" y="-45.5" font-family="Vera" font-size="10.00">param.parameterized.Parameterized</text>
</g>
<!-- topo.base.simulation.EventProcessor -->
<g id="node4" class="node"><title>topo.base.simulation.EventProcessor</title>
<polygon fill="none" stroke="black" stroke-width="0.5" points="445,-58.5 251,-58.5 251,-37.5 445,-37.5 445,-58.5"/>
<text text-anchor="middle" x="348" y="-45.5" font-family="Vera" font-size="10.00">topo.base.simulation.EventProcessor</text>
</g>
<!-- param.parameterized.Parameterized&#45;&gt;topo.base.simulation.EventProcessor -->
<g id="edge2" class="edge"><title>param.parameterized.Parameterized&#45;&gt;topo.base.simulation.EventProcessor</title>
<path fill="none" stroke="black" stroke-width="0.5" d="M194.043,-48C210.921,-48 228.523,-48 245.54,-48"/>
<polygon fill="black" stroke="black" points="245.801,-49.7501 250.801,-48 245.801,-46.2501 245.801,-49.7501"/>
</g>
<!-- topo.base.simulation.EventProcessor&#45;&gt;topo.base.sheet.Sheet -->
<g id="edge4" class="edge"><title>topo.base.simulation.EventProcessor&#45;&gt;topo.base.sheet.Sheet</title>
<path fill="none" stroke="black" stroke-width="0.5" d="M445.075,-56.4997C462.563,-58.0309 480.451,-59.5971 496.895,-61.0369"/>
<polygon fill="black" stroke="black" points="496.816,-62.7866 501.95,-61.4795 497.122,-59.2999 496.816,-62.7866"/>
</g>
</g>
</svg>
