<?xml version="1.0" encoding="UTF-8" standalone="no"?>
<!DOCTYPE svg PUBLIC "-//W3C//DTD SVG 1.1//EN"
 "http://www.w3.org/Graphics/SVG/1.1/DTD/svg11.dtd">
<!-- Generated by graphviz version 2.26.3 (20100126.1600)
 -->
<!-- Title: inheritancedfab4961fd Pages: 1 -->
<svg width="728pt" height="332pt"
 viewBox="0.00 0.00 728.00 332.00" xmlns="http://www.w3.org/2000/svg" xmlns:xlink="http://www.w3.org/1999/xlink">
<g id="graph1" class="graph" transform="scale(1 1) rotate(0) translate(4 328)">
<title>inheritancedfab4961fd</title>
<polygon fill="white" stroke="white" points="-4,5 -4,-328 725,-328 725,5 -4,5"/>
<!-- topo.base.simulation.EPConnectionEvent -->
<g id="node1" class="node"><title>topo.base.simulation.EPConnectionEvent</title>
<polygon fill="none" stroke="black" stroke-width="0.5" points="449,-134 247,-134 247,-114 449,-114 449,-134"/>
<text text-anchor="middle" x="348" y="-121" font-family="Vera" font-size="10.00">topo.base.simulation.EPConnectionEvent</text>
</g>
<!-- topo.base.simulation.Event -->
<g id="node2" class="node"><title>topo.base.simulation.Event</title>
<polygon fill="none" stroke="black" stroke-width="0.5" points="167,-77 29,-77 29,-57 167,-57 167,-77"/>
<text text-anchor="middle" x="98" y="-64" font-family="Vera" font-size="10.00">topo.base.simulation.Event</text>
</g>
<!-- topo.base.simulation.Event&#45;&gt;topo.base.simulation.EPConnectionEvent -->
<g id="edge2" class="edge"><title>topo.base.simulation.Event&#45;&gt;topo.base.simulation.EPConnectionEvent</title>
<path fill="none" stroke="black" stroke-width="0.5" d="M129.418,-77.0073C156.411,-85.34 196.479,-97.0815 232,-105 245.394,-107.986 259.754,-110.714 273.65,-113.114"/>
<polygon fill="black" stroke="black" points="273.523,-114.867 278.746,-113.983 274.111,-111.417 273.523,-114.867"/>
</g>
<!-- topo.base.simulation.EventSequence -->
<g id="node5" class="node"><title>topo.base.simulation.EventSequence</title>
<polygon fill="none" stroke="black" stroke-width="0.5" points="439,-96 257,-96 257,-76 439,-76 439,-96"/>
<text text-anchor="middle" x="348" y="-83" font-family="Vera" font-size="10.00">topo.base.simulation.EventSequence</text>
</g>
<!-- topo.base.simulation.Event&#45;&gt;topo.base.simulation.EventSequence -->
<g id="edge4" class="edge"><title>topo.base.simulation.Event&#45;&gt;topo.base.simulation.EventSequence</title>
<path fill="none" stroke="black" stroke-width="0.5" d="M167.639,-72.2926C193.481,-74.2566 223.28,-76.5213 251.117,-78.6369"/>
<polygon fill="black" stroke="black" points="251.172,-80.396 256.29,-79.03 251.437,-76.9061 251.172,-80.396"/>
</g>
<!-- topo.base.simulation.CommandEvent -->
<g id="node16" class="node"><title>topo.base.simulation.CommandEvent</title>
<polygon fill="none" stroke="black" stroke-width="0.5" points="441,-58 255,-58 255,-38 441,-38 441,-58"/>
<text text-anchor="middle" x="348" y="-45" font-family="Vera" font-size="10.00">topo.base.simulation.CommandEvent</text>
</g>
<!-- topo.base.simulation.Event&#45;&gt;topo.base.simulation.CommandEvent -->
<g id="edge14" class="edge"><title>topo.base.simulation.Event&#45;&gt;topo.base.simulation.CommandEvent</title>
<path fill="none" stroke="black" stroke-width="0.5" d="M167.639,-61.7074C192.937,-59.7848 222.027,-57.5739 249.356,-55.497"/>
<polygon fill="black" stroke="black" points="249.584,-57.2348 254.437,-55.1108 249.319,-53.7448 249.584,-57.2348"/>
</g>
<!-- topo.base.simulation.FunctionEvent -->
<g id="node18" class="node"><title>topo.base.simulation.FunctionEvent</title>
<polygon fill="none" stroke="black" stroke-width="0.5" points="437,-20 259,-20 259,-1.06581e-14 437,-3.55271e-15 437,-20"/>
<text text-anchor="middle" x="348" y="-7" font-family="Vera" font-size="10.00">topo.base.simulation.FunctionEvent</text>
</g>
<!-- topo.base.simulation.Event&#45;&gt;topo.base.simulation.FunctionEvent -->
<g id="edge16" class="edge"><title>topo.base.simulation.Event&#45;&gt;topo.base.simulation.FunctionEvent</title>
<path fill="none" stroke="black" stroke-width="0.5" d="M129.418,-56.9927C156.411,-48.66 196.479,-36.9185 232,-29 245.394,-26.0142 259.754,-23.2861 273.65,-20.8863"/>
<polygon fill="black" stroke="black" points="274.111,-22.583 278.746,-20.0171 273.523,-19.1328 274.111,-22.583"/>
</g>
<!-- param.parameterized.Parameterized -->
<g id="node4" class="node"><title>param.parameterized.Parameterized</title>
<polygon fill="none" stroke="black" stroke-width="0.5" points="190,-229 6,-229 6,-209 190,-209 190,-229"/>
<text text-anchor="middle" x="98" y="-216" font-family="Vera" font-size="10.00">param.parameterized.Parameterized</text>
</g>
<!-- topo.base.simulation.Simulation -->
<g id="node10" class="node"><title>topo.base.simulation.Simulation</title>
<polygon fill="none" stroke="black" stroke-width="0.5" points="429,-286 267,-286 267,-266 429,-266 429,-286"/>
<text text-anchor="middle" x="348" y="-273" font-family="Vera" font-size="10.00">topo.base.simulation.Simulation</text>
</g>
<!-- param.parameterized.Parameterized&#45;&gt;topo.base.simulation.Simulation -->
<g id="edge8" class="edge"><title>param.parameterized.Parameterized&#45;&gt;topo.base.simulation.Simulation</title>
<path fill="none" stroke="black" stroke-width="0.5" d="M129.418,-229.007C156.411,-237.34 196.479,-249.081 232,-257 245.394,-259.986 259.754,-262.714 273.65,-265.114"/>
<polygon fill="black" stroke="black" points="273.523,-266.867 278.746,-265.983 274.111,-263.417 273.523,-266.867"/>
</g>
<!-- topo.base.simulation.EPConnection -->
<g id="node14" class="node"><title>topo.base.simulation.EPConnection</title>
<polygon fill="none" stroke="black" stroke-width="0.5" points="436,-248 260,-248 260,-228 436,-228 436,-248"/>
<text text-anchor="middle" x="348" y="-235" font-family="Vera" font-size="10.00">topo.base.simulation.EPConnection</text>
</g>
<!-- param.parameterized.Parameterized&#45;&gt;topo.base.simulation.EPConnection -->
<g id="edge12" class="edge"><title>param.parameterized.Parameterized&#45;&gt;topo.base.simulation.EPConnection</title>
<path fill="none" stroke="black" stroke-width="0.5" d="M190.026,-225.994C211.035,-227.591 233.383,-229.289 254.455,-230.891"/>
<polygon fill="black" stroke="black" points="254.379,-232.64 259.497,-231.274 254.644,-229.15 254.379,-232.64"/>
</g>
<!-- topo.base.simulation.EventProcessor -->
<g id="node22" class="node"><title>topo.base.simulation.EventProcessor</title>
<polygon fill="none" stroke="black" stroke-width="0.5" points="440,-210 256,-210 256,-190 440,-190 440,-210"/>
<text text-anchor="middle" x="348" y="-197" font-family="Vera" font-size="10.00">topo.base.simulation.EventProcessor</text>
</g>
<!-- param.parameterized.Parameterized&#45;&gt;topo.base.simulation.EventProcessor -->
<g id="edge20" class="edge"><title>param.parameterized.Parameterized&#45;&gt;topo.base.simulation.EventProcessor</title>
<path fill="none" stroke="black" stroke-width="0.5" d="M190.026,-212.006C209.791,-210.504 230.742,-208.912 250.7,-207.395"/>
<polygon fill="black" stroke="black" points="250.898,-209.135 255.751,-207.011 250.633,-205.645 250.898,-209.135"/>
</g>
<!-- topo.base.simulation.SomeTimer -->
<g id="node26" class="node"><title>topo.base.simulation.SomeTimer</title>
<polygon fill="none" stroke="black" stroke-width="0.5" points="431,-172 265,-172 265,-152 431,-152 431,-172"/>
<text text-anchor="middle" x="348" y="-159" font-family="Vera" font-size="10.00">topo.base.simulation.SomeTimer</text>
</g>
<!-- param.parameterized.Parameterized&#45;&gt;topo.base.simulation.SomeTimer -->
<g id="edge24" class="edge"><title>param.parameterized.Parameterized&#45;&gt;topo.base.simulation.SomeTimer</title>
<path fill="none" stroke="black" stroke-width="0.5" d="M129.418,-208.993C156.411,-200.66 196.479,-188.919 232,-181 245.394,-178.014 259.754,-175.286 273.65,-172.886"/>
<polygon fill="black" stroke="black" points="274.111,-174.583 278.746,-172.017 273.523,-171.133 274.111,-174.583"/>
</g>
<!-- topo.base.simulation.PeriodicEventSequence -->
<g id="node8" class="node"><title>topo.base.simulation.PeriodicEventSequence</title>
<polygon fill="none" stroke="black" stroke-width="0.5" points="720,-96 500,-96 500,-76 720,-76 720,-96"/>
<text text-anchor="middle" x="610" y="-83" font-family="Vera" font-size="10.00">topo.base.simulation.PeriodicEventSequence</text>
</g>
<!-- topo.base.simulation.EventSequence&#45;&gt;topo.base.simulation.PeriodicEventSequence -->
<g id="edge6" class="edge"><title>topo.base.simulation.EventSequence&#45;&gt;topo.base.simulation.PeriodicEventSequence</title>
<path fill="none" stroke="black" stroke-width="0.5" d="M439.635,-86C457.44,-86 476.314,-86 494.764,-86"/>
<polygon fill="black" stroke="black" points="494.956,-87.7501 499.956,-86 494.956,-84.2501 494.956,-87.7501"/>
</g>
<!-- param.parameterized.Parameter -->
<g id="node7" class="node"><title>param.parameterized.Parameter</title>
<polygon fill="none" stroke="black" stroke-width="0.5" points="180,-324 16,-324 16,-304 180,-304 180,-324"/>
<text text-anchor="middle" x="98" y="-311" font-family="Vera" font-size="10.00">param.parameterized.Parameter</text>
</g>
<!-- topo.base.simulation.EventProcessorParameter -->
<g id="node24" class="node"><title>topo.base.simulation.EventProcessorParameter</title>
<polygon fill="none" stroke="black" stroke-width="0.5" points="463,-324 233,-324 233,-304 463,-304 463,-324"/>
<text text-anchor="middle" x="348" y="-311" font-family="Vera" font-size="10.00">topo.base.simulation.EventProcessorParameter</text>
</g>
<!-- param.parameterized.Parameter&#45;&gt;topo.base.simulation.EventProcessorParameter -->
<g id="edge22" class="edge"><title>param.parameterized.Parameter&#45;&gt;topo.base.simulation.EventProcessorParameter</title>
<path fill="none" stroke="black" stroke-width="0.5" d="M180.552,-314C195.375,-314 211.101,-314 226.749,-314"/>
<polygon fill="black" stroke="black" points="227.051,-315.75 232.051,-314 227.051,-312.25 227.051,-315.75"/>
</g>
<!-- topo.base.simulation.RealTimeSimulation -->
<g id="node20" class="node"><title>topo.base.simulation.RealTimeSimulation</title>
<polygon fill="none" stroke="black" stroke-width="0.5" points="712,-286 508,-286 508,-266 712,-266 712,-286"/>
<text text-anchor="middle" x="610" y="-273" font-family="Vera" font-size="10.00">topo.base.simulation.RealTimeSimulation</text>
</g>
<!-- topo.base.simulation.Simulation&#45;&gt;topo.base.simulation.RealTimeSimulation -->
<g id="edge18" class="edge"><title>topo.base.simulation.Simulation&#45;&gt;topo.base.simulation.RealTimeSimulation</title>
<path fill="none" stroke="black" stroke-width="0.5" d="M429.821,-276C452.669,-276 477.852,-276 501.964,-276"/>
<polygon fill="black" stroke="black" points="502.092,-277.75 507.092,-276 502.092,-274.25 502.092,-277.75"/>
</g>
<!-- topo.base.simulation.OptionalSingleton -->
<g id="node12" class="node"><title>topo.base.simulation.OptionalSingleton</title>
<polygon fill="none" stroke="black" stroke-width="0.5" points="196,-286 8.52651e-14,-286 0,-266 196,-266 196,-286"/>
<text text-anchor="middle" x="98" y="-273" font-family="Vera" font-size="10.00">topo.base.simulation.OptionalSingleton</text>
</g>
<!-- topo.base.simulation.OptionalSingleton&#45;&gt;topo.base.simulation.Simulation -->
<g id="edge10" class="edge"><title>topo.base.simulation.OptionalSingleton&#45;&gt;topo.base.simulation.Simulation</title>
<path fill="none" stroke="black" stroke-width="0.5" d="M196.089,-276C217.618,-276 240.265,-276 261.309,-276"/>
<polygon fill="black" stroke="black" points="261.338,-277.75 266.338,-276 261.338,-274.25 261.338,-277.75"/>
</g>
</g>
</svg>
