<?xml version="1.0" encoding="UTF-8" standalone="no"?>
<!DOCTYPE svg PUBLIC "-//W3C//DTD SVG 1.1//EN"
 "http://www.w3.org/Graphics/SVG/1.1/DTD/svg11.dtd">
<!-- Generated by graphviz version 2.26.3 (20100126.1600)
 -->
<!-- Title: inheritancee08cba1177 Pages: 1 -->
<svg width="1638pt" height="123pt"
 viewBox="0.00 0.00 1638.00 123.00" xmlns="http://www.w3.org/2000/svg" xmlns:xlink="http://www.w3.org/1999/xlink">
<g id="graph1" class="graph" transform="scale(1 1) rotate(0) translate(4 119)">
<title>inheritancee08cba1177</title>
<polygon fill="white" stroke="white" points="-4,5 -4,-119 1635,-119 1635,5 -4,5"/>
<!-- topo.misc.generatorsheet.GeneratorSheet -->
<g id="node1" class="node"><title>topo.misc.generatorsheet.GeneratorSheet</title>
<polygon fill="none" stroke="black" stroke-width="0.5" points="885,-115.5 665,-115.5 665,-94.5 885,-94.5 885,-115.5"/>
<text text-anchor="middle" x="775" y="-102.5" font-family="Vera" font-size="10.00">topo.misc.generatorsheet.GeneratorSheet</text>
</g>
<!-- topo.sheet.SequenceGeneratorSheet -->
<g id="node15" class="node"><title>topo.sheet.SequenceGeneratorSheet</title>
<polygon fill="none" stroke="black" stroke-width="0.5" points="1119,-115.5 923,-115.5 923,-94.5 1119,-94.5 1119,-115.5"/>
<text text-anchor="middle" x="1021" y="-102.5" font-family="Vera" font-size="10.00">topo.sheet.SequenceGeneratorSheet</text>
</g>
<!-- topo.misc.generatorsheet.GeneratorSheet&#45;&gt;topo.sheet.SequenceGeneratorSheet -->
<g id="edge14" class="edge"><title>topo.misc.generatorsheet.GeneratorSheet&#45;&gt;topo.sheet.SequenceGeneratorSheet</title>
<path fill="none" stroke="black" stroke-width="0.5" d="M885.766,-105C896.287,-105 906.929,-105 917.379,-105"/>
<polygon fill="black" stroke="black" points="917.493,-106.75 922.493,-105 917.493,-103.25 917.493,-106.75"/>
</g>
<!-- topo.base.sheet.Sheet -->
<g id="node2" class="node"><title>topo.base.sheet.Sheet</title>
<polygon fill="none" stroke="black" stroke-width="0.5" points="628,-77.5 502,-77.5 502,-56.5 628,-56.5 628,-77.5"/>
<text text-anchor="middle" x="565" y="-64.5" font-family="Vera" font-size="10.00">topo.base.sheet.Sheet</text>
</g>
<!-- topo.base.sheet.Sheet&#45;&gt;topo.misc.generatorsheet.GeneratorSheet -->
<g id="edge2" class="edge"><title>topo.base.sheet.Sheet&#45;&gt;topo.misc.generatorsheet.GeneratorSheet</title>
<path fill="none" stroke="black" stroke-width="0.5" d="M616.091,-77.0084C631.478,-79.9678 648.416,-83.1711 664,-86 678.863,-88.6981 694.866,-91.4983 709.967,-94.0932"/>
<polygon fill="black" stroke="black" points="709.826,-95.8446 715.05,-94.9649 710.418,-92.395 709.826,-95.8446"/>
</g>
<!-- topo.sheet.ActivityCopy -->
<g id="node4" class="node"><title>topo.sheet.ActivityCopy</title>
<polygon fill="none" stroke="black" stroke-width="0.5" points="840,-77.5 710,-77.5 710,-56.5 840,-56.5 840,-77.5"/>
<text text-anchor="middle" x="775" y="-64.5" font-family="Vera" font-size="10.00">topo.sheet.ActivityCopy</text>
</g>
<!-- topo.base.sheet.Sheet&#45;&gt;topo.sheet.ActivityCopy -->
<g id="edge4" class="edge"><title>topo.base.sheet.Sheet&#45;&gt;topo.sheet.ActivityCopy</title>
<path fill="none" stroke="black" stroke-width="0.5" d="M628.007,-67C652.144,-67 679.826,-67 704.611,-67"/>
<polygon fill="black" stroke="black" points="704.854,-68.7501 709.854,-67 704.854,-65.2501 704.854,-68.7501"/>
</g>
<!-- topo.base.projection.ProjectionSheet -->
<g id="node19" class="node"><title>topo.base.projection.ProjectionSheet</title>
<polygon fill="none" stroke="black" stroke-width="0.5" points="872,-39.5 678,-39.5 678,-18.5 872,-18.5 872,-39.5"/>
<text text-anchor="middle" x="775" y="-26.5" font-family="Vera" font-size="10.00">topo.base.projection.ProjectionSheet</text>
</g>
<!-- topo.base.sheet.Sheet&#45;&gt;topo.base.projection.ProjectionSheet -->
<g id="edge18" class="edge"><title>topo.base.sheet.Sheet&#45;&gt;topo.base.projection.ProjectionSheet</title>
<path fill="none" stroke="black" stroke-width="0.5" d="M616.091,-56.9916C631.478,-54.0322 648.416,-50.8289 664,-48 678.863,-45.3019 694.866,-42.5017 709.967,-39.9068"/>
<polygon fill="black" stroke="black" points="710.418,-41.605 715.05,-39.0351 709.826,-38.1554 710.418,-41.605"/>
</g>
<!-- topo.sheet.JointNormalizingCFSheet -->
<g id="node6" class="node"><title>topo.sheet.JointNormalizingCFSheet</title>
<polygon fill="none" stroke="black" stroke-width="0.5" points="1345,-39.5 1157,-39.5 1157,-18.5 1345,-18.5 1345,-39.5"/>
<text text-anchor="middle" x="1251" y="-26.5" font-family="Vera" font-size="10.00">topo.sheet.JointNormalizingCFSheet</text>
</g>
<!-- topo.sheet.SettlingCFSheet -->
<g id="node13" class="node"><title>topo.sheet.SettlingCFSheet</title>
<polygon fill="none" stroke="black" stroke-width="0.5" points="1580,-58.5 1432,-58.5 1432,-37.5 1580,-37.5 1580,-58.5"/>
<text text-anchor="middle" x="1506" y="-45.5" font-family="Vera" font-size="10.00">topo.sheet.SettlingCFSheet</text>
</g>
<!-- topo.sheet.JointNormalizingCFSheet&#45;&gt;topo.sheet.SettlingCFSheet -->
<g id="edge12" class="edge"><title>topo.sheet.JointNormalizingCFSheet&#45;&gt;topo.sheet.SettlingCFSheet</title>
<path fill="none" stroke="black" stroke-width="0.5" d="M1345.59,-36.0479C1372.17,-38.0281 1400.79,-40.1608 1426.4,-42.0688"/>
<polygon fill="black" stroke="black" points="1426.36,-43.8209 1431.48,-42.4473 1426.62,-40.3306 1426.36,-43.8209"/>
</g>
<!-- topo.sheet.JointNormalizingCFSheet_Continuous -->
<g id="node17" class="node"><title>topo.sheet.JointNormalizingCFSheet_Continuous</title>
<polygon fill="none" stroke="black" stroke-width="0.5" points="1630,-20.5 1382,-20.5 1382,0.5 1630,0.5 1630,-20.5"/>
<text text-anchor="middle" x="1506" y="-7.5" font-family="Vera" font-size="10.00">topo.sheet.JointNormalizingCFSheet_Continuous</text>
</g>
<!-- topo.sheet.JointNormalizingCFSheet&#45;&gt;topo.sheet.JointNormalizingCFSheet_Continuous -->
<g id="edge16" class="edge"><title>topo.sheet.JointNormalizingCFSheet&#45;&gt;topo.sheet.JointNormalizingCFSheet_Continuous</title>
<path fill="none" stroke="black" stroke-width="0.5" d="M1345.59,-21.9521C1355.7,-21.1988 1366.11,-20.4234 1376.53,-19.6468"/>
<polygon fill="black" stroke="black" points="1376.79,-21.3822 1381.65,-19.2655 1376.53,-17.8919 1376.79,-21.3822"/>
</g>
<!-- topo.base.cf.CFSheet -->
<g id="node7" class="node"><title>topo.base.cf.CFSheet</title>
<polygon fill="none" stroke="black" stroke-width="0.5" points="1080,-39.5 962,-39.5 962,-18.5 1080,-18.5 1080,-39.5"/>
<text text-anchor="middle" x="1021" y="-26.5" font-family="Vera" font-size="10.00">topo.base.cf.CFSheet</text>
</g>
<!-- topo.base.cf.CFSheet&#45;&gt;topo.sheet.JointNormalizingCFSheet -->
<g id="edge6" class="edge"><title>topo.base.cf.CFSheet&#45;&gt;topo.sheet.JointNormalizingCFSheet</title>
<path fill="none" stroke="black" stroke-width="0.5" d="M1080.53,-29C1102.15,-29 1127.21,-29 1151.36,-29"/>
<polygon fill="black" stroke="black" points="1151.49,-30.7501 1156.49,-29 1151.49,-27.2501 1151.49,-30.7501"/>
</g>
<!-- imagen.sheetcoords.SheetCoordinateSystem -->
<g id="node9" class="node"><title>imagen.sheetcoords.SheetCoordinateSystem</title>
<polygon fill="none" stroke="black" stroke-width="0.5" points="466,-96.5 230,-96.5 230,-75.5 466,-75.5 466,-96.5"/>
<text text-anchor="middle" x="348" y="-83.5" font-family="Vera" font-size="10.00">imagen.sheetcoords.SheetCoordinateSystem</text>
</g>
<!-- imagen.sheetcoords.SheetCoordinateSystem&#45;&gt;topo.base.sheet.Sheet -->
<g id="edge10" class="edge"><title>imagen.sheetcoords.SheetCoordinateSystem&#45;&gt;topo.base.sheet.Sheet</title>
<path fill="none" stroke="black" stroke-width="0.5" d="M462.219,-75.9992C473.996,-74.9681 485.682,-73.9449 496.721,-72.9783"/>
<polygon fill="black" stroke="black" points="496.918,-74.7179 501.746,-72.5384 496.612,-71.2313 496.918,-74.7179"/>
</g>
<!-- topo.base.simulation.EventProcessor -->
<g id="node10" class="node"><title>topo.base.simulation.EventProcessor</title>
<polygon fill="none" stroke="black" stroke-width="0.5" points="445,-58.5 251,-58.5 251,-37.5 445,-37.5 445,-58.5"/>
<text text-anchor="middle" x="348" y="-45.5" font-family="Vera" font-size="10.00">topo.base.simulation.EventProcessor</text>
</g>
<!-- topo.base.simulation.EventProcessor&#45;&gt;topo.base.sheet.Sheet -->
<g id="edge8" class="edge"><title>topo.base.simulation.EventProcessor&#45;&gt;topo.base.sheet.Sheet</title>
<path fill="none" stroke="black" stroke-width="0.5" d="M445.075,-56.4997C462.563,-58.0309 480.451,-59.5971 496.895,-61.0369"/>
<polygon fill="black" stroke="black" points="496.816,-62.7866 501.95,-61.4795 497.122,-59.2999 496.816,-62.7866"/>
</g>
<!-- topo.base.projection.ProjectionSheet&#45;&gt;topo.base.cf.CFSheet -->
<g id="edge20" class="edge"><title>topo.base.projection.ProjectionSheet&#45;&gt;topo.base.cf.CFSheet</title>
<path fill="none" stroke="black" stroke-width="0.5" d="M872.226,-29C900.429,-29 930.524,-29 956.216,-29"/>
<polygon fill="black" stroke="black" points="956.293,-30.7501 961.293,-29 956.293,-27.2501 956.293,-30.7501"/>
</g>
<!-- param.parameterized.Parameterized -->
<g id="node21" class="node"><title>param.parameterized.Parameterized</title>
<polygon fill="none" stroke="black" stroke-width="0.5" points="194,-58.5 5.68434e-14,-58.5 0,-37.5 194,-37.5 194,-58.5"/>
<text text-anchor="middle" x="97" y="-45.5" font-family="Vera" font-size="10.00">param.parameterized.Parameterized</text>
</g>
<!-- param.parameterized.Parameterized&#45;&gt;topo.base.simulation.EventProcessor -->
<g id="edge22" class="edge"><title>param.parameterized.Parameterized&#45;&gt;topo.base.simulation.EventProcessor</title>
<path fill="none" stroke="black" stroke-width="0.5" d="M194.043,-48C210.921,-48 228.523,-48 245.54,-48"/>
<polygon fill="black" stroke="black" points="245.801,-49.7501 250.801,-48 245.801,-46.2501 245.801,-49.7501"/>
</g>
</g>
</svg>
