<?xml version="1.0" encoding="UTF-8" standalone="no"?>
<!DOCTYPE svg PUBLIC "-//W3C//DTD SVG 1.1//EN"
 "http://www.w3.org/Graphics/SVG/1.1/DTD/svg11.dtd">
<!-- Generated by graphviz version 2.26.3 (20100126.1600)
 -->
<!-- Title: inheritance3d1eaa8e0e Pages: 1 -->
<svg width="1232pt" height="199pt"
 viewBox="0.00 0.00 1232.00 199.00" xmlns="http://www.w3.org/2000/svg" xmlns:xlink="http://www.w3.org/1999/xlink">
<g id="graph1" class="graph" transform="scale(1 1) rotate(0) translate(4 195)">
<title>inheritance3d1eaa8e0e</title>
<polygon fill="white" stroke="white" points="-4,5 -4,-195 1229,-195 1229,5 -4,5"/>
<!-- topo.misc.distribution.DescriptiveBimodalStatisticFn -->
<g id="node1" class="node"><title>topo.misc.distribution.DescriptiveBimodalStatisticFn</title>
<polygon fill="none" stroke="black" stroke-width="0.5" points="981,-172 729,-172 729,-152 981,-152 981,-172"/>
<text text-anchor="middle" x="855" y="-159" font-family="Vera" font-size="10.00">topo.misc.distribution.DescriptiveBimodalStatisticFn</text>
</g>
<!-- topo.misc.distribution.DSF_BimodalPeaks -->
<g id="node8" class="node"><title>topo.misc.distribution.DSF_BimodalPeaks</title>
<polygon fill="none" stroke="black" stroke-width="0.5" points="1223,-191 1019,-191 1019,-171 1223,-171 1223,-191"/>
<text text-anchor="middle" x="1121" y="-178" font-family="Vera" font-size="10.00">topo.misc.distribution.DSF_BimodalPeaks</text>
</g>
<!-- topo.misc.distribution.DescriptiveBimodalStatisticFn&#45;&gt;topo.misc.distribution.DSF_BimodalPeaks -->
<g id="edge8" class="edge"><title>topo.misc.distribution.DescriptiveBimodalStatisticFn&#45;&gt;topo.misc.distribution.DSF_BimodalPeaks</title>
<path fill="none" stroke="black" stroke-width="0.5" d="M981.768,-171.055C992.462,-171.819 1003.21,-172.586 1013.74,-173.338"/>
<polygon fill="black" stroke="black" points="1013.77,-175.095 1018.88,-173.706 1014.02,-171.604 1013.77,-175.095"/>
</g>
<!-- topo.misc.distribution.DSF_TopTwoValues -->
<g id="node12" class="node"><title>topo.misc.distribution.DSF_TopTwoValues</title>
<polygon fill="none" stroke="black" stroke-width="0.5" points="1224,-153 1018,-153 1018,-133 1224,-133 1224,-153"/>
<text text-anchor="middle" x="1121" y="-140" font-family="Vera" font-size="10.00">topo.misc.distribution.DSF_TopTwoValues</text>
</g>
<!-- topo.misc.distribution.DescriptiveBimodalStatisticFn&#45;&gt;topo.misc.distribution.DSF_TopTwoValues -->
<g id="edge12" class="edge"><title>topo.misc.distribution.DescriptiveBimodalStatisticFn&#45;&gt;topo.misc.distribution.DSF_TopTwoValues</title>
<path fill="none" stroke="black" stroke-width="0.5" d="M981.768,-152.945C992.117,-152.206 1002.52,-151.463 1012.72,-150.735"/>
<polygon fill="black" stroke="black" points="1012.84,-152.48 1017.71,-150.378 1012.59,-148.989 1012.84,-152.48"/>
</g>
<!-- topo.misc.distribution.DescriptiveStatisticFn -->
<g id="node2" class="node"><title>topo.misc.distribution.DescriptiveStatisticFn</title>
<polygon fill="none" stroke="black" stroke-width="0.5" points="692,-115 476,-115 476,-95 692,-95 692,-115"/>
<text text-anchor="middle" x="584" y="-102" font-family="Vera" font-size="10.00">topo.misc.distribution.DescriptiveStatisticFn</text>
</g>
<!-- topo.misc.distribution.DescriptiveStatisticFn&#45;&gt;topo.misc.distribution.DescriptiveBimodalStatisticFn -->
<g id="edge2" class="edge"><title>topo.misc.distribution.DescriptiveStatisticFn&#45;&gt;topo.misc.distribution.DescriptiveBimodalStatisticFn</title>
<path fill="none" stroke="black" stroke-width="0.5" d="M617.793,-115.04C646.819,-123.392 689.888,-135.145 728,-143 742.713,-146.032 758.48,-148.785 773.726,-151.195"/>
<polygon fill="black" stroke="black" points="773.664,-152.956 778.874,-151.999 774.204,-149.498 773.664,-152.956"/>
</g>
<!-- topo.misc.distribution.DSF_WeightedAverage -->
<g id="node10" class="node"><title>topo.misc.distribution.DSF_WeightedAverage</title>
<polygon fill="none" stroke="black" stroke-width="0.5" points="965,-134 745,-134 745,-114 965,-114 965,-134"/>
<text text-anchor="middle" x="855" y="-121" font-family="Vera" font-size="10.00">topo.misc.distribution.DSF_WeightedAverage</text>
</g>
<!-- topo.misc.distribution.DescriptiveStatisticFn&#45;&gt;topo.misc.distribution.DSF_WeightedAverage -->
<g id="edge10" class="edge"><title>topo.misc.distribution.DescriptiveStatisticFn&#45;&gt;topo.misc.distribution.DSF_WeightedAverage</title>
<path fill="none" stroke="black" stroke-width="0.5" d="M692.275,-112.591C707.772,-113.678 723.765,-114.799 739.397,-115.895"/>
<polygon fill="black" stroke="black" points="739.573,-117.662 744.683,-116.266 739.818,-114.17 739.573,-117.662"/>
</g>
<!-- topo.misc.distribution.DSF_MaxValue -->
<g id="node22" class="node"><title>topo.misc.distribution.DSF_MaxValue</title>
<polygon fill="none" stroke="black" stroke-width="0.5" points="947,-96 763,-96 763,-76 947,-76 947,-96"/>
<text text-anchor="middle" x="855" y="-83" font-family="Vera" font-size="10.00">topo.misc.distribution.DSF_MaxValue</text>
</g>
<!-- topo.misc.distribution.DescriptiveStatisticFn&#45;&gt;topo.misc.distribution.DSF_MaxValue -->
<g id="edge20" class="edge"><title>topo.misc.distribution.DescriptiveStatisticFn&#45;&gt;topo.misc.distribution.DSF_MaxValue</title>
<path fill="none" stroke="black" stroke-width="0.5" d="M692.275,-97.4088C713.703,-95.9064 736.079,-94.3376 757.138,-92.8612"/>
<polygon fill="black" stroke="black" points="757.311,-94.6034 762.176,-92.5079 757.066,-91.112 757.311,-94.6034"/>
</g>
<!-- topo.misc.distribution.VonMisesStatisticFn -->
<g id="node4" class="node"><title>topo.misc.distribution.VonMisesStatisticFn</title>
<polygon fill="none" stroke="black" stroke-width="0.5" points="688,-58 480,-58 480,-38 688,-38 688,-58"/>
<text text-anchor="middle" x="584" y="-45" font-family="Vera" font-size="10.00">topo.misc.distribution.VonMisesStatisticFn</text>
</g>
<!-- topo.misc.distribution.DSF_VonMisesFit -->
<g id="node17" class="node"><title>topo.misc.distribution.DSF_VonMisesFit</title>
<polygon fill="none" stroke="black" stroke-width="0.5" points="952,-58 758,-58 758,-38 952,-38 952,-58"/>
<text text-anchor="middle" x="855" y="-45" font-family="Vera" font-size="10.00">topo.misc.distribution.DSF_VonMisesFit</text>
</g>
<!-- topo.misc.distribution.VonMisesStatisticFn&#45;&gt;topo.misc.distribution.DSF_VonMisesFit -->
<g id="edge16" class="edge"><title>topo.misc.distribution.VonMisesStatisticFn&#45;&gt;topo.misc.distribution.DSF_VonMisesFit</title>
<path fill="none" stroke="black" stroke-width="0.5" d="M688.776,-48C709.509,-48 731.256,-48 751.932,-48"/>
<polygon fill="black" stroke="black" points="752.164,-49.7501 757.164,-48 752.164,-46.2501 752.164,-49.7501"/>
</g>
<!-- topo.misc.distribution.DSF_BimodalVonMisesFit -->
<g id="node20" class="node"><title>topo.misc.distribution.DSF_BimodalVonMisesFit</title>
<polygon fill="none" stroke="black" stroke-width="0.5" points="971,-20 739,-20 739,-1.06581e-14 971,-3.55271e-15 971,-20"/>
<text text-anchor="middle" x="855" y="-7" font-family="Vera" font-size="10.00">topo.misc.distribution.DSF_BimodalVonMisesFit</text>
</g>
<!-- topo.misc.distribution.VonMisesStatisticFn&#45;&gt;topo.misc.distribution.DSF_BimodalVonMisesFit -->
<g id="edge18" class="edge"><title>topo.misc.distribution.VonMisesStatisticFn&#45;&gt;topo.misc.distribution.DSF_BimodalVonMisesFit</title>
<path fill="none" stroke="black" stroke-width="0.5" d="M655.557,-37.9662C693.376,-32.6631 739.819,-26.1509 778.369,-20.7453"/>
<polygon fill="black" stroke="black" points="778.804,-22.4515 783.513,-20.024 778.318,-18.9854 778.804,-22.4515"/>
</g>
<!-- topo.misc.distribution.DistributionStatisticFn -->
<g id="node5" class="node"><title>topo.misc.distribution.DistributionStatisticFn</title>
<polygon fill="none" stroke="black" stroke-width="0.5" points="439,-77 221,-77 221,-57 439,-57 439,-77"/>
<text text-anchor="middle" x="330" y="-64" font-family="Vera" font-size="10.00">topo.misc.distribution.DistributionStatisticFn</text>
</g>
<!-- topo.misc.distribution.DistributionStatisticFn&#45;&gt;topo.misc.distribution.DescriptiveStatisticFn -->
<g id="edge6" class="edge"><title>topo.misc.distribution.DistributionStatisticFn&#45;&gt;topo.misc.distribution.DescriptiveStatisticFn</title>
<path fill="none" stroke="black" stroke-width="0.5" d="M397.068,-77.0338C432.37,-82.3152 475.689,-88.796 511.734,-94.1885"/>
<polygon fill="black" stroke="black" points="511.793,-95.9668 516.997,-94.976 512.311,-92.5053 511.793,-95.9668"/>
</g>
<!-- topo.misc.distribution.DistributionStatisticFn&#45;&gt;topo.misc.distribution.VonMisesStatisticFn -->
<g id="edge4" class="edge"><title>topo.misc.distribution.DistributionStatisticFn&#45;&gt;topo.misc.distribution.VonMisesStatisticFn</title>
<path fill="none" stroke="black" stroke-width="0.5" d="M439.562,-58.8044C450.972,-57.9509 462.575,-57.083 473.99,-56.2291"/>
<polygon fill="black" stroke="black" points="474.365,-57.956 479.221,-55.8378 474.104,-54.4658 474.365,-57.956"/>
</g>
<!-- param.parameterized.Parameterized -->
<g id="node14" class="node"><title>param.parameterized.Parameterized</title>
<polygon fill="none" stroke="black" stroke-width="0.5" points="184,-77 8.52651e-14,-77 0,-57 184,-57 184,-77"/>
<text text-anchor="middle" x="92" y="-64" font-family="Vera" font-size="10.00">param.parameterized.Parameterized</text>
</g>
<!-- param.parameterized.Parameterized&#45;&gt;topo.misc.distribution.DistributionStatisticFn -->
<g id="edge14" class="edge"><title>param.parameterized.Parameterized&#45;&gt;topo.misc.distribution.DistributionStatisticFn</title>
<path fill="none" stroke="black" stroke-width="0.5" d="M184.017,-67C194.247,-67 204.757,-67 215.224,-67"/>
<polygon fill="black" stroke="black" points="215.357,-68.7501 220.357,-67 215.357,-65.2501 215.357,-68.7501"/>
</g>
<!-- topo.misc.distribution.Pref -->
<g id="node16" class="node"><title>topo.misc.distribution.Pref</title>
<polygon fill="none" stroke="black" stroke-width="0.5" points="161,-115 23,-115 23,-95 161,-95 161,-115"/>
<text text-anchor="middle" x="92" y="-102" font-family="Vera" font-size="10.00">topo.misc.distribution.Pref</text>
</g>
<!-- topo.misc.distribution.Distribution -->
<g id="node19" class="node"><title>topo.misc.distribution.Distribution</title>
<polygon fill="none" stroke="black" stroke-width="0.5" points="178,-153 6,-153 6,-133 178,-133 178,-153"/>
<text text-anchor="middle" x="92" y="-140" font-family="Vera" font-size="10.00">topo.misc.distribution.Distribution</text>
</g>
</g>
</svg>
