<?xml version="1.0" encoding="UTF-8" standalone="no"?>
<!DOCTYPE svg PUBLIC "-//W3C//DTD SVG 1.1//EN"
 "http://www.w3.org/Graphics/SVG/1.1/DTD/svg11.dtd">
<!-- Generated by graphviz version 2.26.3 (20100126.1600)
 -->
<!-- Title: inheritancebede3c61fc Pages: 1 -->
<svg width="2058pt" height="465pt"
 viewBox="0.00 0.00 2058.00 465.00" xmlns="http://www.w3.org/2000/svg" xmlns:xlink="http://www.w3.org/1999/xlink">
<g id="graph1" class="graph" transform="scale(1 1) rotate(0) translate(4 461)">
<title>inheritancebede3c61fc</title>
<polygon fill="white" stroke="white" points="-4,5 -4,-461 2055,-461 2055,5 -4,5"/>
<!-- topo.command.pylabplot.measure_size_response -->
<g id="node1" class="node"><title>topo.command.pylabplot.measure_size_response</title>
<polygon fill="none" stroke="black" stroke-width="0.5" points="2035,-172 1795,-172 1795,-152 2035,-152 2035,-172"/>
<text text-anchor="middle" x="1915" y="-159" font-family="Vera" font-size="10.00">topo.command.pylabplot.measure_size_response</text>
</g>
<!-- topo.analysis.featureresponses.UnitCurveCommand -->
<g id="node2" class="node"><title>topo.analysis.featureresponses.UnitCurveCommand</title>
<polygon fill="none" stroke="black" stroke-width="0.5" points="1740,-96 1488,-96 1488,-76 1740,-76 1740,-96"/>
<text text-anchor="middle" x="1614" y="-83" font-family="Vera" font-size="10.00">topo.analysis.featureresponses.UnitCurveCommand</text>
</g>
<!-- topo.analysis.featureresponses.UnitCurveCommand&#45;&gt;topo.command.pylabplot.measure_size_response -->
<g id="edge2" class="edge"><title>topo.analysis.featureresponses.UnitCurveCommand&#45;&gt;topo.command.pylabplot.measure_size_response</title>
<path fill="none" stroke="black" stroke-width="0.5" d="M1638.59,-96.1038C1670.62,-108.875 1728.59,-130.675 1780,-143 1793.22,-146.17 1807.31,-148.874 1821.2,-151.161"/>
<polygon fill="black" stroke="black" points="1821.1,-152.917 1826.31,-151.985 1821.66,-149.461 1821.1,-152.917"/>
</g>
<!-- topo.command.pylabplot.measure_orientation_contrast -->
<g id="node44" class="node"><title>topo.command.pylabplot.measure_orientation_contrast</title>
<polygon fill="none" stroke="black" stroke-width="0.5" points="2049,-134 1781,-134 1781,-114 2049,-114 2049,-134"/>
<text text-anchor="middle" x="1915" y="-121" font-family="Vera" font-size="10.00">topo.command.pylabplot.measure_orientation_contrast</text>
</g>
<!-- topo.analysis.featureresponses.UnitCurveCommand&#45;&gt;topo.command.pylabplot.measure_orientation_contrast -->
<g id="edge40" class="edge"><title>topo.analysis.featureresponses.UnitCurveCommand&#45;&gt;topo.command.pylabplot.measure_orientation_contrast</title>
<path fill="none" stroke="black" stroke-width="0.5" d="M1693.48,-96.0338C1735.66,-101.358 1787.49,-107.902 1830.41,-113.321"/>
<polygon fill="black" stroke="black" points="1830.42,-115.086 1835.6,-113.976 1830.86,-111.613 1830.42,-115.086"/>
</g>
<!-- topo.command.pylabplot.measure_or_tuning -->
<g id="node46" class="node"><title>topo.command.pylabplot.measure_or_tuning</title>
<polygon fill="none" stroke="black" stroke-width="0.5" points="2025,-96 1805,-96 1805,-76 2025,-76 2025,-96"/>
<text text-anchor="middle" x="1915" y="-83" font-family="Vera" font-size="10.00">topo.command.pylabplot.measure_or_tuning</text>
</g>
<!-- topo.analysis.featureresponses.UnitCurveCommand&#45;&gt;topo.command.pylabplot.measure_or_tuning -->
<g id="edge42" class="edge"><title>topo.analysis.featureresponses.UnitCurveCommand&#45;&gt;topo.command.pylabplot.measure_or_tuning</title>
<path fill="none" stroke="black" stroke-width="0.5" d="M1740.78,-86C1760.02,-86 1779.79,-86 1798.79,-86"/>
<polygon fill="black" stroke="black" points="1799.12,-87.7501 1804.12,-86 1799.12,-84.2501 1799.12,-87.7501"/>
</g>
<!-- topo.command.pylabplot.measure_contrast_response -->
<g id="node48" class="node"><title>topo.command.pylabplot.measure_contrast_response</title>
<polygon fill="none" stroke="black" stroke-width="0.5" points="2045,-58 1785,-58 1785,-38 2045,-38 2045,-58"/>
<text text-anchor="middle" x="1915" y="-45" font-family="Vera" font-size="10.00">topo.command.pylabplot.measure_contrast_response</text>
</g>
<!-- topo.analysis.featureresponses.UnitCurveCommand&#45;&gt;topo.command.pylabplot.measure_contrast_response -->
<g id="edge44" class="edge"><title>topo.analysis.featureresponses.UnitCurveCommand&#45;&gt;topo.command.pylabplot.measure_contrast_response</title>
<path fill="none" stroke="black" stroke-width="0.5" d="M1693.48,-75.9662C1735.66,-70.6415 1787.49,-64.0977 1830.41,-58.6791"/>
<polygon fill="black" stroke="black" points="1830.86,-60.3866 1835.6,-58.024 1830.42,-56.9142 1830.86,-60.3866"/>
</g>
<!-- topo.command.pylabplot.test_measure -->
<g id="node53" class="node"><title>topo.command.pylabplot.test_measure</title>
<polygon fill="none" stroke="black" stroke-width="0.5" points="2012,-20 1818,-20 1818,-1.06581e-14 2012,-3.55271e-15 2012,-20"/>
<text text-anchor="middle" x="1915" y="-7" font-family="Vera" font-size="10.00">topo.command.pylabplot.test_measure</text>
</g>
<!-- topo.analysis.featureresponses.UnitCurveCommand&#45;&gt;topo.command.pylabplot.test_measure -->
<g id="edge50" class="edge"><title>topo.analysis.featureresponses.UnitCurveCommand&#45;&gt;topo.command.pylabplot.test_measure</title>
<path fill="none" stroke="black" stroke-width="0.5" d="M1722.2,-75.9766C1729.77,-73.5316 1737.12,-70.5727 1744,-67 1764.65,-56.2823 1759.32,-39.6629 1780,-29 1790.22,-23.7319 1801.41,-19.7788 1812.85,-16.8313"/>
<polygon fill="black" stroke="black" points="1813.33,-18.5169 1817.77,-15.6288 1812.5,-15.1171 1813.33,-18.5169"/>
</g>
<!-- topo.analysis.featureresponses.FeatureCurveCommand -->
<g id="node4" class="node"><title>topo.analysis.featureresponses.FeatureCurveCommand</title>
<polygon fill="none" stroke="black" stroke-width="0.5" points="1448,-77 1180,-77 1180,-57 1448,-57 1448,-77"/>
<text text-anchor="middle" x="1314" y="-64" font-family="Vera" font-size="10.00">topo.analysis.featureresponses.FeatureCurveCommand</text>
</g>
<!-- topo.analysis.featureresponses.FeatureCurveCommand&#45;&gt;topo.analysis.featureresponses.UnitCurveCommand -->
<g id="edge4" class="edge"><title>topo.analysis.featureresponses.FeatureCurveCommand&#45;&gt;topo.analysis.featureresponses.UnitCurveCommand</title>
<path fill="none" stroke="black" stroke-width="0.5" d="M1448.21,-75.4997C1459.43,-76.2109 1470.78,-76.9296 1482,-77.6397"/>
<polygon fill="black" stroke="black" points="1482.04,-79.3957 1487.14,-77.9653 1482.26,-75.9027 1482.04,-79.3957"/>
</g>
<!-- topo.command.pylabplot.measure_or_tuning_fullfield -->
<g id="node40" class="node"><title>topo.command.pylabplot.measure_or_tuning_fullfield</title>
<polygon fill="none" stroke="black" stroke-width="0.5" points="1744,-58 1484,-58 1484,-38 1744,-38 1744,-58"/>
<text text-anchor="middle" x="1614" y="-45" font-family="Vera" font-size="10.00">topo.command.pylabplot.measure_or_tuning_fullfield</text>
</g>
<!-- topo.analysis.featureresponses.FeatureCurveCommand&#45;&gt;topo.command.pylabplot.measure_or_tuning_fullfield -->
<g id="edge36" class="edge"><title>topo.analysis.featureresponses.FeatureCurveCommand&#45;&gt;topo.command.pylabplot.measure_or_tuning_fullfield</title>
<path fill="none" stroke="black" stroke-width="0.5" d="M1448.21,-58.5003C1458.4,-57.855 1468.68,-57.2034 1478.88,-56.5577"/>
<polygon fill="black" stroke="black" points="1478.99,-58.3039 1483.87,-56.2413 1478.77,-54.8109 1478.99,-58.3039"/>
</g>
<!-- topo.command.pylabplot.tuning_curve -->
<g id="node6" class="node"><title>topo.command.pylabplot.tuning_curve</title>
<polygon fill="none" stroke="black" stroke-width="0.5" points="1410,-457 1218,-457 1218,-437 1410,-437 1410,-457"/>
<text text-anchor="middle" x="1314" y="-444" font-family="Vera" font-size="10.00">topo.command.pylabplot.tuning_curve</text>
</g>
<!-- topo.command.pylabplot.cyclic_tuning_curve -->
<g id="node55" class="node"><title>topo.command.pylabplot.cyclic_tuning_curve</title>
<polygon fill="none" stroke="black" stroke-width="0.5" points="1724,-457 1504,-457 1504,-437 1724,-437 1724,-457"/>
<text text-anchor="middle" x="1614" y="-444" font-family="Vera" font-size="10.00">topo.command.pylabplot.cyclic_tuning_curve</text>
</g>
<!-- topo.command.pylabplot.tuning_curve&#45;&gt;topo.command.pylabplot.cyclic_tuning_curve -->
<g id="edge52" class="edge"><title>topo.command.pylabplot.tuning_curve&#45;&gt;topo.command.pylabplot.cyclic_tuning_curve</title>
<path fill="none" stroke="black" stroke-width="0.5" d="M1410.16,-447C1438.35,-447 1469.47,-447 1498.72,-447"/>
<polygon fill="black" stroke="black" points="1498.77,-448.75 1503.77,-447 1498.77,-445.25 1498.77,-448.75"/>
</g>
<!-- topo.command.pylabplot.PylabPlotCommand -->
<g id="node7" class="node"><title>topo.command.pylabplot.PylabPlotCommand</title>
<polygon fill="none" stroke="black" stroke-width="0.5" points="1087,-267 863,-267 863,-247 1087,-247 1087,-267"/>
<text text-anchor="middle" x="975" y="-254" font-family="Vera" font-size="10.00">topo.command.pylabplot.PylabPlotCommand</text>
</g>
<!-- topo.command.pylabplot.PylabPlotCommand&#45;&gt;topo.command.pylabplot.tuning_curve -->
<g id="edge6" class="edge"><title>topo.command.pylabplot.PylabPlotCommand&#45;&gt;topo.command.pylabplot.tuning_curve</title>
<path fill="none" stroke="black" stroke-width="0.5" d="M983.492,-267.314C1009.32,-297.876 1090.63,-388.3 1180,-428 1190.24,-432.55 1201.32,-436.063 1212.56,-438.769"/>
<polygon fill="black" stroke="black" points="1212.48,-440.545 1217.74,-439.957 1213.26,-437.133 1212.48,-440.545"/>
</g>
<!-- topo.command.pylabplot.topographic_grid -->
<g id="node12" class="node"><title>topo.command.pylabplot.topographic_grid</title>
<polygon fill="none" stroke="black" stroke-width="0.5" points="1419,-419 1209,-419 1209,-399 1419,-399 1419,-419"/>
<text text-anchor="middle" x="1314" y="-406" font-family="Vera" font-size="10.00">topo.command.pylabplot.topographic_grid</text>
</g>
<!-- topo.command.pylabplot.PylabPlotCommand&#45;&gt;topo.command.pylabplot.topographic_grid -->
<g id="edge10" class="edge"><title>topo.command.pylabplot.PylabPlotCommand&#45;&gt;topo.command.pylabplot.topographic_grid</title>
<path fill="none" stroke="black" stroke-width="0.5" d="M986.469,-267.102C1016.09,-292.566 1098.55,-359.511 1180,-390 1188.17,-393.058 1196.79,-395.629 1205.55,-397.789"/>
<polygon fill="black" stroke="black" points="1205.17,-399.496 1210.43,-398.948 1205.97,-396.091 1205.17,-399.496"/>
</g>
<!-- topo.command.pylabplot.matrixplot -->
<g id="node15" class="node"><title>topo.command.pylabplot.matrixplot</title>
<polygon fill="none" stroke="black" stroke-width="0.5" points="1404,-381 1224,-381 1224,-361 1404,-361 1404,-381"/>
<text text-anchor="middle" x="1314" y="-368" font-family="Vera" font-size="10.00">topo.command.pylabplot.matrixplot</text>
</g>
<!-- topo.command.pylabplot.PylabPlotCommand&#45;&gt;topo.command.pylabplot.matrixplot -->
<g id="edge46" class="edge"><title>topo.command.pylabplot.PylabPlotCommand&#45;&gt;topo.command.pylabplot.matrixplot</title>
<path fill="none" stroke="black" stroke-width="0.5" d="M992.141,-267.069C1026.51,-286.771 1106.83,-330.373 1180,-352 1192.23,-355.616 1205.31,-358.553 1218.31,-360.936"/>
<polygon fill="black" stroke="black" points="1218.25,-362.704 1223.48,-361.856 1218.87,-359.258 1218.25,-362.704"/>
</g>
<!-- topo.command.pylabplot.plot_modulation_ratio -->
<g id="node17" class="node"><title>topo.command.pylabplot.plot_modulation_ratio</title>
<polygon fill="none" stroke="black" stroke-width="0.5" points="1431,-343 1197,-343 1197,-323 1431,-323 1431,-343"/>
<text text-anchor="middle" x="1314" y="-330" font-family="Vera" font-size="10.00">topo.command.pylabplot.plot_modulation_ratio</text>
</g>
<!-- topo.command.pylabplot.PylabPlotCommand&#45;&gt;topo.command.pylabplot.plot_modulation_ratio -->
<g id="edge14" class="edge"><title>topo.command.pylabplot.PylabPlotCommand&#45;&gt;topo.command.pylabplot.plot_modulation_ratio</title>
<path fill="none" stroke="black" stroke-width="0.5" d="M1006.29,-267.076C1046.23,-279.616 1117.63,-300.964 1180,-314 1194.77,-317.088 1210.57,-319.822 1225.95,-322.186"/>
<polygon fill="black" stroke="black" points="1225.94,-323.955 1231.14,-322.974 1226.46,-320.494 1225.94,-323.955"/>
</g>
<!-- topo.command.pylabplot.overlaid_plots -->
<g id="node22" class="node"><title>topo.command.pylabplot.overlaid_plots</title>
<polygon fill="none" stroke="black" stroke-width="0.5" points="1412,-305 1216,-305 1216,-285 1412,-285 1412,-305"/>
<text text-anchor="middle" x="1314" y="-292" font-family="Vera" font-size="10.00">topo.command.pylabplot.overlaid_plots</text>
</g>
<!-- topo.command.pylabplot.PylabPlotCommand&#45;&gt;topo.command.pylabplot.overlaid_plots -->
<g id="edge18" class="edge"><title>topo.command.pylabplot.PylabPlotCommand&#45;&gt;topo.command.pylabplot.overlaid_plots</title>
<path fill="none" stroke="black" stroke-width="0.5" d="M1064.51,-267.034C1112.21,-272.38 1170.87,-278.956 1219.32,-284.387"/>
<polygon fill="black" stroke="black" points="1219.41,-286.158 1224.57,-284.976 1219.8,-282.68 1219.41,-286.158"/>
</g>
<!-- topo.command.pylabplot.matrixplot3d -->
<g id="node28" class="node"><title>topo.command.pylabplot.matrixplot3d</title>
<polygon fill="none" stroke="black" stroke-width="0.5" points="1410,-267 1218,-267 1218,-247 1410,-247 1410,-267"/>
<text text-anchor="middle" x="1314" y="-254" font-family="Vera" font-size="10.00">topo.command.pylabplot.matrixplot3d</text>
</g>
<!-- topo.command.pylabplot.PylabPlotCommand&#45;&gt;topo.command.pylabplot.matrixplot3d -->
<g id="edge24" class="edge"><title>topo.command.pylabplot.PylabPlotCommand&#45;&gt;topo.command.pylabplot.matrixplot3d</title>
<path fill="none" stroke="black" stroke-width="0.5" d="M1087.41,-257C1127.62,-257 1172.69,-257 1211.97,-257"/>
<polygon fill="black" stroke="black" points="1212.23,-258.75 1217.23,-257 1212.23,-255.25 1212.23,-258.75"/>
</g>
<!-- topo.command.pylabplot.plot_tracked_attributes -->
<g id="node32" class="node"><title>topo.command.pylabplot.plot_tracked_attributes</title>
<polygon fill="none" stroke="black" stroke-width="0.5" points="1432,-229 1196,-229 1196,-209 1432,-209 1432,-229"/>
<text text-anchor="middle" x="1314" y="-216" font-family="Vera" font-size="10.00">topo.command.pylabplot.plot_tracked_attributes</text>
</g>
<!-- topo.command.pylabplot.PylabPlotCommand&#45;&gt;topo.command.pylabplot.plot_tracked_attributes -->
<g id="edge28" class="edge"><title>topo.command.pylabplot.PylabPlotCommand&#45;&gt;topo.command.pylabplot.plot_tracked_attributes</title>
<path fill="none" stroke="black" stroke-width="0.5" d="M1064.51,-246.966C1112.21,-241.62 1170.87,-235.044 1219.32,-229.613"/>
<polygon fill="black" stroke="black" points="1219.8,-231.32 1224.57,-229.024 1219.41,-227.842 1219.8,-231.32"/>
</g>
<!-- topo.command.pylabplot.histogramplot -->
<g id="node34" class="node"><title>topo.command.pylabplot.histogramplot</title>
<polygon fill="none" stroke="black" stroke-width="0.5" points="1413,-191 1215,-191 1215,-171 1413,-171 1413,-191"/>
<text text-anchor="middle" x="1314" y="-178" font-family="Vera" font-size="10.00">topo.command.pylabplot.histogramplot</text>
</g>
<!-- topo.command.pylabplot.PylabPlotCommand&#45;&gt;topo.command.pylabplot.histogramplot -->
<g id="edge30" class="edge"><title>topo.command.pylabplot.PylabPlotCommand&#45;&gt;topo.command.pylabplot.histogramplot</title>
<path fill="none" stroke="black" stroke-width="0.5" d="M1006.29,-246.924C1046.23,-234.384 1117.63,-213.036 1180,-200 1194.77,-196.912 1210.57,-194.178 1225.95,-191.814"/>
<polygon fill="black" stroke="black" points="1226.46,-193.506 1231.14,-191.026 1225.94,-190.045 1226.46,-193.506"/>
</g>
<!-- topo.command.pylabplot.matrixplot3dx3 -->
<g id="node38" class="node"><title>topo.command.pylabplot.matrixplot3dx3</title>
<polygon fill="none" stroke="black" stroke-width="0.5" points="1415,-153 1213,-153 1213,-133 1415,-133 1415,-153"/>
<text text-anchor="middle" x="1314" y="-140" font-family="Vera" font-size="10.00">topo.command.pylabplot.matrixplot3dx3</text>
</g>
<!-- topo.command.pylabplot.PylabPlotCommand&#45;&gt;topo.command.pylabplot.matrixplot3dx3 -->
<g id="edge34" class="edge"><title>topo.command.pylabplot.PylabPlotCommand&#45;&gt;topo.command.pylabplot.matrixplot3dx3</title>
<path fill="none" stroke="black" stroke-width="0.5" d="M992.141,-246.931C1026.51,-227.229 1106.83,-183.627 1180,-162 1190.65,-158.852 1201.93,-156.219 1213.26,-154.018"/>
<polygon fill="black" stroke="black" points="1213.87,-155.683 1218.46,-153.037 1213.22,-152.244 1213.87,-155.683"/>
</g>
<!-- topo.command.pylabplot.vectorplot -->
<g id="node61" class="node"><title>topo.command.pylabplot.vectorplot</title>
<polygon fill="none" stroke="black" stroke-width="0.5" points="1404,-115 1224,-115 1224,-95 1404,-95 1404,-115"/>
<text text-anchor="middle" x="1314" y="-102" font-family="Vera" font-size="10.00">topo.command.pylabplot.vectorplot</text>
</g>
<!-- topo.command.pylabplot.PylabPlotCommand&#45;&gt;topo.command.pylabplot.vectorplot -->
<g id="edge60" class="edge"><title>topo.command.pylabplot.PylabPlotCommand&#45;&gt;topo.command.pylabplot.vectorplot</title>
<path fill="none" stroke="black" stroke-width="0.5" d="M986.469,-246.898C1016.09,-221.434 1098.55,-154.489 1180,-124 1192.35,-119.378 1205.72,-115.869 1219.07,-113.208"/>
<polygon fill="black" stroke="black" points="1219.41,-114.926 1223.99,-112.266 1218.75,-111.488 1219.41,-114.926"/>
</g>
<!-- param.parameterized.Parameterized -->
<g id="node9" class="node"><title>param.parameterized.Parameterized</title>
<polygon fill="none" stroke="black" stroke-width="0.5" points="184,-191 8.52651e-14,-191 0,-171 184,-171 184,-191"/>
<text text-anchor="middle" x="92" y="-178" font-family="Vera" font-size="10.00">param.parameterized.Parameterized</text>
</g>
<!-- param.parameterized.ParameterizedFunction -->
<g id="node26" class="node"><title>param.parameterized.ParameterizedFunction</title>
<polygon fill="none" stroke="black" stroke-width="0.5" points="443,-191 221,-191 221,-171 443,-171 443,-191"/>
<text text-anchor="middle" x="332" y="-178" font-family="Vera" font-size="10.00">param.parameterized.ParameterizedFunction</text>
</g>
<!-- param.parameterized.Parameterized&#45;&gt;param.parameterized.ParameterizedFunction -->
<g id="edge22" class="edge"><title>param.parameterized.Parameterized&#45;&gt;param.parameterized.ParameterizedFunction</title>
<path fill="none" stroke="black" stroke-width="0.5" d="M184.104,-181C194.328,-181 204.838,-181 215.314,-181"/>
<polygon fill="black" stroke="black" points="215.453,-182.75 220.453,-181 215.453,-179.25 215.453,-182.75"/>
</g>
<!-- topo.analysis.featureresponses.SinusoidalMeasureResponseCommand -->
<g id="node10" class="node"><title>topo.analysis.featureresponses.SinusoidalMeasureResponseCommand</title>
<polygon fill="none" stroke="black" stroke-width="0.5" points="1143,-77 807,-77 807,-57 1143,-57 1143,-77"/>
<text text-anchor="middle" x="975" y="-64" font-family="Vera" font-size="10.00">topo.analysis.featureresponses.SinusoidalMeasureResponseCommand</text>
</g>
<!-- topo.analysis.featureresponses.SinusoidalMeasureResponseCommand&#45;&gt;topo.analysis.featureresponses.FeatureCurveCommand -->
<g id="edge8" class="edge"><title>topo.analysis.featureresponses.SinusoidalMeasureResponseCommand&#45;&gt;topo.analysis.featureresponses.FeatureCurveCommand</title>
<path fill="none" stroke="black" stroke-width="0.5" d="M1143.51,-67C1153.93,-67 1164.36,-67 1174.64,-67"/>
<polygon fill="black" stroke="black" points="1174.67,-68.7501 1179.67,-67 1174.67,-65.2501 1174.67,-68.7501"/>
</g>
<!-- topo.command.pylabplot.activityplot -->
<g id="node14" class="node"><title>topo.command.pylabplot.activityplot</title>
<polygon fill="none" stroke="black" stroke-width="0.5" points="1705,-419 1523,-419 1523,-399 1705,-399 1705,-419"/>
<text text-anchor="middle" x="1614" y="-406" font-family="Vera" font-size="10.00">topo.command.pylabplot.activityplot</text>
</g>
<!-- topo.command.pylabplot.matrixplot&#45;&gt;topo.command.pylabplot.activityplot -->
<g id="edge12" class="edge"><title>topo.command.pylabplot.matrixplot&#45;&gt;topo.command.pylabplot.activityplot</title>
<path fill="none" stroke="black" stroke-width="0.5" d="M1393.21,-381.034C1435.25,-386.358 1486.91,-392.902 1529.69,-398.321"/>
<polygon fill="black" stroke="black" points="1529.68,-400.084 1534.86,-398.976 1530.12,-396.611 1529.68,-400.084"/>
</g>
<!-- topo.command.pylabplot.autocorrelationplot -->
<g id="node24" class="node"><title>topo.command.pylabplot.autocorrelationplot</title>
<polygon fill="none" stroke="black" stroke-width="0.5" points="1725,-381 1503,-381 1503,-361 1725,-361 1725,-381"/>
<text text-anchor="middle" x="1614" y="-368" font-family="Vera" font-size="10.00">topo.command.pylabplot.autocorrelationplot</text>
</g>
<!-- topo.command.pylabplot.matrixplot&#45;&gt;topo.command.pylabplot.autocorrelationplot -->
<g id="edge20" class="edge"><title>topo.command.pylabplot.matrixplot&#45;&gt;topo.command.pylabplot.autocorrelationplot</title>
<path fill="none" stroke="black" stroke-width="0.5" d="M1404.82,-371C1434.01,-371 1466.75,-371 1497.5,-371"/>
<polygon fill="black" stroke="black" points="1497.82,-372.75 1502.82,-371 1497.82,-369.25 1497.82,-372.75"/>
</g>
<!-- topo.command.pylabplot.fftplot -->
<g id="node51" class="node"><title>topo.command.pylabplot.fftplot</title>
<polygon fill="none" stroke="black" stroke-width="0.5" points="1695,-343 1533,-343 1533,-323 1695,-323 1695,-343"/>
<text text-anchor="middle" x="1614" y="-330" font-family="Vera" font-size="10.00">topo.command.pylabplot.fftplot</text>
</g>
<!-- topo.command.pylabplot.matrixplot&#45;&gt;topo.command.pylabplot.fftplot -->
<g id="edge48" class="edge"><title>topo.command.pylabplot.matrixplot&#45;&gt;topo.command.pylabplot.fftplot</title>
<path fill="none" stroke="black" stroke-width="0.5" d="M1393.21,-360.966C1435.25,-355.642 1486.91,-349.098 1529.69,-343.679"/>
<polygon fill="black" stroke="black" points="1530.12,-345.389 1534.86,-343.024 1529.68,-341.916 1530.12,-345.389"/>
</g>
<!-- topo.command.pylabplot.gradientplot -->
<g id="node58" class="node"><title>topo.command.pylabplot.gradientplot</title>
<polygon fill="none" stroke="black" stroke-width="0.5" points="1709,-305 1519,-305 1519,-285 1709,-285 1709,-305"/>
<text text-anchor="middle" x="1614" y="-292" font-family="Vera" font-size="10.00">topo.command.pylabplot.gradientplot</text>
</g>
<!-- topo.command.pylabplot.matrixplot&#45;&gt;topo.command.pylabplot.gradientplot -->
<g id="edge56" class="edge"><title>topo.command.pylabplot.matrixplot&#45;&gt;topo.command.pylabplot.gradientplot</title>
<path fill="none" stroke="black" stroke-width="0.5" d="M1404.51,-366.611C1419.58,-363.536 1434.64,-358.899 1448,-352 1468.67,-341.326 1463.35,-324.718 1484,-314 1493.31,-309.169 1503.47,-305.46 1513.87,-302.626"/>
<polygon fill="black" stroke="black" points="1514.59,-304.248 1518.99,-301.305 1513.71,-300.859 1514.59,-304.248"/>
</g>
<!-- topo.command.pylabplot.measure_position_pref -->
<g id="node19" class="node"><title>topo.command.pylabplot.measure_position_pref</title>
<polygon fill="none" stroke="black" stroke-width="0.5" points="1432,-39 1196,-39 1196,-19 1432,-19 1432,-39"/>
<text text-anchor="middle" x="1314" y="-26" font-family="Vera" font-size="10.00">topo.command.pylabplot.measure_position_pref</text>
</g>
<!-- topo.analysis.featureresponses.PositionMeasurementCommand -->
<g id="node20" class="node"><title>topo.analysis.featureresponses.PositionMeasurementCommand</title>
<polygon fill="none" stroke="black" stroke-width="0.5" points="1128,-39 822,-39 822,-19 1128,-19 1128,-39"/>
<text text-anchor="middle" x="975" y="-26" font-family="Vera" font-size="10.00">topo.analysis.featureresponses.PositionMeasurementCommand</text>
</g>
<!-- topo.analysis.featureresponses.PositionMeasurementCommand&#45;&gt;topo.command.pylabplot.measure_position_pref -->
<g id="edge16" class="edge"><title>topo.analysis.featureresponses.PositionMeasurementCommand&#45;&gt;topo.command.pylabplot.measure_position_pref</title>
<path fill="none" stroke="black" stroke-width="0.5" d="M1128.63,-29C1149.3,-29 1170.29,-29 1190.35,-29"/>
<polygon fill="black" stroke="black" points="1190.43,-30.7501 1195.43,-29 1190.43,-27.2501 1190.43,-30.7501"/>
</g>
<!-- topo.command.pylabplot.measure_cog -->
<g id="node30" class="node"><title>topo.command.pylabplot.measure_cog</title>
<polygon fill="none" stroke="black" stroke-width="0.5" points="721,-229 529,-229 529,-209 721,-209 721,-229"/>
<text text-anchor="middle" x="625" y="-216" font-family="Vera" font-size="10.00">topo.command.pylabplot.measure_cog</text>
</g>
<!-- param.parameterized.ParameterizedFunction&#45;&gt;topo.command.pylabplot.measure_cog -->
<g id="edge26" class="edge"><title>param.parameterized.ParameterizedFunction&#45;&gt;topo.command.pylabplot.measure_cog</title>
<path fill="none" stroke="black" stroke-width="0.5" d="M409.366,-191.034C450.422,-196.358 500.878,-202.902 542.658,-208.321"/>
<polygon fill="black" stroke="black" points="542.526,-210.068 547.709,-208.976 542.976,-206.597 542.526,-210.068"/>
</g>
<!-- topo.command.Command -->
<g id="node36" class="node"><title>topo.command.Command</title>
<polygon fill="none" stroke="black" stroke-width="0.5" points="693,-191 557,-191 557,-171 693,-171 693,-191"/>
<text text-anchor="middle" x="625" y="-178" font-family="Vera" font-size="10.00">topo.command.Command</text>
</g>
<!-- param.parameterized.ParameterizedFunction&#45;&gt;topo.command.Command -->
<g id="edge32" class="edge"><title>param.parameterized.ParameterizedFunction&#45;&gt;topo.command.Command</title>
<path fill="none" stroke="black" stroke-width="0.5" d="M443.607,-181C479.835,-181 519.086,-181 551.779,-181"/>
<polygon fill="black" stroke="black" points="551.969,-182.75 556.969,-181 551.968,-179.25 551.969,-182.75"/>
</g>
<!-- topo.analysis.featureresponses.MeasureResponseCommand -->
<g id="node42" class="node"><title>topo.analysis.featureresponses.MeasureResponseCommand</title>
<polygon fill="none" stroke="black" stroke-width="0.5" points="770,-77 480,-77 480,-57 770,-57 770,-77"/>
<text text-anchor="middle" x="625" y="-64" font-family="Vera" font-size="10.00">topo.analysis.featureresponses.MeasureResponseCommand</text>
</g>
<!-- param.parameterized.ParameterizedFunction&#45;&gt;topo.analysis.featureresponses.MeasureResponseCommand -->
<g id="edge38" class="edge"><title>param.parameterized.ParameterizedFunction&#45;&gt;topo.analysis.featureresponses.MeasureResponseCommand</title>
<path fill="none" stroke="black" stroke-width="0.5" d="M357.745,-170.983C411.668,-150.003 536.269,-101.523 594.268,-78.9571"/>
<polygon fill="black" stroke="black" points="594.974,-80.5605 598.999,-77.1165 593.704,-77.2987 594.974,-80.5605"/>
</g>
<!-- topo.command.Command&#45;&gt;topo.command.pylabplot.PylabPlotCommand -->
<g id="edge58" class="edge"><title>topo.command.Command&#45;&gt;topo.command.pylabplot.PylabPlotCommand</title>
<path fill="none" stroke="black" stroke-width="0.5" d="M693.194,-187.928C717.554,-190.931 745.121,-194.937 770,-200 830.177,-212.245 898.647,-232.624 939.262,-245.408"/>
<polygon fill="black" stroke="black" points="938.779,-247.091 944.074,-246.929 939.834,-243.754 938.779,-247.091"/>
</g>
<!-- topo.analysis.featureresponses.MeasureResponseCommand&#45;&gt;topo.analysis.featureresponses.SinusoidalMeasureResponseCommand -->
<g id="edge54" class="edge"><title>topo.analysis.featureresponses.MeasureResponseCommand&#45;&gt;topo.analysis.featureresponses.SinusoidalMeasureResponseCommand</title>
<path fill="none" stroke="black" stroke-width="0.5" d="M770.138,-67C780.394,-67 790.791,-67 801.182,-67"/>
<polygon fill="black" stroke="black" points="801.282,-68.7501 806.282,-67 801.282,-65.2501 801.282,-68.7501"/>
</g>
<!-- topo.analysis.featureresponses.MeasureResponseCommand&#45;&gt;topo.analysis.featureresponses.PositionMeasurementCommand -->
<g id="edge62" class="edge"><title>topo.analysis.featureresponses.MeasureResponseCommand&#45;&gt;topo.analysis.featureresponses.PositionMeasurementCommand</title>
<path fill="none" stroke="black" stroke-width="0.5" d="M717.416,-56.9662C766.759,-51.609 827.467,-45.0179 877.552,-39.5801"/>
<polygon fill="black" stroke="black" points="877.891,-41.3036 882.673,-39.024 877.514,-37.824 877.891,-41.3036"/>
</g>
</g>
</svg>
