<?xml version="1.0" encoding="UTF-8" standalone="no"?>
<!DOCTYPE svg PUBLIC "-//W3C//DTD SVG 1.1//EN"
 "http://www.w3.org/Graphics/SVG/1.1/DTD/svg11.dtd">
<!-- Generated by graphviz version 2.26.3 (20100126.1600)
 -->
<!-- Title: inheritancedfab4961fd Pages: 1 -->
<svg width="766pt" height="332pt"
 viewBox="0.00 0.00 766.00 332.00" xmlns="http://www.w3.org/2000/svg" xmlns:xlink="http://www.w3.org/1999/xlink">
<g id="graph1" class="graph" transform="scale(1 1) rotate(0) translate(4 328)">
<title>inheritancedfab4961fd</title>
<polygon fill="white" stroke="white" points="-4,5 -4,-328 763,-328 763,5 -4,5"/>
<!-- topo.base.simulation.EPConnection -->
<g id="node1" class="node"><title>topo.base.simulation.EPConnection</title>
<polygon fill="none" stroke="black" stroke-width="0.5" points="458,-96.5 272,-96.5 272,-75.5 458,-75.5 458,-96.5"/>
<text text-anchor="middle" x="365" y="-83.5" font-family="Vera" font-size="10.00">topo.base.simulation.EPConnection</text>
</g>
<!-- param.parameterized.Parameterized -->
<g id="node2" class="node"><title>param.parameterized.Parameterized</title>
<polygon fill="none" stroke="black" stroke-width="0.5" points="200,-77.5 6,-77.5 6,-56.5 200,-56.5 200,-77.5"/>
<text text-anchor="middle" x="103" y="-64.5" font-family="Vera" font-size="10.00">param.parameterized.Parameterized</text>
</g>
<!-- param.parameterized.Parameterized&#45;&gt;topo.base.simulation.EPConnection -->
<g id="edge2" class="edge"><title>param.parameterized.Parameterized&#45;&gt;topo.base.simulation.EPConnection</title>
<path fill="none" stroke="black" stroke-width="0.5" d="M200.187,-74.0479C221.893,-75.622 244.929,-77.2926 266.681,-78.87"/>
<polygon fill="black" stroke="black" points="266.772,-80.6311 271.886,-79.2474 267.026,-77.1403 266.772,-80.6311"/>
</g>
<!-- topo.base.simulation.Simulation -->
<g id="node19" class="node"><title>topo.base.simulation.Simulation</title>
<polygon fill="none" stroke="black" stroke-width="0.5" points="450,-134.5 280,-134.5 280,-113.5 450,-113.5 450,-134.5"/>
<text text-anchor="middle" x="365" y="-121.5" font-family="Vera" font-size="10.00">topo.base.simulation.Simulation</text>
</g>
<!-- param.parameterized.Parameterized&#45;&gt;topo.base.simulation.Simulation -->
<g id="edge22" class="edge"><title>param.parameterized.Parameterized&#45;&gt;topo.base.simulation.Simulation</title>
<path fill="none" stroke="black" stroke-width="0.5" d="M135.602,-77.0417C163.609,-85.3957 205.176,-97.149 242,-105 256.145,-108.016 271.301,-110.753 285.974,-113.152"/>
<polygon fill="black" stroke="black" points="285.714,-114.883 290.929,-113.953 286.272,-111.428 285.714,-114.883"/>
</g>
<!-- topo.base.simulation.SomeTimer -->
<g id="node22" class="node"><title>topo.base.simulation.SomeTimer</title>
<polygon fill="none" stroke="black" stroke-width="0.5" points="453,-58.5 277,-58.5 277,-37.5 453,-37.5 453,-58.5"/>
<text text-anchor="middle" x="365" y="-45.5" font-family="Vera" font-size="10.00">topo.base.simulation.SomeTimer</text>
</g>
<!-- param.parameterized.Parameterized&#45;&gt;topo.base.simulation.SomeTimer -->
<g id="edge18" class="edge"><title>param.parameterized.Parameterized&#45;&gt;topo.base.simulation.SomeTimer</title>
<path fill="none" stroke="black" stroke-width="0.5" d="M200.187,-59.9521C223.474,-58.2633 248.291,-56.4636 271.412,-54.7869"/>
<polygon fill="black" stroke="black" points="271.767,-56.5159 276.627,-54.4087 271.513,-53.0251 271.767,-56.5159"/>
</g>
<!-- topo.base.simulation.EventProcessor -->
<g id="node24" class="node"><title>topo.base.simulation.EventProcessor</title>
<polygon fill="none" stroke="black" stroke-width="0.5" points="462,-20.5 268,-20.5 268,0.5 462,0.5 462,-20.5"/>
<text text-anchor="middle" x="365" y="-7.5" font-family="Vera" font-size="10.00">topo.base.simulation.EventProcessor</text>
</g>
<!-- param.parameterized.Parameterized&#45;&gt;topo.base.simulation.EventProcessor -->
<g id="edge20" class="edge"><title>param.parameterized.Parameterized&#45;&gt;topo.base.simulation.EventProcessor</title>
<path fill="none" stroke="black" stroke-width="0.5" d="M135.602,-56.9583C163.609,-48.6043 205.176,-36.851 242,-29 256.145,-25.9843 271.301,-23.2467 285.974,-20.8479"/>
<polygon fill="black" stroke="black" points="286.272,-22.5725 290.929,-20.0475 285.714,-19.1173 286.272,-22.5725"/>
</g>
<!-- topo.base.simulation.FunctionEvent -->
<g id="node4" class="node"><title>topo.base.simulation.FunctionEvent</title>
<polygon fill="none" stroke="black" stroke-width="0.5" points="458,-286.5 272,-286.5 272,-265.5 458,-265.5 458,-286.5"/>
<text text-anchor="middle" x="365" y="-273.5" font-family="Vera" font-size="10.00">topo.base.simulation.FunctionEvent</text>
</g>
<!-- topo.base.simulation.Event -->
<g id="node5" class="node"><title>topo.base.simulation.Event</title>
<polygon fill="none" stroke="black" stroke-width="0.5" points="176,-229.5 30,-229.5 30,-208.5 176,-208.5 176,-229.5"/>
<text text-anchor="middle" x="103" y="-216.5" font-family="Vera" font-size="10.00">topo.base.simulation.Event</text>
</g>
<!-- topo.base.simulation.Event&#45;&gt;topo.base.simulation.FunctionEvent -->
<g id="edge4" class="edge"><title>topo.base.simulation.Event&#45;&gt;topo.base.simulation.FunctionEvent</title>
<path fill="none" stroke="black" stroke-width="0.5" d="M135.602,-229.042C163.609,-237.396 205.176,-249.149 242,-257 256.145,-260.016 271.301,-262.753 285.974,-265.152"/>
<polygon fill="black" stroke="black" points="285.714,-266.883 290.929,-265.953 286.272,-263.428 285.714,-266.883"/>
</g>
<!-- topo.base.simulation.CommandEvent -->
<g id="node10" class="node"><title>topo.base.simulation.CommandEvent</title>
<polygon fill="none" stroke="black" stroke-width="0.5" points="463,-248.5 267,-248.5 267,-227.5 463,-227.5 463,-248.5"/>
<text text-anchor="middle" x="365" y="-235.5" font-family="Vera" font-size="10.00">topo.base.simulation.CommandEvent</text>
</g>
<!-- topo.base.simulation.Event&#45;&gt;topo.base.simulation.CommandEvent -->
<g id="edge8" class="edge"><title>topo.base.simulation.Event&#45;&gt;topo.base.simulation.CommandEvent</title>
<path fill="none" stroke="black" stroke-width="0.5" d="M176.679,-224.343C202.896,-226.244 232.929,-228.422 261.195,-230.472"/>
<polygon fill="black" stroke="black" points="261.337,-232.237 266.451,-230.853 261.59,-228.746 261.337,-232.237"/>
</g>
<!-- topo.base.simulation.EventSequence -->
<g id="node14" class="node"><title>topo.base.simulation.EventSequence</title>
<polygon fill="none" stroke="black" stroke-width="0.5" points="462,-210.5 268,-210.5 268,-189.5 462,-189.5 462,-210.5"/>
<text text-anchor="middle" x="365" y="-197.5" font-family="Vera" font-size="10.00">topo.base.simulation.EventSequence</text>
</g>
<!-- topo.base.simulation.Event&#45;&gt;topo.base.simulation.EventSequence -->
<g id="edge16" class="edge"><title>topo.base.simulation.Event&#45;&gt;topo.base.simulation.EventSequence</title>
<path fill="none" stroke="black" stroke-width="0.5" d="M176.679,-213.657C203.181,-211.735 233.582,-209.53 262.116,-207.461"/>
<polygon fill="black" stroke="black" points="262.56,-209.184 267.421,-207.076 262.307,-205.693 262.56,-209.184"/>
</g>
<!-- topo.base.simulation.EPConnectionEvent -->
<g id="node16" class="node"><title>topo.base.simulation.EPConnectionEvent</title>
<polygon fill="none" stroke="black" stroke-width="0.5" points="471,-172.5 259,-172.5 259,-151.5 471,-151.5 471,-172.5"/>
<text text-anchor="middle" x="365" y="-159.5" font-family="Vera" font-size="10.00">topo.base.simulation.EPConnectionEvent</text>
</g>
<!-- topo.base.simulation.Event&#45;&gt;topo.base.simulation.EPConnectionEvent -->
<g id="edge12" class="edge"><title>topo.base.simulation.Event&#45;&gt;topo.base.simulation.EPConnectionEvent</title>
<path fill="none" stroke="black" stroke-width="0.5" d="M135.602,-208.958C163.609,-200.604 205.176,-188.851 242,-181 256.145,-177.984 271.301,-175.247 285.974,-172.848"/>
<polygon fill="black" stroke="black" points="286.272,-174.572 290.929,-172.047 285.714,-171.117 286.272,-174.572"/>
</g>
<!-- topo.base.simulation.EventProcessorParameter -->
<g id="node7" class="node"><title>topo.base.simulation.EventProcessorParameter</title>
<polygon fill="none" stroke="black" stroke-width="0.5" points="487,-324.5 243,-324.5 243,-303.5 487,-303.5 487,-324.5"/>
<text text-anchor="middle" x="365" y="-311.5" font-family="Vera" font-size="10.00">topo.base.simulation.EventProcessorParameter</text>
</g>
<!-- param.parameterized.Parameter -->
<g id="node8" class="node"><title>param.parameterized.Parameter</title>
<polygon fill="none" stroke="black" stroke-width="0.5" points="190,-324.5 16,-324.5 16,-303.5 190,-303.5 190,-324.5"/>
<text text-anchor="middle" x="103" y="-311.5" font-family="Vera" font-size="10.00">param.parameterized.Parameter</text>
</g>
<!-- param.parameterized.Parameter&#45;&gt;topo.base.simulation.EventProcessorParameter -->
<g id="edge6" class="edge"><title>param.parameterized.Parameter&#45;&gt;topo.base.simulation.EventProcessorParameter</title>
<path fill="none" stroke="black" stroke-width="0.5" d="M190.606,-314C205.575,-314 221.397,-314 237.157,-314"/>
<polygon fill="black" stroke="black" points="237.498,-315.75 242.498,-314 237.498,-312.25 237.498,-315.75"/>
</g>
<!-- topo.base.simulation.OptionalSingleton -->
<g id="node12" class="node"><title>topo.base.simulation.OptionalSingleton</title>
<polygon fill="none" stroke="black" stroke-width="0.5" points="205,-134.5 1,-134.5 1,-113.5 205,-113.5 205,-134.5"/>
<text text-anchor="middle" x="103" y="-121.5" font-family="Vera" font-size="10.00">topo.base.simulation.OptionalSingleton</text>
</g>
<!-- topo.base.simulation.OptionalSingleton&#45;&gt;topo.base.simulation.Simulation -->
<g id="edge24" class="edge"><title>topo.base.simulation.OptionalSingleton&#45;&gt;topo.base.simulation.Simulation</title>
<path fill="none" stroke="black" stroke-width="0.5" d="M205.797,-124C228.36,-124 252.094,-124 274.148,-124"/>
<polygon fill="black" stroke="black" points="274.418,-125.75 279.418,-124 274.418,-122.25 274.418,-125.75"/>
</g>
<!-- topo.base.simulation.PeriodicEventSequence -->
<g id="node13" class="node"><title>topo.base.simulation.PeriodicEventSequence</title>
<polygon fill="none" stroke="black" stroke-width="0.5" points="757,-210.5 525,-210.5 525,-189.5 757,-189.5 757,-210.5"/>
<text text-anchor="middle" x="641" y="-197.5" font-family="Vera" font-size="10.00">topo.base.simulation.PeriodicEventSequence</text>
</g>
<!-- topo.base.simulation.EventSequence&#45;&gt;topo.base.simulation.PeriodicEventSequence -->
<g id="edge10" class="edge"><title>topo.base.simulation.EventSequence&#45;&gt;topo.base.simulation.PeriodicEventSequence</title>
<path fill="none" stroke="black" stroke-width="0.5" d="M462.696,-200C480.839,-200 500.001,-200 518.769,-200"/>
<polygon fill="black" stroke="black" points="519.051,-201.75 524.051,-200 519.051,-198.25 519.051,-201.75"/>
</g>
<!-- topo.base.simulation.RealTimeSimulation -->
<g id="node18" class="node"><title>topo.base.simulation.RealTimeSimulation</title>
<polygon fill="none" stroke="black" stroke-width="0.5" points="748,-134.5 534,-134.5 534,-113.5 748,-113.5 748,-134.5"/>
<text text-anchor="middle" x="641" y="-121.5" font-family="Vera" font-size="10.00">topo.base.simulation.RealTimeSimulation</text>
</g>
<!-- topo.base.simulation.Simulation&#45;&gt;topo.base.simulation.RealTimeSimulation -->
<g id="edge14" class="edge"><title>topo.base.simulation.Simulation&#45;&gt;topo.base.simulation.RealTimeSimulation</title>
<path fill="none" stroke="black" stroke-width="0.5" d="M450.815,-124C475.442,-124 502.669,-124 528.64,-124"/>
<polygon fill="black" stroke="black" points="528.816,-125.75 533.816,-124 528.816,-122.25 528.816,-125.75"/>
</g>
</g>
</svg>
