<?xml version="1.0" encoding="UTF-8" standalone="no"?>
<!DOCTYPE svg PUBLIC "-//W3C//DTD SVG 1.1//EN"
 "http://www.w3.org/Graphics/SVG/1.1/DTD/svg11.dtd">
<!-- Generated by graphviz version 2.26.3 (20100126.1600)
 -->
<!-- Title: inheritance0f827376bc Pages: 1 -->
<svg width="2194pt" height="294pt"
 viewBox="0.00 0.00 2194.00 294.00" xmlns="http://www.w3.org/2000/svg" xmlns:xlink="http://www.w3.org/1999/xlink">
<g id="graph1" class="graph" transform="scale(1 1) rotate(0) translate(4 290)">
<title>inheritance0f827376bc</title>
<polygon fill="white" stroke="white" points="-4,5 -4,-290 2191,-290 2191,5 -4,5"/>
<!-- topo.analysis.featureresponses.measure_response -->
<g id="node1" class="node"><title>topo.analysis.featureresponses.measure_response</title>
<polygon fill="none" stroke="black" stroke-width="0.5" points="1147,-267.5 885,-267.5 885,-246.5 1147,-246.5 1147,-267.5"/>
<text text-anchor="middle" x="1016" y="-254.5" font-family="Vera" font-size="10.00">topo.analysis.featureresponses.measure_response</text>
</g>
<!-- topo.analysis.featureresponses.PatternPresentingCommand -->
<g id="node2" class="node"><title>topo.analysis.featureresponses.PatternPresentingCommand</title>
<polygon fill="none" stroke="black" stroke-width="0.5" points="825,-248.5 521,-248.5 521,-227.5 825,-227.5 825,-248.5"/>
<text text-anchor="middle" x="673" y="-235.5" font-family="Vera" font-size="10.00">topo.analysis.featureresponses.PatternPresentingCommand</text>
</g>
<!-- topo.analysis.featureresponses.PatternPresentingCommand&#45;&gt;topo.analysis.featureresponses.measure_response -->
<g id="edge2" class="edge"><title>topo.analysis.featureresponses.PatternPresentingCommand&#45;&gt;topo.analysis.featureresponses.measure_response</title>
<path fill="none" stroke="black" stroke-width="0.5" d="M825.942,-246.472C843.751,-247.458 861.83,-248.46 879.398,-249.433"/>
<polygon fill="black" stroke="black" points="879.744,-251.205 884.833,-249.734 879.938,-247.71 879.744,-251.205"/>
</g>
<!-- topo.analysis.featureresponses.MeasureResponseCommand -->
<g id="node15" class="node"><title>topo.analysis.featureresponses.MeasureResponseCommand</title>
<polygon fill="none" stroke="black" stroke-width="0.5" points="1169,-229.5 863,-229.5 863,-208.5 1169,-208.5 1169,-229.5"/>
<text text-anchor="middle" x="1016" y="-216.5" font-family="Vera" font-size="10.00">topo.analysis.featureresponses.MeasureResponseCommand</text>
</g>
<!-- topo.analysis.featureresponses.PatternPresentingCommand&#45;&gt;topo.analysis.featureresponses.MeasureResponseCommand -->
<g id="edge36" class="edge"><title>topo.analysis.featureresponses.PatternPresentingCommand&#45;&gt;topo.analysis.featureresponses.MeasureResponseCommand</title>
<path fill="none" stroke="black" stroke-width="0.5" d="M825.942,-229.528C836.305,-228.954 846.759,-228.375 857.151,-227.799"/>
<polygon fill="black" stroke="black" points="857.352,-229.541 862.247,-227.517 857.158,-226.046 857.352,-229.541"/>
</g>
<!-- topo.analysis.featureresponses.PatternPresenter -->
<g id="node4" class="node"><title>topo.analysis.featureresponses.PatternPresenter</title>
<polygon fill="none" stroke="black" stroke-width="0.5" points="482,-286.5 232,-286.5 232,-265.5 482,-265.5 482,-286.5"/>
<text text-anchor="middle" x="357" y="-273.5" font-family="Vera" font-size="10.00">topo.analysis.featureresponses.PatternPresenter</text>
</g>
<!-- param.parameterized.Parameterized -->
<g id="node5" class="node"><title>param.parameterized.Parameterized</title>
<polygon fill="none" stroke="black" stroke-width="0.5" points="194,-172.5 5.68434e-14,-172.5 0,-151.5 194,-151.5 194,-172.5"/>
<text text-anchor="middle" x="97" y="-159.5" font-family="Vera" font-size="10.00">param.parameterized.Parameterized</text>
</g>
<!-- param.parameterized.Parameterized&#45;&gt;topo.analysis.featureresponses.PatternPresenter -->
<g id="edge4" class="edge"><title>param.parameterized.Parameterized&#45;&gt;topo.analysis.featureresponses.PatternPresenter</title>
<path fill="none" stroke="black" stroke-width="0.5" d="M107.318,-172.077C128.386,-191.991 178.705,-236.251 230,-257 237.445,-260.012 245.31,-262.552 253.328,-264.694"/>
<polygon fill="black" stroke="black" points="253.06,-266.431 258.338,-265.976 253.929,-263.041 253.06,-266.431"/>
</g>
<!-- param.parameterized.ParameterizedFunction -->
<g id="node10" class="node"><title>param.parameterized.ParameterizedFunction</title>
<polygon fill="none" stroke="black" stroke-width="0.5" points="474,-248.5 240,-248.5 240,-227.5 474,-227.5 474,-248.5"/>
<text text-anchor="middle" x="357" y="-235.5" font-family="Vera" font-size="10.00">param.parameterized.ParameterizedFunction</text>
</g>
<!-- param.parameterized.Parameterized&#45;&gt;param.parameterized.ParameterizedFunction -->
<g id="edge22" class="edge"><title>param.parameterized.Parameterized&#45;&gt;param.parameterized.ParameterizedFunction</title>
<path fill="none" stroke="black" stroke-width="0.5" d="M116.253,-172.123C141.62,-185.018 187.951,-207.059 230,-219 241.071,-222.144 252.842,-224.793 264.58,-227.018"/>
<polygon fill="black" stroke="black" points="264.372,-228.759 269.607,-227.946 265.007,-225.317 264.372,-228.759"/>
</g>
<!-- topo.analysis.featureresponses.DistributionMatrix -->
<g id="node23" class="node"><title>topo.analysis.featureresponses.DistributionMatrix</title>
<polygon fill="none" stroke="black" stroke-width="0.5" points="484,-210.5 230,-210.5 230,-189.5 484,-189.5 484,-210.5"/>
<text text-anchor="middle" x="357" y="-197.5" font-family="Vera" font-size="10.00">topo.analysis.featureresponses.DistributionMatrix</text>
</g>
<!-- param.parameterized.Parameterized&#45;&gt;topo.analysis.featureresponses.DistributionMatrix -->
<g id="edge20" class="edge"><title>param.parameterized.Parameterized&#45;&gt;topo.analysis.featureresponses.DistributionMatrix</title>
<path fill="none" stroke="black" stroke-width="0.5" d="M165.652,-172.034C201.788,-177.315 246.13,-183.796 283.027,-189.189"/>
<polygon fill="black" stroke="black" points="283.214,-190.984 288.414,-189.976 283.72,-187.521 283.214,-190.984"/>
</g>
<!-- topo.analysis.featureresponses.Subplotting -->
<g id="node26" class="node"><title>topo.analysis.featureresponses.Subplotting</title>
<polygon fill="none" stroke="black" stroke-width="0.5" points="469,-172.5 245,-172.5 245,-151.5 469,-151.5 469,-172.5"/>
<text text-anchor="middle" x="357" y="-159.5" font-family="Vera" font-size="10.00">topo.analysis.featureresponses.Subplotting</text>
</g>
<!-- param.parameterized.Parameterized&#45;&gt;topo.analysis.featureresponses.Subplotting -->
<g id="edge24" class="edge"><title>param.parameterized.Parameterized&#45;&gt;topo.analysis.featureresponses.Subplotting</title>
<path fill="none" stroke="black" stroke-width="0.5" d="M194.184,-162C208.957,-162 224.335,-162 239.485,-162"/>
<polygon fill="black" stroke="black" points="239.613,-163.75 244.613,-162 239.613,-160.25 239.613,-163.75"/>
</g>
<!-- topo.analysis.featureresponses.FullMatrix -->
<g id="node30" class="node"><title>topo.analysis.featureresponses.FullMatrix</title>
<polygon fill="none" stroke="black" stroke-width="0.5" points="464,-134.5 250,-134.5 250,-113.5 464,-113.5 464,-134.5"/>
<text text-anchor="middle" x="357" y="-121.5" font-family="Vera" font-size="10.00">topo.analysis.featureresponses.FullMatrix</text>
</g>
<!-- param.parameterized.Parameterized&#45;&gt;topo.analysis.featureresponses.FullMatrix -->
<g id="edge28" class="edge"><title>param.parameterized.Parameterized&#45;&gt;topo.analysis.featureresponses.FullMatrix</title>
<path fill="none" stroke="black" stroke-width="0.5" d="M165.652,-151.966C201.788,-146.685 246.13,-140.204 283.027,-134.811"/>
<polygon fill="black" stroke="black" points="283.72,-136.479 288.414,-134.024 283.214,-133.016 283.72,-136.479"/>
</g>
<!-- topo.analysis.featureresponses.Feature -->
<g id="node32" class="node"><title>topo.analysis.featureresponses.Feature</title>
<polygon fill="none" stroke="black" stroke-width="0.5" points="460,-96.5 254,-96.5 254,-75.5 460,-75.5 460,-96.5"/>
<text text-anchor="middle" x="357" y="-83.5" font-family="Vera" font-size="10.00">topo.analysis.featureresponses.Feature</text>
</g>
<!-- param.parameterized.Parameterized&#45;&gt;topo.analysis.featureresponses.Feature -->
<g id="edge30" class="edge"><title>param.parameterized.Parameterized&#45;&gt;topo.analysis.featureresponses.Feature</title>
<path fill="none" stroke="black" stroke-width="0.5" d="M116.253,-151.877C141.62,-138.982 187.951,-116.941 230,-105 241.071,-101.856 252.842,-99.2072 264.58,-96.982"/>
<polygon fill="black" stroke="black" points="265.007,-98.6827 269.607,-96.054 264.372,-95.2409 265.007,-98.6827"/>
</g>
<!-- topo.base.functionfamily.PatternDrivenAnalysis -->
<g id="node34" class="node"><title>topo.base.functionfamily.PatternDrivenAnalysis</title>
<polygon fill="none" stroke="black" stroke-width="0.5" points="477,-58.5 237,-58.5 237,-37.5 477,-37.5 477,-58.5"/>
<text text-anchor="middle" x="357" y="-45.5" font-family="Vera" font-size="10.00">topo.base.functionfamily.PatternDrivenAnalysis</text>
</g>
<!-- param.parameterized.Parameterized&#45;&gt;topo.base.functionfamily.PatternDrivenAnalysis -->
<g id="edge34" class="edge"><title>param.parameterized.Parameterized&#45;&gt;topo.base.functionfamily.PatternDrivenAnalysis</title>
<path fill="none" stroke="black" stroke-width="0.5" d="M107.318,-151.923C128.386,-132.009 178.705,-87.7487 230,-67 237.445,-63.9885 245.31,-61.4483 253.328,-59.3064"/>
<polygon fill="black" stroke="black" points="253.929,-60.9592 258.338,-58.0236 253.06,-57.5686 253.929,-60.9592"/>
</g>
<!-- topo.analysis.featureresponses.FeatureMaps -->
<g id="node7" class="node"><title>topo.analysis.featureresponses.FeatureMaps</title>
<polygon fill="none" stroke="black" stroke-width="0.5" points="1131,-96.5 901,-96.5 901,-75.5 1131,-75.5 1131,-96.5"/>
<text text-anchor="middle" x="1016" y="-83.5" font-family="Vera" font-size="10.00">topo.analysis.featureresponses.FeatureMaps</text>
</g>
<!-- topo.analysis.featureresponses.FeatureResponses -->
<g id="node8" class="node"><title>topo.analysis.featureresponses.FeatureResponses</title>
<polygon fill="none" stroke="black" stroke-width="0.5" points="801,-58.5 545,-58.5 545,-37.5 801,-37.5 801,-58.5"/>
<text text-anchor="middle" x="673" y="-45.5" font-family="Vera" font-size="10.00">topo.analysis.featureresponses.FeatureResponses</text>
</g>
<!-- topo.analysis.featureresponses.FeatureResponses&#45;&gt;topo.analysis.featureresponses.FeatureMaps -->
<g id="edge6" class="edge"><title>topo.analysis.featureresponses.FeatureResponses&#45;&gt;topo.analysis.featureresponses.FeatureMaps</title>
<path fill="none" stroke="black" stroke-width="0.5" d="M763.568,-58.0338C811.924,-63.391 871.418,-69.9821 920.5,-75.4199"/>
<polygon fill="black" stroke="black" points="920.357,-77.1647 925.52,-75.976 920.743,-73.6859 920.357,-77.1647"/>
</g>
<!-- topo.analysis.featureresponses.ReverseCorrelation -->
<g id="node28" class="node"><title>topo.analysis.featureresponses.ReverseCorrelation</title>
<polygon fill="none" stroke="black" stroke-width="0.5" points="1146,-58.5 886,-58.5 886,-37.5 1146,-37.5 1146,-58.5"/>
<text text-anchor="middle" x="1016" y="-45.5" font-family="Vera" font-size="10.00">topo.analysis.featureresponses.ReverseCorrelation</text>
</g>
<!-- topo.analysis.featureresponses.FeatureResponses&#45;&gt;topo.analysis.featureresponses.ReverseCorrelation -->
<g id="edge26" class="edge"><title>topo.analysis.featureresponses.FeatureResponses&#45;&gt;topo.analysis.featureresponses.ReverseCorrelation</title>
<path fill="none" stroke="black" stroke-width="0.5" d="M801.696,-48C827.448,-48 854.575,-48 880.547,-48"/>
<polygon fill="black" stroke="black" points="880.726,-49.7501 885.726,-48 880.725,-46.2501 880.726,-49.7501"/>
</g>
<!-- topo.analysis.featureresponses.FeatureCurves -->
<g id="node38" class="node"><title>topo.analysis.featureresponses.FeatureCurves</title>
<polygon fill="none" stroke="black" stroke-width="0.5" points="1135,-20.5 897,-20.5 897,0.5 1135,0.5 1135,-20.5"/>
<text text-anchor="middle" x="1016" y="-7.5" font-family="Vera" font-size="10.00">topo.analysis.featureresponses.FeatureCurves</text>
</g>
<!-- topo.analysis.featureresponses.FeatureResponses&#45;&gt;topo.analysis.featureresponses.FeatureCurves -->
<g id="edge38" class="edge"><title>topo.analysis.featureresponses.FeatureResponses&#45;&gt;topo.analysis.featureresponses.FeatureCurves</title>
<path fill="none" stroke="black" stroke-width="0.5" d="M763.568,-37.9662C811.924,-32.609 871.418,-26.0179 920.5,-20.5801"/>
<polygon fill="black" stroke="black" points="920.743,-22.3141 925.52,-20.024 920.357,-18.8353 920.743,-22.3141"/>
</g>
<!-- param.parameterized.ParameterizedFunction&#45;&gt;topo.analysis.featureresponses.PatternPresentingCommand -->
<g id="edge8" class="edge"><title>param.parameterized.ParameterizedFunction&#45;&gt;topo.analysis.featureresponses.PatternPresentingCommand</title>
<path fill="none" stroke="black" stroke-width="0.5" d="M474.218,-238C487.593,-238 501.386,-238 515.178,-238"/>
<polygon fill="black" stroke="black" points="515.259,-239.75 520.259,-238 515.259,-236.25 515.259,-239.75"/>
</g>
<!-- topo.analysis.featureresponses.FeatureCurveCommand -->
<g id="node12" class="node"><title>topo.analysis.featureresponses.FeatureCurveCommand</title>
<polygon fill="none" stroke="black" stroke-width="0.5" points="1882,-267.5 1598,-267.5 1598,-246.5 1882,-246.5 1882,-267.5"/>
<text text-anchor="middle" x="1740" y="-254.5" font-family="Vera" font-size="10.00">topo.analysis.featureresponses.FeatureCurveCommand</text>
</g>
<!-- topo.analysis.featureresponses.UnitCurveCommand -->
<g id="node19" class="node"><title>topo.analysis.featureresponses.UnitCurveCommand</title>
<polygon fill="none" stroke="black" stroke-width="0.5" points="2185,-267.5 1919,-267.5 1919,-246.5 2185,-246.5 2185,-267.5"/>
<text text-anchor="middle" x="2052" y="-254.5" font-family="Vera" font-size="10.00">topo.analysis.featureresponses.UnitCurveCommand</text>
</g>
<!-- topo.analysis.featureresponses.FeatureCurveCommand&#45;&gt;topo.analysis.featureresponses.UnitCurveCommand -->
<g id="edge16" class="edge"><title>topo.analysis.featureresponses.FeatureCurveCommand&#45;&gt;topo.analysis.featureresponses.UnitCurveCommand</title>
<path fill="none" stroke="black" stroke-width="0.5" d="M1882.3,-257C1892.43,-257 1902.64,-257 1912.75,-257"/>
<polygon fill="black" stroke="black" points="1913.03,-258.75 1918.03,-257 1913.03,-255.25 1913.03,-258.75"/>
</g>
<!-- topo.analysis.featureresponses.SinusoidalMeasureResponseCommand -->
<g id="node13" class="node"><title>topo.analysis.featureresponses.SinusoidalMeasureResponseCommand</title>
<polygon fill="none" stroke="black" stroke-width="0.5" points="1562,-267.5 1206,-267.5 1206,-246.5 1562,-246.5 1562,-267.5"/>
<text text-anchor="middle" x="1384" y="-254.5" font-family="Vera" font-size="10.00">topo.analysis.featureresponses.SinusoidalMeasureResponseCommand</text>
</g>
<!-- topo.analysis.featureresponses.SinusoidalMeasureResponseCommand&#45;&gt;topo.analysis.featureresponses.FeatureCurveCommand -->
<g id="edge10" class="edge"><title>topo.analysis.featureresponses.SinusoidalMeasureResponseCommand&#45;&gt;topo.analysis.featureresponses.FeatureCurveCommand</title>
<path fill="none" stroke="black" stroke-width="0.5" d="M1562,-257C1572.21,-257 1582.43,-257 1592.51,-257"/>
<polygon fill="black" stroke="black" points="1592.76,-258.75 1597.76,-257 1592.76,-255.25 1592.76,-258.75"/>
</g>
<!-- topo.analysis.featureresponses.MeasureResponseCommand&#45;&gt;topo.analysis.featureresponses.SinusoidalMeasureResponseCommand -->
<g id="edge12" class="edge"><title>topo.analysis.featureresponses.MeasureResponseCommand&#45;&gt;topo.analysis.featureresponses.SinusoidalMeasureResponseCommand</title>
<path fill="none" stroke="black" stroke-width="0.5" d="M1113.17,-229.034C1165.15,-234.402 1229.14,-241.009 1281.86,-246.453"/>
<polygon fill="black" stroke="black" points="1281.77,-248.203 1286.93,-246.976 1282.13,-244.722 1281.77,-248.203"/>
</g>
<!-- topo.analysis.featureresponses.SingleInputResponseCommand -->
<g id="node17" class="node"><title>topo.analysis.featureresponses.SingleInputResponseCommand</title>
<polygon fill="none" stroke="black" stroke-width="0.5" points="1543,-229.5 1225,-229.5 1225,-208.5 1543,-208.5 1543,-229.5"/>
<text text-anchor="middle" x="1384" y="-216.5" font-family="Vera" font-size="10.00">topo.analysis.featureresponses.SingleInputResponseCommand</text>
</g>
<!-- topo.analysis.featureresponses.MeasureResponseCommand&#45;&gt;topo.analysis.featureresponses.SingleInputResponseCommand -->
<g id="edge14" class="edge"><title>topo.analysis.featureresponses.MeasureResponseCommand&#45;&gt;topo.analysis.featureresponses.SingleInputResponseCommand</title>
<path fill="none" stroke="black" stroke-width="0.5" d="M1169.67,-219C1186.01,-219 1202.68,-219 1219.14,-219"/>
<polygon fill="black" stroke="black" points="1219.25,-220.75 1224.25,-219 1219.25,-217.25 1219.25,-220.75"/>
</g>
<!-- topo.analysis.featureresponses.PositionMeasurementCommand -->
<g id="node21" class="node"><title>topo.analysis.featureresponses.PositionMeasurementCommand</title>
<polygon fill="none" stroke="black" stroke-width="0.5" points="1546,-191.5 1222,-191.5 1222,-170.5 1546,-170.5 1546,-191.5"/>
<text text-anchor="middle" x="1384" y="-178.5" font-family="Vera" font-size="10.00">topo.analysis.featureresponses.PositionMeasurementCommand</text>
</g>
<!-- topo.analysis.featureresponses.MeasureResponseCommand&#45;&gt;topo.analysis.featureresponses.PositionMeasurementCommand -->
<g id="edge18" class="edge"><title>topo.analysis.featureresponses.MeasureResponseCommand&#45;&gt;topo.analysis.featureresponses.PositionMeasurementCommand</title>
<path fill="none" stroke="black" stroke-width="0.5" d="M1113.17,-208.966C1165.15,-203.598 1229.14,-196.991 1281.86,-191.547"/>
<polygon fill="black" stroke="black" points="1282.13,-193.278 1286.93,-191.024 1281.77,-189.797 1282.13,-193.278"/>
</g>
<!-- topo.base.functionfamily.PatternDrivenAnalysis&#45;&gt;topo.analysis.featureresponses.FeatureResponses -->
<g id="edge32" class="edge"><title>topo.base.functionfamily.PatternDrivenAnalysis&#45;&gt;topo.analysis.featureresponses.FeatureResponses</title>
<path fill="none" stroke="black" stroke-width="0.5" d="M477.368,-48C497.547,-48 518.595,-48 539.09,-48"/>
<polygon fill="black" stroke="black" points="539.288,-49.7501 544.288,-48 539.288,-46.2501 539.288,-49.7501"/>
</g>
</g>
</svg>
