<?xml version="1.0" encoding="UTF-8" standalone="no"?>
<!DOCTYPE svg PUBLIC "-//W3C//DTD SVG 1.1//EN"
 "http://www.w3.org/Graphics/SVG/1.1/DTD/svg11.dtd">
<!-- Generated by graphviz version 2.26.3 (20100126.1600)
 -->
<!-- Title: inheritancebede3c61fc Pages: 1 -->
<svg width="2498pt" height="522pt"
 viewBox="0.00 0.00 2498.00 522.00" xmlns="http://www.w3.org/2000/svg" xmlns:xlink="http://www.w3.org/1999/xlink">
<g id="graph1" class="graph" transform="scale(1 1) rotate(0) translate(4 518)">
<title>inheritancebede3c61fc</title>
<polygon fill="white" stroke="white" points="-4,5 -4,-518 2495,-518 2495,5 -4,5"/>
<!-- topo.command.pylabplot.gradientplot -->
<g id="node1" class="node"><title>topo.command.pylabplot.gradientplot</title>
<polygon fill="none" stroke="black" stroke-width="0.5" points="1818,-514.5 1622,-514.5 1622,-493.5 1818,-493.5 1818,-514.5"/>
<text text-anchor="middle" x="1720" y="-501.5" font-family="Vera" font-size="10.00">topo.command.pylabplot.gradientplot</text>
</g>
<!-- topo.command.pylabplot.matrixplot -->
<g id="node2" class="node"><title>topo.command.pylabplot.matrixplot</title>
<polygon fill="none" stroke="black" stroke-width="0.5" points="1458,-457.5 1270,-457.5 1270,-436.5 1458,-436.5 1458,-457.5"/>
<text text-anchor="middle" x="1364" y="-444.5" font-family="Vera" font-size="10.00">topo.command.pylabplot.matrixplot</text>
</g>
<!-- topo.command.pylabplot.matrixplot&#45;&gt;topo.command.pylabplot.gradientplot -->
<g id="edge2" class="edge"><title>topo.command.pylabplot.matrixplot&#45;&gt;topo.command.pylabplot.gradientplot</title>
<path fill="none" stroke="black" stroke-width="0.5" d="M1417.1,-457.08C1460.34,-465.131 1523,-476.442 1578,-485 1596.53,-487.884 1616.47,-490.718 1635.37,-493.28"/>
<polygon fill="black" stroke="black" points="1635.49,-495.061 1640.68,-493.996 1635.96,-491.593 1635.49,-495.061"/>
</g>
<!-- topo.command.pylabplot.autocorrelationplot -->
<g id="node42" class="node"><title>topo.command.pylabplot.autocorrelationplot</title>
<polygon fill="none" stroke="black" stroke-width="0.5" points="1835,-476.5 1605,-476.5 1605,-455.5 1835,-455.5 1835,-476.5"/>
<text text-anchor="middle" x="1720" y="-463.5" font-family="Vera" font-size="10.00">topo.command.pylabplot.autocorrelationplot</text>
</g>
<!-- topo.command.pylabplot.matrixplot&#45;&gt;topo.command.pylabplot.autocorrelationplot -->
<g id="edge40" class="edge"><title>topo.command.pylabplot.matrixplot&#45;&gt;topo.command.pylabplot.autocorrelationplot</title>
<path fill="none" stroke="black" stroke-width="0.5" d="M1458,-452.017C1501.43,-454.335 1553.51,-457.115 1599.76,-459.583"/>
<polygon fill="black" stroke="black" points="1599.71,-461.332 1604.79,-459.851 1599.9,-457.837 1599.71,-461.332"/>
</g>
<!-- topo.command.pylabplot.fftplot -->
<g id="node45" class="node"><title>topo.command.pylabplot.fftplot</title>
<polygon fill="none" stroke="black" stroke-width="0.5" points="1803,-438.5 1637,-438.5 1637,-417.5 1803,-417.5 1803,-438.5"/>
<text text-anchor="middle" x="1720" y="-425.5" font-family="Vera" font-size="10.00">topo.command.pylabplot.fftplot</text>
</g>
<!-- topo.command.pylabplot.matrixplot&#45;&gt;topo.command.pylabplot.fftplot -->
<g id="edge44" class="edge"><title>topo.command.pylabplot.matrixplot&#45;&gt;topo.command.pylabplot.fftplot</title>
<path fill="none" stroke="black" stroke-width="0.5" d="M1458,-441.983C1511.68,-439.118 1578.59,-435.547 1631.36,-432.731"/>
<polygon fill="black" stroke="black" points="1631.52,-434.475 1636.42,-432.461 1631.33,-430.98 1631.52,-434.475"/>
</g>
<!-- topo.command.pylabplot.activityplot -->
<g id="node60" class="node"><title>topo.command.pylabplot.activityplot</title>
<polygon fill="none" stroke="black" stroke-width="0.5" points="1815,-400.5 1625,-400.5 1625,-379.5 1815,-379.5 1815,-400.5"/>
<text text-anchor="middle" x="1720" y="-387.5" font-family="Vera" font-size="10.00">topo.command.pylabplot.activityplot</text>
</g>
<!-- topo.command.pylabplot.matrixplot&#45;&gt;topo.command.pylabplot.activityplot -->
<g id="edge60" class="edge"><title>topo.command.pylabplot.matrixplot&#45;&gt;topo.command.pylabplot.activityplot</title>
<path fill="none" stroke="black" stroke-width="0.5" d="M1458.18,-443.639C1485.64,-440.876 1515.39,-436.113 1542,-428 1559.3,-422.723 1560.77,-414.507 1578,-409 1591.08,-404.819 1605.13,-401.558 1619.11,-399.014"/>
<polygon fill="black" stroke="black" points="1619.64,-400.699 1624.26,-398.109 1619.03,-397.251 1619.64,-400.699"/>
</g>
<!-- topo.command.pylabplot.topographic_grid -->
<g id="node4" class="node"><title>topo.command.pylabplot.topographic_grid</title>
<polygon fill="none" stroke="black" stroke-width="0.5" points="1474,-419.5 1254,-419.5 1254,-398.5 1474,-398.5 1474,-419.5"/>
<text text-anchor="middle" x="1364" y="-406.5" font-family="Vera" font-size="10.00">topo.command.pylabplot.topographic_grid</text>
</g>
<!-- topo.command.pylabplot.PylabPlotCommand -->
<g id="node5" class="node"><title>topo.command.pylabplot.PylabPlotCommand</title>
<polygon fill="none" stroke="black" stroke-width="0.5" points="1112,-267.5 880,-267.5 880,-246.5 1112,-246.5 1112,-267.5"/>
<text text-anchor="middle" x="996" y="-254.5" font-family="Vera" font-size="10.00">topo.command.pylabplot.PylabPlotCommand</text>
</g>
<!-- topo.command.pylabplot.PylabPlotCommand&#45;&gt;topo.command.pylabplot.matrixplot -->
<g id="edge32" class="edge"><title>topo.command.pylabplot.PylabPlotCommand&#45;&gt;topo.command.pylabplot.matrixplot</title>
<path fill="none" stroke="black" stroke-width="0.5" d="M1003.29,-267.021C1026.16,-297.555 1100.08,-389.673 1186,-428 1210.21,-438.801 1238.06,-444.513 1264.42,-447.329"/>
<polygon fill="black" stroke="black" points="1264.52,-449.098 1269.67,-447.854 1264.87,-445.615 1264.52,-449.098"/>
</g>
<!-- topo.command.pylabplot.PylabPlotCommand&#45;&gt;topo.command.pylabplot.topographic_grid -->
<g id="edge4" class="edge"><title>topo.command.pylabplot.PylabPlotCommand&#45;&gt;topo.command.pylabplot.topographic_grid</title>
<path fill="none" stroke="black" stroke-width="0.5" d="M1006.41,-267.284C1033.37,-293.173 1108.71,-361.036 1186,-390 1205.67,-397.37 1227.36,-402.173 1248.63,-405.251"/>
<polygon fill="black" stroke="black" points="1248.54,-407.005 1253.74,-405.958 1249.02,-403.538 1248.54,-407.005"/>
</g>
<!-- topo.command.pylabplot.matrixplot3d -->
<g id="node20" class="node"><title>topo.command.pylabplot.matrixplot3d</title>
<polygon fill="none" stroke="black" stroke-width="0.5" points="1464,-381.5 1264,-381.5 1264,-360.5 1464,-360.5 1464,-381.5"/>
<text text-anchor="middle" x="1364" y="-368.5" font-family="Vera" font-size="10.00">topo.command.pylabplot.matrixplot3d</text>
</g>
<!-- topo.command.pylabplot.PylabPlotCommand&#45;&gt;topo.command.pylabplot.matrixplot3d -->
<g id="edge16" class="edge"><title>topo.command.pylabplot.PylabPlotCommand&#45;&gt;topo.command.pylabplot.matrixplot3d</title>
<path fill="none" stroke="black" stroke-width="0.5" d="M1011.47,-267.167C1042.87,-287.244 1116.99,-331.781 1186,-352 1209.11,-358.771 1234.54,-363.183 1258.76,-366.045"/>
<polygon fill="black" stroke="black" points="1258.75,-367.805 1263.91,-366.633 1259.15,-364.327 1258.75,-367.805"/>
</g>
<!-- topo.command.pylabplot.plot_tracked_attributes -->
<g id="node22" class="node"><title>topo.command.pylabplot.plot_tracked_attributes</title>
<polygon fill="none" stroke="black" stroke-width="0.5" points="1489,-343.5 1239,-343.5 1239,-322.5 1489,-322.5 1489,-343.5"/>
<text text-anchor="middle" x="1364" y="-330.5" font-family="Vera" font-size="10.00">topo.command.pylabplot.plot_tracked_attributes</text>
</g>
<!-- topo.command.pylabplot.PylabPlotCommand&#45;&gt;topo.command.pylabplot.plot_tracked_attributes -->
<g id="edge18" class="edge"><title>topo.command.pylabplot.PylabPlotCommand&#45;&gt;topo.command.pylabplot.plot_tracked_attributes</title>
<path fill="none" stroke="black" stroke-width="0.5" d="M1023.6,-267.042C1060.21,-279.955 1127.09,-302.126 1186,-314 1202.29,-317.283 1219.54,-320.024 1236.64,-322.305"/>
<polygon fill="black" stroke="black" points="1236.75,-324.085 1241.94,-322.999 1237.21,-320.615 1236.75,-324.085"/>
</g>
<!-- topo.command.pylabplot.histogramplot -->
<g id="node26" class="node"><title>topo.command.pylabplot.histogramplot</title>
<polygon fill="none" stroke="black" stroke-width="0.5" points="1467,-305.5 1261,-305.5 1261,-284.5 1467,-284.5 1467,-305.5"/>
<text text-anchor="middle" x="1364" y="-292.5" font-family="Vera" font-size="10.00">topo.command.pylabplot.histogramplot</text>
</g>
<!-- topo.command.pylabplot.PylabPlotCommand&#45;&gt;topo.command.pylabplot.histogramplot -->
<g id="edge22" class="edge"><title>topo.command.pylabplot.PylabPlotCommand&#45;&gt;topo.command.pylabplot.histogramplot</title>
<path fill="none" stroke="black" stroke-width="0.5" d="M1093.17,-267.034C1145.15,-272.402 1209.14,-279.009 1261.86,-284.453"/>
<polygon fill="black" stroke="black" points="1261.77,-286.203 1266.93,-284.976 1262.13,-282.722 1261.77,-286.203"/>
</g>
<!-- topo.command.pylabplot.plot_modulation_ratio -->
<g id="node28" class="node"><title>topo.command.pylabplot.plot_modulation_ratio</title>
<polygon fill="none" stroke="black" stroke-width="0.5" points="1486,-267.5 1242,-267.5 1242,-246.5 1486,-246.5 1486,-267.5"/>
<text text-anchor="middle" x="1364" y="-254.5" font-family="Vera" font-size="10.00">topo.command.pylabplot.plot_modulation_ratio</text>
</g>
<!-- topo.command.pylabplot.PylabPlotCommand&#45;&gt;topo.command.pylabplot.plot_modulation_ratio -->
<g id="edge24" class="edge"><title>topo.command.pylabplot.PylabPlotCommand&#45;&gt;topo.command.pylabplot.plot_modulation_ratio</title>
<path fill="none" stroke="black" stroke-width="0.5" d="M1112.69,-257C1152.08,-257 1196.24,-257 1236.42,-257"/>
<polygon fill="black" stroke="black" points="1236.81,-258.75 1241.81,-257 1236.81,-255.25 1236.81,-258.75"/>
</g>
<!-- topo.command.pylabplot.tuning_curve -->
<g id="node30" class="node"><title>topo.command.pylabplot.tuning_curve</title>
<polygon fill="none" stroke="black" stroke-width="0.5" points="1464,-229.5 1264,-229.5 1264,-208.5 1464,-208.5 1464,-229.5"/>
<text text-anchor="middle" x="1364" y="-216.5" font-family="Vera" font-size="10.00">topo.command.pylabplot.tuning_curve</text>
</g>
<!-- topo.command.pylabplot.PylabPlotCommand&#45;&gt;topo.command.pylabplot.tuning_curve -->
<g id="edge26" class="edge"><title>topo.command.pylabplot.PylabPlotCommand&#45;&gt;topo.command.pylabplot.tuning_curve</title>
<path fill="none" stroke="black" stroke-width="0.5" d="M1093.17,-246.966C1145.15,-241.598 1209.14,-234.991 1261.86,-229.547"/>
<polygon fill="black" stroke="black" points="1262.13,-231.278 1266.93,-229.024 1261.77,-227.797 1262.13,-231.278"/>
</g>
<!-- topo.command.pylabplot.matrixplot3dx3 -->
<g id="node53" class="node"><title>topo.command.pylabplot.matrixplot3dx3</title>
<polygon fill="none" stroke="black" stroke-width="0.5" points="1470,-191.5 1258,-191.5 1258,-170.5 1470,-170.5 1470,-191.5"/>
<text text-anchor="middle" x="1364" y="-178.5" font-family="Vera" font-size="10.00">topo.command.pylabplot.matrixplot3dx3</text>
</g>
<!-- topo.command.pylabplot.PylabPlotCommand&#45;&gt;topo.command.pylabplot.matrixplot3dx3 -->
<g id="edge52" class="edge"><title>topo.command.pylabplot.PylabPlotCommand&#45;&gt;topo.command.pylabplot.matrixplot3dx3</title>
<path fill="none" stroke="black" stroke-width="0.5" d="M1023.6,-246.958C1060.21,-234.045 1127.09,-211.874 1186,-200 1207.38,-195.69 1230.42,-192.315 1252.6,-189.686"/>
<polygon fill="black" stroke="black" points="1252.86,-191.419 1257.62,-189.102 1252.45,-187.942 1252.86,-191.419"/>
</g>
<!-- topo.command.pylabplot.vectorplot -->
<g id="node56" class="node"><title>topo.command.pylabplot.vectorplot</title>
<polygon fill="none" stroke="black" stroke-width="0.5" points="1458,-153.5 1270,-153.5 1270,-132.5 1458,-132.5 1458,-153.5"/>
<text text-anchor="middle" x="1364" y="-140.5" font-family="Vera" font-size="10.00">topo.command.pylabplot.vectorplot</text>
</g>
<!-- topo.command.pylabplot.PylabPlotCommand&#45;&gt;topo.command.pylabplot.vectorplot -->
<g id="edge56" class="edge"><title>topo.command.pylabplot.PylabPlotCommand&#45;&gt;topo.command.pylabplot.vectorplot</title>
<path fill="none" stroke="black" stroke-width="0.5" d="M1011.47,-246.833C1042.87,-226.756 1116.99,-182.219 1186,-162 1211.02,-154.669 1238.77,-150.102 1264.76,-147.275"/>
<polygon fill="black" stroke="black" points="1265.14,-148.995 1269.93,-146.733 1264.78,-145.514 1265.14,-148.995"/>
</g>
<!-- topo.command.pylabplot.overlaid_plots -->
<g id="node58" class="node"><title>topo.command.pylabplot.overlaid_plots</title>
<polygon fill="none" stroke="black" stroke-width="0.5" points="1467,-115.5 1261,-115.5 1261,-94.5 1467,-94.5 1467,-115.5"/>
<text text-anchor="middle" x="1364" y="-102.5" font-family="Vera" font-size="10.00">topo.command.pylabplot.overlaid_plots</text>
</g>
<!-- topo.command.pylabplot.PylabPlotCommand&#45;&gt;topo.command.pylabplot.overlaid_plots -->
<g id="edge58" class="edge"><title>topo.command.pylabplot.PylabPlotCommand&#45;&gt;topo.command.pylabplot.overlaid_plots</title>
<path fill="none" stroke="black" stroke-width="0.5" d="M1006.41,-246.716C1033.37,-220.827 1108.71,-152.964 1186,-124 1207.87,-115.804 1232.24,-110.783 1255.76,-107.779"/>
<polygon fill="black" stroke="black" points="1256.01,-109.511 1260.76,-107.168 1255.59,-106.037 1256.01,-109.511"/>
</g>
<!-- topo.analysis.featureresponses.UnitCurveCommand -->
<g id="node7" class="node"><title>topo.analysis.featureresponses.UnitCurveCommand</title>
<polygon fill="none" stroke="black" stroke-width="0.5" points="2167,-96.5 1901,-96.5 1901,-75.5 2167,-75.5 2167,-96.5"/>
<text text-anchor="middle" x="2034" y="-83.5" font-family="Vera" font-size="10.00">topo.analysis.featureresponses.UnitCurveCommand</text>
</g>
<!-- topo.command.pylabplot.test_measure -->
<g id="node18" class="node"><title>topo.command.pylabplot.test_measure</title>
<polygon fill="none" stroke="black" stroke-width="0.5" points="2451,-172.5 2245,-172.5 2245,-151.5 2451,-151.5 2451,-172.5"/>
<text text-anchor="middle" x="2348" y="-159.5" font-family="Vera" font-size="10.00">topo.command.pylabplot.test_measure</text>
</g>
<!-- topo.analysis.featureresponses.UnitCurveCommand&#45;&gt;topo.command.pylabplot.test_measure -->
<g id="edge14" class="edge"><title>topo.analysis.featureresponses.UnitCurveCommand&#45;&gt;topo.command.pylabplot.test_measure</title>
<path fill="none" stroke="black" stroke-width="0.5" d="M2059.22,-96.0144C2092.37,-108.792 2152.66,-130.707 2206,-143 2219.71,-146.159 2234.29,-148.85 2248.69,-151.124"/>
<polygon fill="black" stroke="black" points="2248.77,-152.909 2253.98,-151.944 2249.31,-149.45 2248.77,-152.909"/>
</g>
<!-- topo.command.pylabplot.measure_size_response -->
<g id="node24" class="node"><title>topo.command.pylabplot.measure_size_response</title>
<polygon fill="none" stroke="black" stroke-width="0.5" points="2476,-134.5 2220,-134.5 2220,-113.5 2476,-113.5 2476,-134.5"/>
<text text-anchor="middle" x="2348" y="-121.5" font-family="Vera" font-size="10.00">topo.command.pylabplot.measure_size_response</text>
</g>
<!-- topo.analysis.featureresponses.UnitCurveCommand&#45;&gt;topo.command.pylabplot.measure_size_response -->
<g id="edge20" class="edge"><title>topo.analysis.featureresponses.UnitCurveCommand&#45;&gt;topo.command.pylabplot.measure_size_response</title>
<path fill="none" stroke="black" stroke-width="0.5" d="M2116.91,-96.0338C2161,-101.369 2215.2,-107.929 2260.03,-113.354"/>
<polygon fill="black" stroke="black" points="2260,-115.112 2265.17,-113.976 2260.42,-111.638 2260,-115.112"/>
</g>
<!-- topo.command.pylabplot.measure_orientation_contrast -->
<g id="node32" class="node"><title>topo.command.pylabplot.measure_orientation_contrast</title>
<polygon fill="none" stroke="black" stroke-width="0.5" points="2490,-96.5 2206,-96.5 2206,-75.5 2490,-75.5 2490,-96.5"/>
<text text-anchor="middle" x="2348" y="-83.5" font-family="Vera" font-size="10.00">topo.command.pylabplot.measure_orientation_contrast</text>
</g>
<!-- topo.analysis.featureresponses.UnitCurveCommand&#45;&gt;topo.command.pylabplot.measure_orientation_contrast -->
<g id="edge28" class="edge"><title>topo.analysis.featureresponses.UnitCurveCommand&#45;&gt;topo.command.pylabplot.measure_orientation_contrast</title>
<path fill="none" stroke="black" stroke-width="0.5" d="M2167.62,-86C2178.62,-86 2189.78,-86 2200.87,-86"/>
<polygon fill="black" stroke="black" points="2200.96,-87.7501 2205.96,-86 2200.96,-84.2501 2200.96,-87.7501"/>
</g>
<!-- topo.command.pylabplot.measure_or_tuning -->
<g id="node62" class="node"><title>topo.command.pylabplot.measure_or_tuning</title>
<polygon fill="none" stroke="black" stroke-width="0.5" points="2464,-58.5 2232,-58.5 2232,-37.5 2464,-37.5 2464,-58.5"/>
<text text-anchor="middle" x="2348" y="-45.5" font-family="Vera" font-size="10.00">topo.command.pylabplot.measure_or_tuning</text>
</g>
<!-- topo.analysis.featureresponses.UnitCurveCommand&#45;&gt;topo.command.pylabplot.measure_or_tuning -->
<g id="edge62" class="edge"><title>topo.analysis.featureresponses.UnitCurveCommand&#45;&gt;topo.command.pylabplot.measure_or_tuning</title>
<path fill="none" stroke="black" stroke-width="0.5" d="M2116.91,-75.9662C2161,-70.6307 2215.2,-64.0711 2260.03,-58.6461"/>
<polygon fill="black" stroke="black" points="2260.42,-60.3622 2265.17,-58.024 2260,-56.8875 2260.42,-60.3622"/>
</g>
<!-- topo.command.pylabplot.measure_contrast_response -->
<g id="node64" class="node"><title>topo.command.pylabplot.measure_contrast_response</title>
<polygon fill="none" stroke="black" stroke-width="0.5" points="2486,-20.5 2210,-20.5 2210,0.5 2486,0.5 2486,-20.5"/>
<text text-anchor="middle" x="2348" y="-7.5" font-family="Vera" font-size="10.00">topo.command.pylabplot.measure_contrast_response</text>
</g>
<!-- topo.analysis.featureresponses.UnitCurveCommand&#45;&gt;topo.command.pylabplot.measure_contrast_response -->
<g id="edge64" class="edge"><title>topo.analysis.featureresponses.UnitCurveCommand&#45;&gt;topo.command.pylabplot.measure_contrast_response</title>
<path fill="none" stroke="black" stroke-width="0.5" d="M2148.23,-75.9533C2155.78,-73.5009 2163.11,-70.5477 2170,-67 2190.68,-56.3476 2185.29,-39.5924 2206,-29 2211.36,-26.2573 2216.98,-23.8635 2222.76,-21.7772"/>
<polygon fill="black" stroke="black" points="2223.49,-23.3767 2227.65,-20.096 2222.35,-20.0668 2223.49,-23.3767"/>
</g>
<!-- topo.analysis.featureresponses.FeatureCurveCommand -->
<g id="node8" class="node"><title>topo.analysis.featureresponses.FeatureCurveCommand</title>
<polygon fill="none" stroke="black" stroke-width="0.5" points="1862,-77.5 1578,-77.5 1578,-56.5 1862,-56.5 1862,-77.5"/>
<text text-anchor="middle" x="1720" y="-64.5" font-family="Vera" font-size="10.00">topo.analysis.featureresponses.FeatureCurveCommand</text>
</g>
<!-- topo.analysis.featureresponses.FeatureCurveCommand&#45;&gt;topo.analysis.featureresponses.UnitCurveCommand -->
<g id="edge6" class="edge"><title>topo.analysis.featureresponses.FeatureCurveCommand&#45;&gt;topo.analysis.featureresponses.UnitCurveCommand</title>
<path fill="none" stroke="black" stroke-width="0.5" d="M1862.3,-75.6105C1873.28,-76.2747 1884.35,-76.9447 1895.3,-77.6074"/>
<polygon fill="black" stroke="black" points="1895.23,-79.356 1900.32,-77.9113 1895.44,-75.8624 1895.23,-79.356"/>
</g>
<!-- topo.command.pylabplot.measure_or_tuning_fullfield -->
<g id="node39" class="node"><title>topo.command.pylabplot.measure_or_tuning_fullfield</title>
<polygon fill="none" stroke="black" stroke-width="0.5" points="2169,-58.5 1899,-58.5 1899,-37.5 2169,-37.5 2169,-58.5"/>
<text text-anchor="middle" x="2034" y="-45.5" font-family="Vera" font-size="10.00">topo.command.pylabplot.measure_or_tuning_fullfield</text>
</g>
<!-- topo.analysis.featureresponses.FeatureCurveCommand&#45;&gt;topo.command.pylabplot.measure_or_tuning_fullfield -->
<g id="edge36" class="edge"><title>topo.analysis.featureresponses.FeatureCurveCommand&#45;&gt;topo.command.pylabplot.measure_or_tuning_fullfield</title>
<path fill="none" stroke="black" stroke-width="0.5" d="M1862.3,-58.3895C1872.62,-57.7651 1883.02,-57.1355 1893.33,-56.5117"/>
<polygon fill="black" stroke="black" points="1893.5,-58.2548 1898.39,-56.2059 1893.29,-54.7612 1893.5,-58.2548"/>
</g>
<!-- topo.analysis.featureresponses.SinusoidalMeasureResponseCommand -->
<g id="node10" class="node"><title>topo.analysis.featureresponses.SinusoidalMeasureResponseCommand</title>
<polygon fill="none" stroke="black" stroke-width="0.5" points="1542,-77.5 1186,-77.5 1186,-56.5 1542,-56.5 1542,-77.5"/>
<text text-anchor="middle" x="1364" y="-64.5" font-family="Vera" font-size="10.00">topo.analysis.featureresponses.SinusoidalMeasureResponseCommand</text>
</g>
<!-- topo.analysis.featureresponses.SinusoidalMeasureResponseCommand&#45;&gt;topo.analysis.featureresponses.FeatureCurveCommand -->
<g id="edge54" class="edge"><title>topo.analysis.featureresponses.SinusoidalMeasureResponseCommand&#45;&gt;topo.analysis.featureresponses.FeatureCurveCommand</title>
<path fill="none" stroke="black" stroke-width="0.5" d="M1542,-67C1552.21,-67 1562.43,-67 1572.51,-67"/>
<polygon fill="black" stroke="black" points="1572.76,-68.7501 1577.76,-67 1572.76,-65.2501 1572.76,-68.7501"/>
</g>
<!-- topo.analysis.featureresponses.MeasureResponseCommand -->
<g id="node11" class="node"><title>topo.analysis.featureresponses.MeasureResponseCommand</title>
<polygon fill="none" stroke="black" stroke-width="0.5" points="1149,-77.5 843,-77.5 843,-56.5 1149,-56.5 1149,-77.5"/>
<text text-anchor="middle" x="996" y="-64.5" font-family="Vera" font-size="10.00">topo.analysis.featureresponses.MeasureResponseCommand</text>
</g>
<!-- topo.analysis.featureresponses.MeasureResponseCommand&#45;&gt;topo.analysis.featureresponses.SinusoidalMeasureResponseCommand -->
<g id="edge8" class="edge"><title>topo.analysis.featureresponses.MeasureResponseCommand&#45;&gt;topo.analysis.featureresponses.SinusoidalMeasureResponseCommand</title>
<path fill="none" stroke="black" stroke-width="0.5" d="M1149.67,-67C1159.91,-67 1170.29,-67 1180.66,-67"/>
<polygon fill="black" stroke="black" points="1180.75,-68.7501 1185.75,-67 1180.75,-65.2501 1180.75,-68.7501"/>
</g>
<!-- topo.analysis.featureresponses.PositionMeasurementCommand -->
<g id="node14" class="node"><title>topo.analysis.featureresponses.PositionMeasurementCommand</title>
<polygon fill="none" stroke="black" stroke-width="0.5" points="1526,-39.5 1202,-39.5 1202,-18.5 1526,-18.5 1526,-39.5"/>
<text text-anchor="middle" x="1364" y="-26.5" font-family="Vera" font-size="10.00">topo.analysis.featureresponses.PositionMeasurementCommand</text>
</g>
<!-- topo.analysis.featureresponses.MeasureResponseCommand&#45;&gt;topo.analysis.featureresponses.PositionMeasurementCommand -->
<g id="edge10" class="edge"><title>topo.analysis.featureresponses.MeasureResponseCommand&#45;&gt;topo.analysis.featureresponses.PositionMeasurementCommand</title>
<path fill="none" stroke="black" stroke-width="0.5" d="M1093.17,-56.9662C1145.15,-51.5982 1209.14,-44.9912 1261.86,-39.5472"/>
<polygon fill="black" stroke="black" points="1262.13,-41.2785 1266.93,-39.024 1261.77,-37.797 1262.13,-41.2785"/>
</g>
<!-- param.parameterized.Parameterized -->
<g id="node13" class="node"><title>param.parameterized.Parameterized</title>
<polygon fill="none" stroke="black" stroke-width="0.5" points="194,-115.5 5.68434e-14,-115.5 0,-94.5 194,-94.5 194,-115.5"/>
<text text-anchor="middle" x="97" y="-102.5" font-family="Vera" font-size="10.00">param.parameterized.Parameterized</text>
</g>
<!-- param.parameterized.ParameterizedFunction -->
<g id="node16" class="node"><title>param.parameterized.ParameterizedFunction</title>
<polygon fill="none" stroke="black" stroke-width="0.5" points="464,-115.5 230,-115.5 230,-94.5 464,-94.5 464,-115.5"/>
<text text-anchor="middle" x="347" y="-102.5" font-family="Vera" font-size="10.00">param.parameterized.ParameterizedFunction</text>
</g>
<!-- param.parameterized.Parameterized&#45;&gt;param.parameterized.ParameterizedFunction -->
<g id="edge12" class="edge"><title>param.parameterized.Parameterized&#45;&gt;param.parameterized.ParameterizedFunction</title>
<path fill="none" stroke="black" stroke-width="0.5" d="M194.014,-105C204.04,-105 214.319,-105 224.575,-105"/>
<polygon fill="black" stroke="black" points="224.607,-106.75 229.607,-105 224.607,-103.25 224.607,-106.75"/>
</g>
<!-- topo.command.pylabplot.measure_position_pref -->
<g id="node51" class="node"><title>topo.command.pylabplot.measure_position_pref</title>
<polygon fill="none" stroke="black" stroke-width="0.5" points="1844,-39.5 1596,-39.5 1596,-18.5 1844,-18.5 1844,-39.5"/>
<text text-anchor="middle" x="1720" y="-26.5" font-family="Vera" font-size="10.00">topo.command.pylabplot.measure_position_pref</text>
</g>
<!-- topo.analysis.featureresponses.PositionMeasurementCommand&#45;&gt;topo.command.pylabplot.measure_position_pref -->
<g id="edge50" class="edge"><title>topo.analysis.featureresponses.PositionMeasurementCommand&#45;&gt;topo.command.pylabplot.measure_position_pref</title>
<path fill="none" stroke="black" stroke-width="0.5" d="M1526.11,-29C1547.52,-29 1569.23,-29 1590,-29"/>
<polygon fill="black" stroke="black" points="1590.26,-30.7501 1595.26,-29 1590.26,-27.2501 1590.26,-30.7501"/>
</g>
<!-- topo.command.Command -->
<g id="node34" class="node"><title>topo.command.Command</title>
<polygon fill="none" stroke="black" stroke-width="0.5" points="724,-229.5 582,-229.5 582,-208.5 724,-208.5 724,-229.5"/>
<text text-anchor="middle" x="653" y="-216.5" font-family="Vera" font-size="10.00">topo.command.Command</text>
</g>
<!-- param.parameterized.ParameterizedFunction&#45;&gt;topo.command.Command -->
<g id="edge42" class="edge"><title>param.parameterized.ParameterizedFunction&#45;&gt;topo.command.Command</title>
<path fill="none" stroke="black" stroke-width="0.5" d="M373.887,-115.017C430.202,-135.997 560.332,-184.477 620.905,-207.043"/>
<polygon fill="black" stroke="black" points="620.549,-208.778 625.845,-208.883 621.771,-205.498 620.549,-208.778"/>
</g>
<!-- topo.analysis.featureresponses.PatternPresentingCommand -->
<g id="node37" class="node"><title>topo.analysis.featureresponses.PatternPresentingCommand</title>
<polygon fill="none" stroke="black" stroke-width="0.5" points="805,-115.5 501,-115.5 501,-94.5 805,-94.5 805,-115.5"/>
<text text-anchor="middle" x="653" y="-102.5" font-family="Vera" font-size="10.00">topo.analysis.featureresponses.PatternPresentingCommand</text>
</g>
<!-- param.parameterized.ParameterizedFunction&#45;&gt;topo.analysis.featureresponses.PatternPresentingCommand -->
<g id="edge38" class="edge"><title>param.parameterized.ParameterizedFunction&#45;&gt;topo.analysis.featureresponses.PatternPresentingCommand</title>
<path fill="none" stroke="black" stroke-width="0.5" d="M464.432,-105C474.571,-105 484.931,-105 495.319,-105"/>
<polygon fill="black" stroke="black" points="495.42,-106.75 500.42,-105 495.42,-103.25 495.42,-106.75"/>
</g>
<!-- topo.command.pylabplot.measure_cog -->
<g id="node47" class="node"><title>topo.command.pylabplot.measure_cog</title>
<polygon fill="none" stroke="black" stroke-width="0.5" points="755,-77.5 551,-77.5 551,-56.5 755,-56.5 755,-77.5"/>
<text text-anchor="middle" x="653" y="-64.5" font-family="Vera" font-size="10.00">topo.command.pylabplot.measure_cog</text>
</g>
<!-- param.parameterized.ParameterizedFunction&#45;&gt;topo.command.pylabplot.measure_cog -->
<g id="edge46" class="edge"><title>param.parameterized.ParameterizedFunction&#45;&gt;topo.command.pylabplot.measure_cog</title>
<path fill="none" stroke="black" stroke-width="0.5" d="M427.798,-94.9662C470.763,-89.6307 523.585,-83.0711 567.271,-77.6461"/>
<polygon fill="black" stroke="black" points="567.534,-79.377 572.28,-77.024 567.102,-75.9037 567.534,-79.377"/>
</g>
<!-- topo.command.pylabplot.cyclic_tuning_curve -->
<g id="node49" class="node"><title>topo.command.pylabplot.cyclic_tuning_curve</title>
<polygon fill="none" stroke="black" stroke-width="0.5" points="1836,-229.5 1604,-229.5 1604,-208.5 1836,-208.5 1836,-229.5"/>
<text text-anchor="middle" x="1720" y="-216.5" font-family="Vera" font-size="10.00">topo.command.pylabplot.cyclic_tuning_curve</text>
</g>
<!-- topo.command.pylabplot.tuning_curve&#45;&gt;topo.command.pylabplot.cyclic_tuning_curve -->
<g id="edge48" class="edge"><title>topo.command.pylabplot.tuning_curve&#45;&gt;topo.command.pylabplot.cyclic_tuning_curve</title>
<path fill="none" stroke="black" stroke-width="0.5" d="M1464.59,-219C1506.36,-219 1555.2,-219 1598.92,-219"/>
<polygon fill="black" stroke="black" points="1598.95,-220.75 1603.95,-219 1598.95,-217.25 1598.95,-220.75"/>
</g>
<!-- topo.command.Command&#45;&gt;topo.command.pylabplot.PylabPlotCommand -->
<g id="edge30" class="edge"><title>topo.command.Command&#45;&gt;topo.command.pylabplot.PylabPlotCommand</title>
<path fill="none" stroke="black" stroke-width="0.5" d="M724.904,-226.966C775.913,-232.617 844.91,-240.261 900.531,-246.423"/>
<polygon fill="black" stroke="black" points="900.367,-248.166 905.529,-246.977 900.753,-244.687 900.367,-248.166"/>
</g>
<!-- topo.analysis.featureresponses.PatternPresentingCommand&#45;&gt;topo.analysis.featureresponses.MeasureResponseCommand -->
<g id="edge34" class="edge"><title>topo.analysis.featureresponses.PatternPresentingCommand&#45;&gt;topo.analysis.featureresponses.MeasureResponseCommand</title>
<path fill="none" stroke="black" stroke-width="0.5" d="M743.568,-94.9662C791.924,-89.609 851.418,-83.0179 900.5,-77.5801"/>
<polygon fill="black" stroke="black" points="900.743,-79.3141 905.52,-77.024 900.357,-75.8353 900.743,-79.3141"/>
</g>
</g>
</svg>
