<?xml version="1.0" encoding="UTF-8" standalone="no"?>
<!DOCTYPE svg PUBLIC "-//W3C//DTD SVG 1.1//EN"
 "http://www.w3.org/Graphics/SVG/1.1/DTD/svg11.dtd">
<!-- Generated by graphviz version 2.26.3 (20100126.1600)
 -->
<!-- Title: inheritancebe3ab90ace Pages: 1 -->
<svg width="984pt" height="474pt"
 viewBox="0.00 0.00 984.00 474.00" xmlns="http://www.w3.org/2000/svg" xmlns:xlink="http://www.w3.org/1999/xlink">
<g id="graph1" class="graph" transform="scale(1 1) rotate(0) translate(4 470)">
<title>inheritancebe3ab90ace</title>
<polygon fill="white" stroke="white" points="-4,5 -4,-470 981,-470 981,5 -4,5"/>
<!-- topo.coordmapper.OttesSCMotorMapper -->
<g id="node1" class="node"><title>topo.coordmapper.OttesSCMotorMapper</title>
<polygon fill="none" stroke="black" stroke-width="0.5" points="975,-466.5 763,-466.5 763,-445.5 975,-445.5 975,-466.5"/>
<text text-anchor="middle" x="869" y="-453.5" font-family="Vera" font-size="10.00">topo.coordmapper.OttesSCMotorMapper</text>
</g>
<!-- topo.coordmapper.OttesSCMapper -->
<g id="node2" class="node"><title>topo.coordmapper.OttesSCMapper</title>
<polygon fill="none" stroke="black" stroke-width="0.5" points="706,-428.5 522,-428.5 522,-407.5 706,-407.5 706,-428.5"/>
<text text-anchor="middle" x="614" y="-415.5" font-family="Vera" font-size="10.00">topo.coordmapper.OttesSCMapper</text>
</g>
<!-- topo.coordmapper.OttesSCMapper&#45;&gt;topo.coordmapper.OttesSCMotorMapper -->
<g id="edge2" class="edge"><title>topo.coordmapper.OttesSCMapper&#45;&gt;topo.coordmapper.OttesSCMotorMapper</title>
<path fill="none" stroke="black" stroke-width="0.5" d="M681.332,-428.034C716.773,-433.315 760.262,-439.796 796.449,-445.189"/>
<polygon fill="black" stroke="black" points="796.53,-446.97 801.733,-445.976 797.046,-443.508 796.53,-446.97"/>
</g>
<!-- topo.coordmapper.OttesSCSenseMapper -->
<g id="node31" class="node"><title>topo.coordmapper.OttesSCSenseMapper</title>
<polygon fill="none" stroke="black" stroke-width="0.5" points="976,-428.5 762,-428.5 762,-407.5 976,-407.5 976,-428.5"/>
<text text-anchor="middle" x="869" y="-415.5" font-family="Vera" font-size="10.00">topo.coordmapper.OttesSCSenseMapper</text>
</g>
<!-- topo.coordmapper.OttesSCMapper&#45;&gt;topo.coordmapper.OttesSCSenseMapper -->
<g id="edge30" class="edge"><title>topo.coordmapper.OttesSCMapper&#45;&gt;topo.coordmapper.OttesSCSenseMapper</title>
<path fill="none" stroke="black" stroke-width="0.5" d="M706.061,-418C722.48,-418 739.751,-418 756.661,-418"/>
<polygon fill="black" stroke="black" points="756.896,-419.75 761.896,-418 756.896,-416.25 756.896,-419.75"/>
</g>
<!-- topo.coordmapper.Scale2d -->
<g id="node4" class="node"><title>topo.coordmapper.Scale2d</title>
<polygon fill="none" stroke="black" stroke-width="0.5" points="942,-390.5 796,-390.5 796,-369.5 942,-369.5 942,-390.5"/>
<text text-anchor="middle" x="869" y="-377.5" font-family="Vera" font-size="10.00">topo.coordmapper.Scale2d</text>
</g>
<!-- topo.coordmapper.AffineTransform -->
<g id="node5" class="node"><title>topo.coordmapper.AffineTransform</title>
<polygon fill="none" stroke="black" stroke-width="0.5" points="705,-343.5 523,-343.5 523,-322.5 705,-322.5 705,-343.5"/>
<text text-anchor="middle" x="614" y="-330.5" font-family="Vera" font-size="10.00">topo.coordmapper.AffineTransform</text>
</g>
<!-- topo.coordmapper.AffineTransform&#45;&gt;topo.coordmapper.Scale2d -->
<g id="edge4" class="edge"><title>topo.coordmapper.AffineTransform&#45;&gt;topo.coordmapper.Scale2d</title>
<path fill="none" stroke="black" stroke-width="0.5" d="M666.372,-343.057C694.673,-348.454 730.234,-355.175 762,-361 776.505,-363.66 792.128,-366.467 806.833,-369.083"/>
<polygon fill="black" stroke="black" points="806.553,-370.811 811.782,-369.962 807.166,-367.364 806.553,-370.811"/>
</g>
<!-- topo.coordmapper.Rotate2d -->
<g id="node11" class="node"><title>topo.coordmapper.Rotate2d</title>
<polygon fill="none" stroke="black" stroke-width="0.5" points="944,-352.5 794,-352.5 794,-331.5 944,-331.5 944,-352.5"/>
<text text-anchor="middle" x="869" y="-339.5" font-family="Vera" font-size="10.00">topo.coordmapper.Rotate2d</text>
</g>
<!-- topo.coordmapper.AffineTransform&#45;&gt;topo.coordmapper.Rotate2d -->
<g id="edge8" class="edge"><title>topo.coordmapper.AffineTransform&#45;&gt;topo.coordmapper.Rotate2d</title>
<path fill="none" stroke="black" stroke-width="0.5" d="M705.341,-336.224C732.404,-337.179 761.837,-338.218 788.184,-339.148"/>
<polygon fill="black" stroke="black" points="788.352,-340.905 793.411,-339.332 788.476,-337.407 788.352,-340.905"/>
</g>
<!-- topo.coordmapper.Translate2d -->
<g id="node13" class="node"><title>topo.coordmapper.Translate2d</title>
<polygon fill="none" stroke="black" stroke-width="0.5" points="950,-314.5 788,-314.5 788,-293.5 950,-293.5 950,-314.5"/>
<text text-anchor="middle" x="869" y="-301.5" font-family="Vera" font-size="10.00">topo.coordmapper.Translate2d</text>
</g>
<!-- topo.coordmapper.AffineTransform&#45;&gt;topo.coordmapper.Translate2d -->
<g id="edge10" class="edge"><title>topo.coordmapper.AffineTransform&#45;&gt;topo.coordmapper.Translate2d</title>
<path fill="none" stroke="black" stroke-width="0.5" d="M702.114,-322.979C728.026,-320.032 756.345,-316.812 782.177,-313.874"/>
<polygon fill="black" stroke="black" points="782.538,-315.594 787.308,-313.29 782.142,-312.117 782.538,-315.594"/>
</g>
<!-- topo.coordmapper.ReducingMapper -->
<g id="node7" class="node"><title>topo.coordmapper.ReducingMapper</title>
<polygon fill="none" stroke="black" stroke-width="0.5" points="962,-276.5 776,-276.5 776,-255.5 962,-255.5 962,-276.5"/>
<text text-anchor="middle" x="869" y="-263.5" font-family="Vera" font-size="10.00">topo.coordmapper.ReducingMapper</text>
</g>
<!-- topo.coordmapper.SingleDimensionMapper -->
<g id="node8" class="node"><title>topo.coordmapper.SingleDimensionMapper</title>
<polygon fill="none" stroke="black" stroke-width="0.5" points="726,-286.5 502,-286.5 502,-265.5 726,-265.5 726,-286.5"/>
<text text-anchor="middle" x="614" y="-273.5" font-family="Vera" font-size="10.00">topo.coordmapper.SingleDimensionMapper</text>
</g>
<!-- topo.coordmapper.SingleDimensionMapper&#45;&gt;topo.coordmapper.ReducingMapper -->
<g id="edge6" class="edge"><title>topo.coordmapper.SingleDimensionMapper&#45;&gt;topo.coordmapper.ReducingMapper</title>
<path fill="none" stroke="black" stroke-width="0.5" d="M726.218,-271.599C740.855,-271.025 755.766,-270.441 770.162,-269.876"/>
<polygon fill="black" stroke="black" points="770.513,-271.614 775.441,-269.669 770.376,-268.116 770.513,-271.614"/>
</g>
<!-- topo.coordmapper.MagnifyingMapper -->
<g id="node36" class="node"><title>topo.coordmapper.MagnifyingMapper</title>
<polygon fill="none" stroke="black" stroke-width="0.5" points="966,-238.5 772,-238.5 772,-217.5 966,-217.5 966,-238.5"/>
<text text-anchor="middle" x="869" y="-225.5" font-family="Vera" font-size="10.00">topo.coordmapper.MagnifyingMapper</text>
</g>
<!-- topo.coordmapper.SingleDimensionMapper&#45;&gt;topo.coordmapper.MagnifyingMapper -->
<g id="edge36" class="edge"><title>topo.coordmapper.SingleDimensionMapper&#45;&gt;topo.coordmapper.MagnifyingMapper</title>
<path fill="none" stroke="black" stroke-width="0.5" d="M679.958,-265.973C695.14,-263.343 711.178,-260.307 726,-257 742.207,-253.384 745.807,-250.678 762,-247 774.75,-244.104 788.438,-241.384 801.623,-238.956"/>
<polygon fill="black" stroke="black" points="802.237,-240.623 806.843,-238.005 801.61,-237.179 802.237,-240.623"/>
</g>
<!-- param.parameterized.Parameterized -->
<g id="node10" class="node"><title>param.parameterized.Parameterized</title>
<polygon fill="none" stroke="black" stroke-width="0.5" points="194,-191.5 5.68434e-14,-191.5 0,-170.5 194,-170.5 194,-191.5"/>
<text text-anchor="middle" x="97" y="-178.5" font-family="Vera" font-size="10.00">param.parameterized.Parameterized</text>
</g>
<!-- topo.base.functionfamily.CoordinateMapperFn -->
<g id="node16" class="node"><title>topo.base.functionfamily.CoordinateMapperFn</title>
<polygon fill="none" stroke="black" stroke-width="0.5" points="466,-191.5 230,-191.5 230,-170.5 466,-170.5 466,-191.5"/>
<text text-anchor="middle" x="348" y="-178.5" font-family="Vera" font-size="10.00">topo.base.functionfamily.CoordinateMapperFn</text>
</g>
<!-- param.parameterized.Parameterized&#45;&gt;topo.base.functionfamily.CoordinateMapperFn -->
<g id="edge32" class="edge"><title>param.parameterized.Parameterized&#45;&gt;topo.base.functionfamily.CoordinateMapperFn</title>
<path fill="none" stroke="black" stroke-width="0.5" d="M194.043,-181C204.12,-181 214.455,-181 224.77,-181"/>
<polygon fill="black" stroke="black" points="224.831,-182.75 229.831,-181 224.831,-179.25 224.831,-182.75"/>
</g>
<!-- topo.coordmapper.Jitter -->
<g id="node15" class="node"><title>topo.coordmapper.Jitter</title>
<polygon fill="none" stroke="black" stroke-width="0.5" points="679,-248.5 549,-248.5 549,-227.5 679,-227.5 679,-248.5"/>
<text text-anchor="middle" x="614" y="-235.5" font-family="Vera" font-size="10.00">topo.coordmapper.Jitter</text>
</g>
<!-- topo.base.functionfamily.CoordinateMapperFn&#45;&gt;topo.coordmapper.OttesSCMapper -->
<g id="edge26" class="edge"><title>topo.base.functionfamily.CoordinateMapperFn&#45;&gt;topo.coordmapper.OttesSCMapper</title>
<path fill="none" stroke="black" stroke-width="0.5" d="M355.425,-191.235C376.205,-219.396 437.65,-299.419 502,-352 529.035,-374.09 564.291,-393.582 587.962,-405.55"/>
<polygon fill="black" stroke="black" points="587.282,-407.167 592.536,-407.842 588.85,-404.038 587.282,-407.167"/>
</g>
<!-- topo.base.functionfamily.CoordinateMapperFn&#45;&gt;topo.coordmapper.AffineTransform -->
<g id="edge28" class="edge"><title>topo.base.functionfamily.CoordinateMapperFn&#45;&gt;topo.coordmapper.AffineTransform</title>
<path fill="none" stroke="black" stroke-width="0.5" d="M359.147,-191.2C383.434,-212.966 443.645,-264.459 502,-295 523.389,-306.195 548.756,-315.122 569.935,-321.503"/>
<polygon fill="black" stroke="black" points="569.652,-323.245 574.944,-322.989 570.648,-319.889 569.652,-323.245"/>
</g>
<!-- topo.base.functionfamily.CoordinateMapperFn&#45;&gt;topo.coordmapper.SingleDimensionMapper -->
<g id="edge20" class="edge"><title>topo.base.functionfamily.CoordinateMapperFn&#45;&gt;topo.coordmapper.SingleDimensionMapper</title>
<path fill="none" stroke="black" stroke-width="0.5" d="M364.412,-191.107C391.853,-207.535 449.243,-239.912 502,-257 511.594,-260.107 521.823,-262.732 532.052,-264.942"/>
<polygon fill="black" stroke="black" points="531.818,-266.68 537.07,-265.993 532.536,-263.255 531.818,-266.68"/>
</g>
<!-- topo.base.functionfamily.CoordinateMapperFn&#45;&gt;topo.coordmapper.Jitter -->
<g id="edge12" class="edge"><title>topo.base.functionfamily.CoordinateMapperFn&#45;&gt;topo.coordmapper.Jitter</title>
<path fill="none" stroke="black" stroke-width="0.5" d="M385.48,-191.071C416.555,-199.223 461.962,-210.676 502,-219 515.758,-221.86 530.533,-224.6 544.694,-227.065"/>
<polygon fill="black" stroke="black" points="544.656,-228.834 549.881,-227.961 545.251,-225.385 544.656,-228.834"/>
</g>
<!-- topo.coordmapper.Polar2Cartesian -->
<g id="node18" class="node"><title>topo.coordmapper.Polar2Cartesian</title>
<polygon fill="none" stroke="black" stroke-width="0.5" points="706,-210.5 522,-210.5 522,-189.5 706,-189.5 706,-210.5"/>
<text text-anchor="middle" x="614" y="-197.5" font-family="Vera" font-size="10.00">topo.coordmapper.Polar2Cartesian</text>
</g>
<!-- topo.base.functionfamily.CoordinateMapperFn&#45;&gt;topo.coordmapper.Polar2Cartesian -->
<g id="edge14" class="edge"><title>topo.base.functionfamily.CoordinateMapperFn&#45;&gt;topo.coordmapper.Polar2Cartesian</title>
<path fill="none" stroke="black" stroke-width="0.5" d="M466.221,-189.444C483.07,-190.648 500.241,-191.874 516.632,-193.045"/>
<polygon fill="black" stroke="black" points="516.58,-194.796 521.692,-193.407 516.83,-191.305 516.58,-194.796"/>
</g>
<!-- topo.coordmapper.ConstantMapper -->
<g id="node20" class="node"><title>topo.coordmapper.ConstantMapper</title>
<polygon fill="none" stroke="black" stroke-width="0.5" points="708,-172.5 520,-172.5 520,-151.5 708,-151.5 708,-172.5"/>
<text text-anchor="middle" x="614" y="-159.5" font-family="Vera" font-size="10.00">topo.coordmapper.ConstantMapper</text>
</g>
<!-- topo.base.functionfamily.CoordinateMapperFn&#45;&gt;topo.coordmapper.ConstantMapper -->
<g id="edge16" class="edge"><title>topo.base.functionfamily.CoordinateMapperFn&#45;&gt;topo.coordmapper.ConstantMapper</title>
<path fill="none" stroke="black" stroke-width="0.5" d="M466.221,-172.556C482.302,-171.407 498.675,-170.237 514.384,-169.115"/>
<polygon fill="black" stroke="black" points="514.822,-170.839 519.685,-168.737 514.573,-167.348 514.822,-170.839"/>
</g>
<!-- topo.coordmapper.Grid -->
<g id="node22" class="node"><title>topo.coordmapper.Grid</title>
<polygon fill="none" stroke="black" stroke-width="0.5" points="678,-134.5 550,-134.5 550,-113.5 678,-113.5 678,-134.5"/>
<text text-anchor="middle" x="614" y="-121.5" font-family="Vera" font-size="10.00">topo.coordmapper.Grid</text>
</g>
<!-- topo.base.functionfamily.CoordinateMapperFn&#45;&gt;topo.coordmapper.Grid -->
<g id="edge18" class="edge"><title>topo.base.functionfamily.CoordinateMapperFn&#45;&gt;topo.coordmapper.Grid</title>
<path fill="none" stroke="black" stroke-width="0.5" d="M385.48,-170.929C416.555,-162.777 461.962,-151.324 502,-143 515.758,-140.14 530.533,-137.4 544.694,-134.935"/>
<polygon fill="black" stroke="black" points="545.251,-136.615 549.881,-134.039 544.656,-133.166 545.251,-136.615"/>
</g>
<!-- topo.coordmapper.Pipeline -->
<g id="node25" class="node"><title>topo.coordmapper.Pipeline</title>
<polygon fill="none" stroke="black" stroke-width="0.5" points="686,-96.5 542,-96.5 542,-75.5 686,-75.5 686,-96.5"/>
<text text-anchor="middle" x="614" y="-83.5" font-family="Vera" font-size="10.00">topo.coordmapper.Pipeline</text>
</g>
<!-- topo.base.functionfamily.CoordinateMapperFn&#45;&gt;topo.coordmapper.Pipeline -->
<g id="edge22" class="edge"><title>topo.base.functionfamily.CoordinateMapperFn&#45;&gt;topo.coordmapper.Pipeline</title>
<path fill="none" stroke="black" stroke-width="0.5" d="M364.412,-170.893C391.853,-154.465 449.243,-122.088 502,-105 512.917,-101.464 524.658,-98.5535 536.284,-96.1673"/>
<polygon fill="black" stroke="black" points="536.695,-97.8699 541.257,-95.1764 536.011,-94.4373 536.695,-97.8699"/>
</g>
<!-- topo.coordmapper.NormalJitter -->
<g id="node27" class="node"><title>topo.coordmapper.NormalJitter</title>
<polygon fill="none" stroke="black" stroke-width="0.5" points="696,-58.5 532,-58.5 532,-37.5 696,-37.5 696,-58.5"/>
<text text-anchor="middle" x="614" y="-45.5" font-family="Vera" font-size="10.00">topo.coordmapper.NormalJitter</text>
</g>
<!-- topo.base.functionfamily.CoordinateMapperFn&#45;&gt;topo.coordmapper.NormalJitter -->
<g id="edge24" class="edge"><title>topo.base.functionfamily.CoordinateMapperFn&#45;&gt;topo.coordmapper.NormalJitter</title>
<path fill="none" stroke="black" stroke-width="0.5" d="M358.097,-170.764C381.227,-147.985 440.791,-93.0694 502,-67 509.663,-63.7361 517.847,-61.0319 526.17,-58.7918"/>
<polygon fill="black" stroke="black" points="526.96,-60.3957 531.366,-57.456 526.088,-57.0059 526.96,-60.3957"/>
</g>
<!-- topo.coordmapper.Cartesian2Polar -->
<g id="node34" class="node"><title>topo.coordmapper.Cartesian2Polar</title>
<polygon fill="none" stroke="black" stroke-width="0.5" points="706,-20.5 522,-20.5 522,0.5 706,0.5 706,-20.5"/>
<text text-anchor="middle" x="614" y="-7.5" font-family="Vera" font-size="10.00">topo.coordmapper.Cartesian2Polar</text>
</g>
<!-- topo.base.functionfamily.CoordinateMapperFn&#45;&gt;topo.coordmapper.Cartesian2Polar -->
<g id="edge34" class="edge"><title>topo.base.functionfamily.CoordinateMapperFn&#45;&gt;topo.coordmapper.Cartesian2Polar</title>
<path fill="none" stroke="black" stroke-width="0.5" d="M354.877,-170.73C374.258,-142.704 432.458,-64.6275 502,-29 507.485,-26.1898 513.3,-23.7826 519.283,-21.7218"/>
<polygon fill="black" stroke="black" points="520.133,-23.2853 524.344,-20.071 519.048,-19.9578 520.133,-23.2853"/>
</g>
</g>
</svg>
