<?xml version="1.0" encoding="UTF-8" standalone="no"?>
<!DOCTYPE svg PUBLIC "-//W3C//DTD SVG 1.1//EN"
 "http://www.w3.org/Graphics/SVG/1.1/DTD/svg11.dtd">
<!-- Generated by graphviz version 2.26.3 (20100126.1600)
 -->
<!-- Title: inheritance0c0d2b112e Pages: 1 -->
<svg width="742pt" height="408pt"
 viewBox="0.00 0.00 742.00 408.00" xmlns="http://www.w3.org/2000/svg" xmlns:xlink="http://www.w3.org/1999/xlink">
<g id="graph1" class="graph" transform="scale(1 1) rotate(0) translate(4 404)">
<title>inheritance0c0d2b112e</title>
<polygon fill="white" stroke="white" points="-4,5 -4,-404 739,-404 739,5 -4,5"/>
<!-- param.normalize_path -->
<g id="node1" class="node"><title>param.normalize_path</title>
<polygon fill="none" stroke="black" stroke-width="0.5" points="599,-58 481,-58 481,-38 599,-38 599,-58"/>
<text text-anchor="middle" x="540" y="-45" font-family="Vera" font-size="10.00">param.normalize_path</text>
</g>
<!-- param.parameterized.ParameterizedFunction -->
<g id="node2" class="node"><title>param.parameterized.ParameterizedFunction</title>
<polygon fill="none" stroke="black" stroke-width="0.5" points="443,-39 221,-39 221,-19 443,-19 443,-39"/>
<text text-anchor="middle" x="332" y="-26" font-family="Vera" font-size="10.00">param.parameterized.ParameterizedFunction</text>
</g>
<!-- param.parameterized.ParameterizedFunction&#45;&gt;param.normalize_path -->
<g id="edge2" class="edge"><title>param.parameterized.ParameterizedFunction&#45;&gt;param.normalize_path</title>
<path fill="none" stroke="black" stroke-width="0.5" d="M441.482,-39.0008C453.005,-40.0533 464.438,-41.0977 475.213,-42.0819"/>
<polygon fill="black" stroke="black" points="475.308,-43.8479 480.447,-42.56 475.627,-40.3624 475.308,-43.8479"/>
</g>
<!-- param.resolve_path -->
<g id="node29" class="node"><title>param.resolve_path</title>
<polygon fill="none" stroke="black" stroke-width="0.5" points="593,-20 487,-20 487,-1.06581e-14 593,-3.55271e-15 593,-20"/>
<text text-anchor="middle" x="540" y="-7" font-family="Vera" font-size="10.00">param.resolve_path</text>
</g>
<!-- param.parameterized.ParameterizedFunction&#45;&gt;param.resolve_path -->
<g id="edge26" class="edge"><title>param.parameterized.ParameterizedFunction&#45;&gt;param.resolve_path</title>
<path fill="none" stroke="black" stroke-width="0.5" d="M441.482,-18.9992C455.27,-17.7398 468.928,-16.4921 481.485,-15.3451"/>
<polygon fill="black" stroke="black" points="481.977,-17.0576 486.797,-14.8599 481.658,-13.5721 481.977,-17.0576"/>
</g>
<!-- param.Filename -->
<g id="node4" class="node"><title>param.Filename</title>
<polygon fill="none" stroke="black" stroke-width="0.5" points="585,-400 495,-400 495,-380 585,-380 585,-400"/>
<text text-anchor="middle" x="540" y="-387" font-family="Vera" font-size="10.00">param.Filename</text>
</g>
<!-- param.Path -->
<g id="node5" class="node"><title>param.Path</title>
<polygon fill="none" stroke="black" stroke-width="0.5" points="366,-362 298,-362 298,-342 366,-342 366,-362"/>
<text text-anchor="middle" x="332" y="-349" font-family="Vera" font-size="10.00">param.Path</text>
</g>
<!-- param.Path&#45;&gt;param.Filename -->
<g id="edge4" class="edge"><title>param.Path&#45;&gt;param.Filename</title>
<path fill="none" stroke="black" stroke-width="0.5" d="M366.815,-358.36C400.461,-364.507 451.79,-373.885 489.841,-380.836"/>
<polygon fill="black" stroke="black" points="489.65,-382.58 494.883,-381.757 490.279,-379.137 489.65,-382.58"/>
</g>
<!-- param.Foldername -->
<g id="node42" class="node"><title>param.Foldername</title>
<polygon fill="none" stroke="black" stroke-width="0.5" points="592,-362 488,-362 488,-342 592,-342 592,-362"/>
<text text-anchor="middle" x="540" y="-349" font-family="Vera" font-size="10.00">param.Foldername</text>
</g>
<!-- param.Path&#45;&gt;param.Foldername -->
<g id="edge40" class="edge"><title>param.Path&#45;&gt;param.Foldername</title>
<path fill="none" stroke="black" stroke-width="0.5" d="M366.815,-352C398.34,-352 445.388,-352 482.493,-352"/>
<polygon fill="black" stroke="black" points="482.892,-353.75 487.892,-352 482.892,-350.25 482.892,-353.75"/>
</g>
<!-- param.Composite -->
<g id="node7" class="node"><title>param.Composite</title>
<polygon fill="none" stroke="black" stroke-width="0.5" points="381,-324 283,-324 283,-304 381,-304 381,-324"/>
<text text-anchor="middle" x="332" y="-311" font-family="Vera" font-size="10.00">param.Composite</text>
</g>
<!-- param.parameterized.Parameter -->
<g id="node8" class="node"><title>param.parameterized.Parameter</title>
<polygon fill="none" stroke="black" stroke-width="0.5" points="174,-229 10,-229 10,-209 174,-209 174,-229"/>
<text text-anchor="middle" x="92" y="-216" font-family="Vera" font-size="10.00">param.parameterized.Parameter</text>
</g>
<!-- param.parameterized.Parameter&#45;&gt;param.Path -->
<g id="edge10" class="edge"><title>param.parameterized.Parameter&#45;&gt;param.Path</title>
<path fill="none" stroke="black" stroke-width="0.5" d="M99.994,-229.279C118.404,-252.145 166.353,-307.229 220,-333 242.465,-343.792 270.042,-348.559 292.211,-350.62"/>
<polygon fill="black" stroke="black" points="292.302,-352.384 297.433,-351.065 292.599,-348.897 292.302,-352.384"/>
</g>
<!-- param.parameterized.Parameter&#45;&gt;param.Composite -->
<g id="edge6" class="edge"><title>param.parameterized.Parameter&#45;&gt;param.Composite</title>
<path fill="none" stroke="black" stroke-width="0.5" d="M105.356,-229.223C127.753,-245.818 174.876,-278.43 220,-295 238.192,-301.68 258.919,-306.032 277.555,-308.858"/>
<polygon fill="black" stroke="black" points="277.552,-310.625 282.752,-309.615 278.057,-307.162 277.552,-310.625"/>
</g>
<!-- param.Selector -->
<g id="node12" class="node"><title>param.Selector</title>
<polygon fill="none" stroke="black" stroke-width="0.5" points="374,-286 290,-286 290,-266 374,-266 374,-286"/>
<text text-anchor="middle" x="332" y="-273" font-family="Vera" font-size="10.00">param.Selector</text>
</g>
<!-- param.parameterized.Parameter&#45;&gt;param.Selector -->
<g id="edge32" class="edge"><title>param.parameterized.Parameter&#45;&gt;param.Selector</title>
<path fill="none" stroke="black" stroke-width="0.5" d="M121.985,-229.019C147.753,-237.358 186.018,-249.104 220,-257 240.986,-261.876 264.456,-266.051 284.469,-269.234"/>
<polygon fill="black" stroke="black" points="284.268,-270.974 289.479,-270.022 284.811,-267.517 284.268,-270.974"/>
</g>
<!-- param.List -->
<g id="node24" class="node"><title>param.List</title>
<polygon fill="none" stroke="black" stroke-width="0.5" points="364,-248 300,-248 300,-228 364,-228 364,-248"/>
<text text-anchor="middle" x="332" y="-235" font-family="Vera" font-size="10.00">param.List</text>
</g>
<!-- param.parameterized.Parameter&#45;&gt;param.List -->
<g id="edge24" class="edge"><title>param.parameterized.Parameter&#45;&gt;param.List</title>
<path fill="none" stroke="black" stroke-width="0.5" d="M174.594,-225.539C215.266,-228.759 262.307,-232.483 294.295,-235.015"/>
<polygon fill="black" stroke="black" points="294.174,-236.761 299.297,-235.411 294.45,-233.272 294.174,-236.761"/>
</g>
<!-- param.Callable -->
<g id="node26" class="node"><title>param.Callable</title>
<polygon fill="none" stroke="black" stroke-width="0.5" points="374,-210 290,-210 290,-190 374,-190 374,-210"/>
<text text-anchor="middle" x="332" y="-197" font-family="Vera" font-size="10.00">param.Callable</text>
</g>
<!-- param.parameterized.Parameter&#45;&gt;param.Callable -->
<g id="edge22" class="edge"><title>param.parameterized.Parameter&#45;&gt;param.Callable</title>
<path fill="none" stroke="black" stroke-width="0.5" d="M174.594,-212.461C211.125,-209.569 252.794,-206.27 284.079,-203.794"/>
<polygon fill="black" stroke="black" points="284.555,-205.512 289.402,-203.372 284.279,-202.023 284.555,-205.512"/>
</g>
<!-- param.Boolean -->
<g id="node31" class="node"><title>param.Boolean</title>
<polygon fill="none" stroke="black" stroke-width="0.5" points="375,-172 289,-172 289,-152 375,-152 375,-172"/>
<text text-anchor="middle" x="332" y="-159" font-family="Vera" font-size="10.00">param.Boolean</text>
</g>
<!-- param.parameterized.Parameter&#45;&gt;param.Boolean -->
<g id="edge28" class="edge"><title>param.parameterized.Parameter&#45;&gt;param.Boolean</title>
<path fill="none" stroke="black" stroke-width="0.5" d="M121.985,-208.981C147.753,-200.642 186.018,-188.896 220,-181 240.809,-176.165 264.06,-172.02 283.961,-168.846"/>
<polygon fill="black" stroke="black" points="284.279,-170.568 288.945,-168.061 283.734,-167.111 284.279,-170.568"/>
</g>
<!-- param.Dynamic -->
<g id="node36" class="node"><title>param.Dynamic</title>
<polygon fill="none" stroke="black" stroke-width="0.5" points="376,-134 288,-134 288,-114 376,-114 376,-134"/>
<text text-anchor="middle" x="332" y="-121" font-family="Vera" font-size="10.00">param.Dynamic</text>
</g>
<!-- param.parameterized.Parameter&#45;&gt;param.Dynamic -->
<g id="edge34" class="edge"><title>param.parameterized.Parameter&#45;&gt;param.Dynamic</title>
<path fill="none" stroke="black" stroke-width="0.5" d="M105.356,-208.777C127.753,-192.182 174.876,-159.57 220,-143 239.798,-135.73 262.599,-131.218 282.44,-128.429"/>
<polygon fill="black" stroke="black" points="282.696,-130.16 287.416,-127.756 282.227,-126.692 282.696,-130.16"/>
</g>
<!-- param.NumericTuple -->
<g id="node40" class="node"><title>param.NumericTuple</title>
<polygon fill="none" stroke="black" stroke-width="0.5" points="388,-96 276,-96 276,-76 388,-76 388,-96"/>
<text text-anchor="middle" x="332" y="-83" font-family="Vera" font-size="10.00">param.NumericTuple</text>
</g>
<!-- param.parameterized.Parameter&#45;&gt;param.NumericTuple -->
<g id="edge44" class="edge"><title>param.parameterized.Parameter&#45;&gt;param.NumericTuple</title>
<path fill="none" stroke="black" stroke-width="0.5" d="M99.994,-208.721C118.404,-185.855 166.353,-130.771 220,-105 235.466,-97.5703 253.356,-92.9961 270.235,-90.1946"/>
<polygon fill="black" stroke="black" points="270.768,-91.8827 275.437,-89.3809 270.227,-88.4247 270.768,-91.8827"/>
</g>
<!-- param.parameterized.Parameterized -->
<g id="node10" class="node"><title>param.parameterized.Parameterized</title>
<polygon fill="none" stroke="black" stroke-width="0.5" points="184,-39 8.52651e-14,-39 0,-19 184,-19 184,-39"/>
<text text-anchor="middle" x="92" y="-26" font-family="Vera" font-size="10.00">param.parameterized.Parameterized</text>
</g>
<!-- param.parameterized.Parameterized&#45;&gt;param.parameterized.ParameterizedFunction -->
<g id="edge18" class="edge"><title>param.parameterized.Parameterized&#45;&gt;param.parameterized.ParameterizedFunction</title>
<path fill="none" stroke="black" stroke-width="0.5" d="M184.104,-29C194.328,-29 204.838,-29 215.314,-29"/>
<polygon fill="black" stroke="black" points="215.453,-30.7501 220.453,-29 215.453,-27.2501 215.453,-30.7501"/>
</g>
<!-- param.ClassSelector -->
<g id="node11" class="node"><title>param.ClassSelector</title>
<polygon fill="none" stroke="black" stroke-width="0.5" points="594,-324 486,-324 486,-304 594,-304 594,-324"/>
<text text-anchor="middle" x="540" y="-311" font-family="Vera" font-size="10.00">param.ClassSelector</text>
</g>
<!-- param.Array -->
<g id="node15" class="node"><title>param.Array</title>
<polygon fill="none" stroke="black" stroke-width="0.5" points="722,-343 648,-343 648,-323 722,-323 722,-343"/>
<text text-anchor="middle" x="685" y="-330" font-family="Vera" font-size="10.00">param.Array</text>
</g>
<!-- param.ClassSelector&#45;&gt;param.Array -->
<g id="edge12" class="edge"><title>param.ClassSelector&#45;&gt;param.Array</title>
<path fill="none" stroke="black" stroke-width="0.5" d="M594.405,-321.129C610.433,-323.229 627.722,-325.495 642.856,-327.478"/>
<polygon fill="black" stroke="black" points="642.717,-329.224 647.902,-328.139 643.171,-325.754 642.717,-329.224"/>
</g>
<!-- param.Dict -->
<g id="node33" class="node"><title>param.Dict</title>
<polygon fill="none" stroke="black" stroke-width="0.5" points="718,-305 652,-305 652,-285 718,-285 718,-305"/>
<text text-anchor="middle" x="685" y="-292" font-family="Vera" font-size="10.00">param.Dict</text>
</g>
<!-- param.ClassSelector&#45;&gt;param.Dict -->
<g id="edge30" class="edge"><title>param.ClassSelector&#45;&gt;param.Dict</title>
<path fill="none" stroke="black" stroke-width="0.5" d="M594.405,-306.871C611.588,-304.619 630.22,-302.178 646.094,-300.098"/>
<polygon fill="black" stroke="black" points="646.635,-301.792 651.365,-299.407 646.18,-298.322 646.635,-301.792"/>
</g>
<!-- param.Selector&#45;&gt;param.ClassSelector -->
<g id="edge8" class="edge"><title>param.Selector&#45;&gt;param.ClassSelector</title>
<path fill="none" stroke="black" stroke-width="0.5" d="M374.595,-282.945C395.527,-286.429 421.111,-290.794 444,-295 457.543,-297.488 472.133,-300.306 485.749,-302.994"/>
<polygon fill="black" stroke="black" points="485.473,-304.723 490.718,-303.978 486.153,-301.29 485.473,-304.723"/>
</g>
<!-- param.ObjectSelector -->
<g id="node20" class="node"><title>param.ObjectSelector</title>
<polygon fill="none" stroke="black" stroke-width="0.5" points="597,-286 483,-286 483,-266 597,-266 597,-286"/>
<text text-anchor="middle" x="540" y="-273" font-family="Vera" font-size="10.00">param.ObjectSelector</text>
</g>
<!-- param.Selector&#45;&gt;param.ObjectSelector -->
<g id="edge16" class="edge"><title>param.Selector&#45;&gt;param.ObjectSelector</title>
<path fill="none" stroke="black" stroke-width="0.5" d="M374.594,-276C404.152,-276 444.021,-276 477.21,-276"/>
<polygon fill="black" stroke="black" points="477.477,-277.75 482.477,-276 477.477,-274.25 477.477,-277.75"/>
</g>
<!-- param.Magnitude -->
<g id="node17" class="node"><title>param.Magnitude</title>
<polygon fill="none" stroke="black" stroke-width="0.5" points="734,-153 636,-153 636,-133 734,-133 734,-153"/>
<text text-anchor="middle" x="685" y="-140" font-family="Vera" font-size="10.00">param.Magnitude</text>
</g>
<!-- param.Number -->
<g id="node18" class="node"><title>param.Number</title>
<polygon fill="none" stroke="black" stroke-width="0.5" points="583,-134 497,-134 497,-114 583,-114 583,-134"/>
<text text-anchor="middle" x="540" y="-121" font-family="Vera" font-size="10.00">param.Number</text>
</g>
<!-- param.Number&#45;&gt;param.Magnitude -->
<g id="edge14" class="edge"><title>param.Number&#45;&gt;param.Magnitude</title>
<path fill="none" stroke="black" stroke-width="0.5" d="M583.505,-129.701C598.344,-131.645 615.124,-133.844 630.705,-135.885"/>
<polygon fill="black" stroke="black" points="630.753,-137.657 635.938,-136.571 631.208,-134.186 630.753,-137.657"/>
</g>
<!-- param.Integer -->
<g id="node44" class="node"><title>param.Integer</title>
<polygon fill="none" stroke="black" stroke-width="0.5" points="726,-115 644,-115 644,-95 726,-95 726,-115"/>
<text text-anchor="middle" x="685" y="-102" font-family="Vera" font-size="10.00">param.Integer</text>
</g>
<!-- param.Number&#45;&gt;param.Integer -->
<g id="edge42" class="edge"><title>param.Number&#45;&gt;param.Integer</title>
<path fill="none" stroke="black" stroke-width="0.5" d="M583.505,-118.299C600.741,-116.041 620.596,-113.439 638.148,-111.139"/>
<polygon fill="black" stroke="black" points="638.785,-112.821 643.516,-110.436 638.331,-109.35 638.785,-112.821"/>
</g>
<!-- param.HookList -->
<g id="node23" class="node"><title>param.HookList</title>
<polygon fill="none" stroke="black" stroke-width="0.5" points="584,-248 496,-248 496,-228 584,-228 584,-248"/>
<text text-anchor="middle" x="540" y="-235" font-family="Vera" font-size="10.00">param.HookList</text>
</g>
<!-- param.List&#45;&gt;param.HookList -->
<g id="edge20" class="edge"><title>param.List&#45;&gt;param.HookList</title>
<path fill="none" stroke="black" stroke-width="0.5" d="M364.5,-238C398.289,-238 451.593,-238 490.597,-238"/>
<polygon fill="black" stroke="black" points="490.761,-239.75 495.761,-238 490.761,-236.25 490.761,-239.75"/>
</g>
<!-- param.Dynamic&#45;&gt;param.Number -->
<g id="edge36" class="edge"><title>param.Dynamic&#45;&gt;param.Number</title>
<path fill="none" stroke="black" stroke-width="0.5" d="M376.621,-124C410.298,-124 456.468,-124 491.138,-124"/>
<polygon fill="black" stroke="black" points="491.167,-125.75 496.167,-124 491.166,-122.25 491.167,-125.75"/>
</g>
<!-- param.XYCoordinates -->
<g id="node39" class="node"><title>param.XYCoordinates</title>
<polygon fill="none" stroke="black" stroke-width="0.5" points="597,-96 483,-96 483,-76 597,-76 597,-96"/>
<text text-anchor="middle" x="540" y="-83" font-family="Vera" font-size="10.00">param.XYCoordinates</text>
</g>
<!-- param.NumericTuple&#45;&gt;param.XYCoordinates -->
<g id="edge38" class="edge"><title>param.NumericTuple&#45;&gt;param.XYCoordinates</title>
<path fill="none" stroke="black" stroke-width="0.5" d="M388.562,-86C415.969,-86 448.969,-86 477.158,-86"/>
<polygon fill="black" stroke="black" points="477.364,-87.7501 482.364,-86 477.364,-84.2501 477.364,-87.7501"/>
</g>
</g>
</svg>
