<?xml version="1.0" encoding="UTF-8" standalone="no"?>
<!DOCTYPE svg PUBLIC "-//W3C//DTD SVG 1.1//EN"
 "http://www.w3.org/Graphics/SVG/1.1/DTD/svg11.dtd">
<!-- Generated by graphviz version 2.26.3 (20100126.1600)
 -->
<!-- Title: inheritancee1b2df4fe6 Pages: 1 -->
<svg width="730pt" height="161pt"
 viewBox="0.00 0.00 730.00 161.00" xmlns="http://www.w3.org/2000/svg" xmlns:xlink="http://www.w3.org/1999/xlink">
<g id="graph1" class="graph" transform="scale(1 1) rotate(0) translate(4 157)">
<title>inheritancee1b2df4fe6</title>
<polygon fill="white" stroke="white" points="-4,5 -4,-157 727,-157 727,5 -4,5"/>
<!-- topo.sparse.sparsecf.CFSPOF_Prune -->
<g id="node1" class="node"><title>topo.sparse.sparsecf.CFSPOF_Prune</title>
<polygon fill="none" stroke="black" stroke-width="0.5" points="703,-153.5 513,-153.5 513,-132.5 703,-132.5 703,-153.5"/>
<text text-anchor="middle" x="608" y="-140.5" font-family="Vera" font-size="10.00">topo.sparse.sparsecf.CFSPOF_Prune</text>
</g>
<!-- topo.sparse.sparsecf.CFSPOF_Plugin -->
<g id="node2" class="node"><title>topo.sparse.sparsecf.CFSPOF_Plugin</title>
<polygon fill="none" stroke="black" stroke-width="0.5" points="439,-134.5 249,-134.5 249,-113.5 439,-113.5 439,-134.5"/>
<text text-anchor="middle" x="344" y="-121.5" font-family="Vera" font-size="10.00">topo.sparse.sparsecf.CFSPOF_Plugin</text>
</g>
<!-- topo.sparse.sparsecf.CFSPOF_Plugin&#45;&gt;topo.sparse.sparsecf.CFSPOF_Prune -->
<g id="edge2" class="edge"><title>topo.sparse.sparsecf.CFSPOF_Plugin&#45;&gt;topo.sparse.sparsecf.CFSPOF_Prune</title>
<path fill="none" stroke="black" stroke-width="0.5" d="M439.683,-130.886C461.771,-132.476 485.329,-134.171 507.61,-135.775"/>
<polygon fill="black" stroke="black" points="507.53,-137.524 512.643,-136.137 507.781,-134.033 507.53,-137.524"/>
</g>
<!-- topo.sparse.sparsecf.CFSPOF_SproutRetract -->
<g id="node11" class="node"><title>topo.sparse.sparsecf.CFSPOF_SproutRetract</title>
<polygon fill="none" stroke="black" stroke-width="0.5" points="722,-115.5 494,-115.5 494,-94.5 722,-94.5 722,-115.5"/>
<text text-anchor="middle" x="608" y="-102.5" font-family="Vera" font-size="10.00">topo.sparse.sparsecf.CFSPOF_SproutRetract</text>
</g>
<!-- topo.sparse.sparsecf.CFSPOF_Plugin&#45;&gt;topo.sparse.sparsecf.CFSPOF_SproutRetract -->
<g id="edge10" class="edge"><title>topo.sparse.sparsecf.CFSPOF_Plugin&#45;&gt;topo.sparse.sparsecf.CFSPOF_SproutRetract</title>
<path fill="none" stroke="black" stroke-width="0.5" d="M439.683,-117.114C455.597,-115.968 472.274,-114.768 488.688,-113.587"/>
<polygon fill="black" stroke="black" points="488.91,-115.325 493.772,-113.221 488.659,-111.834 488.91,-115.325"/>
</g>
<!-- param.parameterized.Parameterized -->
<g id="node4" class="node"><title>param.parameterized.Parameterized</title>
<polygon fill="none" stroke="black" stroke-width="0.5" points="194,-77.5 5.68434e-14,-77.5 0,-56.5 194,-56.5 194,-77.5"/>
<text text-anchor="middle" x="97" y="-64.5" font-family="Vera" font-size="10.00">param.parameterized.Parameterized</text>
</g>
<!-- param.parameterized.Parameterized&#45;&gt;topo.sparse.sparsecf.CFSPOF_Plugin -->
<g id="edge12" class="edge"><title>param.parameterized.Parameterized&#45;&gt;topo.sparse.sparsecf.CFSPOF_Plugin</title>
<path fill="none" stroke="black" stroke-width="0.5" d="M128.45,-77.0754C155.238,-85.3937 194.86,-97.0785 230,-105 243.162,-107.967 257.274,-110.686 270.93,-113.083"/>
<polygon fill="black" stroke="black" points="270.713,-114.821 275.938,-113.952 271.311,-111.373 270.713,-114.821"/>
</g>
<!-- topo.sparse.sparsecf.CFSPRF_Plugin -->
<g id="node5" class="node"><title>topo.sparse.sparsecf.CFSPRF_Plugin</title>
<polygon fill="none" stroke="black" stroke-width="0.5" points="438,-96.5 250,-96.5 250,-75.5 438,-75.5 438,-96.5"/>
<text text-anchor="middle" x="344" y="-83.5" font-family="Vera" font-size="10.00">topo.sparse.sparsecf.CFSPRF_Plugin</text>
</g>
<!-- param.parameterized.Parameterized&#45;&gt;topo.sparse.sparsecf.CFSPRF_Plugin -->
<g id="edge4" class="edge"><title>param.parameterized.Parameterized&#45;&gt;topo.sparse.sparsecf.CFSPRF_Plugin</title>
<path fill="none" stroke="black" stroke-width="0.5" d="M194.266,-74.482C210.66,-75.7431 227.701,-77.0539 244.159,-78.3199"/>
<polygon fill="black" stroke="black" points="244.127,-80.0726 249.247,-78.7113 244.396,-76.5829 244.127,-80.0726"/>
</g>
<!-- topo.sparse.sparsecf.CFSPLF_Plugin -->
<g id="node7" class="node"><title>topo.sparse.sparsecf.CFSPLF_Plugin</title>
<polygon fill="none" stroke="black" stroke-width="0.5" points="438,-58.5 250,-58.5 250,-37.5 438,-37.5 438,-58.5"/>
<text text-anchor="middle" x="344" y="-45.5" font-family="Vera" font-size="10.00">topo.sparse.sparsecf.CFSPLF_Plugin</text>
</g>
<!-- param.parameterized.Parameterized&#45;&gt;topo.sparse.sparsecf.CFSPLF_Plugin -->
<g id="edge6" class="edge"><title>param.parameterized.Parameterized&#45;&gt;topo.sparse.sparsecf.CFSPLF_Plugin</title>
<path fill="none" stroke="black" stroke-width="0.5" d="M194.266,-59.518C210.783,-58.2475 227.955,-56.9265 244.528,-55.6517"/>
<polygon fill="black" stroke="black" points="244.799,-57.3861 249.65,-55.2577 244.531,-53.8964 244.799,-57.3861"/>
</g>
<!-- topo.sparse.sparsecf.SparseConnectionField -->
<g id="node9" class="node"><title>topo.sparse.sparsecf.SparseConnectionField</title>
<polygon fill="none" stroke="black" stroke-width="0.5" points="458,-20.5 230,-20.5 230,0.5 458,0.5 458,-20.5"/>
<text text-anchor="middle" x="344" y="-7.5" font-family="Vera" font-size="10.00">topo.sparse.sparsecf.SparseConnectionField</text>
</g>
<!-- param.parameterized.Parameterized&#45;&gt;topo.sparse.sparsecf.SparseConnectionField -->
<g id="edge8" class="edge"><title>param.parameterized.Parameterized&#45;&gt;topo.sparse.sparsecf.SparseConnectionField</title>
<path fill="none" stroke="black" stroke-width="0.5" d="M128.45,-56.9246C155.238,-48.6063 194.86,-36.9215 230,-29 243.162,-26.033 257.274,-23.3137 270.93,-20.9168"/>
<polygon fill="black" stroke="black" points="271.311,-22.6271 275.938,-20.0485 270.713,-19.1785 271.311,-22.6271"/>
</g>
</g>
</svg>
