<?xml version="1.0" encoding="UTF-8" standalone="no"?>
<!DOCTYPE svg PUBLIC "-//W3C//DTD SVG 1.1//EN"
 "http://www.w3.org/Graphics/SVG/1.1/DTD/svg11.dtd">
<!-- Generated by graphviz version 2.26.3 (20100126.1600)
 -->
<!-- Title: inheritance8744d36cfd Pages: 1 -->
<svg width="564pt" height="104pt"
 viewBox="0.00 0.00 564.00 104.00" xmlns="http://www.w3.org/2000/svg" xmlns:xlink="http://www.w3.org/1999/xlink">
<g id="graph1" class="graph" transform="scale(1 1) rotate(0) translate(4 100)">
<title>inheritance8744d36cfd</title>
<polygon fill="white" stroke="white" points="-4,5 -4,-100 561,-100 561,5 -4,5"/>
<!-- lancet.launch.Launcher -->
<g id="node1" class="node"><title>lancet.launch.Launcher</title>
<polygon fill="none" stroke="black" stroke-width="0.5" points="366,-96 244,-96 244,-76 366,-76 366,-96"/>
<text text-anchor="middle" x="305" y="-83" font-family="Vera" font-size="10.00">lancet.launch.Launcher</text>
</g>
<!-- lancet.launch.QLauncher -->
<g id="node8" class="node"><title>lancet.launch.QLauncher</title>
<polygon fill="none" stroke="black" stroke-width="0.5" points="555,-96 427,-96 427,-76 555,-76 555,-96"/>
<text text-anchor="middle" x="491" y="-83" font-family="Vera" font-size="10.00">lancet.launch.QLauncher</text>
</g>
<!-- lancet.launch.Launcher&#45;&gt;lancet.launch.QLauncher -->
<g id="edge8" class="edge"><title>lancet.launch.Launcher&#45;&gt;lancet.launch.QLauncher</title>
<path fill="none" stroke="black" stroke-width="0.5" d="M366.161,-86C383.776,-86 403.123,-86 421.218,-86"/>
<polygon fill="black" stroke="black" points="421.286,-87.7501 426.286,-86 421.286,-84.2501 421.286,-87.7501"/>
</g>
<!-- param.parameterized.Parameterized -->
<g id="node2" class="node"><title>param.parameterized.Parameterized</title>
<polygon fill="none" stroke="black" stroke-width="0.5" points="184,-58 8.52651e-14,-58 0,-38 184,-38 184,-58"/>
<text text-anchor="middle" x="92" y="-45" font-family="Vera" font-size="10.00">param.parameterized.Parameterized</text>
</g>
<!-- param.parameterized.Parameterized&#45;&gt;lancet.launch.Launcher -->
<g id="edge2" class="edge"><title>param.parameterized.Parameterized&#45;&gt;lancet.launch.Launcher</title>
<path fill="none" stroke="black" stroke-width="0.5" d="M148.242,-58.0338C177.603,-63.2719 213.577,-69.6898 243.654,-75.0557"/>
<polygon fill="black" stroke="black" points="243.583,-76.8205 248.813,-75.976 244.198,-73.3749 243.583,-76.8205"/>
</g>
<!-- lancet.launch.CommandTemplate -->
<g id="node4" class="node"><title>lancet.launch.CommandTemplate</title>
<polygon fill="none" stroke="black" stroke-width="0.5" points="389,-58 221,-58 221,-38 389,-38 389,-58"/>
<text text-anchor="middle" x="305" y="-45" font-family="Vera" font-size="10.00">lancet.launch.CommandTemplate</text>
</g>
<!-- param.parameterized.Parameterized&#45;&gt;lancet.launch.CommandTemplate -->
<g id="edge4" class="edge"><title>param.parameterized.Parameterized&#45;&gt;lancet.launch.CommandTemplate</title>
<path fill="none" stroke="black" stroke-width="0.5" d="M184.186,-48C194.525,-48 205.047,-48 215.352,-48"/>
<polygon fill="black" stroke="black" points="215.393,-49.7501 220.392,-48 215.392,-46.2501 215.393,-49.7501"/>
</g>
<!-- lancet.launch.review_and_launch -->
<g id="node6" class="node"><title>lancet.launch.review_and_launch</title>
<polygon fill="none" stroke="black" stroke-width="0.5" points="387,-20 223,-20 223,-1.06581e-14 387,-3.55271e-15 387,-20"/>
<text text-anchor="middle" x="305" y="-7" font-family="Vera" font-size="10.00">lancet.launch.review_and_launch</text>
</g>
<!-- param.parameterized.Parameterized&#45;&gt;lancet.launch.review_and_launch -->
<g id="edge6" class="edge"><title>param.parameterized.Parameterized&#45;&gt;lancet.launch.review_and_launch</title>
<path fill="none" stroke="black" stroke-width="0.5" d="M148.242,-37.9662C177.603,-32.7281 213.577,-26.3102 243.654,-20.9443"/>
<polygon fill="black" stroke="black" points="244.198,-22.6251 248.813,-20.024 243.583,-19.1795 244.198,-22.6251"/>
</g>
</g>
</svg>
