<?xml version="1.0" encoding="UTF-8" standalone="no"?>
<!DOCTYPE svg PUBLIC "-//W3C//DTD SVG 1.1//EN"
 "http://www.w3.org/Graphics/SVG/1.1/DTD/svg11.dtd">
<!-- Generated by graphviz version 2.26.3 (20100126.1600)
 -->
<!-- Title: inheritancedfab4961fd Pages: 1 -->
<svg width="766pt" height="332pt"
 viewBox="0.00 0.00 766.00 332.00" xmlns="http://www.w3.org/2000/svg" xmlns:xlink="http://www.w3.org/1999/xlink">
<g id="graph1" class="graph" transform="scale(1 1) rotate(0) translate(4 328)">
<title>inheritancedfab4961fd</title>
<polygon fill="white" stroke="white" points="-4,5 -4,-328 763,-328 763,5 -4,5"/>
<!-- topo.base.simulation.EventProcessorParameter -->
<g id="node1" class="node"><title>topo.base.simulation.EventProcessorParameter</title>
<polygon fill="none" stroke="black" stroke-width="0.5" points="487,-20.5 243,-20.5 243,0.5 487,0.5 487,-20.5"/>
<text text-anchor="middle" x="365" y="-7.5" font-family="Vera" font-size="10.00">topo.base.simulation.EventProcessorParameter</text>
</g>
<!-- param.parameterized.Parameter -->
<g id="node2" class="node"><title>param.parameterized.Parameter</title>
<polygon fill="none" stroke="black" stroke-width="0.5" points="190,-20.5 16,-20.5 16,0.5 190,0.5 190,-20.5"/>
<text text-anchor="middle" x="103" y="-7.5" font-family="Vera" font-size="10.00">param.parameterized.Parameter</text>
</g>
<!-- param.parameterized.Parameter&#45;&gt;topo.base.simulation.EventProcessorParameter -->
<g id="edge2" class="edge"><title>param.parameterized.Parameter&#45;&gt;topo.base.simulation.EventProcessorParameter</title>
<path fill="none" stroke="black" stroke-width="0.5" d="M190.606,-10C205.575,-10 221.397,-10 237.157,-10"/>
<polygon fill="black" stroke="black" points="237.498,-11.7501 242.498,-10 237.498,-8.25009 237.498,-11.7501"/>
</g>
<!-- param.parameterized.Parameterized -->
<g id="node4" class="node"><title>param.parameterized.Parameterized</title>
<polygon fill="none" stroke="black" stroke-width="0.5" points="200,-115.5 6,-115.5 6,-94.5 200,-94.5 200,-115.5"/>
<text text-anchor="middle" x="103" y="-102.5" font-family="Vera" font-size="10.00">param.parameterized.Parameterized</text>
</g>
<!-- topo.base.simulation.Simulation -->
<g id="node6" class="node"><title>topo.base.simulation.Simulation</title>
<polygon fill="none" stroke="black" stroke-width="0.5" points="450,-172.5 280,-172.5 280,-151.5 450,-151.5 450,-172.5"/>
<text text-anchor="middle" x="365" y="-159.5" font-family="Vera" font-size="10.00">topo.base.simulation.Simulation</text>
</g>
<!-- param.parameterized.Parameterized&#45;&gt;topo.base.simulation.Simulation -->
<g id="edge18" class="edge"><title>param.parameterized.Parameterized&#45;&gt;topo.base.simulation.Simulation</title>
<path fill="none" stroke="black" stroke-width="0.5" d="M135.602,-115.042C163.609,-123.396 205.176,-135.149 242,-143 256.145,-146.016 271.301,-148.753 285.974,-151.152"/>
<polygon fill="black" stroke="black" points="285.714,-152.883 290.929,-151.953 286.272,-149.428 285.714,-152.883"/>
</g>
<!-- topo.base.simulation.EventProcessor -->
<g id="node11" class="node"><title>topo.base.simulation.EventProcessor</title>
<polygon fill="none" stroke="black" stroke-width="0.5" points="462,-134.5 268,-134.5 268,-113.5 462,-113.5 462,-134.5"/>
<text text-anchor="middle" x="365" y="-121.5" font-family="Vera" font-size="10.00">topo.base.simulation.EventProcessor</text>
</g>
<!-- param.parameterized.Parameterized&#45;&gt;topo.base.simulation.EventProcessor -->
<g id="edge8" class="edge"><title>param.parameterized.Parameterized&#45;&gt;topo.base.simulation.EventProcessor</title>
<path fill="none" stroke="black" stroke-width="0.5" d="M200.187,-112.048C220.593,-113.528 242.175,-115.093 262.76,-116.586"/>
<polygon fill="black" stroke="black" points="262.857,-118.347 267.97,-116.963 263.11,-114.856 262.857,-118.347"/>
</g>
<!-- topo.base.simulation.EPConnection -->
<g id="node16" class="node"><title>topo.base.simulation.EPConnection</title>
<polygon fill="none" stroke="black" stroke-width="0.5" points="458,-96.5 272,-96.5 272,-75.5 458,-75.5 458,-96.5"/>
<text text-anchor="middle" x="365" y="-83.5" font-family="Vera" font-size="10.00">topo.base.simulation.EPConnection</text>
</g>
<!-- param.parameterized.Parameterized&#45;&gt;topo.base.simulation.EPConnection -->
<g id="edge12" class="edge"><title>param.parameterized.Parameterized&#45;&gt;topo.base.simulation.EPConnection</title>
<path fill="none" stroke="black" stroke-width="0.5" d="M200.187,-97.9521C221.893,-96.378 244.929,-94.7074 266.681,-93.13"/>
<polygon fill="black" stroke="black" points="267.026,-94.8597 271.886,-92.7526 266.772,-91.3689 267.026,-94.8597"/>
</g>
<!-- topo.base.simulation.SomeTimer -->
<g id="node20" class="node"><title>topo.base.simulation.SomeTimer</title>
<polygon fill="none" stroke="black" stroke-width="0.5" points="453,-58.5 277,-58.5 277,-37.5 453,-37.5 453,-58.5"/>
<text text-anchor="middle" x="365" y="-45.5" font-family="Vera" font-size="10.00">topo.base.simulation.SomeTimer</text>
</g>
<!-- param.parameterized.Parameterized&#45;&gt;topo.base.simulation.SomeTimer -->
<g id="edge16" class="edge"><title>param.parameterized.Parameterized&#45;&gt;topo.base.simulation.SomeTimer</title>
<path fill="none" stroke="black" stroke-width="0.5" d="M135.602,-94.9583C163.609,-86.6043 205.176,-74.851 242,-67 256.145,-63.9843 271.301,-61.2467 285.974,-58.8479"/>
<polygon fill="black" stroke="black" points="286.272,-60.5725 290.929,-58.0475 285.714,-57.1173 286.272,-60.5725"/>
</g>
<!-- topo.base.simulation.RealTimeSimulation -->
<g id="node5" class="node"><title>topo.base.simulation.RealTimeSimulation</title>
<polygon fill="none" stroke="black" stroke-width="0.5" points="748,-172.5 534,-172.5 534,-151.5 748,-151.5 748,-172.5"/>
<text text-anchor="middle" x="641" y="-159.5" font-family="Vera" font-size="10.00">topo.base.simulation.RealTimeSimulation</text>
</g>
<!-- topo.base.simulation.Simulation&#45;&gt;topo.base.simulation.RealTimeSimulation -->
<g id="edge4" class="edge"><title>topo.base.simulation.Simulation&#45;&gt;topo.base.simulation.RealTimeSimulation</title>
<path fill="none" stroke="black" stroke-width="0.5" d="M450.815,-162C475.442,-162 502.669,-162 528.64,-162"/>
<polygon fill="black" stroke="black" points="528.816,-163.75 533.816,-162 528.816,-160.25 528.816,-163.75"/>
</g>
<!-- topo.base.simulation.CommandEvent -->
<g id="node8" class="node"><title>topo.base.simulation.CommandEvent</title>
<polygon fill="none" stroke="black" stroke-width="0.5" points="463,-324.5 267,-324.5 267,-303.5 463,-303.5 463,-324.5"/>
<text text-anchor="middle" x="365" y="-311.5" font-family="Vera" font-size="10.00">topo.base.simulation.CommandEvent</text>
</g>
<!-- topo.base.simulation.Event -->
<g id="node9" class="node"><title>topo.base.simulation.Event</title>
<polygon fill="none" stroke="black" stroke-width="0.5" points="176,-267.5 30,-267.5 30,-246.5 176,-246.5 176,-267.5"/>
<text text-anchor="middle" x="103" y="-254.5" font-family="Vera" font-size="10.00">topo.base.simulation.Event</text>
</g>
<!-- topo.base.simulation.Event&#45;&gt;topo.base.simulation.CommandEvent -->
<g id="edge6" class="edge"><title>topo.base.simulation.Event&#45;&gt;topo.base.simulation.CommandEvent</title>
<path fill="none" stroke="black" stroke-width="0.5" d="M135.602,-267.042C163.609,-275.396 205.176,-287.149 242,-295 256.145,-298.016 271.301,-300.753 285.974,-303.152"/>
<polygon fill="black" stroke="black" points="285.714,-304.883 290.929,-303.953 286.272,-301.428 285.714,-304.883"/>
</g>
<!-- topo.base.simulation.EventSequence -->
<g id="node14" class="node"><title>topo.base.simulation.EventSequence</title>
<polygon fill="none" stroke="black" stroke-width="0.5" points="462,-286.5 268,-286.5 268,-265.5 462,-265.5 462,-286.5"/>
<text text-anchor="middle" x="365" y="-273.5" font-family="Vera" font-size="10.00">topo.base.simulation.EventSequence</text>
</g>
<!-- topo.base.simulation.Event&#45;&gt;topo.base.simulation.EventSequence -->
<g id="edge24" class="edge"><title>topo.base.simulation.Event&#45;&gt;topo.base.simulation.EventSequence</title>
<path fill="none" stroke="black" stroke-width="0.5" d="M176.679,-262.343C203.181,-264.265 233.582,-266.47 262.116,-268.539"/>
<polygon fill="black" stroke="black" points="262.307,-270.307 267.421,-268.924 262.56,-266.816 262.307,-270.307"/>
</g>
<!-- topo.base.simulation.EPConnectionEvent -->
<g id="node18" class="node"><title>topo.base.simulation.EPConnectionEvent</title>
<polygon fill="none" stroke="black" stroke-width="0.5" points="471,-248.5 259,-248.5 259,-227.5 471,-227.5 471,-248.5"/>
<text text-anchor="middle" x="365" y="-235.5" font-family="Vera" font-size="10.00">topo.base.simulation.EPConnectionEvent</text>
</g>
<!-- topo.base.simulation.Event&#45;&gt;topo.base.simulation.EPConnectionEvent -->
<g id="edge14" class="edge"><title>topo.base.simulation.Event&#45;&gt;topo.base.simulation.EPConnectionEvent</title>
<path fill="none" stroke="black" stroke-width="0.5" d="M176.679,-251.657C200.375,-249.938 227.188,-247.994 252.997,-246.122"/>
<polygon fill="black" stroke="black" points="253.283,-247.856 258.144,-245.749 253.03,-244.365 253.283,-247.856"/>
</g>
<!-- topo.base.simulation.FunctionEvent -->
<g id="node25" class="node"><title>topo.base.simulation.FunctionEvent</title>
<polygon fill="none" stroke="black" stroke-width="0.5" points="458,-210.5 272,-210.5 272,-189.5 458,-189.5 458,-210.5"/>
<text text-anchor="middle" x="365" y="-197.5" font-family="Vera" font-size="10.00">topo.base.simulation.FunctionEvent</text>
</g>
<!-- topo.base.simulation.Event&#45;&gt;topo.base.simulation.FunctionEvent -->
<g id="edge22" class="edge"><title>topo.base.simulation.Event&#45;&gt;topo.base.simulation.FunctionEvent</title>
<path fill="none" stroke="black" stroke-width="0.5" d="M135.602,-246.958C163.609,-238.604 205.176,-226.851 242,-219 256.145,-215.984 271.301,-213.247 285.974,-210.848"/>
<polygon fill="black" stroke="black" points="286.272,-212.572 290.929,-210.047 285.714,-209.117 286.272,-212.572"/>
</g>
<!-- topo.base.simulation.PeriodicEventSequence -->
<g id="node13" class="node"><title>topo.base.simulation.PeriodicEventSequence</title>
<polygon fill="none" stroke="black" stroke-width="0.5" points="757,-286.5 525,-286.5 525,-265.5 757,-265.5 757,-286.5"/>
<text text-anchor="middle" x="641" y="-273.5" font-family="Vera" font-size="10.00">topo.base.simulation.PeriodicEventSequence</text>
</g>
<!-- topo.base.simulation.EventSequence&#45;&gt;topo.base.simulation.PeriodicEventSequence -->
<g id="edge10" class="edge"><title>topo.base.simulation.EventSequence&#45;&gt;topo.base.simulation.PeriodicEventSequence</title>
<path fill="none" stroke="black" stroke-width="0.5" d="M462.696,-276C480.839,-276 500.001,-276 518.769,-276"/>
<polygon fill="black" stroke="black" points="519.051,-277.75 524.051,-276 519.051,-274.25 519.051,-277.75"/>
</g>
<!-- topo.base.simulation.OptionalSingleton -->
<g id="node22" class="node"><title>topo.base.simulation.OptionalSingleton</title>
<polygon fill="none" stroke="black" stroke-width="0.5" points="205,-172.5 1,-172.5 1,-151.5 205,-151.5 205,-172.5"/>
<text text-anchor="middle" x="103" y="-159.5" font-family="Vera" font-size="10.00">topo.base.simulation.OptionalSingleton</text>
</g>
<!-- topo.base.simulation.OptionalSingleton&#45;&gt;topo.base.simulation.Simulation -->
<g id="edge20" class="edge"><title>topo.base.simulation.OptionalSingleton&#45;&gt;topo.base.simulation.Simulation</title>
<path fill="none" stroke="black" stroke-width="0.5" d="M205.797,-162C228.36,-162 252.094,-162 274.148,-162"/>
<polygon fill="black" stroke="black" points="274.418,-163.75 279.418,-162 274.418,-160.25 274.418,-163.75"/>
</g>
</g>
</svg>
