<?xml version="1.0" encoding="UTF-8" standalone="no"?>
<!DOCTYPE svg PUBLIC "-//W3C//DTD SVG 1.1//EN"
 "http://www.w3.org/Graphics/SVG/1.1/DTD/svg11.dtd">
<!-- Generated by graphviz version 2.26.3 (20100126.1600)
 -->
<!-- Title: inheritance1f1dc666b6 Pages: 1 -->
<svg width="964pt" height="199pt"
 viewBox="0.00 0.00 964.00 199.00" xmlns="http://www.w3.org/2000/svg" xmlns:xlink="http://www.w3.org/1999/xlink">
<g id="graph1" class="graph" transform="scale(1 1) rotate(0) translate(4 195)">
<title>inheritance1f1dc666b6</title>
<polygon fill="white" stroke="white" points="-4,5 -4,-195 961,-195 961,5 -4,5"/>
<!-- topo.base.projection.SheetMask -->
<g id="node1" class="node"><title>topo.base.projection.SheetMask</title>
<polygon fill="none" stroke="black" stroke-width="0.5" points="433,-134.5 263,-134.5 263,-113.5 433,-113.5 433,-134.5"/>
<text text-anchor="middle" x="348" y="-121.5" font-family="Vera" font-size="10.00">topo.base.projection.SheetMask</text>
</g>
<!-- topo.base.projection.CompositeSheetMask -->
<g id="node7" class="node"><title>topo.base.projection.CompositeSheetMask</title>
<polygon fill="none" stroke="black" stroke-width="0.5" points="725,-172.5 503,-172.5 503,-151.5 725,-151.5 725,-172.5"/>
<text text-anchor="middle" x="614" y="-159.5" font-family="Vera" font-size="10.00">topo.base.projection.CompositeSheetMask</text>
</g>
<!-- topo.base.projection.SheetMask&#45;&gt;topo.base.projection.CompositeSheetMask -->
<g id="edge22" class="edge"><title>topo.base.projection.SheetMask&#45;&gt;topo.base.projection.CompositeSheetMask</title>
<path fill="none" stroke="black" stroke-width="0.5" d="M418.236,-134.034C455.358,-139.337 500.944,-145.849 538.783,-151.255"/>
<polygon fill="black" stroke="black" points="538.634,-153.001 543.832,-151.976 539.129,-149.536 538.634,-153.001"/>
</g>
<!-- topo.base.projection.NeighborhoodMask -->
<g id="node9" class="node"><title>topo.base.projection.NeighborhoodMask</title>
<polygon fill="none" stroke="black" stroke-width="0.5" points="719,-134.5 509,-134.5 509,-113.5 719,-113.5 719,-134.5"/>
<text text-anchor="middle" x="614" y="-121.5" font-family="Vera" font-size="10.00">topo.base.projection.NeighborhoodMask</text>
</g>
<!-- topo.base.projection.SheetMask&#45;&gt;topo.base.projection.NeighborhoodMask -->
<g id="edge8" class="edge"><title>topo.base.projection.SheetMask&#45;&gt;topo.base.projection.NeighborhoodMask</title>
<path fill="none" stroke="black" stroke-width="0.5" d="M433.628,-124C455.937,-124 480.292,-124 503.682,-124"/>
<polygon fill="black" stroke="black" points="503.971,-125.75 508.971,-124 503.971,-122.25 503.971,-125.75"/>
</g>
<!-- param.parameterized.Parameterized -->
<g id="node2" class="node"><title>param.parameterized.Parameterized</title>
<polygon fill="none" stroke="black" stroke-width="0.5" points="194,-96.5 5.68434e-14,-96.5 0,-75.5 194,-75.5 194,-96.5"/>
<text text-anchor="middle" x="97" y="-83.5" font-family="Vera" font-size="10.00">param.parameterized.Parameterized</text>
</g>
<!-- param.parameterized.Parameterized&#45;&gt;topo.base.projection.SheetMask -->
<g id="edge2" class="edge"><title>param.parameterized.Parameterized&#45;&gt;topo.base.projection.SheetMask</title>
<path fill="none" stroke="black" stroke-width="0.5" d="M163.276,-96.0338C198.161,-101.315 240.968,-107.796 276.587,-113.189"/>
<polygon fill="black" stroke="black" points="276.583,-114.958 281.789,-113.976 277.107,-111.497 276.583,-114.958"/>
</g>
<!-- topo.base.simulation.EPConnection -->
<g id="node4" class="node"><title>topo.base.simulation.EPConnection</title>
<polygon fill="none" stroke="black" stroke-width="0.5" points="441,-96.5 255,-96.5 255,-75.5 441,-75.5 441,-96.5"/>
<text text-anchor="middle" x="348" y="-83.5" font-family="Vera" font-size="10.00">topo.base.simulation.EPConnection</text>
</g>
<!-- param.parameterized.Parameterized&#45;&gt;topo.base.simulation.EPConnection -->
<g id="edge4" class="edge"><title>param.parameterized.Parameterized&#45;&gt;topo.base.simulation.EPConnection</title>
<path fill="none" stroke="black" stroke-width="0.5" d="M194.043,-86C212.327,-86 231.462,-86 249.781,-86"/>
<polygon fill="black" stroke="black" points="249.926,-87.7501 254.926,-86 249.926,-84.2501 249.926,-87.7501"/>
</g>
<!-- topo.base.simulation.EventProcessor -->
<g id="node11" class="node"><title>topo.base.simulation.EventProcessor</title>
<polygon fill="none" stroke="black" stroke-width="0.5" points="445,-58.5 251,-58.5 251,-37.5 445,-37.5 445,-58.5"/>
<text text-anchor="middle" x="348" y="-45.5" font-family="Vera" font-size="10.00">topo.base.simulation.EventProcessor</text>
</g>
<!-- param.parameterized.Parameterized&#45;&gt;topo.base.simulation.EventProcessor -->
<g id="edge10" class="edge"><title>param.parameterized.Parameterized&#45;&gt;topo.base.simulation.EventProcessor</title>
<path fill="none" stroke="black" stroke-width="0.5" d="M163.276,-75.9662C198.161,-70.6848 240.968,-64.204 276.587,-58.8115"/>
<polygon fill="black" stroke="black" points="277.107,-60.5029 281.789,-58.024 276.583,-57.0423 277.107,-60.5029"/>
</g>
<!-- topo.base.projection.Projection -->
<g id="node21" class="node"><title>topo.base.projection.Projection</title>
<polygon fill="none" stroke="black" stroke-width="0.5" points="696,-96.5 532,-96.5 532,-75.5 696,-75.5 696,-96.5"/>
<text text-anchor="middle" x="614" y="-83.5" font-family="Vera" font-size="10.00">topo.base.projection.Projection</text>
</g>
<!-- topo.base.simulation.EPConnection&#45;&gt;topo.base.projection.Projection -->
<g id="edge20" class="edge"><title>topo.base.simulation.EPConnection&#45;&gt;topo.base.projection.Projection</title>
<path fill="none" stroke="black" stroke-width="0.5" d="M441.034,-86C468.678,-86 498.861,-86 526.163,-86"/>
<polygon fill="black" stroke="black" points="526.226,-87.7501 531.226,-86 526.226,-84.2501 526.226,-87.7501"/>
</g>
<!-- topo.base.projection.OrMask -->
<g id="node6" class="node"><title>topo.base.projection.OrMask</title>
<polygon fill="none" stroke="black" stroke-width="0.5" points="936,-191.5 782,-191.5 782,-170.5 936,-170.5 936,-191.5"/>
<text text-anchor="middle" x="859" y="-178.5" font-family="Vera" font-size="10.00">topo.base.projection.OrMask</text>
</g>
<!-- topo.base.projection.CompositeSheetMask&#45;&gt;topo.base.projection.OrMask -->
<g id="edge6" class="edge"><title>topo.base.projection.CompositeSheetMask&#45;&gt;topo.base.projection.OrMask</title>
<path fill="none" stroke="black" stroke-width="0.5" d="M725.746,-170.666C742.902,-171.996 760.341,-173.349 776.704,-174.618"/>
<polygon fill="black" stroke="black" points="776.625,-176.367 781.746,-175.009 776.896,-172.877 776.625,-176.367"/>
</g>
<!-- topo.base.projection.AndMask -->
<g id="node19" class="node"><title>topo.base.projection.AndMask</title>
<polygon fill="none" stroke="black" stroke-width="0.5" points="939,-153.5 779,-153.5 779,-132.5 939,-132.5 939,-153.5"/>
<text text-anchor="middle" x="859" y="-140.5" font-family="Vera" font-size="10.00">topo.base.projection.AndMask</text>
</g>
<!-- topo.base.projection.CompositeSheetMask&#45;&gt;topo.base.projection.AndMask -->
<g id="edge18" class="edge"><title>topo.base.projection.CompositeSheetMask&#45;&gt;topo.base.projection.AndMask</title>
<path fill="none" stroke="black" stroke-width="0.5" d="M725.746,-153.334C741.62,-152.103 757.737,-150.853 773.019,-149.668"/>
<polygon fill="black" stroke="black" points="773.318,-151.4 778.168,-149.269 773.047,-147.911 773.318,-151.4"/>
</g>
<!-- topo.base.sheet.Sheet -->
<g id="node14" class="node"><title>topo.base.sheet.Sheet</title>
<polygon fill="none" stroke="black" stroke-width="0.5" points="677,-39.5 551,-39.5 551,-18.5 677,-18.5 677,-39.5"/>
<text text-anchor="middle" x="614" y="-26.5" font-family="Vera" font-size="10.00">topo.base.sheet.Sheet</text>
</g>
<!-- topo.base.simulation.EventProcessor&#45;&gt;topo.base.sheet.Sheet -->
<g id="edge14" class="edge"><title>topo.base.simulation.EventProcessor&#45;&gt;topo.base.sheet.Sheet</title>
<path fill="none" stroke="black" stroke-width="0.5" d="M445.161,-41.0599C478.411,-38.6849 514.89,-36.0793 545.406,-33.8995"/>
<polygon fill="black" stroke="black" points="545.778,-35.6275 550.641,-33.5257 545.529,-32.1364 545.778,-35.6275"/>
</g>
<!-- topo.base.projection.ProjectionSheet -->
<g id="node13" class="node"><title>topo.base.projection.ProjectionSheet</title>
<polygon fill="none" stroke="black" stroke-width="0.5" points="956,-39.5 762,-39.5 762,-18.5 956,-18.5 956,-39.5"/>
<text text-anchor="middle" x="859" y="-26.5" font-family="Vera" font-size="10.00">topo.base.projection.ProjectionSheet</text>
</g>
<!-- topo.base.sheet.Sheet&#45;&gt;topo.base.projection.ProjectionSheet -->
<g id="edge12" class="edge"><title>topo.base.sheet.Sheet&#45;&gt;topo.base.projection.ProjectionSheet</title>
<path fill="none" stroke="black" stroke-width="0.5" d="M677.094,-29C701.386,-29 729.79,-29 756.834,-29"/>
<polygon fill="black" stroke="black" points="756.867,-30.7501 761.867,-29 756.867,-27.2501 756.867,-30.7501"/>
</g>
<!-- imagen.sheetcoords.SheetCoordinateSystem -->
<g id="node17" class="node"><title>imagen.sheetcoords.SheetCoordinateSystem</title>
<polygon fill="none" stroke="black" stroke-width="0.5" points="466,-20.5 230,-20.5 230,0.5 466,0.5 466,-20.5"/>
<text text-anchor="middle" x="348" y="-7.5" font-family="Vera" font-size="10.00">imagen.sheetcoords.SheetCoordinateSystem</text>
</g>
<!-- imagen.sheetcoords.SheetCoordinateSystem&#45;&gt;topo.base.sheet.Sheet -->
<g id="edge16" class="edge"><title>imagen.sheetcoords.SheetCoordinateSystem&#45;&gt;topo.base.sheet.Sheet</title>
<path fill="none" stroke="black" stroke-width="0.5" d="M466.221,-18.4443C493.424,-20.3874 521.462,-22.3902 545.708,-24.122"/>
<polygon fill="black" stroke="black" points="545.71,-25.8765 550.822,-24.4873 545.959,-22.3854 545.71,-25.8765"/>
</g>
</g>
</svg>
