<?xml version="1.0" encoding="UTF-8" standalone="no"?>
<!DOCTYPE svg PUBLIC "-//W3C//DTD SVG 1.1//EN"
 "http://www.w3.org/Graphics/SVG/1.1/DTD/svg11.dtd">
<!-- Generated by graphviz version 2.26.3 (20100126.1600)
 -->
<!-- Title: inheritance380e6ccf80 Pages: 1 -->
<svg width="802pt" height="180pt"
 viewBox="0.00 0.00 802.00 180.00" xmlns="http://www.w3.org/2000/svg" xmlns:xlink="http://www.w3.org/1999/xlink">
<g id="graph1" class="graph" transform="scale(1 1) rotate(0) translate(4 176)">
<title>inheritance380e6ccf80</title>
<polygon fill="white" stroke="white" points="-4,5 -4,-176 799,-176 799,5 -4,5"/>
<!-- imagen.boundingregion.AARectangle -->
<g id="node1" class="node"><title>imagen.boundingregion.AARectangle</title>
<polygon fill="none" stroke="black" stroke-width="0.5" points="201,-20.5 9,-20.5 9,0.5 201,0.5 201,-20.5"/>
<text text-anchor="middle" x="105" y="-7.5" font-family="Vera" font-size="10.00">imagen.boundingregion.AARectangle</text>
</g>
<!-- imagen.boundingregion.BoundingCircle -->
<g id="node2" class="node"><title>imagen.boundingregion.BoundingCircle</title>
<polygon fill="none" stroke="black" stroke-width="0.5" points="478,-96.5 274,-96.5 274,-75.5 478,-75.5 478,-96.5"/>
<text text-anchor="middle" x="376" y="-83.5" font-family="Vera" font-size="10.00">imagen.boundingregion.BoundingCircle</text>
</g>
<!-- imagen.boundingregion.BoundingRegion -->
<g id="node3" class="node"><title>imagen.boundingregion.BoundingRegion</title>
<polygon fill="none" stroke="black" stroke-width="0.5" points="209,-58.5 1,-58.5 1,-37.5 209,-37.5 209,-58.5"/>
<text text-anchor="middle" x="105" y="-45.5" font-family="Vera" font-size="10.00">imagen.boundingregion.BoundingRegion</text>
</g>
<!-- imagen.boundingregion.BoundingRegion&#45;&gt;imagen.boundingregion.BoundingCircle -->
<g id="edge2" class="edge"><title>imagen.boundingregion.BoundingRegion&#45;&gt;imagen.boundingregion.BoundingCircle</title>
<path fill="none" stroke="black" stroke-width="0.5" d="M176.557,-58.0338C214.376,-63.3369 260.819,-69.8491 299.369,-75.2547"/>
<polygon fill="black" stroke="black" points="299.318,-77.0146 304.513,-75.976 299.804,-73.5485 299.318,-77.0146"/>
</g>
<!-- imagen.boundingregion.BoundingBox -->
<g id="node6" class="node"><title>imagen.boundingregion.BoundingBox</title>
<polygon fill="none" stroke="black" stroke-width="0.5" points="474,-58.5 278,-58.5 278,-37.5 474,-37.5 474,-58.5"/>
<text text-anchor="middle" x="376" y="-45.5" font-family="Vera" font-size="10.00">imagen.boundingregion.BoundingBox</text>
</g>
<!-- imagen.boundingregion.BoundingRegion&#45;&gt;imagen.boundingregion.BoundingBox -->
<g id="edge4" class="edge"><title>imagen.boundingregion.BoundingRegion&#45;&gt;imagen.boundingregion.BoundingBox</title>
<path fill="none" stroke="black" stroke-width="0.5" d="M209.776,-48C230.372,-48 251.968,-48 272.521,-48"/>
<polygon fill="black" stroke="black" points="272.723,-49.7501 277.723,-48 272.723,-46.2501 272.723,-49.7501"/>
</g>
<!-- imagen.boundingregion.Unbounded -->
<g id="node12" class="node"><title>imagen.boundingregion.Unbounded</title>
<polygon fill="none" stroke="black" stroke-width="0.5" points="470,-20.5 282,-20.5 282,0.5 470,0.5 470,-20.5"/>
<text text-anchor="middle" x="376" y="-7.5" font-family="Vera" font-size="10.00">imagen.boundingregion.Unbounded</text>
</g>
<!-- imagen.boundingregion.BoundingRegion&#45;&gt;imagen.boundingregion.Unbounded -->
<g id="edge10" class="edge"><title>imagen.boundingregion.BoundingRegion&#45;&gt;imagen.boundingregion.Unbounded</title>
<path fill="none" stroke="black" stroke-width="0.5" d="M176.557,-37.9662C214.376,-32.6631 260.819,-26.1509 299.369,-20.7453"/>
<polygon fill="black" stroke="black" points="299.804,-22.4515 304.513,-20.024 299.318,-18.9854 299.804,-22.4515"/>
</g>
<!-- param.parameterized.Parameter -->
<g id="node5" class="node"><title>param.parameterized.Parameter</title>
<polygon fill="none" stroke="black" stroke-width="0.5" points="192,-153.5 18,-153.5 18,-132.5 192,-132.5 192,-153.5"/>
<text text-anchor="middle" x="105" y="-140.5" font-family="Vera" font-size="10.00">param.parameterized.Parameter</text>
</g>
<!-- imagen.boundingregion.BoundingRegionParameter -->
<g id="node10" class="node"><title>imagen.boundingregion.BoundingRegionParameter</title>
<polygon fill="none" stroke="black" stroke-width="0.5" points="506,-172.5 246,-172.5 246,-151.5 506,-151.5 506,-172.5"/>
<text text-anchor="middle" x="376" y="-159.5" font-family="Vera" font-size="10.00">imagen.boundingregion.BoundingRegionParameter</text>
</g>
<!-- param.parameterized.Parameter&#45;&gt;imagen.boundingregion.BoundingRegionParameter -->
<g id="edge8" class="edge"><title>param.parameterized.Parameter&#45;&gt;imagen.boundingregion.BoundingRegionParameter</title>
<path fill="none" stroke="black" stroke-width="0.5" d="M192.612,-149.143C208.028,-150.223 224.392,-151.371 240.752,-152.518"/>
<polygon fill="black" stroke="black" points="240.718,-154.27 245.828,-152.874 240.963,-150.778 240.718,-154.27"/>
</g>
<!-- imagen.boundingregion.Cartesian2DPoint -->
<g id="node14" class="node"><title>imagen.boundingregion.Cartesian2DPoint</title>
<polygon fill="none" stroke="black" stroke-width="0.5" points="484,-134.5 268,-134.5 268,-113.5 484,-113.5 484,-134.5"/>
<text text-anchor="middle" x="376" y="-121.5" font-family="Vera" font-size="10.00">imagen.boundingregion.Cartesian2DPoint</text>
</g>
<!-- param.parameterized.Parameter&#45;&gt;imagen.boundingregion.Cartesian2DPoint -->
<g id="edge12" class="edge"><title>param.parameterized.Parameter&#45;&gt;imagen.boundingregion.Cartesian2DPoint</title>
<path fill="none" stroke="black" stroke-width="0.5" d="M192.612,-136.857C214.989,-135.289 239.367,-133.579 262.826,-131.935"/>
<polygon fill="black" stroke="black" points="262.952,-133.68 267.817,-131.585 262.707,-130.189 262.952,-133.68"/>
</g>
<!-- imagen.boundingregion.BoundingEllipse -->
<g id="node8" class="node"><title>imagen.boundingregion.BoundingEllipse</title>
<polygon fill="none" stroke="black" stroke-width="0.5" points="772,-77.5 564,-77.5 564,-56.5 772,-56.5 772,-77.5"/>
<text text-anchor="middle" x="668" y="-64.5" font-family="Vera" font-size="10.00">imagen.boundingregion.BoundingEllipse</text>
</g>
<!-- imagen.boundingregion.BoundingBox&#45;&gt;imagen.boundingregion.BoundingEllipse -->
<g id="edge6" class="edge"><title>imagen.boundingregion.BoundingBox&#45;&gt;imagen.boundingregion.BoundingEllipse</title>
<path fill="none" stroke="black" stroke-width="0.5" d="M474.044,-54.3796C501.262,-56.1506 530.98,-58.0843 558.793,-59.8941"/>
<polygon fill="black" stroke="black" points="558.86,-61.6521 563.964,-60.2305 559.088,-58.1594 558.86,-61.6521"/>
</g>
<!-- imagen.boundingregion.BoundingBoxIntersection -->
<g id="node16" class="node"><title>imagen.boundingregion.BoundingBoxIntersection</title>
<polygon fill="none" stroke="black" stroke-width="0.5" points="794,-39.5 542,-39.5 542,-18.5 794,-18.5 794,-39.5"/>
<text text-anchor="middle" x="668" y="-26.5" font-family="Vera" font-size="10.00">imagen.boundingregion.BoundingBoxIntersection</text>
</g>
<!-- imagen.boundingregion.BoundingBox&#45;&gt;imagen.boundingregion.BoundingBoxIntersection -->
<g id="edge14" class="edge"><title>imagen.boundingregion.BoundingBox&#45;&gt;imagen.boundingregion.BoundingBoxIntersection</title>
<path fill="none" stroke="black" stroke-width="0.5" d="M474.044,-41.6204C494.214,-40.308 515.758,-38.9062 536.882,-37.5316"/>
<polygon fill="black" stroke="black" points="537.078,-39.2727 541.953,-37.2017 536.85,-35.7801 537.078,-39.2727"/>
</g>
</g>
</svg>
