<?xml version="1.0" encoding="UTF-8" standalone="no"?>
<!DOCTYPE svg PUBLIC "-//W3C//DTD SVG 1.1//EN"
 "http://www.w3.org/Graphics/SVG/1.1/DTD/svg11.dtd">
<!-- Generated by graphviz version 2.26.3 (20100126.1600)
 -->
<!-- Title: inheritancebe3ab90ace Pages: 1 -->
<svg width="950pt" height="484pt"
 viewBox="0.00 0.00 950.00 484.00" xmlns="http://www.w3.org/2000/svg" xmlns:xlink="http://www.w3.org/1999/xlink">
<g id="graph1" class="graph" transform="scale(1 1) rotate(0) translate(4 480)">
<title>inheritancebe3ab90ace</title>
<polygon fill="white" stroke="white" points="-4,5 -4,-480 947,-480 947,5 -4,5"/>
<!-- topo.coordmapper.Scale2d -->
<g id="node1" class="node"><title>topo.coordmapper.Scale2d</title>
<polygon fill="none" stroke="black" stroke-width="0.5" points="909,-476 771,-476 771,-456 909,-456 909,-476"/>
<text text-anchor="middle" x="840" y="-463" font-family="Vera" font-size="10.00">topo.coordmapper.Scale2d</text>
</g>
<!-- topo.coordmapper.AffineTransform -->
<g id="node2" class="node"><title>topo.coordmapper.AffineTransform</title>
<polygon fill="none" stroke="black" stroke-width="0.5" points="683,-419 505,-419 505,-399 683,-399 683,-419"/>
<text text-anchor="middle" x="594" y="-406" font-family="Vera" font-size="10.00">topo.coordmapper.AffineTransform</text>
</g>
<!-- topo.coordmapper.AffineTransform&#45;&gt;topo.coordmapper.Scale2d -->
<g id="edge2" class="edge"><title>topo.coordmapper.AffineTransform&#45;&gt;topo.coordmapper.Scale2d</title>
<path fill="none" stroke="black" stroke-width="0.5" d="M629.034,-419.02C658.084,-427.142 700.539,-438.58 738,-447 750.567,-449.825 764.072,-452.554 777.01,-455.02"/>
<polygon fill="black" stroke="black" points="776.891,-456.779 782.129,-455.988 777.541,-453.34 776.891,-456.779"/>
</g>
<!-- topo.coordmapper.Rotate2d -->
<g id="node22" class="node"><title>topo.coordmapper.Rotate2d</title>
<polygon fill="none" stroke="black" stroke-width="0.5" points="912,-438 768,-438 768,-418 912,-418 912,-438"/>
<text text-anchor="middle" x="840" y="-425" font-family="Vera" font-size="10.00">topo.coordmapper.Rotate2d</text>
</g>
<!-- topo.coordmapper.AffineTransform&#45;&gt;topo.coordmapper.Rotate2d -->
<g id="edge20" class="edge"><title>topo.coordmapper.AffineTransform&#45;&gt;topo.coordmapper.Rotate2d</title>
<path fill="none" stroke="black" stroke-width="0.5" d="M683.508,-415.913C709.287,-417.904 737.191,-420.059 762.199,-421.991"/>
<polygon fill="black" stroke="black" points="762.37,-423.759 767.49,-422.4 762.64,-420.27 762.37,-423.759"/>
</g>
<!-- topo.coordmapper.Translate2d -->
<g id="node26" class="node"><title>topo.coordmapper.Translate2d</title>
<polygon fill="none" stroke="black" stroke-width="0.5" points="919,-400 761,-400 761,-380 919,-380 919,-400"/>
<text text-anchor="middle" x="840" y="-387" font-family="Vera" font-size="10.00">topo.coordmapper.Translate2d</text>
</g>
<!-- topo.coordmapper.AffineTransform&#45;&gt;topo.coordmapper.Translate2d -->
<g id="edge24" class="edge"><title>topo.coordmapper.AffineTransform&#45;&gt;topo.coordmapper.Translate2d</title>
<path fill="none" stroke="black" stroke-width="0.5" d="M683.508,-402.087C707.008,-400.272 732.274,-398.32 755.502,-396.526"/>
<polygon fill="black" stroke="black" points="755.885,-398.252 760.736,-396.122 755.616,-394.762 755.885,-398.252"/>
</g>
<!-- topo.base.functionfamily.CoordinateMapperFn -->
<g id="node4" class="node"><title>topo.base.functionfamily.CoordinateMapperFn</title>
<polygon fill="none" stroke="black" stroke-width="0.5" points="449,-191 221,-191 221,-171 449,-171 449,-191"/>
<text text-anchor="middle" x="335" y="-178" font-family="Vera" font-size="10.00">topo.base.functionfamily.CoordinateMapperFn</text>
</g>
<!-- topo.base.functionfamily.CoordinateMapperFn&#45;&gt;topo.coordmapper.AffineTransform -->
<g id="edge4" class="edge"><title>topo.base.functionfamily.CoordinateMapperFn&#45;&gt;topo.coordmapper.AffineTransform</title>
<path fill="none" stroke="black" stroke-width="0.5" d="M343.982,-191.209C366.555,-216.597 428.009,-284.06 486,-333 514.911,-357.398 551.419,-381.918 573.721,-396.266"/>
<polygon fill="black" stroke="black" points="572.831,-397.775 577.986,-398.997 574.719,-394.827 572.831,-397.775"/>
</g>
<!-- topo.coordmapper.OttesSCMapper -->
<g id="node6" class="node"><title>topo.coordmapper.OttesSCMapper</title>
<polygon fill="none" stroke="black" stroke-width="0.5" points="682,-324 506,-324 506,-304 682,-304 682,-324"/>
<text text-anchor="middle" x="594" y="-311" font-family="Vera" font-size="10.00">topo.coordmapper.OttesSCMapper</text>
</g>
<!-- topo.base.functionfamily.CoordinateMapperFn&#45;&gt;topo.coordmapper.OttesSCMapper -->
<g id="edge6" class="edge"><title>topo.base.functionfamily.CoordinateMapperFn&#45;&gt;topo.coordmapper.OttesSCMapper</title>
<path fill="none" stroke="black" stroke-width="0.5" d="M344.868,-191.216C367.482,-213.953 425.761,-268.789 486,-295 492.808,-297.962 500.049,-300.463 507.431,-302.574"/>
<polygon fill="black" stroke="black" points="507.277,-304.346 512.562,-303.974 508.199,-300.97 507.277,-304.346"/>
</g>
<!-- topo.coordmapper.SingleDimensionMapper -->
<g id="node11" class="node"><title>topo.coordmapper.SingleDimensionMapper</title>
<polygon fill="none" stroke="black" stroke-width="0.5" points="702,-286 486,-286 486,-266 702,-266 702,-286"/>
<text text-anchor="middle" x="594" y="-273" font-family="Vera" font-size="10.00">topo.coordmapper.SingleDimensionMapper</text>
</g>
<!-- topo.base.functionfamily.CoordinateMapperFn&#45;&gt;topo.coordmapper.SingleDimensionMapper -->
<g id="edge26" class="edge"><title>topo.base.functionfamily.CoordinateMapperFn&#45;&gt;topo.coordmapper.SingleDimensionMapper</title>
<path fill="none" stroke="black" stroke-width="0.5" d="M351.074,-191.085C377.953,-207.483 434.187,-239.817 486,-257 495.233,-260.062 505.082,-262.658 514.934,-264.853"/>
<polygon fill="black" stroke="black" points="514.827,-266.62 520.083,-265.965 515.565,-263.199 514.827,-266.62"/>
</g>
<!-- topo.coordmapper.Polar2Cartesian -->
<g id="node13" class="node"><title>topo.coordmapper.Polar2Cartesian</title>
<polygon fill="none" stroke="black" stroke-width="0.5" points="682,-248 506,-248 506,-228 682,-228 682,-248"/>
<text text-anchor="middle" x="594" y="-235" font-family="Vera" font-size="10.00">topo.coordmapper.Polar2Cartesian</text>
</g>
<!-- topo.base.functionfamily.CoordinateMapperFn&#45;&gt;topo.coordmapper.Polar2Cartesian -->
<g id="edge12" class="edge"><title>topo.base.functionfamily.CoordinateMapperFn&#45;&gt;topo.coordmapper.Polar2Cartesian</title>
<path fill="none" stroke="black" stroke-width="0.5" d="M371.749,-191.041C402.219,-199.174 446.741,-210.618 486,-219 499.348,-221.85 513.691,-224.594 527.424,-227.067"/>
<polygon fill="black" stroke="black" points="527.223,-228.809 532.453,-227.966 527.839,-225.364 527.223,-228.809"/>
</g>
<!-- topo.coordmapper.ConstantMapper -->
<g id="node16" class="node"><title>topo.coordmapper.ConstantMapper</title>
<polygon fill="none" stroke="black" stroke-width="0.5" points="684,-210 504,-210 504,-190 684,-190 684,-210"/>
<text text-anchor="middle" x="594" y="-197" font-family="Vera" font-size="10.00">topo.coordmapper.ConstantMapper</text>
</g>
<!-- topo.base.functionfamily.CoordinateMapperFn&#45;&gt;topo.coordmapper.ConstantMapper -->
<g id="edge14" class="edge"><title>topo.base.functionfamily.CoordinateMapperFn&#45;&gt;topo.coordmapper.ConstantMapper</title>
<path fill="none" stroke="black" stroke-width="0.5" d="M449.732,-189.417C465.901,-190.603 482.38,-191.812 498.145,-192.968"/>
<polygon fill="black" stroke="black" points="498.347,-194.738 503.462,-193.358 498.603,-191.247 498.347,-194.738"/>
</g>
<!-- topo.coordmapper.NormalJitter -->
<g id="node20" class="node"><title>topo.coordmapper.NormalJitter</title>
<polygon fill="none" stroke="black" stroke-width="0.5" points="674,-172 514,-172 514,-152 674,-152 674,-172"/>
<text text-anchor="middle" x="594" y="-159" font-family="Vera" font-size="10.00">topo.coordmapper.NormalJitter</text>
</g>
<!-- topo.base.functionfamily.CoordinateMapperFn&#45;&gt;topo.coordmapper.NormalJitter -->
<g id="edge18" class="edge"><title>topo.base.functionfamily.CoordinateMapperFn&#45;&gt;topo.coordmapper.NormalJitter</title>
<path fill="none" stroke="black" stroke-width="0.5" d="M449.732,-172.583C469.521,-171.132 489.776,-169.646 508.616,-168.264"/>
<polygon fill="black" stroke="black" points="509.032,-169.988 513.891,-167.877 508.776,-166.497 509.032,-169.988"/>
</g>
<!-- topo.coordmapper.Jitter -->
<g id="node24" class="node"><title>topo.coordmapper.Jitter</title>
<polygon fill="none" stroke="black" stroke-width="0.5" points="657,-134 531,-134 531,-114 657,-114 657,-134"/>
<text text-anchor="middle" x="594" y="-121" font-family="Vera" font-size="10.00">topo.coordmapper.Jitter</text>
</g>
<!-- topo.base.functionfamily.CoordinateMapperFn&#45;&gt;topo.coordmapper.Jitter -->
<g id="edge22" class="edge"><title>topo.base.functionfamily.CoordinateMapperFn&#45;&gt;topo.coordmapper.Jitter</title>
<path fill="none" stroke="black" stroke-width="0.5" d="M371.749,-170.959C402.219,-162.826 446.741,-151.382 486,-143 499.348,-140.15 513.691,-137.406 527.424,-134.933"/>
<polygon fill="black" stroke="black" points="527.839,-136.636 532.453,-134.034 527.223,-133.191 527.839,-136.636"/>
</g>
<!-- topo.coordmapper.Cartesian2Polar -->
<g id="node31" class="node"><title>topo.coordmapper.Cartesian2Polar</title>
<polygon fill="none" stroke="black" stroke-width="0.5" points="682,-96 506,-96 506,-76 682,-76 682,-96"/>
<text text-anchor="middle" x="594" y="-83" font-family="Vera" font-size="10.00">topo.coordmapper.Cartesian2Polar</text>
</g>
<!-- topo.base.functionfamily.CoordinateMapperFn&#45;&gt;topo.coordmapper.Cartesian2Polar -->
<g id="edge30" class="edge"><title>topo.base.functionfamily.CoordinateMapperFn&#45;&gt;topo.coordmapper.Cartesian2Polar</title>
<path fill="none" stroke="black" stroke-width="0.5" d="M351.074,-170.915C377.953,-154.517 434.187,-122.183 486,-105 495.233,-101.938 505.082,-99.3416 514.934,-97.1467"/>
<polygon fill="black" stroke="black" points="515.565,-98.8009 520.083,-96.0351 514.827,-95.3797 515.565,-98.8009"/>
</g>
<!-- topo.coordmapper.Pipeline -->
<g id="node33" class="node"><title>topo.coordmapper.Pipeline</title>
<polygon fill="none" stroke="black" stroke-width="0.5" points="664,-58 524,-58 524,-38 664,-38 664,-58"/>
<text text-anchor="middle" x="594" y="-45" font-family="Vera" font-size="10.00">topo.coordmapper.Pipeline</text>
</g>
<!-- topo.base.functionfamily.CoordinateMapperFn&#45;&gt;topo.coordmapper.Pipeline -->
<g id="edge32" class="edge"><title>topo.base.functionfamily.CoordinateMapperFn&#45;&gt;topo.coordmapper.Pipeline</title>
<path fill="none" stroke="black" stroke-width="0.5" d="M344.868,-170.784C367.482,-148.047 425.761,-93.2111 486,-67 496.143,-62.5867 507.245,-59.198 518.348,-56.5961"/>
<polygon fill="black" stroke="black" points="518.949,-58.255 523.446,-55.4552 518.185,-54.8394 518.949,-58.255"/>
</g>
<!-- topo.coordmapper.Grid -->
<g id="node36" class="node"><title>topo.coordmapper.Grid</title>
<polygon fill="none" stroke="black" stroke-width="0.5" points="656,-20 532,-20 532,-1.06581e-14 656,-3.55271e-15 656,-20"/>
<text text-anchor="middle" x="594" y="-7" font-family="Vera" font-size="10.00">topo.coordmapper.Grid</text>
</g>
<!-- topo.base.functionfamily.CoordinateMapperFn&#45;&gt;topo.coordmapper.Grid -->
<g id="edge36" class="edge"><title>topo.base.functionfamily.CoordinateMapperFn&#45;&gt;topo.coordmapper.Grid</title>
<path fill="none" stroke="black" stroke-width="0.5" d="M341.702,-170.751C360.601,-142.778 417.424,-64.8252 486,-29 498.474,-22.4836 512.749,-18.1462 526.745,-15.2729"/>
<polygon fill="black" stroke="black" points="527.308,-16.9465 531.885,-14.2792 526.643,-13.5101 527.308,-16.9465"/>
</g>
<!-- topo.coordmapper.OttesSCMotorMapper -->
<g id="node8" class="node"><title>topo.coordmapper.OttesSCMotorMapper</title>
<polygon fill="none" stroke="black" stroke-width="0.5" points="941,-362 739,-362 739,-342 941,-342 941,-362"/>
<text text-anchor="middle" x="840" y="-349" font-family="Vera" font-size="10.00">topo.coordmapper.OttesSCMotorMapper</text>
</g>
<!-- topo.coordmapper.OttesSCMapper&#45;&gt;topo.coordmapper.OttesSCMotorMapper -->
<g id="edge8" class="edge"><title>topo.coordmapper.OttesSCMapper&#45;&gt;topo.coordmapper.OttesSCMotorMapper</title>
<path fill="none" stroke="black" stroke-width="0.5" d="M658.955,-324.034C693.146,-329.315 735.1,-335.796 770.01,-341.189"/>
<polygon fill="black" stroke="black" points="769.899,-342.942 775.107,-341.976 770.433,-339.483 769.899,-342.942"/>
</g>
<!-- topo.coordmapper.OttesSCSenseMapper -->
<g id="node18" class="node"><title>topo.coordmapper.OttesSCSenseMapper</title>
<polygon fill="none" stroke="black" stroke-width="0.5" points="941,-324 739,-324 739,-304 941,-304 941,-324"/>
<text text-anchor="middle" x="840" y="-311" font-family="Vera" font-size="10.00">topo.coordmapper.OttesSCSenseMapper</text>
</g>
<!-- topo.coordmapper.OttesSCMapper&#45;&gt;topo.coordmapper.OttesSCSenseMapper -->
<g id="edge16" class="edge"><title>topo.coordmapper.OttesSCMapper&#45;&gt;topo.coordmapper.OttesSCSenseMapper</title>
<path fill="none" stroke="black" stroke-width="0.5" d="M682.117,-314C698.734,-314 716.277,-314 733.389,-314"/>
<polygon fill="black" stroke="black" points="733.685,-315.75 738.685,-314 733.685,-312.25 733.685,-315.75"/>
</g>
<!-- topo.coordmapper.ReducingMapper -->
<g id="node10" class="node"><title>topo.coordmapper.ReducingMapper</title>
<polygon fill="none" stroke="black" stroke-width="0.5" points="931,-286 749,-286 749,-266 931,-266 931,-286"/>
<text text-anchor="middle" x="840" y="-273" font-family="Vera" font-size="10.00">topo.coordmapper.ReducingMapper</text>
</g>
<!-- topo.coordmapper.SingleDimensionMapper&#45;&gt;topo.coordmapper.ReducingMapper -->
<g id="edge10" class="edge"><title>topo.coordmapper.SingleDimensionMapper&#45;&gt;topo.coordmapper.ReducingMapper</title>
<path fill="none" stroke="black" stroke-width="0.5" d="M702.257,-276C716.149,-276 730.295,-276 743.972,-276"/>
<polygon fill="black" stroke="black" points="743.989,-277.75 748.989,-276 743.989,-274.25 743.989,-277.75"/>
</g>
<!-- topo.coordmapper.MagnifyingMapper -->
<g id="node29" class="node"><title>topo.coordmapper.MagnifyingMapper</title>
<polygon fill="none" stroke="black" stroke-width="0.5" points="935,-248 745,-248 745,-228 935,-228 935,-248"/>
<text text-anchor="middle" x="840" y="-235" font-family="Vera" font-size="10.00">topo.coordmapper.MagnifyingMapper</text>
</g>
<!-- topo.coordmapper.SingleDimensionMapper&#45;&gt;topo.coordmapper.MagnifyingMapper -->
<g id="edge28" class="edge"><title>topo.coordmapper.SingleDimensionMapper&#45;&gt;topo.coordmapper.MagnifyingMapper</title>
<path fill="none" stroke="black" stroke-width="0.5" d="M658.955,-265.966C693.146,-260.685 735.1,-254.204 770.01,-248.811"/>
<polygon fill="black" stroke="black" points="770.433,-250.517 775.107,-248.024 769.899,-247.058 770.433,-250.517"/>
</g>
<!-- param.parameterized.Parameterized -->
<g id="node15" class="node"><title>param.parameterized.Parameterized</title>
<polygon fill="none" stroke="black" stroke-width="0.5" points="184,-191 8.52651e-14,-191 0,-171 184,-171 184,-191"/>
<text text-anchor="middle" x="92" y="-178" font-family="Vera" font-size="10.00">param.parameterized.Parameterized</text>
</g>
<!-- param.parameterized.Parameterized&#45;&gt;topo.base.functionfamily.CoordinateMapperFn -->
<g id="edge34" class="edge"><title>param.parameterized.Parameterized&#45;&gt;topo.base.functionfamily.CoordinateMapperFn</title>
<path fill="none" stroke="black" stroke-width="0.5" d="M184.214,-181C194.368,-181 204.812,-181 215.239,-181"/>
<polygon fill="black" stroke="black" points="215.355,-182.75 220.354,-181 215.354,-179.25 215.355,-182.75"/>
</g>
</g>
</svg>
