<?xml version="1.0" encoding="UTF-8" standalone="no"?>
<!DOCTYPE svg PUBLIC "-//W3C//DTD SVG 1.1//EN"
 "http://www.w3.org/Graphics/SVG/1.1/DTD/svg11.dtd">
<!-- Generated by graphviz version 2.26.3 (20100126.1600)
 -->
<!-- Title: inheritance6b99715b23 Pages: 1 -->
<svg width="1348pt" height="123pt"
 viewBox="0.00 0.00 1348.00 123.00" xmlns="http://www.w3.org/2000/svg" xmlns:xlink="http://www.w3.org/1999/xlink">
<g id="graph1" class="graph" transform="scale(1 1) rotate(0) translate(4 119)">
<title>inheritance6b99715b23</title>
<polygon fill="white" stroke="white" points="-4,5 -4,-119 1345,-119 1345,5 -4,5"/>
<!-- topo.projection.SharedWeightCF -->
<g id="node1" class="node"><title>topo.projection.SharedWeightCF</title>
<polygon fill="none" stroke="black" stroke-width="0.5" points="408,-20.5 238,-20.5 238,0.5 408,0.5 408,-20.5"/>
<text text-anchor="middle" x="323" y="-7.5" font-family="Vera" font-size="10.00">topo.projection.SharedWeightCF</text>
</g>
<!-- topo.base.cf.ConnectionField -->
<g id="node2" class="node"><title>topo.base.cf.ConnectionField</title>
<polygon fill="none" stroke="black" stroke-width="0.5" points="173,-20.5 21,-20.5 21,0.5 173,0.5 173,-20.5"/>
<text text-anchor="middle" x="97" y="-7.5" font-family="Vera" font-size="10.00">topo.base.cf.ConnectionField</text>
</g>
<!-- topo.base.cf.ConnectionField&#45;&gt;topo.projection.SharedWeightCF -->
<g id="edge2" class="edge"><title>topo.base.cf.ConnectionField&#45;&gt;topo.projection.SharedWeightCF</title>
<path fill="none" stroke="black" stroke-width="0.5" d="M173.513,-10C192.358,-10 212.72,-10 232.17,-10"/>
<polygon fill="black" stroke="black" points="232.63,-11.7501 237.63,-10 232.63,-8.25009 232.63,-11.7501"/>
</g>
<!-- topo.projection.SharedWeightCFProjection -->
<g id="node4" class="node"><title>topo.projection.SharedWeightCFProjection</title>
<polygon fill="none" stroke="black" stroke-width="0.5" points="1123,-115.5 907,-115.5 907,-94.5 1123,-94.5 1123,-115.5"/>
<text text-anchor="middle" x="1015" y="-102.5" font-family="Vera" font-size="10.00">topo.projection.SharedWeightCFProjection</text>
</g>
<!-- topo.base.cf.CFProjection -->
<g id="node5" class="node"><title>topo.base.cf.CFProjection</title>
<polygon fill="none" stroke="black" stroke-width="0.5" points="844,-77.5 708,-77.5 708,-56.5 844,-56.5 844,-77.5"/>
<text text-anchor="middle" x="776" y="-64.5" font-family="Vera" font-size="10.00">topo.base.cf.CFProjection</text>
</g>
<!-- topo.base.cf.CFProjection&#45;&gt;topo.projection.SharedWeightCFProjection -->
<g id="edge4" class="edge"><title>topo.base.cf.CFProjection&#45;&gt;topo.projection.SharedWeightCFProjection</title>
<path fill="none" stroke="black" stroke-width="0.5" d="M839.107,-77.0338C872.325,-82.3152 913.085,-88.796 947.001,-94.1885"/>
<polygon fill="black" stroke="black" points="946.741,-95.919 951.954,-94.976 947.291,-92.4625 946.741,-95.919"/>
</g>
<!-- topo.base.cf.ResizableCFProjection -->
<g id="node8" class="node"><title>topo.base.cf.ResizableCFProjection</title>
<polygon fill="none" stroke="black" stroke-width="0.5" points="1106,-77.5 924,-77.5 924,-56.5 1106,-56.5 1106,-77.5"/>
<text text-anchor="middle" x="1015" y="-64.5" font-family="Vera" font-size="10.00">topo.base.cf.ResizableCFProjection</text>
</g>
<!-- topo.base.cf.CFProjection&#45;&gt;topo.base.cf.ResizableCFProjection -->
<g id="edge6" class="edge"><title>topo.base.cf.CFProjection&#45;&gt;topo.base.cf.ResizableCFProjection</title>
<path fill="none" stroke="black" stroke-width="0.5" d="M844.808,-67C867.853,-67 893.986,-67 918.735,-67"/>
<polygon fill="black" stroke="black" points="918.994,-68.7501 923.994,-67 918.994,-65.2501 918.994,-68.7501"/>
</g>
<!-- topo.projection.ScaledCFProjection -->
<g id="node16" class="node"><title>topo.projection.ScaledCFProjection</title>
<polygon fill="none" stroke="black" stroke-width="0.5" points="1106,-39.5 924,-39.5 924,-18.5 1106,-18.5 1106,-39.5"/>
<text text-anchor="middle" x="1015" y="-26.5" font-family="Vera" font-size="10.00">topo.projection.ScaledCFProjection</text>
</g>
<!-- topo.base.cf.CFProjection&#45;&gt;topo.projection.ScaledCFProjection -->
<g id="edge14" class="edge"><title>topo.base.cf.CFProjection&#45;&gt;topo.projection.ScaledCFProjection</title>
<path fill="none" stroke="black" stroke-width="0.5" d="M839.107,-56.9662C872.325,-51.6848 913.085,-45.204 947.001,-39.8115"/>
<polygon fill="black" stroke="black" points="947.291,-41.5375 951.954,-39.024 946.741,-38.081 947.291,-41.5375"/>
</g>
<!-- param.parameterized.Parameterized -->
<g id="node7" class="node"><title>param.parameterized.Parameterized</title>
<polygon fill="none" stroke="black" stroke-width="0.5" points="194,-77.5 5.68434e-14,-77.5 0,-56.5 194,-56.5 194,-77.5"/>
<text text-anchor="middle" x="97" y="-64.5" font-family="Vera" font-size="10.00">param.parameterized.Parameterized</text>
</g>
<!-- topo.base.cf.CFPOutputFn -->
<g id="node12" class="node"><title>topo.base.cf.CFPOutputFn</title>
<polygon fill="none" stroke="black" stroke-width="0.5" points="393,-96.5 253,-96.5 253,-75.5 393,-75.5 393,-96.5"/>
<text text-anchor="middle" x="323" y="-83.5" font-family="Vera" font-size="10.00">topo.base.cf.CFPOutputFn</text>
</g>
<!-- param.parameterized.Parameterized&#45;&gt;topo.base.cf.CFPOutputFn -->
<g id="edge10" class="edge"><title>param.parameterized.Parameterized&#45;&gt;topo.base.cf.CFPOutputFn</title>
<path fill="none" stroke="black" stroke-width="0.5" d="M194.156,-75.168C212.045,-76.6719 230.475,-78.2214 247.604,-79.6614"/>
<polygon fill="black" stroke="black" points="247.747,-81.4295 252.876,-80.1046 248.04,-77.9418 247.747,-81.4295"/>
</g>
<!-- topo.base.simulation.EPConnection -->
<g id="node20" class="node"><title>topo.base.simulation.EPConnection</title>
<polygon fill="none" stroke="black" stroke-width="0.5" points="416,-58.5 230,-58.5 230,-37.5 416,-37.5 416,-58.5"/>
<text text-anchor="middle" x="323" y="-45.5" font-family="Vera" font-size="10.00">topo.base.simulation.EPConnection</text>
</g>
<!-- param.parameterized.Parameterized&#45;&gt;topo.base.simulation.EPConnection -->
<g id="edge18" class="edge"><title>param.parameterized.Parameterized&#45;&gt;topo.base.simulation.EPConnection</title>
<path fill="none" stroke="black" stroke-width="0.5" d="M194.156,-58.832C204.334,-57.9763 214.688,-57.1059 224.877,-56.2493"/>
<polygon fill="black" stroke="black" points="225.028,-57.9928 229.864,-55.83 224.735,-54.5051 225.028,-57.9928"/>
</g>
<!-- topo.projection.LeakyCFProjection -->
<g id="node10" class="node"><title>topo.projection.LeakyCFProjection</title>
<polygon fill="none" stroke="black" stroke-width="0.5" points="1339,-77.5 1161,-77.5 1161,-56.5 1339,-56.5 1339,-77.5"/>
<text text-anchor="middle" x="1250" y="-64.5" font-family="Vera" font-size="10.00">topo.projection.LeakyCFProjection</text>
</g>
<!-- topo.base.cf.ResizableCFProjection&#45;&gt;topo.projection.LeakyCFProjection -->
<g id="edge8" class="edge"><title>topo.base.cf.ResizableCFProjection&#45;&gt;topo.projection.LeakyCFProjection</title>
<path fill="none" stroke="black" stroke-width="0.5" d="M1106.19,-67C1122.33,-67 1139.16,-67 1155.39,-67"/>
<polygon fill="black" stroke="black" points="1155.4,-68.7501 1160.4,-67 1155.4,-65.2501 1155.4,-68.7501"/>
</g>
<!-- topo.projection.CFPOF_SharedWeight -->
<g id="node18" class="node"><title>topo.projection.CFPOF_SharedWeight</title>
<polygon fill="none" stroke="black" stroke-width="0.5" points="646,-96.5 452,-96.5 452,-75.5 646,-75.5 646,-96.5"/>
<text text-anchor="middle" x="549" y="-83.5" font-family="Vera" font-size="10.00">topo.projection.CFPOF_SharedWeight</text>
</g>
<!-- topo.base.cf.CFPOutputFn&#45;&gt;topo.projection.CFPOF_SharedWeight -->
<g id="edge16" class="edge"><title>topo.base.cf.CFPOutputFn&#45;&gt;topo.projection.CFPOF_SharedWeight</title>
<path fill="none" stroke="black" stroke-width="0.5" d="M393.269,-86C410.206,-86 428.645,-86 446.715,-86"/>
<polygon fill="black" stroke="black" points="446.801,-87.7501 451.8,-86 446.8,-84.2501 446.801,-87.7501"/>
</g>
<!-- topo.base.projection.Projection -->
<g id="node14" class="node"><title>topo.base.projection.Projection</title>
<polygon fill="none" stroke="black" stroke-width="0.5" points="631,-58.5 467,-58.5 467,-37.5 631,-37.5 631,-58.5"/>
<text text-anchor="middle" x="549" y="-45.5" font-family="Vera" font-size="10.00">topo.base.projection.Projection</text>
</g>
<!-- topo.base.projection.Projection&#45;&gt;topo.base.cf.CFProjection -->
<g id="edge12" class="edge"><title>topo.base.projection.Projection&#45;&gt;topo.base.cf.CFProjection</title>
<path fill="none" stroke="black" stroke-width="0.5" d="M631.594,-54.9132C654.694,-56.8466 679.642,-58.9348 702.197,-60.8227"/>
<polygon fill="black" stroke="black" points="702.143,-62.5742 707.272,-61.2474 702.435,-59.0864 702.143,-62.5742"/>
</g>
<!-- topo.projection.OneToOneProjection -->
<g id="node22" class="node"><title>topo.projection.OneToOneProjection</title>
<polygon fill="none" stroke="black" stroke-width="0.5" points="870,-39.5 682,-39.5 682,-18.5 870,-18.5 870,-39.5"/>
<text text-anchor="middle" x="776" y="-26.5" font-family="Vera" font-size="10.00">topo.projection.OneToOneProjection</text>
</g>
<!-- topo.base.projection.Projection&#45;&gt;topo.projection.OneToOneProjection -->
<g id="edge20" class="edge"><title>topo.base.projection.Projection&#45;&gt;topo.projection.OneToOneProjection</title>
<path fill="none" stroke="black" stroke-width="0.5" d="M631.594,-41.0868C646.286,-39.8571 661.727,-38.5647 676.823,-37.3012"/>
<polygon fill="black" stroke="black" points="677.091,-39.0349 681.928,-36.8739 676.799,-35.5471 677.091,-39.0349"/>
</g>
<!-- topo.base.simulation.EPConnection&#45;&gt;topo.base.projection.Projection -->
<g id="edge22" class="edge"><title>topo.base.simulation.EPConnection&#45;&gt;topo.base.projection.Projection</title>
<path fill="none" stroke="black" stroke-width="0.5" d="M416.228,-48C431.194,-48 446.637,-48 461.464,-48"/>
<polygon fill="black" stroke="black" points="461.467,-49.7501 466.467,-48 461.467,-46.2501 461.467,-49.7501"/>
</g>
</g>
</svg>
