<?xml version="1.0" encoding="UTF-8" standalone="no"?>
<!DOCTYPE svg PUBLIC "-//W3C//DTD SVG 1.1//EN"
 "http://www.w3.org/Graphics/SVG/1.1/DTD/svg11.dtd">
<!-- Generated by graphviz version 2.26.3 (20100126.1600)
 -->
<!-- Title: inheritance814dd881d7 Pages: 1 -->
<svg width="874pt" height="180pt"
 viewBox="0.00 0.00 874.00 180.00" xmlns="http://www.w3.org/2000/svg" xmlns:xlink="http://www.w3.org/1999/xlink">
<g id="graph1" class="graph" transform="scale(1 1) rotate(0) translate(4 176)">
<title>inheritance814dd881d7</title>
<polygon fill="white" stroke="white" points="-4,5 -4,-176 871,-176 871,5 -4,5"/>
<!-- param.parameterized.Parameterized -->
<g id="node1" class="node"><title>param.parameterized.Parameterized</title>
<polygon fill="none" stroke="black" stroke-width="0.5" points="194,-115.5 5.68434e-14,-115.5 0,-94.5 194,-94.5 194,-115.5"/>
<text text-anchor="middle" x="97" y="-102.5" font-family="Vera" font-size="10.00">param.parameterized.Parameterized</text>
</g>
<!-- topo.misc.trace.TraceGroup -->
<g id="node2" class="node"><title>topo.misc.trace.TraceGroup</title>
<polygon fill="none" stroke="black" stroke-width="0.5" points="401,-172.5 253,-172.5 253,-151.5 401,-151.5 401,-172.5"/>
<text text-anchor="middle" x="327" y="-159.5" font-family="Vera" font-size="10.00">topo.misc.trace.TraceGroup</text>
</g>
<!-- param.parameterized.Parameterized&#45;&gt;topo.misc.trace.TraceGroup -->
<g id="edge2" class="edge"><title>param.parameterized.Parameterized&#45;&gt;topo.misc.trace.TraceGroup</title>
<path fill="none" stroke="black" stroke-width="0.5" d="M129.318,-115.066C156.126,-123.215 195.326,-134.667 230,-143 241.68,-145.807 254.224,-148.5 266.288,-150.93"/>
<polygon fill="black" stroke="black" points="266.179,-152.693 271.425,-151.956 266.864,-149.261 266.179,-152.693"/>
</g>
<!-- topo.base.simulation.EventProcessor -->
<g id="node4" class="node"><title>topo.base.simulation.EventProcessor</title>
<polygon fill="none" stroke="black" stroke-width="0.5" points="424,-134.5 230,-134.5 230,-113.5 424,-113.5 424,-134.5"/>
<text text-anchor="middle" x="327" y="-121.5" font-family="Vera" font-size="10.00">topo.base.simulation.EventProcessor</text>
</g>
<!-- param.parameterized.Parameterized&#45;&gt;topo.base.simulation.EventProcessor -->
<g id="edge4" class="edge"><title>param.parameterized.Parameterized&#45;&gt;topo.base.simulation.EventProcessor</title>
<path fill="none" stroke="black" stroke-width="0.5" d="M194.207,-113.03C204.23,-113.858 214.438,-114.701 224.515,-115.534"/>
<polygon fill="black" stroke="black" points="224.645,-117.3 229.772,-115.968 224.933,-113.812 224.645,-117.3"/>
</g>
<!-- topo.misc.trace.ActivityMovie -->
<g id="node9" class="node"><title>topo.misc.trace.ActivityMovie</title>
<polygon fill="none" stroke="black" stroke-width="0.5" points="405,-96.5 249,-96.5 249,-75.5 405,-75.5 405,-96.5"/>
<text text-anchor="middle" x="327" y="-83.5" font-family="Vera" font-size="10.00">topo.misc.trace.ActivityMovie</text>
</g>
<!-- param.parameterized.Parameterized&#45;&gt;topo.misc.trace.ActivityMovie -->
<g id="edge8" class="edge"><title>param.parameterized.Parameterized&#45;&gt;topo.misc.trace.ActivityMovie</title>
<path fill="none" stroke="black" stroke-width="0.5" d="M194.207,-96.9698C210.399,-95.6322 227.074,-94.2548 242.904,-92.947"/>
<polygon fill="black" stroke="black" points="243.4,-94.6622 248.239,-92.5064 243.111,-91.174 243.4,-94.6622"/>
</g>
<!-- topo.misc.trace.Trace -->
<g id="node11" class="node"><title>topo.misc.trace.Trace</title>
<polygon fill="none" stroke="black" stroke-width="0.5" points="386,-58.5 268,-58.5 268,-37.5 386,-37.5 386,-58.5"/>
<text text-anchor="middle" x="327" y="-45.5" font-family="Vera" font-size="10.00">topo.misc.trace.Trace</text>
</g>
<!-- param.parameterized.Parameterized&#45;&gt;topo.misc.trace.Trace -->
<g id="edge10" class="edge"><title>param.parameterized.Parameterized&#45;&gt;topo.misc.trace.Trace</title>
<path fill="none" stroke="black" stroke-width="0.5" d="M129.318,-94.9338C156.126,-86.7854 195.326,-75.3334 230,-67 241.68,-64.193 254.224,-61.5004 266.288,-59.0696"/>
<polygon fill="black" stroke="black" points="266.864,-60.7393 271.425,-58.0443 266.179,-57.307 266.864,-60.7393"/>
</g>
<!-- topo.misc.trace.DataRecorder -->
<g id="node7" class="node"><title>topo.misc.trace.DataRecorder</title>
<polygon fill="none" stroke="black" stroke-width="0.5" points="633,-134.5 473,-134.5 473,-113.5 633,-113.5 633,-134.5"/>
<text text-anchor="middle" x="553" y="-121.5" font-family="Vera" font-size="10.00">topo.misc.trace.DataRecorder</text>
</g>
<!-- topo.base.simulation.EventProcessor&#45;&gt;topo.misc.trace.DataRecorder -->
<g id="edge18" class="edge"><title>topo.base.simulation.EventProcessor&#45;&gt;topo.misc.trace.DataRecorder</title>
<path fill="none" stroke="black" stroke-width="0.5" d="M424.156,-124C438.647,-124 453.492,-124 467.714,-124"/>
<polygon fill="black" stroke="black" points="467.923,-125.75 472.923,-124 467.923,-122.25 467.923,-125.75"/>
</g>
<!-- topo.misc.trace.InMemoryRecorder -->
<g id="node6" class="node"><title>topo.misc.trace.InMemoryRecorder</title>
<polygon fill="none" stroke="black" stroke-width="0.5" points="866,-134.5 682,-134.5 682,-113.5 866,-113.5 866,-134.5"/>
<text text-anchor="middle" x="774" y="-121.5" font-family="Vera" font-size="10.00">topo.misc.trace.InMemoryRecorder</text>
</g>
<!-- topo.misc.trace.DataRecorder&#45;&gt;topo.misc.trace.InMemoryRecorder -->
<g id="edge6" class="edge"><title>topo.misc.trace.DataRecorder&#45;&gt;topo.misc.trace.InMemoryRecorder</title>
<path fill="none" stroke="black" stroke-width="0.5" d="M633.099,-124C647.181,-124 661.977,-124 676.472,-124"/>
<polygon fill="black" stroke="black" points="676.797,-125.75 681.796,-124 676.796,-122.25 676.797,-125.75"/>
</g>
<!-- topo.misc.trace.IndexTrace -->
<g id="node13" class="node"><title>topo.misc.trace.IndexTrace</title>
<polygon fill="none" stroke="black" stroke-width="0.5" points="625,-96.5 481,-96.5 481,-75.5 625,-75.5 625,-96.5"/>
<text text-anchor="middle" x="553" y="-83.5" font-family="Vera" font-size="10.00">topo.misc.trace.IndexTrace</text>
</g>
<!-- topo.misc.trace.Trace&#45;&gt;topo.misc.trace.IndexTrace -->
<g id="edge12" class="edge"><title>topo.misc.trace.Trace&#45;&gt;topo.misc.trace.IndexTrace</title>
<path fill="none" stroke="black" stroke-width="0.5" d="M386.674,-58.0338C417.956,-63.2936 456.313,-69.7429 488.305,-75.1221"/>
<polygon fill="black" stroke="black" points="488.162,-76.8726 493.383,-75.976 488.743,-73.421 488.162,-76.8726"/>
</g>
<!-- topo.misc.trace.SheetPositionTrace -->
<g id="node15" class="node"><title>topo.misc.trace.SheetPositionTrace</title>
<polygon fill="none" stroke="black" stroke-width="0.5" points="645,-58.5 461,-58.5 461,-37.5 645,-37.5 645,-58.5"/>
<text text-anchor="middle" x="553" y="-45.5" font-family="Vera" font-size="10.00">topo.misc.trace.SheetPositionTrace</text>
</g>
<!-- topo.misc.trace.Trace&#45;&gt;topo.misc.trace.SheetPositionTrace -->
<g id="edge14" class="edge"><title>topo.misc.trace.Trace&#45;&gt;topo.misc.trace.SheetPositionTrace</title>
<path fill="none" stroke="black" stroke-width="0.5" d="M386.674,-48C407.586,-48 431.66,-48 454.88,-48"/>
<polygon fill="black" stroke="black" points="455.132,-49.7501 460.132,-48 455.132,-46.2501 455.132,-49.7501"/>
</g>
<!-- topo.misc.trace.IdentityTrace -->
<g id="node17" class="node"><title>topo.misc.trace.IdentityTrace</title>
<polygon fill="none" stroke="black" stroke-width="0.5" points="630,-20.5 476,-20.5 476,0.5 630,0.5 630,-20.5"/>
<text text-anchor="middle" x="553" y="-7.5" font-family="Vera" font-size="10.00">topo.misc.trace.IdentityTrace</text>
</g>
<!-- topo.misc.trace.Trace&#45;&gt;topo.misc.trace.IdentityTrace -->
<g id="edge16" class="edge"><title>topo.misc.trace.Trace&#45;&gt;topo.misc.trace.IdentityTrace</title>
<path fill="none" stroke="black" stroke-width="0.5" d="M386.674,-37.9662C417.956,-32.7064 456.313,-26.2571 488.305,-20.8779"/>
<polygon fill="black" stroke="black" points="488.743,-22.579 493.383,-20.024 488.162,-19.1274 488.743,-22.579"/>
</g>
</g>
</svg>
