<?xml version="1.0" encoding="UTF-8" standalone="no"?>
<!DOCTYPE svg PUBLIC "-//W3C//DTD SVG 1.1//EN"
 "http://www.w3.org/Graphics/SVG/1.1/DTD/svg11.dtd">
<!-- Generated by graphviz version 2.26.3 (20100126.1600)
 -->
<!-- Title: inheritancef1ac05fc54 Pages: 1 -->
<svg width="834pt" height="294pt"
 viewBox="0.00 0.00 834.00 294.00" xmlns="http://www.w3.org/2000/svg" xmlns:xlink="http://www.w3.org/1999/xlink">
<g id="graph1" class="graph" transform="scale(1 1) rotate(0) translate(4 290)">
<title>inheritancef1ac05fc54</title>
<polygon fill="white" stroke="white" points="-4,5 -4,-290 831,-290 831,5 -4,5"/>
<!-- numbergen.BinaryOperator -->
<g id="node1" class="node"><title>numbergen.BinaryOperator</title>
<polygon fill="none" stroke="black" stroke-width="0.5" points="593,-267.5 445,-267.5 445,-246.5 593,-246.5 593,-267.5"/>
<text text-anchor="middle" x="519" y="-254.5" font-family="Vera" font-size="10.00">numbergen.BinaryOperator</text>
</g>
<!-- numbergen.NumberGenerator -->
<g id="node2" class="node"><title>numbergen.NumberGenerator</title>
<polygon fill="none" stroke="black" stroke-width="0.5" points="393,-153.5 231,-153.5 231,-132.5 393,-132.5 393,-153.5"/>
<text text-anchor="middle" x="312" y="-140.5" font-family="Vera" font-size="10.00">numbergen.NumberGenerator</text>
</g>
<!-- numbergen.NumberGenerator&#45;&gt;numbergen.BinaryOperator -->
<g id="edge2" class="edge"><title>numbergen.NumberGenerator&#45;&gt;numbergen.BinaryOperator</title>
<path fill="none" stroke="black" stroke-width="0.5" d="M321.304,-153.16C339.918,-172.826 383.926,-216.079 430,-238 436.026,-240.867 442.485,-243.305 449.072,-245.378"/>
<polygon fill="black" stroke="black" points="448.837,-247.134 454.129,-246.892 449.841,-243.781 448.837,-247.134"/>
</g>
<!-- numbergen.TimeDependentValue -->
<g id="node4" class="node"><title>numbergen.TimeDependentValue</title>
<polygon fill="none" stroke="black" stroke-width="0.5" points="608,-229.5 430,-229.5 430,-208.5 608,-208.5 608,-229.5"/>
<text text-anchor="middle" x="519" y="-216.5" font-family="Vera" font-size="10.00">numbergen.TimeDependentValue</text>
</g>
<!-- numbergen.NumberGenerator&#45;&gt;numbergen.TimeDependentValue -->
<g id="edge4" class="edge"><title>numbergen.NumberGenerator&#45;&gt;numbergen.TimeDependentValue</title>
<path fill="none" stroke="black" stroke-width="0.5" d="M339.488,-153.092C377.639,-167.099 446.498,-192.381 486.941,-207.229"/>
<polygon fill="black" stroke="black" points="486.431,-208.907 491.728,-208.987 487.638,-205.621 486.431,-208.907"/>
</g>
<!-- numbergen.RandomDistribution -->
<g id="node8" class="node"><title>numbergen.RandomDistribution</title>
<polygon fill="none" stroke="black" stroke-width="0.5" points="604,-153.5 434,-153.5 434,-132.5 604,-132.5 604,-153.5"/>
<text text-anchor="middle" x="519" y="-140.5" font-family="Vera" font-size="10.00">numbergen.RandomDistribution</text>
</g>
<!-- numbergen.NumberGenerator&#45;&gt;numbergen.RandomDistribution -->
<g id="edge18" class="edge"><title>numbergen.NumberGenerator&#45;&gt;numbergen.RandomDistribution</title>
<path fill="none" stroke="black" stroke-width="0.5" d="M393.515,-143C405.097,-143 417.065,-143 428.8,-143"/>
<polygon fill="black" stroke="black" points="428.814,-144.75 433.814,-143 428.814,-141.25 428.814,-144.75"/>
</g>
<!-- numbergen.UnaryOperator -->
<g id="node12" class="node"><title>numbergen.UnaryOperator</title>
<polygon fill="none" stroke="black" stroke-width="0.5" points="592,-115.5 446,-115.5 446,-94.5 592,-94.5 592,-115.5"/>
<text text-anchor="middle" x="519" y="-102.5" font-family="Vera" font-size="10.00">numbergen.UnaryOperator</text>
</g>
<!-- numbergen.NumberGenerator&#45;&gt;numbergen.UnaryOperator -->
<g id="edge10" class="edge"><title>numbergen.NumberGenerator&#45;&gt;numbergen.UnaryOperator</title>
<path fill="none" stroke="black" stroke-width="0.5" d="M366.658,-132.966C395.192,-127.728 430.152,-121.31 459.382,-115.944"/>
<polygon fill="black" stroke="black" points="459.794,-117.648 464.395,-115.024 459.162,-114.206 459.794,-117.648"/>
</g>
<!-- numbergen.BoundedNumber -->
<g id="node16" class="node"><title>numbergen.BoundedNumber</title>
<polygon fill="none" stroke="black" stroke-width="0.5" points="597,-77.5 441,-77.5 441,-56.5 597,-56.5 597,-77.5"/>
<text text-anchor="middle" x="519" y="-64.5" font-family="Vera" font-size="10.00">numbergen.BoundedNumber</text>
</g>
<!-- numbergen.NumberGenerator&#45;&gt;numbergen.BoundedNumber -->
<g id="edge14" class="edge"><title>numbergen.NumberGenerator&#45;&gt;numbergen.BoundedNumber</title>
<path fill="none" stroke="black" stroke-width="0.5" d="M329.427,-132.934C351.968,-120.305 392.767,-98.7601 430,-86 438.575,-83.0612 447.777,-80.4853 456.894,-78.2572"/>
<polygon fill="black" stroke="black" points="457.487,-79.9151 461.946,-77.0551 456.677,-76.5102 457.487,-79.9151"/>
</g>
<!-- numbergen.BoxCar -->
<g id="node14" class="node"><title>numbergen.BoxCar</title>
<polygon fill="none" stroke="black" stroke-width="0.5" points="790,-286.5 680,-286.5 680,-265.5 790,-265.5 790,-286.5"/>
<text text-anchor="middle" x="735" y="-273.5" font-family="Vera" font-size="10.00">numbergen.BoxCar</text>
</g>
<!-- numbergen.TimeDependentValue&#45;&gt;numbergen.BoxCar -->
<g id="edge12" class="edge"><title>numbergen.TimeDependentValue&#45;&gt;numbergen.BoxCar</title>
<path fill="none" stroke="black" stroke-width="0.5" d="M577.578,-229.099C587.856,-231.55 598.346,-234.498 608,-238 625.007,-244.169 626.979,-250.869 644,-257 653.787,-260.525 664.414,-263.48 674.838,-265.927"/>
<polygon fill="black" stroke="black" points="674.67,-267.684 679.934,-267.088 675.448,-264.271 674.67,-267.684"/>
</g>
<!-- numbergen.ExponentialDecay -->
<g id="node26" class="node"><title>numbergen.ExponentialDecay</title>
<polygon fill="none" stroke="black" stroke-width="0.5" points="815,-248.5 655,-248.5 655,-227.5 815,-227.5 815,-248.5"/>
<text text-anchor="middle" x="735" y="-235.5" font-family="Vera" font-size="10.00">numbergen.ExponentialDecay</text>
</g>
<!-- numbergen.TimeDependentValue&#45;&gt;numbergen.ExponentialDecay -->
<g id="edge26" class="edge"><title>numbergen.TimeDependentValue&#45;&gt;numbergen.ExponentialDecay</title>
<path fill="none" stroke="black" stroke-width="0.5" d="M608.103,-226.838C621.645,-228.029 635.596,-229.256 649.069,-230.441"/>
<polygon fill="black" stroke="black" points="649.272,-232.216 654.406,-230.911 649.579,-228.729 649.272,-232.216"/>
</g>
<!-- param.parameterized.Parameterized -->
<g id="node6" class="node"><title>param.parameterized.Parameterized</title>
<polygon fill="none" stroke="black" stroke-width="0.5" points="194,-153.5 5.68434e-14,-153.5 0,-132.5 194,-132.5 194,-153.5"/>
<text text-anchor="middle" x="97" y="-140.5" font-family="Vera" font-size="10.00">param.parameterized.Parameterized</text>
</g>
<!-- param.parameterized.Parameterized&#45;&gt;numbergen.NumberGenerator -->
<g id="edge22" class="edge"><title>param.parameterized.Parameterized&#45;&gt;numbergen.NumberGenerator</title>
<path fill="none" stroke="black" stroke-width="0.5" d="M194.121,-143C204.545,-143 215.101,-143 225.391,-143"/>
<polygon fill="black" stroke="black" points="225.419,-144.75 230.419,-143 225.419,-141.25 225.419,-144.75"/>
</g>
<!-- numbergen.UniformRandomOffset -->
<g id="node7" class="node"><title>numbergen.UniformRandomOffset</title>
<polygon fill="none" stroke="black" stroke-width="0.5" points="826,-210.5 644,-210.5 644,-189.5 826,-189.5 826,-210.5"/>
<text text-anchor="middle" x="735" y="-197.5" font-family="Vera" font-size="10.00">numbergen.UniformRandomOffset</text>
</g>
<!-- numbergen.RandomDistribution&#45;&gt;numbergen.UniformRandomOffset -->
<g id="edge6" class="edge"><title>numbergen.RandomDistribution&#45;&gt;numbergen.UniformRandomOffset</title>
<path fill="none" stroke="black" stroke-width="0.5" d="M549.351,-153.058C574.533,-161.202 611.368,-172.651 644,-181 654.847,-183.775 666.498,-186.442 677.721,-188.854"/>
<polygon fill="black" stroke="black" points="677.588,-190.615 682.843,-189.945 678.317,-187.192 677.588,-190.615"/>
</g>
<!-- numbergen.VonMisesRandom -->
<g id="node10" class="node"><title>numbergen.VonMisesRandom</title>
<polygon fill="none" stroke="black" stroke-width="0.5" points="815,-172.5 655,-172.5 655,-151.5 815,-151.5 815,-172.5"/>
<text text-anchor="middle" x="735" y="-159.5" font-family="Vera" font-size="10.00">numbergen.VonMisesRandom</text>
</g>
<!-- numbergen.RandomDistribution&#45;&gt;numbergen.VonMisesRandom -->
<g id="edge8" class="edge"><title>numbergen.RandomDistribution&#45;&gt;numbergen.VonMisesRandom</title>
<path fill="none" stroke="black" stroke-width="0.5" d="M604.059,-150.482C619.12,-151.807 634.806,-153.187 649.869,-154.512"/>
<polygon fill="black" stroke="black" points="649.818,-156.264 654.952,-154.959 650.125,-152.777 649.818,-156.264"/>
</g>
<!-- numbergen.NormalRandom -->
<g id="node18" class="node"><title>numbergen.NormalRandom</title>
<polygon fill="none" stroke="black" stroke-width="0.5" points="810,-134.5 660,-134.5 660,-113.5 810,-113.5 810,-134.5"/>
<text text-anchor="middle" x="735" y="-121.5" font-family="Vera" font-size="10.00">numbergen.NormalRandom</text>
</g>
<!-- numbergen.RandomDistribution&#45;&gt;numbergen.NormalRandom -->
<g id="edge16" class="edge"><title>numbergen.RandomDistribution&#45;&gt;numbergen.NormalRandom</title>
<path fill="none" stroke="black" stroke-width="0.5" d="M604.059,-135.518C620.749,-134.05 638.206,-132.514 654.733,-131.061"/>
<polygon fill="black" stroke="black" points="655.003,-132.794 659.83,-130.612 654.696,-129.307 655.003,-132.794"/>
</g>
<!-- numbergen.Choice -->
<g id="node21" class="node"><title>numbergen.Choice</title>
<polygon fill="none" stroke="black" stroke-width="0.5" points="788,-96.5 682,-96.5 682,-75.5 788,-75.5 788,-96.5"/>
<text text-anchor="middle" x="735" y="-83.5" font-family="Vera" font-size="10.00">numbergen.Choice</text>
</g>
<!-- numbergen.RandomDistribution&#45;&gt;numbergen.Choice -->
<g id="edge20" class="edge"><title>numbergen.RandomDistribution&#45;&gt;numbergen.Choice</title>
<path fill="none" stroke="black" stroke-width="0.5" d="M577.578,-132.901C587.856,-130.45 598.346,-127.502 608,-124 625.007,-117.831 626.979,-111.131 644,-105 654.271,-101.301 665.467,-98.2296 676.383,-95.7133"/>
<polygon fill="black" stroke="black" points="676.877,-97.396 681.374,-94.5959 676.112,-93.9805 676.877,-97.396"/>
</g>
<!-- numbergen.UniformRandomInt -->
<g id="node24" class="node"><title>numbergen.UniformRandomInt</title>
<polygon fill="none" stroke="black" stroke-width="0.5" points="817,-58.5 653,-58.5 653,-37.5 817,-37.5 817,-58.5"/>
<text text-anchor="middle" x="735" y="-45.5" font-family="Vera" font-size="10.00">numbergen.UniformRandomInt</text>
</g>
<!-- numbergen.RandomDistribution&#45;&gt;numbergen.UniformRandomInt -->
<g id="edge24" class="edge"><title>numbergen.RandomDistribution&#45;&gt;numbergen.UniformRandomInt</title>
<path fill="none" stroke="black" stroke-width="0.5" d="M591.089,-132.967C597.079,-130.564 602.816,-127.615 608,-124 632.578,-106.862 619.384,-84.0826 644,-67 647.798,-64.3647 651.884,-62.0812 656.148,-60.1038"/>
<polygon fill="black" stroke="black" points="656.944,-61.6664 660.839,-58.0761 655.555,-58.4537 656.944,-61.6664"/>
</g>
<!-- numbergen.UniformRandom -->
<g id="node28" class="node"><title>numbergen.UniformRandom</title>
<polygon fill="none" stroke="black" stroke-width="0.5" points="811,-20.5 659,-20.5 659,0.5 811,0.5 811,-20.5"/>
<text text-anchor="middle" x="735" y="-7.5" font-family="Vera" font-size="10.00">numbergen.UniformRandom</text>
</g>
<!-- numbergen.RandomDistribution&#45;&gt;numbergen.UniformRandom -->
<g id="edge28" class="edge"><title>numbergen.RandomDistribution&#45;&gt;numbergen.UniformRandom</title>
<path fill="none" stroke="black" stroke-width="0.5" d="M594.512,-132.811C599.361,-130.404 603.924,-127.499 608,-124 642.258,-94.5872 609.676,-58.3358 644,-29 646.952,-26.4768 650.153,-24.2601 653.531,-22.3146"/>
<polygon fill="black" stroke="black" points="654.636,-23.71 658.238,-19.8263 653,-20.6157 654.636,-23.71"/>
</g>
</g>
</svg>
