<?xml version="1.0" encoding="UTF-8" standalone="no"?>
<!DOCTYPE svg PUBLIC "-//W3C//DTD SVG 1.1//EN"
 "http://www.w3.org/Graphics/SVG/1.1/DTD/svg11.dtd">
<!-- Generated by graphviz version 2.26.3 (20100126.1600)
 -->
<!-- Title: inheritance6f1ccfb525 Pages: 1 -->
<svg width="338pt" height="28pt"
 viewBox="0.00 0.00 338.00 28.00" xmlns="http://www.w3.org/2000/svg" xmlns:xlink="http://www.w3.org/1999/xlink">
<g id="graph1" class="graph" transform="scale(1 1) rotate(0) translate(4 24)">
<title>inheritance6f1ccfb525</title>
<polygon fill="white" stroke="white" points="-4,5 -4,-24 335,-24 335,5 -4,5"/>
<!-- unittest.case.TestCase -->
<g id="node1" class="node"><title>unittest.case.TestCase</title>
<polygon fill="none" stroke="black" stroke-width="0.5" points="116,-20 4.9738e-14,-20 0,-1.06581e-14 116,-3.55271e-15 116,-20"/>
<text text-anchor="middle" x="58" y="-7" font-family="Vera" font-size="10.00">unittest.case.TestCase</text>
</g>
<!-- topo.tests.unit.testimage.TestImage -->
<g id="node2" class="node"><title>topo.tests.unit.testimage.TestImage</title>
<polygon fill="none" stroke="black" stroke-width="0.5" points="330,-20 152,-20 152,-1.06581e-14 330,-3.55271e-15 330,-20"/>
<text text-anchor="middle" x="241" y="-7" font-family="Vera" font-size="10.00">topo.tests.unit.testimage.TestImage</text>
</g>
<!-- unittest.case.TestCase&#45;&gt;topo.tests.unit.testimage.TestImage -->
<g id="edge2" class="edge"><title>unittest.case.TestCase&#45;&gt;topo.tests.unit.testimage.TestImage</title>
<path fill="none" stroke="black" stroke-width="0.5" d="M116.154,-10C125.957,-10 136.353,-10 146.795,-10"/>
<polygon fill="black" stroke="black" points="146.922,-11.7501 151.922,-10 146.922,-8.2501 146.922,-11.7501"/>
</g>
</g>
</svg>
