<?xml version="1.0" encoding="UTF-8" standalone="no"?>
<!DOCTYPE svg PUBLIC "-//W3C//DTD SVG 1.1//EN"
 "http://www.w3.org/Graphics/SVG/1.1/DTD/svg11.dtd">
<!-- Generated by graphviz version 2.26.3 (20100126.1600)
 -->
<!-- Title: inheritance8ed98380c7 Pages: 1 -->
<svg width="704pt" height="142pt"
 viewBox="0.00 0.00 704.00 142.00" xmlns="http://www.w3.org/2000/svg" xmlns:xlink="http://www.w3.org/1999/xlink">
<g id="graph1" class="graph" transform="scale(1 1) rotate(0) translate(4 138)">
<title>inheritance8ed98380c7</title>
<polygon fill="white" stroke="white" points="-4,5 -4,-138 701,-138 701,5 -4,5"/>
<!-- topo.base.functionfamily.ResponseFn -->
<g id="node1" class="node"><title>topo.base.functionfamily.ResponseFn</title>
<polygon fill="none" stroke="black" stroke-width="0.5" points="446,-134.5 254,-134.5 254,-113.5 446,-113.5 446,-134.5"/>
<text text-anchor="middle" x="350" y="-121.5" font-family="Vera" font-size="10.00">topo.base.functionfamily.ResponseFn</text>
</g>
<!-- topo.base.functionfamily.DotProduct -->
<g id="node14" class="node"><title>topo.base.functionfamily.DotProduct</title>
<polygon fill="none" stroke="black" stroke-width="0.5" points="696,-134.5 506,-134.5 506,-113.5 696,-113.5 696,-134.5"/>
<text text-anchor="middle" x="601" y="-121.5" font-family="Vera" font-size="10.00">topo.base.functionfamily.DotProduct</text>
</g>
<!-- topo.base.functionfamily.ResponseFn&#45;&gt;topo.base.functionfamily.DotProduct -->
<g id="edge14" class="edge"><title>topo.base.functionfamily.ResponseFn&#45;&gt;topo.base.functionfamily.DotProduct</title>
<path fill="none" stroke="black" stroke-width="0.5" d="M446.684,-124C464.206,-124 482.519,-124 500.157,-124"/>
<polygon fill="black" stroke="black" points="500.607,-125.75 505.607,-124 500.607,-122.25 500.607,-125.75"/>
</g>
<!-- param.parameterized.Parameterized -->
<g id="node2" class="node"><title>param.parameterized.Parameterized</title>
<polygon fill="none" stroke="black" stroke-width="0.5" points="194,-77.5 5.68434e-14,-77.5 0,-56.5 194,-56.5 194,-77.5"/>
<text text-anchor="middle" x="97" y="-64.5" font-family="Vera" font-size="10.00">param.parameterized.Parameterized</text>
</g>
<!-- param.parameterized.Parameterized&#45;&gt;topo.base.functionfamily.ResponseFn -->
<g id="edge2" class="edge"><title>param.parameterized.Parameterized&#45;&gt;topo.base.functionfamily.ResponseFn</title>
<path fill="none" stroke="black" stroke-width="0.5" d="M128.167,-77.0653C154.948,-85.4338 194.711,-97.1953 230,-105 243.573,-108.002 258.112,-110.718 272.218,-113.095"/>
<polygon fill="black" stroke="black" points="272.173,-114.862 277.393,-113.956 272.748,-111.409 272.173,-114.862"/>
</g>
<!-- topo.base.functionfamily.PatternDrivenAnalysis -->
<g id="node4" class="node"><title>topo.base.functionfamily.PatternDrivenAnalysis</title>
<polygon fill="none" stroke="black" stroke-width="0.5" points="470,-96.5 230,-96.5 230,-75.5 470,-75.5 470,-96.5"/>
<text text-anchor="middle" x="350" y="-83.5" font-family="Vera" font-size="10.00">topo.base.functionfamily.PatternDrivenAnalysis</text>
</g>
<!-- param.parameterized.Parameterized&#45;&gt;topo.base.functionfamily.PatternDrivenAnalysis -->
<g id="edge4" class="edge"><title>param.parameterized.Parameterized&#45;&gt;topo.base.functionfamily.PatternDrivenAnalysis</title>
<path fill="none" stroke="black" stroke-width="0.5" d="M194.093,-74.2916C204.152,-75.047 214.474,-75.8222 224.785,-76.5965"/>
<polygon fill="black" stroke="black" points="224.727,-78.347 229.844,-76.9764 224.989,-74.8568 224.727,-78.347"/>
</g>
<!-- topo.base.functionfamily.LearningFn -->
<g id="node6" class="node"><title>topo.base.functionfamily.LearningFn</title>
<polygon fill="none" stroke="black" stroke-width="0.5" points="444,-58.5 256,-58.5 256,-37.5 444,-37.5 444,-58.5"/>
<text text-anchor="middle" x="350" y="-45.5" font-family="Vera" font-size="10.00">topo.base.functionfamily.LearningFn</text>
</g>
<!-- param.parameterized.Parameterized&#45;&gt;topo.base.functionfamily.LearningFn -->
<g id="edge6" class="edge"><title>param.parameterized.Parameterized&#45;&gt;topo.base.functionfamily.LearningFn</title>
<path fill="none" stroke="black" stroke-width="0.5" d="M194.093,-59.7084C212.562,-58.3214 231.917,-56.8679 250.461,-55.4753"/>
<polygon fill="black" stroke="black" points="250.814,-57.2038 255.668,-55.0842 250.551,-53.7136 250.814,-57.2038"/>
</g>
<!-- topo.base.functionfamily.CoordinateMapperFn -->
<g id="node9" class="node"><title>topo.base.functionfamily.CoordinateMapperFn</title>
<polygon fill="none" stroke="black" stroke-width="0.5" points="468,-20.5 232,-20.5 232,0.5 468,0.5 468,-20.5"/>
<text text-anchor="middle" x="350" y="-7.5" font-family="Vera" font-size="10.00">topo.base.functionfamily.CoordinateMapperFn</text>
</g>
<!-- param.parameterized.Parameterized&#45;&gt;topo.base.functionfamily.CoordinateMapperFn -->
<g id="edge12" class="edge"><title>param.parameterized.Parameterized&#45;&gt;topo.base.functionfamily.CoordinateMapperFn</title>
<path fill="none" stroke="black" stroke-width="0.5" d="M128.167,-56.9347C154.948,-48.5662 194.711,-36.8047 230,-29 243.573,-25.998 258.112,-23.2824 272.218,-20.9047"/>
<polygon fill="black" stroke="black" points="272.748,-22.5907 277.393,-20.0441 272.173,-19.1381 272.748,-22.5907"/>
</g>
<!-- topo.base.functionfamily.IdentityLF -->
<g id="node11" class="node"><title>topo.base.functionfamily.IdentityLF</title>
<polygon fill="none" stroke="black" stroke-width="0.5" points="692,-96.5 510,-96.5 510,-75.5 692,-75.5 692,-96.5"/>
<text text-anchor="middle" x="601" y="-83.5" font-family="Vera" font-size="10.00">topo.base.functionfamily.IdentityLF</text>
</g>
<!-- topo.base.functionfamily.LearningFn&#45;&gt;topo.base.functionfamily.IdentityLF -->
<g id="edge10" class="edge"><title>topo.base.functionfamily.LearningFn&#45;&gt;topo.base.functionfamily.IdentityLF</title>
<path fill="none" stroke="black" stroke-width="0.5" d="M416.276,-58.0338C451.161,-63.3152 493.968,-69.796 529.587,-75.1885"/>
<polygon fill="black" stroke="black" points="529.583,-76.9577 534.789,-75.976 530.107,-73.4971 529.583,-76.9577"/>
</g>
<!-- topo.base.functionfamily.Hebbian -->
<g id="node16" class="node"><title>topo.base.functionfamily.Hebbian</title>
<polygon fill="none" stroke="black" stroke-width="0.5" points="689,-58.5 513,-58.5 513,-37.5 689,-37.5 689,-58.5"/>
<text text-anchor="middle" x="601" y="-45.5" font-family="Vera" font-size="10.00">topo.base.functionfamily.Hebbian</text>
</g>
<!-- topo.base.functionfamily.LearningFn&#45;&gt;topo.base.functionfamily.Hebbian -->
<g id="edge16" class="edge"><title>topo.base.functionfamily.LearningFn&#45;&gt;topo.base.functionfamily.Hebbian</title>
<path fill="none" stroke="black" stroke-width="0.5" d="M444.177,-48C464.952,-48 486.95,-48 507.69,-48"/>
<polygon fill="black" stroke="black" points="507.934,-49.7501 512.934,-48 507.934,-46.2501 507.934,-49.7501"/>
</g>
<!-- topo.base.functionfamily.IdentityMF -->
<g id="node8" class="node"><title>topo.base.functionfamily.IdentityMF</title>
<polygon fill="none" stroke="black" stroke-width="0.5" points="693,-20.5 509,-20.5 509,0.5 693,0.5 693,-20.5"/>
<text text-anchor="middle" x="601" y="-7.5" font-family="Vera" font-size="10.00">topo.base.functionfamily.IdentityMF</text>
</g>
<!-- topo.base.functionfamily.CoordinateMapperFn&#45;&gt;topo.base.functionfamily.IdentityMF -->
<g id="edge8" class="edge"><title>topo.base.functionfamily.CoordinateMapperFn&#45;&gt;topo.base.functionfamily.IdentityMF</title>
<path fill="none" stroke="black" stroke-width="0.5" d="M468.15,-10C479.838,-10 491.612,-10 503.063,-10"/>
<polygon fill="black" stroke="black" points="503.3,-11.7501 508.3,-10 503.3,-8.2501 503.3,-11.7501"/>
</g>
</g>
</svg>
