<?xml version="1.0" encoding="UTF-8" standalone="no"?>
<!DOCTYPE svg PUBLIC "-//W3C//DTD SVG 1.1//EN"
 "http://www.w3.org/Graphics/SVG/1.1/DTD/svg11.dtd">
<!-- Generated by graphviz version 2.26.3 (20100126.1600)
 -->
<!-- Title: inheritance0509d66467 Pages: 1 -->
<svg width="1108pt" height="332pt"
 viewBox="0.00 0.00 1108.00 332.00" xmlns="http://www.w3.org/2000/svg" xmlns:xlink="http://www.w3.org/1999/xlink">
<g id="graph1" class="graph" transform="scale(1 1) rotate(0) translate(4 328)">
<title>inheritance0509d66467</title>
<polygon fill="white" stroke="white" points="-4,5 -4,-328 1105,-328 1105,5 -4,5"/>
<!-- topo.transferfn.HomeostaticMaxEnt -->
<g id="node1" class="node"><title>topo.transferfn.HomeostaticMaxEnt</title>
<polygon fill="none" stroke="black" stroke-width="0.5" points="1100,-286.5 912,-286.5 912,-265.5 1100,-265.5 1100,-286.5"/>
<text text-anchor="middle" x="1006" y="-273.5" font-family="Vera" font-size="10.00">topo.transferfn.HomeostaticMaxEnt</text>
</g>
<!-- topo.transferfn.TransferFnWithRandomState -->
<g id="node2" class="node"><title>topo.transferfn.TransferFnWithRandomState</title>
<polygon fill="none" stroke="black" stroke-width="0.5" points="876,-267.5 650,-267.5 650,-246.5 876,-246.5 876,-267.5"/>
<text text-anchor="middle" x="763" y="-254.5" font-family="Vera" font-size="10.00">topo.transferfn.TransferFnWithRandomState</text>
</g>
<!-- topo.transferfn.TransferFnWithRandomState&#45;&gt;topo.transferfn.HomeostaticMaxEnt -->
<g id="edge2" class="edge"><title>topo.transferfn.TransferFnWithRandomState&#45;&gt;topo.transferfn.HomeostaticMaxEnt</title>
<path fill="none" stroke="black" stroke-width="0.5" d="M876.318,-265.86C886.434,-266.651 896.625,-267.448 906.61,-268.229"/>
<polygon fill="black" stroke="black" points="906.69,-269.99 911.811,-268.635 906.962,-266.501 906.69,-269.99"/>
</g>
<!-- topo.transferfn.PoissonSample -->
<g id="node22" class="node"><title>topo.transferfn.PoissonSample</title>
<polygon fill="none" stroke="black" stroke-width="0.5" points="1088,-248.5 924,-248.5 924,-227.5 1088,-227.5 1088,-248.5"/>
<text text-anchor="middle" x="1006" y="-235.5" font-family="Vera" font-size="10.00">topo.transferfn.PoissonSample</text>
</g>
<!-- topo.transferfn.TransferFnWithRandomState&#45;&gt;topo.transferfn.PoissonSample -->
<g id="edge20" class="edge"><title>topo.transferfn.TransferFnWithRandomState&#45;&gt;topo.transferfn.PoissonSample</title>
<path fill="none" stroke="black" stroke-width="0.5" d="M876.318,-248.14C890.534,-247.028 904.9,-245.905 918.632,-244.831"/>
<polygon fill="black" stroke="black" points="918.813,-246.572 923.662,-244.438 918.541,-243.083 918.813,-246.572"/>
</g>
<!-- topo.transferfn.Square -->
<g id="node4" class="node"><title>topo.transferfn.Square</title>
<polygon fill="none" stroke="black" stroke-width="0.5" points="579,-324.5 455,-324.5 455,-303.5 579,-303.5 579,-324.5"/>
<text text-anchor="middle" x="517" y="-311.5" font-family="Vera" font-size="10.00">topo.transferfn.Square</text>
</g>
<!-- imagen.transferfn.TransferFn -->
<g id="node5" class="node"><title>imagen.transferfn.TransferFn</title>
<polygon fill="none" stroke="black" stroke-width="0.5" points="384,-172.5 230,-172.5 230,-151.5 384,-151.5 384,-172.5"/>
<text text-anchor="middle" x="307" y="-159.5" font-family="Vera" font-size="10.00">imagen.transferfn.TransferFn</text>
</g>
<!-- imagen.transferfn.TransferFn&#45;&gt;topo.transferfn.Square -->
<g id="edge4" class="edge"><title>imagen.transferfn.TransferFn&#45;&gt;topo.transferfn.Square</title>
<path fill="none" stroke="black" stroke-width="0.5" d="M312.492,-172.366C326.578,-197.85 366.669,-263.754 420,-295 428.971,-300.256 439.128,-304.088 449.408,-306.876"/>
<polygon fill="black" stroke="black" points="449.183,-308.624 454.46,-308.162 450.047,-305.233 449.183,-308.624"/>
</g>
<!-- topo.transferfn.ExpLinear -->
<g id="node7" class="node"><title>topo.transferfn.ExpLinear</title>
<polygon fill="none" stroke="black" stroke-width="0.5" points="585,-286.5 449,-286.5 449,-265.5 585,-265.5 585,-286.5"/>
<text text-anchor="middle" x="517" y="-273.5" font-family="Vera" font-size="10.00">topo.transferfn.ExpLinear</text>
</g>
<!-- imagen.transferfn.TransferFn&#45;&gt;topo.transferfn.ExpLinear -->
<g id="edge6" class="edge"><title>imagen.transferfn.TransferFn&#45;&gt;topo.transferfn.ExpLinear</title>
<path fill="none" stroke="black" stroke-width="0.5" d="M315.781,-172.242C333.381,-192.049 375.147,-235.541 420,-257 427.307,-260.496 435.217,-263.349 443.26,-265.676"/>
<polygon fill="black" stroke="black" points="442.995,-267.419 448.28,-267.059 443.924,-264.044 442.995,-267.419"/>
</g>
<!-- topo.transferfn.GeneralizedLogistic -->
<g id="node10" class="node"><title>topo.transferfn.GeneralizedLogistic</title>
<polygon fill="none" stroke="black" stroke-width="0.5" points="609,-248.5 425,-248.5 425,-227.5 609,-227.5 609,-248.5"/>
<text text-anchor="middle" x="517" y="-235.5" font-family="Vera" font-size="10.00">topo.transferfn.GeneralizedLogistic</text>
</g>
<!-- imagen.transferfn.TransferFn&#45;&gt;topo.transferfn.GeneralizedLogistic -->
<g id="edge8" class="edge"><title>imagen.transferfn.TransferFn&#45;&gt;topo.transferfn.GeneralizedLogistic</title>
<path fill="none" stroke="black" stroke-width="0.5" d="M323.593,-172.202C345.079,-184.975 384.042,-206.671 420,-219 428.847,-222.033 438.323,-224.636 447.76,-226.854"/>
<polygon fill="black" stroke="black" points="447.423,-228.573 452.688,-227.98 448.203,-225.16 447.423,-228.573"/>
</g>
<!-- topo.transferfn.TransferFnWithState -->
<g id="node12" class="node"><title>topo.transferfn.TransferFnWithState</title>
<polygon fill="none" stroke="black" stroke-width="0.5" points="610,-210.5 424,-210.5 424,-189.5 610,-189.5 610,-210.5"/>
<text text-anchor="middle" x="517" y="-197.5" font-family="Vera" font-size="10.00">topo.transferfn.TransferFnWithState</text>
</g>
<!-- imagen.transferfn.TransferFn&#45;&gt;topo.transferfn.TransferFnWithState -->
<g id="edge10" class="edge"><title>imagen.transferfn.TransferFn&#45;&gt;topo.transferfn.TransferFnWithState</title>
<path fill="none" stroke="black" stroke-width="0.5" d="M362.45,-172.034C391.397,-177.272 426.865,-183.69 456.518,-189.056"/>
<polygon fill="black" stroke="black" points="456.372,-190.808 461.604,-189.976 456.995,-187.364 456.372,-190.808"/>
</g>
<!-- topo.transferfn.NakaRushton -->
<g id="node18" class="node"><title>topo.transferfn.NakaRushton</title>
<polygon fill="none" stroke="black" stroke-width="0.5" points="594,-172.5 440,-172.5 440,-151.5 594,-151.5 594,-172.5"/>
<text text-anchor="middle" x="517" y="-159.5" font-family="Vera" font-size="10.00">topo.transferfn.NakaRushton</text>
</g>
<!-- imagen.transferfn.TransferFn&#45;&gt;topo.transferfn.NakaRushton -->
<g id="edge16" class="edge"><title>imagen.transferfn.TransferFn&#45;&gt;topo.transferfn.NakaRushton</title>
<path fill="none" stroke="black" stroke-width="0.5" d="M384.004,-162C400.447,-162 417.878,-162 434.518,-162"/>
<polygon fill="black" stroke="black" points="434.654,-163.75 439.654,-162 434.654,-160.25 434.654,-163.75"/>
</g>
<!-- topo.transferfn.HalfRectifyAndSquare -->
<g id="node20" class="node"><title>topo.transferfn.HalfRectifyAndSquare</title>
<polygon fill="none" stroke="black" stroke-width="0.5" points="614,-134.5 420,-134.5 420,-113.5 614,-113.5 614,-134.5"/>
<text text-anchor="middle" x="517" y="-121.5" font-family="Vera" font-size="10.00">topo.transferfn.HalfRectifyAndSquare</text>
</g>
<!-- imagen.transferfn.TransferFn&#45;&gt;topo.transferfn.HalfRectifyAndSquare -->
<g id="edge18" class="edge"><title>imagen.transferfn.TransferFn&#45;&gt;topo.transferfn.HalfRectifyAndSquare</title>
<path fill="none" stroke="black" stroke-width="0.5" d="M362.45,-151.966C391.397,-146.728 426.865,-140.31 456.518,-134.944"/>
<polygon fill="black" stroke="black" points="456.995,-136.636 461.604,-134.024 456.372,-133.192 456.995,-136.636"/>
</g>
<!-- topo.transferfn.HalfRectifyAndPower -->
<g id="node24" class="node"><title>topo.transferfn.HalfRectifyAndPower</title>
<polygon fill="none" stroke="black" stroke-width="0.5" points="611,-96.5 423,-96.5 423,-75.5 611,-75.5 611,-96.5"/>
<text text-anchor="middle" x="517" y="-83.5" font-family="Vera" font-size="10.00">topo.transferfn.HalfRectifyAndPower</text>
</g>
<!-- imagen.transferfn.TransferFn&#45;&gt;topo.transferfn.HalfRectifyAndPower -->
<g id="edge22" class="edge"><title>imagen.transferfn.TransferFn&#45;&gt;topo.transferfn.HalfRectifyAndPower</title>
<path fill="none" stroke="black" stroke-width="0.5" d="M323.593,-151.798C345.079,-139.025 384.042,-117.329 420,-105 428.847,-101.967 438.323,-99.3639 447.76,-97.1456"/>
<polygon fill="black" stroke="black" points="448.203,-98.8396 452.688,-96.0204 447.423,-95.4274 448.203,-98.8396"/>
</g>
<!-- topo.transferfn.PiecewiseLinear -->
<g id="node27" class="node"><title>topo.transferfn.PiecewiseLinear</title>
<polygon fill="none" stroke="black" stroke-width="0.5" points="600,-58.5 434,-58.5 434,-37.5 600,-37.5 600,-58.5"/>
<text text-anchor="middle" x="517" y="-45.5" font-family="Vera" font-size="10.00">topo.transferfn.PiecewiseLinear</text>
</g>
<!-- imagen.transferfn.TransferFn&#45;&gt;topo.transferfn.PiecewiseLinear -->
<g id="edge26" class="edge"><title>imagen.transferfn.TransferFn&#45;&gt;topo.transferfn.PiecewiseLinear</title>
<path fill="none" stroke="black" stroke-width="0.5" d="M315.781,-151.758C333.381,-131.951 375.147,-88.4593 420,-67 426.044,-64.1081 432.502,-61.6564 439.105,-59.5778"/>
<polygon fill="black" stroke="black" points="439.89,-61.1697 444.179,-58.06 438.887,-57.8165 439.89,-61.1697"/>
</g>
<!-- topo.transferfn.Sigmoid -->
<g id="node29" class="node"><title>topo.transferfn.Sigmoid</title>
<polygon fill="none" stroke="black" stroke-width="0.5" points="582,-20.5 452,-20.5 452,0.5 582,0.5 582,-20.5"/>
<text text-anchor="middle" x="517" y="-7.5" font-family="Vera" font-size="10.00">topo.transferfn.Sigmoid</text>
</g>
<!-- imagen.transferfn.TransferFn&#45;&gt;topo.transferfn.Sigmoid -->
<g id="edge28" class="edge"><title>imagen.transferfn.TransferFn&#45;&gt;topo.transferfn.Sigmoid</title>
<path fill="none" stroke="black" stroke-width="0.5" d="M312.492,-151.634C326.578,-126.15 366.669,-60.2456 420,-29 428.259,-24.1615 437.523,-20.5294 446.963,-17.8078"/>
<polygon fill="black" stroke="black" points="447.544,-19.4637 451.911,-16.466 446.628,-16.0857 447.544,-19.4637"/>
</g>
<!-- param.parameterized.Parameterized -->
<g id="node9" class="node"><title>param.parameterized.Parameterized</title>
<polygon fill="none" stroke="black" stroke-width="0.5" points="194,-172.5 5.68434e-14,-172.5 0,-151.5 194,-151.5 194,-172.5"/>
<text text-anchor="middle" x="97" y="-159.5" font-family="Vera" font-size="10.00">param.parameterized.Parameterized</text>
</g>
<!-- param.parameterized.Parameterized&#45;&gt;imagen.transferfn.TransferFn -->
<g id="edge30" class="edge"><title>param.parameterized.Parameterized&#45;&gt;imagen.transferfn.TransferFn</title>
<path fill="none" stroke="black" stroke-width="0.5" d="M194.009,-162C204.259,-162 214.611,-162 224.671,-162"/>
<polygon fill="black" stroke="black" points="224.903,-163.75 229.903,-162 224.903,-160.25 224.903,-163.75"/>
</g>
<!-- topo.transferfn.TransferFnWithState&#45;&gt;topo.transferfn.TransferFnWithRandomState -->
<g id="edge24" class="edge"><title>topo.transferfn.TransferFnWithState&#45;&gt;topo.transferfn.TransferFnWithRandomState</title>
<path fill="none" stroke="black" stroke-width="0.5" d="M582.145,-210.033C592.93,-212.468 603.887,-215.428 614,-219 631.059,-225.025 632.862,-232.204 650,-238 659.147,-241.093 668.888,-243.697 678.669,-245.885"/>
<polygon fill="black" stroke="black" points="678.527,-247.644 683.784,-246.991 679.267,-244.224 678.527,-247.644"/>
</g>
<!-- topo.transferfn.Hysteresis -->
<g id="node14" class="node"><title>topo.transferfn.Hysteresis</title>
<polygon fill="none" stroke="black" stroke-width="0.5" points="833,-229.5 693,-229.5 693,-208.5 833,-208.5 833,-229.5"/>
<text text-anchor="middle" x="763" y="-216.5" font-family="Vera" font-size="10.00">topo.transferfn.Hysteresis</text>
</g>
<!-- topo.transferfn.TransferFnWithState&#45;&gt;topo.transferfn.Hysteresis -->
<g id="edge12" class="edge"><title>topo.transferfn.TransferFnWithState&#45;&gt;topo.transferfn.Hysteresis</title>
<path fill="none" stroke="black" stroke-width="0.5" d="M610.002,-207.183C635.534,-209.155 662.903,-211.269 687.332,-213.156"/>
<polygon fill="black" stroke="black" points="687.379,-214.914 692.499,-213.555 687.648,-211.425 687.379,-214.914"/>
</g>
<!-- topo.transferfn.ScalingTF -->
<g id="node16" class="node"><title>topo.transferfn.ScalingTF</title>
<polygon fill="none" stroke="black" stroke-width="0.5" points="831,-191.5 695,-191.5 695,-170.5 831,-170.5 831,-191.5"/>
<text text-anchor="middle" x="763" y="-178.5" font-family="Vera" font-size="10.00">topo.transferfn.ScalingTF</text>
</g>
<!-- topo.transferfn.TransferFnWithState&#45;&gt;topo.transferfn.ScalingTF -->
<g id="edge14" class="edge"><title>topo.transferfn.TransferFnWithState&#45;&gt;topo.transferfn.ScalingTF</title>
<path fill="none" stroke="black" stroke-width="0.5" d="M610.002,-192.817C636.296,-190.786 664.538,-188.605 689.512,-186.676"/>
<polygon fill="black" stroke="black" points="689.939,-188.398 694.789,-186.268 689.669,-184.909 689.939,-188.398"/>
</g>
<!-- topo.transferfn.ActivityAveragingTF -->
<g id="node32" class="node"><title>topo.transferfn.ActivityAveragingTF</title>
<polygon fill="none" stroke="black" stroke-width="0.5" points="854,-153.5 672,-153.5 672,-132.5 854,-132.5 854,-153.5"/>
<text text-anchor="middle" x="763" y="-140.5" font-family="Vera" font-size="10.00">topo.transferfn.ActivityAveragingTF</text>
</g>
<!-- topo.transferfn.TransferFnWithState&#45;&gt;topo.transferfn.ActivityAveragingTF -->
<g id="edge32" class="edge"><title>topo.transferfn.TransferFnWithState&#45;&gt;topo.transferfn.ActivityAveragingTF</title>
<path fill="none" stroke="black" stroke-width="0.5" d="M582.145,-189.967C592.93,-187.532 603.887,-184.572 614,-181 631.059,-174.975 632.862,-167.796 650,-162 659.147,-158.907 668.888,-156.303 678.669,-154.115"/>
<polygon fill="black" stroke="black" points="679.267,-155.776 683.784,-153.009 678.527,-152.356 679.267,-155.776"/>
</g>
</g>
</svg>
