<?xml version="1.0" encoding="UTF-8" standalone="no"?>
<!DOCTYPE svg PUBLIC "-//W3C//DTD SVG 1.1//EN"
 "http://www.w3.org/Graphics/SVG/1.1/DTD/svg11.dtd">
<!-- Generated by graphviz version 2.26.3 (20100126.1600)
 -->
<!-- Title: inheritancee3a8736439 Pages: 1 -->
<svg width="1134pt" height="180pt"
 viewBox="0.00 0.00 1134.00 180.00" xmlns="http://www.w3.org/2000/svg" xmlns:xlink="http://www.w3.org/1999/xlink">
<g id="graph1" class="graph" transform="scale(1 1) rotate(0) translate(4 176)">
<title>inheritancee3a8736439</title>
<polygon fill="white" stroke="white" points="-4,5 -4,-176 1131,-176 1131,5 -4,5"/>
<!-- Tkinter.Pack -->
<g id="node1" class="node"><title>Tkinter.Pack</title>
<polygon fill="none" stroke="black" stroke-width="0.5" points="238,-172 166,-172 166,-152 238,-152 238,-172"/>
<text text-anchor="middle" x="202" y="-159" font-family="Vera" font-size="10.00">Tkinter.Pack</text>
</g>
<!-- Tkinter.Widget -->
<g id="node2" class="node"><title>Tkinter.Widget</title>
<polygon fill="none" stroke="black" stroke-width="0.5" points="449,-96 367,-96 367,-76 449,-76 449,-96"/>
<text text-anchor="middle" x="408" y="-83" font-family="Vera" font-size="10.00">Tkinter.Widget</text>
</g>
<!-- Tkinter.Pack&#45;&gt;Tkinter.Widget -->
<g id="edge4" class="edge"><title>Tkinter.Pack&#45;&gt;Tkinter.Widget</title>
<path fill="none" stroke="black" stroke-width="0.5" d="M238.856,-156.648C255.913,-153.6 276.279,-149.142 294,-143 327.768,-131.296 364.304,-111.672 386.674,-98.7798"/>
<polygon fill="black" stroke="black" points="387.781,-100.161 391.227,-96.1363 386.024,-97.1338 387.781,-100.161"/>
</g>
<!-- Tkinter.Frame -->
<g id="node18" class="node"><title>Tkinter.Frame</title>
<polygon fill="none" stroke="black" stroke-width="0.5" points="629,-77 549,-77 549,-57 629,-57 629,-77"/>
<text text-anchor="middle" x="589" y="-64" font-family="Vera" font-size="10.00">Tkinter.Frame</text>
</g>
<!-- Tkinter.Widget&#45;&gt;Tkinter.Frame -->
<g id="edge16" class="edge"><title>Tkinter.Widget&#45;&gt;Tkinter.Frame</title>
<path fill="none" stroke="black" stroke-width="0.5" d="M449.525,-81.641C477.429,-78.7118 514.223,-74.8495 543.013,-71.8273"/>
<polygon fill="black" stroke="black" points="543.502,-73.5357 548.292,-71.2732 543.137,-70.0549 543.502,-73.5357"/>
</g>
<!-- Tkinter.BaseWidget -->
<g id="node3" class="node"><title>Tkinter.BaseWidget</title>
<polygon fill="none" stroke="black" stroke-width="0.5" points="254,-134 150,-134 150,-114 254,-114 254,-134"/>
<text text-anchor="middle" x="202" y="-121" font-family="Vera" font-size="10.00">Tkinter.BaseWidget</text>
</g>
<!-- Tkinter.BaseWidget&#45;&gt;Tkinter.Widget -->
<g id="edge2" class="edge"><title>Tkinter.BaseWidget&#45;&gt;Tkinter.Widget</title>
<path fill="none" stroke="black" stroke-width="0.5" d="M254.516,-114.313C287.442,-108.239 329.514,-100.478 361.28,-94.6183"/>
<polygon fill="black" stroke="black" points="361.687,-96.3228 366.287,-93.6947 361.052,-92.8808 361.687,-96.3228"/>
</g>
<!-- Tkinter.Place -->
<g id="node6" class="node"><title>Tkinter.Place</title>
<polygon fill="none" stroke="black" stroke-width="0.5" points="239,-96 165,-96 165,-76 239,-76 239,-96"/>
<text text-anchor="middle" x="202" y="-83" font-family="Vera" font-size="10.00">Tkinter.Place</text>
</g>
<!-- Tkinter.Place&#45;&gt;Tkinter.Widget -->
<g id="edge6" class="edge"><title>Tkinter.Place&#45;&gt;Tkinter.Widget</title>
<path fill="none" stroke="black" stroke-width="0.5" d="M239.784,-86C273.882,-86 324.179,-86 360.89,-86"/>
<polygon fill="black" stroke="black" points="361.204,-87.7501 366.204,-86 361.204,-84.2501 361.204,-87.7501"/>
</g>
<!-- Tkinter.Grid -->
<g id="node8" class="node"><title>Tkinter.Grid</title>
<polygon fill="none" stroke="black" stroke-width="0.5" points="238,-58 166,-58 166,-38 238,-38 238,-58"/>
<text text-anchor="middle" x="202" y="-45" font-family="Vera" font-size="10.00">Tkinter.Grid</text>
</g>
<!-- Tkinter.Grid&#45;&gt;Tkinter.Widget -->
<g id="edge8" class="edge"><title>Tkinter.Grid&#45;&gt;Tkinter.Widget</title>
<path fill="none" stroke="black" stroke-width="0.5" d="M238.354,-54.7062C272.622,-61.0274 324.138,-70.5303 361.407,-77.4052"/>
<polygon fill="black" stroke="black" points="361.103,-79.1286 366.338,-78.3148 361.738,-75.6867 361.103,-79.1286"/>
</g>
<!-- topo.tkgui.plotgrouppanel.SheetPanel -->
<g id="node10" class="node"><title>topo.tkgui.plotgrouppanel.SheetPanel</title>
<polygon fill="none" stroke="black" stroke-width="0.5" points="1126,-53 938,-53 938,-33 1126,-33 1126,-53"/>
<text text-anchor="middle" x="1032" y="-40" font-family="Vera" font-size="10.00">topo.tkgui.plotgrouppanel.SheetPanel</text>
</g>
<!-- topo.tkgui.plotgrouppanel.PlotGroupPanel -->
<g id="node11" class="node"><title>topo.tkgui.plotgrouppanel.PlotGroupPanel</title>
<polygon fill="none" stroke="black" stroke-width="0.5" points="901,-53 693,-53 693,-33 901,-33 901,-53"/>
<text text-anchor="middle" x="797" y="-40" font-family="Vera" font-size="10.00">topo.tkgui.plotgrouppanel.PlotGroupPanel</text>
</g>
<!-- topo.tkgui.plotgrouppanel.PlotGroupPanel&#45;&gt;topo.tkgui.plotgrouppanel.SheetPanel -->
<g id="edge10" class="edge"><title>topo.tkgui.plotgrouppanel.PlotGroupPanel&#45;&gt;topo.tkgui.plotgrouppanel.SheetPanel</title>
<path fill="none" stroke="black" stroke-width="0.5" d="M901.785,-43C912.093,-43 922.533,-43 932.783,-43"/>
<polygon fill="black" stroke="black" points="932.798,-44.7501 937.798,-43 932.798,-41.2501 932.798,-44.7501"/>
</g>
<!-- param.parameterized.Parameterized -->
<g id="node13" class="node"><title>param.parameterized.Parameterized</title>
<polygon fill="none" stroke="black" stroke-width="0.5" points="294,-20 110,-20 110,-1.06581e-14 294,-3.55271e-15 294,-20"/>
<text text-anchor="middle" x="202" y="-7" font-family="Vera" font-size="10.00">param.parameterized.Parameterized</text>
</g>
<!-- paramtk.TkParameterizedBase -->
<g id="node14" class="node"><title>paramtk.TkParameterizedBase</title>
<polygon fill="none" stroke="black" stroke-width="0.5" points="485,-25 331,-25 331,-5 485,-5 485,-25"/>
<text text-anchor="middle" x="408" y="-12" font-family="Vera" font-size="10.00">paramtk.TkParameterizedBase</text>
</g>
<!-- param.parameterized.Parameterized&#45;&gt;paramtk.TkParameterizedBase -->
<g id="edge12" class="edge"><title>param.parameterized.Parameterized&#45;&gt;paramtk.TkParameterizedBase</title>
<path fill="none" stroke="black" stroke-width="0.5" d="M294.155,-12.2368C304.558,-12.4893 315.11,-12.7454 325.38,-12.9947"/>
<polygon fill="black" stroke="black" points="325.357,-14.7445 330.398,-13.1164 325.442,-11.2455 325.357,-14.7445"/>
</g>
<!-- paramtk.TkParameterized -->
<g id="node16" class="node"><title>paramtk.TkParameterized</title>
<polygon fill="none" stroke="black" stroke-width="0.5" points="656,-30 522,-30 522,-10 656,-10 656,-30"/>
<text text-anchor="middle" x="589" y="-17" font-family="Vera" font-size="10.00">paramtk.TkParameterized</text>
</g>
<!-- paramtk.TkParameterizedBase&#45;&gt;paramtk.TkParameterized -->
<g id="edge14" class="edge"><title>paramtk.TkParameterizedBase&#45;&gt;paramtk.TkParameterized</title>
<path fill="none" stroke="black" stroke-width="0.5" d="M485.548,-17.1422C495.938,-17.4292 506.56,-17.7226 516.851,-18.0069"/>
<polygon fill="black" stroke="black" points="516.828,-19.7569 521.875,-18.1457 516.925,-16.2582 516.828,-19.7569"/>
</g>
<!-- paramtk.TkParameterized&#45;&gt;topo.tkgui.plotgrouppanel.PlotGroupPanel -->
<g id="edge18" class="edge"><title>paramtk.TkParameterized&#45;&gt;topo.tkgui.plotgrouppanel.PlotGroupPanel</title>
<path fill="none" stroke="black" stroke-width="0.5" d="M656.244,-27.4357C670.64,-29.0275 686.115,-30.7386 701.349,-32.4232"/>
<polygon fill="black" stroke="black" points="701.342,-34.183 706.504,-32.9932 701.726,-30.7042 701.342,-34.183"/>
</g>
<!-- Tkinter.Frame&#45;&gt;topo.tkgui.plotgrouppanel.PlotGroupPanel -->
<g id="edge20" class="edge"><title>Tkinter.Frame&#45;&gt;topo.tkgui.plotgrouppanel.PlotGroupPanel</title>
<path fill="none" stroke="black" stroke-width="0.5" d="M629.598,-62.3156C651.101,-59.8345 678.45,-56.6788 704.78,-53.6408"/>
<polygon fill="black" stroke="black" points="705.263,-55.3467 710.03,-53.035 704.862,-51.8698 705.263,-55.3467"/>
</g>
<!-- Tkinter.Misc -->
<g id="node20" class="node"><title>Tkinter.Misc</title>
<polygon fill="none" stroke="black" stroke-width="0.5" points="73,-134 1,-134 1,-114 73,-114 73,-134"/>
<text text-anchor="middle" x="37" y="-121" font-family="Vera" font-size="10.00">Tkinter.Misc</text>
</g>
<!-- Tkinter.Misc&#45;&gt;Tkinter.BaseWidget -->
<g id="edge22" class="edge"><title>Tkinter.Misc&#45;&gt;Tkinter.BaseWidget</title>
<path fill="none" stroke="black" stroke-width="0.5" d="M73.6188,-124C94.2732,-124 120.553,-124 143.949,-124"/>
<polygon fill="black" stroke="black" points="144.204,-125.75 149.204,-124 144.204,-122.25 144.204,-125.75"/>
</g>
</g>
</svg>
