<?xml version="1.0" encoding="UTF-8" standalone="no"?>
<!DOCTYPE svg PUBLIC "-//W3C//DTD SVG 1.1//EN"
 "http://www.w3.org/Graphics/SVG/1.1/DTD/svg11.dtd">
<!-- Generated by graphviz version 2.26.3 (20100126.1600)
 -->
<!-- Title: inheritance1a184a655e Pages: 1 -->
<svg width="1070pt" height="237pt"
 viewBox="0.00 0.00 1070.00 237.00" xmlns="http://www.w3.org/2000/svg" xmlns:xlink="http://www.w3.org/1999/xlink">
<g id="graph1" class="graph" transform="scale(1 1) rotate(0) translate(4 233)">
<title>inheritance1a184a655e</title>
<polygon fill="white" stroke="white" points="-4,5 -4,-233 1067,-233 1067,5 -4,5"/>
<!-- topo.tests.unit.testparameterizedobject.AnotherTestPO -->
<g id="node1" class="node"><title>topo.tests.unit.testparameterizedobject.AnotherTestPO</title>
<polygon fill="none" stroke="black" stroke-width="0.5" points="676,-134.5 396,-134.5 396,-113.5 676,-113.5 676,-134.5"/>
<text text-anchor="middle" x="536" y="-121.5" font-family="Vera" font-size="10.00">topo.tests.unit.testparameterizedobject.AnotherTestPO</text>
</g>
<!-- topo.tests.unit.testparameterizedobject.TestParamInstantiation -->
<g id="node18" class="node"><title>topo.tests.unit.testparameterizedobject.TestParamInstantiation</title>
<polygon fill="none" stroke="black" stroke-width="0.5" points="1062,-134.5 742,-134.5 742,-113.5 1062,-113.5 1062,-134.5"/>
<text text-anchor="middle" x="902" y="-121.5" font-family="Vera" font-size="10.00">topo.tests.unit.testparameterizedobject.TestParamInstantiation</text>
</g>
<!-- topo.tests.unit.testparameterizedobject.AnotherTestPO&#45;&gt;topo.tests.unit.testparameterizedobject.TestParamInstantiation -->
<g id="edge16" class="edge"><title>topo.tests.unit.testparameterizedobject.AnotherTestPO&#45;&gt;topo.tests.unit.testparameterizedobject.TestParamInstantiation</title>
<path fill="none" stroke="black" stroke-width="0.5" d="M676.72,-124C696.409,-124 716.788,-124 736.877,-124"/>
<polygon fill="black" stroke="black" points="736.978,-125.75 741.978,-124 736.978,-122.25 736.978,-125.75"/>
</g>
<!-- param.parameterized.Parameterized -->
<g id="node2" class="node"><title>param.parameterized.Parameterized</title>
<polygon fill="none" stroke="black" stroke-width="0.5" points="262,-77.5 68,-77.5 68,-56.5 262,-56.5 262,-77.5"/>
<text text-anchor="middle" x="165" y="-64.5" font-family="Vera" font-size="10.00">param.parameterized.Parameterized</text>
</g>
<!-- param.parameterized.Parameterized&#45;&gt;topo.tests.unit.testparameterizedobject.AnotherTestPO -->
<g id="edge2" class="edge"><title>param.parameterized.Parameterized&#45;&gt;topo.tests.unit.testparameterizedobject.AnotherTestPO</title>
<path fill="none" stroke="black" stroke-width="0.5" d="M212.749,-77.0803C253.366,-85.4016 313.32,-97.088 366,-105 386.527,-108.083 408.518,-110.899 429.644,-113.364"/>
<polygon fill="black" stroke="black" points="429.538,-115.113 434.707,-113.95 429.941,-111.636 429.538,-115.113"/>
</g>
<!-- param.parameterized.ParameterizedFunction -->
<g id="node5" class="node"><title>param.parameterized.ParameterizedFunction</title>
<polygon fill="none" stroke="black" stroke-width="0.5" points="653,-96.5 419,-96.5 419,-75.5 653,-75.5 653,-96.5"/>
<text text-anchor="middle" x="536" y="-83.5" font-family="Vera" font-size="10.00">param.parameterized.ParameterizedFunction</text>
</g>
<!-- param.parameterized.Parameterized&#45;&gt;param.parameterized.ParameterizedFunction -->
<g id="edge10" class="edge"><title>param.parameterized.Parameterized&#45;&gt;param.parameterized.ParameterizedFunction</title>
<path fill="none" stroke="black" stroke-width="0.5" d="M262.476,-71.992C308.762,-74.3625 364.567,-77.2204 413.666,-79.7349"/>
<polygon fill="black" stroke="black" points="413.618,-81.4847 418.701,-79.9928 413.797,-77.9892 413.618,-81.4847"/>
</g>
<!-- topo.tests.unit.testparameterizedobject.TestPO -->
<g id="node7" class="node"><title>topo.tests.unit.testparameterizedobject.TestPO</title>
<polygon fill="none" stroke="black" stroke-width="0.5" points="657,-58.5 415,-58.5 415,-37.5 657,-37.5 657,-58.5"/>
<text text-anchor="middle" x="536" y="-45.5" font-family="Vera" font-size="10.00">topo.tests.unit.testparameterizedobject.TestPO</text>
</g>
<!-- param.parameterized.Parameterized&#45;&gt;topo.tests.unit.testparameterizedobject.TestPO -->
<g id="edge6" class="edge"><title>param.parameterized.Parameterized&#45;&gt;topo.tests.unit.testparameterizedobject.TestPO</title>
<path fill="none" stroke="black" stroke-width="0.5" d="M262.476,-62.008C307.322,-59.7113 361.104,-56.957 409.065,-54.5007"/>
<polygon fill="black" stroke="black" points="409.38,-56.237 414.284,-54.2334 409.201,-52.7415 409.38,-56.237"/>
</g>
<!-- topo.tests.unit.testparameterizedobject.TestAbstractPO -->
<g id="node9" class="node"><title>topo.tests.unit.testparameterizedobject.TestAbstractPO</title>
<polygon fill="none" stroke="black" stroke-width="0.5" points="678,-20.5 394,-20.5 394,0.5 678,0.5 678,-20.5"/>
<text text-anchor="middle" x="536" y="-7.5" font-family="Vera" font-size="10.00">topo.tests.unit.testparameterizedobject.TestAbstractPO</text>
</g>
<!-- param.parameterized.Parameterized&#45;&gt;topo.tests.unit.testparameterizedobject.TestAbstractPO -->
<g id="edge8" class="edge"><title>param.parameterized.Parameterized&#45;&gt;topo.tests.unit.testparameterizedobject.TestAbstractPO</title>
<path fill="none" stroke="black" stroke-width="0.5" d="M212.749,-56.9197C253.366,-48.5984 313.32,-36.912 366,-29 386.527,-25.917 408.518,-23.1011 429.644,-20.6363"/>
<polygon fill="black" stroke="black" points="429.941,-22.3637 434.707,-20.0503 429.538,-18.8869 429.941,-22.3637"/>
</g>
<!-- topo.tests.unit.testparameterizedobject.some_fn -->
<g id="node4" class="node"><title>topo.tests.unit.testparameterizedobject.some_fn</title>
<polygon fill="none" stroke="black" stroke-width="0.5" points="1028,-96.5 776,-96.5 776,-75.5 1028,-75.5 1028,-96.5"/>
<text text-anchor="middle" x="902" y="-83.5" font-family="Vera" font-size="10.00">topo.tests.unit.testparameterizedobject.some_fn</text>
</g>
<!-- param.parameterized.ParameterizedFunction&#45;&gt;topo.tests.unit.testparameterizedobject.some_fn -->
<g id="edge4" class="edge"><title>param.parameterized.ParameterizedFunction&#45;&gt;topo.tests.unit.testparameterizedobject.some_fn</title>
<path fill="none" stroke="black" stroke-width="0.5" d="M653.063,-86C690.493,-86 732.171,-86 770.554,-86"/>
<polygon fill="black" stroke="black" points="770.704,-87.7501 775.704,-86 770.704,-84.2501 770.704,-87.7501"/>
</g>
<!-- unittest.case.TestCase -->
<g id="node11" class="node"><title>unittest.case.TestCase</title>
<polygon fill="none" stroke="black" stroke-width="0.5" points="227,-191.5 103,-191.5 103,-170.5 227,-170.5 227,-191.5"/>
<text text-anchor="middle" x="165" y="-178.5" font-family="Vera" font-size="10.00">unittest.case.TestCase</text>
</g>
<!-- topo.tests.unit.testparameterizedobject.TestParameterized -->
<g id="node14" class="node"><title>topo.tests.unit.testparameterizedobject.TestParameterized</title>
<polygon fill="none" stroke="black" stroke-width="0.5" points="685,-210.5 387,-210.5 387,-189.5 685,-189.5 685,-210.5"/>
<text text-anchor="middle" x="536" y="-197.5" font-family="Vera" font-size="10.00">topo.tests.unit.testparameterizedobject.TestParameterized</text>
</g>
<!-- unittest.case.TestCase&#45;&gt;topo.tests.unit.testparameterizedobject.TestParameterized -->
<g id="edge12" class="edge"><title>unittest.case.TestCase&#45;&gt;topo.tests.unit.testparameterizedobject.TestParameterized</title>
<path fill="none" stroke="black" stroke-width="0.5" d="M227.516,-184.202C269.627,-186.358 327.129,-189.303 381.082,-192.066"/>
<polygon fill="black" stroke="black" points="381.208,-193.825 386.291,-192.333 381.387,-190.329 381.208,-193.825"/>
</g>
<!-- topo.tests.unit.testparameterizedobject.TestParameterizedFunction -->
<g id="node16" class="node"><title>topo.tests.unit.testparameterizedobject.TestParameterizedFunction</title>
<polygon fill="none" stroke="black" stroke-width="0.5" points="705,-172.5 367,-172.5 367,-151.5 705,-151.5 705,-172.5"/>
<text text-anchor="middle" x="536" y="-159.5" font-family="Vera" font-size="10.00">topo.tests.unit.testparameterizedobject.TestParameterizedFunction</text>
</g>
<!-- unittest.case.TestCase&#45;&gt;topo.tests.unit.testparameterizedobject.TestParameterizedFunction -->
<g id="edge14" class="edge"><title>unittest.case.TestCase&#45;&gt;topo.tests.unit.testparameterizedobject.TestParameterizedFunction</title>
<path fill="none" stroke="black" stroke-width="0.5" d="M227.516,-177.798C264.476,-175.906 313.292,-173.406 361.159,-170.954"/>
<polygon fill="black" stroke="black" points="361.483,-172.69 366.387,-170.686 361.304,-169.195 361.483,-172.69"/>
</g>
<!-- topo.tests.unit.testparameterizedobject._SomeRandomNumbers -->
<g id="node12" class="node"><title>topo.tests.unit.testparameterizedobject._SomeRandomNumbers</title>
<polygon fill="none" stroke="black" stroke-width="0.5" points="329,-229.5 1,-229.5 1,-208.5 329,-208.5 329,-229.5"/>
<text text-anchor="middle" x="165" y="-216.5" font-family="Vera" font-size="10.00">topo.tests.unit.testparameterizedobject._SomeRandomNumbers</text>
</g>
</g>
</svg>
