<?xml version="1.0" encoding="UTF-8" standalone="no"?>
<!DOCTYPE svg PUBLIC "-//W3C//DTD SVG 1.1//EN"
 "http://www.w3.org/Graphics/SVG/1.1/DTD/svg11.dtd">
<!-- Generated by graphviz version 2.26.3 (20100126.1600)
 -->
<!-- Title: inheritance50e9782c42 Pages: 1 -->
<svg width="848pt" height="142pt"
 viewBox="0.00 0.00 848.00 142.00" xmlns="http://www.w3.org/2000/svg" xmlns:xlink="http://www.w3.org/1999/xlink">
<g id="graph1" class="graph" transform="scale(1 1) rotate(0) translate(4 138)">
<title>inheritance50e9782c42</title>
<polygon fill="white" stroke="white" points="-4,5 -4,-138 845,-138 845,5 -4,5"/>
<!-- topo.transferfn.misc.KernelMax -->
<g id="node1" class="node"><title>topo.transferfn.misc.KernelMax</title>
<polygon fill="none" stroke="black" stroke-width="0.5" points="579,-134 419,-134 419,-114 579,-114 579,-134"/>
<text text-anchor="middle" x="499" y="-121" font-family="Vera" font-size="10.00">topo.transferfn.misc.KernelMax</text>
</g>
<!-- imagen.transferfn.TransferFn -->
<g id="node2" class="node"><title>imagen.transferfn.TransferFn</title>
<polygon fill="none" stroke="black" stroke-width="0.5" points="370,-77 220,-77 220,-57 370,-57 370,-77"/>
<text text-anchor="middle" x="295" y="-64" font-family="Vera" font-size="10.00">imagen.transferfn.TransferFn</text>
</g>
<!-- imagen.transferfn.TransferFn&#45;&gt;topo.transferfn.misc.KernelMax -->
<g id="edge2" class="edge"><title>imagen.transferfn.TransferFn&#45;&gt;topo.transferfn.misc.KernelMax</title>
<path fill="none" stroke="black" stroke-width="0.5" d="M321.169,-77.0236C343.477,-85.3103 376.519,-96.9777 406,-105 416.48,-107.852 427.728,-110.494 438.653,-112.847"/>
<polygon fill="black" stroke="black" points="438.392,-114.58 443.647,-113.907 439.119,-111.156 438.392,-114.58"/>
</g>
<!-- topo.transferfn.TransferFnWithState -->
<g id="node5" class="node"><title>topo.transferfn.TransferFnWithState</title>
<polygon fill="none" stroke="black" stroke-width="0.5" points="589,-96 409,-96 409,-76 589,-76 589,-96"/>
<text text-anchor="middle" x="499" y="-83" font-family="Vera" font-size="10.00">topo.transferfn.TransferFnWithState</text>
</g>
<!-- imagen.transferfn.TransferFn&#45;&gt;topo.transferfn.TransferFnWithState -->
<g id="edge8" class="edge"><title>imagen.transferfn.TransferFn&#45;&gt;topo.transferfn.TransferFnWithState</title>
<path fill="none" stroke="black" stroke-width="0.5" d="M370.093,-73.994C380.93,-75.0033 392.204,-76.0533 403.375,-77.0937"/>
<polygon fill="black" stroke="black" points="403.358,-78.8496 408.498,-77.5709 403.682,-75.3647 403.358,-78.8496"/>
</g>
<!-- topo.transferfn.misc.PatternCombine -->
<g id="node7" class="node"><title>topo.transferfn.misc.PatternCombine</title>
<polygon fill="none" stroke="black" stroke-width="0.5" points="592,-58 406,-58 406,-38 592,-38 592,-58"/>
<text text-anchor="middle" x="499" y="-45" font-family="Vera" font-size="10.00">topo.transferfn.misc.PatternCombine</text>
</g>
<!-- imagen.transferfn.TransferFn&#45;&gt;topo.transferfn.misc.PatternCombine -->
<g id="edge6" class="edge"><title>imagen.transferfn.TransferFn&#45;&gt;topo.transferfn.misc.PatternCombine</title>
<path fill="none" stroke="black" stroke-width="0.5" d="M370.093,-60.006C380.051,-59.0785 390.378,-58.1167 400.656,-57.1595"/>
<polygon fill="black" stroke="black" points="400.879,-58.8964 405.695,-56.6902 400.554,-55.4115 400.879,-58.8964"/>
</g>
<!-- topo.transferfn.misc.HalfRectify -->
<g id="node10" class="node"><title>topo.transferfn.misc.HalfRectify</title>
<polygon fill="none" stroke="black" stroke-width="0.5" points="579,-20 419,-20 419,-1.06581e-14 579,-3.55271e-15 579,-20"/>
<text text-anchor="middle" x="499" y="-7" font-family="Vera" font-size="10.00">topo.transferfn.misc.HalfRectify</text>
</g>
<!-- imagen.transferfn.TransferFn&#45;&gt;topo.transferfn.misc.HalfRectify -->
<g id="edge10" class="edge"><title>imagen.transferfn.TransferFn&#45;&gt;topo.transferfn.misc.HalfRectify</title>
<path fill="none" stroke="black" stroke-width="0.5" d="M321.169,-56.9764C343.477,-48.6897 376.519,-37.0223 406,-29 416.48,-26.1483 427.728,-23.5056 438.653,-21.1533"/>
<polygon fill="black" stroke="black" points="439.119,-22.8435 443.647,-20.0933 438.392,-19.4198 439.119,-22.8435"/>
</g>
<!-- topo.transferfn.misc.HomeostaticResponse -->
<g id="node4" class="node"><title>topo.transferfn.misc.HomeostaticResponse</title>
<polygon fill="none" stroke="black" stroke-width="0.5" points="840,-115 628,-115 628,-95 840,-95 840,-115"/>
<text text-anchor="middle" x="734" y="-102" font-family="Vera" font-size="10.00">topo.transferfn.misc.HomeostaticResponse</text>
</g>
<!-- topo.transferfn.TransferFnWithState&#45;&gt;topo.transferfn.misc.HomeostaticResponse -->
<g id="edge4" class="edge"><title>topo.transferfn.TransferFnWithState&#45;&gt;topo.transferfn.misc.HomeostaticResponse</title>
<path fill="none" stroke="black" stroke-width="0.5" d="M589.521,-93.3187C600.397,-94.1981 611.599,-95.1038 622.727,-96.0034"/>
<polygon fill="black" stroke="black" points="622.708,-97.7575 627.833,-96.4163 622.99,-94.2689 622.708,-97.7575"/>
</g>
<!-- topo.transferfn.misc.AttributeTrackingTF -->
<g id="node14" class="node"><title>topo.transferfn.misc.AttributeTrackingTF</title>
<polygon fill="none" stroke="black" stroke-width="0.5" points="834,-77 634,-77 634,-57 834,-57 834,-77"/>
<text text-anchor="middle" x="734" y="-64" font-family="Vera" font-size="10.00">topo.transferfn.misc.AttributeTrackingTF</text>
</g>
<!-- topo.transferfn.TransferFnWithState&#45;&gt;topo.transferfn.misc.AttributeTrackingTF -->
<g id="edge14" class="edge"><title>topo.transferfn.TransferFnWithState&#45;&gt;topo.transferfn.misc.AttributeTrackingTF</title>
<path fill="none" stroke="black" stroke-width="0.5" d="M589.521,-78.6813C602.305,-77.6477 615.54,-76.5776 628.574,-75.5238"/>
<polygon fill="black" stroke="black" points="628.91,-77.2524 633.753,-75.1051 628.628,-73.7638 628.91,-77.2524"/>
</g>
<!-- param.parameterized.Parameterized -->
<g id="node12" class="node"><title>param.parameterized.Parameterized</title>
<polygon fill="none" stroke="black" stroke-width="0.5" points="184,-77 8.52651e-14,-77 0,-57 184,-57 184,-77"/>
<text text-anchor="middle" x="92" y="-64" font-family="Vera" font-size="10.00">param.parameterized.Parameterized</text>
</g>
<!-- param.parameterized.Parameterized&#45;&gt;imagen.transferfn.TransferFn -->
<g id="edge12" class="edge"><title>param.parameterized.Parameterized&#45;&gt;imagen.transferfn.TransferFn</title>
<path fill="none" stroke="black" stroke-width="0.5" d="M184.293,-67C194.461,-67 204.753,-67 214.756,-67"/>
<polygon fill="black" stroke="black" points="214.959,-68.7501 219.959,-67 214.959,-65.2501 214.959,-68.7501"/>
</g>
</g>
</svg>
