<?xml version="1.0" encoding="UTF-8" standalone="no"?>
<!DOCTYPE svg PUBLIC "-//W3C//DTD SVG 1.1//EN"
 "http://www.w3.org/Graphics/SVG/1.1/DTD/svg11.dtd">
<!-- Generated by graphviz version 2.26.3 (20100126.1600)
 -->
<!-- Title: inheritance09fca71fec Pages: 1 -->
<svg width="1112pt" height="246pt"
 viewBox="0.00 0.00 1112.00 246.00" xmlns="http://www.w3.org/2000/svg" xmlns:xlink="http://www.w3.org/1999/xlink">
<g id="graph1" class="graph" transform="scale(1 1) rotate(0) translate(4 242)">
<title>inheritance09fca71fec</title>
<polygon fill="white" stroke="white" points="-4,5 -4,-242 1109,-242 1109,5 -4,5"/>
<!-- param.parameterized.Parameterized -->
<g id="node1" class="node"><title>param.parameterized.Parameterized</title>
<polygon fill="none" stroke="black" stroke-width="0.5" points="436,-219 252,-219 252,-199 436,-199 436,-219"/>
<text text-anchor="middle" x="344" y="-206" font-family="Vera" font-size="10.00">param.parameterized.Parameterized</text>
</g>
<!-- paramtk.TkParameterizedBase -->
<g id="node2" class="node"><title>paramtk.TkParameterizedBase</title>
<polygon fill="none" stroke="black" stroke-width="0.5" points="647,-238 493,-238 493,-218 647,-218 647,-238"/>
<text text-anchor="middle" x="570" y="-225" font-family="Vera" font-size="10.00">paramtk.TkParameterizedBase</text>
</g>
<!-- param.parameterized.Parameterized&#45;&gt;paramtk.TkParameterizedBase -->
<g id="edge2" class="edge"><title>param.parameterized.Parameterized&#45;&gt;paramtk.TkParameterizedBase</title>
<path fill="none" stroke="black" stroke-width="0.5" d="M436.249,-216.755C453.172,-218.178 470.739,-219.655 487.359,-221.052"/>
<polygon fill="black" stroke="black" points="487.356,-222.808 492.485,-221.483 487.649,-219.32 487.356,-222.808"/>
</g>
<!-- topo.tkgui.topoconsole.PlotsMenuEntry -->
<g id="node9" class="node"><title>topo.tkgui.topoconsole.PlotsMenuEntry</title>
<polygon fill="none" stroke="black" stroke-width="0.5" points="667,-200 473,-200 473,-180 667,-180 667,-200"/>
<text text-anchor="middle" x="570" y="-187" font-family="Vera" font-size="10.00">topo.tkgui.topoconsole.PlotsMenuEntry</text>
</g>
<!-- param.parameterized.Parameterized&#45;&gt;topo.tkgui.topoconsole.PlotsMenuEntry -->
<g id="edge8" class="edge"><title>param.parameterized.Parameterized&#45;&gt;topo.tkgui.topoconsole.PlotsMenuEntry</title>
<path fill="none" stroke="black" stroke-width="0.5" d="M436.249,-201.245C446.423,-200.389 456.83,-199.514 467.124,-198.649"/>
<polygon fill="black" stroke="black" points="467.331,-200.388 472.166,-198.225 467.037,-196.9 467.331,-200.388"/>
</g>
<!-- paramtk.TkParameterized -->
<g id="node4" class="node"><title>paramtk.TkParameterized</title>
<polygon fill="none" stroke="black" stroke-width="0.5" points="850,-228 716,-228 716,-208 850,-208 850,-228"/>
<text text-anchor="middle" x="783" y="-215" font-family="Vera" font-size="10.00">paramtk.TkParameterized</text>
</g>
<!-- paramtk.TkParameterizedBase&#45;&gt;paramtk.TkParameterized -->
<g id="edge4" class="edge"><title>paramtk.TkParameterizedBase&#45;&gt;paramtk.TkParameterized</title>
<path fill="none" stroke="black" stroke-width="0.5" d="M647.5,-224.361C668.116,-223.394 690.3,-222.352 710.63,-221.398"/>
<polygon fill="black" stroke="black" points="710.844,-223.14 715.756,-221.157 710.68,-219.643 710.844,-223.14"/>
</g>
<!-- topo.tkgui.topoconsole.TopoConsole -->
<g id="node40" class="node"><title>topo.tkgui.topoconsole.TopoConsole</title>
<polygon fill="none" stroke="black" stroke-width="0.5" points="1092,-199 910,-199 910,-179 1092,-179 1092,-199"/>
<text text-anchor="middle" x="1001" y="-186" font-family="Vera" font-size="10.00">topo.tkgui.topoconsole.TopoConsole</text>
</g>
<!-- paramtk.TkParameterized&#45;&gt;topo.tkgui.topoconsole.TopoConsole -->
<g id="edge40" class="edge"><title>paramtk.TkParameterized&#45;&gt;topo.tkgui.topoconsole.TopoConsole</title>
<path fill="none" stroke="black" stroke-width="0.5" d="M850.186,-209.062C872.401,-206.107 897.347,-202.789 920.458,-199.714"/>
<polygon fill="black" stroke="black" points="920.942,-201.415 925.668,-199.021 920.481,-197.946 920.942,-201.415"/>
</g>
<!-- paramtk.ScrolledWindow -->
<g id="node6" class="node"><title>paramtk.ScrolledWindow</title>
<polygon fill="none" stroke="black" stroke-width="0.5" points="635,-162 505,-162 505,-142 635,-142 635,-162"/>
<text text-anchor="middle" x="570" y="-149" font-family="Vera" font-size="10.00">paramtk.ScrolledWindow</text>
</g>
<!-- paramtk.AppWindow -->
<g id="node17" class="node"><title>paramtk.AppWindow</title>
<polygon fill="none" stroke="black" stroke-width="0.5" points="839,-171 727,-171 727,-151 839,-151 839,-171"/>
<text text-anchor="middle" x="783" y="-158" font-family="Vera" font-size="10.00">paramtk.AppWindow</text>
</g>
<!-- paramtk.ScrolledWindow&#45;&gt;paramtk.AppWindow -->
<g id="edge14" class="edge"><title>paramtk.ScrolledWindow&#45;&gt;paramtk.AppWindow</title>
<path fill="none" stroke="black" stroke-width="0.5" d="M635.064,-154.749C662.706,-155.917 694.76,-157.272 721.949,-158.42"/>
<polygon fill="black" stroke="black" points="721.898,-160.17 726.967,-158.632 722.046,-156.673 721.898,-160.17"/>
</g>
<!-- Tkinter.Toplevel -->
<g id="node7" class="node"><title>Tkinter.Toplevel</title>
<polygon fill="none" stroke="black" stroke-width="0.5" points="389,-162 299,-162 299,-142 389,-142 389,-162"/>
<text text-anchor="middle" x="344" y="-149" font-family="Vera" font-size="10.00">Tkinter.Toplevel</text>
</g>
<!-- Tkinter.Toplevel&#45;&gt;paramtk.ScrolledWindow -->
<g id="edge6" class="edge"><title>Tkinter.Toplevel&#45;&gt;paramtk.ScrolledWindow</title>
<path fill="none" stroke="black" stroke-width="0.5" d="M389.191,-152C420.745,-152 463.491,-152 499.499,-152"/>
<polygon fill="black" stroke="black" points="499.761,-153.75 504.761,-152 499.761,-150.25 499.761,-153.75"/>
</g>
<!-- paramtk.tilewrapper.Style -->
<g id="node11" class="node"><title>paramtk.tilewrapper.Style</title>
<polygon fill="none" stroke="black" stroke-width="0.5" points="411,-105 277,-105 277,-85 411,-85 411,-105"/>
<text text-anchor="middle" x="344" y="-92" font-family="Vera" font-size="10.00">paramtk.tilewrapper.Style</text>
</g>
<!-- paramtk.tilewrapper.Widget -->
<g id="node12" class="node"><title>paramtk.tilewrapper.Widget</title>
<polygon fill="none" stroke="black" stroke-width="0.5" points="642,-105 498,-105 498,-85 642,-85 642,-105"/>
<text text-anchor="middle" x="570" y="-92" font-family="Vera" font-size="10.00">paramtk.tilewrapper.Widget</text>
</g>
<!-- paramtk.tilewrapper.Style&#45;&gt;paramtk.tilewrapper.Widget -->
<g id="edge12" class="edge"><title>paramtk.tilewrapper.Style&#45;&gt;paramtk.tilewrapper.Widget</title>
<path fill="none" stroke="black" stroke-width="0.5" d="M411.196,-95C436.812,-95 466.208,-95 492.691,-95"/>
<polygon fill="black" stroke="black" points="492.946,-96.7501 497.946,-95 492.946,-93.2501 492.946,-96.7501"/>
</g>
<!-- paramtk.tilewrapper.Notebook -->
<g id="node29" class="node"><title>paramtk.tilewrapper.Notebook</title>
<polygon fill="none" stroke="black" stroke-width="0.5" points="861,-105 705,-105 705,-85 861,-85 861,-105"/>
<text text-anchor="middle" x="783" y="-92" font-family="Vera" font-size="10.00">paramtk.tilewrapper.Notebook</text>
</g>
<!-- paramtk.tilewrapper.Widget&#45;&gt;paramtk.tilewrapper.Notebook -->
<g id="edge26" class="edge"><title>paramtk.tilewrapper.Widget&#45;&gt;paramtk.tilewrapper.Notebook</title>
<path fill="none" stroke="black" stroke-width="0.5" d="M642.112,-95C660.425,-95 680.257,-95 699.1,-95"/>
<polygon fill="black" stroke="black" points="699.386,-96.7501 704.386,-95 699.386,-93.2501 699.386,-96.7501"/>
</g>
<!-- Tkinter.Widget -->
<g id="node13" class="node"><title>Tkinter.Widget</title>
<polygon fill="none" stroke="black" stroke-width="0.5" points="385,-67 303,-67 303,-47 385,-47 385,-67"/>
<text text-anchor="middle" x="344" y="-54" font-family="Vera" font-size="10.00">Tkinter.Widget</text>
</g>
<!-- Tkinter.Widget&#45;&gt;paramtk.tilewrapper.Widget -->
<g id="edge10" class="edge"><title>Tkinter.Widget&#45;&gt;paramtk.tilewrapper.Widget</title>
<path fill="none" stroke="black" stroke-width="0.5" d="M385.715,-64.0141C419.16,-69.6375 466.686,-77.6287 505.097,-84.0871"/>
<polygon fill="black" stroke="black" points="504.992,-85.844 510.213,-84.9474 505.573,-82.3925 504.992,-85.844"/>
</g>
<!-- Tkinter.Menu -->
<g id="node21" class="node"><title>Tkinter.Menu</title>
<polygon fill="none" stroke="black" stroke-width="0.5" points="609,-67 531,-67 531,-47 609,-47 609,-67"/>
<text text-anchor="middle" x="570" y="-54" font-family="Vera" font-size="10.00">Tkinter.Menu</text>
</g>
<!-- Tkinter.Widget&#45;&gt;Tkinter.Menu -->
<g id="edge16" class="edge"><title>Tkinter.Widget&#45;&gt;Tkinter.Menu</title>
<path fill="none" stroke="black" stroke-width="0.5" d="M385.715,-57C425.385,-57 484.866,-57 525.448,-57"/>
<polygon fill="black" stroke="black" points="525.797,-58.7501 530.797,-57 525.797,-55.2501 525.797,-58.7501"/>
</g>
<!-- Tkinter.Pack -->
<g id="node16" class="node"><title>Tkinter.Pack</title>
<polygon fill="none" stroke="black" stroke-width="0.5" points="199,-96 127,-96 127,-76 199,-76 199,-96"/>
<text text-anchor="middle" x="163" y="-83" font-family="Vera" font-size="10.00">Tkinter.Pack</text>
</g>
<!-- Tkinter.Pack&#45;&gt;Tkinter.Widget -->
<g id="edge20" class="edge"><title>Tkinter.Pack&#45;&gt;Tkinter.Widget</title>
<path fill="none" stroke="black" stroke-width="0.5" d="M199.628,-80.1314C227.751,-75.6255 266.786,-69.3712 297.177,-64.502"/>
<polygon fill="black" stroke="black" points="297.701,-66.1904 302.361,-63.6714 297.147,-62.7345 297.701,-66.1904"/>
</g>
<!-- paramtk.AppWindow&#45;&gt;topo.tkgui.topoconsole.TopoConsole -->
<g id="edge38" class="edge"><title>paramtk.AppWindow&#45;&gt;topo.tkgui.topoconsole.TopoConsole</title>
<path fill="none" stroke="black" stroke-width="0.5" d="M839.14,-168.211C863.031,-171.279 891.392,-174.922 917.648,-178.294"/>
<polygon fill="black" stroke="black" points="917.687,-180.064 922.869,-178.965 918.133,-176.592 917.687,-180.064"/>
</g>
<!-- Tkinter.Place -->
<g id="node19" class="node"><title>Tkinter.Place</title>
<polygon fill="none" stroke="black" stroke-width="0.5" points="200,-58 126,-58 126,-38 200,-38 200,-58"/>
<text text-anchor="middle" x="163" y="-45" font-family="Vera" font-size="10.00">Tkinter.Place</text>
</g>
<!-- Tkinter.Place&#45;&gt;Tkinter.Widget -->
<g id="edge22" class="edge"><title>Tkinter.Place&#45;&gt;Tkinter.Widget</title>
<path fill="none" stroke="black" stroke-width="0.5" d="M200.503,-49.8648C228.596,-51.2617 267.208,-53.1816 297.304,-54.6781"/>
<polygon fill="black" stroke="black" points="297.357,-56.4328 302.438,-54.9334 297.531,-52.9371 297.357,-56.4328"/>
</g>
<!-- Tkinter.Grid -->
<g id="node20" class="node"><title>Tkinter.Grid</title>
<polygon fill="none" stroke="black" stroke-width="0.5" points="199,-20 127,-20 127,-1.06581e-14 199,-3.55271e-15 199,-20"/>
<text text-anchor="middle" x="163" y="-7" font-family="Vera" font-size="10.00">Tkinter.Grid</text>
</g>
<!-- Tkinter.Grid&#45;&gt;Tkinter.Widget -->
<g id="edge24" class="edge"><title>Tkinter.Grid&#45;&gt;Tkinter.Widget</title>
<path fill="none" stroke="black" stroke-width="0.5" d="M199.193,-19.3982C228.375,-26.9758 269.512,-37.6577 300.486,-45.7009"/>
<polygon fill="black" stroke="black" points="300.088,-47.4053 305.367,-46.9682 300.967,-44.0177 300.088,-47.4053"/>
</g>
<!-- paramtk.Menu -->
<g id="node34" class="node"><title>paramtk.Menu</title>
<polygon fill="none" stroke="black" stroke-width="0.5" points="825,-67 741,-67 741,-47 825,-47 825,-67"/>
<text text-anchor="middle" x="783" y="-54" font-family="Vera" font-size="10.00">paramtk.Menu</text>
</g>
<!-- Tkinter.Menu&#45;&gt;paramtk.Menu -->
<g id="edge32" class="edge"><title>Tkinter.Menu&#45;&gt;paramtk.Menu</title>
<path fill="none" stroke="black" stroke-width="0.5" d="M609.067,-57C644.814,-57 697.778,-57 735.861,-57"/>
<polygon fill="black" stroke="black" points="735.898,-58.7501 740.898,-57 735.898,-55.2501 735.898,-58.7501"/>
</g>
<!-- Tkinter.Wm -->
<g id="node23" class="node"><title>Tkinter.Wm</title>
<polygon fill="none" stroke="black" stroke-width="0.5" points="198,-172 128,-172 128,-152 198,-152 198,-172"/>
<text text-anchor="middle" x="163" y="-159" font-family="Vera" font-size="10.00">Tkinter.Wm</text>
</g>
<!-- Tkinter.Wm&#45;&gt;Tkinter.Toplevel -->
<g id="edge36" class="edge"><title>Tkinter.Wm&#45;&gt;Tkinter.Toplevel</title>
<path fill="none" stroke="black" stroke-width="0.5" d="M198.328,-160.048C225.462,-158.549 263.295,-156.459 293.605,-154.784"/>
<polygon fill="black" stroke="black" points="293.891,-156.521 298.787,-154.498 293.698,-153.027 293.891,-156.521"/>
</g>
<!-- Tkinter.BaseWidget -->
<g id="node24" class="node"><title>Tkinter.BaseWidget</title>
<polygon fill="none" stroke="black" stroke-width="0.5" points="215,-134 111,-134 111,-114 215,-114 215,-134"/>
<text text-anchor="middle" x="163" y="-121" font-family="Vera" font-size="10.00">Tkinter.BaseWidget</text>
</g>
<!-- Tkinter.BaseWidget&#45;&gt;Tkinter.Toplevel -->
<g id="edge34" class="edge"><title>Tkinter.BaseWidget&#45;&gt;Tkinter.Toplevel</title>
<path fill="none" stroke="black" stroke-width="0.5" d="M215.839,-132.174C240.388,-135.972 269.437,-140.465 293.666,-144.214"/>
<polygon fill="black" stroke="black" points="293.551,-145.967 298.76,-145.002 294.087,-142.508 293.551,-145.967"/>
</g>
<!-- Tkinter.BaseWidget&#45;&gt;Tkinter.Widget -->
<g id="edge18" class="edge"><title>Tkinter.BaseWidget&#45;&gt;Tkinter.Widget</title>
<path fill="none" stroke="black" stroke-width="0.5" d="M196.268,-113.999C202.984,-111.452 209.862,-108.443 216,-105 233.919,-94.9491 233.419,-84.7677 252,-76 266.047,-69.3718 282.374,-65.0457 297.342,-62.2261"/>
<polygon fill="black" stroke="black" points="297.748,-63.9314 302.361,-61.3265 297.13,-60.4863 297.748,-63.9314"/>
</g>
<!-- topo.tkgui.topoconsole.DockManager -->
<g id="node31" class="node"><title>topo.tkgui.topoconsole.DockManager</title>
<polygon fill="none" stroke="black" stroke-width="0.5" points="1094,-105 908,-105 908,-85 1094,-85 1094,-105"/>
<text text-anchor="middle" x="1001" y="-92" font-family="Vera" font-size="10.00">topo.tkgui.topoconsole.DockManager</text>
</g>
<!-- paramtk.tilewrapper.Notebook&#45;&gt;topo.tkgui.topoconsole.DockManager -->
<g id="edge28" class="edge"><title>paramtk.tilewrapper.Notebook&#45;&gt;topo.tkgui.topoconsole.DockManager</title>
<path fill="none" stroke="black" stroke-width="0.5" d="M861.703,-95C875.063,-95 889.083,-95 902.869,-95"/>
<polygon fill="black" stroke="black" points="902.936,-96.7501 907.936,-95 902.936,-93.2501 902.936,-96.7501"/>
</g>
<!-- topo.tkgui.topoconsole.ControllableMenu -->
<g id="node33" class="node"><title>topo.tkgui.topoconsole.ControllableMenu</title>
<polygon fill="none" stroke="black" stroke-width="0.5" points="1103,-67 899,-67 899,-47 1103,-47 1103,-67"/>
<text text-anchor="middle" x="1001" y="-54" font-family="Vera" font-size="10.00">topo.tkgui.topoconsole.ControllableMenu</text>
</g>
<!-- paramtk.Menu&#45;&gt;topo.tkgui.topoconsole.ControllableMenu -->
<g id="edge30" class="edge"><title>paramtk.Menu&#45;&gt;topo.tkgui.topoconsole.ControllableMenu</title>
<path fill="none" stroke="black" stroke-width="0.5" d="M825.033,-57C844.554,-57 868.754,-57 892.896,-57"/>
<polygon fill="black" stroke="black" points="893.045,-58.7501 898.045,-57 893.045,-55.2501 893.045,-58.7501"/>
</g>
<!-- Tkinter.Misc -->
<g id="node39" class="node"><title>Tkinter.Misc</title>
<polygon fill="none" stroke="black" stroke-width="0.5" points="73,-134 1,-134 1,-114 73,-114 73,-134"/>
<text text-anchor="middle" x="37" y="-121" font-family="Vera" font-size="10.00">Tkinter.Misc</text>
</g>
<!-- Tkinter.Misc&#45;&gt;Tkinter.BaseWidget -->
<g id="edge42" class="edge"><title>Tkinter.Misc&#45;&gt;Tkinter.BaseWidget</title>
<path fill="none" stroke="black" stroke-width="0.5" d="M73.7831,-124C83.646,-124 94.5523,-124 105.255,-124"/>
<polygon fill="black" stroke="black" points="105.487,-125.75 110.487,-124 105.487,-122.25 105.487,-125.75"/>
</g>
</g>
</svg>
