<?xml version="1.0" encoding="UTF-8" standalone="no"?>
<!DOCTYPE svg PUBLIC "-//W3C//DTD SVG 1.1//EN"
 "http://www.w3.org/Graphics/SVG/1.1/DTD/svg11.dtd">
<!-- Generated by graphviz version 2.26.3 (20100126.1600)
 -->
<!-- Title: inheritancef4cea304dd Pages: 1 -->
<svg width="1072pt" height="256pt"
 viewBox="0.00 0.00 1072.00 256.00" xmlns="http://www.w3.org/2000/svg" xmlns:xlink="http://www.w3.org/1999/xlink">
<g id="graph1" class="graph" transform="scale(1 1) rotate(0) translate(4 252)">
<title>inheritancef4cea304dd</title>
<polygon fill="white" stroke="white" points="-4,5 -4,-252 1069,-252 1069,5 -4,5"/>
<!-- topo.base.cf.NullCFError -->
<g id="node1" class="node"><title>topo.base.cf.NullCFError</title>
<polygon fill="none" stroke="black" stroke-width="0.5" points="156,-96 28,-96 28,-76 156,-76 156,-96"/>
<text text-anchor="middle" x="92" y="-83" font-family="Vera" font-size="10.00">topo.base.cf.NullCFError</text>
</g>
<!-- topo.base.projection.ProjectionSheet -->
<g id="node2" class="node"><title>topo.base.projection.ProjectionSheet</title>
<polygon fill="none" stroke="black" stroke-width="0.5" points="854,-248 670,-248 670,-228 854,-228 854,-248"/>
<text text-anchor="middle" x="762" y="-235" font-family="Vera" font-size="10.00">topo.base.projection.ProjectionSheet</text>
</g>
<!-- topo.base.cf.CFSheet -->
<g id="node18" class="node"><title>topo.base.cf.CFSheet</title>
<polygon fill="none" stroke="black" stroke-width="0.5" points="1032,-248 922,-248 922,-228 1032,-228 1032,-248"/>
<text text-anchor="middle" x="977" y="-235" font-family="Vera" font-size="10.00">topo.base.cf.CFSheet</text>
</g>
<!-- topo.base.projection.ProjectionSheet&#45;&gt;topo.base.cf.CFSheet -->
<g id="edge14" class="edge"><title>topo.base.projection.ProjectionSheet&#45;&gt;topo.base.cf.CFSheet</title>
<path fill="none" stroke="black" stroke-width="0.5" d="M854.115,-238C875.055,-238 896.79,-238 916.054,-238"/>
<polygon fill="black" stroke="black" points="916.419,-239.75 921.419,-238 916.419,-236.25 916.419,-239.75"/>
</g>
<!-- topo.base.sheet.Sheet -->
<g id="node3" class="node"><title>topo.base.sheet.Sheet</title>
<polygon fill="none" stroke="black" stroke-width="0.5" points="613,-248 497,-248 497,-228 613,-228 613,-248"/>
<text text-anchor="middle" x="555" y="-235" font-family="Vera" font-size="10.00">topo.base.sheet.Sheet</text>
</g>
<!-- topo.base.sheet.Sheet&#45;&gt;topo.base.projection.ProjectionSheet -->
<g id="edge2" class="edge"><title>topo.base.sheet.Sheet&#45;&gt;topo.base.projection.ProjectionSheet</title>
<path fill="none" stroke="black" stroke-width="0.5" d="M613.212,-238C629.142,-238 646.856,-238 664.346,-238"/>
<polygon fill="black" stroke="black" points="664.765,-239.75 669.765,-238 664.764,-236.25 664.765,-239.75"/>
</g>
<!-- topo.base.cf.CFPOutputFn -->
<g id="node5" class="node"><title>topo.base.cf.CFPOutputFn</title>
<polygon fill="none" stroke="black" stroke-width="0.5" points="397,-172 263,-172 263,-152 397,-152 397,-172"/>
<text text-anchor="middle" x="330" y="-159" font-family="Vera" font-size="10.00">topo.base.cf.CFPOutputFn</text>
</g>
<!-- topo.base.cf.CFPOF_Plugin -->
<g id="node24" class="node"><title>topo.base.cf.CFPOF_Plugin</title>
<polygon fill="none" stroke="black" stroke-width="0.5" points="623,-210 487,-210 487,-190 623,-190 623,-210"/>
<text text-anchor="middle" x="555" y="-197" font-family="Vera" font-size="10.00">topo.base.cf.CFPOF_Plugin</text>
</g>
<!-- topo.base.cf.CFPOutputFn&#45;&gt;topo.base.cf.CFPOF_Plugin -->
<g id="edge18" class="edge"><title>topo.base.cf.CFPOutputFn&#45;&gt;topo.base.cf.CFPOF_Plugin</title>
<path fill="none" stroke="black" stroke-width="0.5" d="M389.41,-172.034C420.554,-177.294 458.741,-183.743 490.592,-189.122"/>
<polygon fill="black" stroke="black" points="490.425,-190.869 495.647,-189.976 491.008,-187.418 490.425,-190.869"/>
</g>
<!-- topo.base.cf.CFPOF_Identity -->
<g id="node33" class="node"><title>topo.base.cf.CFPOF_Identity</title>
<polygon fill="none" stroke="black" stroke-width="0.5" points="626,-172 484,-172 484,-152 626,-152 626,-172"/>
<text text-anchor="middle" x="555" y="-159" font-family="Vera" font-size="10.00">topo.base.cf.CFPOF_Identity</text>
</g>
<!-- topo.base.cf.CFPOutputFn&#45;&gt;topo.base.cf.CFPOF_Identity -->
<g id="edge28" class="edge"><title>topo.base.cf.CFPOutputFn&#45;&gt;topo.base.cf.CFPOF_Identity</title>
<path fill="none" stroke="black" stroke-width="0.5" d="M397.203,-162C422.696,-162 451.916,-162 478.226,-162"/>
<polygon fill="black" stroke="black" points="478.448,-163.75 483.447,-162 478.447,-160.25 478.448,-163.75"/>
</g>
<!-- param.parameterized.Parameterized -->
<g id="node6" class="node"><title>param.parameterized.Parameterized</title>
<polygon fill="none" stroke="black" stroke-width="0.5" points="184,-134 8.52651e-14,-134 0,-114 184,-114 184,-134"/>
<text text-anchor="middle" x="92" y="-121" font-family="Vera" font-size="10.00">param.parameterized.Parameterized</text>
</g>
<!-- param.parameterized.Parameterized&#45;&gt;topo.base.cf.CFPOutputFn -->
<g id="edge4" class="edge"><title>param.parameterized.Parameterized&#45;&gt;topo.base.cf.CFPOutputFn</title>
<path fill="none" stroke="black" stroke-width="0.5" d="M154.843,-134.034C187.786,-139.294 228.179,-145.743 261.87,-151.122"/>
<polygon fill="black" stroke="black" points="262.004,-152.916 267.218,-151.976 262.556,-149.459 262.004,-152.916"/>
</g>
<!-- topo.base.cf.CFPResponseFn -->
<g id="node9" class="node"><title>topo.base.cf.CFPResponseFn</title>
<polygon fill="none" stroke="black" stroke-width="0.5" points="403,-134 257,-134 257,-114 403,-114 403,-134"/>
<text text-anchor="middle" x="330" y="-121" font-family="Vera" font-size="10.00">topo.base.cf.CFPResponseFn</text>
</g>
<!-- param.parameterized.Parameterized&#45;&gt;topo.base.cf.CFPResponseFn -->
<g id="edge20" class="edge"><title>param.parameterized.Parameterized&#45;&gt;topo.base.cf.CFPResponseFn</title>
<path fill="none" stroke="black" stroke-width="0.5" d="M184.017,-124C206.299,-124 229.914,-124 251.508,-124"/>
<polygon fill="black" stroke="black" points="251.66,-125.75 256.66,-124 251.66,-122.25 251.66,-125.75"/>
</g>
<!-- topo.base.simulation.EPConnection -->
<g id="node11" class="node"><title>topo.base.simulation.EPConnection</title>
<polygon fill="none" stroke="black" stroke-width="0.5" points="418,-96 242,-96 242,-76 418,-76 418,-96"/>
<text text-anchor="middle" x="330" y="-83" font-family="Vera" font-size="10.00">topo.base.simulation.EPConnection</text>
</g>
<!-- param.parameterized.Parameterized&#45;&gt;topo.base.simulation.EPConnection -->
<g id="edge8" class="edge"><title>param.parameterized.Parameterized&#45;&gt;topo.base.simulation.EPConnection</title>
<path fill="none" stroke="black" stroke-width="0.5" d="M154.843,-113.966C187.786,-108.706 228.179,-102.257 261.87,-96.8779"/>
<polygon fill="black" stroke="black" points="262.556,-98.5406 267.218,-96.024 262.004,-95.0843 262.556,-98.5406"/>
</g>
<!-- topo.base.cf.CFPLearningFn -->
<g id="node13" class="node"><title>topo.base.cf.CFPLearningFn</title>
<polygon fill="none" stroke="black" stroke-width="0.5" points="401,-58 259,-58 259,-38 401,-38 401,-58"/>
<text text-anchor="middle" x="330" y="-45" font-family="Vera" font-size="10.00">topo.base.cf.CFPLearningFn</text>
</g>
<!-- param.parameterized.Parameterized&#45;&gt;topo.base.cf.CFPLearningFn -->
<g id="edge10" class="edge"><title>param.parameterized.Parameterized&#45;&gt;topo.base.cf.CFPLearningFn</title>
<path fill="none" stroke="black" stroke-width="0.5" d="M162.924,-113.987C170.276,-111.601 177.445,-108.65 184,-105 204.326,-93.6827 199.492,-77.9843 220,-67 230.389,-61.4355 242.05,-57.4425 253.791,-54.5884"/>
<polygon fill="black" stroke="black" points="254.343,-56.2574 258.825,-53.4337 253.56,-52.846 254.343,-56.2574"/>
</g>
<!-- topo.base.simulation.EventProcessor -->
<g id="node22" class="node"><title>topo.base.simulation.EventProcessor</title>
<polygon fill="none" stroke="black" stroke-width="0.5" points="422,-210 238,-210 238,-190 422,-190 422,-210"/>
<text text-anchor="middle" x="330" y="-197" font-family="Vera" font-size="10.00">topo.base.simulation.EventProcessor</text>
</g>
<!-- param.parameterized.Parameterized&#45;&gt;topo.base.simulation.EventProcessor -->
<g id="edge16" class="edge"><title>param.parameterized.Parameterized&#45;&gt;topo.base.simulation.EventProcessor</title>
<path fill="none" stroke="black" stroke-width="0.5" d="M162.924,-134.013C170.276,-136.399 177.445,-139.35 184,-143 204.326,-154.317 199.492,-170.016 220,-181 225.272,-183.824 230.871,-186.243 236.643,-188.314"/>
<polygon fill="black" stroke="black" points="236.23,-190.022 241.527,-189.973 237.356,-186.708 236.23,-190.022"/>
</g>
<!-- topo.base.cf.CFPRF_Plugin -->
<g id="node8" class="node"><title>topo.base.cf.CFPRF_Plugin</title>
<polygon fill="none" stroke="black" stroke-width="0.5" points="622,-134 488,-134 488,-114 622,-114 622,-134"/>
<text text-anchor="middle" x="555" y="-121" font-family="Vera" font-size="10.00">topo.base.cf.CFPRF_Plugin</text>
</g>
<!-- topo.base.cf.CFPResponseFn&#45;&gt;topo.base.cf.CFPRF_Plugin -->
<g id="edge6" class="edge"><title>topo.base.cf.CFPResponseFn&#45;&gt;topo.base.cf.CFPRF_Plugin</title>
<path fill="none" stroke="black" stroke-width="0.5" d="M403.051,-124C428.434,-124 456.884,-124 482.243,-124"/>
<polygon fill="black" stroke="black" points="482.272,-125.75 487.272,-124 482.272,-122.25 482.272,-125.75"/>
</g>
<!-- topo.base.projection.Projection -->
<g id="node16" class="node"><title>topo.base.projection.Projection</title>
<polygon fill="none" stroke="black" stroke-width="0.5" points="634,-96 476,-96 476,-76 634,-76 634,-96"/>
<text text-anchor="middle" x="555" y="-83" font-family="Vera" font-size="10.00">topo.base.projection.Projection</text>
</g>
<!-- topo.base.simulation.EPConnection&#45;&gt;topo.base.projection.Projection -->
<g id="edge22" class="edge"><title>topo.base.simulation.EPConnection&#45;&gt;topo.base.projection.Projection</title>
<path fill="none" stroke="black" stroke-width="0.5" d="M418.603,-86C435.766,-86 453.706,-86 470.726,-86"/>
<polygon fill="black" stroke="black" points="470.976,-87.7501 475.976,-86 470.976,-84.2501 470.976,-87.7501"/>
</g>
<!-- topo.base.cf.CFPLF_Identity -->
<g id="node29" class="node"><title>topo.base.cf.CFPLF_Identity</title>
<polygon fill="none" stroke="black" stroke-width="0.5" points="625,-58 485,-58 485,-38 625,-38 625,-58"/>
<text text-anchor="middle" x="555" y="-45" font-family="Vera" font-size="10.00">topo.base.cf.CFPLF_Identity</text>
</g>
<!-- topo.base.cf.CFPLearningFn&#45;&gt;topo.base.cf.CFPLF_Identity -->
<g id="edge24" class="edge"><title>topo.base.cf.CFPLearningFn&#45;&gt;topo.base.cf.CFPLF_Identity</title>
<path fill="none" stroke="black" stroke-width="0.5" d="M401.191,-48C426.176,-48 454.318,-48 479.633,-48"/>
<polygon fill="black" stroke="black" points="479.657,-49.7501 484.657,-48 479.657,-46.2501 479.657,-49.7501"/>
</g>
<!-- topo.base.cf.CFPLF_Plugin -->
<g id="node37" class="node"><title>topo.base.cf.CFPLF_Plugin</title>
<polygon fill="none" stroke="black" stroke-width="0.5" points="622,-20 488,-20 488,-1.06581e-14 622,-3.55271e-15 622,-20"/>
<text text-anchor="middle" x="555" y="-7" font-family="Vera" font-size="10.00">topo.base.cf.CFPLF_Plugin</text>
</g>
<!-- topo.base.cf.CFPLearningFn&#45;&gt;topo.base.cf.CFPLF_Plugin -->
<g id="edge34" class="edge"><title>topo.base.cf.CFPLearningFn&#45;&gt;topo.base.cf.CFPLF_Plugin</title>
<path fill="none" stroke="black" stroke-width="0.5" d="M389.41,-37.9662C420.554,-32.7064 458.741,-26.2571 490.592,-20.8779"/>
<polygon fill="black" stroke="black" points="491.008,-22.5823 495.647,-20.024 490.425,-19.1312 491.008,-22.5823"/>
</g>
<!-- topo.base.cf.CFProjection -->
<g id="node15" class="node"><title>topo.base.cf.CFProjection</title>
<polygon fill="none" stroke="black" stroke-width="0.5" points="827,-96 697,-96 697,-76 827,-76 827,-96"/>
<text text-anchor="middle" x="762" y="-83" font-family="Vera" font-size="10.00">topo.base.cf.CFProjection</text>
</g>
<!-- topo.base.cf.ResizableCFProjection -->
<g id="node31" class="node"><title>topo.base.cf.ResizableCFProjection</title>
<polygon fill="none" stroke="black" stroke-width="0.5" points="1064,-96 890,-96 890,-76 1064,-76 1064,-96"/>
<text text-anchor="middle" x="977" y="-83" font-family="Vera" font-size="10.00">topo.base.cf.ResizableCFProjection</text>
</g>
<!-- topo.base.cf.CFProjection&#45;&gt;topo.base.cf.ResizableCFProjection -->
<g id="edge26" class="edge"><title>topo.base.cf.CFProjection&#45;&gt;topo.base.cf.ResizableCFProjection</title>
<path fill="none" stroke="black" stroke-width="0.5" d="M827.675,-86C845.623,-86 865.414,-86 884.554,-86"/>
<polygon fill="black" stroke="black" points="884.934,-87.7501 889.934,-86 884.934,-84.2501 884.934,-87.7501"/>
</g>
<!-- topo.base.projection.Projection&#45;&gt;topo.base.cf.CFProjection -->
<g id="edge12" class="edge"><title>topo.base.projection.Projection&#45;&gt;topo.base.cf.CFProjection</title>
<path fill="none" stroke="black" stroke-width="0.5" d="M634.144,-86C652.923,-86 672.835,-86 691.214,-86"/>
<polygon fill="black" stroke="black" points="691.355,-87.7501 696.355,-86 691.355,-84.2501 691.355,-87.7501"/>
</g>
<!-- topo.base.cf.CFIter -->
<g id="node20" class="node"><title>topo.base.cf.CFIter</title>
<polygon fill="none" stroke="black" stroke-width="0.5" points="143,-172 41,-172 41,-152 143,-152 143,-172"/>
<text text-anchor="middle" x="92" y="-159" font-family="Vera" font-size="10.00">topo.base.cf.CFIter</text>
</g>
<!-- imagen.sheetcoords.SheetCoordinateSystem -->
<g id="node21" class="node"><title>imagen.sheetcoords.SheetCoordinateSystem</title>
<polygon fill="none" stroke="black" stroke-width="0.5" points="439,-248 221,-248 221,-228 439,-228 439,-248"/>
<text text-anchor="middle" x="330" y="-235" font-family="Vera" font-size="10.00">imagen.sheetcoords.SheetCoordinateSystem</text>
</g>
<!-- imagen.sheetcoords.SheetCoordinateSystem&#45;&gt;topo.base.sheet.Sheet -->
<g id="edge32" class="edge"><title>imagen.sheetcoords.SheetCoordinateSystem&#45;&gt;topo.base.sheet.Sheet</title>
<path fill="none" stroke="black" stroke-width="0.5" d="M439.534,-238C457.461,-238 475.488,-238 491.794,-238"/>
<polygon fill="black" stroke="black" points="491.797,-239.75 496.797,-238 491.797,-236.25 491.797,-239.75"/>
</g>
<!-- topo.base.simulation.EventProcessor&#45;&gt;topo.base.sheet.Sheet -->
<g id="edge30" class="edge"><title>topo.base.simulation.EventProcessor&#45;&gt;topo.base.sheet.Sheet</title>
<path fill="none" stroke="black" stroke-width="0.5" d="M389.41,-210.034C420.925,-215.356 459.651,-221.897 491.726,-227.314"/>
<polygon fill="black" stroke="black" points="491.594,-229.066 496.815,-228.173 492.176,-225.615 491.594,-229.066"/>
</g>
<!-- topo.base.cf.ConnectionField -->
<g id="node28" class="node"><title>topo.base.cf.ConnectionField</title>
<polygon fill="none" stroke="black" stroke-width="0.5" points="165,-210 19,-210 19,-190 165,-190 165,-210"/>
<text text-anchor="middle" x="92" y="-197" font-family="Vera" font-size="10.00">topo.base.cf.ConnectionField</text>
</g>
</g>
</svg>
