<?xml version="1.0" encoding="UTF-8" standalone="no"?>
<!DOCTYPE svg PUBLIC "-//W3C//DTD SVG 1.1//EN"
 "http://www.w3.org/Graphics/SVG/1.1/DTD/svg11.dtd">
<!-- Generated by graphviz version 2.26.3 (20100126.1600)
 -->
<!-- Title: inheritance580fb0a561 Pages: 1 -->
<svg width="596pt" height="180pt"
 viewBox="0.00 0.00 596.00 180.00" xmlns="http://www.w3.org/2000/svg" xmlns:xlink="http://www.w3.org/1999/xlink">
<g id="graph1" class="graph" transform="scale(1 1) rotate(0) translate(4 176)">
<title>inheritance580fb0a561</title>
<polygon fill="white" stroke="white" points="-4,5 -4,-176 593,-176 593,5 -4,5"/>
<!-- topo.plotting.bitmap.Bitmap -->
<g id="node1" class="node"><title>topo.plotting.bitmap.Bitmap</title>
<polygon fill="none" stroke="black" stroke-width="0.5" points="366,-96 220,-96 220,-76 366,-76 366,-96"/>
<text text-anchor="middle" x="293" y="-83" font-family="Vera" font-size="10.00">topo.plotting.bitmap.Bitmap</text>
</g>
<!-- topo.plotting.bitmap.HSVBitmap -->
<g id="node4" class="node"><title>topo.plotting.bitmap.HSVBitmap</title>
<polygon fill="none" stroke="black" stroke-width="0.5" points="577,-172 413,-172 413,-152 577,-152 577,-172"/>
<text text-anchor="middle" x="495" y="-159" font-family="Vera" font-size="10.00">topo.plotting.bitmap.HSVBitmap</text>
</g>
<!-- topo.plotting.bitmap.Bitmap&#45;&gt;topo.plotting.bitmap.HSVBitmap -->
<g id="edge4" class="edge"><title>topo.plotting.bitmap.Bitmap&#45;&gt;topo.plotting.bitmap.HSVBitmap</title>
<path fill="none" stroke="black" stroke-width="0.5" d="M308.967,-96.1862C329.651,-108.942 367.192,-130.621 402,-143 410.384,-145.982 419.37,-148.551 428.329,-150.749"/>
<polygon fill="black" stroke="black" points="428.031,-152.477 433.3,-151.932 428.841,-149.072 428.031,-152.477"/>
</g>
<!-- topo.plotting.bitmap.MontageBitmap -->
<g id="node6" class="node"><title>topo.plotting.bitmap.MontageBitmap</title>
<polygon fill="none" stroke="black" stroke-width="0.5" points="587,-134 403,-134 403,-114 587,-114 587,-134"/>
<text text-anchor="middle" x="495" y="-121" font-family="Vera" font-size="10.00">topo.plotting.bitmap.MontageBitmap</text>
</g>
<!-- topo.plotting.bitmap.Bitmap&#45;&gt;topo.plotting.bitmap.MontageBitmap -->
<g id="edge6" class="edge"><title>topo.plotting.bitmap.Bitmap&#45;&gt;topo.plotting.bitmap.MontageBitmap</title>
<path fill="none" stroke="black" stroke-width="0.5" d="M346.337,-96.0338C374.067,-101.25 408.017,-107.637 436.468,-112.989"/>
<polygon fill="black" stroke="black" points="436.477,-114.771 441.714,-113.976 437.124,-111.332 436.477,-114.771"/>
</g>
<!-- topo.plotting.bitmap.PaletteBitmap -->
<g id="node8" class="node"><title>topo.plotting.bitmap.PaletteBitmap</title>
<polygon fill="none" stroke="black" stroke-width="0.5" points="583,-96 407,-96 407,-76 583,-76 583,-96"/>
<text text-anchor="middle" x="495" y="-83" font-family="Vera" font-size="10.00">topo.plotting.bitmap.PaletteBitmap</text>
</g>
<!-- topo.plotting.bitmap.Bitmap&#45;&gt;topo.plotting.bitmap.PaletteBitmap -->
<g id="edge8" class="edge"><title>topo.plotting.bitmap.Bitmap&#45;&gt;topo.plotting.bitmap.PaletteBitmap</title>
<path fill="none" stroke="black" stroke-width="0.5" d="M366.212,-86C377.771,-86 389.857,-86 401.796,-86"/>
<polygon fill="black" stroke="black" points="401.902,-87.7501 406.902,-86 401.902,-84.2501 401.902,-87.7501"/>
</g>
<!-- topo.plotting.bitmap.DrawBitmap -->
<g id="node10" class="node"><title>topo.plotting.bitmap.DrawBitmap</title>
<polygon fill="none" stroke="black" stroke-width="0.5" points="579,-58 411,-58 411,-38 579,-38 579,-58"/>
<text text-anchor="middle" x="495" y="-45" font-family="Vera" font-size="10.00">topo.plotting.bitmap.DrawBitmap</text>
</g>
<!-- topo.plotting.bitmap.Bitmap&#45;&gt;topo.plotting.bitmap.DrawBitmap -->
<g id="edge10" class="edge"><title>topo.plotting.bitmap.Bitmap&#45;&gt;topo.plotting.bitmap.DrawBitmap</title>
<path fill="none" stroke="black" stroke-width="0.5" d="M346.337,-75.9662C374.067,-70.7497 408.017,-64.3632 436.468,-59.0109"/>
<polygon fill="black" stroke="black" points="437.124,-60.6683 441.714,-58.024 436.477,-57.2287 437.124,-60.6683"/>
</g>
<!-- topo.plotting.bitmap.RGBBitmap -->
<g id="node12" class="node"><title>topo.plotting.bitmap.RGBBitmap</title>
<polygon fill="none" stroke="black" stroke-width="0.5" points="577,-20 413,-20 413,-1.06581e-14 577,-3.55271e-15 577,-20"/>
<text text-anchor="middle" x="495" y="-7" font-family="Vera" font-size="10.00">topo.plotting.bitmap.RGBBitmap</text>
</g>
<!-- topo.plotting.bitmap.Bitmap&#45;&gt;topo.plotting.bitmap.RGBBitmap -->
<g id="edge12" class="edge"><title>topo.plotting.bitmap.Bitmap&#45;&gt;topo.plotting.bitmap.RGBBitmap</title>
<path fill="none" stroke="black" stroke-width="0.5" d="M308.967,-75.8138C329.651,-63.0576 367.192,-41.3787 402,-29 410.384,-26.0183 419.37,-23.4491 428.329,-21.251"/>
<polygon fill="black" stroke="black" points="428.841,-22.9281 433.3,-20.0678 428.031,-19.5232 428.841,-22.9281"/>
</g>
<!-- param.parameterized.Parameterized -->
<g id="node2" class="node"><title>param.parameterized.Parameterized</title>
<polygon fill="none" stroke="black" stroke-width="0.5" points="184,-96 8.52651e-14,-96 0,-76 184,-76 184,-96"/>
<text text-anchor="middle" x="92" y="-83" font-family="Vera" font-size="10.00">param.parameterized.Parameterized</text>
</g>
<!-- param.parameterized.Parameterized&#45;&gt;topo.plotting.bitmap.Bitmap -->
<g id="edge2" class="edge"><title>param.parameterized.Parameterized&#45;&gt;topo.plotting.bitmap.Bitmap</title>
<path fill="none" stroke="black" stroke-width="0.5" d="M184.264,-86C194.459,-86 204.767,-86 214.765,-86"/>
<polygon fill="black" stroke="black" points="214.964,-87.7501 219.964,-86 214.964,-84.2501 214.964,-87.7501"/>
</g>
</g>
</svg>
