<?xml version="1.0" encoding="UTF-8" standalone="no"?>
<!DOCTYPE svg PUBLIC "-//W3C//DTD SVG 1.1//EN"
 "http://www.w3.org/Graphics/SVG/1.1/DTD/svg11.dtd">
<!-- Generated by graphviz version 2.26.3 (20100126.1600)
 -->
<!-- Title: inheritance1f1dc666b6 Pages: 1 -->
<svg width="964pt" height="142pt"
 viewBox="0.00 0.00 964.00 142.00" xmlns="http://www.w3.org/2000/svg" xmlns:xlink="http://www.w3.org/1999/xlink">
<g id="graph1" class="graph" transform="scale(1 1) rotate(0) translate(4 138)">
<title>inheritance1f1dc666b6</title>
<polygon fill="white" stroke="white" points="-4,5 -4,-138 961,-138 961,5 -4,5"/>
<!-- topo.base.projection.OrMask -->
<g id="node1" class="node"><title>topo.base.projection.OrMask</title>
<polygon fill="none" stroke="black" stroke-width="0.5" points="936,-115.5 782,-115.5 782,-94.5 936,-94.5 936,-115.5"/>
<text text-anchor="middle" x="859" y="-102.5" font-family="Vera" font-size="10.00">topo.base.projection.OrMask</text>
</g>
<!-- topo.base.projection.CompositeSheetMask -->
<g id="node2" class="node"><title>topo.base.projection.CompositeSheetMask</title>
<polygon fill="none" stroke="black" stroke-width="0.5" points="725,-96.5 503,-96.5 503,-75.5 725,-75.5 725,-96.5"/>
<text text-anchor="middle" x="614" y="-83.5" font-family="Vera" font-size="10.00">topo.base.projection.CompositeSheetMask</text>
</g>
<!-- topo.base.projection.CompositeSheetMask&#45;&gt;topo.base.projection.OrMask -->
<g id="edge2" class="edge"><title>topo.base.projection.CompositeSheetMask&#45;&gt;topo.base.projection.OrMask</title>
<path fill="none" stroke="black" stroke-width="0.5" d="M725.746,-94.666C742.902,-95.9964 760.341,-97.3489 776.704,-98.6178"/>
<polygon fill="black" stroke="black" points="776.625,-100.367 781.746,-99.0089 776.896,-96.8774 776.625,-100.367"/>
</g>
<!-- topo.base.projection.AndMask -->
<g id="node9" class="node"><title>topo.base.projection.AndMask</title>
<polygon fill="none" stroke="black" stroke-width="0.5" points="939,-77.5 779,-77.5 779,-56.5 939,-56.5 939,-77.5"/>
<text text-anchor="middle" x="859" y="-64.5" font-family="Vera" font-size="10.00">topo.base.projection.AndMask</text>
</g>
<!-- topo.base.projection.CompositeSheetMask&#45;&gt;topo.base.projection.AndMask -->
<g id="edge8" class="edge"><title>topo.base.projection.CompositeSheetMask&#45;&gt;topo.base.projection.AndMask</title>
<path fill="none" stroke="black" stroke-width="0.5" d="M725.746,-77.334C741.62,-76.103 757.737,-74.8531 773.019,-73.6679"/>
<polygon fill="black" stroke="black" points="773.318,-75.4001 778.168,-73.2686 773.047,-71.9105 773.318,-75.4001"/>
</g>
<!-- topo.base.simulation.EPConnection -->
<g id="node4" class="node"><title>topo.base.simulation.EPConnection</title>
<polygon fill="none" stroke="black" stroke-width="0.5" points="441,-134.5 255,-134.5 255,-113.5 441,-113.5 441,-134.5"/>
<text text-anchor="middle" x="348" y="-121.5" font-family="Vera" font-size="10.00">topo.base.simulation.EPConnection</text>
</g>
<!-- topo.base.projection.Projection -->
<g id="node7" class="node"><title>topo.base.projection.Projection</title>
<polygon fill="none" stroke="black" stroke-width="0.5" points="696,-134.5 532,-134.5 532,-113.5 696,-113.5 696,-134.5"/>
<text text-anchor="middle" x="614" y="-121.5" font-family="Vera" font-size="10.00">topo.base.projection.Projection</text>
</g>
<!-- topo.base.simulation.EPConnection&#45;&gt;topo.base.projection.Projection -->
<g id="edge6" class="edge"><title>topo.base.simulation.EPConnection&#45;&gt;topo.base.projection.Projection</title>
<path fill="none" stroke="black" stroke-width="0.5" d="M441.034,-124C468.678,-124 498.861,-124 526.163,-124"/>
<polygon fill="black" stroke="black" points="526.226,-125.75 531.226,-124 526.226,-122.25 526.226,-125.75"/>
</g>
<!-- param.parameterized.Parameterized -->
<g id="node5" class="node"><title>param.parameterized.Parameterized</title>
<polygon fill="none" stroke="black" stroke-width="0.5" points="194,-96.5 5.68434e-14,-96.5 0,-75.5 194,-75.5 194,-96.5"/>
<text text-anchor="middle" x="97" y="-83.5" font-family="Vera" font-size="10.00">param.parameterized.Parameterized</text>
</g>
<!-- param.parameterized.Parameterized&#45;&gt;topo.base.simulation.EPConnection -->
<g id="edge4" class="edge"><title>param.parameterized.Parameterized&#45;&gt;topo.base.simulation.EPConnection</title>
<path fill="none" stroke="black" stroke-width="0.5" d="M163.276,-96.0338C198.161,-101.315 240.968,-107.796 276.587,-113.189"/>
<polygon fill="black" stroke="black" points="276.583,-114.958 281.789,-113.976 277.107,-111.497 276.583,-114.958"/>
</g>
<!-- topo.base.projection.SheetMask -->
<g id="node11" class="node"><title>topo.base.projection.SheetMask</title>
<polygon fill="none" stroke="black" stroke-width="0.5" points="433,-96.5 263,-96.5 263,-75.5 433,-75.5 433,-96.5"/>
<text text-anchor="middle" x="348" y="-83.5" font-family="Vera" font-size="10.00">topo.base.projection.SheetMask</text>
</g>
<!-- param.parameterized.Parameterized&#45;&gt;topo.base.projection.SheetMask -->
<g id="edge16" class="edge"><title>param.parameterized.Parameterized&#45;&gt;topo.base.projection.SheetMask</title>
<path fill="none" stroke="black" stroke-width="0.5" d="M194.043,-86C214.773,-86 236.595,-86 257.084,-86"/>
<polygon fill="black" stroke="black" points="257.263,-87.7501 262.263,-86 257.263,-84.2501 257.263,-87.7501"/>
</g>
<!-- topo.base.simulation.EventProcessor -->
<g id="node13" class="node"><title>topo.base.simulation.EventProcessor</title>
<polygon fill="none" stroke="black" stroke-width="0.5" points="445,-58.5 251,-58.5 251,-37.5 445,-37.5 445,-58.5"/>
<text text-anchor="middle" x="348" y="-45.5" font-family="Vera" font-size="10.00">topo.base.simulation.EventProcessor</text>
</g>
<!-- param.parameterized.Parameterized&#45;&gt;topo.base.simulation.EventProcessor -->
<g id="edge12" class="edge"><title>param.parameterized.Parameterized&#45;&gt;topo.base.simulation.EventProcessor</title>
<path fill="none" stroke="black" stroke-width="0.5" d="M163.276,-75.9662C198.161,-70.6848 240.968,-64.204 276.587,-58.8115"/>
<polygon fill="black" stroke="black" points="277.107,-60.5029 281.789,-58.024 276.583,-57.0423 277.107,-60.5029"/>
</g>
<!-- topo.base.projection.SheetMask&#45;&gt;topo.base.projection.CompositeSheetMask -->
<g id="edge10" class="edge"><title>topo.base.projection.SheetMask&#45;&gt;topo.base.projection.CompositeSheetMask</title>
<path fill="none" stroke="black" stroke-width="0.5" d="M433.628,-86C453.875,-86 475.807,-86 497.173,-86"/>
<polygon fill="black" stroke="black" points="497.3,-87.7501 502.3,-86 497.3,-84.2501 497.3,-87.7501"/>
</g>
<!-- topo.base.projection.NeighborhoodMask -->
<g id="node20" class="node"><title>topo.base.projection.NeighborhoodMask</title>
<polygon fill="none" stroke="black" stroke-width="0.5" points="719,-58.5 509,-58.5 509,-37.5 719,-37.5 719,-58.5"/>
<text text-anchor="middle" x="614" y="-45.5" font-family="Vera" font-size="10.00">topo.base.projection.NeighborhoodMask</text>
</g>
<!-- topo.base.projection.SheetMask&#45;&gt;topo.base.projection.NeighborhoodMask -->
<g id="edge18" class="edge"><title>topo.base.projection.SheetMask&#45;&gt;topo.base.projection.NeighborhoodMask</title>
<path fill="none" stroke="black" stroke-width="0.5" d="M418.236,-75.9662C455.358,-70.6631 500.944,-64.1509 538.783,-58.7453"/>
<polygon fill="black" stroke="black" points="539.129,-60.4636 543.832,-58.024 538.634,-56.9988 539.129,-60.4636"/>
</g>
<!-- topo.base.sheet.Sheet -->
<g id="node17" class="node"><title>topo.base.sheet.Sheet</title>
<polygon fill="none" stroke="black" stroke-width="0.5" points="677,-20.5 551,-20.5 551,0.5 677,0.5 677,-20.5"/>
<text text-anchor="middle" x="614" y="-7.5" font-family="Vera" font-size="10.00">topo.base.sheet.Sheet</text>
</g>
<!-- topo.base.simulation.EventProcessor&#45;&gt;topo.base.sheet.Sheet -->
<g id="edge20" class="edge"><title>topo.base.simulation.EventProcessor&#45;&gt;topo.base.sheet.Sheet</title>
<path fill="none" stroke="black" stroke-width="0.5" d="M418.236,-37.9662C457.568,-32.3475 506.401,-25.3713 545.455,-19.7922"/>
<polygon fill="black" stroke="black" points="545.952,-21.489 550.654,-19.0494 545.457,-18.0242 545.952,-21.489"/>
</g>
<!-- imagen.sheetcoords.SheetCoordinateSystem -->
<g id="node15" class="node"><title>imagen.sheetcoords.SheetCoordinateSystem</title>
<polygon fill="none" stroke="black" stroke-width="0.5" points="466,-20.5 230,-20.5 230,0.5 466,0.5 466,-20.5"/>
<text text-anchor="middle" x="348" y="-7.5" font-family="Vera" font-size="10.00">imagen.sheetcoords.SheetCoordinateSystem</text>
</g>
<!-- imagen.sheetcoords.SheetCoordinateSystem&#45;&gt;topo.base.sheet.Sheet -->
<g id="edge22" class="edge"><title>imagen.sheetcoords.SheetCoordinateSystem&#45;&gt;topo.base.sheet.Sheet</title>
<path fill="none" stroke="black" stroke-width="0.5" d="M466.221,-10C493.424,-10 521.462,-10 545.708,-10"/>
<polygon fill="black" stroke="black" points="545.822,-11.7501 550.822,-10 545.822,-8.2501 545.822,-11.7501"/>
</g>
<!-- topo.base.projection.ProjectionSheet -->
<g id="node16" class="node"><title>topo.base.projection.ProjectionSheet</title>
<polygon fill="none" stroke="black" stroke-width="0.5" points="956,-20.5 762,-20.5 762,0.5 956,0.5 956,-20.5"/>
<text text-anchor="middle" x="859" y="-7.5" font-family="Vera" font-size="10.00">topo.base.projection.ProjectionSheet</text>
</g>
<!-- topo.base.sheet.Sheet&#45;&gt;topo.base.projection.ProjectionSheet -->
<g id="edge14" class="edge"><title>topo.base.sheet.Sheet&#45;&gt;topo.base.projection.ProjectionSheet</title>
<path fill="none" stroke="black" stroke-width="0.5" d="M677.094,-10C701.386,-10 729.79,-10 756.834,-10"/>
<polygon fill="black" stroke="black" points="756.867,-11.7501 761.867,-10 756.867,-8.2501 756.867,-11.7501"/>
</g>
</g>
</svg>
