<?xml version="1.0" encoding="UTF-8" standalone="no"?>
<!DOCTYPE svg PUBLIC "-//W3C//DTD SVG 1.1//EN"
 "http://www.w3.org/Graphics/SVG/1.1/DTD/svg11.dtd">
<!-- Generated by graphviz version 2.26.3 (20100126.1600)
 -->
<!-- Title: inheritancef415e0380d Pages: 1 -->
<svg width="732pt" height="237pt"
 viewBox="0.00 0.00 732.00 237.00" xmlns="http://www.w3.org/2000/svg" xmlns:xlink="http://www.w3.org/1999/xlink">
<g id="graph1" class="graph" transform="scale(1 1) rotate(0) translate(4 233)">
<title>inheritancef415e0380d</title>
<polygon fill="white" stroke="white" points="-4,5 -4,-233 729,-233 729,5 -4,5"/>
<!-- topo.command.ImportErrorObject -->
<g id="node1" class="node"><title>topo.command.ImportErrorObject</title>
<polygon fill="none" stroke="black" stroke-width="0.5" points="210,-39.5 32,-39.5 32,-18.5 210,-18.5 210,-39.5"/>
<text text-anchor="middle" x="121" y="-26.5" font-family="Vera" font-size="10.00">topo.command.ImportErrorObject</text>
</g>
<!-- param.parameterized.Parameterized -->
<g id="node2" class="node"><title>param.parameterized.Parameterized</title>
<polygon fill="none" stroke="black" stroke-width="0.5" points="218,-77.5 24,-77.5 24,-56.5 218,-56.5 218,-77.5"/>
<text text-anchor="middle" x="121" y="-64.5" font-family="Vera" font-size="10.00">param.parameterized.Parameterized</text>
</g>
<!-- param.parameterized.ParameterizedFunction -->
<g id="node4" class="node"><title>param.parameterized.ParameterizedFunction</title>
<polygon fill="none" stroke="black" stroke-width="0.5" points="512,-77.5 278,-77.5 278,-56.5 512,-56.5 512,-77.5"/>
<text text-anchor="middle" x="395" y="-64.5" font-family="Vera" font-size="10.00">param.parameterized.ParameterizedFunction</text>
</g>
<!-- param.parameterized.Parameterized&#45;&gt;param.parameterized.ParameterizedFunction -->
<g id="edge6" class="edge"><title>param.parameterized.Parameterized&#45;&gt;param.parameterized.ParameterizedFunction</title>
<path fill="none" stroke="black" stroke-width="0.5" d="M218.374,-67C235.949,-67 254.476,-67 272.655,-67"/>
<polygon fill="black" stroke="black" points="272.772,-68.7501 277.772,-67 272.772,-65.2501 272.772,-68.7501"/>
</g>
<!-- topo.command.param_formatter -->
<g id="node3" class="node"><title>topo.command.param_formatter</title>
<polygon fill="none" stroke="black" stroke-width="0.5" points="724,-134.5 548,-134.5 548,-113.5 724,-113.5 724,-134.5"/>
<text text-anchor="middle" x="636" y="-121.5" font-family="Vera" font-size="10.00">topo.command.param_formatter</text>
</g>
<!-- param.parameterized.ParameterizedFunction&#45;&gt;topo.command.param_formatter -->
<g id="edge2" class="edge"><title>param.parameterized.ParameterizedFunction&#45;&gt;topo.command.param_formatter</title>
<path fill="none" stroke="black" stroke-width="0.5" d="M433.909,-77.0149C464.785,-84.8769 509.075,-95.9663 548,-105 559.324,-107.628 571.495,-110.333 583.067,-112.848"/>
<polygon fill="black" stroke="black" points="582.728,-114.565 587.985,-113.913 583.469,-111.144 582.728,-114.565"/>
</g>
<!-- topo.command.run_batch -->
<g id="node6" class="node"><title>topo.command.run_batch</title>
<polygon fill="none" stroke="black" stroke-width="0.5" points="706,-96.5 566,-96.5 566,-75.5 706,-75.5 706,-96.5"/>
<text text-anchor="middle" x="636" y="-83.5" font-family="Vera" font-size="10.00">topo.command.run_batch</text>
</g>
<!-- param.parameterized.ParameterizedFunction&#45;&gt;topo.command.run_batch -->
<g id="edge4" class="edge"><title>param.parameterized.ParameterizedFunction&#45;&gt;topo.command.run_batch</title>
<path fill="none" stroke="black" stroke-width="0.5" d="M512.323,-76.2495C528.563,-77.5299 544.88,-78.8163 560.093,-80.0156"/>
<polygon fill="black" stroke="black" points="560.086,-81.7704 565.208,-80.4189 560.361,-78.2813 560.086,-81.7704"/>
</g>
<!-- topo.command.runscript -->
<g id="node10" class="node"><title>topo.command.runscript</title>
<polygon fill="none" stroke="black" stroke-width="0.5" points="703,-58.5 569,-58.5 569,-37.5 703,-37.5 703,-58.5"/>
<text text-anchor="middle" x="636" y="-45.5" font-family="Vera" font-size="10.00">topo.command.runscript</text>
</g>
<!-- param.parameterized.ParameterizedFunction&#45;&gt;topo.command.runscript -->
<g id="edge8" class="edge"><title>param.parameterized.ParameterizedFunction&#45;&gt;topo.command.runscript</title>
<path fill="none" stroke="black" stroke-width="0.5" d="M512.323,-57.7505C529.639,-56.3853 547.042,-55.0133 563.101,-53.7473"/>
<polygon fill="black" stroke="black" points="563.646,-55.4598 568.493,-53.3221 563.371,-51.9706 563.646,-55.4598"/>
</g>
<!-- topo.command.Command -->
<g id="node15" class="node"><title>topo.command.Command</title>
<polygon fill="none" stroke="black" stroke-width="0.5" points="707,-20.5 565,-20.5 565,0.5 707,0.5 707,-20.5"/>
<text text-anchor="middle" x="636" y="-7.5" font-family="Vera" font-size="10.00">topo.command.Command</text>
</g>
<!-- param.parameterized.ParameterizedFunction&#45;&gt;topo.command.Command -->
<g id="edge10" class="edge"><title>param.parameterized.ParameterizedFunction&#45;&gt;topo.command.Command</title>
<path fill="none" stroke="black" stroke-width="0.5" d="M433.909,-56.9851C464.785,-49.1231 509.075,-38.0337 548,-29 559.324,-26.372 571.495,-23.6673 583.067,-21.1523"/>
<polygon fill="black" stroke="black" points="583.469,-22.8558 587.985,-20.0868 582.728,-19.4352 583.469,-22.8558"/>
</g>
<!-- topo.command._VersionPrinter -->
<g id="node8" class="node"><title>topo.command._VersionPrinter</title>
<polygon fill="none" stroke="black" stroke-width="0.5" points="203,-115.5 39,-115.5 39,-94.5 203,-94.5 203,-115.5"/>
<text text-anchor="middle" x="121" y="-102.5" font-family="Vera" font-size="10.00">topo.command._VersionPrinter</text>
</g>
<!-- topo.command.UnpickleEnvironmentCreator -->
<g id="node12" class="node"><title>topo.command.UnpickleEnvironmentCreator</title>
<polygon fill="none" stroke="black" stroke-width="0.5" points="236,-153.5 6,-153.5 6,-132.5 236,-132.5 236,-153.5"/>
<text text-anchor="middle" x="121" y="-140.5" font-family="Vera" font-size="10.00">topo.command.UnpickleEnvironmentCreator</text>
</g>
<!-- param.parameterized.ParameterizedMetaclass -->
<g id="node13" class="node"><title>param.parameterized.ParameterizedMetaclass</title>
<polygon fill="none" stroke="black" stroke-width="0.5" points="242,-191.5 9.9476e-14,-191.5 0,-170.5 242,-170.5 242,-191.5"/>
<text text-anchor="middle" x="121" y="-178.5" font-family="Vera" font-size="10.00">param.parameterized.ParameterizedMetaclass</text>
</g>
<!-- topo.command.CommandMetaclass -->
<g id="node17" class="node"><title>topo.command.CommandMetaclass</title>
<polygon fill="none" stroke="black" stroke-width="0.5" points="490,-191.5 300,-191.5 300,-170.5 490,-170.5 490,-191.5"/>
<text text-anchor="middle" x="395" y="-178.5" font-family="Vera" font-size="10.00">topo.command.CommandMetaclass</text>
</g>
<!-- param.parameterized.ParameterizedMetaclass&#45;&gt;topo.command.CommandMetaclass -->
<g id="edge12" class="edge"><title>param.parameterized.ParameterizedMetaclass&#45;&gt;topo.command.CommandMetaclass</title>
<path fill="none" stroke="black" stroke-width="0.5" d="M242.377,-181C259.63,-181 277.219,-181 294.028,-181"/>
<polygon fill="black" stroke="black" points="294.218,-182.75 299.218,-181 294.218,-179.25 294.218,-182.75"/>
</g>
<!-- topo.command.ImportErrorRaisingFakeModule -->
<g id="node14" class="node"><title>topo.command.ImportErrorRaisingFakeModule</title>
<polygon fill="none" stroke="black" stroke-width="0.5" points="240,-229.5 2,-229.5 2,-208.5 240,-208.5 240,-229.5"/>
<text text-anchor="middle" x="121" y="-216.5" font-family="Vera" font-size="10.00">topo.command.ImportErrorRaisingFakeModule</text>
</g>
</g>
</svg>
