<?xml version="1.0" encoding="UTF-8" standalone="no"?>
<!DOCTYPE svg PUBLIC "-//W3C//DTD SVG 1.1//EN"
 "http://www.w3.org/Graphics/SVG/1.1/DTD/svg11.dtd">
<!-- Generated by graphviz version 2.26.3 (20100126.1600)
 -->
<!-- Title: inheritanceb275281aee Pages: 1 -->
<svg width="362pt" height="28pt"
 viewBox="0.00 0.00 362.00 28.00" xmlns="http://www.w3.org/2000/svg" xmlns:xlink="http://www.w3.org/1999/xlink">
<g id="graph1" class="graph" transform="scale(1 1) rotate(0) translate(4 24)">
<title>inheritanceb275281aee</title>
<polygon fill="white" stroke="white" points="-4,5 -4,-24 359,-24 359,5 -4,5"/>
<!-- param.parameterized.Parameterized -->
<g id="node1" class="node"><title>param.parameterized.Parameterized</title>
<polygon fill="none" stroke="black" stroke-width="0.5" points="184,-20 8.52651e-14,-20 0,-1.06581e-14 184,-3.55271e-15 184,-20"/>
<text text-anchor="middle" x="92" y="-7" font-family="Vera" font-size="10.00">param.parameterized.Parameterized</text>
</g>
<!-- topo.misc.ipython.Display -->
<g id="node2" class="node"><title>topo.misc.ipython.Display</title>
<polygon fill="none" stroke="black" stroke-width="0.5" points="354,-20 220,-20 220,-1.06581e-14 354,-3.55271e-15 354,-20"/>
<text text-anchor="middle" x="287" y="-7" font-family="Vera" font-size="10.00">topo.misc.ipython.Display</text>
</g>
<!-- param.parameterized.Parameterized&#45;&gt;topo.misc.ipython.Display -->
<g id="edge2" class="edge"><title>param.parameterized.Parameterized&#45;&gt;topo.misc.ipython.Display</title>
<path fill="none" stroke="black" stroke-width="0.5" d="M184.075,-10C194.32,-10 204.645,-10 214.596,-10"/>
<polygon fill="black" stroke="black" points="214.763,-11.7501 219.763,-10 214.763,-8.2501 214.763,-11.7501"/>
</g>
</g>
</svg>
