<?xml version="1.0" encoding="UTF-8" standalone="no"?>
<!DOCTYPE svg PUBLIC "-//W3C//DTD SVG 1.1//EN"
 "http://www.w3.org/Graphics/SVG/1.1/DTD/svg11.dtd">
<!-- Generated by graphviz version 2.26.3 (20100126.1600)
 -->
<!-- Title: inheritancebe3ab90ace Pages: 1 -->
<svg width="984pt" height="408pt"
 viewBox="0.00 0.00 984.00 408.00" xmlns="http://www.w3.org/2000/svg" xmlns:xlink="http://www.w3.org/1999/xlink">
<g id="graph1" class="graph" transform="scale(1 1) rotate(0) translate(4 404)">
<title>inheritancebe3ab90ace</title>
<polygon fill="white" stroke="white" points="-4,5 -4,-404 981,-404 981,5 -4,5"/>
<!-- topo.coordmapper.Scale2d -->
<g id="node1" class="node"><title>topo.coordmapper.Scale2d</title>
<polygon fill="none" stroke="black" stroke-width="0.5" points="942,-400.5 796,-400.5 796,-379.5 942,-379.5 942,-400.5"/>
<text text-anchor="middle" x="869" y="-387.5" font-family="Vera" font-size="10.00">topo.coordmapper.Scale2d</text>
</g>
<!-- topo.coordmapper.AffineTransform -->
<g id="node2" class="node"><title>topo.coordmapper.AffineTransform</title>
<polygon fill="none" stroke="black" stroke-width="0.5" points="705,-362.5 523,-362.5 523,-341.5 705,-341.5 705,-362.5"/>
<text text-anchor="middle" x="614" y="-349.5" font-family="Vera" font-size="10.00">topo.coordmapper.AffineTransform</text>
</g>
<!-- topo.coordmapper.AffineTransform&#45;&gt;topo.coordmapper.Scale2d -->
<g id="edge2" class="edge"><title>topo.coordmapper.AffineTransform&#45;&gt;topo.coordmapper.Scale2d</title>
<path fill="none" stroke="black" stroke-width="0.5" d="M681.332,-362.034C716.773,-367.315 760.262,-373.796 796.449,-379.189"/>
<polygon fill="black" stroke="black" points="796.53,-380.97 801.733,-379.976 797.046,-377.508 796.53,-380.97"/>
</g>
<!-- topo.coordmapper.Translate2d -->
<g id="node8" class="node"><title>topo.coordmapper.Translate2d</title>
<polygon fill="none" stroke="black" stroke-width="0.5" points="950,-362.5 788,-362.5 788,-341.5 950,-341.5 950,-362.5"/>
<text text-anchor="middle" x="869" y="-349.5" font-family="Vera" font-size="10.00">topo.coordmapper.Translate2d</text>
</g>
<!-- topo.coordmapper.AffineTransform&#45;&gt;topo.coordmapper.Translate2d -->
<g id="edge6" class="edge"><title>topo.coordmapper.AffineTransform&#45;&gt;topo.coordmapper.Translate2d</title>
<path fill="none" stroke="black" stroke-width="0.5" d="M705.341,-352C730.29,-352 757.253,-352 781.956,-352"/>
<polygon fill="black" stroke="black" points="782.192,-353.75 787.191,-352 782.191,-350.25 782.192,-353.75"/>
</g>
<!-- topo.coordmapper.Rotate2d -->
<g id="node25" class="node"><title>topo.coordmapper.Rotate2d</title>
<polygon fill="none" stroke="black" stroke-width="0.5" points="944,-324.5 794,-324.5 794,-303.5 944,-303.5 944,-324.5"/>
<text text-anchor="middle" x="869" y="-311.5" font-family="Vera" font-size="10.00">topo.coordmapper.Rotate2d</text>
</g>
<!-- topo.coordmapper.AffineTransform&#45;&gt;topo.coordmapper.Rotate2d -->
<g id="edge22" class="edge"><title>topo.coordmapper.AffineTransform&#45;&gt;topo.coordmapper.Rotate2d</title>
<path fill="none" stroke="black" stroke-width="0.5" d="M681.332,-341.966C716.773,-336.685 760.262,-330.204 796.449,-324.811"/>
<polygon fill="black" stroke="black" points="797.046,-326.492 801.733,-324.024 796.53,-323.03 797.046,-326.492"/>
</g>
<!-- topo.coordmapper.Pipeline -->
<g id="node4" class="node"><title>topo.coordmapper.Pipeline</title>
<polygon fill="none" stroke="black" stroke-width="0.5" points="686,-324.5 542,-324.5 542,-303.5 686,-303.5 686,-324.5"/>
<text text-anchor="middle" x="614" y="-311.5" font-family="Vera" font-size="10.00">topo.coordmapper.Pipeline</text>
</g>
<!-- topo.base.functionfamily.CoordinateMapperFn -->
<g id="node5" class="node"><title>topo.base.functionfamily.CoordinateMapperFn</title>
<polygon fill="none" stroke="black" stroke-width="0.5" points="466,-191.5 230,-191.5 230,-170.5 466,-170.5 466,-191.5"/>
<text text-anchor="middle" x="348" y="-178.5" font-family="Vera" font-size="10.00">topo.base.functionfamily.CoordinateMapperFn</text>
</g>
<!-- topo.base.functionfamily.CoordinateMapperFn&#45;&gt;topo.coordmapper.AffineTransform -->
<g id="edge24" class="edge"><title>topo.base.functionfamily.CoordinateMapperFn&#45;&gt;topo.coordmapper.AffineTransform</title>
<path fill="none" stroke="black" stroke-width="0.5" d="M354.877,-191.27C374.258,-219.296 432.458,-297.373 502,-333 507.485,-335.81 513.3,-338.217 519.283,-340.278"/>
<polygon fill="black" stroke="black" points="519.048,-342.042 524.344,-341.929 520.133,-338.715 519.048,-342.042"/>
</g>
<!-- topo.base.functionfamily.CoordinateMapperFn&#45;&gt;topo.coordmapper.Pipeline -->
<g id="edge4" class="edge"><title>topo.base.functionfamily.CoordinateMapperFn&#45;&gt;topo.coordmapper.Pipeline</title>
<path fill="none" stroke="black" stroke-width="0.5" d="M358.097,-191.236C381.227,-214.015 440.791,-268.931 502,-295 512.796,-299.598 524.624,-303.085 536.421,-305.73"/>
<polygon fill="black" stroke="black" points="536.216,-307.475 541.472,-306.812 536.95,-304.053 536.216,-307.475"/>
</g>
<!-- topo.coordmapper.Grid -->
<g id="node10" class="node"><title>topo.coordmapper.Grid</title>
<polygon fill="none" stroke="black" stroke-width="0.5" points="678,-286.5 550,-286.5 550,-265.5 678,-265.5 678,-286.5"/>
<text text-anchor="middle" x="614" y="-273.5" font-family="Vera" font-size="10.00">topo.coordmapper.Grid</text>
</g>
<!-- topo.base.functionfamily.CoordinateMapperFn&#45;&gt;topo.coordmapper.Grid -->
<g id="edge8" class="edge"><title>topo.base.functionfamily.CoordinateMapperFn&#45;&gt;topo.coordmapper.Grid</title>
<path fill="none" stroke="black" stroke-width="0.5" d="M364.412,-191.107C391.853,-207.535 449.243,-239.912 502,-257 515.535,-261.384 530.336,-264.806 544.615,-267.46"/>
<polygon fill="black" stroke="black" points="544.617,-269.239 549.848,-268.404 545.238,-265.794 544.617,-269.239"/>
</g>
<!-- topo.coordmapper.NormalJitter -->
<g id="node12" class="node"><title>topo.coordmapper.NormalJitter</title>
<polygon fill="none" stroke="black" stroke-width="0.5" points="696,-248.5 532,-248.5 532,-227.5 696,-227.5 696,-248.5"/>
<text text-anchor="middle" x="614" y="-235.5" font-family="Vera" font-size="10.00">topo.coordmapper.NormalJitter</text>
</g>
<!-- topo.base.functionfamily.CoordinateMapperFn&#45;&gt;topo.coordmapper.NormalJitter -->
<g id="edge10" class="edge"><title>topo.base.functionfamily.CoordinateMapperFn&#45;&gt;topo.coordmapper.NormalJitter</title>
<path fill="none" stroke="black" stroke-width="0.5" d="M385.48,-191.071C416.555,-199.223 461.962,-210.676 502,-219 515.758,-221.86 530.533,-224.6 544.694,-227.065"/>
<polygon fill="black" stroke="black" points="544.656,-228.834 549.881,-227.961 545.251,-225.385 544.656,-228.834"/>
</g>
<!-- topo.coordmapper.ConstantMapper -->
<g id="node14" class="node"><title>topo.coordmapper.ConstantMapper</title>
<polygon fill="none" stroke="black" stroke-width="0.5" points="708,-210.5 520,-210.5 520,-189.5 708,-189.5 708,-210.5"/>
<text text-anchor="middle" x="614" y="-197.5" font-family="Vera" font-size="10.00">topo.coordmapper.ConstantMapper</text>
</g>
<!-- topo.base.functionfamily.CoordinateMapperFn&#45;&gt;topo.coordmapper.ConstantMapper -->
<g id="edge12" class="edge"><title>topo.base.functionfamily.CoordinateMapperFn&#45;&gt;topo.coordmapper.ConstantMapper</title>
<path fill="none" stroke="black" stroke-width="0.5" d="M466.221,-189.444C482.302,-190.593 498.675,-191.763 514.384,-192.885"/>
<polygon fill="black" stroke="black" points="514.573,-194.652 519.685,-193.263 514.822,-191.161 514.573,-194.652"/>
</g>
<!-- topo.coordmapper.OttesSCMapper -->
<g id="node17" class="node"><title>topo.coordmapper.OttesSCMapper</title>
<polygon fill="none" stroke="black" stroke-width="0.5" points="706,-172.5 522,-172.5 522,-151.5 706,-151.5 706,-172.5"/>
<text text-anchor="middle" x="614" y="-159.5" font-family="Vera" font-size="10.00">topo.coordmapper.OttesSCMapper</text>
</g>
<!-- topo.base.functionfamily.CoordinateMapperFn&#45;&gt;topo.coordmapper.OttesSCMapper -->
<g id="edge28" class="edge"><title>topo.base.functionfamily.CoordinateMapperFn&#45;&gt;topo.coordmapper.OttesSCMapper</title>
<path fill="none" stroke="black" stroke-width="0.5" d="M466.221,-172.556C483.07,-171.352 500.241,-170.126 516.632,-168.955"/>
<polygon fill="black" stroke="black" points="516.83,-170.695 521.692,-168.593 516.58,-167.204 516.83,-170.695"/>
</g>
<!-- topo.coordmapper.Jitter -->
<g id="node19" class="node"><title>topo.coordmapper.Jitter</title>
<polygon fill="none" stroke="black" stroke-width="0.5" points="679,-134.5 549,-134.5 549,-113.5 679,-113.5 679,-134.5"/>
<text text-anchor="middle" x="614" y="-121.5" font-family="Vera" font-size="10.00">topo.coordmapper.Jitter</text>
</g>
<!-- topo.base.functionfamily.CoordinateMapperFn&#45;&gt;topo.coordmapper.Jitter -->
<g id="edge16" class="edge"><title>topo.base.functionfamily.CoordinateMapperFn&#45;&gt;topo.coordmapper.Jitter</title>
<path fill="none" stroke="black" stroke-width="0.5" d="M385.48,-170.929C416.555,-162.777 461.962,-151.324 502,-143 515.758,-140.14 530.533,-137.4 544.694,-134.935"/>
<polygon fill="black" stroke="black" points="545.251,-136.615 549.881,-134.039 544.656,-133.166 545.251,-136.615"/>
</g>
<!-- topo.coordmapper.SingleDimensionMapper -->
<g id="node23" class="node"><title>topo.coordmapper.SingleDimensionMapper</title>
<polygon fill="none" stroke="black" stroke-width="0.5" points="726,-96.5 502,-96.5 502,-75.5 726,-75.5 726,-96.5"/>
<text text-anchor="middle" x="614" y="-83.5" font-family="Vera" font-size="10.00">topo.coordmapper.SingleDimensionMapper</text>
</g>
<!-- topo.base.functionfamily.CoordinateMapperFn&#45;&gt;topo.coordmapper.SingleDimensionMapper -->
<g id="edge20" class="edge"><title>topo.base.functionfamily.CoordinateMapperFn&#45;&gt;topo.coordmapper.SingleDimensionMapper</title>
<path fill="none" stroke="black" stroke-width="0.5" d="M364.412,-170.893C391.853,-154.465 449.243,-122.088 502,-105 511.594,-101.893 521.823,-99.2684 532.052,-97.0585"/>
<polygon fill="black" stroke="black" points="532.536,-98.7452 537.07,-96.0066 531.818,-95.3196 532.536,-98.7452"/>
</g>
<!-- topo.coordmapper.Cartesian2Polar -->
<g id="node28" class="node"><title>topo.coordmapper.Cartesian2Polar</title>
<polygon fill="none" stroke="black" stroke-width="0.5" points="706,-58.5 522,-58.5 522,-37.5 706,-37.5 706,-58.5"/>
<text text-anchor="middle" x="614" y="-45.5" font-family="Vera" font-size="10.00">topo.coordmapper.Cartesian2Polar</text>
</g>
<!-- topo.base.functionfamily.CoordinateMapperFn&#45;&gt;topo.coordmapper.Cartesian2Polar -->
<g id="edge26" class="edge"><title>topo.base.functionfamily.CoordinateMapperFn&#45;&gt;topo.coordmapper.Cartesian2Polar</title>
<path fill="none" stroke="black" stroke-width="0.5" d="M358.097,-170.764C381.227,-147.985 440.791,-93.0694 502,-67 508.929,-64.0488 516.283,-61.5553 523.781,-59.4486"/>
<polygon fill="black" stroke="black" points="524.616,-61.0367 528.992,-58.051 523.709,-57.6562 524.616,-61.0367"/>
</g>
<!-- topo.coordmapper.Polar2Cartesian -->
<g id="node31" class="node"><title>topo.coordmapper.Polar2Cartesian</title>
<polygon fill="none" stroke="black" stroke-width="0.5" points="706,-20.5 522,-20.5 522,0.5 706,0.5 706,-20.5"/>
<text text-anchor="middle" x="614" y="-7.5" font-family="Vera" font-size="10.00">topo.coordmapper.Polar2Cartesian</text>
</g>
<!-- topo.base.functionfamily.CoordinateMapperFn&#45;&gt;topo.coordmapper.Polar2Cartesian -->
<g id="edge30" class="edge"><title>topo.base.functionfamily.CoordinateMapperFn&#45;&gt;topo.coordmapper.Polar2Cartesian</title>
<path fill="none" stroke="black" stroke-width="0.5" d="M354.877,-170.73C374.258,-142.704 432.458,-64.6275 502,-29 507.485,-26.1898 513.3,-23.7826 519.283,-21.7218"/>
<polygon fill="black" stroke="black" points="520.133,-23.2853 524.344,-20.071 519.048,-19.9578 520.133,-23.2853"/>
</g>
<!-- param.parameterized.Parameterized -->
<g id="node7" class="node"><title>param.parameterized.Parameterized</title>
<polygon fill="none" stroke="black" stroke-width="0.5" points="194,-191.5 5.68434e-14,-191.5 0,-170.5 194,-170.5 194,-191.5"/>
<text text-anchor="middle" x="97" y="-178.5" font-family="Vera" font-size="10.00">param.parameterized.Parameterized</text>
</g>
<!-- param.parameterized.Parameterized&#45;&gt;topo.base.functionfamily.CoordinateMapperFn -->
<g id="edge36" class="edge"><title>param.parameterized.Parameterized&#45;&gt;topo.base.functionfamily.CoordinateMapperFn</title>
<path fill="none" stroke="black" stroke-width="0.5" d="M194.043,-181C204.12,-181 214.455,-181 224.77,-181"/>
<polygon fill="black" stroke="black" points="224.831,-182.75 229.831,-181 224.831,-179.25 224.831,-182.75"/>
</g>
<!-- topo.coordmapper.OttesSCSenseMapper -->
<g id="node16" class="node"><title>topo.coordmapper.OttesSCSenseMapper</title>
<polygon fill="none" stroke="black" stroke-width="0.5" points="976,-200.5 762,-200.5 762,-179.5 976,-179.5 976,-200.5"/>
<text text-anchor="middle" x="869" y="-187.5" font-family="Vera" font-size="10.00">topo.coordmapper.OttesSCSenseMapper</text>
</g>
<!-- topo.coordmapper.OttesSCMapper&#45;&gt;topo.coordmapper.OttesSCSenseMapper -->
<g id="edge14" class="edge"><title>topo.coordmapper.OttesSCMapper&#45;&gt;topo.coordmapper.OttesSCSenseMapper</title>
<path fill="none" stroke="black" stroke-width="0.5" d="M705.341,-172.03C727.263,-174.437 750.739,-177.015 772.872,-179.445"/>
<polygon fill="black" stroke="black" points="772.708,-181.187 777.869,-179.993 773.09,-177.708 772.708,-181.187"/>
</g>
<!-- topo.coordmapper.OttesSCMotorMapper -->
<g id="node21" class="node"><title>topo.coordmapper.OttesSCMotorMapper</title>
<polygon fill="none" stroke="black" stroke-width="0.5" points="975,-162.5 763,-162.5 763,-141.5 975,-141.5 975,-162.5"/>
<text text-anchor="middle" x="869" y="-149.5" font-family="Vera" font-size="10.00">topo.coordmapper.OttesSCMotorMapper</text>
</g>
<!-- topo.coordmapper.OttesSCMapper&#45;&gt;topo.coordmapper.OttesSCMotorMapper -->
<g id="edge18" class="edge"><title>topo.coordmapper.OttesSCMapper&#45;&gt;topo.coordmapper.OttesSCMotorMapper</title>
<path fill="none" stroke="black" stroke-width="0.5" d="M706.061,-158.39C722.739,-157.736 740.295,-157.047 757.46,-156.374"/>
<polygon fill="black" stroke="black" points="757.845,-158.11 762.773,-156.166 757.708,-154.613 757.845,-158.11"/>
</g>
<!-- topo.coordmapper.ReducingMapper -->
<g id="node33" class="node"><title>topo.coordmapper.ReducingMapper</title>
<polygon fill="none" stroke="black" stroke-width="0.5" points="962,-105.5 776,-105.5 776,-84.5 962,-84.5 962,-105.5"/>
<text text-anchor="middle" x="869" y="-92.5" font-family="Vera" font-size="10.00">topo.coordmapper.ReducingMapper</text>
</g>
<!-- topo.coordmapper.SingleDimensionMapper&#45;&gt;topo.coordmapper.ReducingMapper -->
<g id="edge32" class="edge"><title>topo.coordmapper.SingleDimensionMapper&#45;&gt;topo.coordmapper.ReducingMapper</title>
<path fill="none" stroke="black" stroke-width="0.5" d="M726.218,-89.9606C740.855,-90.4773 755.766,-91.0035 770.162,-91.5116"/>
<polygon fill="black" stroke="black" points="770.382,-93.2704 775.441,-91.6979 770.506,-89.7726 770.382,-93.2704"/>
</g>
<!-- topo.coordmapper.MagnifyingMapper -->
<g id="node35" class="node"><title>topo.coordmapper.MagnifyingMapper</title>
<polygon fill="none" stroke="black" stroke-width="0.5" points="966,-67.5 772,-67.5 772,-46.5 966,-46.5 966,-67.5"/>
<text text-anchor="middle" x="869" y="-54.5" font-family="Vera" font-size="10.00">topo.coordmapper.MagnifyingMapper</text>
</g>
<!-- topo.coordmapper.SingleDimensionMapper&#45;&gt;topo.coordmapper.MagnifyingMapper -->
<g id="edge34" class="edge"><title>topo.coordmapper.SingleDimensionMapper&#45;&gt;topo.coordmapper.MagnifyingMapper</title>
<path fill="none" stroke="black" stroke-width="0.5" d="M702.114,-75.9792C725.902,-73.2739 751.719,-70.3378 775.777,-67.6018"/>
<polygon fill="black" stroke="black" points="776.113,-69.325 780.883,-67.0212 775.717,-65.8474 776.113,-69.325"/>
</g>
</g>
</svg>
