<?xml version="1.0" encoding="UTF-8" standalone="no"?>
<!DOCTYPE svg PUBLIC "-//W3C//DTD SVG 1.1//EN"
 "http://www.w3.org/Graphics/SVG/1.1/DTD/svg11.dtd">
<!-- Generated by graphviz version 2.26.3 (20100126.1600)
 -->
<!-- Title: inheritancecc9184d1e2 Pages: 1 -->
<svg width="376pt" height="142pt"
 viewBox="0.00 0.00 376.00 142.00" xmlns="http://www.w3.org/2000/svg" xmlns:xlink="http://www.w3.org/1999/xlink">
<g id="graph1" class="graph" transform="scale(1 1) rotate(0) translate(4 138)">
<title>inheritancecc9184d1e2</title>
<polygon fill="white" stroke="white" points="-4,5 -4,-138 373,-138 373,5 -4,5"/>
<!-- topo.misc.odict.Keys -->
<g id="node1" class="node"><title>topo.misc.odict.Keys</title>
<polygon fill="none" stroke="black" stroke-width="0.5" points="126,-20 18,-20 18,-1.06581e-14 126,-3.55271e-15 126,-20"/>
<text text-anchor="middle" x="72" y="-7" font-family="Vera" font-size="10.00">topo.misc.odict.Keys</text>
</g>
<!-- topo.misc.odict.OrderedDict -->
<g id="node2" class="node"><title>topo.misc.odict.OrderedDict</title>
<polygon fill="none" stroke="black" stroke-width="0.5" points="144,-58 5.68434e-14,-58 0,-38 144,-38 144,-58"/>
<text text-anchor="middle" x="72" y="-45" font-family="Vera" font-size="10.00">topo.misc.odict.OrderedDict</text>
</g>
<!-- topo.misc.odict.SequenceOrderedDict -->
<g id="node5" class="node"><title>topo.misc.odict.SequenceOrderedDict</title>
<polygon fill="none" stroke="black" stroke-width="0.5" points="368,-58 180,-58 180,-38 368,-38 368,-58"/>
<text text-anchor="middle" x="274" y="-45" font-family="Vera" font-size="10.00">topo.misc.odict.SequenceOrderedDict</text>
</g>
<!-- topo.misc.odict.OrderedDict&#45;&gt;topo.misc.odict.SequenceOrderedDict -->
<g id="edge2" class="edge"><title>topo.misc.odict.OrderedDict&#45;&gt;topo.misc.odict.SequenceOrderedDict</title>
<path fill="none" stroke="black" stroke-width="0.5" d="M144.071,-48C154.003,-48 164.342,-48 174.659,-48"/>
<polygon fill="black" stroke="black" points="174.719,-49.7501 179.719,-48 174.719,-46.2501 174.719,-49.7501"/>
</g>
<!-- topo.misc.odict.Items -->
<g id="node3" class="node"><title>topo.misc.odict.Items</title>
<polygon fill="none" stroke="black" stroke-width="0.5" points="129,-96 15,-96 15,-76 129,-76 129,-96"/>
<text text-anchor="middle" x="72" y="-83" font-family="Vera" font-size="10.00">topo.misc.odict.Items</text>
</g>
<!-- topo.misc.odict.Values -->
<g id="node4" class="node"><title>topo.misc.odict.Values</title>
<polygon fill="none" stroke="black" stroke-width="0.5" points="131,-134 13,-134 13,-114 131,-114 131,-134"/>
<text text-anchor="middle" x="72" y="-121" font-family="Vera" font-size="10.00">topo.misc.odict.Values</text>
</g>
</g>
</svg>
