<?xml version="1.0" encoding="UTF-8" standalone="no"?>
<!DOCTYPE svg PUBLIC "-//W3C//DTD SVG 1.1//EN"
 "http://www.w3.org/Graphics/SVG/1.1/DTD/svg11.dtd">
<!-- Generated by graphviz version 2.26.3 (20100126.1600)
 -->
<!-- Title: inheritance0bce68b9cf Pages: 1 -->
<svg width="1872pt" height="446pt"
 viewBox="0.00 0.00 1872.00 446.00" xmlns="http://www.w3.org/2000/svg" xmlns:xlink="http://www.w3.org/1999/xlink">
<g id="graph1" class="graph" transform="scale(1 1) rotate(0) translate(4 442)">
<title>inheritance0bce68b9cf</title>
<polygon fill="white" stroke="white" points="-4,5 -4,-442 1869,-442 1869,5 -4,5"/>
<!-- topo.command.analysis.frequency_mapper -->
<g id="node1" class="node"><title>topo.command.analysis.frequency_mapper</title>
<polygon fill="none" stroke="black" stroke-width="0.5" points="773,-267.5 549,-267.5 549,-246.5 773,-246.5 773,-267.5"/>
<text text-anchor="middle" x="661" y="-254.5" font-family="Vera" font-size="10.00">topo.command.analysis.frequency_mapper</text>
</g>
<!-- imagen.patterngenerator.PatternGenerator -->
<g id="node2" class="node"><title>imagen.patterngenerator.PatternGenerator</title>
<polygon fill="none" stroke="black" stroke-width="0.5" points="459,-200.5 235,-200.5 235,-179.5 459,-179.5 459,-200.5"/>
<text text-anchor="middle" x="347" y="-187.5" font-family="Vera" font-size="10.00">imagen.patterngenerator.PatternGenerator</text>
</g>
<!-- imagen.patterngenerator.PatternGenerator&#45;&gt;topo.command.analysis.frequency_mapper -->
<g id="edge2" class="edge"><title>imagen.patterngenerator.PatternGenerator&#45;&gt;topo.command.analysis.frequency_mapper</title>
<path fill="none" stroke="black" stroke-width="0.5" d="M373.678,-200.042C403.893,-211.02 454.81,-228.333 500,-238 515.084,-241.227 531.088,-243.942 546.927,-246.218"/>
<polygon fill="black" stroke="black" points="547.096,-248.009 552.291,-246.973 547.584,-244.543 547.096,-248.009"/>
</g>
<!-- topo.command.analysis.log_frequency_mapper -->
<g id="node40" class="node"><title>topo.command.analysis.log_frequency_mapper</title>
<polygon fill="none" stroke="black" stroke-width="0.5" points="783,-229.5 539,-229.5 539,-208.5 783,-208.5 783,-229.5"/>
<text text-anchor="middle" x="661" y="-216.5" font-family="Vera" font-size="10.00">topo.command.analysis.log_frequency_mapper</text>
</g>
<!-- imagen.patterngenerator.PatternGenerator&#45;&gt;topo.command.analysis.log_frequency_mapper -->
<g id="edge36" class="edge"><title>imagen.patterngenerator.PatternGenerator&#45;&gt;topo.command.analysis.log_frequency_mapper</title>
<path fill="none" stroke="black" stroke-width="0.5" d="M455.501,-200.021C485.161,-202.76 517.382,-205.736 547.323,-208.501"/>
<polygon fill="black" stroke="black" points="547.355,-210.262 552.495,-208.979 547.677,-206.776 547.355,-210.262"/>
</g>
<!-- topo.command.analysis.latency_mapper -->
<g id="node51" class="node"><title>topo.command.analysis.latency_mapper</title>
<polygon fill="none" stroke="black" stroke-width="0.5" points="767,-191.5 555,-191.5 555,-170.5 767,-170.5 767,-191.5"/>
<text text-anchor="middle" x="661" y="-178.5" font-family="Vera" font-size="10.00">topo.command.analysis.latency_mapper</text>
</g>
<!-- imagen.patterngenerator.PatternGenerator&#45;&gt;topo.command.analysis.latency_mapper -->
<g id="edge50" class="edge"><title>imagen.patterngenerator.PatternGenerator&#45;&gt;topo.command.analysis.latency_mapper</title>
<path fill="none" stroke="black" stroke-width="0.5" d="M459.031,-186.789C488.501,-185.944 520.279,-185.033 549.709,-184.19"/>
<polygon fill="black" stroke="black" points="549.845,-185.937 554.792,-184.044 549.744,-182.438 549.845,-185.937"/>
</g>
<!-- topo.command.analysis.measure_latency_preference -->
<g id="node4" class="node"><title>topo.command.analysis.measure_latency_preference</title>
<polygon fill="none" stroke="black" stroke-width="0.5" points="1517,-324.5 1243,-324.5 1243,-303.5 1517,-303.5 1517,-324.5"/>
<text text-anchor="middle" x="1380" y="-311.5" font-family="Vera" font-size="10.00">topo.command.analysis.measure_latency_preference</text>
</g>
<!-- topo.analysis.featureresponses.MeasureResponseCommand -->
<g id="node5" class="node"><title>topo.analysis.featureresponses.MeasureResponseCommand</title>
<polygon fill="none" stroke="black" stroke-width="0.5" points="1165,-172.5 859,-172.5 859,-151.5 1165,-151.5 1165,-172.5"/>
<text text-anchor="middle" x="1012" y="-159.5" font-family="Vera" font-size="10.00">topo.analysis.featureresponses.MeasureResponseCommand</text>
</g>
<!-- topo.analysis.featureresponses.MeasureResponseCommand&#45;&gt;topo.command.analysis.measure_latency_preference -->
<g id="edge4" class="edge"><title>topo.analysis.featureresponses.MeasureResponseCommand&#45;&gt;topo.command.analysis.measure_latency_preference</title>
<path fill="none" stroke="black" stroke-width="0.5" d="M1022.41,-172.284C1049.37,-198.173 1124.71,-266.036 1202,-295 1213.43,-299.284 1225.55,-302.701 1237.87,-305.416"/>
<polygon fill="black" stroke="black" points="1237.53,-307.133 1242.78,-306.46 1238.26,-303.709 1237.53,-307.133"/>
</g>
<!-- topo.analysis.featureresponses.SinusoidalMeasureResponseCommand -->
<g id="node14" class="node"><title>topo.analysis.featureresponses.SinusoidalMeasureResponseCommand</title>
<polygon fill="none" stroke="black" stroke-width="0.5" points="1558,-286.5 1202,-286.5 1202,-265.5 1558,-265.5 1558,-286.5"/>
<text text-anchor="middle" x="1380" y="-273.5" font-family="Vera" font-size="10.00">topo.analysis.featureresponses.SinusoidalMeasureResponseCommand</text>
</g>
<!-- topo.analysis.featureresponses.MeasureResponseCommand&#45;&gt;topo.analysis.featureresponses.SinusoidalMeasureResponseCommand -->
<g id="edge40" class="edge"><title>topo.analysis.featureresponses.MeasureResponseCommand&#45;&gt;topo.analysis.featureresponses.SinusoidalMeasureResponseCommand</title>
<path fill="none" stroke="black" stroke-width="0.5" d="M1044.34,-172.017C1112.42,-193.108 1270.21,-241.99 1342.55,-264.398"/>
<polygon fill="black" stroke="black" points="1342.31,-266.157 1347.61,-265.965 1343.35,-262.814 1342.31,-266.157"/>
</g>
<!-- topo.command.analysis.measure_log_frequency_preference -->
<g id="node16" class="node"><title>topo.command.analysis.measure_log_frequency_preference</title>
<polygon fill="none" stroke="black" stroke-width="0.5" points="1533,-210.5 1227,-210.5 1227,-189.5 1533,-189.5 1533,-210.5"/>
<text text-anchor="middle" x="1380" y="-197.5" font-family="Vera" font-size="10.00">topo.command.analysis.measure_log_frequency_preference</text>
</g>
<!-- topo.analysis.featureresponses.MeasureResponseCommand&#45;&gt;topo.command.analysis.measure_log_frequency_preference -->
<g id="edge14" class="edge"><title>topo.analysis.featureresponses.MeasureResponseCommand&#45;&gt;topo.command.analysis.measure_log_frequency_preference</title>
<path fill="none" stroke="black" stroke-width="0.5" d="M1109.17,-172.034C1161.15,-177.402 1225.14,-184.009 1277.86,-189.453"/>
<polygon fill="black" stroke="black" points="1277.77,-191.203 1282.93,-189.976 1278.13,-187.722 1277.77,-191.203"/>
</g>
<!-- topo.analysis.featureresponses.SingleInputResponseCommand -->
<g id="node25" class="node"><title>topo.analysis.featureresponses.SingleInputResponseCommand</title>
<polygon fill="none" stroke="black" stroke-width="0.5" points="1539,-172.5 1221,-172.5 1221,-151.5 1539,-151.5 1539,-172.5"/>
<text text-anchor="middle" x="1380" y="-159.5" font-family="Vera" font-size="10.00">topo.analysis.featureresponses.SingleInputResponseCommand</text>
</g>
<!-- topo.analysis.featureresponses.MeasureResponseCommand&#45;&gt;topo.analysis.featureresponses.SingleInputResponseCommand -->
<g id="edge60" class="edge"><title>topo.analysis.featureresponses.MeasureResponseCommand&#45;&gt;topo.analysis.featureresponses.SingleInputResponseCommand</title>
<path fill="none" stroke="black" stroke-width="0.5" d="M1165.67,-162C1182.01,-162 1198.68,-162 1215.14,-162"/>
<polygon fill="black" stroke="black" points="1215.25,-163.75 1220.25,-162 1215.25,-160.25 1215.25,-163.75"/>
</g>
<!-- topo.analysis.featureresponses.PositionMeasurementCommand -->
<g id="node30" class="node"><title>topo.analysis.featureresponses.PositionMeasurementCommand</title>
<polygon fill="none" stroke="black" stroke-width="0.5" points="1542,-134.5 1218,-134.5 1218,-113.5 1542,-113.5 1542,-134.5"/>
<text text-anchor="middle" x="1380" y="-121.5" font-family="Vera" font-size="10.00">topo.analysis.featureresponses.PositionMeasurementCommand</text>
</g>
<!-- topo.analysis.featureresponses.MeasureResponseCommand&#45;&gt;topo.analysis.featureresponses.PositionMeasurementCommand -->
<g id="edge44" class="edge"><title>topo.analysis.featureresponses.MeasureResponseCommand&#45;&gt;topo.analysis.featureresponses.PositionMeasurementCommand</title>
<path fill="none" stroke="black" stroke-width="0.5" d="M1109.17,-151.966C1161.15,-146.598 1225.14,-139.991 1277.86,-134.547"/>
<polygon fill="black" stroke="black" points="1278.13,-136.278 1282.93,-134.024 1277.77,-132.797 1278.13,-136.278"/>
</g>
<!-- topo.command.analysis.measure_frequency_preference -->
<g id="node57" class="node"><title>topo.command.analysis.measure_frequency_preference</title>
<polygon fill="none" stroke="black" stroke-width="0.5" points="1523,-96.5 1237,-96.5 1237,-75.5 1523,-75.5 1523,-96.5"/>
<text text-anchor="middle" x="1380" y="-83.5" font-family="Vera" font-size="10.00">topo.command.analysis.measure_frequency_preference</text>
</g>
<!-- topo.analysis.featureresponses.MeasureResponseCommand&#45;&gt;topo.command.analysis.measure_frequency_preference -->
<g id="edge56" class="edge"><title>topo.analysis.featureresponses.MeasureResponseCommand&#45;&gt;topo.command.analysis.measure_frequency_preference</title>
<path fill="none" stroke="black" stroke-width="0.5" d="M1039.6,-151.958C1076.21,-139.045 1143.09,-116.874 1202,-105 1218.29,-101.717 1235.54,-98.976 1252.64,-96.6945"/>
<polygon fill="black" stroke="black" points="1253.21,-98.385 1257.94,-96.0011 1252.75,-94.9146 1253.21,-98.385"/>
</g>
<!-- topo.analysis.featureresponses.PatternPresentingCommand -->
<g id="node7" class="node"><title>topo.analysis.featureresponses.PatternPresentingCommand</title>
<polygon fill="none" stroke="black" stroke-width="0.5" points="813,-153.5 509,-153.5 509,-132.5 813,-132.5 813,-153.5"/>
<text text-anchor="middle" x="661" y="-140.5" font-family="Vera" font-size="10.00">topo.analysis.featureresponses.PatternPresentingCommand</text>
</g>
<!-- topo.analysis.featureresponses.PatternPresentingCommand&#45;&gt;topo.analysis.featureresponses.MeasureResponseCommand -->
<g id="edge6" class="edge"><title>topo.analysis.featureresponses.PatternPresentingCommand&#45;&gt;topo.analysis.featureresponses.MeasureResponseCommand</title>
<path fill="none" stroke="black" stroke-width="0.5" d="M813.677,-151.265C826.734,-151.971 839.963,-152.687 853.067,-153.397"/>
<polygon fill="black" stroke="black" points="853.19,-155.156 858.278,-153.679 853.38,-151.661 853.19,-155.156"/>
</g>
<!-- param.parameterized.Parameterized -->
<g id="node9" class="node"><title>param.parameterized.Parameterized</title>
<polygon fill="none" stroke="black" stroke-width="0.5" points="194,-143.5 5.68434e-14,-143.5 0,-122.5 194,-122.5 194,-143.5"/>
<text text-anchor="middle" x="97" y="-130.5" font-family="Vera" font-size="10.00">param.parameterized.Parameterized</text>
</g>
<!-- param.parameterized.Parameterized&#45;&gt;imagen.patterngenerator.PatternGenerator -->
<g id="edge8" class="edge"><title>param.parameterized.Parameterized&#45;&gt;imagen.patterngenerator.PatternGenerator</title>
<path fill="none" stroke="black" stroke-width="0.5" d="M141.12,-143.059C185.075,-153.081 252.414,-168.434 298.007,-178.83"/>
<polygon fill="black" stroke="black" points="297.638,-180.54 302.902,-179.946 298.416,-177.128 297.638,-180.54"/>
</g>
<!-- param.parameterized.ParameterizedFunction -->
<g id="node11" class="node"><title>param.parameterized.ParameterizedFunction</title>
<polygon fill="none" stroke="black" stroke-width="0.5" points="464,-143.5 230,-143.5 230,-122.5 464,-122.5 464,-143.5"/>
<text text-anchor="middle" x="347" y="-130.5" font-family="Vera" font-size="10.00">param.parameterized.ParameterizedFunction</text>
</g>
<!-- param.parameterized.Parameterized&#45;&gt;param.parameterized.ParameterizedFunction -->
<g id="edge20" class="edge"><title>param.parameterized.Parameterized&#45;&gt;param.parameterized.ParameterizedFunction</title>
<path fill="none" stroke="black" stroke-width="0.5" d="M194.014,-133C204.04,-133 214.319,-133 224.575,-133"/>
<polygon fill="black" stroke="black" points="224.607,-134.75 229.607,-133 224.607,-131.25 224.607,-134.75"/>
</g>
<!-- topo.command.analysis.PatternPresenter2 -->
<g id="node45" class="node"><title>topo.command.analysis.PatternPresenter2</title>
<polygon fill="none" stroke="black" stroke-width="0.5" points="457,-105.5 237,-105.5 237,-84.5 457,-84.5 457,-105.5"/>
<text text-anchor="middle" x="347" y="-92.5" font-family="Vera" font-size="10.00">topo.command.analysis.PatternPresenter2</text>
</g>
<!-- param.parameterized.Parameterized&#45;&gt;topo.command.analysis.PatternPresenter2 -->
<g id="edge42" class="edge"><title>param.parameterized.Parameterized&#45;&gt;topo.command.analysis.PatternPresenter2</title>
<path fill="none" stroke="black" stroke-width="0.5" d="M163.012,-122.966C197.758,-117.685 240.394,-111.204 275.872,-105.811"/>
<polygon fill="black" stroke="black" points="276.372,-107.506 281.052,-105.024 275.846,-104.045 276.372,-107.506"/>
</g>
<!-- param.parameterized.ParameterizedFunction&#45;&gt;topo.analysis.featureresponses.PatternPresentingCommand -->
<g id="edge10" class="edge"><title>param.parameterized.ParameterizedFunction&#45;&gt;topo.analysis.featureresponses.PatternPresentingCommand</title>
<path fill="none" stroke="black" stroke-width="0.5" d="M464.369,-136.738C477.055,-137.142 490.112,-137.558 503.176,-137.974"/>
<polygon fill="black" stroke="black" points="503.324,-139.729 508.378,-138.139 503.436,-136.231 503.324,-139.729"/>
</g>
<!-- topo.command.analysis.save_plotgroup -->
<g id="node27" class="node"><title>topo.command.analysis.save_plotgroup</title>
<polygon fill="none" stroke="black" stroke-width="0.5" points="765,-115.5 557,-115.5 557,-94.5 765,-94.5 765,-115.5"/>
<text text-anchor="middle" x="661" y="-102.5" font-family="Vera" font-size="10.00">topo.command.analysis.save_plotgroup</text>
</g>
<!-- param.parameterized.ParameterizedFunction&#45;&gt;topo.command.analysis.save_plotgroup -->
<g id="edge24" class="edge"><title>param.parameterized.ParameterizedFunction&#45;&gt;topo.command.analysis.save_plotgroup</title>
<path fill="none" stroke="black" stroke-width="0.5" d="M459.474,-122.97C489.501,-120.293 521.896,-117.404 551.746,-114.742"/>
<polygon fill="black" stroke="black" points="552.075,-116.47 556.9,-114.283 551.764,-112.984 552.075,-116.47"/>
</g>
<!-- topo.plotting.plotgroup.ProjectionSheetMeasurementCommand -->
<g id="node32" class="node"><title>topo.plotting.plotgroup.ProjectionSheetMeasurementCommand</title>
<polygon fill="none" stroke="black" stroke-width="0.5" points="822,-58.5 500,-58.5 500,-37.5 822,-37.5 822,-58.5"/>
<text text-anchor="middle" x="661" y="-45.5" font-family="Vera" font-size="10.00">topo.plotting.plotgroup.ProjectionSheetMeasurementCommand</text>
</g>
<!-- param.parameterized.ParameterizedFunction&#45;&gt;topo.plotting.plotgroup.ProjectionSheetMeasurementCommand -->
<g id="edge48" class="edge"><title>param.parameterized.ParameterizedFunction&#45;&gt;topo.plotting.plotgroup.ProjectionSheetMeasurementCommand</title>
<path fill="none" stroke="black" stroke-width="0.5" d="M437.742,-122.934C446.796,-120.553 455.7,-117.618 464,-114 482.582,-105.901 481.717,-94.7511 500,-86 526.216,-73.452 556.865,-64.8864 584.346,-59.1155"/>
<polygon fill="black" stroke="black" points="584.892,-60.7899 589.438,-58.0701 584.188,-57.3614 584.892,-60.7899"/>
</g>
<!-- topo.command.analysis.measure_second_or_pref -->
<g id="node13" class="node"><title>topo.command.analysis.measure_second_or_pref</title>
<polygon fill="none" stroke="black" stroke-width="0.5" points="1857,-438.5 1601,-438.5 1601,-417.5 1857,-417.5 1857,-438.5"/>
<text text-anchor="middle" x="1729" y="-425.5" font-family="Vera" font-size="10.00">topo.command.analysis.measure_second_or_pref</text>
</g>
<!-- topo.analysis.featureresponses.SinusoidalMeasureResponseCommand&#45;&gt;topo.command.analysis.measure_second_or_pref -->
<g id="edge12" class="edge"><title>topo.analysis.featureresponses.SinusoidalMeasureResponseCommand&#45;&gt;topo.command.analysis.measure_second_or_pref</title>
<path fill="none" stroke="black" stroke-width="0.5" d="M1545.06,-286.013C1549.58,-288.67 1553.91,-291.655 1558,-295 1599.13,-328.642 1553.44,-374.675 1594,-409 1596.61,-411.208 1599.35,-413.227 1602.21,-415.071"/>
<polygon fill="black" stroke="black" points="1601.6,-416.746 1606.78,-417.829 1603.4,-413.749 1601.6,-416.746"/>
</g>
<!-- topo.command.analysis.measure_phasedisparity -->
<g id="node21" class="node"><title>topo.command.analysis.measure_phasedisparity</title>
<polygon fill="none" stroke="black" stroke-width="0.5" points="1855,-400.5 1603,-400.5 1603,-379.5 1855,-379.5 1855,-400.5"/>
<text text-anchor="middle" x="1729" y="-387.5" font-family="Vera" font-size="10.00">topo.command.analysis.measure_phasedisparity</text>
</g>
<!-- topo.analysis.featureresponses.SinusoidalMeasureResponseCommand&#45;&gt;topo.command.analysis.measure_phasedisparity -->
<g id="edge18" class="edge"><title>topo.analysis.featureresponses.SinusoidalMeasureResponseCommand&#45;&gt;topo.command.analysis.measure_phasedisparity</title>
<path fill="none" stroke="black" stroke-width="0.5" d="M1543.24,-286.123C1548.37,-288.725 1553.31,-291.672 1558,-295 1588.48,-316.637 1563.89,-348.856 1594,-371 1597.21,-373.362 1600.59,-375.495 1604.09,-377.42"/>
<polygon fill="black" stroke="black" points="1603.69,-379.183 1608.93,-379.917 1605.29,-376.072 1603.69,-379.183"/>
</g>
<!-- topo.command.analysis.measure_dr_pref -->
<g id="node34" class="node"><title>topo.command.analysis.measure_dr_pref</title>
<polygon fill="none" stroke="black" stroke-width="0.5" points="1837,-362.5 1621,-362.5 1621,-341.5 1837,-341.5 1837,-362.5"/>
<text text-anchor="middle" x="1729" y="-349.5" font-family="Vera" font-size="10.00">topo.command.analysis.measure_dr_pref</text>
</g>
<!-- topo.analysis.featureresponses.SinusoidalMeasureResponseCommand&#45;&gt;topo.command.analysis.measure_dr_pref -->
<g id="edge30" class="edge"><title>topo.analysis.featureresponses.SinusoidalMeasureResponseCommand&#45;&gt;topo.command.analysis.measure_dr_pref</title>
<path fill="none" stroke="black" stroke-width="0.5" d="M1536.23,-286.077C1543.73,-288.602 1551.04,-291.555 1558,-295 1578.85,-305.315 1573.32,-322.337 1594,-333 1600.97,-336.593 1608.39,-339.575 1616.04,-342.043"/>
<polygon fill="black" stroke="black" points="1615.54,-343.718 1620.83,-343.514 1616.56,-340.373 1615.54,-343.718"/>
</g>
<!-- topo.command.analysis.measure_or_pref -->
<g id="node36" class="node"><title>topo.command.analysis.measure_or_pref</title>
<polygon fill="none" stroke="black" stroke-width="0.5" points="1837,-324.5 1621,-324.5 1621,-303.5 1837,-303.5 1837,-324.5"/>
<text text-anchor="middle" x="1729" y="-311.5" font-family="Vera" font-size="10.00">topo.command.analysis.measure_or_pref</text>
</g>
<!-- topo.analysis.featureresponses.SinusoidalMeasureResponseCommand&#45;&gt;topo.command.analysis.measure_or_pref -->
<g id="edge32" class="edge"><title>topo.analysis.featureresponses.SinusoidalMeasureResponseCommand&#45;&gt;topo.command.analysis.measure_or_pref</title>
<path fill="none" stroke="black" stroke-width="0.5" d="M1474.7,-286.031C1501.62,-288.904 1530.97,-292.055 1558,-295 1582.67,-297.688 1609.34,-300.632 1634.12,-303.384"/>
<polygon fill="black" stroke="black" points="1634.21,-305.155 1639.37,-303.968 1634.6,-301.676 1634.21,-305.155"/>
</g>
<!-- topo.command.analysis.measure_hue_pref -->
<g id="node42" class="node"><title>topo.command.analysis.measure_hue_pref</title>
<polygon fill="none" stroke="black" stroke-width="0.5" points="1841,-286.5 1617,-286.5 1617,-265.5 1841,-265.5 1841,-286.5"/>
<text text-anchor="middle" x="1729" y="-273.5" font-family="Vera" font-size="10.00">topo.command.analysis.measure_hue_pref</text>
</g>
<!-- topo.analysis.featureresponses.SinusoidalMeasureResponseCommand&#45;&gt;topo.command.analysis.measure_hue_pref -->
<g id="edge38" class="edge"><title>topo.analysis.featureresponses.SinusoidalMeasureResponseCommand&#45;&gt;topo.command.analysis.measure_hue_pref</title>
<path fill="none" stroke="black" stroke-width="0.5" d="M1558.08,-276C1576.2,-276 1594.27,-276 1611.51,-276"/>
<polygon fill="black" stroke="black" points="1611.83,-277.75 1616.83,-276 1611.83,-274.25 1611.83,-277.75"/>
</g>
<!-- topo.command.analysis.measure_sine_pref -->
<g id="node48" class="node"><title>topo.command.analysis.measure_sine_pref</title>
<polygon fill="none" stroke="black" stroke-width="0.5" points="1842,-248.5 1616,-248.5 1616,-227.5 1842,-227.5 1842,-248.5"/>
<text text-anchor="middle" x="1729" y="-235.5" font-family="Vera" font-size="10.00">topo.command.analysis.measure_sine_pref</text>
</g>
<!-- topo.analysis.featureresponses.SinusoidalMeasureResponseCommand&#45;&gt;topo.command.analysis.measure_sine_pref -->
<g id="edge46" class="edge"><title>topo.analysis.featureresponses.SinusoidalMeasureResponseCommand&#45;&gt;topo.command.analysis.measure_sine_pref</title>
<path fill="none" stroke="black" stroke-width="0.5" d="M1472.15,-265.966C1521.35,-260.609 1581.89,-254.018 1631.83,-248.58"/>
<polygon fill="black" stroke="black" points="1632.16,-250.305 1636.94,-248.024 1631.78,-246.826 1632.16,-250.305"/>
</g>
<!-- topo.command.analysis.measure_od_pref -->
<g id="node55" class="node"><title>topo.command.analysis.measure_od_pref</title>
<polygon fill="none" stroke="black" stroke-width="0.5" points="1838,-210.5 1620,-210.5 1620,-189.5 1838,-189.5 1838,-210.5"/>
<text text-anchor="middle" x="1729" y="-197.5" font-family="Vera" font-size="10.00">topo.command.analysis.measure_od_pref</text>
</g>
<!-- topo.analysis.featureresponses.SinusoidalMeasureResponseCommand&#45;&gt;topo.command.analysis.measure_od_pref -->
<g id="edge54" class="edge"><title>topo.analysis.featureresponses.SinusoidalMeasureResponseCommand&#45;&gt;topo.command.analysis.measure_od_pref</title>
<path fill="none" stroke="black" stroke-width="0.5" d="M1412.7,-265.97C1454.43,-253.479 1529,-232.181 1594,-219 1609.11,-215.936 1625.27,-213.201 1640.97,-210.827"/>
<polygon fill="black" stroke="black" points="1641.59,-212.504 1646.27,-210.035 1641.07,-209.042 1641.59,-212.504"/>
</g>
<!-- topo.command.analysis.update_projection -->
<g id="node18" class="node"><title>topo.command.analysis.update_projection</title>
<polygon fill="none" stroke="black" stroke-width="0.5" points="1490,-58.5 1270,-58.5 1270,-37.5 1490,-37.5 1490,-58.5"/>
<text text-anchor="middle" x="1380" y="-45.5" font-family="Vera" font-size="10.00">topo.command.analysis.update_projection</text>
</g>
<!-- topo.plotting.plotgroup.UnitMeasurementCommand -->
<g id="node19" class="node"><title>topo.plotting.plotgroup.UnitMeasurementCommand</title>
<polygon fill="none" stroke="black" stroke-width="0.5" points="1145,-58.5 879,-58.5 879,-37.5 1145,-37.5 1145,-58.5"/>
<text text-anchor="middle" x="1012" y="-45.5" font-family="Vera" font-size="10.00">topo.plotting.plotgroup.UnitMeasurementCommand</text>
</g>
<!-- topo.plotting.plotgroup.UnitMeasurementCommand&#45;&gt;topo.command.analysis.update_projection -->
<g id="edge16" class="edge"><title>topo.plotting.plotgroup.UnitMeasurementCommand&#45;&gt;topo.command.analysis.update_projection</title>
<path fill="none" stroke="black" stroke-width="0.5" d="M1145.12,-48C1184.11,-48 1226.42,-48 1264.24,-48"/>
<polygon fill="black" stroke="black" points="1264.3,-49.7501 1269.3,-48 1264.3,-46.2501 1264.3,-49.7501"/>
</g>
<!-- topo.command.analysis.update_connectionfields -->
<g id="node59" class="node"><title>topo.command.analysis.update_connectionfields</title>
<polygon fill="none" stroke="black" stroke-width="0.5" points="1505,-20.5 1255,-20.5 1255,0.5 1505,0.5 1505,-20.5"/>
<text text-anchor="middle" x="1380" y="-7.5" font-family="Vera" font-size="10.00">topo.command.analysis.update_connectionfields</text>
</g>
<!-- topo.plotting.plotgroup.UnitMeasurementCommand&#45;&gt;topo.command.analysis.update_connectionfields -->
<g id="edge58" class="edge"><title>topo.plotting.plotgroup.UnitMeasurementCommand&#45;&gt;topo.command.analysis.update_connectionfields</title>
<path fill="none" stroke="black" stroke-width="0.5" d="M1109.17,-37.9662C1161.15,-32.5982 1225.14,-25.9912 1277.86,-20.5472"/>
<polygon fill="black" stroke="black" points="1278.13,-22.2785 1282.93,-20.024 1277.77,-18.797 1278.13,-22.2785"/>
</g>
<!-- topo.command.analysis.measure_rfs -->
<g id="node24" class="node"><title>topo.command.analysis.measure_rfs</title>
<polygon fill="none" stroke="black" stroke-width="0.5" points="1826,-172.5 1632,-172.5 1632,-151.5 1826,-151.5 1826,-172.5"/>
<text text-anchor="middle" x="1729" y="-159.5" font-family="Vera" font-size="10.00">topo.command.analysis.measure_rfs</text>
</g>
<!-- topo.analysis.featureresponses.SingleInputResponseCommand&#45;&gt;topo.command.analysis.measure_rfs -->
<g id="edge22" class="edge"><title>topo.analysis.featureresponses.SingleInputResponseCommand&#45;&gt;topo.command.analysis.measure_rfs</title>
<path fill="none" stroke="black" stroke-width="0.5" d="M1539.69,-162C1569.26,-162 1599.4,-162 1626.68,-162"/>
<polygon fill="black" stroke="black" points="1626.74,-163.75 1631.74,-162 1626.74,-160.25 1626.74,-163.75"/>
</g>
<!-- topo.command.analysis.measure_corner_or_pref -->
<g id="node29" class="node"><title>topo.command.analysis.measure_corner_or_pref</title>
<polygon fill="none" stroke="black" stroke-width="0.5" points="1855,-134.5 1603,-134.5 1603,-113.5 1855,-113.5 1855,-134.5"/>
<text text-anchor="middle" x="1729" y="-121.5" font-family="Vera" font-size="10.00">topo.command.analysis.measure_corner_or_pref</text>
</g>
<!-- topo.analysis.featureresponses.PositionMeasurementCommand&#45;&gt;topo.command.analysis.measure_corner_or_pref -->
<g id="edge26" class="edge"><title>topo.analysis.featureresponses.PositionMeasurementCommand&#45;&gt;topo.command.analysis.measure_corner_or_pref</title>
<path fill="none" stroke="black" stroke-width="0.5" d="M1542.24,-124C1560.87,-124 1579.69,-124 1597.84,-124"/>
<polygon fill="black" stroke="black" points="1597.94,-125.75 1602.94,-124 1597.94,-122.25 1597.94,-125.75"/>
</g>
<!-- topo.command.analysis.measure_corner_angle_pref -->
<g id="node53" class="node"><title>topo.command.analysis.measure_corner_angle_pref</title>
<polygon fill="none" stroke="black" stroke-width="0.5" points="1863,-96.5 1595,-96.5 1595,-75.5 1863,-75.5 1863,-96.5"/>
<text text-anchor="middle" x="1729" y="-83.5" font-family="Vera" font-size="10.00">topo.command.analysis.measure_corner_angle_pref</text>
</g>
<!-- topo.analysis.featureresponses.PositionMeasurementCommand&#45;&gt;topo.command.analysis.measure_corner_angle_pref -->
<g id="edge52" class="edge"><title>topo.analysis.featureresponses.PositionMeasurementCommand&#45;&gt;topo.command.analysis.measure_corner_angle_pref</title>
<path fill="none" stroke="black" stroke-width="0.5" d="M1474.7,-113.969C1501.62,-111.096 1530.97,-107.945 1558,-105 1582.67,-102.312 1609.34,-99.3679 1634.12,-96.6164"/>
<polygon fill="black" stroke="black" points="1634.6,-98.3239 1639.37,-96.0323 1634.21,-94.8453 1634.6,-98.3239"/>
</g>
<!-- topo.plotting.plotgroup.ProjectionSheetMeasurementCommand&#45;&gt;topo.plotting.plotgroup.UnitMeasurementCommand -->
<g id="edge28" class="edge"><title>topo.plotting.plotgroup.ProjectionSheetMeasurementCommand&#45;&gt;topo.plotting.plotgroup.UnitMeasurementCommand</title>
<path fill="none" stroke="black" stroke-width="0.5" d="M822.118,-48C839.348,-48 856.765,-48 873.698,-48"/>
<polygon fill="black" stroke="black" points="873.936,-49.7501 878.936,-48 873.936,-46.2501 873.936,-49.7501"/>
</g>
<!-- topo.command.analysis.update_projectionactivity -->
<g id="node38" class="node"><title>topo.command.analysis.update_projectionactivity</title>
<polygon fill="none" stroke="black" stroke-width="0.5" points="1139,-20.5 885,-20.5 885,0.5 1139,0.5 1139,-20.5"/>
<text text-anchor="middle" x="1012" y="-7.5" font-family="Vera" font-size="10.00">topo.command.analysis.update_projectionactivity</text>
</g>
<!-- topo.plotting.plotgroup.ProjectionSheetMeasurementCommand&#45;&gt;topo.command.analysis.update_projectionactivity -->
<g id="edge34" class="edge"><title>topo.plotting.plotgroup.ProjectionSheetMeasurementCommand&#45;&gt;topo.command.analysis.update_projectionactivity</title>
<path fill="none" stroke="black" stroke-width="0.5" d="M753.68,-37.9662C803.164,-32.609 864.045,-26.0179 914.273,-20.5801"/>
<polygon fill="black" stroke="black" points="914.627,-22.3021 919.409,-20.024 914.25,-18.8225 914.627,-22.3021"/>
</g>
</g>
</svg>
