<?xml version="1.0" encoding="UTF-8" standalone="no"?>
<!DOCTYPE svg PUBLIC "-//W3C//DTD SVG 1.1//EN"
 "http://www.w3.org/Graphics/SVG/1.1/DTD/svg11.dtd">
<!-- Generated by graphviz version 2.26.3 (20100126.1600)
 -->
<!-- Title: inheritance0509d66467 Pages: 1 -->
<svg width="1108pt" height="332pt"
 viewBox="0.00 0.00 1108.00 332.00" xmlns="http://www.w3.org/2000/svg" xmlns:xlink="http://www.w3.org/1999/xlink">
<g id="graph1" class="graph" transform="scale(1 1) rotate(0) translate(4 328)">
<title>inheritance0509d66467</title>
<polygon fill="white" stroke="white" points="-4,5 -4,-328 1105,-328 1105,5 -4,5"/>
<!-- topo.transferfn.NakaRushton -->
<g id="node1" class="node"><title>topo.transferfn.NakaRushton</title>
<polygon fill="none" stroke="black" stroke-width="0.5" points="594,-324.5 440,-324.5 440,-303.5 594,-303.5 594,-324.5"/>
<text text-anchor="middle" x="517" y="-311.5" font-family="Vera" font-size="10.00">topo.transferfn.NakaRushton</text>
</g>
<!-- imagen.transferfn.TransferFn -->
<g id="node2" class="node"><title>imagen.transferfn.TransferFn</title>
<polygon fill="none" stroke="black" stroke-width="0.5" points="384,-172.5 230,-172.5 230,-151.5 384,-151.5 384,-172.5"/>
<text text-anchor="middle" x="307" y="-159.5" font-family="Vera" font-size="10.00">imagen.transferfn.TransferFn</text>
</g>
<!-- imagen.transferfn.TransferFn&#45;&gt;topo.transferfn.NakaRushton -->
<g id="edge2" class="edge"><title>imagen.transferfn.TransferFn&#45;&gt;topo.transferfn.NakaRushton</title>
<path fill="none" stroke="black" stroke-width="0.5" d="M312.492,-172.366C326.578,-197.85 366.669,-263.754 420,-295 424.648,-297.723 429.614,-300.064 434.751,-302.076"/>
<polygon fill="black" stroke="black" points="434.216,-303.743 439.513,-303.832 435.427,-300.46 434.216,-303.743"/>
</g>
<!-- topo.transferfn.PiecewiseLinear -->
<g id="node5" class="node"><title>topo.transferfn.PiecewiseLinear</title>
<polygon fill="none" stroke="black" stroke-width="0.5" points="600,-286.5 434,-286.5 434,-265.5 600,-265.5 600,-286.5"/>
<text text-anchor="middle" x="517" y="-273.5" font-family="Vera" font-size="10.00">topo.transferfn.PiecewiseLinear</text>
</g>
<!-- imagen.transferfn.TransferFn&#45;&gt;topo.transferfn.PiecewiseLinear -->
<g id="edge4" class="edge"><title>imagen.transferfn.TransferFn&#45;&gt;topo.transferfn.PiecewiseLinear</title>
<path fill="none" stroke="black" stroke-width="0.5" d="M315.781,-172.242C333.381,-192.049 375.147,-235.541 420,-257 426.044,-259.892 432.502,-262.344 439.105,-264.422"/>
<polygon fill="black" stroke="black" points="438.887,-266.183 444.179,-265.94 439.89,-262.83 438.887,-266.183"/>
</g>
<!-- topo.transferfn.TransferFnWithState -->
<g id="node8" class="node"><title>topo.transferfn.TransferFnWithState</title>
<polygon fill="none" stroke="black" stroke-width="0.5" points="610,-248.5 424,-248.5 424,-227.5 610,-227.5 610,-248.5"/>
<text text-anchor="middle" x="517" y="-235.5" font-family="Vera" font-size="10.00">topo.transferfn.TransferFnWithState</text>
</g>
<!-- imagen.transferfn.TransferFn&#45;&gt;topo.transferfn.TransferFnWithState -->
<g id="edge30" class="edge"><title>imagen.transferfn.TransferFn&#45;&gt;topo.transferfn.TransferFnWithState</title>
<path fill="none" stroke="black" stroke-width="0.5" d="M323.593,-172.202C345.079,-184.975 384.042,-206.671 420,-219 428.847,-222.033 438.323,-224.636 447.76,-226.854"/>
<polygon fill="black" stroke="black" points="447.423,-228.573 452.688,-227.98 448.203,-225.16 447.423,-228.573"/>
</g>
<!-- topo.transferfn.Square -->
<g id="node13" class="node"><title>topo.transferfn.Square</title>
<polygon fill="none" stroke="black" stroke-width="0.5" points="579,-210.5 455,-210.5 455,-189.5 579,-189.5 579,-210.5"/>
<text text-anchor="middle" x="517" y="-197.5" font-family="Vera" font-size="10.00">topo.transferfn.Square</text>
</g>
<!-- imagen.transferfn.TransferFn&#45;&gt;topo.transferfn.Square -->
<g id="edge10" class="edge"><title>imagen.transferfn.TransferFn&#45;&gt;topo.transferfn.Square</title>
<path fill="none" stroke="black" stroke-width="0.5" d="M362.45,-172.034C391.397,-177.272 426.865,-183.69 456.518,-189.056"/>
<polygon fill="black" stroke="black" points="456.372,-190.808 461.604,-189.976 456.995,-187.364 456.372,-190.808"/>
</g>
<!-- topo.transferfn.Sigmoid -->
<g id="node15" class="node"><title>topo.transferfn.Sigmoid</title>
<polygon fill="none" stroke="black" stroke-width="0.5" points="582,-172.5 452,-172.5 452,-151.5 582,-151.5 582,-172.5"/>
<text text-anchor="middle" x="517" y="-159.5" font-family="Vera" font-size="10.00">topo.transferfn.Sigmoid</text>
</g>
<!-- imagen.transferfn.TransferFn&#45;&gt;topo.transferfn.Sigmoid -->
<g id="edge12" class="edge"><title>imagen.transferfn.TransferFn&#45;&gt;topo.transferfn.Sigmoid</title>
<path fill="none" stroke="black" stroke-width="0.5" d="M384.004,-162C404.507,-162 426.547,-162 446.673,-162"/>
<polygon fill="black" stroke="black" points="446.746,-163.75 451.746,-162 446.746,-160.25 446.746,-163.75"/>
</g>
<!-- topo.transferfn.HalfRectifyAndSquare -->
<g id="node22" class="node"><title>topo.transferfn.HalfRectifyAndSquare</title>
<polygon fill="none" stroke="black" stroke-width="0.5" points="614,-134.5 420,-134.5 420,-113.5 614,-113.5 614,-134.5"/>
<text text-anchor="middle" x="517" y="-121.5" font-family="Vera" font-size="10.00">topo.transferfn.HalfRectifyAndSquare</text>
</g>
<!-- imagen.transferfn.TransferFn&#45;&gt;topo.transferfn.HalfRectifyAndSquare -->
<g id="edge20" class="edge"><title>imagen.transferfn.TransferFn&#45;&gt;topo.transferfn.HalfRectifyAndSquare</title>
<path fill="none" stroke="black" stroke-width="0.5" d="M362.45,-151.966C391.397,-146.728 426.865,-140.31 456.518,-134.944"/>
<polygon fill="black" stroke="black" points="456.995,-136.636 461.604,-134.024 456.372,-133.192 456.995,-136.636"/>
</g>
<!-- topo.transferfn.GeneralizedLogistic -->
<g id="node24" class="node"><title>topo.transferfn.GeneralizedLogistic</title>
<polygon fill="none" stroke="black" stroke-width="0.5" points="609,-96.5 425,-96.5 425,-75.5 609,-75.5 609,-96.5"/>
<text text-anchor="middle" x="517" y="-83.5" font-family="Vera" font-size="10.00">topo.transferfn.GeneralizedLogistic</text>
</g>
<!-- imagen.transferfn.TransferFn&#45;&gt;topo.transferfn.GeneralizedLogistic -->
<g id="edge22" class="edge"><title>imagen.transferfn.TransferFn&#45;&gt;topo.transferfn.GeneralizedLogistic</title>
<path fill="none" stroke="black" stroke-width="0.5" d="M323.593,-151.798C345.079,-139.025 384.042,-117.329 420,-105 428.847,-101.967 438.323,-99.3639 447.76,-97.1456"/>
<polygon fill="black" stroke="black" points="448.203,-98.8396 452.688,-96.0204 447.423,-95.4274 448.203,-98.8396"/>
</g>
<!-- topo.transferfn.ExpLinear -->
<g id="node26" class="node"><title>topo.transferfn.ExpLinear</title>
<polygon fill="none" stroke="black" stroke-width="0.5" points="585,-58.5 449,-58.5 449,-37.5 585,-37.5 585,-58.5"/>
<text text-anchor="middle" x="517" y="-45.5" font-family="Vera" font-size="10.00">topo.transferfn.ExpLinear</text>
</g>
<!-- imagen.transferfn.TransferFn&#45;&gt;topo.transferfn.ExpLinear -->
<g id="edge24" class="edge"><title>imagen.transferfn.TransferFn&#45;&gt;topo.transferfn.ExpLinear</title>
<path fill="none" stroke="black" stroke-width="0.5" d="M315.781,-151.758C333.381,-131.951 375.147,-88.4593 420,-67 427.307,-63.5041 435.217,-60.6514 443.26,-58.3235"/>
<polygon fill="black" stroke="black" points="443.924,-59.9557 448.28,-56.9409 442.995,-56.5814 443.924,-59.9557"/>
</g>
<!-- topo.transferfn.HalfRectifyAndPower -->
<g id="node28" class="node"><title>topo.transferfn.HalfRectifyAndPower</title>
<polygon fill="none" stroke="black" stroke-width="0.5" points="611,-20.5 423,-20.5 423,0.5 611,0.5 611,-20.5"/>
<text text-anchor="middle" x="517" y="-7.5" font-family="Vera" font-size="10.00">topo.transferfn.HalfRectifyAndPower</text>
</g>
<!-- imagen.transferfn.TransferFn&#45;&gt;topo.transferfn.HalfRectifyAndPower -->
<g id="edge26" class="edge"><title>imagen.transferfn.TransferFn&#45;&gt;topo.transferfn.HalfRectifyAndPower</title>
<path fill="none" stroke="black" stroke-width="0.5" d="M312.492,-151.634C326.578,-126.15 366.669,-60.2456 420,-29 424.648,-26.277 429.614,-23.936 434.751,-21.9245"/>
<polygon fill="black" stroke="black" points="435.427,-23.5404 439.513,-20.1682 434.216,-20.2567 435.427,-23.5404"/>
</g>
<!-- param.parameterized.Parameterized -->
<g id="node4" class="node"><title>param.parameterized.Parameterized</title>
<polygon fill="none" stroke="black" stroke-width="0.5" points="194,-172.5 5.68434e-14,-172.5 0,-151.5 194,-151.5 194,-172.5"/>
<text text-anchor="middle" x="97" y="-159.5" font-family="Vera" font-size="10.00">param.parameterized.Parameterized</text>
</g>
<!-- param.parameterized.Parameterized&#45;&gt;imagen.transferfn.TransferFn -->
<g id="edge32" class="edge"><title>param.parameterized.Parameterized&#45;&gt;imagen.transferfn.TransferFn</title>
<path fill="none" stroke="black" stroke-width="0.5" d="M194.009,-162C204.259,-162 214.611,-162 224.671,-162"/>
<polygon fill="black" stroke="black" points="224.903,-163.75 229.903,-162 224.903,-160.25 224.903,-163.75"/>
</g>
<!-- topo.transferfn.ActivityAveragingTF -->
<g id="node7" class="node"><title>topo.transferfn.ActivityAveragingTF</title>
<polygon fill="none" stroke="black" stroke-width="0.5" points="854,-305.5 672,-305.5 672,-284.5 854,-284.5 854,-305.5"/>
<text text-anchor="middle" x="763" y="-292.5" font-family="Vera" font-size="10.00">topo.transferfn.ActivityAveragingTF</text>
</g>
<!-- topo.transferfn.TransferFnWithState&#45;&gt;topo.transferfn.ActivityAveragingTF -->
<g id="edge6" class="edge"><title>topo.transferfn.TransferFnWithState&#45;&gt;topo.transferfn.ActivityAveragingTF</title>
<path fill="none" stroke="black" stroke-width="0.5" d="M582.145,-248.033C592.93,-250.468 603.887,-253.428 614,-257 631.059,-263.025 632.862,-270.204 650,-276 659.147,-279.093 668.888,-281.697 678.669,-283.885"/>
<polygon fill="black" stroke="black" points="678.527,-285.644 683.784,-284.991 679.267,-282.224 678.527,-285.644"/>
</g>
<!-- topo.transferfn.TransferFnWithRandomState -->
<g id="node11" class="node"><title>topo.transferfn.TransferFnWithRandomState</title>
<polygon fill="none" stroke="black" stroke-width="0.5" points="876,-267.5 650,-267.5 650,-246.5 876,-246.5 876,-267.5"/>
<text text-anchor="middle" x="763" y="-254.5" font-family="Vera" font-size="10.00">topo.transferfn.TransferFnWithRandomState</text>
</g>
<!-- topo.transferfn.TransferFnWithState&#45;&gt;topo.transferfn.TransferFnWithRandomState -->
<g id="edge14" class="edge"><title>topo.transferfn.TransferFnWithState&#45;&gt;topo.transferfn.TransferFnWithRandomState</title>
<path fill="none" stroke="black" stroke-width="0.5" d="M610.002,-245.183C621.431,-246.066 633.228,-246.977 644.965,-247.883"/>
<polygon fill="black" stroke="black" points="644.87,-249.631 649.99,-248.272 645.14,-246.142 644.87,-249.631"/>
</g>
<!-- topo.transferfn.Hysteresis -->
<g id="node18" class="node"><title>topo.transferfn.Hysteresis</title>
<polygon fill="none" stroke="black" stroke-width="0.5" points="833,-229.5 693,-229.5 693,-208.5 833,-208.5 833,-229.5"/>
<text text-anchor="middle" x="763" y="-216.5" font-family="Vera" font-size="10.00">topo.transferfn.Hysteresis</text>
</g>
<!-- topo.transferfn.TransferFnWithState&#45;&gt;topo.transferfn.Hysteresis -->
<g id="edge16" class="edge"><title>topo.transferfn.TransferFnWithState&#45;&gt;topo.transferfn.Hysteresis</title>
<path fill="none" stroke="black" stroke-width="0.5" d="M610.002,-230.817C635.534,-228.845 662.903,-226.731 687.332,-224.844"/>
<polygon fill="black" stroke="black" points="687.648,-226.575 692.499,-224.445 687.379,-223.086 687.648,-226.575"/>
</g>
<!-- topo.transferfn.ScalingTF -->
<g id="node20" class="node"><title>topo.transferfn.ScalingTF</title>
<polygon fill="none" stroke="black" stroke-width="0.5" points="831,-191.5 695,-191.5 695,-170.5 831,-170.5 831,-191.5"/>
<text text-anchor="middle" x="763" y="-178.5" font-family="Vera" font-size="10.00">topo.transferfn.ScalingTF</text>
</g>
<!-- topo.transferfn.TransferFnWithState&#45;&gt;topo.transferfn.ScalingTF -->
<g id="edge18" class="edge"><title>topo.transferfn.TransferFnWithState&#45;&gt;topo.transferfn.ScalingTF</title>
<path fill="none" stroke="black" stroke-width="0.5" d="M582.145,-227.967C592.93,-225.532 603.887,-222.572 614,-219 631.059,-212.975 632.862,-205.796 650,-200 662.672,-195.715 676.483,-192.37 689.961,-189.767"/>
<polygon fill="black" stroke="black" points="690.315,-191.481 694.908,-188.841 689.672,-188.041 690.315,-191.481"/>
</g>
<!-- topo.transferfn.HomeostaticMaxEnt -->
<g id="node10" class="node"><title>topo.transferfn.HomeostaticMaxEnt</title>
<polygon fill="none" stroke="black" stroke-width="0.5" points="1100,-286.5 912,-286.5 912,-265.5 1100,-265.5 1100,-286.5"/>
<text text-anchor="middle" x="1006" y="-273.5" font-family="Vera" font-size="10.00">topo.transferfn.HomeostaticMaxEnt</text>
</g>
<!-- topo.transferfn.TransferFnWithRandomState&#45;&gt;topo.transferfn.HomeostaticMaxEnt -->
<g id="edge8" class="edge"><title>topo.transferfn.TransferFnWithRandomState&#45;&gt;topo.transferfn.HomeostaticMaxEnt</title>
<path fill="none" stroke="black" stroke-width="0.5" d="M876.318,-265.86C886.434,-266.651 896.625,-267.448 906.61,-268.229"/>
<polygon fill="black" stroke="black" points="906.69,-269.99 911.811,-268.635 906.962,-266.501 906.69,-269.99"/>
</g>
<!-- topo.transferfn.PoissonSample -->
<g id="node30" class="node"><title>topo.transferfn.PoissonSample</title>
<polygon fill="none" stroke="black" stroke-width="0.5" points="1088,-248.5 924,-248.5 924,-227.5 1088,-227.5 1088,-248.5"/>
<text text-anchor="middle" x="1006" y="-235.5" font-family="Vera" font-size="10.00">topo.transferfn.PoissonSample</text>
</g>
<!-- topo.transferfn.TransferFnWithRandomState&#45;&gt;topo.transferfn.PoissonSample -->
<g id="edge28" class="edge"><title>topo.transferfn.TransferFnWithRandomState&#45;&gt;topo.transferfn.PoissonSample</title>
<path fill="none" stroke="black" stroke-width="0.5" d="M876.318,-248.14C890.534,-247.028 904.9,-245.905 918.632,-244.831"/>
<polygon fill="black" stroke="black" points="918.813,-246.572 923.662,-244.438 918.541,-243.083 918.813,-246.572"/>
</g>
</g>
</svg>
