<?xml version="1.0" encoding="UTF-8" standalone="no"?>
<!DOCTYPE svg PUBLIC "-//W3C//DTD SVG 1.1//EN"
 "http://www.w3.org/Graphics/SVG/1.1/DTD/svg11.dtd">
<!-- Generated by graphviz version 2.26.3 (20100126.1600)
 -->
<!-- Title: inheritancefc96a479df Pages: 1 -->
<svg width="768pt" height="332pt"
 viewBox="0.00 0.00 768.00 332.00" xmlns="http://www.w3.org/2000/svg" xmlns:xlink="http://www.w3.org/1999/xlink">
<g id="graph1" class="graph" transform="scale(1 1) rotate(0) translate(4 328)">
<title>inheritancefc96a479df</title>
<polygon fill="white" stroke="white" points="-4,5 -4,-328 765,-328 765,5 -4,5"/>
<!-- lancet.core.StaticArgs -->
<g id="node1" class="node"><title>lancet.core.StaticArgs</title>
<polygon fill="none" stroke="black" stroke-width="0.5" points="515,-172 403,-172 403,-152 515,-152 515,-172"/>
<text text-anchor="middle" x="459" y="-159" font-family="Vera" font-size="10.00">lancet.core.StaticArgs</text>
</g>
<!-- lancet.core.Args -->
<g id="node4" class="node"><title>lancet.core.Args</title>
<polygon fill="none" stroke="black" stroke-width="0.5" points="718,-324 630,-324 630,-304 718,-304 718,-324"/>
<text text-anchor="middle" x="674" y="-311" font-family="Vera" font-size="10.00">lancet.core.Args</text>
</g>
<!-- lancet.core.StaticArgs&#45;&gt;lancet.core.Args -->
<g id="edge4" class="edge"><title>lancet.core.StaticArgs&#45;&gt;lancet.core.Args</title>
<path fill="none" stroke="black" stroke-width="0.5" d="M465.713,-172.275C482.805,-197.552 530.699,-263.02 588,-295 599.08,-301.184 612.013,-305.355 624.434,-308.169"/>
<polygon fill="black" stroke="black" points="624.093,-309.885 629.348,-309.219 624.824,-306.463 624.093,-309.885"/>
</g>
<!-- lancet.core.Indexed -->
<g id="node6" class="node"><title>lancet.core.Indexed</title>
<polygon fill="none" stroke="black" stroke-width="0.5" points="727,-286 621,-286 621,-266 727,-266 727,-286"/>
<text text-anchor="middle" x="674" y="-273" font-family="Vera" font-size="10.00">lancet.core.Indexed</text>
</g>
<!-- lancet.core.StaticArgs&#45;&gt;lancet.core.Indexed -->
<g id="edge6" class="edge"><title>lancet.core.StaticArgs&#45;&gt;lancet.core.Indexed</title>
<path fill="none" stroke="black" stroke-width="0.5" d="M469.389,-172.093C490.119,-191.641 538.866,-234.698 588,-257 596.655,-260.929 606.178,-264.07 615.637,-266.574"/>
<polygon fill="black" stroke="black" points="615.296,-268.293 620.572,-267.826 616.156,-264.9 615.296,-268.293"/>
</g>
<!-- lancet.core.StaticConcatenate -->
<g id="node8" class="node"><title>lancet.core.StaticConcatenate</title>
<polygon fill="none" stroke="black" stroke-width="0.5" points="748,-248 600,-248 600,-228 748,-228 748,-248"/>
<text text-anchor="middle" x="674" y="-235" font-family="Vera" font-size="10.00">lancet.core.StaticConcatenate</text>
</g>
<!-- lancet.core.StaticArgs&#45;&gt;lancet.core.StaticConcatenate -->
<g id="edge8" class="edge"><title>lancet.core.StaticArgs&#45;&gt;lancet.core.StaticConcatenate</title>
<path fill="none" stroke="black" stroke-width="0.5" d="M478.626,-172.147C503.505,-184.661 547.981,-205.882 588,-219 596.909,-221.92 606.483,-224.531 615.893,-226.814"/>
<polygon fill="black" stroke="black" points="615.526,-228.526 620.795,-227.978 616.335,-225.12 615.526,-228.526"/>
</g>
<!-- lancet.core.ListArgs -->
<g id="node13" class="node"><title>lancet.core.ListArgs</title>
<polygon fill="none" stroke="black" stroke-width="0.5" points="726,-210 622,-210 622,-190 726,-190 726,-210"/>
<text text-anchor="middle" x="674" y="-197" font-family="Vera" font-size="10.00">lancet.core.ListArgs</text>
</g>
<!-- lancet.core.StaticArgs&#45;&gt;lancet.core.ListArgs -->
<g id="edge12" class="edge"><title>lancet.core.StaticArgs&#45;&gt;lancet.core.ListArgs</title>
<path fill="none" stroke="black" stroke-width="0.5" d="M515.77,-172.034C546.946,-177.544 585.509,-184.36 616.76,-189.883"/>
<polygon fill="black" stroke="black" points="616.482,-191.611 621.71,-190.758 617.091,-188.164 616.482,-191.611"/>
</g>
<!-- lancet.core.FilePattern -->
<g id="node15" class="node"><title>lancet.core.FilePattern</title>
<polygon fill="none" stroke="black" stroke-width="0.5" points="732,-172 616,-172 616,-152 732,-152 732,-172"/>
<text text-anchor="middle" x="674" y="-159" font-family="Vera" font-size="10.00">lancet.core.FilePattern</text>
</g>
<!-- lancet.core.StaticArgs&#45;&gt;lancet.core.FilePattern -->
<g id="edge14" class="edge"><title>lancet.core.StaticArgs&#45;&gt;lancet.core.FilePattern</title>
<path fill="none" stroke="black" stroke-width="0.5" d="M515.77,-162C544.819,-162 580.28,-162 610.264,-162"/>
<polygon fill="black" stroke="black" points="610.411,-163.75 615.411,-162 610.411,-160.25 610.411,-163.75"/>
</g>
<!-- lancet.core.LexSorted -->
<g id="node17" class="node"><title>lancet.core.LexSorted</title>
<polygon fill="none" stroke="black" stroke-width="0.5" points="731,-134 617,-134 617,-114 731,-114 731,-134"/>
<text text-anchor="middle" x="674" y="-121" font-family="Vera" font-size="10.00">lancet.core.LexSorted</text>
</g>
<!-- lancet.core.StaticArgs&#45;&gt;lancet.core.LexSorted -->
<g id="edge16" class="edge"><title>lancet.core.StaticArgs&#45;&gt;lancet.core.LexSorted</title>
<path fill="none" stroke="black" stroke-width="0.5" d="M515.77,-151.966C545.407,-146.728 581.719,-140.31 612.078,-134.944"/>
<polygon fill="black" stroke="black" points="612.666,-136.618 617.285,-134.024 612.057,-133.171 612.666,-136.618"/>
</g>
<!-- lancet.core.LinearArgs -->
<g id="node19" class="node"><title>lancet.core.LinearArgs</title>
<polygon fill="none" stroke="black" stroke-width="0.5" points="732,-96 616,-96 616,-76 732,-76 732,-96"/>
<text text-anchor="middle" x="674" y="-83" font-family="Vera" font-size="10.00">lancet.core.LinearArgs</text>
</g>
<!-- lancet.core.StaticArgs&#45;&gt;lancet.core.LinearArgs -->
<g id="edge18" class="edge"><title>lancet.core.StaticArgs&#45;&gt;lancet.core.LinearArgs</title>
<path fill="none" stroke="black" stroke-width="0.5" d="M515.55,-156.159C528.073,-153.335 540.907,-149.161 552,-143 572.338,-131.704 567.752,-116.457 588,-105 594.943,-101.071 602.628,-97.9549 610.464,-95.4827"/>
<polygon fill="black" stroke="black" points="611.065,-97.1297 615.357,-94.0252 610.066,-93.7754 611.065,-97.1297"/>
</g>
<!-- lancet.core.StaticCartesianProduct -->
<g id="node25" class="node"><title>lancet.core.StaticCartesianProduct</title>
<polygon fill="none" stroke="black" stroke-width="0.5" points="759,-58 589,-58 589,-38 759,-38 759,-58"/>
<text text-anchor="middle" x="674" y="-45" font-family="Vera" font-size="10.00">lancet.core.StaticCartesianProduct</text>
</g>
<!-- lancet.core.StaticArgs&#45;&gt;lancet.core.StaticCartesianProduct -->
<g id="edge24" class="edge"><title>lancet.core.StaticArgs&#45;&gt;lancet.core.StaticCartesianProduct</title>
<path fill="none" stroke="black" stroke-width="0.5" d="M515.719,-158.942C528.653,-156.041 541.625,-151.135 552,-143 581.412,-119.938 558.772,-90.2955 588,-67 591.042,-64.5757 594.328,-62.4456 597.78,-60.5752"/>
<polygon fill="black" stroke="black" points="598.888,-61.9783 602.583,-58.1823 597.328,-58.8456 598.888,-61.9783"/>
</g>
<!-- lancet.core.Log -->
<g id="node27" class="node"><title>lancet.core.Log</title>
<polygon fill="none" stroke="black" stroke-width="0.5" points="716,-20 632,-20 632,-1.06581e-14 716,-3.55271e-15 716,-20"/>
<text text-anchor="middle" x="674" y="-7" font-family="Vera" font-size="10.00">lancet.core.Log</text>
</g>
<!-- lancet.core.StaticArgs&#45;&gt;lancet.core.Log -->
<g id="edge26" class="edge"><title>lancet.core.StaticArgs&#45;&gt;lancet.core.Log</title>
<path fill="none" stroke="black" stroke-width="0.5" d="M515.572,-160.133C528.809,-157.243 541.96,-152.044 552,-143 591.479,-107.44 548.805,-64.8731 588,-29 598.448,-19.4378 612.593,-14.3078 626.393,-11.6545"/>
<polygon fill="black" stroke="black" points="626.823,-13.3565 631.455,-10.7855 626.23,-9.907 626.823,-13.3565"/>
</g>
<!-- lancet.core.BaseArgs -->
<g id="node2" class="node"><title>lancet.core.BaseArgs</title>
<polygon fill="none" stroke="black" stroke-width="0.5" points="330,-134 220,-134 220,-114 330,-114 330,-134"/>
<text text-anchor="middle" x="275" y="-121" font-family="Vera" font-size="10.00">lancet.core.BaseArgs</text>
</g>
<!-- lancet.core.BaseArgs&#45;&gt;lancet.core.StaticArgs -->
<g id="edge2" class="edge"><title>lancet.core.BaseArgs&#45;&gt;lancet.core.StaticArgs</title>
<path fill="none" stroke="black" stroke-width="0.5" d="M323.164,-134.096C336.992,-136.984 352.091,-140.127 366,-143 378.538,-145.59 392.03,-148.357 404.744,-150.956"/>
<polygon fill="black" stroke="black" points="404.512,-152.695 409.762,-151.982 405.213,-149.266 404.512,-152.695"/>
</g>
<!-- lancet.core.DynamicCartesianProduct -->
<g id="node11" class="node"><title>lancet.core.DynamicCartesianProduct</title>
<polygon fill="none" stroke="black" stroke-width="0.5" points="552,-134 366,-134 366,-114 552,-114 552,-134"/>
<text text-anchor="middle" x="459" y="-121" font-family="Vera" font-size="10.00">lancet.core.DynamicCartesianProduct</text>
</g>
<!-- lancet.core.BaseArgs&#45;&gt;lancet.core.DynamicCartesianProduct -->
<g id="edge10" class="edge"><title>lancet.core.BaseArgs&#45;&gt;lancet.core.DynamicCartesianProduct</title>
<path fill="none" stroke="black" stroke-width="0.5" d="M330.206,-124C339.94,-124 350.332,-124 360.831,-124"/>
<polygon fill="black" stroke="black" points="360.991,-125.75 365.991,-124 360.991,-122.25 360.991,-125.75"/>
</g>
<!-- lancet.core.DynamicConcatenate -->
<g id="node21" class="node"><title>lancet.core.DynamicConcatenate</title>
<polygon fill="none" stroke="black" stroke-width="0.5" points="541,-96 377,-96 377,-76 541,-76 541,-96"/>
<text text-anchor="middle" x="459" y="-83" font-family="Vera" font-size="10.00">lancet.core.DynamicConcatenate</text>
</g>
<!-- lancet.core.BaseArgs&#45;&gt;lancet.core.DynamicConcatenate -->
<g id="edge20" class="edge"><title>lancet.core.BaseArgs&#45;&gt;lancet.core.DynamicConcatenate</title>
<path fill="none" stroke="black" stroke-width="0.5" d="M323.164,-113.904C336.992,-111.016 352.091,-107.873 366,-105 378.538,-102.41 392.03,-99.6428 404.744,-97.0436"/>
<polygon fill="black" stroke="black" points="405.213,-98.734 409.762,-96.0183 404.512,-95.3048 405.213,-98.734"/>
</g>
<!-- param.parameterized.Parameterized -->
<g id="node10" class="node"><title>param.parameterized.Parameterized</title>
<polygon fill="none" stroke="black" stroke-width="0.5" points="184,-115 8.52651e-14,-115 0,-95 184,-95 184,-115"/>
<text text-anchor="middle" x="92" y="-102" font-family="Vera" font-size="10.00">param.parameterized.Parameterized</text>
</g>
<!-- param.parameterized.Parameterized&#45;&gt;lancet.core.BaseArgs -->
<g id="edge28" class="edge"><title>param.parameterized.Parameterized&#45;&gt;lancet.core.BaseArgs</title>
<path fill="none" stroke="black" stroke-width="0.5" d="M184.036,-114.556C194.496,-115.642 204.946,-116.727 214.84,-117.754"/>
<polygon fill="black" stroke="black" points="214.806,-119.51 219.96,-118.285 215.168,-116.028 214.806,-119.51"/>
</g>
<!-- lancet.core.applying -->
<g id="node23" class="node"><title>lancet.core.applying</title>
<polygon fill="none" stroke="black" stroke-width="0.5" points="329,-96 221,-96 221,-76 329,-76 329,-96"/>
<text text-anchor="middle" x="275" y="-83" font-family="Vera" font-size="10.00">lancet.core.applying</text>
</g>
<!-- param.parameterized.Parameterized&#45;&gt;lancet.core.applying -->
<g id="edge22" class="edge"><title>param.parameterized.Parameterized&#45;&gt;lancet.core.applying</title>
<path fill="none" stroke="black" stroke-width="0.5" d="M184.036,-95.4443C194.799,-94.3269 205.552,-93.2105 215.699,-92.157"/>
<polygon fill="black" stroke="black" points="216.154,-93.8692 220.947,-91.6121 215.793,-90.3879 216.154,-93.8692"/>
</g>
</g>
</svg>
