<?xml version="1.0" encoding="UTF-8" standalone="no"?>
<!DOCTYPE svg PUBLIC "-//W3C//DTD SVG 1.1//EN"
 "http://www.w3.org/Graphics/SVG/1.1/DTD/svg11.dtd">
<!-- Generated by graphviz version 2.26.3 (20100126.1600)
 -->
<!-- Title: inheritance29649dbcd3 Pages: 1 -->
<svg width="1182pt" height="180pt"
 viewBox="0.00 0.00 1182.00 180.00" xmlns="http://www.w3.org/2000/svg" xmlns:xlink="http://www.w3.org/1999/xlink">
<g id="graph1" class="graph" transform="scale(1 1) rotate(0) translate(4 176)">
<title>inheritance29649dbcd3</title>
<polygon fill="white" stroke="white" points="-4,5 -4,-176 1179,-176 1179,5 -4,5"/>
<!-- topo.tkgui.featurecurvepanel.FeatureCurvePanel -->
<g id="node1" class="node"><title>topo.tkgui.featurecurvepanel.FeatureCurvePanel</title>
<polygon fill="none" stroke="black" stroke-width="0.5" points="1174,-124 938,-124 938,-104 1174,-104 1174,-124"/>
<text text-anchor="middle" x="1056" y="-111" font-family="Vera" font-size="10.00">topo.tkgui.featurecurvepanel.FeatureCurvePanel</text>
</g>
<!-- topo.tkgui.plotgrouppanel.PlotGroupPanel -->
<g id="node2" class="node"><title>topo.tkgui.plotgrouppanel.PlotGroupPanel</title>
<polygon fill="none" stroke="black" stroke-width="0.5" points="901,-124 693,-124 693,-104 901,-104 901,-124"/>
<text text-anchor="middle" x="797" y="-111" font-family="Vera" font-size="10.00">topo.tkgui.plotgrouppanel.PlotGroupPanel</text>
</g>
<!-- topo.tkgui.plotgrouppanel.PlotGroupPanel&#45;&gt;topo.tkgui.featurecurvepanel.FeatureCurvePanel -->
<g id="edge2" class="edge"><title>topo.tkgui.plotgrouppanel.PlotGroupPanel&#45;&gt;topo.tkgui.featurecurvepanel.FeatureCurvePanel</title>
<path fill="none" stroke="black" stroke-width="0.5" d="M901.599,-114C911.854,-114 922.326,-114 932.744,-114"/>
<polygon fill="black" stroke="black" points="932.853,-115.75 937.853,-114 932.853,-112.25 932.853,-115.75"/>
</g>
<!-- Tkinter.Pack -->
<g id="node4" class="node"><title>Tkinter.Pack</title>
<polygon fill="none" stroke="black" stroke-width="0.5" points="238,-134 166,-134 166,-114 238,-114 238,-134"/>
<text text-anchor="middle" x="202" y="-121" font-family="Vera" font-size="10.00">Tkinter.Pack</text>
</g>
<!-- Tkinter.Widget -->
<g id="node5" class="node"><title>Tkinter.Widget</title>
<polygon fill="none" stroke="black" stroke-width="0.5" points="449,-96 367,-96 367,-76 449,-76 449,-96"/>
<text text-anchor="middle" x="408" y="-83" font-family="Vera" font-size="10.00">Tkinter.Widget</text>
</g>
<!-- Tkinter.Pack&#45;&gt;Tkinter.Widget -->
<g id="edge6" class="edge"><title>Tkinter.Pack&#45;&gt;Tkinter.Widget</title>
<path fill="none" stroke="black" stroke-width="0.5" d="M238.829,-117.206C272.912,-110.919 323.761,-101.539 360.809,-94.7052"/>
<polygon fill="black" stroke="black" points="361.572,-96.344 366.171,-93.716 360.937,-92.9021 361.572,-96.344"/>
</g>
<!-- Tkinter.Frame -->
<g id="node18" class="node"><title>Tkinter.Frame</title>
<polygon fill="none" stroke="black" stroke-width="0.5" points="629,-101 549,-101 549,-81 629,-81 629,-101"/>
<text text-anchor="middle" x="589" y="-88" font-family="Vera" font-size="10.00">Tkinter.Frame</text>
</g>
<!-- Tkinter.Widget&#45;&gt;Tkinter.Frame -->
<g id="edge16" class="edge"><title>Tkinter.Widget&#45;&gt;Tkinter.Frame</title>
<path fill="none" stroke="black" stroke-width="0.5" d="M449.525,-87.1471C477.429,-87.9179 514.223,-88.9343 543.013,-89.7296"/>
<polygon fill="black" stroke="black" points="543.246,-91.4866 548.292,-89.8755 543.342,-87.988 543.246,-91.4866"/>
</g>
<!-- Tkinter.BaseWidget -->
<g id="node6" class="node"><title>Tkinter.BaseWidget</title>
<polygon fill="none" stroke="black" stroke-width="0.5" points="254,-96 150,-96 150,-76 254,-76 254,-96"/>
<text text-anchor="middle" x="202" y="-83" font-family="Vera" font-size="10.00">Tkinter.BaseWidget</text>
</g>
<!-- Tkinter.BaseWidget&#45;&gt;Tkinter.Widget -->
<g id="edge4" class="edge"><title>Tkinter.BaseWidget&#45;&gt;Tkinter.Widget</title>
<path fill="none" stroke="black" stroke-width="0.5" d="M254.516,-86C287.442,-86 329.514,-86 361.28,-86"/>
<polygon fill="black" stroke="black" points="361.287,-87.7501 366.287,-86 361.287,-84.2501 361.287,-87.7501"/>
</g>
<!-- Tkinter.Place -->
<g id="node9" class="node"><title>Tkinter.Place</title>
<polygon fill="none" stroke="black" stroke-width="0.5" points="239,-58 165,-58 165,-38 239,-38 239,-58"/>
<text text-anchor="middle" x="202" y="-45" font-family="Vera" font-size="10.00">Tkinter.Place</text>
</g>
<!-- Tkinter.Place&#45;&gt;Tkinter.Widget -->
<g id="edge8" class="edge"><title>Tkinter.Place&#45;&gt;Tkinter.Widget</title>
<path fill="none" stroke="black" stroke-width="0.5" d="M239.784,-54.9698C273.882,-61.2598 324.179,-70.5379 360.89,-77.3098"/>
<polygon fill="black" stroke="black" points="360.97,-79.104 366.204,-78.2901 361.605,-75.662 360.97,-79.104"/>
</g>
<!-- Tkinter.Grid -->
<g id="node11" class="node"><title>Tkinter.Grid</title>
<polygon fill="none" stroke="black" stroke-width="0.5" points="238,-20 166,-20 166,-1.06581e-14 238,-3.55271e-15 238,-20"/>
<text text-anchor="middle" x="202" y="-7" font-family="Vera" font-size="10.00">Tkinter.Grid</text>
</g>
<!-- Tkinter.Grid&#45;&gt;Tkinter.Widget -->
<g id="edge10" class="edge"><title>Tkinter.Grid&#45;&gt;Tkinter.Widget</title>
<path fill="none" stroke="black" stroke-width="0.5" d="M238.412,-15.273C255.559,-18.3222 276.125,-22.8042 294,-29 327.768,-40.7044 364.304,-60.3284 386.674,-73.2202"/>
<polygon fill="black" stroke="black" points="386.024,-74.8662 391.227,-75.8637 387.781,-71.8395 386.024,-74.8662"/>
</g>
<!-- param.parameterized.Parameterized -->
<g id="node13" class="node"><title>param.parameterized.Parameterized</title>
<polygon fill="none" stroke="black" stroke-width="0.5" points="294,-172 110,-172 110,-152 294,-152 294,-172"/>
<text text-anchor="middle" x="202" y="-159" font-family="Vera" font-size="10.00">param.parameterized.Parameterized</text>
</g>
<!-- paramtk.TkParameterizedBase -->
<g id="node14" class="node"><title>paramtk.TkParameterizedBase</title>
<polygon fill="none" stroke="black" stroke-width="0.5" points="485,-167 331,-167 331,-147 485,-147 485,-167"/>
<text text-anchor="middle" x="408" y="-154" font-family="Vera" font-size="10.00">paramtk.TkParameterizedBase</text>
</g>
<!-- param.parameterized.Parameterized&#45;&gt;paramtk.TkParameterizedBase -->
<g id="edge12" class="edge"><title>param.parameterized.Parameterized&#45;&gt;paramtk.TkParameterizedBase</title>
<path fill="none" stroke="black" stroke-width="0.5" d="M294.155,-159.763C304.558,-159.511 315.11,-159.255 325.38,-159.005"/>
<polygon fill="black" stroke="black" points="325.442,-160.754 330.398,-158.884 325.357,-157.255 325.442,-160.754"/>
</g>
<!-- paramtk.TkParameterized -->
<g id="node16" class="node"><title>paramtk.TkParameterized</title>
<polygon fill="none" stroke="black" stroke-width="0.5" points="656,-148 522,-148 522,-128 656,-128 656,-148"/>
<text text-anchor="middle" x="589" y="-135" font-family="Vera" font-size="10.00">paramtk.TkParameterized</text>
</g>
<!-- paramtk.TkParameterizedBase&#45;&gt;paramtk.TkParameterized -->
<g id="edge14" class="edge"><title>paramtk.TkParameterizedBase&#45;&gt;paramtk.TkParameterized</title>
<path fill="none" stroke="black" stroke-width="0.5" d="M485.548,-148.86C495.938,-147.769 506.56,-146.654 516.851,-145.574"/>
<polygon fill="black" stroke="black" points="517.085,-147.309 521.875,-145.046 516.719,-143.828 517.085,-147.309"/>
</g>
<!-- paramtk.TkParameterized&#45;&gt;topo.tkgui.plotgrouppanel.PlotGroupPanel -->
<g id="edge18" class="edge"><title>paramtk.TkParameterized&#45;&gt;topo.tkgui.plotgrouppanel.PlotGroupPanel</title>
<path fill="none" stroke="black" stroke-width="0.5" d="M656.244,-130.241C671.841,-128.441 688.704,-126.496 705.155,-124.598"/>
<polygon fill="black" stroke="black" points="705.479,-126.322 710.245,-124.01 705.078,-122.845 705.479,-126.322"/>
</g>
<!-- Tkinter.Frame&#45;&gt;topo.tkgui.plotgrouppanel.PlotGroupPanel -->
<g id="edge20" class="edge"><title>Tkinter.Frame&#45;&gt;topo.tkgui.plotgrouppanel.PlotGroupPanel</title>
<path fill="none" stroke="black" stroke-width="0.5" d="M629.598,-95.4892C650.103,-97.7566 675.925,-100.612 701.109,-103.397"/>
<polygon fill="black" stroke="black" points="700.974,-105.142 706.136,-103.953 701.358,-101.663 700.974,-105.142"/>
</g>
<!-- Tkinter.Misc -->
<g id="node20" class="node"><title>Tkinter.Misc</title>
<polygon fill="none" stroke="black" stroke-width="0.5" points="73,-96 1,-96 1,-76 73,-76 73,-96"/>
<text text-anchor="middle" x="37" y="-83" font-family="Vera" font-size="10.00">Tkinter.Misc</text>
</g>
<!-- Tkinter.Misc&#45;&gt;Tkinter.BaseWidget -->
<g id="edge22" class="edge"><title>Tkinter.Misc&#45;&gt;Tkinter.BaseWidget</title>
<path fill="none" stroke="black" stroke-width="0.5" d="M73.6188,-86C94.2732,-86 120.553,-86 143.949,-86"/>
<polygon fill="black" stroke="black" points="144.204,-87.7501 149.204,-86 144.204,-84.2501 144.204,-87.7501"/>
</g>
</g>
</svg>
