<?xml version="1.0" encoding="UTF-8" standalone="no"?>
<!DOCTYPE svg PUBLIC "-//W3C//DTD SVG 1.1//EN"
 "http://www.w3.org/Graphics/SVG/1.1/DTD/svg11.dtd">
<!-- Generated by graphviz version 2.26.3 (20100126.1600)
 -->
<!-- Title: inheritance814dd881d7 Pages: 1 -->
<svg width="874pt" height="170pt"
 viewBox="0.00 0.00 874.00 170.00" xmlns="http://www.w3.org/2000/svg" xmlns:xlink="http://www.w3.org/1999/xlink">
<g id="graph1" class="graph" transform="scale(1 1) rotate(0) translate(4 166)">
<title>inheritance814dd881d7</title>
<polygon fill="white" stroke="white" points="-4,5 -4,-166 871,-166 871,5 -4,5"/>
<!-- topo.base.simulation.EventProcessor -->
<g id="node1" class="node"><title>topo.base.simulation.EventProcessor</title>
<polygon fill="none" stroke="black" stroke-width="0.5" points="424,-143.5 230,-143.5 230,-122.5 424,-122.5 424,-143.5"/>
<text text-anchor="middle" x="327" y="-130.5" font-family="Vera" font-size="10.00">topo.base.simulation.EventProcessor</text>
</g>
<!-- topo.misc.trace.DataRecorder -->
<g id="node5" class="node"><title>topo.misc.trace.DataRecorder</title>
<polygon fill="none" stroke="black" stroke-width="0.5" points="633,-162.5 473,-162.5 473,-141.5 633,-141.5 633,-162.5"/>
<text text-anchor="middle" x="553" y="-149.5" font-family="Vera" font-size="10.00">topo.misc.trace.DataRecorder</text>
</g>
<!-- topo.base.simulation.EventProcessor&#45;&gt;topo.misc.trace.DataRecorder -->
<g id="edge16" class="edge"><title>topo.base.simulation.EventProcessor&#45;&gt;topo.misc.trace.DataRecorder</title>
<path fill="none" stroke="black" stroke-width="0.5" d="M424.156,-141.168C438.647,-142.386 453.492,-143.634 467.714,-144.83"/>
<polygon fill="black" stroke="black" points="467.794,-146.593 472.923,-145.268 468.087,-143.105 467.794,-146.593"/>
</g>
<!-- param.parameterized.Parameterized -->
<g id="node2" class="node"><title>param.parameterized.Parameterized</title>
<polygon fill="none" stroke="black" stroke-width="0.5" points="194,-77.5 5.68434e-14,-77.5 0,-56.5 194,-56.5 194,-77.5"/>
<text text-anchor="middle" x="97" y="-64.5" font-family="Vera" font-size="10.00">param.parameterized.Parameterized</text>
</g>
<!-- param.parameterized.Parameterized&#45;&gt;topo.base.simulation.EventProcessor -->
<g id="edge2" class="edge"><title>param.parameterized.Parameterized&#45;&gt;topo.base.simulation.EventProcessor</title>
<path fill="none" stroke="black" stroke-width="0.5" d="M131.932,-77.024C173.678,-89.0034 243.371,-109.002 287.171,-121.571"/>
<polygon fill="black" stroke="black" points="286.828,-123.293 292.117,-122.99 287.793,-119.929 286.828,-123.293"/>
</g>
<!-- topo.misc.trace.Trace -->
<g id="node7" class="node"><title>topo.misc.trace.Trace</title>
<polygon fill="none" stroke="black" stroke-width="0.5" points="386,-96.5 268,-96.5 268,-75.5 386,-75.5 386,-96.5"/>
<text text-anchor="middle" x="327" y="-83.5" font-family="Vera" font-size="10.00">topo.misc.trace.Trace</text>
</g>
<!-- param.parameterized.Parameterized&#45;&gt;topo.misc.trace.Trace -->
<g id="edge6" class="edge"><title>param.parameterized.Parameterized&#45;&gt;topo.misc.trace.Trace</title>
<path fill="none" stroke="black" stroke-width="0.5" d="M194.207,-75.0302C217.248,-76.9336 241.266,-78.9176 262.439,-80.6667"/>
<polygon fill="black" stroke="black" points="262.347,-82.415 267.474,-81.0827 262.635,-78.9269 262.347,-82.415"/>
</g>
<!-- topo.misc.trace.TraceGroup -->
<g id="node9" class="node"><title>topo.misc.trace.TraceGroup</title>
<polygon fill="none" stroke="black" stroke-width="0.5" points="401,-58.5 253,-58.5 253,-37.5 401,-37.5 401,-58.5"/>
<text text-anchor="middle" x="327" y="-45.5" font-family="Vera" font-size="10.00">topo.misc.trace.TraceGroup</text>
</g>
<!-- param.parameterized.Parameterized&#45;&gt;topo.misc.trace.TraceGroup -->
<g id="edge8" class="edge"><title>param.parameterized.Parameterized&#45;&gt;topo.misc.trace.TraceGroup</title>
<path fill="none" stroke="black" stroke-width="0.5" d="M194.207,-58.9698C211.874,-57.5104 230.114,-56.0036 247.206,-54.5917"/>
<polygon fill="black" stroke="black" points="247.632,-56.3125 252.471,-54.1567 247.344,-52.8244 247.632,-56.3125"/>
</g>
<!-- topo.misc.trace.ActivityMovie -->
<g id="node13" class="node"><title>topo.misc.trace.ActivityMovie</title>
<polygon fill="none" stroke="black" stroke-width="0.5" points="405,-20.5 249,-20.5 249,0.5 405,0.5 405,-20.5"/>
<text text-anchor="middle" x="327" y="-7.5" font-family="Vera" font-size="10.00">topo.misc.trace.ActivityMovie</text>
</g>
<!-- param.parameterized.Parameterized&#45;&gt;topo.misc.trace.ActivityMovie -->
<g id="edge12" class="edge"><title>param.parameterized.Parameterized&#45;&gt;topo.misc.trace.ActivityMovie</title>
<path fill="none" stroke="black" stroke-width="0.5" d="M129.318,-56.9338C156.126,-48.7854 195.326,-37.3334 230,-29 241.68,-26.193 254.224,-23.5004 266.288,-21.0696"/>
<polygon fill="black" stroke="black" points="266.864,-22.7393 271.425,-20.0443 266.179,-19.307 266.864,-22.7393"/>
</g>
<!-- topo.misc.trace.InMemoryRecorder -->
<g id="node4" class="node"><title>topo.misc.trace.InMemoryRecorder</title>
<polygon fill="none" stroke="black" stroke-width="0.5" points="866,-162.5 682,-162.5 682,-141.5 866,-141.5 866,-162.5"/>
<text text-anchor="middle" x="774" y="-149.5" font-family="Vera" font-size="10.00">topo.misc.trace.InMemoryRecorder</text>
</g>
<!-- topo.misc.trace.DataRecorder&#45;&gt;topo.misc.trace.InMemoryRecorder -->
<g id="edge4" class="edge"><title>topo.misc.trace.DataRecorder&#45;&gt;topo.misc.trace.InMemoryRecorder</title>
<path fill="none" stroke="black" stroke-width="0.5" d="M633.099,-152C647.181,-152 661.977,-152 676.472,-152"/>
<polygon fill="black" stroke="black" points="676.797,-153.75 681.796,-152 676.796,-150.25 676.797,-153.75"/>
</g>
<!-- topo.misc.trace.IndexTrace -->
<g id="node11" class="node"><title>topo.misc.trace.IndexTrace</title>
<polygon fill="none" stroke="black" stroke-width="0.5" points="625,-124.5 481,-124.5 481,-103.5 625,-103.5 625,-124.5"/>
<text text-anchor="middle" x="553" y="-111.5" font-family="Vera" font-size="10.00">topo.misc.trace.IndexTrace</text>
</g>
<!-- topo.misc.trace.Trace&#45;&gt;topo.misc.trace.IndexTrace -->
<g id="edge10" class="edge"><title>topo.misc.trace.Trace&#45;&gt;topo.misc.trace.IndexTrace</title>
<path fill="none" stroke="black" stroke-width="0.5" d="M386.674,-93.3933C413.872,-96.7629 446.417,-100.795 475.477,-104.395"/>
<polygon fill="black" stroke="black" points="475.307,-106.138 480.484,-105.016 475.737,-102.664 475.307,-106.138"/>
</g>
<!-- topo.misc.trace.IdentityTrace -->
<g id="node15" class="node"><title>topo.misc.trace.IdentityTrace</title>
<polygon fill="none" stroke="black" stroke-width="0.5" points="630,-86.5 476,-86.5 476,-65.5 630,-65.5 630,-86.5"/>
<text text-anchor="middle" x="553" y="-73.5" font-family="Vera" font-size="10.00">topo.misc.trace.IdentityTrace</text>
</g>
<!-- topo.misc.trace.Trace&#45;&gt;topo.misc.trace.IdentityTrace -->
<g id="edge14" class="edge"><title>topo.misc.trace.Trace&#45;&gt;topo.misc.trace.IdentityTrace</title>
<path fill="none" stroke="black" stroke-width="0.5" d="M386.674,-83.3595C412.282,-82.2265 442.63,-80.8836 470.347,-79.6572"/>
<polygon fill="black" stroke="black" points="470.573,-81.399 475.49,-79.4296 470.418,-77.9025 470.573,-81.399"/>
</g>
<!-- topo.misc.trace.SheetPositionTrace -->
<g id="node18" class="node"><title>topo.misc.trace.SheetPositionTrace</title>
<polygon fill="none" stroke="black" stroke-width="0.5" points="645,-48.5 461,-48.5 461,-27.5 645,-27.5 645,-48.5"/>
<text text-anchor="middle" x="553" y="-35.5" font-family="Vera" font-size="10.00">topo.misc.trace.SheetPositionTrace</text>
</g>
<!-- topo.misc.trace.Trace&#45;&gt;topo.misc.trace.SheetPositionTrace -->
<g id="edge18" class="edge"><title>topo.misc.trace.Trace&#45;&gt;topo.misc.trace.SheetPositionTrace</title>
<path fill="none" stroke="black" stroke-width="0.5" d="M382.049,-75.9866C395.795,-73.275 410.473,-70.1984 424,-67 440.16,-63.1789 443.855,-60.8865 460,-57 471.496,-54.2327 483.853,-51.524 495.686,-49.0586"/>
<polygon fill="black" stroke="black" points="496.179,-50.7437 500.721,-48.0174 495.47,-47.3162 496.179,-50.7437"/>
</g>
</g>
</svg>
