<?xml version="1.0" encoding="UTF-8" standalone="no"?>
<!DOCTYPE svg PUBLIC "-//W3C//DTD SVG 1.1//EN"
 "http://www.w3.org/Graphics/SVG/1.1/DTD/svg11.dtd">
<!-- Generated by graphviz version 2.26.3 (20100126.1600)
 -->
<!-- Title: inheritance25825c39b2 Pages: 1 -->
<svg width="1260pt" height="104pt"
 viewBox="0.00 0.00 1260.00 104.00" xmlns="http://www.w3.org/2000/svg" xmlns:xlink="http://www.w3.org/1999/xlink">
<g id="graph1" class="graph" transform="scale(1 1) rotate(0) translate(4 100)">
<title>inheritance25825c39b2</title>
<polygon fill="white" stroke="white" points="-4,5 -4,-100 1257,-100 1257,5 -4,5"/>
<!-- imagen.TimeSeries -->
<g id="node1" class="node"><title>imagen.TimeSeries</title>
<polygon fill="none" stroke="black" stroke-width="0.5" points="377,-96 275,-96 275,-76 377,-76 377,-96"/>
<text text-anchor="middle" x="326" y="-83" font-family="Vera" font-size="10.00">imagen.TimeSeries</text>
</g>
<!-- imagen.audio.AudioFile -->
<g id="node16" class="node"><title>imagen.audio.AudioFile</title>
<polygon fill="none" stroke="black" stroke-width="0.5" points="592,-96 470,-96 470,-76 592,-76 592,-96"/>
<text text-anchor="middle" x="531" y="-83" font-family="Vera" font-size="10.00">imagen.audio.AudioFile</text>
</g>
<!-- imagen.TimeSeries&#45;&gt;imagen.audio.AudioFile -->
<g id="edge14" class="edge"><title>imagen.TimeSeries&#45;&gt;imagen.audio.AudioFile</title>
<path fill="none" stroke="black" stroke-width="0.5" d="M377.201,-86C403.438,-86 435.716,-86 463.916,-86"/>
<polygon fill="black" stroke="black" points="464.132,-87.7501 469.132,-86 464.132,-84.2501 464.132,-87.7501"/>
</g>
<!-- param.parameterized.Parameterized -->
<g id="node2" class="node"><title>param.parameterized.Parameterized</title>
<polygon fill="none" stroke="black" stroke-width="0.5" points="184,-77 8.52651e-14,-77 0,-57 184,-57 184,-77"/>
<text text-anchor="middle" x="92" y="-64" font-family="Vera" font-size="10.00">param.parameterized.Parameterized</text>
</g>
<!-- param.parameterized.Parameterized&#45;&gt;imagen.TimeSeries -->
<g id="edge2" class="edge"><title>param.parameterized.Parameterized&#45;&gt;imagen.TimeSeries</title>
<path fill="none" stroke="black" stroke-width="0.5" d="M184.147,-74.482C213.043,-76.8283 244.06,-79.3467 269.698,-81.4285"/>
<polygon fill="black" stroke="black" points="269.627,-83.1784 274.752,-81.8389 269.91,-79.6899 269.627,-83.1784"/>
</g>
<!-- imagen.patterngenerator.PatternGenerator -->
<g id="node8" class="node"><title>imagen.patterngenerator.PatternGenerator</title>
<polygon fill="none" stroke="black" stroke-width="0.5" points="432,-58 220,-58 220,-38 432,-38 432,-58"/>
<text text-anchor="middle" x="326" y="-45" font-family="Vera" font-size="10.00">imagen.patterngenerator.PatternGenerator</text>
</g>
<!-- param.parameterized.Parameterized&#45;&gt;imagen.patterngenerator.PatternGenerator -->
<g id="edge20" class="edge"><title>param.parameterized.Parameterized&#45;&gt;imagen.patterngenerator.PatternGenerator</title>
<path fill="none" stroke="black" stroke-width="0.5" d="M184.147,-59.518C194.259,-58.6969 204.63,-57.8548 214.94,-57.0177"/>
<polygon fill="black" stroke="black" points="215.153,-58.7563 219.994,-56.6073 214.869,-55.2678 215.153,-58.7563"/>
</g>
<!-- imagen.audio.LogSpectrogram -->
<g id="node4" class="node"><title>imagen.audio.LogSpectrogram</title>
<polygon fill="none" stroke="black" stroke-width="0.5" points="1003,-58 849,-58 849,-38 1003,-38 1003,-58"/>
<text text-anchor="middle" x="926" y="-45" font-family="Vera" font-size="10.00">imagen.audio.LogSpectrogram</text>
</g>
<!-- imagen.audio.ModulatedLogSpectrogram -->
<g id="node10" class="node"><title>imagen.audio.ModulatedLogSpectrogram</title>
<polygon fill="none" stroke="black" stroke-width="0.5" points="1251,-58 1047,-58 1047,-38 1251,-38 1251,-58"/>
<text text-anchor="middle" x="1149" y="-45" font-family="Vera" font-size="10.00">imagen.audio.ModulatedLogSpectrogram</text>
</g>
<!-- imagen.audio.LogSpectrogram&#45;&gt;imagen.audio.ModulatedLogSpectrogram -->
<g id="edge8" class="edge"><title>imagen.audio.LogSpectrogram&#45;&gt;imagen.audio.ModulatedLogSpectrogram</title>
<path fill="none" stroke="black" stroke-width="0.5" d="M1003.68,-48C1015.89,-48 1028.69,-48 1041.43,-48"/>
<polygon fill="black" stroke="black" points="1041.49,-49.7501 1046.49,-48 1041.49,-46.2501 1041.49,-49.7501"/>
</g>
<!-- imagen.Spectrogram -->
<g id="node5" class="node"><title>imagen.Spectrogram</title>
<polygon fill="none" stroke="black" stroke-width="0.5" points="773,-58 663,-58 663,-38 773,-38 773,-58"/>
<text text-anchor="middle" x="718" y="-45" font-family="Vera" font-size="10.00">imagen.Spectrogram</text>
</g>
<!-- imagen.Spectrogram&#45;&gt;imagen.audio.LogSpectrogram -->
<g id="edge4" class="edge"><title>imagen.Spectrogram&#45;&gt;imagen.audio.LogSpectrogram</title>
<path fill="none" stroke="black" stroke-width="0.5" d="M773.74,-48C794.996,-48 819.709,-48 842.962,-48"/>
<polygon fill="black" stroke="black" points="843.211,-49.7501 848.211,-48 843.211,-46.2501 843.211,-49.7501"/>
</g>
<!-- imagen.PowerSpectrum -->
<g id="node7" class="node"><title>imagen.PowerSpectrum</title>
<polygon fill="none" stroke="black" stroke-width="0.5" points="593,-58 469,-58 469,-38 593,-38 593,-58"/>
<text text-anchor="middle" x="531" y="-45" font-family="Vera" font-size="10.00">imagen.PowerSpectrum</text>
</g>
<!-- imagen.PowerSpectrum&#45;&gt;imagen.Spectrogram -->
<g id="edge18" class="edge"><title>imagen.PowerSpectrum&#45;&gt;imagen.Spectrogram</title>
<path fill="none" stroke="black" stroke-width="0.5" d="M593.528,-48C614.083,-48 636.89,-48 657.306,-48"/>
<polygon fill="black" stroke="black" points="657.443,-49.7501 662.443,-48 657.443,-46.2501 657.443,-49.7501"/>
</g>
<!-- imagen.audio.LyonsCochlearModel -->
<g id="node12" class="node"><title>imagen.audio.LyonsCochlearModel</title>
<polygon fill="none" stroke="black" stroke-width="0.5" points="806,-20 630,-20 630,-1.06581e-14 806,-3.55271e-15 806,-20"/>
<text text-anchor="middle" x="718" y="-7" font-family="Vera" font-size="10.00">imagen.audio.LyonsCochlearModel</text>
</g>
<!-- imagen.PowerSpectrum&#45;&gt;imagen.audio.LyonsCochlearModel -->
<g id="edge10" class="edge"><title>imagen.PowerSpectrum&#45;&gt;imagen.audio.LyonsCochlearModel</title>
<path fill="none" stroke="black" stroke-width="0.5" d="M580.622,-37.9165C606.083,-32.7425 637.159,-26.4277 663.31,-21.1135"/>
<polygon fill="black" stroke="black" points="663.92,-22.7754 668.471,-20.0647 663.223,-19.3455 663.92,-22.7754"/>
</g>
<!-- imagen.patterngenerator.PatternGenerator&#45;&gt;imagen.PowerSpectrum -->
<g id="edge6" class="edge"><title>imagen.patterngenerator.PatternGenerator&#45;&gt;imagen.PowerSpectrum</title>
<path fill="none" stroke="black" stroke-width="0.5" d="M432.103,-48C442.669,-48 453.184,-48 463.197,-48"/>
<polygon fill="black" stroke="black" points="463.386,-49.7501 468.386,-48 463.386,-46.2501 463.386,-49.7501"/>
</g>
<!-- imagen.audio.LyonsCochleogram -->
<g id="node14" class="node"><title>imagen.audio.LyonsCochleogram</title>
<polygon fill="none" stroke="black" stroke-width="0.5" points="1009,-20 843,-20 843,-1.06581e-14 1009,-3.55271e-15 1009,-20"/>
<text text-anchor="middle" x="926" y="-7" font-family="Vera" font-size="10.00">imagen.audio.LyonsCochleogram</text>
</g>
<!-- imagen.audio.LyonsCochlearModel&#45;&gt;imagen.audio.LyonsCochleogram -->
<g id="edge12" class="edge"><title>imagen.audio.LyonsCochlearModel&#45;&gt;imagen.audio.LyonsCochleogram</title>
<path fill="none" stroke="black" stroke-width="0.5" d="M806.211,-10C816.487,-10 826.974,-10 837.258,-10"/>
<polygon fill="black" stroke="black" points="837.288,-11.7501 842.288,-10 837.288,-8.2501 837.288,-11.7501"/>
</g>
<!-- imagen.audio.AudioFolder -->
<g id="node18" class="node"><title>imagen.audio.AudioFolder</title>
<polygon fill="none" stroke="black" stroke-width="0.5" points="786,-96 650,-96 650,-76 786,-76 786,-96"/>
<text text-anchor="middle" x="718" y="-83" font-family="Vera" font-size="10.00">imagen.audio.AudioFolder</text>
</g>
<!-- imagen.audio.AudioFile&#45;&gt;imagen.audio.AudioFolder -->
<g id="edge16" class="edge"><title>imagen.audio.AudioFile&#45;&gt;imagen.audio.AudioFolder</title>
<path fill="none" stroke="black" stroke-width="0.5" d="M592.749,-86C609.139,-86 627.006,-86 643.977,-86"/>
<polygon fill="black" stroke="black" points="644.212,-87.7501 649.212,-86 644.212,-84.2501 644.212,-87.7501"/>
</g>
</g>
</svg>
