<?xml version="1.0" encoding="UTF-8" standalone="no"?>
<!DOCTYPE svg PUBLIC "-//W3C//DTD SVG 1.1//EN"
 "http://www.w3.org/Graphics/SVG/1.1/DTD/svg11.dtd">
<!-- Generated by graphviz version 2.26.3 (20100126.1600)
 -->
<!-- Title: inheritance10172fd8d9 Pages: 1 -->
<svg width="2632pt" height="180pt"
 viewBox="0.00 0.00 2632.00 180.00" xmlns="http://www.w3.org/2000/svg" xmlns:xlink="http://www.w3.org/1999/xlink">
<g id="graph1" class="graph" transform="scale(1 1) rotate(0) translate(4 176)">
<title>inheritance10172fd8d9</title>
<polygon fill="white" stroke="white" points="-4,5 -4,-176 2629,-176 2629,5 -4,5"/>
<!-- topo.tkgui.plotgrouppanel.PlotGroupPanel -->
<g id="node1" class="node"><title>topo.tkgui.plotgrouppanel.PlotGroupPanel</title>
<polygon fill="none" stroke="black" stroke-width="0.5" points="929,-124.5 715,-124.5 715,-103.5 929,-103.5 929,-124.5"/>
<text text-anchor="middle" x="822" y="-111.5" font-family="Vera" font-size="10.00">topo.tkgui.plotgrouppanel.PlotGroupPanel</text>
</g>
<!-- topo.tkgui.plotgrouppanel.SheetPanel -->
<g id="node34" class="node"><title>topo.tkgui.plotgrouppanel.SheetPanel</title>
<polygon fill="none" stroke="black" stroke-width="0.5" points="1163,-124.5 967,-124.5 967,-103.5 1163,-103.5 1163,-124.5"/>
<text text-anchor="middle" x="1065" y="-111.5" font-family="Vera" font-size="10.00">topo.tkgui.plotgrouppanel.SheetPanel</text>
</g>
<!-- topo.tkgui.plotgrouppanel.PlotGroupPanel&#45;&gt;topo.tkgui.plotgrouppanel.SheetPanel -->
<g id="edge38" class="edge"><title>topo.tkgui.plotgrouppanel.PlotGroupPanel&#45;&gt;topo.tkgui.plotgrouppanel.SheetPanel</title>
<path fill="none" stroke="black" stroke-width="0.5" d="M929.645,-114C940.118,-114 950.73,-114 961.165,-114"/>
<polygon fill="black" stroke="black" points="961.272,-115.75 966.272,-114 961.272,-112.25 961.272,-115.75"/>
</g>
<!-- paramtk.TkParameterized -->
<g id="node2" class="node"><title>paramtk.TkParameterized</title>
<polygon fill="none" stroke="black" stroke-width="0.5" points="678,-148.5 538,-148.5 538,-127.5 678,-127.5 678,-148.5"/>
<text text-anchor="middle" x="608" y="-135.5" font-family="Vera" font-size="10.00">paramtk.TkParameterized</text>
</g>
<!-- paramtk.TkParameterized&#45;&gt;topo.tkgui.plotgrouppanel.PlotGroupPanel -->
<g id="edge2" class="edge"><title>paramtk.TkParameterized&#45;&gt;topo.tkgui.plotgrouppanel.PlotGroupPanel</title>
<path fill="none" stroke="black" stroke-width="0.5" d="M678.072,-130.142C693.869,-128.37 710.89,-126.461 727.503,-124.598"/>
<polygon fill="black" stroke="black" points="727.871,-126.318 732.644,-124.021 727.48,-122.839 727.871,-126.318"/>
</g>
<!-- Tkinter.Frame -->
<g id="node4" class="node"><title>Tkinter.Frame</title>
<polygon fill="none" stroke="black" stroke-width="0.5" points="648,-101.5 568,-101.5 568,-80.5 648,-80.5 648,-101.5"/>
<text text-anchor="middle" x="608" y="-88.5" font-family="Vera" font-size="10.00">Tkinter.Frame</text>
</g>
<!-- Tkinter.Frame&#45;&gt;topo.tkgui.plotgrouppanel.PlotGroupPanel -->
<g id="edge4" class="edge"><title>Tkinter.Frame&#45;&gt;topo.tkgui.plotgrouppanel.PlotGroupPanel</title>
<path fill="none" stroke="black" stroke-width="0.5" d="M648.503,-95.3532C669.86,-97.6485 697.073,-100.573 723.579,-103.422"/>
<polygon fill="black" stroke="black" points="723.71,-105.196 728.868,-103.991 724.084,-101.716 723.71,-105.196"/>
</g>
<!-- paramtk.TkParameterizedBase -->
<g id="node6" class="node"><title>paramtk.TkParameterizedBase</title>
<polygon fill="none" stroke="black" stroke-width="0.5" points="502,-167.5 338,-167.5 338,-146.5 502,-146.5 502,-167.5"/>
<text text-anchor="middle" x="420" y="-154.5" font-family="Vera" font-size="10.00">paramtk.TkParameterizedBase</text>
</g>
<!-- paramtk.TkParameterizedBase&#45;&gt;paramtk.TkParameterized -->
<g id="edge6" class="edge"><title>paramtk.TkParameterizedBase&#45;&gt;paramtk.TkParameterized</title>
<path fill="none" stroke="black" stroke-width="0.5" d="M502.186,-148.694C512.283,-147.674 522.564,-146.634 532.554,-145.625"/>
<polygon fill="black" stroke="black" points="532.951,-147.344 537.749,-145.1 532.599,-143.862 532.951,-147.344"/>
</g>
<!-- topo.tkgui.projectionpanel.ConnectionFieldsPanel -->
<g id="node8" class="node"><title>topo.tkgui.projectionpanel.ConnectionFieldsPanel</title>
<polygon fill="none" stroke="black" stroke-width="0.5" points="2358,-162.5 2108,-162.5 2108,-141.5 2358,-141.5 2358,-162.5"/>
<text text-anchor="middle" x="2233" y="-149.5" font-family="Vera" font-size="10.00">topo.tkgui.projectionpanel.ConnectionFieldsPanel</text>
</g>
<!-- topo.tkgui.projectionpanel.UnitsPanel -->
<g id="node9" class="node"><title>topo.tkgui.projectionpanel.UnitsPanel</title>
<polygon fill="none" stroke="black" stroke-width="0.5" points="2043,-162.5 1849,-162.5 1849,-141.5 2043,-141.5 2043,-162.5"/>
<text text-anchor="middle" x="1946" y="-149.5" font-family="Vera" font-size="10.00">topo.tkgui.projectionpanel.UnitsPanel</text>
</g>
<!-- topo.tkgui.projectionpanel.UnitsPanel&#45;&gt;topo.tkgui.projectionpanel.ConnectionFieldsPanel -->
<g id="edge8" class="edge"><title>topo.tkgui.projectionpanel.UnitsPanel&#45;&gt;topo.tkgui.projectionpanel.ConnectionFieldsPanel</title>
<path fill="none" stroke="black" stroke-width="0.5" d="M2043.17,-152C2062.35,-152 2082.78,-152 2102.86,-152"/>
<polygon fill="black" stroke="black" points="2102.95,-153.75 2107.95,-152 2102.95,-150.25 2102.95,-153.75"/>
</g>
<!-- param.parameterized.Parameterized -->
<g id="node11" class="node"><title>param.parameterized.Parameterized</title>
<polygon fill="none" stroke="black" stroke-width="0.5" points="302,-172.5 108,-172.5 108,-151.5 302,-151.5 302,-172.5"/>
<text text-anchor="middle" x="205" y="-159.5" font-family="Vera" font-size="10.00">param.parameterized.Parameterized</text>
</g>
<!-- param.parameterized.Parameterized&#45;&gt;paramtk.TkParameterizedBase -->
<g id="edge14" class="edge"><title>param.parameterized.Parameterized&#45;&gt;paramtk.TkParameterizedBase</title>
<path fill="none" stroke="black" stroke-width="0.5" d="M302.121,-159.741C312.261,-159.506 322.525,-159.267 332.548,-159.034"/>
<polygon fill="black" stroke="black" points="332.808,-160.778 337.766,-158.912 332.726,-157.279 332.808,-160.778"/>
</g>
<!-- topo.tkgui.projectionpanel.ProjectionPanel -->
<g id="node12" class="node"><title>topo.tkgui.projectionpanel.ProjectionPanel</title>
<polygon fill="none" stroke="black" stroke-width="0.5" points="2341,-124.5 2125,-124.5 2125,-103.5 2341,-103.5 2341,-124.5"/>
<text text-anchor="middle" x="2233" y="-111.5" font-family="Vera" font-size="10.00">topo.tkgui.projectionpanel.ProjectionPanel</text>
</g>
<!-- topo.tkgui.projectionpanel.CFProjectionPanel -->
<g id="node40" class="node"><title>topo.tkgui.projectionpanel.CFProjectionPanel</title>
<polygon fill="none" stroke="black" stroke-width="0.5" points="2623,-124.5 2395,-124.5 2395,-103.5 2623,-103.5 2623,-124.5"/>
<text text-anchor="middle" x="2509" y="-111.5" font-family="Vera" font-size="10.00">topo.tkgui.projectionpanel.CFProjectionPanel</text>
</g>
<!-- topo.tkgui.projectionpanel.ProjectionPanel&#45;&gt;topo.tkgui.projectionpanel.CFProjectionPanel -->
<g id="edge40" class="edge"><title>topo.tkgui.projectionpanel.ProjectionPanel&#45;&gt;topo.tkgui.projectionpanel.CFProjectionPanel</title>
<path fill="none" stroke="black" stroke-width="0.5" d="M2341.69,-114C2357.14,-114 2373.1,-114 2388.76,-114"/>
<polygon fill="black" stroke="black" points="2389.05,-115.75 2394.05,-114 2389.05,-112.25 2389.05,-115.75"/>
</g>
<!-- topo.tkgui.projectionpanel.PlotMatrixPanel -->
<g id="node13" class="node"><title>topo.tkgui.projectionpanel.PlotMatrixPanel</title>
<polygon fill="none" stroke="black" stroke-width="0.5" points="2054,-124.5 1838,-124.5 1838,-103.5 2054,-103.5 2054,-124.5"/>
<text text-anchor="middle" x="1946" y="-111.5" font-family="Vera" font-size="10.00">topo.tkgui.projectionpanel.PlotMatrixPanel</text>
</g>
<!-- topo.tkgui.projectionpanel.PlotMatrixPanel&#45;&gt;topo.tkgui.projectionpanel.ProjectionPanel -->
<g id="edge10" class="edge"><title>topo.tkgui.projectionpanel.PlotMatrixPanel&#45;&gt;topo.tkgui.projectionpanel.ProjectionPanel</title>
<path fill="none" stroke="black" stroke-width="0.5" d="M2054.5,-114C2075.66,-114 2097.91,-114 2119.23,-114"/>
<polygon fill="black" stroke="black" points="2119.34,-115.75 2124.34,-114 2119.34,-112.25 2119.34,-115.75"/>
</g>
<!-- topo.tkgui.projectionpanel.RFProjectionPanel -->
<g id="node20" class="node"><title>topo.tkgui.projectionpanel.RFProjectionPanel</title>
<polygon fill="none" stroke="black" stroke-width="0.5" points="2347,-86.5 2119,-86.5 2119,-65.5 2347,-65.5 2347,-86.5"/>
<text text-anchor="middle" x="2233" y="-73.5" font-family="Vera" font-size="10.00">topo.tkgui.projectionpanel.RFProjectionPanel</text>
</g>
<!-- topo.tkgui.projectionpanel.PlotMatrixPanel&#45;&gt;topo.tkgui.projectionpanel.RFProjectionPanel -->
<g id="edge16" class="edge"><title>topo.tkgui.projectionpanel.PlotMatrixPanel&#45;&gt;topo.tkgui.projectionpanel.RFProjectionPanel</title>
<path fill="none" stroke="black" stroke-width="0.5" d="M2021.78,-103.966C2061.83,-98.6631 2111.02,-92.1509 2151.85,-86.7453"/>
<polygon fill="black" stroke="black" points="2152.57,-88.4153 2157.29,-86.024 2152.11,-84.9456 2152.57,-88.4153"/>
</g>
<!-- topo.tkgui.projectionpanel.ProjectionActivityPanel -->
<g id="node15" class="node"><title>topo.tkgui.projectionpanel.ProjectionActivityPanel</title>
<polygon fill="none" stroke="black" stroke-width="0.5" points="2071,-86.5 1821,-86.5 1821,-65.5 2071,-65.5 2071,-86.5"/>
<text text-anchor="middle" x="1946" y="-73.5" font-family="Vera" font-size="10.00">topo.tkgui.projectionpanel.ProjectionActivityPanel</text>
</g>
<!-- topo.tkgui.projectionpanel.ProjectionSheetPanel -->
<g id="node16" class="node"><title>topo.tkgui.projectionpanel.ProjectionSheetPanel</title>
<polygon fill="none" stroke="black" stroke-width="0.5" points="1783,-124.5 1539,-124.5 1539,-103.5 1783,-103.5 1783,-124.5"/>
<text text-anchor="middle" x="1661" y="-111.5" font-family="Vera" font-size="10.00">topo.tkgui.projectionpanel.ProjectionSheetPanel</text>
</g>
<!-- topo.tkgui.projectionpanel.ProjectionSheetPanel&#45;&gt;topo.tkgui.projectionpanel.UnitsPanel -->
<g id="edge34" class="edge"><title>topo.tkgui.projectionpanel.ProjectionSheetPanel&#45;&gt;topo.tkgui.projectionpanel.UnitsPanel</title>
<path fill="none" stroke="black" stroke-width="0.5" d="M1736.25,-124.034C1776.03,-129.337 1824.87,-135.849 1865.41,-141.255"/>
<polygon fill="black" stroke="black" points="1865.63,-143.05 1870.82,-141.976 1866.09,-139.58 1865.63,-143.05"/>
</g>
<!-- topo.tkgui.projectionpanel.ProjectionSheetPanel&#45;&gt;topo.tkgui.projectionpanel.PlotMatrixPanel -->
<g id="edge32" class="edge"><title>topo.tkgui.projectionpanel.ProjectionSheetPanel&#45;&gt;topo.tkgui.projectionpanel.PlotMatrixPanel</title>
<path fill="none" stroke="black" stroke-width="0.5" d="M1783.52,-114C1799.51,-114 1815.85,-114 1831.7,-114"/>
<polygon fill="black" stroke="black" points="1832.06,-115.75 1837.06,-114 1832.06,-112.25 1832.06,-115.75"/>
</g>
<!-- topo.tkgui.projectionpanel.ProjectionSheetPanel&#45;&gt;topo.tkgui.projectionpanel.ProjectionActivityPanel -->
<g id="edge12" class="edge"><title>topo.tkgui.projectionpanel.ProjectionSheetPanel&#45;&gt;topo.tkgui.projectionpanel.ProjectionActivityPanel</title>
<path fill="none" stroke="black" stroke-width="0.5" d="M1736.25,-103.966C1776.03,-98.6631 1824.87,-92.1509 1865.41,-86.7453"/>
<polygon fill="black" stroke="black" points="1866.09,-88.4196 1870.82,-86.024 1865.63,-84.9503 1866.09,-88.4196"/>
</g>
<!-- Tkinter.Place -->
<g id="node19" class="node"><title>Tkinter.Place</title>
<polygon fill="none" stroke="black" stroke-width="0.5" points="243,-134.5 167,-134.5 167,-113.5 243,-113.5 243,-134.5"/>
<text text-anchor="middle" x="205" y="-121.5" font-family="Vera" font-size="10.00">Tkinter.Place</text>
</g>
<!-- Tkinter.Widget -->
<g id="node28" class="node"><title>Tkinter.Widget</title>
<polygon fill="none" stroke="black" stroke-width="0.5" points="461,-96.5 379,-96.5 379,-75.5 461,-75.5 461,-96.5"/>
<text text-anchor="middle" x="420" y="-83.5" font-family="Vera" font-size="10.00">Tkinter.Widget</text>
</g>
<!-- Tkinter.Place&#45;&gt;Tkinter.Widget -->
<g id="edge26" class="edge"><title>Tkinter.Place&#45;&gt;Tkinter.Widget</title>
<path fill="none" stroke="black" stroke-width="0.5" d="M243.935,-117.118C280.299,-110.691 334.629,-101.089 373.308,-94.2525"/>
<polygon fill="black" stroke="black" points="373.801,-95.9426 378.42,-93.3489 373.192,-92.496 373.801,-95.9426"/>
</g>
<!-- Tkinter.Grid -->
<g id="node22" class="node"><title>Tkinter.Grid</title>
<polygon fill="none" stroke="black" stroke-width="0.5" points="240,-96.5 170,-96.5 170,-75.5 240,-75.5 240,-96.5"/>
<text text-anchor="middle" x="205" y="-83.5" font-family="Vera" font-size="10.00">Tkinter.Grid</text>
</g>
<!-- Tkinter.Grid&#45;&gt;Tkinter.Widget -->
<g id="edge28" class="edge"><title>Tkinter.Grid&#45;&gt;Tkinter.Widget</title>
<path fill="none" stroke="black" stroke-width="0.5" d="M240.503,-86C276.687,-86 333.012,-86 372.905,-86"/>
<polygon fill="black" stroke="black" points="373.175,-87.7501 378.175,-86 373.175,-84.2501 373.175,-87.7501"/>
</g>
<!-- Tkinter.BaseWidget -->
<g id="node23" class="node"><title>Tkinter.BaseWidget</title>
<polygon fill="none" stroke="black" stroke-width="0.5" points="258,-58.5 152,-58.5 152,-37.5 258,-37.5 258,-58.5"/>
<text text-anchor="middle" x="205" y="-45.5" font-family="Vera" font-size="10.00">Tkinter.BaseWidget</text>
</g>
<!-- Tkinter.BaseWidget&#45;&gt;Tkinter.Widget -->
<g id="edge22" class="edge"><title>Tkinter.BaseWidget&#45;&gt;Tkinter.Widget</title>
<path fill="none" stroke="black" stroke-width="0.5" d="M258.699,-57.491C293.881,-63.7093 339.423,-71.7584 373.138,-77.7174"/>
<polygon fill="black" stroke="black" points="373.216,-79.5083 378.444,-78.6553 373.825,-76.0617 373.216,-79.5083"/>
</g>
<!-- Tkinter.Misc -->
<g id="node24" class="node"><title>Tkinter.Misc</title>
<polygon fill="none" stroke="black" stroke-width="0.5" points="72,-58.5 2.84217e-14,-58.5 0,-37.5 72,-37.5 72,-58.5"/>
<text text-anchor="middle" x="36" y="-45.5" font-family="Vera" font-size="10.00">Tkinter.Misc</text>
</g>
<!-- Tkinter.Misc&#45;&gt;Tkinter.BaseWidget -->
<g id="edge18" class="edge"><title>Tkinter.Misc&#45;&gt;Tkinter.BaseWidget</title>
<path fill="none" stroke="black" stroke-width="0.5" d="M72.2547,-48C93.805,-48 121.651,-48 146.27,-48"/>
<polygon fill="black" stroke="black" points="146.471,-49.7501 151.471,-48 146.471,-46.2501 146.471,-49.7501"/>
</g>
<!-- topo.tkgui.templateplotgrouppanel.TemplatePlotGroupPanel -->
<g id="node26" class="node"><title>topo.tkgui.templateplotgrouppanel.TemplatePlotGroupPanel</title>
<polygon fill="none" stroke="black" stroke-width="0.5" points="1502,-124.5 1200,-124.5 1200,-103.5 1502,-103.5 1502,-124.5"/>
<text text-anchor="middle" x="1351" y="-111.5" font-family="Vera" font-size="10.00">topo.tkgui.templateplotgrouppanel.TemplatePlotGroupPanel</text>
</g>
<!-- topo.tkgui.templateplotgrouppanel.TemplatePlotGroupPanel&#45;&gt;topo.tkgui.projectionpanel.ProjectionSheetPanel -->
<g id="edge20" class="edge"><title>topo.tkgui.templateplotgrouppanel.TemplatePlotGroupPanel&#45;&gt;topo.tkgui.projectionpanel.ProjectionSheetPanel</title>
<path fill="none" stroke="black" stroke-width="0.5" d="M1502.37,-114C1512.58,-114 1522.81,-114 1532.88,-114"/>
<polygon fill="black" stroke="black" points="1533.13,-115.75 1538.13,-114 1533.13,-112.25 1533.13,-115.75"/>
</g>
<!-- Tkinter.Widget&#45;&gt;Tkinter.Frame -->
<g id="edge36" class="edge"><title>Tkinter.Widget&#45;&gt;Tkinter.Frame</title>
<path fill="none" stroke="black" stroke-width="0.5" d="M461.723,-87.1097C491.481,-87.9011 531.488,-88.9651 562.14,-89.7803"/>
<polygon fill="black" stroke="black" points="562.318,-91.5356 567.362,-89.9192 562.411,-88.0368 562.318,-91.5356"/>
</g>
<!-- Tkinter.Pack -->
<g id="node30" class="node"><title>Tkinter.Pack</title>
<polygon fill="none" stroke="black" stroke-width="0.5" points="241,-20.5 169,-20.5 169,0.5 241,0.5 241,-20.5"/>
<text text-anchor="middle" x="205" y="-7.5" font-family="Vera" font-size="10.00">Tkinter.Pack</text>
</g>
<!-- Tkinter.Pack&#45;&gt;Tkinter.Widget -->
<g id="edge24" class="edge"><title>Tkinter.Pack&#45;&gt;Tkinter.Widget</title>
<path fill="none" stroke="black" stroke-width="0.5" d="M241.5,-14.8766C259.93,-17.9071 282.464,-22.4889 302,-29 337.006,-40.6672 375.019,-60.4296 398.178,-73.3469"/>
<polygon fill="black" stroke="black" points="397.39,-74.9115 402.607,-75.8347 399.105,-71.86 397.39,-74.9115"/>
</g>
<!-- topo.tkgui.plotgrouppanel.SheetPanel&#45;&gt;topo.tkgui.templateplotgrouppanel.TemplatePlotGroupPanel -->
<g id="edge30" class="edge"><title>topo.tkgui.plotgrouppanel.SheetPanel&#45;&gt;topo.tkgui.templateplotgrouppanel.TemplatePlotGroupPanel</title>
<path fill="none" stroke="black" stroke-width="0.5" d="M1163.83,-114C1173.89,-114 1184.27,-114 1194.75,-114"/>
<polygon fill="black" stroke="black" points="1194.9,-115.75 1199.9,-114 1194.9,-112.25 1194.9,-115.75"/>
</g>
</g>
</svg>
