<?xml version="1.0" encoding="UTF-8" standalone="no"?>
<!DOCTYPE svg PUBLIC "-//W3C//DTD SVG 1.1//EN"
 "http://www.w3.org/Graphics/SVG/1.1/DTD/svg11.dtd">
<!-- Generated by graphviz version 2.26.3 (20100126.1600)
 -->
<!-- Title: inheritancef4cea304dd Pages: 1 -->
<svg width="1124pt" height="294pt"
 viewBox="0.00 0.00 1124.00 294.00" xmlns="http://www.w3.org/2000/svg" xmlns:xlink="http://www.w3.org/1999/xlink">
<g id="graph1" class="graph" transform="scale(1 1) rotate(0) translate(4 290)">
<title>inheritancef4cea304dd</title>
<polygon fill="white" stroke="white" points="-4,5 -4,-290 1121,-290 1121,5 -4,5"/>
<!-- imagen.sheetcoords.SheetCoordinateSystem -->
<g id="node1" class="node"><title>imagen.sheetcoords.SheetCoordinateSystem</title>
<polygon fill="none" stroke="black" stroke-width="0.5" points="466,-286.5 230,-286.5 230,-265.5 466,-265.5 466,-286.5"/>
<text text-anchor="middle" x="348" y="-273.5" font-family="Vera" font-size="10.00">imagen.sheetcoords.SheetCoordinateSystem</text>
</g>
<!-- topo.base.sheet.Sheet -->
<g id="node2" class="node"><title>topo.base.sheet.Sheet</title>
<polygon fill="none" stroke="black" stroke-width="0.5" points="648,-267.5 522,-267.5 522,-246.5 648,-246.5 648,-267.5"/>
<text text-anchor="middle" x="585" y="-254.5" font-family="Vera" font-size="10.00">topo.base.sheet.Sheet</text>
</g>
<!-- imagen.sheetcoords.SheetCoordinateSystem&#45;&gt;topo.base.sheet.Sheet -->
<g id="edge4" class="edge"><title>imagen.sheetcoords.SheetCoordinateSystem&#45;&gt;topo.base.sheet.Sheet</title>
<path fill="none" stroke="black" stroke-width="0.5" d="M466.153,-266.528C483.445,-265.142 500.748,-263.754 516.587,-262.485"/>
<polygon fill="black" stroke="black" points="517.056,-264.203 521.901,-262.059 516.777,-260.714 517.056,-264.203"/>
</g>
<!-- topo.base.projection.ProjectionSheet -->
<g id="node12" class="node"><title>topo.base.projection.ProjectionSheet</title>
<polygon fill="none" stroke="black" stroke-width="0.5" points="898,-267.5 704,-267.5 704,-246.5 898,-246.5 898,-267.5"/>
<text text-anchor="middle" x="801" y="-254.5" font-family="Vera" font-size="10.00">topo.base.projection.ProjectionSheet</text>
</g>
<!-- topo.base.sheet.Sheet&#45;&gt;topo.base.projection.ProjectionSheet -->
<g id="edge10" class="edge"><title>topo.base.sheet.Sheet&#45;&gt;topo.base.projection.ProjectionSheet</title>
<path fill="none" stroke="black" stroke-width="0.5" d="M648.057,-257C663.856,-257 681.216,-257 698.394,-257"/>
<polygon fill="black" stroke="black" points="698.717,-258.75 703.717,-257 698.717,-255.25 698.717,-258.75"/>
</g>
<!-- topo.base.simulation.EventProcessor -->
<g id="node3" class="node"><title>topo.base.simulation.EventProcessor</title>
<polygon fill="none" stroke="black" stroke-width="0.5" points="445,-248.5 251,-248.5 251,-227.5 445,-227.5 445,-248.5"/>
<text text-anchor="middle" x="348" y="-235.5" font-family="Vera" font-size="10.00">topo.base.simulation.EventProcessor</text>
</g>
<!-- topo.base.simulation.EventProcessor&#45;&gt;topo.base.sheet.Sheet -->
<g id="edge2" class="edge"><title>topo.base.simulation.EventProcessor&#45;&gt;topo.base.sheet.Sheet</title>
<path fill="none" stroke="black" stroke-width="0.5" d="M445.081,-245.783C469.206,-247.717 494.557,-249.749 516.952,-251.545"/>
<polygon fill="black" stroke="black" points="516.857,-253.293 521.981,-251.948 517.137,-249.804 516.857,-253.293"/>
</g>
<!-- topo.base.cf.CFPRF_Plugin -->
<g id="node6" class="node"><title>topo.base.cf.CFPRF_Plugin</title>
<polygon fill="none" stroke="black" stroke-width="0.5" points="655,-210.5 515,-210.5 515,-189.5 655,-189.5 655,-210.5"/>
<text text-anchor="middle" x="585" y="-197.5" font-family="Vera" font-size="10.00">topo.base.cf.CFPRF_Plugin</text>
</g>
<!-- topo.base.cf.CFPResponseFn -->
<g id="node7" class="node"><title>topo.base.cf.CFPResponseFn</title>
<polygon fill="none" stroke="black" stroke-width="0.5" points="424,-210.5 272,-210.5 272,-189.5 424,-189.5 424,-210.5"/>
<text text-anchor="middle" x="348" y="-197.5" font-family="Vera" font-size="10.00">topo.base.cf.CFPResponseFn</text>
</g>
<!-- topo.base.cf.CFPResponseFn&#45;&gt;topo.base.cf.CFPRF_Plugin -->
<g id="edge6" class="edge"><title>topo.base.cf.CFPResponseFn&#45;&gt;topo.base.cf.CFPRF_Plugin</title>
<path fill="none" stroke="black" stroke-width="0.5" d="M424.62,-200C451.738,-200 482.215,-200 509.259,-200"/>
<polygon fill="black" stroke="black" points="509.268,-201.75 514.268,-200 509.268,-198.25 509.268,-201.75"/>
</g>
<!-- topo.base.projection.Projection -->
<g id="node9" class="node"><title>topo.base.projection.Projection</title>
<polygon fill="none" stroke="black" stroke-width="0.5" points="667,-172.5 503,-172.5 503,-151.5 667,-151.5 667,-172.5"/>
<text text-anchor="middle" x="585" y="-159.5" font-family="Vera" font-size="10.00">topo.base.projection.Projection</text>
</g>
<!-- topo.base.cf.CFProjection -->
<g id="node31" class="node"><title>topo.base.cf.CFProjection</title>
<polygon fill="none" stroke="black" stroke-width="0.5" points="869,-172.5 733,-172.5 733,-151.5 869,-151.5 869,-172.5"/>
<text text-anchor="middle" x="801" y="-159.5" font-family="Vera" font-size="10.00">topo.base.cf.CFProjection</text>
</g>
<!-- topo.base.projection.Projection&#45;&gt;topo.base.cf.CFProjection -->
<g id="edge28" class="edge"><title>topo.base.projection.Projection&#45;&gt;topo.base.cf.CFProjection</title>
<path fill="none" stroke="black" stroke-width="0.5" d="M667.585,-162C687.071,-162 707.728,-162 726.817,-162"/>
<polygon fill="black" stroke="black" points="727.157,-163.75 732.157,-162 727.157,-160.25 727.157,-163.75"/>
</g>
<!-- topo.base.simulation.EPConnection -->
<g id="node10" class="node"><title>topo.base.simulation.EPConnection</title>
<polygon fill="none" stroke="black" stroke-width="0.5" points="441,-172.5 255,-172.5 255,-151.5 441,-151.5 441,-172.5"/>
<text text-anchor="middle" x="348" y="-159.5" font-family="Vera" font-size="10.00">topo.base.simulation.EPConnection</text>
</g>
<!-- topo.base.simulation.EPConnection&#45;&gt;topo.base.projection.Projection -->
<g id="edge8" class="edge"><title>topo.base.simulation.EPConnection&#45;&gt;topo.base.projection.Projection</title>
<path fill="none" stroke="black" stroke-width="0.5" d="M441.328,-162C459.681,-162 478.878,-162 497.046,-162"/>
<polygon fill="black" stroke="black" points="497.142,-163.75 502.142,-162 497.142,-160.25 497.142,-163.75"/>
</g>
<!-- topo.base.cf.CFSheet -->
<g id="node26" class="node"><title>topo.base.cf.CFSheet</title>
<polygon fill="none" stroke="black" stroke-width="0.5" points="1084,-267.5 966,-267.5 966,-246.5 1084,-246.5 1084,-267.5"/>
<text text-anchor="middle" x="1025" y="-254.5" font-family="Vera" font-size="10.00">topo.base.cf.CFSheet</text>
</g>
<!-- topo.base.projection.ProjectionSheet&#45;&gt;topo.base.cf.CFSheet -->
<g id="edge22" class="edge"><title>topo.base.projection.ProjectionSheet&#45;&gt;topo.base.cf.CFSheet</title>
<path fill="none" stroke="black" stroke-width="0.5" d="M898.272,-257C919.101,-257 940.622,-257 959.885,-257"/>
<polygon fill="black" stroke="black" points="960.255,-258.75 965.255,-257 960.255,-255.25 960.255,-258.75"/>
</g>
<!-- topo.base.cf.CFPOF_Identity -->
<g id="node14" class="node"><title>topo.base.cf.CFPOF_Identity</title>
<polygon fill="none" stroke="black" stroke-width="0.5" points="659,-134.5 511,-134.5 511,-113.5 659,-113.5 659,-134.5"/>
<text text-anchor="middle" x="585" y="-121.5" font-family="Vera" font-size="10.00">topo.base.cf.CFPOF_Identity</text>
</g>
<!-- topo.base.cf.CFPOutputFn -->
<g id="node15" class="node"><title>topo.base.cf.CFPOutputFn</title>
<polygon fill="none" stroke="black" stroke-width="0.5" points="418,-134.5 278,-134.5 278,-113.5 418,-113.5 418,-134.5"/>
<text text-anchor="middle" x="348" y="-121.5" font-family="Vera" font-size="10.00">topo.base.cf.CFPOutputFn</text>
</g>
<!-- topo.base.cf.CFPOutputFn&#45;&gt;topo.base.cf.CFPOF_Identity -->
<g id="edge12" class="edge"><title>topo.base.cf.CFPOutputFn&#45;&gt;topo.base.cf.CFPOF_Identity</title>
<path fill="none" stroke="black" stroke-width="0.5" d="M418.146,-124C445.516,-124 477.04,-124 505.266,-124"/>
<polygon fill="black" stroke="black" points="505.496,-125.75 510.496,-124 505.496,-122.25 505.496,-125.75"/>
</g>
<!-- topo.base.cf.CFPOF_Plugin -->
<g id="node23" class="node"><title>topo.base.cf.CFPOF_Plugin</title>
<polygon fill="none" stroke="black" stroke-width="0.5" points="656,-96.5 514,-96.5 514,-75.5 656,-75.5 656,-96.5"/>
<text text-anchor="middle" x="585" y="-83.5" font-family="Vera" font-size="10.00">topo.base.cf.CFPOF_Plugin</text>
</g>
<!-- topo.base.cf.CFPOutputFn&#45;&gt;topo.base.cf.CFPOF_Plugin -->
<g id="edge20" class="edge"><title>topo.base.cf.CFPOutputFn&#45;&gt;topo.base.cf.CFPOF_Plugin</title>
<path fill="none" stroke="black" stroke-width="0.5" d="M410.579,-113.966C443.384,-108.706 483.607,-102.257 517.157,-96.8779"/>
<polygon fill="black" stroke="black" points="517.822,-98.5436 522.482,-96.024 517.268,-95.0878 517.822,-98.5436"/>
</g>
<!-- param.parameterized.Parameterized -->
<g id="node17" class="node"><title>param.parameterized.Parameterized</title>
<polygon fill="none" stroke="black" stroke-width="0.5" points="194,-172.5 5.68434e-14,-172.5 0,-151.5 194,-151.5 194,-172.5"/>
<text text-anchor="middle" x="97" y="-159.5" font-family="Vera" font-size="10.00">param.parameterized.Parameterized</text>
</g>
<!-- param.parameterized.Parameterized&#45;&gt;topo.base.simulation.EventProcessor -->
<g id="edge24" class="edge"><title>param.parameterized.Parameterized&#45;&gt;topo.base.simulation.EventProcessor</title>
<path fill="none" stroke="black" stroke-width="0.5" d="M172.778,-172.022C180.177,-174.411 187.384,-177.361 194,-181 214.384,-192.213 209.43,-208.133 230,-219 235.303,-221.802 240.914,-224.213 246.694,-226.286"/>
<polygon fill="black" stroke="black" points="246.289,-227.997 251.586,-227.95 247.415,-224.683 246.289,-227.997"/>
</g>
<!-- param.parameterized.Parameterized&#45;&gt;topo.base.cf.CFPResponseFn -->
<g id="edge26" class="edge"><title>param.parameterized.Parameterized&#45;&gt;topo.base.cf.CFPResponseFn</title>
<path fill="none" stroke="black" stroke-width="0.5" d="M163.276,-172.034C198.161,-177.315 240.968,-183.796 276.587,-189.189"/>
<polygon fill="black" stroke="black" points="276.583,-190.958 281.789,-189.976 277.107,-187.497 276.583,-190.958"/>
</g>
<!-- param.parameterized.Parameterized&#45;&gt;topo.base.simulation.EPConnection -->
<g id="edge14" class="edge"><title>param.parameterized.Parameterized&#45;&gt;topo.base.simulation.EPConnection</title>
<path fill="none" stroke="black" stroke-width="0.5" d="M194.043,-162C212.327,-162 231.462,-162 249.781,-162"/>
<polygon fill="black" stroke="black" points="249.926,-163.75 254.926,-162 249.926,-160.25 249.926,-163.75"/>
</g>
<!-- param.parameterized.Parameterized&#45;&gt;topo.base.cf.CFPOutputFn -->
<g id="edge34" class="edge"><title>param.parameterized.Parameterized&#45;&gt;topo.base.cf.CFPOutputFn</title>
<path fill="none" stroke="black" stroke-width="0.5" d="M163.276,-151.966C198.161,-146.685 240.968,-140.204 276.587,-134.811"/>
<polygon fill="black" stroke="black" points="277.107,-136.503 281.789,-134.024 276.583,-133.042 277.107,-136.503"/>
</g>
<!-- topo.base.cf.CFPLearningFn -->
<g id="node20" class="node"><title>topo.base.cf.CFPLearningFn</title>
<polygon fill="none" stroke="black" stroke-width="0.5" points="422,-58.5 274,-58.5 274,-37.5 422,-37.5 422,-58.5"/>
<text text-anchor="middle" x="348" y="-45.5" font-family="Vera" font-size="10.00">topo.base.cf.CFPLearningFn</text>
</g>
<!-- param.parameterized.Parameterized&#45;&gt;topo.base.cf.CFPLearningFn -->
<g id="edge18" class="edge"><title>param.parameterized.Parameterized&#45;&gt;topo.base.cf.CFPLearningFn</title>
<path fill="none" stroke="black" stroke-width="0.5" d="M119.275,-151.883C165.418,-130.926 271.295,-82.838 321.131,-60.2033"/>
<polygon fill="black" stroke="black" points="321.947,-61.7551 325.775,-58.0941 320.499,-58.5684 321.947,-61.7551"/>
</g>
<!-- topo.base.cf.CFPLF_Identity -->
<g id="node19" class="node"><title>topo.base.cf.CFPLF_Identity</title>
<polygon fill="none" stroke="black" stroke-width="0.5" points="658,-58.5 512,-58.5 512,-37.5 658,-37.5 658,-58.5"/>
<text text-anchor="middle" x="585" y="-45.5" font-family="Vera" font-size="10.00">topo.base.cf.CFPLF_Identity</text>
</g>
<!-- topo.base.cf.CFPLearningFn&#45;&gt;topo.base.cf.CFPLF_Identity -->
<g id="edge16" class="edge"><title>topo.base.cf.CFPLearningFn&#45;&gt;topo.base.cf.CFPLF_Identity</title>
<path fill="none" stroke="black" stroke-width="0.5" d="M422.663,-48C449.121,-48 478.973,-48 505.796,-48"/>
<polygon fill="black" stroke="black" points="506.118,-49.7501 511.118,-48 506.118,-46.2501 506.118,-49.7501"/>
</g>
<!-- topo.base.cf.CFPLF_Plugin -->
<g id="node35" class="node"><title>topo.base.cf.CFPLF_Plugin</title>
<polygon fill="none" stroke="black" stroke-width="0.5" points="655,-20.5 515,-20.5 515,0.5 655,0.5 655,-20.5"/>
<text text-anchor="middle" x="585" y="-7.5" font-family="Vera" font-size="10.00">topo.base.cf.CFPLF_Plugin</text>
</g>
<!-- topo.base.cf.CFPLearningFn&#45;&gt;topo.base.cf.CFPLF_Plugin -->
<g id="edge32" class="edge"><title>topo.base.cf.CFPLearningFn&#45;&gt;topo.base.cf.CFPLF_Plugin</title>
<path fill="none" stroke="black" stroke-width="0.5" d="M410.579,-37.9662C443.384,-32.7064 483.607,-26.2571 517.157,-20.8779"/>
<polygon fill="black" stroke="black" points="517.822,-22.5436 522.482,-20.024 517.268,-19.0878 517.822,-22.5436"/>
</g>
<!-- topo.base.cf.ConnectionField -->
<g id="node25" class="node"><title>topo.base.cf.ConnectionField</title>
<polygon fill="none" stroke="black" stroke-width="0.5" points="173,-210.5 21,-210.5 21,-189.5 173,-189.5 173,-210.5"/>
<text text-anchor="middle" x="97" y="-197.5" font-family="Vera" font-size="10.00">topo.base.cf.ConnectionField</text>
</g>
<!-- topo.base.cf.NullCFError -->
<g id="node28" class="node"><title>topo.base.cf.NullCFError</title>
<polygon fill="none" stroke="black" stroke-width="0.5" points="162,-248.5 32,-248.5 32,-227.5 162,-227.5 162,-248.5"/>
<text text-anchor="middle" x="97" y="-235.5" font-family="Vera" font-size="10.00">topo.base.cf.NullCFError</text>
</g>
<!-- topo.base.cf.ResizableCFProjection -->
<g id="node33" class="node"><title>topo.base.cf.ResizableCFProjection</title>
<polygon fill="none" stroke="black" stroke-width="0.5" points="1116,-172.5 934,-172.5 934,-151.5 1116,-151.5 1116,-172.5"/>
<text text-anchor="middle" x="1025" y="-159.5" font-family="Vera" font-size="10.00">topo.base.cf.ResizableCFProjection</text>
</g>
<!-- topo.base.cf.CFProjection&#45;&gt;topo.base.cf.ResizableCFProjection -->
<g id="edge30" class="edge"><title>topo.base.cf.CFProjection&#45;&gt;topo.base.cf.ResizableCFProjection</title>
<path fill="none" stroke="black" stroke-width="0.5" d="M869.73,-162C888.343,-162 908.841,-162 928.67,-162"/>
<polygon fill="black" stroke="black" points="928.696,-163.75 933.696,-162 928.696,-160.25 928.696,-163.75"/>
</g>
<!-- topo.base.cf.CFIter -->
<g id="node38" class="node"><title>topo.base.cf.CFIter</title>
<polygon fill="none" stroke="black" stroke-width="0.5" points="150,-286.5 44,-286.5 44,-265.5 150,-265.5 150,-286.5"/>
<text text-anchor="middle" x="97" y="-273.5" font-family="Vera" font-size="10.00">topo.base.cf.CFIter</text>
</g>
</g>
</svg>
