<?xml version="1.0" encoding="UTF-8" standalone="no"?>
<!DOCTYPE svg PUBLIC "-//W3C//DTD SVG 1.1//EN"
 "http://www.w3.org/Graphics/SVG/1.1/DTD/svg11.dtd">
<!-- Generated by graphviz version 2.26.3 (20100126.1600)
 -->
<!-- Title: inheritance1d39487c30 Pages: 1 -->
<svg width="1028pt" height="256pt"
 viewBox="0.00 0.00 1028.00 256.00" xmlns="http://www.w3.org/2000/svg" xmlns:xlink="http://www.w3.org/1999/xlink">
<g id="graph1" class="graph" transform="scale(1 1) rotate(0) translate(4 252)">
<title>inheritance1d39487c30</title>
<polygon fill="white" stroke="white" points="-4,5 -4,-252 1025,-252 1025,5 -4,5"/>
<!-- topo.tkgui.editor.EditorProjection -->
<g id="node1" class="node"><title>topo.tkgui.editor.EditorProjection</title>
<polygon fill="none" stroke="black" stroke-width="0.5" points="818,-20 650,-20 650,-1.06581e-14 818,-3.55271e-15 818,-20"/>
<text text-anchor="middle" x="734" y="-7" font-family="Vera" font-size="10.00">topo.tkgui.editor.EditorProjection</text>
</g>
<!-- topo.tkgui.editor.EditorEPConnection -->
<g id="node2" class="node"><title>topo.tkgui.editor.EditorEPConnection</title>
<polygon fill="none" stroke="black" stroke-width="0.5" points="614,-20 430,-20 430,-1.06581e-14 614,-3.55271e-15 614,-20"/>
<text text-anchor="middle" x="522" y="-7" font-family="Vera" font-size="10.00">topo.tkgui.editor.EditorEPConnection</text>
</g>
<!-- topo.tkgui.editor.EditorEPConnection&#45;&gt;topo.tkgui.editor.EditorProjection -->
<g id="edge2" class="edge"><title>topo.tkgui.editor.EditorEPConnection&#45;&gt;topo.tkgui.editor.EditorProjection</title>
<path fill="none" stroke="black" stroke-width="0.5" d="M614.061,-10C624.148,-10 634.406,-10 644.461,-10"/>
<polygon fill="black" stroke="black" points="644.699,-11.7501 649.699,-10 644.699,-8.2501 644.699,-11.7501"/>
</g>
<!-- Tkinter.XView -->
<g id="node4" class="node"><title>Tkinter.XView</title>
<polygon fill="none" stroke="black" stroke-width="0.5" points="561,-219 483,-219 483,-199 561,-199 561,-219"/>
<text text-anchor="middle" x="522" y="-206" font-family="Vera" font-size="10.00">Tkinter.XView</text>
</g>
<!-- Tkinter.Canvas -->
<g id="node16" class="node"><title>Tkinter.Canvas</title>
<polygon fill="none" stroke="black" stroke-width="0.5" points="776,-181 692,-181 692,-161 776,-161 776,-181"/>
<text text-anchor="middle" x="734" y="-168" font-family="Vera" font-size="10.00">Tkinter.Canvas</text>
</g>
<!-- Tkinter.XView&#45;&gt;Tkinter.Canvas -->
<g id="edge10" class="edge"><title>Tkinter.XView&#45;&gt;Tkinter.Canvas</title>
<path fill="none" stroke="black" stroke-width="0.5" d="M561.876,-201.852C597.346,-195.495 649.263,-186.189 686.795,-179.461"/>
<polygon fill="black" stroke="black" points="687.148,-181.176 691.761,-178.571 686.531,-177.731 687.148,-181.176"/>
</g>
<!-- param.parameterized.Parameterized -->
<g id="node5" class="node"><title>param.parameterized.Parameterized</title>
<polygon fill="none" stroke="black" stroke-width="0.5" points="184,-248 8.52651e-14,-248 0,-228 184,-228 184,-248"/>
<text text-anchor="middle" x="92" y="-235" font-family="Vera" font-size="10.00">param.parameterized.Parameterized</text>
</g>
<!-- topo.tkgui.editor.ModelEditor -->
<g id="node37" class="node"><title>topo.tkgui.editor.ModelEditor</title>
<polygon fill="none" stroke="black" stroke-width="0.5" points="382,-248 232,-248 232,-228 382,-228 382,-248"/>
<text text-anchor="middle" x="307" y="-235" font-family="Vera" font-size="10.00">topo.tkgui.editor.ModelEditor</text>
</g>
<!-- param.parameterized.Parameterized&#45;&gt;topo.tkgui.editor.ModelEditor -->
<g id="edge32" class="edge"><title>param.parameterized.Parameterized&#45;&gt;topo.tkgui.editor.ModelEditor</title>
<path fill="none" stroke="black" stroke-width="0.5" d="M184.115,-238C198.123,-238 212.487,-238 226.229,-238"/>
<polygon fill="black" stroke="black" points="226.262,-239.75 231.262,-238 226.262,-236.25 226.262,-239.75"/>
</g>
<!-- topo.tkgui.editor.EditorSheet -->
<g id="node6" class="node"><title>topo.tkgui.editor.EditorSheet</title>
<polygon fill="none" stroke="black" stroke-width="0.5" points="807,-58 661,-58 661,-38 807,-38 807,-58"/>
<text text-anchor="middle" x="734" y="-45" font-family="Vera" font-size="10.00">topo.tkgui.editor.EditorSheet</text>
</g>
<!-- topo.tkgui.editor.EditorEP -->
<g id="node7" class="node"><title>topo.tkgui.editor.EditorEP</title>
<polygon fill="none" stroke="black" stroke-width="0.5" points="588,-58 456,-58 456,-38 588,-38 588,-58"/>
<text text-anchor="middle" x="522" y="-45" font-family="Vera" font-size="10.00">topo.tkgui.editor.EditorEP</text>
</g>
<!-- topo.tkgui.editor.EditorEP&#45;&gt;topo.tkgui.editor.EditorSheet -->
<g id="edge4" class="edge"><title>topo.tkgui.editor.EditorEP&#45;&gt;topo.tkgui.editor.EditorSheet</title>
<path fill="none" stroke="black" stroke-width="0.5" d="M588.787,-48C609.799,-48 633.203,-48 654.981,-48"/>
<polygon fill="black" stroke="black" points="655.185,-49.7501 660.185,-48 655.185,-46.2501 655.185,-49.7501"/>
</g>
<!-- Tkinter.YView -->
<g id="node9" class="node"><title>Tkinter.YView</title>
<polygon fill="none" stroke="black" stroke-width="0.5" points="561,-181 483,-181 483,-161 561,-161 561,-181"/>
<text text-anchor="middle" x="522" y="-168" font-family="Vera" font-size="10.00">Tkinter.YView</text>
</g>
<!-- Tkinter.YView&#45;&gt;Tkinter.Canvas -->
<g id="edge12" class="edge"><title>Tkinter.YView&#45;&gt;Tkinter.Canvas</title>
<path fill="none" stroke="black" stroke-width="0.5" d="M561.379,-171C596.759,-171 648.793,-171 686.476,-171"/>
<polygon fill="black" stroke="black" points="686.928,-172.75 691.928,-171 686.928,-169.25 686.928,-172.75"/>
</g>
<!-- Tkinter.Pack -->
<g id="node10" class="node"><title>Tkinter.Pack</title>
<polygon fill="none" stroke="black" stroke-width="0.5" points="343,-210 271,-210 271,-190 343,-190 343,-210"/>
<text text-anchor="middle" x="307" y="-197" font-family="Vera" font-size="10.00">Tkinter.Pack</text>
</g>
<!-- Tkinter.Widget -->
<g id="node17" class="node"><title>Tkinter.Widget</title>
<polygon fill="none" stroke="black" stroke-width="0.5" points="563,-143 481,-143 481,-123 563,-123 563,-143"/>
<text text-anchor="middle" x="522" y="-130" font-family="Vera" font-size="10.00">Tkinter.Widget</text>
</g>
<!-- Tkinter.Pack&#45;&gt;Tkinter.Widget -->
<g id="edge18" class="edge"><title>Tkinter.Pack&#45;&gt;Tkinter.Widget</title>
<path fill="none" stroke="black" stroke-width="0.5" d="M343.789,-195.826C359.778,-193.049 378.383,-188.478 394,-181 412.531,-172.127 411.419,-160.768 430,-152 444.047,-145.372 460.374,-141.046 475.342,-138.226"/>
<polygon fill="black" stroke="black" points="475.748,-139.931 480.361,-137.327 475.13,-136.486 475.748,-139.931"/>
</g>
<!-- Tkinter.Place -->
<g id="node11" class="node"><title>Tkinter.Place</title>
<polygon fill="none" stroke="black" stroke-width="0.5" points="344,-172 270,-172 270,-152 344,-152 344,-172"/>
<text text-anchor="middle" x="307" y="-159" font-family="Vera" font-size="10.00">Tkinter.Place</text>
</g>
<!-- Tkinter.Place&#45;&gt;Tkinter.Widget -->
<g id="edge20" class="edge"><title>Tkinter.Place&#45;&gt;Tkinter.Widget</title>
<path fill="none" stroke="black" stroke-width="0.5" d="M344.943,-156.882C381.285,-151.98 436.213,-144.571 475.242,-139.307"/>
<polygon fill="black" stroke="black" points="475.678,-141.014 480.4,-138.611 475.21,-137.545 475.678,-141.014"/>
</g>
<!-- Tkinter.Grid -->
<g id="node12" class="node"><title>Tkinter.Grid</title>
<polygon fill="none" stroke="black" stroke-width="0.5" points="343,-134 271,-134 271,-114 343,-114 343,-134"/>
<text text-anchor="middle" x="307" y="-121" font-family="Vera" font-size="10.00">Tkinter.Grid</text>
</g>
<!-- Tkinter.Grid&#45;&gt;Tkinter.Widget -->
<g id="edge22" class="edge"><title>Tkinter.Grid&#45;&gt;Tkinter.Widget</title>
<path fill="none" stroke="black" stroke-width="0.5" d="M343.472,-125.527C379.704,-127.043 435.42,-129.376 474.962,-131.031"/>
<polygon fill="black" stroke="black" points="475.118,-132.789 480.187,-131.25 475.265,-129.292 475.118,-132.789"/>
</g>
<!-- topo.tkgui.editor.EditorObject -->
<g id="node13" class="node"><title>topo.tkgui.editor.EditorObject</title>
<polygon fill="none" stroke="black" stroke-width="0.5" points="167,-39 17,-39 17,-19 167,-19 167,-39"/>
<text text-anchor="middle" x="92" y="-26" font-family="Vera" font-size="10.00">topo.tkgui.editor.EditorObject</text>
</g>
<!-- topo.tkgui.editor.EditorNode -->
<g id="node14" class="node"><title>topo.tkgui.editor.EditorNode</title>
<polygon fill="none" stroke="black" stroke-width="0.5" points="380,-58 234,-58 234,-38 380,-38 380,-58"/>
<text text-anchor="middle" x="307" y="-45" font-family="Vera" font-size="10.00">topo.tkgui.editor.EditorNode</text>
</g>
<!-- topo.tkgui.editor.EditorObject&#45;&gt;topo.tkgui.editor.EditorNode -->
<g id="edge6" class="edge"><title>topo.tkgui.editor.EditorObject&#45;&gt;topo.tkgui.editor.EditorNode</title>
<path fill="none" stroke="black" stroke-width="0.5" d="M167.801,-35.6987C187.528,-37.442 208.819,-39.3236 228.674,-41.0782"/>
<polygon fill="black" stroke="black" points="228.554,-42.8243 233.689,-41.5214 228.863,-39.3379 228.554,-42.8243"/>
</g>
<!-- topo.tkgui.editor.EditorConnection -->
<g id="node39" class="node"><title>topo.tkgui.editor.EditorConnection</title>
<polygon fill="none" stroke="black" stroke-width="0.5" points="393,-20 221,-20 221,-1.06581e-14 393,-3.55271e-15 393,-20"/>
<text text-anchor="middle" x="307" y="-7" font-family="Vera" font-size="10.00">topo.tkgui.editor.EditorConnection</text>
</g>
<!-- topo.tkgui.editor.EditorObject&#45;&gt;topo.tkgui.editor.EditorConnection -->
<g id="edge42" class="edge"><title>topo.tkgui.editor.EditorObject&#45;&gt;topo.tkgui.editor.EditorConnection</title>
<path fill="none" stroke="black" stroke-width="0.5" d="M167.801,-22.3013C183.008,-20.9575 199.144,-19.5315 214.835,-18.1448"/>
<polygon fill="black" stroke="black" points="215.311,-19.8597 220.137,-17.6763 215.002,-16.3733 215.311,-19.8597"/>
</g>
<!-- topo.tkgui.editor.EditorNode&#45;&gt;topo.tkgui.editor.EditorEP -->
<g id="edge36" class="edge"><title>topo.tkgui.editor.EditorNode&#45;&gt;topo.tkgui.editor.EditorEP</title>
<path fill="none" stroke="black" stroke-width="0.5" d="M380.089,-48C402.724,-48 427.635,-48 450.183,-48"/>
<polygon fill="black" stroke="black" points="450.257,-49.7501 455.257,-48 450.257,-46.2501 450.257,-49.7501"/>
</g>
<!-- topo.tkgui.editor.EditorCanvas -->
<g id="node21" class="node"><title>topo.tkgui.editor.EditorCanvas</title>
<polygon fill="none" stroke="black" stroke-width="0.5" points="1014,-191 860,-191 860,-171 1014,-171 1014,-191"/>
<text text-anchor="middle" x="937" y="-178" font-family="Vera" font-size="10.00">topo.tkgui.editor.EditorCanvas</text>
</g>
<!-- Tkinter.Canvas&#45;&gt;topo.tkgui.editor.EditorCanvas -->
<g id="edge14" class="edge"><title>Tkinter.Canvas&#45;&gt;topo.tkgui.editor.EditorCanvas</title>
<path fill="none" stroke="black" stroke-width="0.5" d="M776.062,-173.072C798.802,-174.192 827.688,-175.615 854.693,-176.945"/>
<polygon fill="black" stroke="black" points="854.631,-178.694 859.712,-177.193 854.804,-175.199 854.631,-178.694"/>
</g>
<!-- Tkinter.Widget&#45;&gt;Tkinter.Canvas -->
<g id="edge8" class="edge"><title>Tkinter.Widget&#45;&gt;Tkinter.Canvas</title>
<path fill="none" stroke="black" stroke-width="0.5" d="M563.631,-140.462C598.916,-146.787 649.515,-155.856 686.4,-162.468"/>
<polygon fill="black" stroke="black" points="686.508,-164.265 691.739,-163.425 687.126,-160.82 686.508,-164.265"/>
</g>
<!-- Tkinter.Frame -->
<g id="node29" class="node"><title>Tkinter.Frame</title>
<polygon fill="none" stroke="black" stroke-width="0.5" points="774,-115 694,-115 694,-95 774,-95 774,-115"/>
<text text-anchor="middle" x="734" y="-102" font-family="Vera" font-size="10.00">Tkinter.Frame</text>
</g>
<!-- Tkinter.Widget&#45;&gt;Tkinter.Frame -->
<g id="edge38" class="edge"><title>Tkinter.Widget&#45;&gt;Tkinter.Frame</title>
<path fill="none" stroke="black" stroke-width="0.5" d="M563.631,-127.502C599.376,-122.781 650.836,-115.984 687.834,-111.097"/>
<polygon fill="black" stroke="black" points="688.457,-112.78 693.185,-110.391 687.998,-109.311 688.457,-112.78"/>
</g>
<!-- Tkinter.BaseWidget -->
<g id="node23" class="node"><title>Tkinter.BaseWidget</title>
<polygon fill="none" stroke="black" stroke-width="0.5" points="359,-96 255,-96 255,-76 359,-76 359,-96"/>
<text text-anchor="middle" x="307" y="-83" font-family="Vera" font-size="10.00">Tkinter.BaseWidget</text>
</g>
<!-- Tkinter.BaseWidget&#45;&gt;Tkinter.Widget -->
<g id="edge16" class="edge"><title>Tkinter.BaseWidget&#45;&gt;Tkinter.Widget</title>
<path fill="none" stroke="black" stroke-width="0.5" d="M353.055,-96.0549C366.275,-98.942 380.709,-102.095 394,-105 420.971,-110.895 451.139,-117.494 475.409,-122.804"/>
<polygon fill="black" stroke="black" points="475.237,-124.558 480.496,-123.917 475.985,-121.139 475.237,-124.558"/>
</g>
<!-- topo.tkgui.editor.ArrowTool -->
<g id="node28" class="node"><title>topo.tkgui.editor.ArrowTool</title>
<polygon fill="none" stroke="black" stroke-width="0.5" points="1008,-153 866,-153 866,-133 1008,-133 1008,-153"/>
<text text-anchor="middle" x="937" y="-140" font-family="Vera" font-size="10.00">topo.tkgui.editor.ArrowTool</text>
</g>
<!-- Tkinter.Frame&#45;&gt;topo.tkgui.editor.ArrowTool -->
<g id="edge24" class="edge"><title>Tkinter.Frame&#45;&gt;topo.tkgui.editor.ArrowTool</title>
<path fill="none" stroke="black" stroke-width="0.5" d="M774.592,-112.599C804.246,-118.149 844.906,-125.761 878.124,-131.979"/>
<polygon fill="black" stroke="black" points="878.152,-133.764 883.388,-132.964 878.796,-130.324 878.152,-133.764"/>
</g>
<!-- topo.tkgui.editor.NodeTool -->
<g id="node31" class="node"><title>topo.tkgui.editor.NodeTool</title>
<polygon fill="none" stroke="black" stroke-width="0.5" points="1006,-115 868,-115 868,-95 1006,-95 1006,-115"/>
<text text-anchor="middle" x="937" y="-102" font-family="Vera" font-size="10.00">topo.tkgui.editor.NodeTool</text>
</g>
<!-- Tkinter.Frame&#45;&gt;topo.tkgui.editor.NodeTool -->
<g id="edge26" class="edge"><title>Tkinter.Frame&#45;&gt;topo.tkgui.editor.NodeTool</title>
<path fill="none" stroke="black" stroke-width="0.5" d="M774.592,-105C799.639,-105 832.539,-105 862.174,-105"/>
<polygon fill="black" stroke="black" points="862.282,-106.75 867.282,-105 862.282,-103.25 862.282,-106.75"/>
</g>
<!-- topo.tkgui.editor.ConnectionTool -->
<g id="node33" class="node"><title>topo.tkgui.editor.ConnectionTool</title>
<polygon fill="none" stroke="black" stroke-width="0.5" points="1020,-77 854,-77 854,-57 1020,-57 1020,-77"/>
<text text-anchor="middle" x="937" y="-64" font-family="Vera" font-size="10.00">topo.tkgui.editor.ConnectionTool</text>
</g>
<!-- Tkinter.Frame&#45;&gt;topo.tkgui.editor.ConnectionTool -->
<g id="edge28" class="edge"><title>Tkinter.Frame&#45;&gt;topo.tkgui.editor.ConnectionTool</title>
<path fill="none" stroke="black" stroke-width="0.5" d="M774.592,-97.4015C804.246,-91.8505 844.906,-84.2392 878.124,-78.0212"/>
<polygon fill="black" stroke="black" points="878.796,-79.6759 883.388,-77.0357 878.152,-76.2356 878.796,-79.6759"/>
</g>
<!-- topo.tkgui.editor.ParametersTool -->
<g id="node35" class="node"><title>topo.tkgui.editor.ParametersTool</title>
<polygon fill="none" stroke="black" stroke-width="0.5" points="1020,-39 854,-39 854,-19 1020,-19 1020,-39"/>
<text text-anchor="middle" x="937" y="-26" font-family="Vera" font-size="10.00">topo.tkgui.editor.ParametersTool</text>
</g>
<!-- Tkinter.Frame&#45;&gt;topo.tkgui.editor.ParametersTool -->
<g id="edge30" class="edge"><title>Tkinter.Frame&#45;&gt;topo.tkgui.editor.ParametersTool</title>
<path fill="none" stroke="black" stroke-width="0.5" d="M757.352,-94.8917C774.306,-87.4426 797.73,-76.9227 818,-67 834.249,-59.0457 837.038,-54.2941 854,-48 861.804,-45.104 870.191,-42.5626 878.527,-40.3601"/>
<polygon fill="black" stroke="black" points="879.296,-41.9696 883.705,-39.0324 878.427,-38.5793 879.296,-41.9696"/>
</g>
<!-- topo.tkgui.editor.EditorConnection&#45;&gt;topo.tkgui.editor.EditorEPConnection -->
<g id="edge34" class="edge"><title>topo.tkgui.editor.EditorConnection&#45;&gt;topo.tkgui.editor.EditorEPConnection</title>
<path fill="none" stroke="black" stroke-width="0.5" d="M393.519,-10C403.748,-10 414.239,-10 424.605,-10"/>
<polygon fill="black" stroke="black" points="424.681,-11.7501 429.681,-10 424.681,-8.2501 424.681,-11.7501"/>
</g>
<!-- Tkinter.Misc -->
<g id="node43" class="node"><title>Tkinter.Misc</title>
<polygon fill="none" stroke="black" stroke-width="0.5" points="128,-96 56,-96 56,-76 128,-76 128,-96"/>
<text text-anchor="middle" x="92" y="-83" font-family="Vera" font-size="10.00">Tkinter.Misc</text>
</g>
<!-- Tkinter.Misc&#45;&gt;Tkinter.BaseWidget -->
<g id="edge40" class="edge"><title>Tkinter.Misc&#45;&gt;Tkinter.BaseWidget</title>
<path fill="none" stroke="black" stroke-width="0.5" d="M128.96,-86C162.052,-86 211.111,-86 249.356,-86"/>
<polygon fill="black" stroke="black" points="249.44,-87.7501 254.439,-86 249.439,-84.2501 249.44,-87.7501"/>
</g>
</g>
</svg>
