<?xml version="1.0" encoding="UTF-8" standalone="no"?>
<!DOCTYPE svg PUBLIC "-//W3C//DTD SVG 1.1//EN"
 "http://www.w3.org/Graphics/SVG/1.1/DTD/svg11.dtd">
<!-- Generated by graphviz version 2.26.3 (20100126.1600)
 -->
<!-- Title: inheritance8ed98380c7 Pages: 1 -->
<svg width="680pt" height="142pt"
 viewBox="0.00 0.00 680.00 142.00" xmlns="http://www.w3.org/2000/svg" xmlns:xlink="http://www.w3.org/1999/xlink">
<g id="graph1" class="graph" transform="scale(1 1) rotate(0) translate(4 138)">
<title>inheritance8ed98380c7</title>
<polygon fill="white" stroke="white" points="-4,5 -4,-138 677,-138 677,5 -4,5"/>
<!-- topo.base.functionfamily.PatternDrivenAnalysis -->
<g id="node1" class="node"><title>topo.base.functionfamily.PatternDrivenAnalysis</title>
<polygon fill="none" stroke="black" stroke-width="0.5" points="452,-134 220,-134 220,-114 452,-114 452,-134"/>
<text text-anchor="middle" x="336" y="-121" font-family="Vera" font-size="10.00">topo.base.functionfamily.PatternDrivenAnalysis</text>
</g>
<!-- param.parameterized.Parameterized -->
<g id="node2" class="node"><title>param.parameterized.Parameterized</title>
<polygon fill="none" stroke="black" stroke-width="0.5" points="184,-77 8.52651e-14,-77 0,-57 184,-57 184,-77"/>
<text text-anchor="middle" x="92" y="-64" font-family="Vera" font-size="10.00">param.parameterized.Parameterized</text>
</g>
<!-- param.parameterized.Parameterized&#45;&gt;topo.base.functionfamily.PatternDrivenAnalysis -->
<g id="edge2" class="edge"><title>param.parameterized.Parameterized&#45;&gt;topo.base.functionfamily.PatternDrivenAnalysis</title>
<path fill="none" stroke="black" stroke-width="0.5" d="M121.974,-77.068C147.734,-85.4381 185.996,-97.2005 220,-105 233.109,-108.007 247.157,-110.725 260.791,-113.103"/>
<polygon fill="black" stroke="black" points="260.568,-114.841 265.793,-113.964 261.162,-111.391 260.568,-114.841"/>
</g>
<!-- topo.base.functionfamily.LearningFn -->
<g id="node5" class="node"><title>topo.base.functionfamily.LearningFn</title>
<polygon fill="none" stroke="black" stroke-width="0.5" points="427,-96 245,-96 245,-76 427,-76 427,-96"/>
<text text-anchor="middle" x="336" y="-83" font-family="Vera" font-size="10.00">topo.base.functionfamily.LearningFn</text>
</g>
<!-- param.parameterized.Parameterized&#45;&gt;topo.base.functionfamily.LearningFn -->
<g id="edge6" class="edge"><title>param.parameterized.Parameterized&#45;&gt;topo.base.functionfamily.LearningFn</title>
<path fill="none" stroke="black" stroke-width="0.5" d="M184.246,-74.1831C202.256,-75.5855 221.187,-77.0597 239.336,-78.4729"/>
<polygon fill="black" stroke="black" points="239.312,-80.2262 244.433,-78.8698 239.584,-76.7368 239.312,-80.2262"/>
</g>
<!-- topo.base.functionfamily.CoordinateMapperFn -->
<g id="node9" class="node"><title>topo.base.functionfamily.CoordinateMapperFn</title>
<polygon fill="none" stroke="black" stroke-width="0.5" points="450,-58 222,-58 222,-38 450,-38 450,-58"/>
<text text-anchor="middle" x="336" y="-45" font-family="Vera" font-size="10.00">topo.base.functionfamily.CoordinateMapperFn</text>
</g>
<!-- param.parameterized.Parameterized&#45;&gt;topo.base.functionfamily.CoordinateMapperFn -->
<g id="edge14" class="edge"><title>param.parameterized.Parameterized&#45;&gt;topo.base.functionfamily.CoordinateMapperFn</title>
<path fill="none" stroke="black" stroke-width="0.5" d="M184.246,-59.8169C194.684,-59.0041 205.431,-58.1672 216.156,-57.3321"/>
<polygon fill="black" stroke="black" points="216.569,-59.0553 221.418,-56.9224 216.297,-55.5659 216.569,-59.0553"/>
</g>
<!-- topo.base.functionfamily.ResponseFn -->
<g id="node12" class="node"><title>topo.base.functionfamily.ResponseFn</title>
<polygon fill="none" stroke="black" stroke-width="0.5" points="429,-20 243,-20 243,-1.06581e-14 429,-3.55271e-15 429,-20"/>
<text text-anchor="middle" x="336" y="-7" font-family="Vera" font-size="10.00">topo.base.functionfamily.ResponseFn</text>
</g>
<!-- param.parameterized.Parameterized&#45;&gt;topo.base.functionfamily.ResponseFn -->
<g id="edge12" class="edge"><title>param.parameterized.Parameterized&#45;&gt;topo.base.functionfamily.ResponseFn</title>
<path fill="none" stroke="black" stroke-width="0.5" d="M121.974,-56.932C147.734,-48.5619 185.996,-36.7995 220,-29 233.109,-25.9931 247.157,-23.2752 260.791,-20.8967"/>
<polygon fill="black" stroke="black" points="261.162,-22.6086 265.793,-20.0359 260.568,-19.1594 261.162,-22.6086"/>
</g>
<!-- topo.base.functionfamily.IdentityLF -->
<g id="node4" class="node"><title>topo.base.functionfamily.IdentityLF</title>
<polygon fill="none" stroke="black" stroke-width="0.5" points="668,-134 492,-134 492,-114 668,-114 668,-134"/>
<text text-anchor="middle" x="580" y="-121" font-family="Vera" font-size="10.00">topo.base.functionfamily.IdentityLF</text>
</g>
<!-- topo.base.functionfamily.LearningFn&#45;&gt;topo.base.functionfamily.IdentityLF -->
<g id="edge4" class="edge"><title>topo.base.functionfamily.LearningFn&#45;&gt;topo.base.functionfamily.IdentityLF</title>
<path fill="none" stroke="black" stroke-width="0.5" d="M400.427,-96.0338C434.34,-101.315 475.953,-107.796 510.579,-113.189"/>
<polygon fill="black" stroke="black" points="510.425,-114.936 515.635,-113.976 510.964,-111.477 510.425,-114.936"/>
</g>
<!-- topo.base.functionfamily.Hebbian -->
<g id="node16" class="node"><title>topo.base.functionfamily.Hebbian</title>
<polygon fill="none" stroke="black" stroke-width="0.5" points="665,-96 495,-96 495,-76 665,-76 665,-96"/>
<text text-anchor="middle" x="580" y="-83" font-family="Vera" font-size="10.00">topo.base.functionfamily.Hebbian</text>
</g>
<!-- topo.base.functionfamily.LearningFn&#45;&gt;topo.base.functionfamily.Hebbian -->
<g id="edge16" class="edge"><title>topo.base.functionfamily.LearningFn&#45;&gt;topo.base.functionfamily.Hebbian</title>
<path fill="none" stroke="black" stroke-width="0.5" d="M427.551,-86C447.871,-86 469.395,-86 489.665,-86"/>
<polygon fill="black" stroke="black" points="489.79,-87.7501 494.79,-86 489.79,-84.2501 489.79,-87.7501"/>
</g>
<!-- topo.base.functionfamily.IdentityMF -->
<g id="node8" class="node"><title>topo.base.functionfamily.IdentityMF</title>
<polygon fill="none" stroke="black" stroke-width="0.5" points="670,-58 490,-58 490,-38 670,-38 670,-58"/>
<text text-anchor="middle" x="580" y="-45" font-family="Vera" font-size="10.00">topo.base.functionfamily.IdentityMF</text>
</g>
<!-- topo.base.functionfamily.CoordinateMapperFn&#45;&gt;topo.base.functionfamily.IdentityMF -->
<g id="edge8" class="edge"><title>topo.base.functionfamily.CoordinateMapperFn&#45;&gt;topo.base.functionfamily.IdentityMF</title>
<path fill="none" stroke="black" stroke-width="0.5" d="M450.855,-48C462.003,-48 473.23,-48 484.164,-48"/>
<polygon fill="black" stroke="black" points="484.165,-49.7501 489.165,-48 484.165,-46.2501 484.165,-49.7501"/>
</g>
<!-- topo.base.functionfamily.DotProduct -->
<g id="node11" class="node"><title>topo.base.functionfamily.DotProduct</title>
<polygon fill="none" stroke="black" stroke-width="0.5" points="672,-20 488,-20 488,-1.06581e-14 672,-3.55271e-15 672,-20"/>
<text text-anchor="middle" x="580" y="-7" font-family="Vera" font-size="10.00">topo.base.functionfamily.DotProduct</text>
</g>
<!-- topo.base.functionfamily.ResponseFn&#45;&gt;topo.base.functionfamily.DotProduct -->
<g id="edge10" class="edge"><title>topo.base.functionfamily.ResponseFn&#45;&gt;topo.base.functionfamily.DotProduct</title>
<path fill="none" stroke="black" stroke-width="0.5" d="M429.639,-10C446.934,-10 465.033,-10 482.441,-10"/>
<polygon fill="black" stroke="black" points="482.819,-11.7501 487.819,-10 482.819,-8.25009 482.819,-11.7501"/>
</g>
</g>
</svg>
