<?xml version="1.0" encoding="UTF-8" standalone="no"?>
<!DOCTYPE svg PUBLIC "-//W3C//DTD SVG 1.1//EN"
 "http://www.w3.org/Graphics/SVG/1.1/DTD/svg11.dtd">
<!-- Generated by graphviz version 2.26.3 (20100126.1600)
 -->
<!-- Title: inheritancecf805f0ede Pages: 1 -->
<svg width="364pt" height="142pt"
 viewBox="0.00 0.00 364.00 142.00" xmlns="http://www.w3.org/2000/svg" xmlns:xlink="http://www.w3.org/1999/xlink">
<g id="graph1" class="graph" transform="scale(1 1) rotate(0) translate(4 138)">
<title>inheritancecf805f0ede</title>
<polygon fill="white" stroke="white" points="-4,5 -4,-138 361,-138 361,5 -4,5"/>
<!-- paramtk.odict.Keys -->
<g id="node1" class="node"><title>paramtk.odict.Keys</title>
<polygon fill="none" stroke="black" stroke-width="0.5" points="120,-20 18,-20 18,-1.06581e-14 120,-3.55271e-15 120,-20"/>
<text text-anchor="middle" x="69" y="-7" font-family="Vera" font-size="10.00">paramtk.odict.Keys</text>
</g>
<!-- paramtk.odict.Items -->
<g id="node2" class="node"><title>paramtk.odict.Items</title>
<polygon fill="none" stroke="black" stroke-width="0.5" points="123,-58 15,-58 15,-38 123,-38 123,-58"/>
<text text-anchor="middle" x="69" y="-45" font-family="Vera" font-size="10.00">paramtk.odict.Items</text>
</g>
<!-- paramtk.odict.Values -->
<g id="node3" class="node"><title>paramtk.odict.Values</title>
<polygon fill="none" stroke="black" stroke-width="0.5" points="125,-96 13,-96 13,-76 125,-76 125,-96"/>
<text text-anchor="middle" x="69" y="-83" font-family="Vera" font-size="10.00">paramtk.odict.Values</text>
</g>
<!-- paramtk.odict.SequenceOrderedDict -->
<g id="node4" class="node"><title>paramtk.odict.SequenceOrderedDict</title>
<polygon fill="none" stroke="black" stroke-width="0.5" points="356,-134 174,-134 174,-114 356,-114 356,-134"/>
<text text-anchor="middle" x="265" y="-121" font-family="Vera" font-size="10.00">paramtk.odict.SequenceOrderedDict</text>
</g>
<!-- paramtk.odict.OrderedDict -->
<g id="node5" class="node"><title>paramtk.odict.OrderedDict</title>
<polygon fill="none" stroke="black" stroke-width="0.5" points="138,-134 7.10543e-14,-134 0,-114 138,-114 138,-134"/>
<text text-anchor="middle" x="69" y="-121" font-family="Vera" font-size="10.00">paramtk.odict.OrderedDict</text>
</g>
<!-- paramtk.odict.OrderedDict&#45;&gt;paramtk.odict.SequenceOrderedDict -->
<g id="edge2" class="edge"><title>paramtk.odict.OrderedDict&#45;&gt;paramtk.odict.SequenceOrderedDict</title>
<path fill="none" stroke="black" stroke-width="0.5" d="M138.102,-124C148.047,-124 158.428,-124 168.783,-124"/>
<polygon fill="black" stroke="black" points="168.862,-125.75 173.862,-124 168.862,-122.25 168.862,-125.75"/>
</g>
</g>
</svg>
