<?xml version="1.0" encoding="UTF-8" standalone="no"?>
<!DOCTYPE svg PUBLIC "-//W3C//DTD SVG 1.1//EN"
 "http://www.w3.org/Graphics/SVG/1.1/DTD/svg11.dtd">
<!-- Generated by graphviz version 2.26.3 (20100126.1600)
 -->
<!-- Title: inheritancef1ac05fc54 Pages: 1 -->
<svg width="834pt" height="294pt"
 viewBox="0.00 0.00 834.00 294.00" xmlns="http://www.w3.org/2000/svg" xmlns:xlink="http://www.w3.org/1999/xlink">
<g id="graph1" class="graph" transform="scale(1 1) rotate(0) translate(4 290)">
<title>inheritancef1ac05fc54</title>
<polygon fill="white" stroke="white" points="-4,5 -4,-290 831,-290 831,5 -4,5"/>
<!-- numbergen.ExponentialDecay -->
<g id="node1" class="node"><title>numbergen.ExponentialDecay</title>
<polygon fill="none" stroke="black" stroke-width="0.5" points="815,-286.5 655,-286.5 655,-265.5 815,-265.5 815,-286.5"/>
<text text-anchor="middle" x="735" y="-273.5" font-family="Vera" font-size="10.00">numbergen.ExponentialDecay</text>
</g>
<!-- numbergen.TimeDependentValue -->
<g id="node2" class="node"><title>numbergen.TimeDependentValue</title>
<polygon fill="none" stroke="black" stroke-width="0.5" points="608,-248.5 430,-248.5 430,-227.5 608,-227.5 608,-248.5"/>
<text text-anchor="middle" x="519" y="-235.5" font-family="Vera" font-size="10.00">numbergen.TimeDependentValue</text>
</g>
<!-- numbergen.TimeDependentValue&#45;&gt;numbergen.ExponentialDecay -->
<g id="edge2" class="edge"><title>numbergen.TimeDependentValue&#45;&gt;numbergen.ExponentialDecay</title>
<path fill="none" stroke="black" stroke-width="0.5" d="M576.034,-248.034C605.809,-253.272 642.289,-259.69 672.79,-265.056"/>
<polygon fill="black" stroke="black" points="672.794,-266.833 678.021,-265.976 673.4,-263.386 672.794,-266.833"/>
</g>
<!-- numbergen.BoxCar -->
<g id="node18" class="node"><title>numbergen.BoxCar</title>
<polygon fill="none" stroke="black" stroke-width="0.5" points="790,-248.5 680,-248.5 680,-227.5 790,-227.5 790,-248.5"/>
<text text-anchor="middle" x="735" y="-235.5" font-family="Vera" font-size="10.00">numbergen.BoxCar</text>
</g>
<!-- numbergen.TimeDependentValue&#45;&gt;numbergen.BoxCar -->
<g id="edge16" class="edge"><title>numbergen.TimeDependentValue&#45;&gt;numbergen.BoxCar</title>
<path fill="none" stroke="black" stroke-width="0.5" d="M608.103,-238C630.493,-238 654.002,-238 674.617,-238"/>
<polygon fill="black" stroke="black" points="674.793,-239.75 679.793,-238 674.793,-236.25 674.793,-239.75"/>
</g>
<!-- param.parameterized.Parameterized -->
<g id="node4" class="node"><title>param.parameterized.Parameterized</title>
<polygon fill="none" stroke="black" stroke-width="0.5" points="194,-134.5 5.68434e-14,-134.5 0,-113.5 194,-113.5 194,-134.5"/>
<text text-anchor="middle" x="97" y="-121.5" font-family="Vera" font-size="10.00">param.parameterized.Parameterized</text>
</g>
<!-- numbergen.NumberGenerator -->
<g id="node6" class="node"><title>numbergen.NumberGenerator</title>
<polygon fill="none" stroke="black" stroke-width="0.5" points="393,-134.5 231,-134.5 231,-113.5 393,-113.5 393,-134.5"/>
<text text-anchor="middle" x="312" y="-121.5" font-family="Vera" font-size="10.00">numbergen.NumberGenerator</text>
</g>
<!-- param.parameterized.Parameterized&#45;&gt;numbergen.NumberGenerator -->
<g id="edge26" class="edge"><title>param.parameterized.Parameterized&#45;&gt;numbergen.NumberGenerator</title>
<path fill="none" stroke="black" stroke-width="0.5" d="M194.121,-124C204.545,-124 215.101,-124 225.391,-124"/>
<polygon fill="black" stroke="black" points="225.419,-125.75 230.419,-124 225.419,-122.25 225.419,-125.75"/>
</g>
<!-- numbergen.BinaryOperator -->
<g id="node5" class="node"><title>numbergen.BinaryOperator</title>
<polygon fill="none" stroke="black" stroke-width="0.5" points="593,-172.5 445,-172.5 445,-151.5 593,-151.5 593,-172.5"/>
<text text-anchor="middle" x="519" y="-159.5" font-family="Vera" font-size="10.00">numbergen.BinaryOperator</text>
</g>
<!-- numbergen.NumberGenerator&#45;&gt;numbergen.TimeDependentValue -->
<g id="edge8" class="edge"><title>numbergen.NumberGenerator&#45;&gt;numbergen.TimeDependentValue</title>
<path fill="none" stroke="black" stroke-width="0.5" d="M330.37,-134.117C368.194,-154.947 454.687,-202.581 496.091,-225.383"/>
<polygon fill="black" stroke="black" points="495.447,-227.027 500.671,-227.906 497.136,-223.961 495.447,-227.027"/>
</g>
<!-- numbergen.NumberGenerator&#45;&gt;numbergen.BinaryOperator -->
<g id="edge4" class="edge"><title>numbergen.NumberGenerator&#45;&gt;numbergen.BinaryOperator</title>
<path fill="none" stroke="black" stroke-width="0.5" d="M366.658,-134.034C395.192,-139.272 430.152,-145.69 459.382,-151.056"/>
<polygon fill="black" stroke="black" points="459.162,-152.794 464.395,-151.976 459.794,-149.352 459.162,-152.794"/>
</g>
<!-- numbergen.RandomDistribution -->
<g id="node9" class="node"><title>numbergen.RandomDistribution</title>
<polygon fill="none" stroke="black" stroke-width="0.5" points="604,-134.5 434,-134.5 434,-113.5 604,-113.5 604,-134.5"/>
<text text-anchor="middle" x="519" y="-121.5" font-family="Vera" font-size="10.00">numbergen.RandomDistribution</text>
</g>
<!-- numbergen.NumberGenerator&#45;&gt;numbergen.RandomDistribution -->
<g id="edge22" class="edge"><title>numbergen.NumberGenerator&#45;&gt;numbergen.RandomDistribution</title>
<path fill="none" stroke="black" stroke-width="0.5" d="M393.515,-124C405.097,-124 417.065,-124 428.8,-124"/>
<polygon fill="black" stroke="black" points="428.814,-125.75 433.814,-124 428.814,-122.25 428.814,-125.75"/>
</g>
<!-- numbergen.UnaryOperator -->
<g id="node12" class="node"><title>numbergen.UnaryOperator</title>
<polygon fill="none" stroke="black" stroke-width="0.5" points="592,-96.5 446,-96.5 446,-75.5 592,-75.5 592,-96.5"/>
<text text-anchor="middle" x="519" y="-83.5" font-family="Vera" font-size="10.00">numbergen.UnaryOperator</text>
</g>
<!-- numbergen.NumberGenerator&#45;&gt;numbergen.UnaryOperator -->
<g id="edge10" class="edge"><title>numbergen.NumberGenerator&#45;&gt;numbergen.UnaryOperator</title>
<path fill="none" stroke="black" stroke-width="0.5" d="M366.658,-113.966C395.192,-108.728 430.152,-102.31 459.382,-96.9443"/>
<polygon fill="black" stroke="black" points="459.794,-98.6482 464.395,-96.024 459.162,-95.2057 459.794,-98.6482"/>
</g>
<!-- numbergen.BoundedNumber -->
<g id="node20" class="node"><title>numbergen.BoundedNumber</title>
<polygon fill="none" stroke="black" stroke-width="0.5" points="597,-58.5 441,-58.5 441,-37.5 597,-37.5 597,-58.5"/>
<text text-anchor="middle" x="519" y="-45.5" font-family="Vera" font-size="10.00">numbergen.BoundedNumber</text>
</g>
<!-- numbergen.NumberGenerator&#45;&gt;numbergen.BoundedNumber -->
<g id="edge18" class="edge"><title>numbergen.NumberGenerator&#45;&gt;numbergen.BoundedNumber</title>
<path fill="none" stroke="black" stroke-width="0.5" d="M329.427,-113.934C351.968,-101.305 392.767,-79.7601 430,-67 438.575,-64.0612 447.777,-61.4853 456.894,-59.2572"/>
<polygon fill="black" stroke="black" points="457.487,-60.9151 461.946,-58.0551 456.677,-57.5102 457.487,-60.9151"/>
</g>
<!-- numbergen.UniformRandomOffset -->
<g id="node8" class="node"><title>numbergen.UniformRandomOffset</title>
<polygon fill="none" stroke="black" stroke-width="0.5" points="826,-210.5 644,-210.5 644,-189.5 826,-189.5 826,-210.5"/>
<text text-anchor="middle" x="735" y="-197.5" font-family="Vera" font-size="10.00">numbergen.UniformRandomOffset</text>
</g>
<!-- numbergen.RandomDistribution&#45;&gt;numbergen.UniformRandomOffset -->
<g id="edge6" class="edge"><title>numbergen.RandomDistribution&#45;&gt;numbergen.UniformRandomOffset</title>
<path fill="none" stroke="black" stroke-width="0.5" d="M587.153,-134.047C594.426,-136.426 601.524,-139.366 608,-143 628.288,-154.385 623.686,-169.661 644,-181 649.064,-183.827 654.5,-186.235 660.103,-188.285"/>
<polygon fill="black" stroke="black" points="659.548,-189.945 664.845,-189.925 660.692,-186.637 659.548,-189.945"/>
</g>
<!-- numbergen.UniformRandom -->
<g id="node14" class="node"><title>numbergen.UniformRandom</title>
<polygon fill="none" stroke="black" stroke-width="0.5" points="811,-172.5 659,-172.5 659,-151.5 811,-151.5 811,-172.5"/>
<text text-anchor="middle" x="735" y="-159.5" font-family="Vera" font-size="10.00">numbergen.UniformRandom</text>
</g>
<!-- numbergen.RandomDistribution&#45;&gt;numbergen.UniformRandom -->
<g id="edge12" class="edge"><title>numbergen.RandomDistribution&#45;&gt;numbergen.UniformRandom</title>
<path fill="none" stroke="black" stroke-width="0.5" d="M576.034,-134.034C605.809,-139.272 642.289,-145.69 672.79,-151.056"/>
<polygon fill="black" stroke="black" points="672.794,-152.833 678.021,-151.976 673.4,-149.386 672.794,-152.833"/>
</g>
<!-- numbergen.VonMisesRandom -->
<g id="node16" class="node"><title>numbergen.VonMisesRandom</title>
<polygon fill="none" stroke="black" stroke-width="0.5" points="815,-134.5 655,-134.5 655,-113.5 815,-113.5 815,-134.5"/>
<text text-anchor="middle" x="735" y="-121.5" font-family="Vera" font-size="10.00">numbergen.VonMisesRandom</text>
</g>
<!-- numbergen.RandomDistribution&#45;&gt;numbergen.VonMisesRandom -->
<g id="edge14" class="edge"><title>numbergen.RandomDistribution&#45;&gt;numbergen.VonMisesRandom</title>
<path fill="none" stroke="black" stroke-width="0.5" d="M604.059,-124C619.12,-124 634.806,-124 649.869,-124"/>
<polygon fill="black" stroke="black" points="649.952,-125.75 654.952,-124 649.952,-122.25 649.952,-125.75"/>
</g>
<!-- numbergen.NormalRandom -->
<g id="node22" class="node"><title>numbergen.NormalRandom</title>
<polygon fill="none" stroke="black" stroke-width="0.5" points="810,-96.5 660,-96.5 660,-75.5 810,-75.5 810,-96.5"/>
<text text-anchor="middle" x="735" y="-83.5" font-family="Vera" font-size="10.00">numbergen.NormalRandom</text>
</g>
<!-- numbergen.RandomDistribution&#45;&gt;numbergen.NormalRandom -->
<g id="edge20" class="edge"><title>numbergen.RandomDistribution&#45;&gt;numbergen.NormalRandom</title>
<path fill="none" stroke="black" stroke-width="0.5" d="M576.034,-113.966C605.809,-108.728 642.289,-102.31 672.79,-96.9443"/>
<polygon fill="black" stroke="black" points="673.4,-98.614 678.021,-96.024 672.794,-95.1669 673.4,-98.614"/>
</g>
<!-- numbergen.Choice -->
<g id="node25" class="node"><title>numbergen.Choice</title>
<polygon fill="none" stroke="black" stroke-width="0.5" points="788,-58.5 682,-58.5 682,-37.5 788,-37.5 788,-58.5"/>
<text text-anchor="middle" x="735" y="-45.5" font-family="Vera" font-size="10.00">numbergen.Choice</text>
</g>
<!-- numbergen.RandomDistribution&#45;&gt;numbergen.Choice -->
<g id="edge24" class="edge"><title>numbergen.RandomDistribution&#45;&gt;numbergen.Choice</title>
<path fill="none" stroke="black" stroke-width="0.5" d="M587.153,-113.953C594.426,-111.574 601.524,-108.634 608,-105 628.288,-93.615 623.686,-78.3394 644,-67 653.777,-61.5426 664.937,-57.6477 676.014,-54.8693"/>
<polygon fill="black" stroke="black" points="676.628,-56.5224 681.092,-53.6697 675.824,-53.1162 676.628,-56.5224"/>
</g>
<!-- numbergen.UniformRandomInt -->
<g id="node28" class="node"><title>numbergen.UniformRandomInt</title>
<polygon fill="none" stroke="black" stroke-width="0.5" points="817,-20.5 653,-20.5 653,0.5 817,0.5 817,-20.5"/>
<text text-anchor="middle" x="735" y="-7.5" font-family="Vera" font-size="10.00">numbergen.UniformRandomInt</text>
</g>
<!-- numbergen.RandomDistribution&#45;&gt;numbergen.UniformRandomInt -->
<g id="edge28" class="edge"><title>numbergen.RandomDistribution&#45;&gt;numbergen.UniformRandomInt</title>
<path fill="none" stroke="black" stroke-width="0.5" d="M593.332,-113.841C598.574,-111.442 603.54,-108.529 608,-105 637.31,-81.8086 614.638,-52.1255 644,-29 647.138,-26.5285 650.52,-24.3573 654.069,-22.4514"/>
<polygon fill="black" stroke="black" points="655.297,-23.7967 659.005,-20.0136 653.747,-20.6585 655.297,-23.7967"/>
</g>
</g>
</svg>
