<?xml version="1.0" encoding="UTF-8" standalone="no"?>
<!DOCTYPE svg PUBLIC "-//W3C//DTD SVG 1.1//EN"
 "http://www.w3.org/Graphics/SVG/1.1/DTD/svg11.dtd">
<!-- Generated by graphviz version 2.26.3 (20100126.1600)
 -->
<!-- Title: inheritance8f5bd8f20a Pages: 1 -->
<svg width="798pt" height="66pt"
 viewBox="0.00 0.00 798.00 66.00" xmlns="http://www.w3.org/2000/svg" xmlns:xlink="http://www.w3.org/1999/xlink">
<g id="graph1" class="graph" transform="scale(1 1) rotate(0) translate(4 62)">
<title>inheritance8f5bd8f20a</title>
<polygon fill="white" stroke="white" points="-4,5 -4,-62 795,-62 795,5 -4,5"/>
<!-- topo.sheet.composer.Composer -->
<g id="node1" class="node"><title>topo.sheet.composer.Composer</title>
<polygon fill="none" stroke="black" stroke-width="0.5" points="790,-39 628,-39 628,-19 790,-19 790,-39"/>
<text text-anchor="middle" x="709" y="-26" font-family="Vera" font-size="10.00">topo.sheet.composer.Composer</text>
</g>
<!-- topo.base.sheet.Sheet -->
<g id="node2" class="node"><title>topo.base.sheet.Sheet</title>
<polygon fill="none" stroke="black" stroke-width="0.5" points="592,-39 476,-39 476,-19 592,-19 592,-39"/>
<text text-anchor="middle" x="534" y="-26" font-family="Vera" font-size="10.00">topo.base.sheet.Sheet</text>
</g>
<!-- topo.base.sheet.Sheet&#45;&gt;topo.sheet.composer.Composer -->
<g id="edge2" class="edge"><title>topo.base.sheet.Sheet&#45;&gt;topo.sheet.composer.Composer</title>
<path fill="none" stroke="black" stroke-width="0.5" d="M592.272,-29C602.099,-29 612.481,-29 622.838,-29"/>
<polygon fill="black" stroke="black" points="622.918,-30.7501 627.918,-29 622.918,-27.2501 622.918,-30.7501"/>
</g>
<!-- topo.base.simulation.EventProcessor -->
<g id="node4" class="node"><title>topo.base.simulation.EventProcessor</title>
<polygon fill="none" stroke="black" stroke-width="0.5" points="422,-58 238,-58 238,-38 422,-38 422,-58"/>
<text text-anchor="middle" x="330" y="-45" font-family="Vera" font-size="10.00">topo.base.simulation.EventProcessor</text>
</g>
<!-- topo.base.simulation.EventProcessor&#45;&gt;topo.base.sheet.Sheet -->
<g id="edge6" class="edge"><title>topo.base.simulation.EventProcessor&#45;&gt;topo.base.sheet.Sheet</title>
<path fill="none" stroke="black" stroke-width="0.5" d="M422.152,-39.4172C438.564,-37.8886 455.319,-36.3281 470.696,-34.8959"/>
<polygon fill="black" stroke="black" points="471.04,-36.6216 475.856,-34.4154 470.715,-33.1367 471.04,-36.6216"/>
</g>
<!-- param.parameterized.Parameterized -->
<g id="node5" class="node"><title>param.parameterized.Parameterized</title>
<polygon fill="none" stroke="black" stroke-width="0.5" points="184,-58 8.52651e-14,-58 0,-38 184,-38 184,-58"/>
<text text-anchor="middle" x="92" y="-45" font-family="Vera" font-size="10.00">param.parameterized.Parameterized</text>
</g>
<!-- param.parameterized.Parameterized&#45;&gt;topo.base.simulation.EventProcessor -->
<g id="edge4" class="edge"><title>param.parameterized.Parameterized&#45;&gt;topo.base.simulation.EventProcessor</title>
<path fill="none" stroke="black" stroke-width="0.5" d="M184.017,-48C199.882,-48 216.423,-48 232.429,-48"/>
<polygon fill="black" stroke="black" points="232.835,-49.7501 237.835,-48 232.835,-46.2501 232.835,-49.7501"/>
</g>
<!-- imagen.sheetcoords.SheetCoordinateSystem -->
<g id="node7" class="node"><title>imagen.sheetcoords.SheetCoordinateSystem</title>
<polygon fill="none" stroke="black" stroke-width="0.5" points="439,-20 221,-20 221,-1.06581e-14 439,-3.55271e-15 439,-20"/>
<text text-anchor="middle" x="330" y="-7" font-family="Vera" font-size="10.00">imagen.sheetcoords.SheetCoordinateSystem</text>
</g>
<!-- imagen.sheetcoords.SheetCoordinateSystem&#45;&gt;topo.base.sheet.Sheet -->
<g id="edge8" class="edge"><title>imagen.sheetcoords.SheetCoordinateSystem&#45;&gt;topo.base.sheet.Sheet</title>
<path fill="none" stroke="black" stroke-width="0.5" d="M437.377,-20.0008C448.76,-21.061 460.054,-22.1129 470.69,-23.1035"/>
<polygon fill="black" stroke="black" points="470.715,-24.8633 475.855,-23.5846 471.039,-21.3783 470.715,-24.8633"/>
</g>
</g>
</svg>
