<?xml version="1.0" encoding="UTF-8" standalone="no"?>
<!DOCTYPE svg PUBLIC "-//W3C//DTD SVG 1.1//EN"
 "http://www.w3.org/Graphics/SVG/1.1/DTD/svg11.dtd">
<!-- Generated by graphviz version 2.26.3 (20100126.1600)
 -->
<!-- Title: inheritance273a80740e Pages: 1 -->
<svg width="876pt" height="940pt"
 viewBox="0.00 0.00 876.00 940.00" xmlns="http://www.w3.org/2000/svg" xmlns:xlink="http://www.w3.org/1999/xlink">
<g id="graph1" class="graph" transform="scale(1 1) rotate(0) translate(4 936)">
<title>inheritance273a80740e</title>
<polygon fill="white" stroke="white" points="-4,5 -4,-936 873,-936 873,5 -4,5"/>
<!-- imagen.SeparatedComposite -->
<g id="node1" class="node"><title>imagen.SeparatedComposite</title>
<polygon fill="none" stroke="black" stroke-width="0.5" points="868,-894.5 710,-894.5 710,-873.5 868,-873.5 868,-894.5"/>
<text text-anchor="middle" x="789" y="-881.5" font-family="Vera" font-size="10.00">imagen.SeparatedComposite</text>
</g>
<!-- imagen.Composite -->
<g id="node2" class="node"><title>imagen.Composite</title>
<polygon fill="none" stroke="black" stroke-width="0.5" points="635,-894.5 529,-894.5 529,-873.5 635,-873.5 635,-894.5"/>
<text text-anchor="middle" x="582" y="-881.5" font-family="Vera" font-size="10.00">imagen.Composite</text>
</g>
<!-- imagen.Composite&#45;&gt;imagen.SeparatedComposite -->
<g id="edge2" class="edge"><title>imagen.Composite&#45;&gt;imagen.SeparatedComposite</title>
<path fill="none" stroke="black" stroke-width="0.5" d="M635.577,-884C656.626,-884 681.297,-884 704.625,-884"/>
<polygon fill="black" stroke="black" points="704.893,-885.75 709.893,-884 704.892,-882.25 704.893,-885.75"/>
</g>
<!-- imagen.Rectangle -->
<g id="node4" class="node"><title>imagen.Rectangle</title>
<polygon fill="none" stroke="black" stroke-width="0.5" points="633,-856.5 531,-856.5 531,-835.5 633,-835.5 633,-856.5"/>
<text text-anchor="middle" x="582" y="-843.5" font-family="Vera" font-size="10.00">imagen.Rectangle</text>
</g>
<!-- imagen.TwoRectangles -->
<g id="node67" class="node"><title>imagen.TwoRectangles</title>
<polygon fill="none" stroke="black" stroke-width="0.5" points="851,-856.5 727,-856.5 727,-835.5 851,-835.5 851,-856.5"/>
<text text-anchor="middle" x="789" y="-843.5" font-family="Vera" font-size="10.00">imagen.TwoRectangles</text>
</g>
<!-- imagen.Rectangle&#45;&gt;imagen.TwoRectangles -->
<g id="edge66" class="edge"><title>imagen.Rectangle&#45;&gt;imagen.TwoRectangles</title>
<path fill="none" stroke="black" stroke-width="0.5" d="M633.169,-846C659.881,-846 692.903,-846 721.665,-846"/>
<polygon fill="black" stroke="black" points="721.983,-847.75 726.983,-846 721.983,-844.25 721.983,-847.75"/>
</g>
<!-- imagen.patterngenerator.PatternGenerator -->
<g id="node5" class="node"><title>imagen.patterngenerator.PatternGenerator</title>
<polygon fill="none" stroke="black" stroke-width="0.5" points="454,-457.5 230,-457.5 230,-436.5 454,-436.5 454,-457.5"/>
<text text-anchor="middle" x="342" y="-444.5" font-family="Vera" font-size="10.00">imagen.patterngenerator.PatternGenerator</text>
</g>
<!-- imagen.patterngenerator.PatternGenerator&#45;&gt;imagen.Composite -->
<g id="edge16" class="edge"><title>imagen.patterngenerator.PatternGenerator&#45;&gt;imagen.Composite</title>
<path fill="none" stroke="black" stroke-width="0.5" d="M344.205,-457.259C356.982,-515.776 423.271,-806.818 490,-865 499.25,-873.065 511.012,-878.031 523.008,-881.022"/>
<polygon fill="black" stroke="black" points="522.895,-882.791 528.158,-882.186 523.667,-879.377 522.895,-882.791"/>
</g>
<!-- imagen.patterngenerator.PatternGenerator&#45;&gt;imagen.Rectangle -->
<g id="edge4" class="edge"><title>imagen.patterngenerator.PatternGenerator&#45;&gt;imagen.Rectangle</title>
<path fill="none" stroke="black" stroke-width="0.5" d="M342.586,-457.178C346.009,-506.641 367.778,-723.734 490,-827 500.008,-835.456 512.795,-840.476 525.631,-843.384"/>
<polygon fill="black" stroke="black" points="525.489,-845.141 530.739,-844.433 526.193,-841.712 525.489,-845.141"/>
</g>
<!-- imagen.Ring -->
<g id="node7" class="node"><title>imagen.Ring</title>
<polygon fill="none" stroke="black" stroke-width="0.5" points="620,-818.5 544,-818.5 544,-797.5 620,-797.5 620,-818.5"/>
<text text-anchor="middle" x="582" y="-805.5" font-family="Vera" font-size="10.00">imagen.Ring</text>
</g>
<!-- imagen.patterngenerator.PatternGenerator&#45;&gt;imagen.Ring -->
<g id="edge6" class="edge"><title>imagen.patterngenerator.PatternGenerator&#45;&gt;imagen.Ring</title>
<path fill="none" stroke="black" stroke-width="0.5" d="M343.054,-457.096C348.456,-503.427 377.339,-697.332 490,-789 503.528,-800.008 521.808,-805.134 538.509,-807.372"/>
<polygon fill="black" stroke="black" points="538.463,-809.129 543.634,-807.978 538.874,-805.653 538.463,-809.129"/>
</g>
<!-- imagen.SineGrating -->
<g id="node13" class="node"><title>imagen.SineGrating</title>
<polygon fill="none" stroke="black" stroke-width="0.5" points="638,-780.5 526,-780.5 526,-759.5 638,-759.5 638,-780.5"/>
<text text-anchor="middle" x="582" y="-767.5" font-family="Vera" font-size="10.00">imagen.SineGrating</text>
</g>
<!-- imagen.patterngenerator.PatternGenerator&#45;&gt;imagen.SineGrating -->
<g id="edge30" class="edge"><title>imagen.patterngenerator.PatternGenerator&#45;&gt;imagen.SineGrating</title>
<path fill="none" stroke="black" stroke-width="0.5" d="M343.642,-457.137C351.211,-500.38 386.877,-670.851 490,-751 498.934,-757.943 509.782,-762.519 520.85,-765.5"/>
<polygon fill="black" stroke="black" points="520.672,-767.258 525.946,-766.76 521.512,-763.861 520.672,-767.258"/>
</g>
<!-- imagen.LogGaussian -->
<g id="node15" class="node"><title>imagen.LogGaussian</title>
<polygon fill="none" stroke="black" stroke-width="0.5" points="640,-742.5 524,-742.5 524,-721.5 640,-721.5 640,-742.5"/>
<text text-anchor="middle" x="582" y="-729.5" font-family="Vera" font-size="10.00">imagen.LogGaussian</text>
</g>
<!-- imagen.patterngenerator.PatternGenerator&#45;&gt;imagen.LogGaussian -->
<g id="edge12" class="edge"><title>imagen.patterngenerator.PatternGenerator&#45;&gt;imagen.LogGaussian</title>
<path fill="none" stroke="black" stroke-width="0.5" d="M344.397,-457.219C354.341,-497.199 396.286,-644.188 490,-713 498.36,-719.139 508.244,-723.4 518.378,-726.338"/>
<polygon fill="black" stroke="black" points="518.085,-728.071 523.368,-727.676 518.992,-724.69 518.085,-728.071"/>
</g>
<!-- imagen.ExponentialDecay -->
<g id="node22" class="node"><title>imagen.ExponentialDecay</title>
<polygon fill="none" stroke="black" stroke-width="0.5" points="652,-704.5 512,-704.5 512,-683.5 652,-683.5 652,-704.5"/>
<text text-anchor="middle" x="582" y="-691.5" font-family="Vera" font-size="10.00">imagen.ExponentialDecay</text>
</g>
<!-- imagen.patterngenerator.PatternGenerator&#45;&gt;imagen.ExponentialDecay -->
<g id="edge20" class="edge"><title>imagen.patterngenerator.PatternGenerator&#45;&gt;imagen.ExponentialDecay</title>
<path fill="none" stroke="black" stroke-width="0.5" d="M345.371,-457.24C357.895,-493.576 405.443,-617.232 490,-675 495.05,-678.45 500.595,-681.297 506.381,-683.644"/>
<polygon fill="black" stroke="black" points="505.996,-685.369 511.292,-685.499 507.233,-682.095 505.996,-685.369"/>
</g>
<!-- imagen.Arc -->
<g id="node24" class="node"><title>imagen.Arc</title>
<polygon fill="none" stroke="black" stroke-width="0.5" points="617,-666.5 547,-666.5 547,-645.5 617,-645.5 617,-666.5"/>
<text text-anchor="middle" x="582" y="-653.5" font-family="Vera" font-size="10.00">imagen.Arc</text>
</g>
<!-- imagen.patterngenerator.PatternGenerator&#45;&gt;imagen.Arc -->
<g id="edge22" class="edge"><title>imagen.patterngenerator.PatternGenerator&#45;&gt;imagen.Arc</title>
<path fill="none" stroke="black" stroke-width="0.5" d="M346.723,-457.3C362.136,-489.668 414.37,-589.969 490,-637 505.187,-646.444 524.244,-651.284 541.068,-653.731"/>
<polygon fill="black" stroke="black" points="541.024,-655.49 546.211,-654.416 541.486,-652.021 541.024,-655.49"/>
</g>
<!-- imagen.Line -->
<g id="node26" class="node"><title>imagen.Line</title>
<polygon fill="none" stroke="black" stroke-width="0.5" points="619,-628.5 545,-628.5 545,-607.5 619,-607.5 619,-628.5"/>
<text text-anchor="middle" x="582" y="-615.5" font-family="Vera" font-size="10.00">imagen.Line</text>
</g>
<!-- imagen.patterngenerator.PatternGenerator&#45;&gt;imagen.Line -->
<g id="edge24" class="edge"><title>imagen.patterngenerator.PatternGenerator&#45;&gt;imagen.Line</title>
<path fill="none" stroke="black" stroke-width="0.5" d="M348.572,-457.145C367.101,-484.853 422.812,-562.191 490,-599 505.036,-607.238 523.237,-611.914 539.468,-614.564"/>
<polygon fill="black" stroke="black" points="539.23,-616.298 544.437,-615.324 539.759,-612.838 539.23,-616.298"/>
</g>
<!-- imagen.HalfPlane -->
<g id="node28" class="node"><title>imagen.HalfPlane</title>
<polygon fill="none" stroke="black" stroke-width="0.5" points="632,-590.5 532,-590.5 532,-569.5 632,-569.5 632,-590.5"/>
<text text-anchor="middle" x="582" y="-577.5" font-family="Vera" font-size="10.00">imagen.HalfPlane</text>
</g>
<!-- imagen.patterngenerator.PatternGenerator&#45;&gt;imagen.HalfPlane -->
<g id="edge26" class="edge"><title>imagen.patterngenerator.PatternGenerator&#45;&gt;imagen.HalfPlane</title>
<path fill="none" stroke="black" stroke-width="0.5" d="M351.684,-457.097C373.872,-479.589 431.039,-533.959 490,-561 501.155,-566.116 513.702,-569.866 525.858,-572.611"/>
<polygon fill="black" stroke="black" points="525.782,-574.385 531.038,-573.727 526.519,-570.964 525.782,-574.385"/>
</g>
<!-- imagen.Selector -->
<g id="node30" class="node"><title>imagen.Selector</title>
<polygon fill="none" stroke="black" stroke-width="0.5" points="629,-552.5 535,-552.5 535,-531.5 629,-531.5 629,-552.5"/>
<text text-anchor="middle" x="582" y="-539.5" font-family="Vera" font-size="10.00">imagen.Selector</text>
</g>
<!-- imagen.patterngenerator.PatternGenerator&#45;&gt;imagen.Selector -->
<g id="edge28" class="edge"><title>imagen.patterngenerator.PatternGenerator&#45;&gt;imagen.Selector</title>
<path fill="none" stroke="black" stroke-width="0.5" d="M358.209,-457.194C384.757,-473.453 439.606,-505.229 490,-523 502.356,-527.357 516.018,-530.851 528.948,-533.594"/>
<polygon fill="black" stroke="black" points="528.803,-535.351 534.054,-534.647 529.51,-531.923 528.803,-535.351"/>
</g>
<!-- imagen.RawRectangle -->
<g id="node36" class="node"><title>imagen.RawRectangle</title>
<polygon fill="none" stroke="black" stroke-width="0.5" points="642,-514.5 522,-514.5 522,-493.5 642,-493.5 642,-514.5"/>
<text text-anchor="middle" x="582" y="-501.5" font-family="Vera" font-size="10.00">imagen.RawRectangle</text>
</g>
<!-- imagen.patterngenerator.PatternGenerator&#45;&gt;imagen.RawRectangle -->
<g id="edge34" class="edge"><title>imagen.patterngenerator.PatternGenerator&#45;&gt;imagen.RawRectangle</title>
<path fill="none" stroke="black" stroke-width="0.5" d="M378.982,-457.017C408.848,-464.981 452.009,-476.205 490,-485 501.678,-487.704 514.235,-490.421 526.202,-492.921"/>
<polygon fill="black" stroke="black" points="526.039,-494.675 531.29,-493.979 526.751,-491.248 526.039,-494.675"/>
</g>
<!-- imagen.patterngenerator.Constant -->
<g id="node38" class="node"><title>imagen.patterngenerator.Constant</title>
<polygon fill="none" stroke="black" stroke-width="0.5" points="674,-476.5 490,-476.5 490,-455.5 674,-455.5 674,-476.5"/>
<text text-anchor="middle" x="582" y="-463.5" font-family="Vera" font-size="10.00">imagen.patterngenerator.Constant</text>
</g>
<!-- imagen.patterngenerator.PatternGenerator&#45;&gt;imagen.patterngenerator.Constant -->
<g id="edge36" class="edge"><title>imagen.patterngenerator.PatternGenerator&#45;&gt;imagen.patterngenerator.Constant</title>
<path fill="none" stroke="black" stroke-width="0.5" d="M454.27,-455.888C464.451,-456.694 474.707,-457.506 484.742,-458.3"/>
<polygon fill="black" stroke="black" points="484.846,-460.064 489.968,-458.714 485.122,-456.575 484.846,-460.064"/>
</g>
<!-- imagen.SquareGrating -->
<g id="node40" class="node"><title>imagen.SquareGrating</title>
<polygon fill="none" stroke="black" stroke-width="0.5" points="644,-438.5 520,-438.5 520,-417.5 644,-417.5 644,-438.5"/>
<text text-anchor="middle" x="582" y="-425.5" font-family="Vera" font-size="10.00">imagen.SquareGrating</text>
</g>
<!-- imagen.patterngenerator.PatternGenerator&#45;&gt;imagen.SquareGrating -->
<g id="edge38" class="edge"><title>imagen.patterngenerator.PatternGenerator&#45;&gt;imagen.SquareGrating</title>
<path fill="none" stroke="black" stroke-width="0.5" d="M454.27,-438.112C474.677,-436.496 495.384,-434.857 514.015,-433.382"/>
<polygon fill="black" stroke="black" points="514.367,-435.11 519.213,-432.971 514.091,-431.621 514.367,-435.11"/>
</g>
<!-- imagen.Sweeper -->
<g id="node42" class="node"><title>imagen.Sweeper</title>
<polygon fill="none" stroke="black" stroke-width="0.5" points="630,-400.5 534,-400.5 534,-379.5 630,-379.5 630,-400.5"/>
<text text-anchor="middle" x="582" y="-387.5" font-family="Vera" font-size="10.00">imagen.Sweeper</text>
</g>
<!-- imagen.patterngenerator.PatternGenerator&#45;&gt;imagen.Sweeper -->
<g id="edge40" class="edge"><title>imagen.patterngenerator.PatternGenerator&#45;&gt;imagen.Sweeper</title>
<path fill="none" stroke="black" stroke-width="0.5" d="M420.515,-436.949C431.895,-434.553 443.353,-431.609 454,-428 471.134,-422.192 472.972,-415.112 490,-409 502.061,-404.671 515.384,-401.209 528.06,-398.49"/>
<polygon fill="black" stroke="black" points="528.531,-400.18 533.068,-397.447 527.817,-396.753 528.531,-400.18"/>
</g>
<!-- imagen.PowerSpectrum -->
<g id="node44" class="node"><title>imagen.PowerSpectrum</title>
<polygon fill="none" stroke="black" stroke-width="0.5" points="647,-362.5 517,-362.5 517,-341.5 647,-341.5 647,-362.5"/>
<text text-anchor="middle" x="582" y="-349.5" font-family="Vera" font-size="10.00">imagen.PowerSpectrum</text>
</g>
<!-- imagen.patterngenerator.PatternGenerator&#45;&gt;imagen.PowerSpectrum -->
<g id="edge42" class="edge"><title>imagen.patterngenerator.PatternGenerator&#45;&gt;imagen.PowerSpectrum</title>
<path fill="none" stroke="black" stroke-width="0.5" d="M436.846,-436.968C442.881,-434.512 448.666,-431.554 454,-428 478.935,-411.386 465.365,-388.056 490,-371 496.552,-366.464 503.954,-362.967 511.643,-360.279"/>
<polygon fill="black" stroke="black" points="512.251,-361.921 516.462,-358.707 511.166,-358.593 512.251,-361.921"/>
</g>
<!-- imagen.Sigmoid -->
<g id="node46" class="node"><title>imagen.Sigmoid</title>
<polygon fill="none" stroke="black" stroke-width="0.5" points="629,-324.5 535,-324.5 535,-303.5 629,-303.5 629,-324.5"/>
<text text-anchor="middle" x="582" y="-311.5" font-family="Vera" font-size="10.00">imagen.Sigmoid</text>
</g>
<!-- imagen.patterngenerator.PatternGenerator&#45;&gt;imagen.Sigmoid -->
<g id="edge44" class="edge"><title>imagen.patterngenerator.PatternGenerator&#45;&gt;imagen.Sigmoid</title>
<path fill="none" stroke="black" stroke-width="0.5" d="M440.125,-436.98C445.063,-434.476 449.735,-431.508 454,-428 488.872,-399.318 455.644,-362.298 490,-333 500.942,-323.669 515.26,-318.512 529.331,-315.76"/>
<polygon fill="black" stroke="black" points="529.875,-317.441 534.497,-314.852 529.269,-313.994 529.875,-317.441"/>
</g>
<!-- imagen.DifferenceOfGaussians -->
<g id="node48" class="node"><title>imagen.DifferenceOfGaussians</title>
<polygon fill="none" stroke="black" stroke-width="0.5" points="664,-286.5 500,-286.5 500,-265.5 664,-265.5 664,-286.5"/>
<text text-anchor="middle" x="582" y="-273.5" font-family="Vera" font-size="10.00">imagen.DifferenceOfGaussians</text>
</g>
<!-- imagen.patterngenerator.PatternGenerator&#45;&gt;imagen.DifferenceOfGaussians -->
<g id="edge46" class="edge"><title>imagen.patterngenerator.PatternGenerator&#45;&gt;imagen.DifferenceOfGaussians</title>
<path fill="none" stroke="black" stroke-width="0.5" d="M441.576,-436.896C446.023,-434.39 450.204,-431.447 454,-428 499.336,-386.832 445.404,-336.968 490,-295 492.416,-292.726 495.029,-290.694 497.793,-288.879"/>
<polygon fill="black" stroke="black" points="498.866,-290.275 502.253,-286.202 497.065,-287.274 498.866,-290.275"/>
</g>
<!-- imagen.Translator -->
<g id="node52" class="node"><title>imagen.Translator</title>
<polygon fill="none" stroke="black" stroke-width="0.5" points="633,-248.5 531,-248.5 531,-227.5 633,-227.5 633,-248.5"/>
<text text-anchor="middle" x="582" y="-235.5" font-family="Vera" font-size="10.00">imagen.Translator</text>
</g>
<!-- imagen.patterngenerator.PatternGenerator&#45;&gt;imagen.Translator -->
<g id="edge50" class="edge"><title>imagen.patterngenerator.PatternGenerator&#45;&gt;imagen.Translator</title>
<path fill="none" stroke="black" stroke-width="0.5" d="M442.322,-436.855C446.517,-434.348 450.445,-431.417 454,-428 509.991,-374.176 434.977,-311.813 490,-257 499.486,-247.55 512.351,-242.207 525.45,-239.309"/>
<polygon fill="black" stroke="black" points="526.105,-240.964 530.672,-238.28 525.428,-237.53 526.105,-240.964"/>
</g>
<!-- imagen.SigmoidedDoG -->
<g id="node54" class="node"><title>imagen.SigmoidedDoG</title>
<polygon fill="none" stroke="black" stroke-width="0.5" points="646,-210.5 518,-210.5 518,-189.5 646,-189.5 646,-210.5"/>
<text text-anchor="middle" x="582" y="-197.5" font-family="Vera" font-size="10.00">imagen.SigmoidedDoG</text>
</g>
<!-- imagen.patterngenerator.PatternGenerator&#45;&gt;imagen.SigmoidedDoG -->
<g id="edge52" class="edge"><title>imagen.patterngenerator.PatternGenerator&#45;&gt;imagen.SigmoidedDoG</title>
<path fill="none" stroke="black" stroke-width="0.5" d="M442.975,-436.706C446.942,-434.226 450.649,-431.343 454,-428 520.734,-361.435 424.462,-286.743 490,-219 496.315,-212.473 504.236,-207.886 512.765,-204.704"/>
<polygon fill="black" stroke="black" points="513.387,-206.342 517.56,-203.078 512.263,-203.027 513.387,-206.342"/>
</g>
<!-- imagen.Gaussian -->
<g id="node57" class="node"><title>imagen.Gaussian</title>
<polygon fill="none" stroke="black" stroke-width="0.5" points="632,-172.5 532,-172.5 532,-151.5 632,-151.5 632,-172.5"/>
<text text-anchor="middle" x="582" y="-159.5" font-family="Vera" font-size="10.00">imagen.Gaussian</text>
</g>
<!-- imagen.patterngenerator.PatternGenerator&#45;&gt;imagen.Gaussian -->
<g id="edge56" class="edge"><title>imagen.patterngenerator.PatternGenerator&#45;&gt;imagen.Gaussian</title>
<path fill="none" stroke="black" stroke-width="0.5" d="M443.082,-436.812C447.02,-434.304 450.692,-431.386 454,-428 531.525,-348.646 413.9,-261.722 490,-181 499.565,-170.854 513.004,-165.365 526.661,-162.555"/>
<polygon fill="black" stroke="black" points="527.09,-164.256 531.695,-161.638 526.463,-160.813 527.09,-164.256"/>
</g>
<!-- imagen.Disk -->
<g id="node59" class="node"><title>imagen.Disk</title>
<polygon fill="none" stroke="black" stroke-width="0.5" points="620,-134.5 544,-134.5 544,-113.5 620,-113.5 620,-134.5"/>
<text text-anchor="middle" x="582" y="-121.5" font-family="Vera" font-size="10.00">imagen.Disk</text>
</g>
<!-- imagen.patterngenerator.PatternGenerator&#45;&gt;imagen.Disk -->
<g id="edge58" class="edge"><title>imagen.patterngenerator.PatternGenerator&#45;&gt;imagen.Disk</title>
<path fill="none" stroke="black" stroke-width="0.5" d="M443.162,-436.889C447.079,-434.361 450.725,-431.417 454,-428 542.345,-335.828 403.31,-236.73 490,-143 502.244,-129.762 521.072,-124.415 538.513,-122.611"/>
<polygon fill="black" stroke="black" points="539.037,-124.324 543.873,-122.161 538.744,-120.836 539.037,-124.324"/>
</g>
<!-- imagen.Gabor -->
<g id="node61" class="node"><title>imagen.Gabor</title>
<polygon fill="none" stroke="black" stroke-width="0.5" points="624,-96.5 540,-96.5 540,-75.5 624,-75.5 624,-96.5"/>
<text text-anchor="middle" x="582" y="-83.5" font-family="Vera" font-size="10.00">imagen.Gabor</text>
</g>
<!-- imagen.patterngenerator.PatternGenerator&#45;&gt;imagen.Gabor -->
<g id="edge60" class="edge"><title>imagen.patterngenerator.PatternGenerator&#45;&gt;imagen.Gabor</title>
<path fill="none" stroke="black" stroke-width="0.5" d="M443.223,-436.948C447.125,-434.404 450.75,-431.441 454,-428 553.183,-322.991 392.702,-211.758 490,-105 501.151,-92.765 517.922,-87.2452 534.103,-85.039"/>
<polygon fill="black" stroke="black" points="534.335,-86.7739 539.099,-84.4569 533.93,-83.2974 534.335,-86.7739"/>
</g>
<!-- imagen.SigmoidedDoLG -->
<g id="node63" class="node"><title>imagen.SigmoidedDoLG</title>
<polygon fill="none" stroke="black" stroke-width="0.5" points="648,-58.5 516,-58.5 516,-37.5 648,-37.5 648,-58.5"/>
<text text-anchor="middle" x="582" y="-45.5" font-family="Vera" font-size="10.00">imagen.SigmoidedDoLG</text>
</g>
<!-- imagen.patterngenerator.PatternGenerator&#45;&gt;imagen.SigmoidedDoLG -->
<g id="edge62" class="edge"><title>imagen.patterngenerator.PatternGenerator&#45;&gt;imagen.SigmoidedDoLG</title>
<path fill="none" stroke="black" stroke-width="0.5" d="M443.273,-436.994C447.161,-434.438 450.77,-431.46 454,-428 509.017,-369.07 436.041,-126.9 490,-67 495.605,-60.7783 502.662,-56.288 510.363,-53.0849"/>
<polygon fill="black" stroke="black" points="511.171,-54.651 515.235,-51.2529 509.939,-51.375 511.171,-54.651"/>
</g>
<!-- imagen.GaussiansCorner -->
<g id="node65" class="node"><title>imagen.GaussiansCorner</title>
<polygon fill="none" stroke="black" stroke-width="0.5" points="650,-20.5 514,-20.5 514,0.5 650,0.5 650,-20.5"/>
<text text-anchor="middle" x="582" y="-7.5" font-family="Vera" font-size="10.00">imagen.GaussiansCorner</text>
</g>
<!-- imagen.patterngenerator.PatternGenerator&#45;&gt;imagen.GaussiansCorner -->
<g id="edge64" class="edge"><title>imagen.patterngenerator.PatternGenerator&#45;&gt;imagen.GaussiansCorner</title>
<path fill="none" stroke="black" stroke-width="0.5" d="M443.796,-436.709C447.49,-434.215 450.92,-431.33 454,-428 514.447,-362.64 430.726,-95.426 490,-29 495.117,-23.2654 501.468,-18.9982 508.425,-15.8526"/>
<polygon fill="black" stroke="black" points="509.362,-17.36 513.33,-13.8497 508.039,-14.1197 509.362,-17.36"/>
</g>
<!-- imagen.TimeSeriesParam -->
<g id="node9" class="node"><title>imagen.TimeSeriesParam</title>
<polygon fill="none" stroke="black" stroke-width="0.5" points="859,-932.5 719,-932.5 719,-911.5 859,-911.5 859,-932.5"/>
<text text-anchor="middle" x="789" y="-919.5" font-family="Vera" font-size="10.00">imagen.TimeSeriesParam</text>
</g>
<!-- param.ClassSelector -->
<g id="node10" class="node"><title>param.ClassSelector</title>
<polygon fill="none" stroke="black" stroke-width="0.5" points="640,-932.5 524,-932.5 524,-911.5 640,-911.5 640,-932.5"/>
<text text-anchor="middle" x="582" y="-919.5" font-family="Vera" font-size="10.00">param.ClassSelector</text>
</g>
<!-- param.ClassSelector&#45;&gt;imagen.TimeSeriesParam -->
<g id="edge8" class="edge"><title>param.ClassSelector&#45;&gt;imagen.TimeSeriesParam</title>
<path fill="none" stroke="black" stroke-width="0.5" d="M640.212,-922C662.986,-922 689.405,-922 713.606,-922"/>
<polygon fill="black" stroke="black" points="713.734,-923.75 718.734,-922 713.734,-920.25 713.734,-923.75"/>
</g>
<!-- imagen.OrientationContrast -->
<g id="node12" class="node"><title>imagen.OrientationContrast</title>
<polygon fill="none" stroke="black" stroke-width="0.5" points="864,-780.5 714,-780.5 714,-759.5 864,-759.5 864,-780.5"/>
<text text-anchor="middle" x="789" y="-767.5" font-family="Vera" font-size="10.00">imagen.OrientationContrast</text>
</g>
<!-- imagen.SineGrating&#45;&gt;imagen.OrientationContrast -->
<g id="edge10" class="edge"><title>imagen.SineGrating&#45;&gt;imagen.OrientationContrast</title>
<path fill="none" stroke="black" stroke-width="0.5" d="M638.017,-770C659.815,-770 685.2,-770 708.866,-770"/>
<polygon fill="black" stroke="black" points="708.888,-771.75 713.888,-770 708.887,-768.25 708.888,-771.75"/>
</g>
<!-- param.parameterized.Parameterized -->
<g id="node17" class="node"><title>param.parameterized.Parameterized</title>
<polygon fill="none" stroke="black" stroke-width="0.5" points="194,-438.5 5.68434e-14,-438.5 0,-417.5 194,-417.5 194,-438.5"/>
<text text-anchor="middle" x="97" y="-425.5" font-family="Vera" font-size="10.00">param.parameterized.Parameterized</text>
</g>
<!-- param.parameterized.Parameterized&#45;&gt;imagen.patterngenerator.PatternGenerator -->
<g id="edge14" class="edge"><title>param.parameterized.Parameterized&#45;&gt;imagen.patterngenerator.PatternGenerator</title>
<path fill="none" stroke="black" stroke-width="0.5" d="M194.182,-435.537C204.286,-436.32 214.629,-437.122 224.922,-437.92"/>
<polygon fill="black" stroke="black" points="224.849,-439.67 229.969,-438.312 225.12,-436.18 224.849,-439.67"/>
</g>
<!-- imagen.TimeSeries -->
<g id="node20" class="node"><title>imagen.TimeSeries</title>
<polygon fill="none" stroke="black" stroke-width="0.5" points="396,-419.5 288,-419.5 288,-398.5 396,-398.5 396,-419.5"/>
<text text-anchor="middle" x="342" y="-406.5" font-family="Vera" font-size="10.00">imagen.TimeSeries</text>
</g>
<!-- param.parameterized.Parameterized&#45;&gt;imagen.TimeSeries -->
<g id="edge18" class="edge"><title>param.parameterized.Parameterized&#45;&gt;imagen.TimeSeries</title>
<path fill="none" stroke="black" stroke-width="0.5" d="M194.182,-420.463C223.866,-418.161 255.624,-415.699 282.066,-413.648"/>
<polygon fill="black" stroke="black" points="282.431,-415.375 287.281,-413.244 282.161,-411.885 282.431,-415.375"/>
</g>
<!-- imagen.Curve -->
<g id="node69" class="node"><title>imagen.Curve</title>
<polygon fill="none" stroke="black" stroke-width="0.5" points="830,-666.5 748,-666.5 748,-645.5 830,-645.5 830,-666.5"/>
<text text-anchor="middle" x="789" y="-653.5" font-family="Vera" font-size="10.00">imagen.Curve</text>
</g>
<!-- imagen.Arc&#45;&gt;imagen.Curve -->
<g id="edge68" class="edge"><title>imagen.Arc&#45;&gt;imagen.Curve</title>
<path fill="none" stroke="black" stroke-width="0.5" d="M617.585,-656C652.1,-656 704.658,-656 742.474,-656"/>
<polygon fill="black" stroke="black" points="742.476,-657.75 747.476,-656 742.476,-654.25 742.476,-657.75"/>
</g>
<!-- param.Selector -->
<g id="node33" class="node"><title>param.Selector</title>
<polygon fill="none" stroke="black" stroke-width="0.5" points="387,-932.5 297,-932.5 297,-911.5 387,-911.5 387,-932.5"/>
<text text-anchor="middle" x="342" y="-919.5" font-family="Vera" font-size="10.00">param.Selector</text>
</g>
<!-- param.Selector&#45;&gt;param.ClassSelector -->
<g id="edge54" class="edge"><title>param.Selector&#45;&gt;param.ClassSelector</title>
<path fill="none" stroke="black" stroke-width="0.5" d="M387.707,-922C424.748,-922 477.358,-922 518.494,-922"/>
<polygon fill="black" stroke="black" points="518.706,-923.75 523.706,-922 518.706,-920.25 518.706,-923.75"/>
</g>
<!-- param.parameterized.Parameter -->
<g id="node34" class="node"><title>param.parameterized.Parameter</title>
<polygon fill="none" stroke="black" stroke-width="0.5" points="184,-932.5 10,-932.5 10,-911.5 184,-911.5 184,-932.5"/>
<text text-anchor="middle" x="97" y="-919.5" font-family="Vera" font-size="10.00">param.parameterized.Parameter</text>
</g>
<!-- param.parameterized.Parameter&#45;&gt;param.Selector -->
<g id="edge32" class="edge"><title>param.parameterized.Parameter&#45;&gt;param.Selector</title>
<path fill="none" stroke="black" stroke-width="0.5" d="M184.759,-922C220.453,-922 260.436,-922 291.152,-922"/>
<polygon fill="black" stroke="black" points="291.387,-923.75 296.387,-922 291.387,-920.25 291.387,-923.75"/>
</g>
<!-- imagen.Null -->
<g id="node71" class="node"><title>imagen.Null</title>
<polygon fill="none" stroke="black" stroke-width="0.5" points="826,-476.5 752,-476.5 752,-455.5 826,-455.5 826,-476.5"/>
<text text-anchor="middle" x="789" y="-463.5" font-family="Vera" font-size="10.00">imagen.Null</text>
</g>
<!-- imagen.patterngenerator.Constant&#45;&gt;imagen.Null -->
<g id="edge70" class="edge"><title>imagen.patterngenerator.Constant&#45;&gt;imagen.Null</title>
<path fill="none" stroke="black" stroke-width="0.5" d="M674.3,-466C699.545,-466 725.69,-466 746.63,-466"/>
<polygon fill="black" stroke="black" points="746.839,-467.75 751.839,-466 746.838,-464.25 746.839,-467.75"/>
</g>
<!-- imagen.Spectrogram -->
<g id="node50" class="node"><title>imagen.Spectrogram</title>
<polygon fill="none" stroke="black" stroke-width="0.5" points="848,-362.5 730,-362.5 730,-341.5 848,-341.5 848,-362.5"/>
<text text-anchor="middle" x="789" y="-349.5" font-family="Vera" font-size="10.00">imagen.Spectrogram</text>
</g>
<!-- imagen.PowerSpectrum&#45;&gt;imagen.Spectrogram -->
<g id="edge48" class="edge"><title>imagen.PowerSpectrum&#45;&gt;imagen.Spectrogram</title>
<path fill="none" stroke="black" stroke-width="0.5" d="M647.781,-352C672.206,-352 699.878,-352 724.214,-352"/>
<polygon fill="black" stroke="black" points="724.354,-353.75 729.354,-352 724.354,-350.25 724.354,-353.75"/>
</g>
</g>
</svg>
