<?xml version="1.0" encoding="UTF-8" standalone="no"?>
<!DOCTYPE svg PUBLIC "-//W3C//DTD SVG 1.1//EN"
 "http://www.w3.org/Graphics/SVG/1.1/DTD/svg11.dtd">
<!-- Generated by graphviz version 2.26.3 (20100126.1600)
 -->
<!-- Title: inheritance5a1c78b06b Pages: 1 -->
<svg width="650pt" height="28pt"
 viewBox="0.00 0.00 650.00 28.00" xmlns="http://www.w3.org/2000/svg" xmlns:xlink="http://www.w3.org/1999/xlink">
<g id="graph1" class="graph" transform="scale(1 1) rotate(0) translate(4 24)">
<title>inheritance5a1c78b06b</title>
<polygon fill="white" stroke="white" points="-4,5 -4,-24 647,-24 647,5 -4,5"/>
<!-- param.parameterized.Parameterized -->
<g id="node1" class="node"><title>param.parameterized.Parameterized</title>
<polygon fill="none" stroke="black" stroke-width="0.5" points="184,-20 8.52651e-14,-20 0,-1.06581e-14 184,-3.55271e-15 184,-20"/>
<text text-anchor="middle" x="92" y="-7" font-family="Vera" font-size="10.00">param.parameterized.Parameterized</text>
</g>
<!-- imagen.patterngenerator.PatternGenerator -->
<g id="node3" class="node"><title>imagen.patterngenerator.PatternGenerator</title>
<polygon fill="none" stroke="black" stroke-width="0.5" points="432,-20 220,-20 220,-1.06581e-14 432,-3.55271e-15 432,-20"/>
<text text-anchor="middle" x="326" y="-7" font-family="Vera" font-size="10.00">imagen.patterngenerator.PatternGenerator</text>
</g>
<!-- param.parameterized.Parameterized&#45;&gt;imagen.patterngenerator.PatternGenerator -->
<g id="edge4" class="edge"><title>param.parameterized.Parameterized&#45;&gt;imagen.patterngenerator.PatternGenerator</title>
<path fill="none" stroke="black" stroke-width="0.5" d="M184.147,-10C194.259,-10 204.63,-10 214.94,-10"/>
<polygon fill="black" stroke="black" points="214.995,-11.7501 219.994,-10 214.994,-8.2501 214.995,-11.7501"/>
</g>
<!-- imagen.patterngenerator.Constant -->
<g id="node2" class="node"><title>imagen.patterngenerator.Constant</title>
<polygon fill="none" stroke="black" stroke-width="0.5" points="642,-20 468,-20 468,-1.06581e-14 642,-3.55271e-15 642,-20"/>
<text text-anchor="middle" x="555" y="-7" font-family="Vera" font-size="10.00">imagen.patterngenerator.Constant</text>
</g>
<!-- imagen.patterngenerator.PatternGenerator&#45;&gt;imagen.patterngenerator.Constant -->
<g id="edge2" class="edge"><title>imagen.patterngenerator.PatternGenerator&#45;&gt;imagen.patterngenerator.Constant</title>
<path fill="none" stroke="black" stroke-width="0.5" d="M432.12,-10C442.283,-10 452.533,-10 462.55,-10"/>
<polygon fill="black" stroke="black" points="462.765,-11.7501 467.765,-10 462.765,-8.2501 462.765,-11.7501"/>
</g>
</g>
</svg>
