<?xml version="1.0" encoding="UTF-8" standalone="no"?>
<!DOCTYPE svg PUBLIC "-//W3C//DTD SVG 1.1//EN"
 "http://www.w3.org/Graphics/SVG/1.1/DTD/svg11.dtd">
<!-- Generated by graphviz version 2.26.3 (20100126.1600)
 -->
<!-- Title: inheritance03c0df95af Pages: 1 -->
<svg width="1728pt" height="104pt"
 viewBox="0.00 0.00 1728.00 104.00" xmlns="http://www.w3.org/2000/svg" xmlns:xlink="http://www.w3.org/1999/xlink">
<g id="graph1" class="graph" transform="scale(1 1) rotate(0) translate(4 100)">
<title>inheritance03c0df95af</title>
<polygon fill="white" stroke="white" points="-4,5 -4,-100 1725,-100 1725,5 -4,5"/>
<!-- topo.base.projection.NeighborhoodMask -->
<g id="node1" class="node"><title>topo.base.projection.NeighborhoodMask</title>
<polygon fill="none" stroke="black" stroke-width="0.5" points="678,-96 476,-96 476,-76 678,-76 678,-96"/>
<text text-anchor="middle" x="577" y="-83" font-family="Vera" font-size="10.00">topo.base.projection.NeighborhoodMask</text>
</g>
<!-- topo.sheet.optimized.NeighborhoodMask_Opt -->
<g id="node11" class="node"><title>topo.sheet.optimized.NeighborhoodMask_Opt</title>
<polygon fill="none" stroke="black" stroke-width="0.5" points="940,-96 714,-96 714,-76 940,-76 940,-96"/>
<text text-anchor="middle" x="827" y="-83" font-family="Vera" font-size="10.00">topo.sheet.optimized.NeighborhoodMask_Opt</text>
</g>
<!-- topo.base.projection.NeighborhoodMask&#45;&gt;topo.sheet.optimized.NeighborhoodMask_Opt -->
<g id="edge8" class="edge"><title>topo.base.projection.NeighborhoodMask&#45;&gt;topo.sheet.optimized.NeighborhoodMask_Opt</title>
<path fill="none" stroke="black" stroke-width="0.5" d="M678.324,-86C688.236,-86 698.355,-86 708.418,-86"/>
<polygon fill="black" stroke="black" points="708.674,-87.7501 713.674,-86 708.674,-84.2501 708.674,-87.7501"/>
</g>
<!-- topo.base.projection.SheetMask -->
<g id="node2" class="node"><title>topo.base.projection.SheetMask</title>
<polygon fill="none" stroke="black" stroke-width="0.5" points="411,-96 249,-96 249,-76 411,-76 411,-96"/>
<text text-anchor="middle" x="330" y="-83" font-family="Vera" font-size="10.00">topo.base.projection.SheetMask</text>
</g>
<!-- topo.base.projection.SheetMask&#45;&gt;topo.base.projection.NeighborhoodMask -->
<g id="edge2" class="edge"><title>topo.base.projection.SheetMask&#45;&gt;topo.base.projection.NeighborhoodMask</title>
<path fill="none" stroke="black" stroke-width="0.5" d="M411.219,-86C430.274,-86 450.855,-86 470.821,-86"/>
<polygon fill="black" stroke="black" points="470.882,-87.7501 475.882,-86 470.882,-84.2501 470.882,-87.7501"/>
</g>
<!-- topo.base.projection.ProjectionSheet -->
<g id="node4" class="node"><title>topo.base.projection.ProjectionSheet</title>
<polygon fill="none" stroke="black" stroke-width="0.5" points="919,-39 735,-39 735,-19 919,-19 919,-39"/>
<text text-anchor="middle" x="827" y="-26" font-family="Vera" font-size="10.00">topo.base.projection.ProjectionSheet</text>
</g>
<!-- topo.base.cf.CFSheet -->
<g id="node15" class="node"><title>topo.base.cf.CFSheet</title>
<polygon fill="none" stroke="black" stroke-width="0.5" points="1087,-39 977,-39 977,-19 1087,-19 1087,-39"/>
<text text-anchor="middle" x="1032" y="-26" font-family="Vera" font-size="10.00">topo.base.cf.CFSheet</text>
</g>
<!-- topo.base.projection.ProjectionSheet&#45;&gt;topo.base.cf.CFSheet -->
<g id="edge22" class="edge"><title>topo.base.projection.ProjectionSheet&#45;&gt;topo.base.cf.CFSheet</title>
<path fill="none" stroke="black" stroke-width="0.5" d="M919.006,-29C936.755,-29 954.928,-29 971.367,-29"/>
<polygon fill="black" stroke="black" points="971.41,-30.7501 976.41,-29 971.41,-27.2501 971.41,-30.7501"/>
</g>
<!-- topo.base.sheet.Sheet -->
<g id="node5" class="node"><title>topo.base.sheet.Sheet</title>
<polygon fill="none" stroke="black" stroke-width="0.5" points="635,-39 519,-39 519,-19 635,-19 635,-39"/>
<text text-anchor="middle" x="577" y="-26" font-family="Vera" font-size="10.00">topo.base.sheet.Sheet</text>
</g>
<!-- topo.base.sheet.Sheet&#45;&gt;topo.base.projection.ProjectionSheet -->
<g id="edge4" class="edge"><title>topo.base.sheet.Sheet&#45;&gt;topo.base.projection.ProjectionSheet</title>
<path fill="none" stroke="black" stroke-width="0.5" d="M635.298,-29C663.374,-29 697.8,-29 729.692,-29"/>
<polygon fill="black" stroke="black" points="729.788,-30.7501 734.788,-29 729.788,-27.2501 729.788,-30.7501"/>
</g>
<!-- param.parameterized.Parameterized -->
<g id="node7" class="node"><title>param.parameterized.Parameterized</title>
<polygon fill="none" stroke="black" stroke-width="0.5" points="184,-77 8.52651e-14,-77 0,-57 184,-57 184,-77"/>
<text text-anchor="middle" x="92" y="-64" font-family="Vera" font-size="10.00">param.parameterized.Parameterized</text>
</g>
<!-- param.parameterized.Parameterized&#45;&gt;topo.base.projection.SheetMask -->
<g id="edge20" class="edge"><title>param.parameterized.Parameterized&#45;&gt;topo.base.projection.SheetMask</title>
<path fill="none" stroke="black" stroke-width="0.5" d="M184.017,-74.3459C203.506,-75.9018 224.015,-77.539 243.299,-79.0785"/>
<polygon fill="black" stroke="black" points="243.58,-80.8564 248.704,-79.51 243.859,-77.3675 243.58,-80.8564"/>
</g>
<!-- topo.base.simulation.EventProcessor -->
<g id="node18" class="node"><title>topo.base.simulation.EventProcessor</title>
<polygon fill="none" stroke="black" stroke-width="0.5" points="422,-58 238,-58 238,-38 422,-38 422,-58"/>
<text text-anchor="middle" x="330" y="-45" font-family="Vera" font-size="10.00">topo.base.simulation.EventProcessor</text>
</g>
<!-- param.parameterized.Parameterized&#45;&gt;topo.base.simulation.EventProcessor -->
<g id="edge14" class="edge"><title>param.parameterized.Parameterized&#45;&gt;topo.base.simulation.EventProcessor</title>
<path fill="none" stroke="black" stroke-width="0.5" d="M184.017,-59.6541C200.02,-58.3765 216.711,-57.0441 232.847,-55.7559"/>
<polygon fill="black" stroke="black" points="232.99,-57.5001 237.835,-55.3577 232.712,-54.0112 232.99,-57.5001"/>
</g>
<!-- topo.sheet.SettlingCFSheet -->
<g id="node8" class="node"><title>topo.sheet.SettlingCFSheet</title>
<polygon fill="none" stroke="black" stroke-width="0.5" points="1477,-39 1341,-39 1341,-19 1477,-19 1477,-39"/>
<text text-anchor="middle" x="1409" y="-26" font-family="Vera" font-size="10.00">topo.sheet.SettlingCFSheet</text>
</g>
<!-- topo.sheet.optimized.SettlingCFSheet_Opt -->
<g id="node13" class="node"><title>topo.sheet.optimized.SettlingCFSheet_Opt</title>
<polygon fill="none" stroke="black" stroke-width="0.5" points="1720,-39 1514,-39 1514,-19 1720,-19 1720,-39"/>
<text text-anchor="middle" x="1617" y="-26" font-family="Vera" font-size="10.00">topo.sheet.optimized.SettlingCFSheet_Opt</text>
</g>
<!-- topo.sheet.SettlingCFSheet&#45;&gt;topo.sheet.optimized.SettlingCFSheet_Opt -->
<g id="edge10" class="edge"><title>topo.sheet.SettlingCFSheet&#45;&gt;topo.sheet.optimized.SettlingCFSheet_Opt</title>
<path fill="none" stroke="black" stroke-width="0.5" d="M1477.68,-29C1487.65,-29 1498.11,-29 1508.62,-29"/>
<polygon fill="black" stroke="black" points="1508.79,-30.7501 1513.79,-29 1508.79,-27.2501 1508.79,-30.7501"/>
</g>
<!-- topo.sheet.JointNormalizingCFSheet -->
<g id="node9" class="node"><title>topo.sheet.JointNormalizingCFSheet</title>
<polygon fill="none" stroke="black" stroke-width="0.5" points="1303,-39 1125,-39 1125,-19 1303,-19 1303,-39"/>
<text text-anchor="middle" x="1214" y="-26" font-family="Vera" font-size="10.00">topo.sheet.JointNormalizingCFSheet</text>
</g>
<!-- topo.sheet.JointNormalizingCFSheet&#45;&gt;topo.sheet.SettlingCFSheet -->
<g id="edge6" class="edge"><title>topo.sheet.JointNormalizingCFSheet&#45;&gt;topo.sheet.SettlingCFSheet</title>
<path fill="none" stroke="black" stroke-width="0.5" d="M1303.51,-29C1314.18,-29 1324.98,-29 1335.39,-29"/>
<polygon fill="black" stroke="black" points="1335.46,-30.7501 1340.46,-29 1335.46,-27.2501 1335.46,-30.7501"/>
</g>
<!-- topo.base.cf.CFSheet&#45;&gt;topo.sheet.JointNormalizingCFSheet -->
<g id="edge12" class="edge"><title>topo.base.cf.CFSheet&#45;&gt;topo.sheet.JointNormalizingCFSheet</title>
<path fill="none" stroke="black" stroke-width="0.5" d="M1087.59,-29C1097.57,-29 1108.21,-29 1118.93,-29"/>
<polygon fill="black" stroke="black" points="1119.2,-30.7501 1124.2,-29 1119.2,-27.2501 1119.2,-30.7501"/>
</g>
<!-- imagen.sheetcoords.SheetCoordinateSystem -->
<g id="node17" class="node"><title>imagen.sheetcoords.SheetCoordinateSystem</title>
<polygon fill="none" stroke="black" stroke-width="0.5" points="439,-20 221,-20 221,-1.06581e-14 439,-3.55271e-15 439,-20"/>
<text text-anchor="middle" x="330" y="-7" font-family="Vera" font-size="10.00">imagen.sheetcoords.SheetCoordinateSystem</text>
</g>
<!-- imagen.sheetcoords.SheetCoordinateSystem&#45;&gt;topo.base.sheet.Sheet -->
<g id="edge18" class="edge"><title>imagen.sheetcoords.SheetCoordinateSystem&#45;&gt;topo.base.sheet.Sheet</title>
<path fill="none" stroke="black" stroke-width="0.5" d="M439.776,-18.4443C465.051,-20.3885 491.101,-22.3924 513.623,-24.1249"/>
<polygon fill="black" stroke="black" points="513.551,-25.8744 518.671,-24.5132 513.82,-22.3847 513.551,-25.8744"/>
</g>
<!-- topo.base.simulation.EventProcessor&#45;&gt;topo.base.sheet.Sheet -->
<g id="edge16" class="edge"><title>topo.base.simulation.EventProcessor&#45;&gt;topo.base.sheet.Sheet</title>
<path fill="none" stroke="black" stroke-width="0.5" d="M422.325,-40.8981C452.768,-38.5563 485.915,-36.0065 513.688,-33.8702"/>
<polygon fill="black" stroke="black" points="513.958,-35.6047 518.809,-33.4762 513.689,-32.115 513.958,-35.6047"/>
</g>
</g>
</svg>
