<?xml version="1.0" encoding="UTF-8" standalone="no"?>
<!DOCTYPE svg PUBLIC "-//W3C//DTD SVG 1.1//EN"
 "http://www.w3.org/Graphics/SVG/1.1/DTD/svg11.dtd">
<!-- Generated by graphviz version 2.26.3 (20100126.1600)
 -->
<!-- Title: inheritanceae4e107fd6 Pages: 1 -->
<svg width="420pt" height="66pt"
 viewBox="0.00 0.00 420.00 66.00" xmlns="http://www.w3.org/2000/svg" xmlns:xlink="http://www.w3.org/1999/xlink">
<g id="graph1" class="graph" transform="scale(1 1) rotate(0) translate(4 62)">
<title>inheritanceae4e107fd6</title>
<polygon fill="white" stroke="white" points="-4,5 -4,-62 417,-62 417,5 -4,5"/>
<!-- unittest.case.TestCase -->
<g id="node1" class="node"><title>unittest.case.TestCase</title>
<polygon fill="none" stroke="black" stroke-width="0.5" points="116,-39 4.9738e-14,-39 0,-19 116,-19 116,-39"/>
<text text-anchor="middle" x="58" y="-26" font-family="Vera" font-size="10.00">unittest.case.TestCase</text>
</g>
<!-- topo.tests.unit.testfeaturemap.TestFeatureMaps -->
<g id="node2" class="node"><title>topo.tests.unit.testfeaturemap.TestFeatureMaps</title>
<polygon fill="none" stroke="black" stroke-width="0.5" points="399,-58 165,-58 165,-38 399,-38 399,-58"/>
<text text-anchor="middle" x="282" y="-45" font-family="Vera" font-size="10.00">topo.tests.unit.testfeaturemap.TestFeatureMaps</text>
</g>
<!-- unittest.case.TestCase&#45;&gt;topo.tests.unit.testfeaturemap.TestFeatureMaps -->
<g id="edge2" class="edge"><title>unittest.case.TestCase&#45;&gt;topo.tests.unit.testfeaturemap.TestFeatureMaps</title>
<path fill="none" stroke="black" stroke-width="0.5" d="M116.269,-33.9424C129.778,-35.0883 144.655,-36.3502 159.783,-37.6333"/>
<polygon fill="black" stroke="black" points="159.791,-39.3902 164.921,-38.0692 160.087,-35.9028 159.791,-39.3902"/>
</g>
<!-- topo.tests.unit.testfeaturemap.TestDistributionMatrix -->
<g id="node4" class="node"><title>topo.tests.unit.testfeaturemap.TestDistributionMatrix</title>
<polygon fill="none" stroke="black" stroke-width="0.5" points="411,-20 153,-20 153,-1.06581e-14 411,-3.55271e-15 411,-20"/>
<text text-anchor="middle" x="282" y="-7" font-family="Vera" font-size="10.00">topo.tests.unit.testfeaturemap.TestDistributionMatrix</text>
</g>
<!-- unittest.case.TestCase&#45;&gt;topo.tests.unit.testfeaturemap.TestDistributionMatrix -->
<g id="edge4" class="edge"><title>unittest.case.TestCase&#45;&gt;topo.tests.unit.testfeaturemap.TestDistributionMatrix</title>
<path fill="none" stroke="black" stroke-width="0.5" d="M116.269,-24.0576C129.545,-22.9314 144.143,-21.6933 159,-20.433"/>
<polygon fill="black" stroke="black" points="159.213,-22.1713 164.048,-20.0049 158.917,-18.6838 159.213,-22.1713"/>
</g>
</g>
</svg>
