<?xml version="1.0" encoding="UTF-8" standalone="no"?>
<!DOCTYPE svg PUBLIC "-//W3C//DTD SVG 1.1//EN"
 "http://www.w3.org/Graphics/SVG/1.1/DTD/svg11.dtd">
<!-- Generated by graphviz version 2.26.3 (20100126.1600)
 -->
<!-- Title: inheritance9cc735fe36 Pages: 1 -->
<svg width="648pt" height="66pt"
 viewBox="0.00 0.00 648.00 66.00" xmlns="http://www.w3.org/2000/svg" xmlns:xlink="http://www.w3.org/1999/xlink">
<g id="graph1" class="graph" transform="scale(1 1) rotate(0) translate(4 62)">
<title>inheritance9cc735fe36</title>
<polygon fill="white" stroke="white" points="-4,5 -4,-62 645,-62 645,5 -4,5"/>
<!-- topo.responsefn.projfn.CFPRF_ActivityBased -->
<g id="node1" class="node"><title>topo.responsefn.projfn.CFPRF_ActivityBased</title>
<polygon fill="none" stroke="black" stroke-width="0.5" points="629,-58 413,-58 413,-38 629,-38 629,-58"/>
<text text-anchor="middle" x="521" y="-45" font-family="Vera" font-size="10.00">topo.responsefn.projfn.CFPRF_ActivityBased</text>
</g>
<!-- topo.base.cf.CFPResponseFn -->
<g id="node2" class="node"><title>topo.base.cf.CFPResponseFn</title>
<polygon fill="none" stroke="black" stroke-width="0.5" points="366,-39 220,-39 220,-19 366,-19 366,-39"/>
<text text-anchor="middle" x="293" y="-26" font-family="Vera" font-size="10.00">topo.base.cf.CFPResponseFn</text>
</g>
<!-- topo.base.cf.CFPResponseFn&#45;&gt;topo.responsefn.projfn.CFPRF_ActivityBased -->
<g id="edge2" class="edge"><title>topo.base.cf.CFPResponseFn&#45;&gt;topo.responsefn.projfn.CFPRF_ActivityBased</title>
<path fill="none" stroke="black" stroke-width="0.5" d="M366.081,-35.0901C379.306,-36.1922 393.378,-37.3648 407.441,-38.5367"/>
<polygon fill="black" stroke="black" points="407.492,-40.2969 412.62,-38.9683 407.782,-36.809 407.492,-40.2969"/>
</g>
<!-- topo.responsefn.projfn.CFPRF_EuclideanDistance -->
<g id="node6" class="node"><title>topo.responsefn.projfn.CFPRF_EuclideanDistance</title>
<polygon fill="none" stroke="black" stroke-width="0.5" points="640,-20 402,-20 402,-1.06581e-14 640,-3.55271e-15 640,-20"/>
<text text-anchor="middle" x="521" y="-7" font-family="Vera" font-size="10.00">topo.responsefn.projfn.CFPRF_EuclideanDistance</text>
</g>
<!-- topo.base.cf.CFPResponseFn&#45;&gt;topo.responsefn.projfn.CFPRF_EuclideanDistance -->
<g id="edge6" class="edge"><title>topo.base.cf.CFPResponseFn&#45;&gt;topo.responsefn.projfn.CFPRF_EuclideanDistance</title>
<path fill="none" stroke="black" stroke-width="0.5" d="M366.081,-22.9099C375.932,-22.089 386.252,-21.229 396.688,-20.3593"/>
<polygon fill="black" stroke="black" points="396.982,-22.091 401.82,-19.9317 396.692,-18.6031 396.982,-22.091"/>
</g>
<!-- param.parameterized.Parameterized -->
<g id="node4" class="node"><title>param.parameterized.Parameterized</title>
<polygon fill="none" stroke="black" stroke-width="0.5" points="184,-39 8.52651e-14,-39 0,-19 184,-19 184,-39"/>
<text text-anchor="middle" x="92" y="-26" font-family="Vera" font-size="10.00">param.parameterized.Parameterized</text>
</g>
<!-- param.parameterized.Parameterized&#45;&gt;topo.base.cf.CFPResponseFn -->
<g id="edge4" class="edge"><title>param.parameterized.Parameterized&#45;&gt;topo.base.cf.CFPResponseFn</title>
<path fill="none" stroke="black" stroke-width="0.5" d="M184.264,-29C194.459,-29 204.767,-29 214.765,-29"/>
<polygon fill="black" stroke="black" points="214.964,-30.7501 219.964,-29 214.964,-27.2501 214.964,-30.7501"/>
</g>
</g>
</svg>
