<?xml version="1.0" encoding="UTF-8" standalone="no"?>
<!DOCTYPE svg PUBLIC "-//W3C//DTD SVG 1.1//EN"
 "http://www.w3.org/Graphics/SVG/1.1/DTD/svg11.dtd">
<!-- Generated by graphviz version 2.26.3 (20100126.1600)
 -->
<!-- Title: inheritancea80f92a813 Pages: 1 -->
<svg width="894pt" height="189pt"
 viewBox="0.00 0.00 894.00 189.00" xmlns="http://www.w3.org/2000/svg" xmlns:xlink="http://www.w3.org/1999/xlink">
<g id="graph1" class="graph" transform="scale(1 1) rotate(0) translate(4 185)">
<title>inheritancea80f92a813</title>
<polygon fill="white" stroke="white" points="-4,5 -4,-185 891,-185 891,5 -4,5"/>
<!-- topo.learningfn.optimized.CFPLF_Scaled_opt -->
<g id="node1" class="node"><title>topo.learningfn.optimized.CFPLF_Scaled_opt</title>
<polygon fill="none" stroke="black" stroke-width="0.5" points="885,-181 669,-181 669,-161 885,-161 885,-181"/>
<text text-anchor="middle" x="777" y="-168" font-family="Vera" font-size="10.00">topo.learningfn.optimized.CFPLF_Scaled_opt</text>
</g>
<!-- topo.learningfn.projfn.CFPLF_PluginScaled -->
<g id="node2" class="node"><title>topo.learningfn.projfn.CFPLF_PluginScaled</title>
<polygon fill="none" stroke="black" stroke-width="0.5" points="619,-172 411,-172 411,-152 619,-152 619,-172"/>
<text text-anchor="middle" x="515" y="-159" font-family="Vera" font-size="10.00">topo.learningfn.projfn.CFPLF_PluginScaled</text>
</g>
<!-- topo.learningfn.projfn.CFPLF_PluginScaled&#45;&gt;topo.learningfn.optimized.CFPLF_Scaled_opt -->
<g id="edge2" class="edge"><title>topo.learningfn.projfn.CFPLF_PluginScaled&#45;&gt;topo.learningfn.optimized.CFPLF_Scaled_opt</title>
<path fill="none" stroke="black" stroke-width="0.5" d="M619.302,-165.583C633.664,-166.076 648.472,-166.585 662.998,-167.084"/>
<polygon fill="black" stroke="black" points="663.278,-168.844 668.335,-167.267 663.398,-165.347 663.278,-168.844"/>
</g>
<!-- topo.learningfn.optimized.CFPLF_Scaled -->
<g id="node20" class="node"><title>topo.learningfn.optimized.CFPLF_Scaled</title>
<polygon fill="none" stroke="black" stroke-width="0.5" points="875,-143 679,-143 679,-123 875,-123 875,-143"/>
<text text-anchor="middle" x="777" y="-130" font-family="Vera" font-size="10.00">topo.learningfn.optimized.CFPLF_Scaled</text>
</g>
<!-- topo.learningfn.projfn.CFPLF_PluginScaled&#45;&gt;topo.learningfn.optimized.CFPLF_Scaled -->
<g id="edge20" class="edge"><title>topo.learningfn.projfn.CFPLF_PluginScaled&#45;&gt;topo.learningfn.optimized.CFPLF_Scaled</title>
<path fill="none" stroke="black" stroke-width="0.5" d="M605.532,-151.979C629.974,-149.274 656.5,-146.338 681.218,-143.602"/>
<polygon fill="black" stroke="black" points="681.687,-145.311 686.464,-143.021 681.302,-141.832 681.687,-145.311"/>
</g>
<!-- topo.base.cf.CFPLearningFn -->
<g id="node4" class="node"><title>topo.base.cf.CFPLearningFn</title>
<polygon fill="none" stroke="black" stroke-width="0.5" points="362,-96 220,-96 220,-76 362,-76 362,-96"/>
<text text-anchor="middle" x="291" y="-83" font-family="Vera" font-size="10.00">topo.base.cf.CFPLearningFn</text>
</g>
<!-- topo.base.cf.CFPLearningFn&#45;&gt;topo.learningfn.projfn.CFPLF_PluginScaled -->
<g id="edge4" class="edge"><title>topo.base.cf.CFPLearningFn&#45;&gt;topo.learningfn.projfn.CFPLF_PluginScaled</title>
<path fill="none" stroke="black" stroke-width="0.5" d="M306.22,-96.1962C326.337,-109.171 363.297,-131.298 398,-143 407.133,-146.08 416.84,-148.668 426.606,-150.843"/>
<polygon fill="black" stroke="black" points="426.459,-152.601 431.716,-151.943 427.196,-149.18 426.459,-152.601"/>
</g>
<!-- topo.learningfn.optimized.CFPLF_Hebbian_opt -->
<g id="node6" class="node"><title>topo.learningfn.optimized.CFPLF_Hebbian_opt</title>
<polygon fill="none" stroke="black" stroke-width="0.5" points="628,-134 402,-134 402,-114 628,-114 628,-134"/>
<text text-anchor="middle" x="515" y="-121" font-family="Vera" font-size="10.00">topo.learningfn.optimized.CFPLF_Hebbian_opt</text>
</g>
<!-- topo.base.cf.CFPLearningFn&#45;&gt;topo.learningfn.optimized.CFPLF_Hebbian_opt -->
<g id="edge6" class="edge"><title>topo.base.cf.CFPLearningFn&#45;&gt;topo.learningfn.optimized.CFPLF_Hebbian_opt</title>
<path fill="none" stroke="black" stroke-width="0.5" d="M346.508,-96.017C363.065,-98.9616 381.26,-102.155 398,-105 413.904,-107.703 431.038,-110.532 447.158,-113.157"/>
<polygon fill="black" stroke="black" points="446.91,-114.89 452.126,-113.965 447.472,-111.435 446.91,-114.89"/>
</g>
<!-- topo.learningfn.optimized.CFPLF_Trace_opt -->
<g id="node9" class="node"><title>topo.learningfn.optimized.CFPLF_Trace_opt</title>
<polygon fill="none" stroke="black" stroke-width="0.5" points="621,-96 409,-96 409,-76 621,-76 621,-96"/>
<text text-anchor="middle" x="515" y="-83" font-family="Vera" font-size="10.00">topo.learningfn.optimized.CFPLF_Trace_opt</text>
</g>
<!-- topo.base.cf.CFPLearningFn&#45;&gt;topo.learningfn.optimized.CFPLF_Trace_opt -->
<g id="edge8" class="edge"><title>topo.base.cf.CFPLearningFn&#45;&gt;topo.learningfn.optimized.CFPLF_Trace_opt</title>
<path fill="none" stroke="black" stroke-width="0.5" d="M362.183,-86C375.418,-86 389.534,-86 403.636,-86"/>
<polygon fill="black" stroke="black" points="403.83,-87.7501 408.83,-86 403.83,-84.2501 403.83,-87.7501"/>
</g>
<!-- topo.base.cf.CFPLF_Plugin -->
<g id="node12" class="node"><title>topo.base.cf.CFPLF_Plugin</title>
<polygon fill="none" stroke="black" stroke-width="0.5" points="582,-58 448,-58 448,-38 582,-38 582,-58"/>
<text text-anchor="middle" x="515" y="-45" font-family="Vera" font-size="10.00">topo.base.cf.CFPLF_Plugin</text>
</g>
<!-- topo.base.cf.CFPLearningFn&#45;&gt;topo.base.cf.CFPLF_Plugin -->
<g id="edge12" class="edge"><title>topo.base.cf.CFPLearningFn&#45;&gt;topo.base.cf.CFPLF_Plugin</title>
<path fill="none" stroke="black" stroke-width="0.5" d="M346.508,-75.983C363.065,-73.0384 381.26,-69.8454 398,-67 413.904,-64.2968 431.038,-61.4676 447.158,-58.843"/>
<polygon fill="black" stroke="black" points="447.472,-60.5651 452.126,-58.0353 446.91,-57.1104 447.472,-60.5651"/>
</g>
<!-- topo.learningfn.optimized.CFPLF_BCMFixed_opt -->
<g id="node15" class="node"><title>topo.learningfn.optimized.CFPLF_BCMFixed_opt</title>
<polygon fill="none" stroke="black" stroke-width="0.5" points="631,-20 399,-20 399,-1.06581e-14 631,-3.55271e-15 631,-20"/>
<text text-anchor="middle" x="515" y="-7" font-family="Vera" font-size="10.00">topo.learningfn.optimized.CFPLF_BCMFixed_opt</text>
</g>
<!-- topo.base.cf.CFPLearningFn&#45;&gt;topo.learningfn.optimized.CFPLF_BCMFixed_opt -->
<g id="edge14" class="edge"><title>topo.base.cf.CFPLearningFn&#45;&gt;topo.learningfn.optimized.CFPLF_BCMFixed_opt</title>
<path fill="none" stroke="black" stroke-width="0.5" d="M306.22,-75.8038C326.337,-62.8292 363.297,-40.7021 398,-29 407.133,-25.9203 416.84,-23.3316 426.606,-21.1572"/>
<polygon fill="black" stroke="black" points="427.196,-22.8204 431.716,-20.0575 426.459,-19.3988 427.196,-22.8204"/>
</g>
<!-- param.parameterized.Parameterized -->
<g id="node8" class="node"><title>param.parameterized.Parameterized</title>
<polygon fill="none" stroke="black" stroke-width="0.5" points="184,-96 8.52651e-14,-96 0,-76 184,-76 184,-96"/>
<text text-anchor="middle" x="92" y="-83" font-family="Vera" font-size="10.00">param.parameterized.Parameterized</text>
</g>
<!-- param.parameterized.Parameterized&#45;&gt;topo.base.cf.CFPLearningFn -->
<g id="edge16" class="edge"><title>param.parameterized.Parameterized&#45;&gt;topo.base.cf.CFPLearningFn</title>
<path fill="none" stroke="black" stroke-width="0.5" d="M184.218,-86C194.434,-86 204.754,-86 214.742,-86"/>
<polygon fill="black" stroke="black" points="214.932,-87.7501 219.932,-86 214.932,-84.2501 214.932,-87.7501"/>
</g>
<!-- topo.learningfn.optimized.CFPLF_BCMFixed -->
<g id="node11" class="node"><title>topo.learningfn.optimized.CFPLF_BCMFixed</title>
<polygon fill="none" stroke="black" stroke-width="0.5" points="883,-86 671,-86 671,-66 883,-66 883,-86"/>
<text text-anchor="middle" x="777" y="-73" font-family="Vera" font-size="10.00">topo.learningfn.optimized.CFPLF_BCMFixed</text>
</g>
<!-- topo.base.cf.CFPLF_Plugin&#45;&gt;topo.learningfn.optimized.CFPLF_BCMFixed -->
<g id="edge10" class="edge"><title>topo.base.cf.CFPLF_Plugin&#45;&gt;topo.learningfn.optimized.CFPLF_BCMFixed</title>
<path fill="none" stroke="black" stroke-width="0.5" d="M582.131,-55.1743C611.346,-58.2965 646.172,-62.0184 678.248,-65.4463"/>
<polygon fill="black" stroke="black" points="678.213,-67.2025 683.371,-65.9938 678.585,-63.7223 678.213,-67.2025"/>
</g>
<!-- topo.learningfn.optimized.CFPLF_Hebbian -->
<g id="node18" class="node"><title>topo.learningfn.optimized.CFPLF_Hebbian</title>
<polygon fill="none" stroke="black" stroke-width="0.5" points="880,-48 674,-48 674,-28 880,-28 880,-48"/>
<text text-anchor="middle" x="777" y="-35" font-family="Vera" font-size="10.00">topo.learningfn.optimized.CFPLF_Hebbian</text>
</g>
<!-- topo.base.cf.CFPLF_Plugin&#45;&gt;topo.learningfn.optimized.CFPLF_Hebbian -->
<g id="edge18" class="edge"><title>topo.base.cf.CFPLF_Plugin&#45;&gt;topo.learningfn.optimized.CFPLF_Hebbian</title>
<path fill="none" stroke="black" stroke-width="0.5" d="M582.131,-45.4377C608.503,-44.4312 639.446,-43.2501 668.812,-42.1293"/>
<polygon fill="black" stroke="black" points="668.962,-43.875 673.891,-41.9354 668.828,-40.3775 668.962,-43.875"/>
</g>
</g>
</svg>
