<?xml version="1.0" encoding="UTF-8" standalone="no"?>
<!DOCTYPE svg PUBLIC "-//W3C//DTD SVG 1.1//EN"
 "http://www.w3.org/Graphics/SVG/1.1/DTD/svg11.dtd">
<!-- Generated by graphviz version 2.26.3 (20100126.1600)
 -->
<!-- Title: inheritance4018997248 Pages: 1 -->
<svg width="350pt" height="142pt"
 viewBox="0.00 0.00 350.00 142.00" xmlns="http://www.w3.org/2000/svg" xmlns:xlink="http://www.w3.org/1999/xlink">
<g id="graph1" class="graph" transform="scale(1 1) rotate(0) translate(4 138)">
<title>inheritance4018997248</title>
<polygon fill="white" stroke="white" points="-4,5 -4,-138 347,-138 347,5 -4,5"/>
<!-- topo.misc.util.ModuleImporter -->
<g id="node1" class="node"><title>topo.misc.util.ModuleImporter</title>
<polygon fill="none" stroke="black" stroke-width="0.5" points="157,-20 1,-20 1,-1.06581e-14 157,-3.55271e-15 157,-20"/>
<text text-anchor="middle" x="79" y="-7" font-family="Vera" font-size="10.00">topo.misc.util.ModuleImporter</text>
</g>
<!-- topo.misc.util.gmpyImporter -->
<g id="node5" class="node"><title>topo.misc.util.gmpyImporter</title>
<polygon fill="none" stroke="black" stroke-width="0.5" points="341,-20 195,-20 195,-1.06581e-14 341,-3.55271e-15 341,-20"/>
<text text-anchor="middle" x="268" y="-7" font-family="Vera" font-size="10.00">topo.misc.util.gmpyImporter</text>
</g>
<!-- topo.misc.util.ModuleImporter&#45;&gt;topo.misc.util.gmpyImporter -->
<g id="edge2" class="edge"><title>topo.misc.util.ModuleImporter&#45;&gt;topo.misc.util.gmpyImporter</title>
<path fill="none" stroke="black" stroke-width="0.5" d="M157.511,-10C167.97,-10 178.698,-10 189.163,-10"/>
<polygon fill="black" stroke="black" points="189.277,-11.7501 194.276,-10 189.276,-8.2501 189.277,-11.7501"/>
</g>
<!-- topo.misc.util.MultiFile -->
<g id="node2" class="node"><title>topo.misc.util.MultiFile</title>
<polygon fill="none" stroke="black" stroke-width="0.5" points="139,-58 19,-58 19,-38 139,-38 139,-58"/>
<text text-anchor="middle" x="79" y="-45" font-family="Vera" font-size="10.00">topo.misc.util.MultiFile</text>
</g>
<!-- topo.misc.util.ModuleFaker -->
<g id="node3" class="node"><title>topo.misc.util.ModuleFaker</title>
<polygon fill="none" stroke="black" stroke-width="0.5" points="149,-96 9,-96 9,-76 149,-76 149,-96"/>
<text text-anchor="middle" x="79" y="-83" font-family="Vera" font-size="10.00">topo.misc.util.ModuleFaker</text>
</g>
<!-- topo.misc.util.gmpyFaker -->
<g id="node7" class="node"><title>topo.misc.util.gmpyFaker</title>
<polygon fill="none" stroke="black" stroke-width="0.5" points="333,-96 203,-96 203,-76 333,-76 333,-96"/>
<text text-anchor="middle" x="268" y="-83" font-family="Vera" font-size="10.00">topo.misc.util.gmpyFaker</text>
</g>
<!-- topo.misc.util.ModuleFaker&#45;&gt;topo.misc.util.gmpyFaker -->
<g id="edge4" class="edge"><title>topo.misc.util.ModuleFaker&#45;&gt;topo.misc.util.gmpyFaker</title>
<path fill="none" stroke="black" stroke-width="0.5" d="M149.108,-86C164.776,-86 181.404,-86 197.103,-86"/>
<polygon fill="black" stroke="black" points="197.389,-87.7501 202.389,-86 197.389,-84.2501 197.389,-87.7501"/>
</g>
<!-- topo.misc.util.Struct -->
<g id="node4" class="node"><title>topo.misc.util.Struct</title>
<polygon fill="none" stroke="black" stroke-width="0.5" points="133,-134 25,-134 25,-114 133,-114 133,-134"/>
<text text-anchor="middle" x="79" y="-121" font-family="Vera" font-size="10.00">topo.misc.util.Struct</text>
</g>
</g>
</svg>
