<?xml version="1.0" encoding="UTF-8" standalone="no"?>
<!DOCTYPE svg PUBLIC "-//W3C//DTD SVG 1.1//EN"
 "http://www.w3.org/Graphics/SVG/1.1/DTD/svg11.dtd">
<!-- Generated by graphviz version 2.26.3 (20100126.1600)
 -->
<!-- Title: inheritance4018997248 Pages: 1 -->
<svg width="356pt" height="142pt"
 viewBox="0.00 0.00 356.00 142.00" xmlns="http://www.w3.org/2000/svg" xmlns:xlink="http://www.w3.org/1999/xlink">
<g id="graph1" class="graph" transform="scale(1 1) rotate(0) translate(4 138)">
<title>inheritance4018997248</title>
<polygon fill="white" stroke="white" points="-4,5 -4,-138 353,-138 353,5 -4,5"/>
<!-- topo.misc.util.ModuleFaker -->
<g id="node1" class="node"><title>topo.misc.util.ModuleFaker</title>
<polygon fill="none" stroke="black" stroke-width="0.5" points="152,-20.5 8,-20.5 8,0.5 152,0.5 152,-20.5"/>
<text text-anchor="middle" x="80" y="-7.5" font-family="Vera" font-size="10.00">topo.misc.util.ModuleFaker</text>
</g>
<!-- topo.misc.util.gmpyFaker -->
<g id="node2" class="node"><title>topo.misc.util.gmpyFaker</title>
<polygon fill="none" stroke="black" stroke-width="0.5" points="340,-20.5 204,-20.5 204,0.5 340,0.5 340,-20.5"/>
<text text-anchor="middle" x="272" y="-7.5" font-family="Vera" font-size="10.00">topo.misc.util.gmpyFaker</text>
</g>
<!-- topo.misc.util.ModuleFaker&#45;&gt;topo.misc.util.gmpyFaker -->
<g id="edge2" class="edge"><title>topo.misc.util.ModuleFaker&#45;&gt;topo.misc.util.gmpyFaker</title>
<path fill="none" stroke="black" stroke-width="0.5" d="M152.04,-10C167.145,-10 183.095,-10 198.261,-10"/>
<polygon fill="black" stroke="black" points="198.372,-11.7501 203.372,-10 198.372,-8.2501 198.372,-11.7501"/>
</g>
<!-- topo.misc.util.gmpyImporter -->
<g id="node4" class="node"><title>topo.misc.util.gmpyImporter</title>
<polygon fill="none" stroke="black" stroke-width="0.5" points="348,-58.5 196,-58.5 196,-37.5 348,-37.5 348,-58.5"/>
<text text-anchor="middle" x="272" y="-45.5" font-family="Vera" font-size="10.00">topo.misc.util.gmpyImporter</text>
</g>
<!-- topo.misc.util.ModuleImporter -->
<g id="node5" class="node"><title>topo.misc.util.ModuleImporter</title>
<polygon fill="none" stroke="black" stroke-width="0.5" points="160,-58.5 7.10543e-14,-58.5 0,-37.5 160,-37.5 160,-58.5"/>
<text text-anchor="middle" x="80" y="-45.5" font-family="Vera" font-size="10.00">topo.misc.util.ModuleImporter</text>
</g>
<!-- topo.misc.util.ModuleImporter&#45;&gt;topo.misc.util.gmpyImporter -->
<g id="edge4" class="edge"><title>topo.misc.util.ModuleImporter&#45;&gt;topo.misc.util.gmpyImporter</title>
<path fill="none" stroke="black" stroke-width="0.5" d="M160.035,-48C170.112,-48 180.43,-48 190.528,-48"/>
<polygon fill="black" stroke="black" points="190.786,-49.7501 195.786,-48 190.786,-46.2501 190.786,-49.7501"/>
</g>
<!-- topo.misc.util.MultiFile -->
<g id="node7" class="node"><title>topo.misc.util.MultiFile</title>
<polygon fill="none" stroke="black" stroke-width="0.5" points="141,-96.5 19,-96.5 19,-75.5 141,-75.5 141,-96.5"/>
<text text-anchor="middle" x="80" y="-83.5" font-family="Vera" font-size="10.00">topo.misc.util.MultiFile</text>
</g>
<!-- topo.misc.util.Struct -->
<g id="node8" class="node"><title>topo.misc.util.Struct</title>
<polygon fill="none" stroke="black" stroke-width="0.5" points="136,-134.5 24,-134.5 24,-113.5 136,-113.5 136,-134.5"/>
<text text-anchor="middle" x="80" y="-121.5" font-family="Vera" font-size="10.00">topo.misc.util.Struct</text>
</g>
</g>
</svg>
