<?xml version="1.0" encoding="UTF-8" standalone="no"?>
<!DOCTYPE svg PUBLIC "-//W3C//DTD SVG 1.1//EN"
 "http://www.w3.org/Graphics/SVG/1.1/DTD/svg11.dtd">
<!-- Generated by graphviz version 2.26.3 (20100126.1600)
 -->
<!-- Title: inheritancea3b1853c84 Pages: 1 -->
<svg width="1392pt" height="66pt"
 viewBox="0.00 0.00 1392.00 66.00" xmlns="http://www.w3.org/2000/svg" xmlns:xlink="http://www.w3.org/1999/xlink">
<g id="graph1" class="graph" transform="scale(1 1) rotate(0) translate(4 62)">
<title>inheritancea3b1853c84</title>
<polygon fill="white" stroke="white" points="-4,5 -4,-62 1389,-62 1389,5 -4,5"/>
<!-- topo.misc.generatorsheet.GeneratorSheet -->
<g id="node1" class="node"><title>topo.misc.generatorsheet.GeneratorSheet</title>
<polygon fill="none" stroke="black" stroke-width="0.5" points="885,-58.5 665,-58.5 665,-37.5 885,-37.5 885,-58.5"/>
<text text-anchor="middle" x="775" y="-45.5" font-family="Vera" font-size="10.00">topo.misc.generatorsheet.GeneratorSheet</text>
</g>
<!-- topo.sheet.SequenceGeneratorSheet -->
<g id="node10" class="node"><title>topo.sheet.SequenceGeneratorSheet</title>
<polygon fill="none" stroke="black" stroke-width="0.5" points="1119,-58.5 923,-58.5 923,-37.5 1119,-37.5 1119,-58.5"/>
<text text-anchor="middle" x="1021" y="-45.5" font-family="Vera" font-size="10.00">topo.sheet.SequenceGeneratorSheet</text>
</g>
<!-- topo.misc.generatorsheet.GeneratorSheet&#45;&gt;topo.sheet.SequenceGeneratorSheet -->
<g id="edge10" class="edge"><title>topo.misc.generatorsheet.GeneratorSheet&#45;&gt;topo.sheet.SequenceGeneratorSheet</title>
<path fill="none" stroke="black" stroke-width="0.5" d="M885.766,-48C896.287,-48 906.929,-48 917.379,-48"/>
<polygon fill="black" stroke="black" points="917.493,-49.7501 922.493,-48 917.493,-46.2501 917.493,-49.7501"/>
</g>
<!-- topo.base.sheet.Sheet -->
<g id="node2" class="node"><title>topo.base.sheet.Sheet</title>
<polygon fill="none" stroke="black" stroke-width="0.5" points="628,-39.5 502,-39.5 502,-18.5 628,-18.5 628,-39.5"/>
<text text-anchor="middle" x="565" y="-26.5" font-family="Vera" font-size="10.00">topo.base.sheet.Sheet</text>
</g>
<!-- topo.base.sheet.Sheet&#45;&gt;topo.misc.generatorsheet.GeneratorSheet -->
<g id="edge2" class="edge"><title>topo.base.sheet.Sheet&#45;&gt;topo.misc.generatorsheet.GeneratorSheet</title>
<path fill="none" stroke="black" stroke-width="0.5" d="M628.007,-34.7006C637.87,-35.593 648.325,-36.539 658.933,-37.4987"/>
<polygon fill="black" stroke="black" points="659.013,-39.263 664.151,-37.9708 659.329,-35.7773 659.013,-39.263"/>
</g>
<!-- topo.base.projection.ProjectionSheet -->
<g id="node16" class="node"><title>topo.base.projection.ProjectionSheet</title>
<polygon fill="none" stroke="black" stroke-width="0.5" points="872,-20.5 678,-20.5 678,0.5 872,0.5 872,-20.5"/>
<text text-anchor="middle" x="775" y="-7.5" font-family="Vera" font-size="10.00">topo.base.projection.ProjectionSheet</text>
</g>
<!-- topo.base.sheet.Sheet&#45;&gt;topo.base.projection.ProjectionSheet -->
<g id="edge14" class="edge"><title>topo.base.sheet.Sheet&#45;&gt;topo.base.projection.ProjectionSheet</title>
<path fill="none" stroke="black" stroke-width="0.5" d="M628.007,-23.2994C642.118,-22.0227 657.44,-20.6364 672.686,-19.257"/>
<polygon fill="black" stroke="black" points="673.03,-20.9831 677.852,-18.7896 672.715,-17.4973 673.03,-20.9831"/>
</g>
<!-- param.parameterized.Parameterized -->
<g id="node4" class="node"><title>param.parameterized.Parameterized</title>
<polygon fill="none" stroke="black" stroke-width="0.5" points="194,-20.5 5.68434e-14,-20.5 0,0.5 194,0.5 194,-20.5"/>
<text text-anchor="middle" x="97" y="-7.5" font-family="Vera" font-size="10.00">param.parameterized.Parameterized</text>
</g>
<!-- topo.base.simulation.EventProcessor -->
<g id="node6" class="node"><title>topo.base.simulation.EventProcessor</title>
<polygon fill="none" stroke="black" stroke-width="0.5" points="445,-20.5 251,-20.5 251,0.5 445,0.5 445,-20.5"/>
<text text-anchor="middle" x="348" y="-7.5" font-family="Vera" font-size="10.00">topo.base.simulation.EventProcessor</text>
</g>
<!-- param.parameterized.Parameterized&#45;&gt;topo.base.simulation.EventProcessor -->
<g id="edge18" class="edge"><title>param.parameterized.Parameterized&#45;&gt;topo.base.simulation.EventProcessor</title>
<path fill="none" stroke="black" stroke-width="0.5" d="M194.043,-10C210.921,-10 228.523,-10 245.54,-10"/>
<polygon fill="black" stroke="black" points="245.801,-11.7501 250.801,-10 245.801,-8.2501 245.801,-11.7501"/>
</g>
<!-- imagen.sheetcoords.SheetCoordinateSystem -->
<g id="node5" class="node"><title>imagen.sheetcoords.SheetCoordinateSystem</title>
<polygon fill="none" stroke="black" stroke-width="0.5" points="466,-58.5 230,-58.5 230,-37.5 466,-37.5 466,-58.5"/>
<text text-anchor="middle" x="348" y="-45.5" font-family="Vera" font-size="10.00">imagen.sheetcoords.SheetCoordinateSystem</text>
</g>
<!-- imagen.sheetcoords.SheetCoordinateSystem&#45;&gt;topo.base.sheet.Sheet -->
<g id="edge6" class="edge"><title>imagen.sheetcoords.SheetCoordinateSystem&#45;&gt;topo.base.sheet.Sheet</title>
<path fill="none" stroke="black" stroke-width="0.5" d="M462.219,-37.9992C473.996,-36.9681 485.682,-35.9449 496.721,-34.9783"/>
<polygon fill="black" stroke="black" points="496.918,-36.7179 501.746,-34.5384 496.612,-33.2313 496.918,-36.7179"/>
</g>
<!-- topo.base.simulation.EventProcessor&#45;&gt;topo.base.sheet.Sheet -->
<g id="edge4" class="edge"><title>topo.base.simulation.EventProcessor&#45;&gt;topo.base.sheet.Sheet</title>
<path fill="none" stroke="black" stroke-width="0.5" d="M445.075,-18.4997C462.563,-20.0309 480.451,-21.5971 496.895,-23.0369"/>
<polygon fill="black" stroke="black" points="496.816,-24.7866 501.95,-23.4795 497.122,-21.2999 496.816,-24.7866"/>
</g>
<!-- topo.sheet.saccade.ShiftingGeneratorSheet -->
<g id="node9" class="node"><title>topo.sheet.saccade.ShiftingGeneratorSheet</title>
<polygon fill="none" stroke="black" stroke-width="0.5" points="1383,-58.5 1157,-58.5 1157,-37.5 1383,-37.5 1383,-58.5"/>
<text text-anchor="middle" x="1270" y="-45.5" font-family="Vera" font-size="10.00">topo.sheet.saccade.ShiftingGeneratorSheet</text>
</g>
<!-- topo.sheet.SequenceGeneratorSheet&#45;&gt;topo.sheet.saccade.ShiftingGeneratorSheet -->
<g id="edge8" class="edge"><title>topo.sheet.SequenceGeneratorSheet&#45;&gt;topo.sheet.saccade.ShiftingGeneratorSheet</title>
<path fill="none" stroke="black" stroke-width="0.5" d="M1119.77,-48C1130.04,-48 1140.55,-48 1151.01,-48"/>
<polygon fill="black" stroke="black" points="1151.14,-49.7501 1156.14,-48 1151.14,-46.2501 1151.14,-49.7501"/>
</g>
<!-- topo.sheet.saccade.SaccadeController -->
<g id="node13" class="node"><title>topo.sheet.saccade.SaccadeController</title>
<polygon fill="none" stroke="black" stroke-width="0.5" points="1371,-20.5 1169,-20.5 1169,0.5 1371,0.5 1371,-20.5"/>
<text text-anchor="middle" x="1270" y="-7.5" font-family="Vera" font-size="10.00">topo.sheet.saccade.SaccadeController</text>
</g>
<!-- topo.base.cf.CFSheet -->
<g id="node14" class="node"><title>topo.base.cf.CFSheet</title>
<polygon fill="none" stroke="black" stroke-width="0.5" points="1080,-20.5 962,-20.5 962,0.5 1080,0.5 1080,-20.5"/>
<text text-anchor="middle" x="1021" y="-7.5" font-family="Vera" font-size="10.00">topo.base.cf.CFSheet</text>
</g>
<!-- topo.base.cf.CFSheet&#45;&gt;topo.sheet.saccade.SaccadeController -->
<g id="edge12" class="edge"><title>topo.base.cf.CFSheet&#45;&gt;topo.sheet.saccade.SaccadeController</title>
<path fill="none" stroke="black" stroke-width="0.5" d="M1080.64,-10C1105.43,-10 1134.97,-10 1163.27,-10"/>
<polygon fill="black" stroke="black" points="1163.54,-11.7501 1168.54,-10 1163.54,-8.25009 1163.54,-11.7501"/>
</g>
<!-- topo.base.projection.ProjectionSheet&#45;&gt;topo.base.cf.CFSheet -->
<g id="edge16" class="edge"><title>topo.base.projection.ProjectionSheet&#45;&gt;topo.base.cf.CFSheet</title>
<path fill="none" stroke="black" stroke-width="0.5" d="M872.226,-10C900.429,-10 930.524,-10 956.216,-10"/>
<polygon fill="black" stroke="black" points="956.293,-11.7501 961.293,-10 956.293,-8.2501 956.293,-11.7501"/>
</g>
</g>
</svg>
