<?xml version="1.0" encoding="UTF-8" standalone="no"?>
<!DOCTYPE svg PUBLIC "-//W3C//DTD SVG 1.1//EN"
 "http://www.w3.org/Graphics/SVG/1.1/DTD/svg11.dtd">
<!-- Generated by graphviz version 2.26.3 (20100126.1600)
 -->
<!-- Title: inheritancef4cea304dd Pages: 1 -->
<svg width="1124pt" height="280pt"
 viewBox="0.00 0.00 1124.00 280.00" xmlns="http://www.w3.org/2000/svg" xmlns:xlink="http://www.w3.org/1999/xlink">
<g id="graph1" class="graph" transform="scale(1 1) rotate(0) translate(4 276)">
<title>inheritancef4cea304dd</title>
<polygon fill="white" stroke="white" points="-4,5 -4,-276 1121,-276 1121,5 -4,5"/>
<!-- topo.base.cf.CFPOutputFn -->
<g id="node1" class="node"><title>topo.base.cf.CFPOutputFn</title>
<polygon fill="none" stroke="black" stroke-width="0.5" points="418,-243.5 278,-243.5 278,-222.5 418,-222.5 418,-243.5"/>
<text text-anchor="middle" x="348" y="-230.5" font-family="Vera" font-size="10.00">topo.base.cf.CFPOutputFn</text>
</g>
<!-- topo.base.cf.CFPOF_Identity -->
<g id="node30" class="node"><title>topo.base.cf.CFPOF_Identity</title>
<polygon fill="none" stroke="black" stroke-width="0.5" points="659,-272.5 511,-272.5 511,-251.5 659,-251.5 659,-272.5"/>
<text text-anchor="middle" x="585" y="-259.5" font-family="Vera" font-size="10.00">topo.base.cf.CFPOF_Identity</text>
</g>
<!-- topo.base.cf.CFPOutputFn&#45;&gt;topo.base.cf.CFPOF_Identity -->
<g id="edge24" class="edge"><title>topo.base.cf.CFPOutputFn&#45;&gt;topo.base.cf.CFPOF_Identity</title>
<path fill="none" stroke="black" stroke-width="0.5" d="M418.146,-241.583C445.516,-244.932 477.04,-248.79 505.266,-252.244"/>
<polygon fill="black" stroke="black" points="505.321,-254.013 510.496,-252.884 505.746,-250.539 505.321,-254.013"/>
</g>
<!-- topo.base.cf.CFPOF_Plugin -->
<g id="node37" class="node"><title>topo.base.cf.CFPOF_Plugin</title>
<polygon fill="none" stroke="black" stroke-width="0.5" points="656,-234.5 514,-234.5 514,-213.5 656,-213.5 656,-234.5"/>
<text text-anchor="middle" x="585" y="-221.5" font-family="Vera" font-size="10.00">topo.base.cf.CFPOF_Plugin</text>
</g>
<!-- topo.base.cf.CFPOutputFn&#45;&gt;topo.base.cf.CFPOF_Plugin -->
<g id="edge34" class="edge"><title>topo.base.cf.CFPOutputFn&#45;&gt;topo.base.cf.CFPOF_Plugin</title>
<path fill="none" stroke="black" stroke-width="0.5" d="M418.146,-230.336C446.415,-229.263 479.116,-228.021 508.038,-226.923"/>
<polygon fill="black" stroke="black" points="508.462,-228.658 513.392,-226.719 508.33,-225.16 508.462,-228.658"/>
</g>
<!-- param.parameterized.Parameterized -->
<g id="node2" class="node"><title>param.parameterized.Parameterized</title>
<polygon fill="none" stroke="black" stroke-width="0.5" points="194,-129.5 5.68434e-14,-129.5 0,-108.5 194,-108.5 194,-129.5"/>
<text text-anchor="middle" x="97" y="-116.5" font-family="Vera" font-size="10.00">param.parameterized.Parameterized</text>
</g>
<!-- param.parameterized.Parameterized&#45;&gt;topo.base.cf.CFPOutputFn -->
<g id="edge2" class="edge"><title>param.parameterized.Parameterized&#45;&gt;topo.base.cf.CFPOutputFn</title>
<path fill="none" stroke="black" stroke-width="0.5" d="M178.93,-129.004C184.301,-131.453 189.394,-134.419 194,-138 223.505,-160.943 200.111,-191.559 230,-214 242.299,-223.235 257.368,-228.715 272.572,-231.84"/>
<polygon fill="black" stroke="black" points="272.492,-233.605 277.73,-232.811 273.14,-230.166 272.492,-233.605"/>
</g>
<!-- topo.base.simulation.EventProcessor -->
<g id="node10" class="node"><title>topo.base.simulation.EventProcessor</title>
<polygon fill="none" stroke="black" stroke-width="0.5" points="445,-205.5 251,-205.5 251,-184.5 445,-184.5 445,-205.5"/>
<text text-anchor="middle" x="348" y="-192.5" font-family="Vera" font-size="10.00">topo.base.simulation.EventProcessor</text>
</g>
<!-- param.parameterized.Parameterized&#45;&gt;topo.base.simulation.EventProcessor -->
<g id="edge30" class="edge"><title>param.parameterized.Parameterized&#45;&gt;topo.base.simulation.EventProcessor</title>
<path fill="none" stroke="black" stroke-width="0.5" d="M172.778,-129.022C180.177,-131.411 187.384,-134.361 194,-138 214.384,-149.213 209.43,-165.133 230,-176 235.303,-178.802 240.914,-181.213 246.694,-183.286"/>
<polygon fill="black" stroke="black" points="246.289,-184.997 251.586,-184.95 247.415,-181.683 246.289,-184.997"/>
</g>
<!-- topo.base.simulation.EPConnection -->
<g id="node15" class="node"><title>topo.base.simulation.EPConnection</title>
<polygon fill="none" stroke="black" stroke-width="0.5" points="441,-129.5 255,-129.5 255,-108.5 441,-108.5 441,-129.5"/>
<text text-anchor="middle" x="348" y="-116.5" font-family="Vera" font-size="10.00">topo.base.simulation.EPConnection</text>
</g>
<!-- param.parameterized.Parameterized&#45;&gt;topo.base.simulation.EPConnection -->
<g id="edge12" class="edge"><title>param.parameterized.Parameterized&#45;&gt;topo.base.simulation.EPConnection</title>
<path fill="none" stroke="black" stroke-width="0.5" d="M194.043,-119C212.327,-119 231.462,-119 249.781,-119"/>
<polygon fill="black" stroke="black" points="249.926,-120.75 254.926,-119 249.926,-117.25 249.926,-120.75"/>
</g>
<!-- topo.base.cf.CFPLearningFn -->
<g id="node21" class="node"><title>topo.base.cf.CFPLearningFn</title>
<polygon fill="none" stroke="black" stroke-width="0.5" points="422,-91.5 274,-91.5 274,-70.5 422,-70.5 422,-91.5"/>
<text text-anchor="middle" x="348" y="-78.5" font-family="Vera" font-size="10.00">topo.base.cf.CFPLearningFn</text>
</g>
<!-- param.parameterized.Parameterized&#45;&gt;topo.base.cf.CFPLearningFn -->
<g id="edge16" class="edge"><title>param.parameterized.Parameterized&#45;&gt;topo.base.cf.CFPLearningFn</title>
<path fill="none" stroke="black" stroke-width="0.5" d="M163.276,-108.966C198.161,-103.685 240.968,-97.204 276.587,-91.8115"/>
<polygon fill="black" stroke="black" points="277.107,-93.5029 281.789,-91.024 276.583,-90.0423 277.107,-93.5029"/>
</g>
<!-- topo.base.cf.CFPResponseFn -->
<g id="node23" class="node"><title>topo.base.cf.CFPResponseFn</title>
<polygon fill="none" stroke="black" stroke-width="0.5" points="424,-53.5 272,-53.5 272,-32.5 424,-32.5 424,-53.5"/>
<text text-anchor="middle" x="348" y="-40.5" font-family="Vera" font-size="10.00">topo.base.cf.CFPResponseFn</text>
</g>
<!-- param.parameterized.Parameterized&#45;&gt;topo.base.cf.CFPResponseFn -->
<g id="edge18" class="edge"><title>param.parameterized.Parameterized&#45;&gt;topo.base.cf.CFPResponseFn</title>
<path fill="none" stroke="black" stroke-width="0.5" d="M116.274,-108.949C141.663,-96.1323 188.018,-74.1752 230,-62 241.509,-58.6623 253.83,-55.8635 266.012,-53.5305"/>
<polygon fill="black" stroke="black" points="266.627,-55.1961 271.221,-52.5589 265.985,-51.7554 266.627,-55.1961"/>
</g>
<!-- topo.base.cf.NullCFError -->
<g id="node4" class="node"><title>topo.base.cf.NullCFError</title>
<polygon fill="none" stroke="black" stroke-width="0.5" points="162,-167.5 32,-167.5 32,-146.5 162,-146.5 162,-167.5"/>
<text text-anchor="middle" x="97" y="-154.5" font-family="Vera" font-size="10.00">topo.base.cf.NullCFError</text>
</g>
<!-- imagen.sheetcoords.SheetCoordinateSystem -->
<g id="node5" class="node"><title>imagen.sheetcoords.SheetCoordinateSystem</title>
<polygon fill="none" stroke="black" stroke-width="0.5" points="466,-167.5 230,-167.5 230,-146.5 466,-146.5 466,-167.5"/>
<text text-anchor="middle" x="348" y="-154.5" font-family="Vera" font-size="10.00">imagen.sheetcoords.SheetCoordinateSystem</text>
</g>
<!-- topo.base.sheet.Sheet -->
<g id="node9" class="node"><title>topo.base.sheet.Sheet</title>
<polygon fill="none" stroke="black" stroke-width="0.5" points="648,-177.5 522,-177.5 522,-156.5 648,-156.5 648,-177.5"/>
<text text-anchor="middle" x="585" y="-164.5" font-family="Vera" font-size="10.00">topo.base.sheet.Sheet</text>
</g>
<!-- imagen.sheetcoords.SheetCoordinateSystem&#45;&gt;topo.base.sheet.Sheet -->
<g id="edge8" class="edge"><title>imagen.sheetcoords.SheetCoordinateSystem&#45;&gt;topo.base.sheet.Sheet</title>
<path fill="none" stroke="black" stroke-width="0.5" d="M466.153,-161.985C483.445,-162.715 500.748,-163.445 516.587,-164.113"/>
<polygon fill="black" stroke="black" points="516.831,-165.875 521.901,-164.338 516.979,-162.378 516.831,-165.875"/>
</g>
<!-- topo.base.cf.ResizableCFProjection -->
<g id="node6" class="node"><title>topo.base.cf.ResizableCFProjection</title>
<polygon fill="none" stroke="black" stroke-width="0.5" points="1116,-134.5 934,-134.5 934,-113.5 1116,-113.5 1116,-134.5"/>
<text text-anchor="middle" x="1025" y="-121.5" font-family="Vera" font-size="10.00">topo.base.cf.ResizableCFProjection</text>
</g>
<!-- topo.base.cf.CFProjection -->
<g id="node7" class="node"><title>topo.base.cf.CFProjection</title>
<polygon fill="none" stroke="black" stroke-width="0.5" points="869,-134.5 733,-134.5 733,-113.5 869,-113.5 869,-134.5"/>
<text text-anchor="middle" x="801" y="-121.5" font-family="Vera" font-size="10.00">topo.base.cf.CFProjection</text>
</g>
<!-- topo.base.cf.CFProjection&#45;&gt;topo.base.cf.ResizableCFProjection -->
<g id="edge4" class="edge"><title>topo.base.cf.CFProjection&#45;&gt;topo.base.cf.ResizableCFProjection</title>
<path fill="none" stroke="black" stroke-width="0.5" d="M869.73,-124C888.343,-124 908.841,-124 928.67,-124"/>
<polygon fill="black" stroke="black" points="928.696,-125.75 933.696,-124 928.696,-122.25 928.696,-125.75"/>
</g>
<!-- topo.base.projection.ProjectionSheet -->
<g id="node19" class="node"><title>topo.base.projection.ProjectionSheet</title>
<polygon fill="none" stroke="black" stroke-width="0.5" points="898,-177.5 704,-177.5 704,-156.5 898,-156.5 898,-177.5"/>
<text text-anchor="middle" x="801" y="-164.5" font-family="Vera" font-size="10.00">topo.base.projection.ProjectionSheet</text>
</g>
<!-- topo.base.sheet.Sheet&#45;&gt;topo.base.projection.ProjectionSheet -->
<g id="edge32" class="edge"><title>topo.base.sheet.Sheet&#45;&gt;topo.base.projection.ProjectionSheet</title>
<path fill="none" stroke="black" stroke-width="0.5" d="M648.057,-167C663.856,-167 681.216,-167 698.394,-167"/>
<polygon fill="black" stroke="black" points="698.717,-168.75 703.717,-167 698.717,-165.25 698.717,-168.75"/>
</g>
<!-- topo.base.simulation.EventProcessor&#45;&gt;topo.base.sheet.Sheet -->
<g id="edge6" class="edge"><title>topo.base.simulation.EventProcessor&#45;&gt;topo.base.sheet.Sheet</title>
<path fill="none" stroke="black" stroke-width="0.5" d="M432.893,-184.97C460.412,-181.719 490.567,-178.157 516.718,-175.067"/>
<polygon fill="black" stroke="black" points="517.133,-176.78 521.893,-174.456 516.722,-173.304 517.133,-176.78"/>
</g>
<!-- topo.base.cf.ConnectionField -->
<g id="node13" class="node"><title>topo.base.cf.ConnectionField</title>
<polygon fill="none" stroke="black" stroke-width="0.5" points="173,-205.5 21,-205.5 21,-184.5 173,-184.5 173,-205.5"/>
<text text-anchor="middle" x="97" y="-192.5" font-family="Vera" font-size="10.00">topo.base.cf.ConnectionField</text>
</g>
<!-- topo.base.projection.Projection -->
<g id="node14" class="node"><title>topo.base.projection.Projection</title>
<polygon fill="none" stroke="black" stroke-width="0.5" points="667,-134.5 503,-134.5 503,-113.5 667,-113.5 667,-134.5"/>
<text text-anchor="middle" x="585" y="-121.5" font-family="Vera" font-size="10.00">topo.base.projection.Projection</text>
</g>
<!-- topo.base.projection.Projection&#45;&gt;topo.base.cf.CFProjection -->
<g id="edge26" class="edge"><title>topo.base.projection.Projection&#45;&gt;topo.base.cf.CFProjection</title>
<path fill="none" stroke="black" stroke-width="0.5" d="M667.585,-124C687.071,-124 707.728,-124 726.817,-124"/>
<polygon fill="black" stroke="black" points="727.157,-125.75 732.157,-124 727.157,-122.25 727.157,-125.75"/>
</g>
<!-- topo.base.simulation.EPConnection&#45;&gt;topo.base.projection.Projection -->
<g id="edge10" class="edge"><title>topo.base.simulation.EPConnection&#45;&gt;topo.base.projection.Projection</title>
<path fill="none" stroke="black" stroke-width="0.5" d="M441.328,-120.969C459.681,-121.356 478.878,-121.761 497.046,-122.144"/>
<polygon fill="black" stroke="black" points="497.106,-123.896 502.142,-122.252 497.18,-120.397 497.106,-123.896"/>
</g>
<!-- topo.base.cf.CFSheet -->
<g id="node18" class="node"><title>topo.base.cf.CFSheet</title>
<polygon fill="none" stroke="black" stroke-width="0.5" points="1084,-177.5 966,-177.5 966,-156.5 1084,-156.5 1084,-177.5"/>
<text text-anchor="middle" x="1025" y="-164.5" font-family="Vera" font-size="10.00">topo.base.cf.CFSheet</text>
</g>
<!-- topo.base.projection.ProjectionSheet&#45;&gt;topo.base.cf.CFSheet -->
<g id="edge14" class="edge"><title>topo.base.projection.ProjectionSheet&#45;&gt;topo.base.cf.CFSheet</title>
<path fill="none" stroke="black" stroke-width="0.5" d="M898.272,-167C919.101,-167 940.622,-167 959.885,-167"/>
<polygon fill="black" stroke="black" points="960.255,-168.75 965.255,-167 960.255,-165.25 960.255,-168.75"/>
</g>
<!-- topo.base.cf.CFPLF_Identity -->
<g id="node25" class="node"><title>topo.base.cf.CFPLF_Identity</title>
<polygon fill="none" stroke="black" stroke-width="0.5" points="658,-96.5 512,-96.5 512,-75.5 658,-75.5 658,-96.5"/>
<text text-anchor="middle" x="585" y="-83.5" font-family="Vera" font-size="10.00">topo.base.cf.CFPLF_Identity</text>
</g>
<!-- topo.base.cf.CFPLearningFn&#45;&gt;topo.base.cf.CFPLF_Identity -->
<g id="edge20" class="edge"><title>topo.base.cf.CFPLearningFn&#45;&gt;topo.base.cf.CFPLF_Identity</title>
<path fill="none" stroke="black" stroke-width="0.5" d="M422.663,-82.5752C449.121,-83.1334 478.973,-83.7631 505.796,-84.329"/>
<polygon fill="black" stroke="black" points="506.083,-86.0854 511.118,-84.4413 506.156,-82.5862 506.083,-86.0854"/>
</g>
<!-- topo.base.cf.CFPLF_Plugin -->
<g id="node33" class="node"><title>topo.base.cf.CFPLF_Plugin</title>
<polygon fill="none" stroke="black" stroke-width="0.5" points="655,-58.5 515,-58.5 515,-37.5 655,-37.5 655,-58.5"/>
<text text-anchor="middle" x="585" y="-45.5" font-family="Vera" font-size="10.00">topo.base.cf.CFPLF_Plugin</text>
</g>
<!-- topo.base.cf.CFPLearningFn&#45;&gt;topo.base.cf.CFPLF_Plugin -->
<g id="edge28" class="edge"><title>topo.base.cf.CFPLearningFn&#45;&gt;topo.base.cf.CFPLF_Plugin</title>
<path fill="none" stroke="black" stroke-width="0.5" d="M420.073,-70.9645C448.406,-67.0193 480.946,-62.4885 509.595,-58.4994"/>
<polygon fill="black" stroke="black" points="510.186,-60.184 514.897,-57.7611 509.704,-56.7175 510.186,-60.184"/>
</g>
<!-- topo.base.cf.CFPRF_Plugin -->
<g id="node27" class="node"><title>topo.base.cf.CFPRF_Plugin</title>
<polygon fill="none" stroke="black" stroke-width="0.5" points="655,-20.5 515,-20.5 515,0.5 655,0.5 655,-20.5"/>
<text text-anchor="middle" x="585" y="-7.5" font-family="Vera" font-size="10.00">topo.base.cf.CFPRF_Plugin</text>
</g>
<!-- topo.base.cf.CFPResponseFn&#45;&gt;topo.base.cf.CFPRF_Plugin -->
<g id="edge22" class="edge"><title>topo.base.cf.CFPResponseFn&#45;&gt;topo.base.cf.CFPRF_Plugin</title>
<path fill="none" stroke="black" stroke-width="0.5" d="M420.073,-32.9645C448.278,-29.0372 480.652,-24.5295 509.206,-20.5536"/>
<polygon fill="black" stroke="black" points="509.78,-22.2406 514.491,-19.8177 509.298,-18.774 509.78,-22.2406"/>
</g>
<!-- topo.base.cf.CFIter -->
<g id="node29" class="node"><title>topo.base.cf.CFIter</title>
<polygon fill="none" stroke="black" stroke-width="0.5" points="150,-243.5 44,-243.5 44,-222.5 150,-222.5 150,-243.5"/>
<text text-anchor="middle" x="97" y="-230.5" font-family="Vera" font-size="10.00">topo.base.cf.CFIter</text>
</g>
</g>
</svg>
