<?xml version="1.0" encoding="UTF-8" standalone="no"?>
<!DOCTYPE svg PUBLIC "-//W3C//DTD SVG 1.1//EN"
 "http://www.w3.org/Graphics/SVG/1.1/DTD/svg11.dtd">
<!-- Generated by graphviz version 2.26.3 (20100126.1600)
 -->
<!-- Title: inheritanceb299c4dd19 Pages: 1 -->
<svg width="950pt" height="142pt"
 viewBox="0.00 0.00 950.00 142.00" xmlns="http://www.w3.org/2000/svg" xmlns:xlink="http://www.w3.org/1999/xlink">
<g id="graph1" class="graph" transform="scale(1 1) rotate(0) translate(4 138)">
<title>inheritanceb299c4dd19</title>
<polygon fill="white" stroke="white" points="-4,5 -4,-138 947,-138 947,5 -4,5"/>
<!-- param.parameterized.Parameterized -->
<g id="node1" class="node"><title>param.parameterized.Parameterized</title>
<polygon fill="none" stroke="black" stroke-width="0.5" points="194,-77.5 5.68434e-14,-77.5 0,-56.5 194,-56.5 194,-77.5"/>
<text text-anchor="middle" x="97" y="-64.5" font-family="Vera" font-size="10.00">param.parameterized.Parameterized</text>
</g>
<!-- imagen.patterngenerator.PatternGenerator -->
<g id="node8" class="node"><title>imagen.patterngenerator.PatternGenerator</title>
<polygon fill="none" stroke="black" stroke-width="0.5" points="454,-77.5 230,-77.5 230,-56.5 454,-56.5 454,-77.5"/>
<text text-anchor="middle" x="342" y="-64.5" font-family="Vera" font-size="10.00">imagen.patterngenerator.PatternGenerator</text>
</g>
<!-- param.parameterized.Parameterized&#45;&gt;imagen.patterngenerator.PatternGenerator -->
<g id="edge14" class="edge"><title>param.parameterized.Parameterized&#45;&gt;imagen.patterngenerator.PatternGenerator</title>
<path fill="none" stroke="black" stroke-width="0.5" d="M194.182,-67C204.286,-67 214.629,-67 224.922,-67"/>
<polygon fill="black" stroke="black" points="224.969,-68.7501 229.969,-67 224.969,-65.2501 224.969,-68.7501"/>
</g>
<!-- imagen.random.GaussianCloud -->
<g id="node2" class="node"><title>imagen.random.GaussianCloud</title>
<polygon fill="none" stroke="black" stroke-width="0.5" points="923,-134.5 757,-134.5 757,-113.5 923,-113.5 923,-134.5"/>
<text text-anchor="middle" x="840" y="-121.5" font-family="Vera" font-size="10.00">imagen.random.GaussianCloud</text>
</g>
<!-- imagen.Composite -->
<g id="node3" class="node"><title>imagen.Composite</title>
<polygon fill="none" stroke="black" stroke-width="0.5" points="649,-124.5 543,-124.5 543,-103.5 649,-103.5 649,-124.5"/>
<text text-anchor="middle" x="596" y="-111.5" font-family="Vera" font-size="10.00">imagen.Composite</text>
</g>
<!-- imagen.Composite&#45;&gt;imagen.random.GaussianCloud -->
<g id="edge2" class="edge"><title>imagen.Composite&#45;&gt;imagen.random.GaussianCloud</title>
<path fill="none" stroke="black" stroke-width="0.5" d="M649.547,-116.195C679.364,-117.417 717.246,-118.969 751.359,-120.367"/>
<polygon fill="black" stroke="black" points="751.296,-122.116 756.364,-120.572 751.44,-118.619 751.296,-122.116"/>
</g>
<!-- imagen.random.BinaryUniformRandom -->
<g id="node5" class="node"><title>imagen.random.BinaryUniformRandom</title>
<polygon fill="none" stroke="black" stroke-width="0.5" points="942,-96.5 738,-96.5 738,-75.5 942,-75.5 942,-96.5"/>
<text text-anchor="middle" x="840" y="-83.5" font-family="Vera" font-size="10.00">imagen.random.BinaryUniformRandom</text>
</g>
<!-- imagen.random.RandomGenerator -->
<g id="node6" class="node"><title>imagen.random.RandomGenerator</title>
<polygon fill="none" stroke="black" stroke-width="0.5" points="688,-77.5 504,-77.5 504,-56.5 688,-56.5 688,-77.5"/>
<text text-anchor="middle" x="596" y="-64.5" font-family="Vera" font-size="10.00">imagen.random.RandomGenerator</text>
</g>
<!-- imagen.random.RandomGenerator&#45;&gt;imagen.random.BinaryUniformRandom -->
<g id="edge4" class="edge"><title>imagen.random.RandomGenerator&#45;&gt;imagen.random.BinaryUniformRandom</title>
<path fill="none" stroke="black" stroke-width="0.5" d="M688.594,-74.2102C702.882,-75.3228 717.743,-76.48 732.327,-77.6156"/>
<polygon fill="black" stroke="black" points="732.565,-79.3893 737.685,-78.0329 732.836,-75.8999 732.565,-79.3893"/>
</g>
<!-- imagen.random.UniformRandom -->
<g id="node11" class="node"><title>imagen.random.UniformRandom</title>
<polygon fill="none" stroke="black" stroke-width="0.5" points="927,-58.5 753,-58.5 753,-37.5 927,-37.5 927,-58.5"/>
<text text-anchor="middle" x="840" y="-45.5" font-family="Vera" font-size="10.00">imagen.random.UniformRandom</text>
</g>
<!-- imagen.random.RandomGenerator&#45;&gt;imagen.random.UniformRandom -->
<g id="edge10" class="edge"><title>imagen.random.RandomGenerator&#45;&gt;imagen.random.UniformRandom</title>
<path fill="none" stroke="black" stroke-width="0.5" d="M688.594,-59.7898C707.818,-58.2929 728.078,-56.7153 747.305,-55.218"/>
<polygon fill="black" stroke="black" points="747.85,-56.931 752.699,-54.798 747.578,-53.4416 747.85,-56.931"/>
</g>
<!-- imagen.random.GaussianRandom -->
<g id="node16" class="node"><title>imagen.random.GaussianRandom</title>
<polygon fill="none" stroke="black" stroke-width="0.5" points="930,-20.5 750,-20.5 750,0.5 930,0.5 930,-20.5"/>
<text text-anchor="middle" x="840" y="-7.5" font-family="Vera" font-size="10.00">imagen.random.GaussianRandom</text>
</g>
<!-- imagen.random.RandomGenerator&#45;&gt;imagen.random.GaussianRandom -->
<g id="edge16" class="edge"><title>imagen.random.RandomGenerator&#45;&gt;imagen.random.GaussianRandom</title>
<path fill="none" stroke="black" stroke-width="0.5" d="M669.175,-56.9402C680.317,-54.5344 691.57,-51.59 702,-48 719.107,-42.112 720.913,-34.9462 738,-29 746.765,-25.9499 756.133,-23.3579 765.506,-21.1632"/>
<polygon fill="black" stroke="black" points="765.917,-22.8647 770.405,-20.0515 765.142,-19.4515 765.917,-22.8647"/>
</g>
<!-- imagen.patterngenerator.PatternGenerator&#45;&gt;imagen.Composite -->
<g id="edge6" class="edge"><title>imagen.patterngenerator.PatternGenerator&#45;&gt;imagen.Composite</title>
<path fill="none" stroke="black" stroke-width="0.5" d="M396.178,-77.025C437.62,-84.6934 494.687,-95.253 537.228,-103.125"/>
<polygon fill="black" stroke="black" points="537.107,-104.882 542.342,-104.071 537.744,-101.44 537.107,-104.882"/>
</g>
<!-- imagen.patterngenerator.PatternGenerator&#45;&gt;imagen.random.RandomGenerator -->
<g id="edge8" class="edge"><title>imagen.patterngenerator.PatternGenerator&#45;&gt;imagen.random.RandomGenerator</title>
<path fill="none" stroke="black" stroke-width="0.5" d="M454.147,-67C468.824,-67 483.769,-67 498.184,-67"/>
<polygon fill="black" stroke="black" points="498.469,-68.7501 503.469,-67 498.469,-65.2501 498.469,-68.7501"/>
</g>
<!-- imagen.random.RandomDotStereogram -->
<g id="node13" class="node"><title>imagen.random.RandomDotStereogram</title>
<polygon fill="none" stroke="black" stroke-width="0.5" points="701,-39.5 491,-39.5 491,-18.5 701,-18.5 701,-39.5"/>
<text text-anchor="middle" x="596" y="-26.5" font-family="Vera" font-size="10.00">imagen.random.RandomDotStereogram</text>
</g>
<!-- imagen.patterngenerator.PatternGenerator&#45;&gt;imagen.random.RandomDotStereogram -->
<g id="edge12" class="edge"><title>imagen.patterngenerator.PatternGenerator&#45;&gt;imagen.random.RandomDotStereogram</title>
<path fill="none" stroke="black" stroke-width="0.5" d="M409.068,-56.9662C444.37,-51.6848 487.689,-45.204 523.734,-39.8115"/>
<polygon fill="black" stroke="black" points="524.311,-41.4947 528.997,-39.024 523.793,-38.0332 524.311,-41.4947"/>
</g>
</g>
</svg>
