<?xml version="1.0" encoding="UTF-8" standalone="no"?>
<!DOCTYPE svg PUBLIC "-//W3C//DTD SVG 1.1//EN"
 "http://www.w3.org/Graphics/SVG/1.1/DTD/svg11.dtd">
<!-- Generated by graphviz version 2.26.3 (20100126.1600)
 -->
<!-- Title: inheritance248ef6cf2d Pages: 1 -->
<svg width="654pt" height="28pt"
 viewBox="0.00 0.00 654.00 28.00" xmlns="http://www.w3.org/2000/svg" xmlns:xlink="http://www.w3.org/1999/xlink">
<g id="graph1" class="graph" transform="scale(1 1) rotate(0) translate(4 24)">
<title>inheritance248ef6cf2d</title>
<polygon fill="white" stroke="white" points="-4,5 -4,-24 651,-24 651,5 -4,5"/>
<!-- topo.misc.genexamples.generate -->
<g id="node1" class="node"><title>topo.misc.genexamples.generate</title>
<polygon fill="none" stroke="black" stroke-width="0.5" points="646,-20 480,-20 480,-1.06581e-14 646,-3.55271e-15 646,-20"/>
<text text-anchor="middle" x="563" y="-7" font-family="Vera" font-size="10.00">topo.misc.genexamples.generate</text>
</g>
<!-- param.parameterized.ParameterizedFunction -->
<g id="node2" class="node"><title>param.parameterized.ParameterizedFunction</title>
<polygon fill="none" stroke="black" stroke-width="0.5" points="443,-20 221,-20 221,-1.06581e-14 443,-3.55271e-15 443,-20"/>
<text text-anchor="middle" x="332" y="-7" font-family="Vera" font-size="10.00">param.parameterized.ParameterizedFunction</text>
</g>
<!-- param.parameterized.ParameterizedFunction&#45;&gt;topo.misc.genexamples.generate -->
<g id="edge2" class="edge"><title>param.parameterized.ParameterizedFunction&#45;&gt;topo.misc.genexamples.generate</title>
<path fill="none" stroke="black" stroke-width="0.5" d="M443.778,-10C454.076,-10 464.412,-10 474.461,-10"/>
<polygon fill="black" stroke="black" points="474.687,-11.7501 479.687,-10 474.687,-8.2501 474.687,-11.7501"/>
</g>
<!-- param.parameterized.Parameterized -->
<g id="node4" class="node"><title>param.parameterized.Parameterized</title>
<polygon fill="none" stroke="black" stroke-width="0.5" points="184,-20 8.52651e-14,-20 0,-1.06581e-14 184,-3.55271e-15 184,-20"/>
<text text-anchor="middle" x="92" y="-7" font-family="Vera" font-size="10.00">param.parameterized.Parameterized</text>
</g>
<!-- param.parameterized.Parameterized&#45;&gt;param.parameterized.ParameterizedFunction -->
<g id="edge4" class="edge"><title>param.parameterized.Parameterized&#45;&gt;param.parameterized.ParameterizedFunction</title>
<path fill="none" stroke="black" stroke-width="0.5" d="M184.104,-10C194.328,-10 204.838,-10 215.314,-10"/>
<polygon fill="black" stroke="black" points="215.453,-11.7501 220.453,-10 215.453,-8.2501 215.453,-11.7501"/>
</g>
</g>
</svg>
